P3
51 51
255
51 51 51   51 51 51   51 51 51   51 51 51   51 51 51   51 51 51   51 51 51   51 51 51   51 51 51   51 51 51   51 51 51   51 51 51   51 51 51   51 51 51   51 51 51   51 51 51   51 51 51   51 51 51   51 51 51   51 51 51   51 51 51   51 51 51   51 51 51   51 51 51   51 51 51   51 51 51   51 51 51   51 51 51   51 51 51   51 51 51   51 51 51   51 51 51   51 51 51   51 51 51   51 51 51   51 51 51   51 51 51   51 51 51   51 51 51   51 51 51   51 51 51   51 51 51   51 51 51   51 51 51   51 51 51   51 51 51   51 51 51   51 51 51   51 51 51   51 51 51   51 51 51   
51 51 51   51 51 51   51 51 51   51 51 51   51 51 51   51 51 51   51 51 51   51 51 51   51 51 51   51 51 51   51 51 51   51 51 51   51 51 51   51 51 51   51 51 51   51 51 51   51 51 51   51 51 51   51 51 51   51 51 51   51 51 51   51 51 51   51 51 51   51 51 51   51 51 51   51 51 51   51 51 51   51 51 51   51 51 51   51 51 51   51 51 51   51 51 51   51 51 51   51 51 51   51 51 51   51 51 51   51 51 51   51 51 51   51 51 51   51 51 51   51 51 51   51 51 51   51 51 51   51 51 51   51 51 51   51 51 51   51 51 51   51 51 51   51 51 51   51 51 51   51 51 51   
51 51 51   51 51 51   51 51 51   51 51 51   51 51 51   51 51 51   51 51 51   51 51 51   51 51 51   51 51 51   51 51 51   51 51 51   51 51 51   51 51 51   51 51 51   51 51 51   51 51 51   51 51 51   51 51 51   51 51 51   51 51 51   51 51 51   51 51 51   51 51 51   51 51 51   51 51 51   51 51 51   174 177 37   199 203 42   220 224 47   237 242 51   51 51 51   51 51 51   51 51 51   51 51 51   51 51 51   51 51 51   51 51 51   51 51 51   51 51 51   51 51 51   51 51 51   51 51 51   51 51 51   51 51 51   51 51 51   51 51 51   51 51 51   51 51 51   51 51 51   51 51 51   
51 51 51   51 51 51   51 51 51   51 51 51   51 51 51   51 51 51   51 51 51   51 51 51   51 51 51   51 51 51   51 51 51   51 51 51   51 51 51   51 51 51   51 51 51   51 51 51   51 51 51   51 51 51   51 51 51   51 51 51   51 51 51   51 51 51   51 51 51   51 51 51   51 51 51   108 111 23   141 143 30   166 170 36   189 193 40   209 214 45   228 232 49   244 249 52   255 255 55   205 40 213   251 49 255   255 57 255   255 64 255   255 71 255   255 77 255   51 51 51   51 51 51   62 211 164   77 255 204   91 255 240   104 255 255   117 255 255   51 51 51   51 51 51   51 51 51   51 51 51   51 51 51   
51 51 51   51 51 51   51 51 51   51 51 51   51 51 51   51 51 51   51 51 51   51 51 51   51 51 51   51 51 51   51 51 51   51 51 51   51 51 51   51 51 51   51 51 51   51 51 51   51 51 51   51 51 51   51 51 51   51 51 51   51 51 51   51 51 51   51 51 51   51 51 51   65 66 14   100 102 21   128 131 27   152 155 32   174 178 37   194 198 42   217 219 48   231 235 50   245 249 52   183 36 191   225 44 234   255 52 255   255 59 255   255 66 255   255 72 255   255 78 255   35 120 93   51 174 135   65 223 173   79 255 210   92 255 244   107 255 255   117 255 255   51 51 51   51 51 51   51 51 51   51 51 51   
51 51 51   51 51 51   51 51 51   51 51 51   51 51 51   51 51 51   51 51 51   51 51 51   51 51 51   51 51 51   51 51 51   51 51 51   51 51 51   51 51 51   51 51 51   51 51 51   51 51 51   51 51 51   51 51 51   51 51 51   51 51 51   51 51 51   51 51 51   14 14 3   54 55 11   85 87 18   112 114 24   135 138 29   157 160 33   177 181 38   223 217 59   255 255 86   231 234 50   155 30 161   196 38 203   233 46 243   171 182 203   214 228 254   249 255 255   255 255 255   255 255 255   255 255 255   255 255 255   67 228 177   80 255 212   207 255 255   107 255 255   117 255 255   51 51 51   51 51 51   51 51 51   
51 51 51   51 51 51   51 51 51   51 51 51   51 51 51   51 51 51   51 51 51   51 51 51   51 51 51   51 51 51   51 51 51   51 51 51   51 51 51   51 51 51   51 51 51   51 51 51   51 51 51   51 51 51   51 51 51   51 51 51   51 51 51   51 51 51   51 51 51   14 14 3   37 38 8   67 69 14   93 95 20   117 119 25   138 141 29   158 161 34   182 183 41   231 221 64   218 219 50   123 24 128   163 32 170   119 127 141   161 172 191   197 210 234   229 244 255   255 255 255   255 255 255   255 255 255   255 255 255   255 255 255   255 255 255   80 255 212   92 255 244   104 255 255   51 51 51   51 51 51   51 51 51   
51 51 51   51 51 51   51 51 51   51 51 51   51 51 51   51 51 51   51 51 51   51 51 51   51 51 51   51 51 51   51 51 51   51 51 51   51 51 51   51 51 51   51 51 51   51 51 51   51 51 51   51 51 51   51 51 51   255 196 123   255 227 143   255 250 158   255 255 170   255 255 177   14 14 3   47 48 10   73 74 15   96 98 20   118 120 25   138 141 29   157 160 33   175 178 38   190 194 41   88 17 92   57 60 67   103 109 122   141 150 167   175 186 208   207 220 245   237 252 255   255 255 255   255 255 255   255 255 255   255 255 255   255 255 255   67 228 177   79 255 210   91 255 240   51 51 51   51 51 51   51 51 51   
51 51 51   51 51 51   51 51 51   51 51 51   51 51 51   51 51 51   51 51 51   51 51 51   51 51 51   50 7 219   66 10 255   79 11 255   91 13 255   94 14 255   91 13 255   51 51 51   51 51 51   167 124 78   228 169 106   255 200 126   255 225 142   255 247 156   255 255 168   255 255 178   255 255 185   255 255 188   51 52 11   75 76 16   96 98 20   116 119 25   135 138 29   152 155 32   168 171 36   21 22 24   38 41 46   80 86 95   117 125 139   151 161 179   182 194 216   212 226 251   240 255 255   255 255 255   255 255 255   255 255 255   255 255 255   255 255 255   65 223 173   77 255 204   51 51 51   51 51 51   51 51 51   
51 51 51   51 51 51   51 51 51   51 51 51   51 51 51   51 51 51   51 51 51   51 51 51   29 4 129   49 7 215   63 9 255   90 12 255   144 16 255   164 18 255   114 15 255   89 13 255   105 78 49   173 129 81   219 163 103   255 191 120   255 215 136   255 236 149   255 255 161   255 255 171   255 255 180   255 255 186   255 255 187   51 52 11   73 74 15   93 95 20   112 114 24   129 132 27   144 147 31   21 22 24   21 22 24   55 59 66   92 98 109   125 133 148   156 166 186   186 198 221   214 228 254   242 255 255   255 255 255   255 255 255   255 255 255   255 255 255   117 140 28   127 152 30   51 51 51   51 51 51   51 51 51   
51 51 51   51 51 51   51 51 51   51 51 51   51 51 51   51 51 51   51 51 51   51 51 51   25 3 112   42 6 185   55 8 240   83 11 255   150 16 255   208 21 255   165 18 255   126 7 105   106 79 50   160 119 75   202 150 95   238 177 111   255 200 126   255 221 140   255 244 152   255 255 175   255 255 176   255 255 178   255 255 182   255 255 176   48 49 10   68 70 14   87 89 18   104 106 22   21 22 24   21 22 24   21 22 24   28 30 34   65 69 77   98 104 116   129 138 153   159 169 189   187 199 222   214 228 254   240 255 255   255 255 255   255 255 255   255 255 255   108 129 26   119 142 28   128 154 31   51 51 51   51 51 51   
51 51 51   51 51 51   51 51 51   51 51 51   51 51 51   117 212 98   145 255 122   158 255 133   16 2 72   32 4 142   45 6 196   59 8 243   92 11 255   134 15 255   130 15 255   22 16 10   90 66 42   139 103 65   180 133 84   215 159 101   246 183 115   255 203 128   255 224 141   255 255 166   255 255 182   255 255 168   255 255 173   255 255 173   21 21 4   41 42 8   60 61 13   77 78 16   21 22 24   21 22 24   21 22 24   21 22 24   36 38 42   69 74 82   101 107 120   131 139 155   159 169 189   186 198 221   212 226 251   237 252 255   255 255 255   255 255 255   108 173 62   110 139 32   119 142 28   127 152 30   51 51 51   
51 51 51   51 51 51   51 51 51   51 51 51   79 143 66   116 210 97   140 253 117   162 255 135   161 255 135   143 255 121   33 5 143   43 6 188   54 8 226   255 24 52   21 2 4   22 16 10   65 48 30   113 84 53   153 114 72   188 140 88   220 163 103   248 184 116   255 202 128   255 222 139   255 244 150   255 247 156   255 255 161   255 255 163   14 14 3   14 14 3   30 30 6   46 47 10   21 22 24   21 22 24   21 22 24   21 22 24   21 22 24   39 41 46   71 75 84   101 107 120   129 138 153   156 166 186   182 194 216   207 220 245   229 244 255   249 255 255   87 106 21   99 125 29   108 130 26   117 141 28   51 51 51   
51 51 51   51 51 51   51 51 51   51 51 51   63 113 53   96 174 81   119 216 100   166 255 134   145 255 122   140 254 118   18 2 82   29 4 128   119 11 24   228 22 47   21 2 4   22 16 10   36 26 16   83 62 39   124 92 58   159 118 74   190 141 89   218 162 102   243 180 114   255 197 125   255 212 134   255 224 142   255 234 147   255 237 150   255 215 136   14 14 3   14 14 3   14 14 3   21 22 24   21 22 24   21 22 24   21 22 24   21 22 24   21 22 24   39 41 46   69 74 82   98 104 116   125 133 148   151 161 179   175 186 208   197 210 234   214 228 254   76 91 18   87 104 20   97 116 23   106 127 25   51 51 51   
51 51 51   51 51 51   51 51 51   8 16 7   33 59 27   67 121 56   90 163 76   107 193 90   116 210 97   115 207 96   5 0 21   13 2 57   65 6 13   21 2 4   21 2 4   22 16 10   22 16 10   50 37 23   90 67 42   126 93 59   157 117 74   186 138 87   211 156 99   234 173 109   254 188 119   255 200 126   255 209 132   255 212 134   255 191 120   14 14 3   14 14 3   14 14 3   51 51 51   21 22 24   21 22 24   21 22 24   21 22 24   21 22 24   21 22 24   36 38 42   65 69 77   92 98 109   117 125 139   141 150 167   161 172 191   171 182 203   64 77 15   75 90 18   85 102 20   94 113 22   51 51 51   
51 51 51   51 51 51   51 51 51   51 51 51   8 16 7   28 50 23   53 96 44   70 127 59   79 143 66   76 138 64   5 0 21   5 0 21   21 2 4   21 2 4   21 2 4   22 16 10   22 16 10   22 16 10   53 39 25   89 66 42   121 90 57   150 111 70   176 130 82   198 147 93   218 161 102   234 173 109   245 181 114   22 16 10   4 2 10   4 2 10   4 2 10   80 35 175   51 51 51   21 22 24   21 22 24   21 22 24   21 22 24   21 22 24   21 22 24   21 22 24   28 30 34   55 59 66   80 86 95   103 109 122   119 127 141   41 49 9   52 62 12   63 75 15   72 87 17   81 97 19   51 51 51   
51 51 51   51 51 51   51 51 51   51 51 51   8 16 7   8 16 7   8 16 7   22 40 18   29 53 25   16 30 14   5 0 21   5 0 21   21 2 4   21 2 4   21 2 4   22 16 10   22 16 10   22 16 10   22 16 10   49 36 23   82 60 38   111 82 52   136 101 64   159 118 74   178 132 83   193 143 90   202 150 95   22 16 10   4 2 10   4 2 10   4 2 10   77 33 168   51 51 51   51 51 51   21 22 24   21 22 24   21 22 24   21 22 24   21 22 24   21 22 24   21 22 24   21 22 24   38 41 46   57 60 67   15 18 3   27 33 6   39 46 9   49 59 11   59 70 14   64 76 15   51 51 51   
51 51 51   51 51 51   51 51 51   51 51 51   51 51 51   51 51 51   8 16 7   8 16 7   51 51 51   51 51 51   51 51 51   51 51 51   51 51 51   21 2 4   21 2 4   21 2 4   22 16 10   22 16 10   22 16 10   22 16 10   37 27 17   67 49 31   93 69 43   115 85 54   133 99 62   147 109 69   22 16 10   22 16 10   4 2 10   4 2 10   4 2 10   4 2 10   51 51 51   51 51 51   51 51 51   21 22 24   21 22 24   21 22 24   21 22 24   21 22 24   21 22 24   21 22 24   21 22 24   7 8 1   7 8 1   13 16 3   24 29 5   34 41 8   42 51 10   51 51 51   51 51 51   
51 51 51   51 51 51   51 51 51   51 51 51   51 51 51   51 51 51   51 51 51   51 51 51   51 51 51   51 51 51   51 51 51   51 51 51   51 51 51   51 51 51   51 51 51   51 51 51   22 16 10   22 16 10   22 16 10   22 16 10   22 16 10   22 16 10   43 32 20   65 48 30   81 60 38   22 16 10   22 16 10   4 2 10   4 2 10   4 2 10   4 2 10   4 2 10   51 51 51   51 51 51   51 51 51   51 51 51   51 51 51   21 22 24   21 22 24   21 22 24   21 22 24   7 8 1   7 8 1   7 8 1   7 8 1   7 8 1   7 8 1   16 20 4   51 51 51   51 51 51   51 51 51   
51 51 51   51 51 51   51 51 51   51 51 51   51 51 51   51 51 51   51 51 51   51 51 51   51 51 51   51 51 51   51 51 51   51 51 51   51 51 51   51 51 51   51 51 51   51 51 51   51 51 51   22 16 10   22 16 10   22 16 10   22 16 10   22 16 10   22 16 10   22 16 10   22 16 10   22 16 10   4 2 10   4 2 10   4 2 10   4 2 10   4 2 10   4 2 10   51 51 51   51 51 51   51 51 51   51 51 51   51 51 51   12 19 25   12 19 25   12 19 25   12 19 25   7 8 1   7 8 1   7 8 1   7 8 1   7 8 1   7 8 1   51 51 51   51 51 51   51 51 51   51 51 51   
51 51 51   51 51 51   51 51 51   51 51 51   51 51 51   51 51 51   51 51 51   51 51 51   51 51 51   51 51 51   51 51 51   51 51 51   234 4 81   255 5 100   17 0 6   16 20 19   16 20 19   16 20 19   16 20 19   22 16 10   22 16 10   22 16 10   22 16 10   22 16 10   22 7 5   4 2 10   4 2 10   4 2 10   4 2 10   4 2 10   4 2 10   51 51 51   51 51 51   51 51 51   51 51 51   51 51 51   51 51 51   12 19 25   12 19 25   12 19 25   12 19 25   12 19 25   12 19 25   12 19 25   12 19 25   255 255 255   244 255 255   215 255 255   51 51 51   51 51 51   51 51 51   
51 51 51   51 51 51   51 51 51   51 51 51   51 51 51   51 51 51   51 51 51   51 51 51   51 51 51   51 51 51   51 51 51   162 3 56   238 4 82   17 0 6   16 20 19   16 20 19   16 20 19   16 20 19   16 20 19   16 20 19   16 20 19   22 7 5   22 7 5   22 7 5   22 7 5   22 7 5   4 2 10   8 84 36   27 247 106   106 255 175   51 51 51   29 57 65   74 144 163   103 199 226   113 217 246   51 51 51   12 19 25   12 19 25   12 19 25   12 19 25   12 19 25   12 19 25   110 167 219   152 218 255   212 255 255   245 255 255   217 255 255   198 255 255   51 51 51   51 51 51   51 51 51   
51 51 51   51 51 51   51 51 51   51 51 51   51 51 51   51 51 51   51 51 51   51 51 51   51 51 51   51 51 51   17 0 6   135 2 47   17 0 6   17 0 6   16 20 19   16 20 19   16 20 19   16 20 19   231 206 122   255 255 155   255 255 175   255 255 190   255 255 200   255 255 202   22 7 5   22 7 5   22 7 5   2 19 8   2 19 8   27 247 106   51 51 51   18 35 40   57 111 126   87 168 191   105 202 229   1 15 20   12 19 25   12 19 25   12 19 25   12 19 25   12 19 25   62 95 126   86 132 175   112 169 222   142 209 255   168 244 255   173 255 255   176 255 255   51 51 51   51 51 51   51 51 51   
51 51 51   51 51 51   51 51 51   51 51 51   51 51 51   51 51 51   51 51 51   51 51 51   51 51 51   51 51 51   17 0 6   17 0 6   17 0 6   17 0 6   16 20 19   16 20 19   137 122 72   231 206 122   255 252 149   255 255 170   255 255 187   255 255 201   255 255 212   255 255 220   255 255 224   255 255 218   22 7 5   2 19 8   2 19 8   2 19 8   51 51 51   6 12 13   12 95 131   18 141 195   22 175 242   25 203 255   28 227 255   31 246 255   33 255 255   12 19 25   12 19 25   39 60 79   63 97 129   86 132 174   107 164 216   127 193 254   141 216 255   150 229 255   51 51 51   51 51 51   51 51 51   
51 51 51   51 51 51   51 51 51   51 51 51   51 51 51   51 51 51   51 51 51   51 51 51   51 51 51   51 51 51   51 51 51   17 0 6   17 0 6   17 0 6   16 20 19   105 94 56   195 174 103   250 223 132   255 255 155   255 255 174   255 255 190   255 255 203   255 255 214   255 255 223   255 255 229   255 255 231   255 255 225   19 1 11   19 1 11   19 1 11   19 1 11   1 15 20   1 15 20   1 15 20   22 173 239   25 200 255   28 223 255   31 244 255   33 255 255   34 255 255   12 19 25   12 19 25   38 59 78   61 93 124   81 124 165   99 152 201   113 173 230   51 51 51   51 51 51   51 51 51   51 51 51   
51 51 51   51 51 51   51 51 51   51 51 51   51 51 51   51 51 51   51 51 51   51 51 51   51 51 51   51 51 51   51 51 51   23 13 13   23 13 13   23 13 13   23 13 13   143 127 76   205 183 109   253 225 134   255 255 154   255 255 172   255 255 187   255 255 200   255 255 212   255 255 221   255 255 228   255 255 232   255 255 231   255 255 218   19 1 11   19 1 11   1 15 20   1 15 20   1 15 20   17 135 187   21 165 228   24 191 255   28 214 255   47 235 255   46 253 255   34 255 255   35 255 255   12 19 25   12 19 25   32 50 66   52 80 106   69 105 140   77 118 156   51 51 51   51 51 51   51 51 51   51 51 51   
51 51 51   51 51 51   51 51 51   51 51 51   51 51 51   51 51 51   51 51 51   51 51 51   51 51 51   51 51 51   23 13 13   23 13 13   23 13 13   23 13 13   70 62 37   148 132 78   203 181 107   247 220 130   255 253 150   255 255 167   255 255 182   255 255 195   255 255 209   255 255 239   255 255 224   255 255 228   255 255 229   255 255 224   19 1 11   19 1 11   1 15 20   1 15 20   11 91 126   15 124 171   19 153 211   22 178 246   27 202 255   112 223 255   241 241 255   48 255 255   34 255 255   34 255 255   12 19 25   12 19 25   16 25 33   24 38 50   51 51 51   51 51 51   51 51 51   51 51 51   51 51 51   
51 51 51   51 51 51   51 51 51   51 51 51   51 51 51   51 51 51   51 51 51   51 51 51   51 51 51   51 51 51   23 13 13   23 13 13   23 13 13   23 13 13   74 66 39   142 126 75   193 172 102   235 209 124   255 241 143   255 255 160   255 255 175   255 255 187   255 255 204   255 255 255   255 255 239   255 255 221   255 255 223   255 255 220   255 255 202   1 15 20   1 15 20   5 40 55   9 77 107   13 109 151   17 138 190   20 163 226   24 186 255   46 207 255   140 226 255   57 242 255   32 254 255   33 255 255   12 19 25   1 7 22   22 117 255   22 117 255   51 51 51   51 51 51   51 51 51   51 51 51   51 51 51   
51 51 51   51 51 51   51 51 51   51 51 51   51 51 51   51 51 51   51 51 51   51 51 51   51 51 51   51 51 51   6 24 7   6 24 7   6 24 7   23 21 12   65 58 34   129 115 68   178 158 94   219 195 116   254 227 135   255 254 151   255 255 165   255 255 178   255 255 189   255 255 204   255 255 209   255 255 212   255 255 214   255 255 212   255 255 200   1 15 20   1 15 20   2 23 32   7 60 83   11 92 127   15 120 166   18 146 202   21 169 233   24 190 255   30 208 255   30 224 255   30 237 255   31 243 255   1 7 22   18 100 255   20 107 255   20 108 255   51 51 51   51 51 51   51 51 51   51 51 51   51 51 51   
51 51 51   51 51 51   51 51 51   51 51 51   51 51 51   51 51 51   51 51 51   51 51 51   6 24 7   6 24 7   6 24 7   6 24 7   6 24 7   23 21 12   48 42 25   110 98 58   158 141 84   199 177 105   234 209 124   255 236 140   255 255 154   255 255 167   255 255 178   255 255 187   255 255 195   255 255 200   255 255 203   255 255 201   255 255 190   1 15 20   1 15 20   1 15 20   5 39 55   9 72 99   12 100 139   16 126 174   19 149 206   21 170 235   24 189 255   26 205 255   27 217 255   28 223 255   14 79 252   16 88 255   17 94 255   17 93 255   51 51 51   51 51 51   51 51 51   51 51 51   51 51 51   
51 51 51   51 51 51   51 51 51   51 51 51   51 51 51   51 51 51   51 51 51   6 24 7   6 24 7   6 24 7   6 24 7   6 24 7   6 24 7   23 21 12   23 21 12   85 76 45   134 120 71   175 156 93   210 187 111   241 215 128   255 239 142   255 255 154   255 255 165   255 255 175   255 255 182   255 255 187   255 255 190   255 255 187   255 255 175   1 15 20   1 15 20   1 15 20   1 15 20   6 49 68   10 78 108   13 104 144   16 127 176   18 148 205   21 167 230   23 182 252   24 194 255   25 198 255   255 39 71   13 74 237   14 79 255   51 51 51   51 51 51   51 51 51   51 51 51   51 51 51   51 51 51   
51 51 51   51 51 51   51 51 51   51 51 51   51 51 51   51 51 51   36 149 42   60 247 70   76 255 89   88 255 102   6 24 7   6 24 7   5 21 23   23 21 12   23 21 12   56 49 29   106 94 56   147 131 78   183 163 97   214 191 113   241 215 128   255 236 140   255 254 151   255 255 160   255 255 167   255 255 172   255 255 174   255 255 170   255 255 155   14 7 6   1 15 20   1 15 20   1 15 20   2 23 32   6 53 73   10 79 109   13 103 142   15 124 171   18 142 196   19 156 216   21 166 230   21 165 228   255 42 77   255 48 86   255 50 91   51 51 51   51 51 51   51 51 51   51 51 51   51 51 51   51 51 51   
51 51 51   51 51 51   51 51 51   51 51 51   51 51 51   51 51 51   40 165 47   60 246 70   74 255 87   86 255 100   94 255 110   101 255 118   5 21 23   5 21 23   23 21 12   23 21 12   72 64 38   115 102 61   151 135 80   183 163 97   210 187 111   234 209 124   254 227 135   255 241 143   255 253 150   255 255 154   255 255 155   255 252 149   231 206 122   14 7 6   1 15 20   1 15 20   1 15 20   1 15 20   3 23 32   6 51 70   9 74 103   12 95 132   14 113 156   16 126 174   16 132 183   255 35 63   255 41 74   255 47 84   255 51 92   255 53 95   51 51 51   51 51 51   51 51 51   51 51 51   51 51 51   
51 51 51   51 51 51   51 51 51   51 51 51   51 51 51   7 30 8   38 156 44   56 231 66   70 255 82   81 255 94   6 24 7   6 24 7   5 21 23   5 21 23   23 21 12   23 21 12   31 28 16   77 69 41   115 102 61   147 131 78   175 156 93   199 177 105   219 195 116   235 209 124   247 220 130   253 225 134   250 223 132   231 206 122   14 7 6   14 7 6   14 7 6   1 15 20   1 15 20   1 15 20   1 15 20   1 15 20   5 41 57   7 61 85   9 77 107   11 87 120   8 70 97   255 32 58   255 39 69   255 147 93   255 63 90   255 52 94   51 51 51   51 51 51   51 51 51   51 51 51   51 51 51   
51 51 51   51 51 51   51 51 51   51 51 51   51 51 51   6 24 7   32 131 37   50 204 58   6 24 7   6 24 7   6 24 7   6 24 7   5 21 23   5 21 23   5 21 23   23 21 12   23 21 12   31 28 16   72 64 38   106 94 56   134 120 71   158 141 84   178 158 94   193 172 102   203 181 107   205 183 109   195 174 103   137 122 72   174 95 82   14 7 6   14 7 6   14 7 6   14 7 6   1 15 20   1 15 20   1 15 20   1 15 20   1 15 20   3 27 37   109 12 23   180 21 38   242 28 51   255 35 63   255 52 75   255 66 84   255 49 88   255 49 89   51 51 51   51 51 51   51 51 51   51 51 51   
51 51 51   51 51 51   51 51 51   51 51 51   51 51 51   6 24 7   22 92 26   6 24 7   6 24 7   6 24 7   6 24 7   6 24 7   5 21 23   5 21 23   5 21 23   23 21 12   23 21 12   23 21 12   23 21 12   56 49 29   85 76 45   110 98 58   129 115 68   142 126 75   148 132 78   143 127 76   105 94 56   131 72 62   156 85 73   178 97 83   14 7 6   14 7 6   14 7 6   14 7 6   0 3 17   0 3 17   0 3 17   24 2 5   24 2 5   70 8 14   141 16 30   204 24 43   255 30 55   255 36 65   255 41 74   255 44 80   255 46 83   51 51 51   51 51 51   51 51 51   51 51 51   
51 51 51   51 51 51   51 51 51   51 51 51   51 51 51   51 51 51   6 24 7   6 24 7   6 24 7   6 24 7   6 24 7   6 24 7   5 21 23   5 21 23   5 21 23   5 21 23   5 21 23   23 21 12   23 21 12   23 21 12   23 21 12   48 42 25   65 58 34   74 66 39   70 62 37   45 25 21   80 44 38   110 60 52   135 74 63   156 85 73   174 95 82   14 7 6   14 7 6   14 7 6   0 3 17   0 3 17   1 33 188   24 2 5   24 2 5   24 2 5   95 11 20   159 18 33   215 25 45   255 31 56   255 35 64   255 39 71   255 40 72   51 51 51   51 51 51   51 51 51   51 51 51   
51 51 51   51 51 51   51 51 51   51 51 51   51 51 51   51 51 51   6 24 7   6 24 7   6 24 7   6 24 7   6 24 7   6 24 7   5 21 23   5 21 23   5 21 23   5 21 23   5 21 23   5 21 23   5 21 23   23 21 12   23 21 12   23 21 12   23 21 12   14 7 6   14 7 6   14 7 6   54 29 25   84 46 39   110 60 52   131 72 62   148 81 70   161 88 75   167 91 78   14 7 6   0 13 74   0 19 112   0 3 17   24 2 5   24 2 5   24 2 5   40 4 8   106 12 22   163 19 34   212 24 44   252 29 53   255 32 59   51 51 51   51 51 51   51 51 51   51 51 51   51 51 51   
51 51 51   51 51 51   51 51 51   51 51 51   51 51 51   51 51 51   51 51 51   6 24 7   6 24 7   6 24 7   6 24 7   6 24 7   5 21 23   5 21 23   5 21 23   5 21 23   5 21 23   5 21 23   5 21 23   36 135 146   10 5 9   10 5 9   10 5 9   132 70 121   14 7 6   14 7 6   21 11 10   53 29 25   80 43 37   101 55 47   117 64 55   128 70 60   129 70 60   0 3 17   0 3 17   0 3 17   0 3 17   0 3 17   24 2 5   24 2 5   24 2 5   15 104 30   25 172 49   33 224 65   39 255 77   44 255 88   48 255 95   48 255 96   51 51 51   51 51 51   51 51 51   
51 51 51   51 51 51   51 51 51   51 51 51   51 51 51   51 51 51   51 51 51   51 51 51   51 51 51   6 24 7   6 24 7   6 24 7   6 24 7   21 14 24   5 21 23   5 21 23   5 21 23   5 21 23   10 5 9   10 5 9   10 5 9   10 5 9   165 87 151   173 91 158   173 91 159   144 76 132   14 7 6   14 7 6   41 22 19   62 34 29   77 42 36   82 45 38   49 27 23   24 3 8   24 3 8   24 3 8   24 3 8   24 3 8   51 51 51   24 2 5   9 61 17   19 130 37   27 186 54   34 234 68   40 255 80   46 255 91   51 255 100   54 255 108   57 255 112   51 51 51   51 51 51   
51 51 51   51 51 51   51 51 51   167 123 45   255 190 70   255 223 82   255 239 88   255 241 89   22 16 6   51 51 51   51 51 51   51 51 51   51 51 51   21 14 24   21 14 24   21 14 24   21 14 24   10 5 9   10 5 9   10 5 9   145 77 133   162 86 149   176 93 161   185 98 170   189 100 174   186 98 170   66 23 96   121 42 176   156 54 227   182 63 255   202 70 255   215 75 255   219 76 255   24 3 8   24 3 8   24 3 8   24 3 8   24 3 8   51 51 51   3 23 6   10 72 20   19 133 38   27 186 54   34 232 67   40 255 79   45 255 90   50 255 100   55 255 108   58 255 115   60 255 119   51 51 51   
51 51 51   51 51 51   195 143 53   255 201 74   255 237 88   255 255 96   255 255 102   255 255 103   255 255 101   22 16 6   51 51 51   51 51 51   51 51 51   21 14 24   21 14 24   21 14 24   10 5 9   70 37 65   104 55 95   130 68 119   150 79 138   167 89 153   181 104 166   192 114 176   196 106 180   62 21 90   112 39 163   149 52 216   178 62 255   201 70 255   221 77 255   236 82 255   247 86 255   251 87 255   238 83 255   24 3 8   24 3 8   24 3 8   3 23 6   3 23 6   10 69 20   18 127 37   26 179 51   33 224 65   39 255 77   44 255 88   50 255 98   57 255 109   58 255 114   61 255 120   62 255 122   
51 51 51   163 120 44   253 186 69   255 228 84   255 255 95   255 255 103   255 255 107   255 255 109   255 255 107   255 255 101   22 16 6   51 51 51   51 51 51   51 51 51   21 14 24   64 42 73   35 18 32   77 41 71   107 57 98   131 69 120   151 80 138   168 95 154   190 163 176   209 232 195   33 11 48   89 31 129   129 45 187   161 56 233   188 65 255   210 73 255   230 80 255   246 85 255   255 90 255   255 93 255   255 93 255   251 87 255   24 3 8   24 3 8   3 23 6   3 23 6   8 59 17   17 116 33   24 166 48   31 212 61   37 253 73   42 255 84   51 255 97   114 255 161   104 255 156   60 255 118   62 255 122   
82 60 22   208 153 56   255 203 75   255 239 88   255 255 98   255 255 105   255 255 118   255 255 111   255 255 109   255 255 103   255 241 89   51 51 51   51 51 51   51 51 51   51 51 51   10 5 9   40 21 37   78 41 71   106 56 98   129 68 119   148 78 136   166 98 152   193 210 181   15 5 22   55 19 80   101 35 146   136 47 198   166 58 241   192 67 255   214 74 255   233 81 255   249 87 255   255 91 255   255 95 255   255 97 255   255 96 255   24 3 8   51 51 51   3 23 6   3 23 6   6 44 12   14 101 29   22 151 43   28 196 56   34 237 68   40 255 79   47 255 91   116 255 161   211 255 254   70 255 125   60 255 119   
130 96 35   222 163 60   255 207 76   255 239 88   255 255 97   255 255 106   255 255 255   255 255 118   255 255 107   255 255 102   255 239 88   51 51 51   51 51 51   51 51 51   51 51 51   10 5 9   39 20 35   74 39 68   102 54 94   124 66 114   143 76 131   159 89 146   10 5 9   15 5 22   64 22 93   105 36 153   139 48 202   168 58 243   192 67 255   214 74 255   233 81 255   249 87 255   255 91 255   255 95 255   255 98 255   255 98 255   255 94 255   51 51 51   3 23 6   3 23 6   3 23 6   12 81 23   19 132 38   26 177 51   32 219 63   37 255 74   43 255 84   55 255 101   96 255 143   65 255 118   58 255 115   
139 102 38   220 162 60   255 203 75   255 232 86   255 255 94   255 255 100   255 255 106   255 255 105   255 255 103   255 255 96   255 223 82   51 51 51   51 51 51   51 51 51   51 51 51   10 5 9   32 17 29   67 35 62   95 50 87   117 62 107   135 71 124   151 80 138   15 5 22   15 5 22   67 23 97   106 37 154   138 48 200   166 58 241   190 66 255   211 74 255   230 80 255   247 86 255   255 103 255   255 95 255   255 97 255   255 98 255   255 96 255   51 51 51   3 23 6   3 23 6   3 23 6   8 59 17   16 110 31   22 156 45   29 197 57   34 236 68   39 255 78   44 255 88   50 255 97   53 255 104   55 255 109   
129 95 35   206 151 56   255 190 70   255 219 81   255 240 89   255 255 94   255 255 97   255 255 98   255 255 95   255 237 88   255 190 70   51 51 51   51 51 51   51 51 51   51 51 51   10 5 9   21 11 19   57 30 52   84 44 77   107 56 98   125 66 115   10 5 9   15 5 22   15 5 22   65 22 95   103 36 149   134 47 195   162 56 235   186 64 255   207 72 255   225 78 255   242 84 255   255 155 255   255 105 255   255 96 255   255 97 255   255 96 255   254 89 255   3 23 6   3 23 6   3 23 6   4 32 9   12 84 24   19 131 38   25 173 50   31 212 61   36 247 71   41 255 81   45 255 89   49 255 97   52 255 103   
101 74 27   179 132 48   232 170 63   255 199 73   255 219 81   255 232 86   255 239 88   255 239 88   255 228 84   255 201 74   167 123 45   51 51 51   51 51 51   51 51 51   51 51 51   51 51 51   10 5 9   42 22 39   71 37 65   94 49 86   10 5 9   10 5 9   15 5 22   15 5 22   60 21 88   97 34 141   128 44 186   155 54 225   179 62 255   200 70 255   219 76 255   235 82 255   250 88 255   255 91 255   255 94 255   255 95 255   255 95 255   255 89 255   3 23 6   3 23 6   3 23 6   3 23 6   8 55 16   15 103 30   21 147 42   27 186 54   32 222 64   37 254 73   41 255 82   45 255 89   48 255 95   
50 37 13   138 101 37   193 142 52   232 170 63   255 190 70   255 203 75   255 207 76   255 203 75   253 186 69   195 143 53   51 51 51   51 51 51   51 51 51   51 51 51   51 51 51   51 51 51   10 5 9   23 12 21   53 28 49   77 41 71   10 5 9   10 5 9   15 5 22   15 5 22   52 18 76   89 31 129   120 42 174   147 51 213   171 59 248   192 67 255   210 73 255   226 79 255   240 84 255   252 88 255   255 91 255   255 92 255   255 92 255   250 87 255   51 51 51   3 23 6   3 23 6   3 23 6   3 23 6   10 72 20   17 116 33   23 156 45   28 192 55   33 225 65   37 254 73   41 255 81   44 255 86   
22 16 6   75 55 20   138 101 37   179 132 48   206 151 56   220 162 60   222 163 60   208 153 56   163 120 44   51 51 51   51 51 51   51 51 51   51 51 51   51 51 51   51 51 51   51 51 51   51 51 51   10 5 9   30 16 28   10 5 9   10 5 9   10 5 9   15 5 22   15 5 22   41 14 60   78 27 114   110 38 159   137 47 198   160 56 233   181 63 255   200 69 255   216 75 255   230 80 255   241 84 255   250 87 255   255 89 255   253 88 255   238 83 255   51 51 51   51 51 51   3 23 6   3 23 6   3 23 6   5 35 10   12 81 23   18 122 35   23 159 46   28 192 55   32 221 64   36 246 71   38 255 76   
51 51 51   22 16 6   50 37 13   101 74 27   129 95 35   139 102 38   130 96 35   82 60 22   51 51 51   51 51 51   51 51 51   51 51 51   51 51 51   51 51 51   51 51 51   51 51 51   51 51 51   51 51 51   10 5 9   10 5 9   10 5 9   10 5 9   15 5 22   15 5 22   26 9 39   65 22 94   97 33 141   124 43 180   148 51 215   169 59 246   188 65 255   204 71 255   218 76 255   229 80 255   237 83 255   241 84 255   239 83 255   219 76 255   51 51 51   51 51 51   51 51 51   3 23 6   3 23 6   3 23 6   5 39 11   12 82 24   17 120 35   22 154 44   26 182 52   30 204 59   31 216 62   
