P3
51 51
255
51 51 51   51 51 51   51 51 51   51 51 51   51 51 51   51 51 51   51 51 51   51 51 51   51 51 51   51 51 51   51 51 51   51 51 51   51 51 51   51 51 51   51 51 51   51 51 51   51 51 51   51 51 51   51 51 51   51 51 51   51 51 51   51 51 51   51 51 51   51 51 51   51 51 51   51 51 51   51 51 51   51 51 51   51 51 51   51 51 51   51 51 51   51 51 51   51 51 51   51 51 51   51 51 51   51 51 51   51 51 51   51 51 51   51 51 51   51 51 51   51 51 51   51 51 51   51 51 51   51 51 51   51 51 51   51 51 51   51 51 51   51 51 51   51 51 51   51 51 51   51 51 51   
51 51 51   51 51 51   51 51 51   51 51 51   51 51 51   51 51 51   51 51 51   51 51 51   51 51 51   51 51 51   51 51 51   51 51 51   51 51 51   51 51 51   51 51 51   51 51 51   51 51 51   51 51 51   51 51 51   51 51 51   51 51 51   51 51 51   51 51 51   51 51 51   51 51 51   51 51 51   51 51 51   51 51 51   51 51 51   51 51 51   51 51 51   51 51 51   51 51 51   51 51 51   51 51 51   51 51 51   51 51 51   51 51 51   51 51 51   51 51 51   51 51 51   51 51 51   51 51 51   51 51 51   51 51 51   51 51 51   51 51 51   51 51 51   51 51 51   51 51 51   51 51 51   
51 51 51   51 51 51   51 51 51   51 51 51   51 51 51   51 51 51   51 51 51   51 51 51   51 51 51   51 51 51   51 51 51   51 51 51   51 51 51   51 51 51   51 51 51   51 51 51   51 51 51   51 51 51   51 51 51   51 51 51   51 51 51   51 51 51   51 51 51   51 51 51   51 51 51   51 51 51   51 51 51   51 51 51   51 51 51   51 51 51   51 51 51   51 51 51   51 51 51   51 51 51   51 51 51   51 51 51   51 51 51   51 51 51   51 51 51   51 51 51   51 51 51   51 51 51   51 51 51   51 51 51   51 51 51   51 51 51   51 51 51   51 51 51   51 51 51   51 51 51   51 51 51   
51 51 51   51 51 51   51 51 51   51 51 51   51 51 51   51 51 51   51 51 51   51 51 51   51 51 51   51 51 51   51 51 51   51 51 51   51 51 51   51 51 51   51 51 51   51 51 51   51 51 51   51 51 51   178 120 90   255 193 145   255 243 182   255 255 212   255 255 229   51 51 51   51 51 51   51 51 51   51 51 51   51 51 51   51 51 51   51 51 51   51 51 51   51 51 51   51 51 51   51 51 51   51 51 51   51 51 51   51 51 51   51 51 51   51 51 51   51 51 51   51 51 51   51 51 51   51 51 51   51 51 51   51 51 51   51 51 51   51 51 51   51 51 51   51 51 51   51 51 51   51 51 51   
51 51 51   51 51 51   51 51 51   51 51 51   51 51 51   51 51 51   51 51 51   51 51 51   51 51 51   51 51 51   51 51 51   51 51 51   51 51 51   51 51 51   51 51 51   51 51 51   51 51 51   51 51 51   145 97 73   236 158 119   255 207 155   255 255 255   255 255 221   255 255 215   51 51 51   51 51 51   51 51 51   51 51 51   51 51 51   51 51 51   51 51 51   51 51 51   51 51 51   51 51 51   51 51 51   51 51 51   51 51 51   51 51 51   51 51 51   51 51 51   51 51 51   51 51 51   51 51 51   51 51 51   51 51 51   51 51 51   51 51 51   51 51 51   51 51 51   51 51 51   51 51 51   
51 51 51   51 51 51   51 51 51   51 51 51   51 51 51   51 51 51   51 51 51   51 51 51   51 51 51   51 51 51   51 51 51   51 51 51   51 51 51   51 51 51   51 51 51   51 51 51   51 51 51   24 16 12   8 142 136   10 177 169   11 200 192   12 217 208   12 219 210   255 252 189   51 51 51   51 51 51   51 51 51   51 51 51   232 28 14   255 36 19   255 43 22   51 51 51   51 51 51   51 51 51   51 51 51   51 51 51   31 160 190   41 210 249   48 246 255   51 51 51   51 51 51   169 214 67   233 255 92   255 255 113   51 51 51   51 51 51   51 51 51   51 51 51   51 51 51   51 51 51   51 51 51   
51 51 51   51 51 51   51 51 51   51 51 51   51 51 51   51 51 51   51 51 51   51 51 51   51 51 51   51 51 51   51 51 51   51 51 51   51 51 51   51 51 51   51 51 51   51 51 51   51 51 51   6 112 107   8 146 140   9 172 165   11 194 186   12 212 204   13 227 217   13 235 225   51 51 51   51 51 51   51 51 51   125 15 7   204 24 12   255 32 16   255 57 27   255 46 23   255 47 24   51 51 51   51 51 51   20 103 122   29 149 176   37 188 223   44 224 255   50 255 255   67 84 26   132 167 52   190 239 75   246 255 99   255 255 116   51 51 51   51 51 51   51 51 51   51 51 51   51 51 51   51 51 51   
51 51 51   51 51 51   51 51 51   51 51 51   51 51 51   51 51 51   51 51 51   51 51 51   51 51 51   51 51 51   51 51 51   51 51 51   51 51 51   51 51 51   51 51 51   51 51 51   3 63 61   6 103 99   7 133 128   9 158 152   10 180 174   14 203 227   15 219 244   13 226 217   13 229 220   197 255 179   21 2 1   83 10 5   156 19 9   218 26 13   255 54 25   255 122 52   255 42 22   51 51 51   5 25 30   15 76 90   23 120 142   31 158 188   58 200 250   17 22 7   17 22 7   83 105 33   140 177 56   193 244 77   246 255 99   255 255 113   51 51 51   51 51 51   51 51 51   51 51 51   51 51 51   
51 51 51   51 51 51   51 51 51   51 51 51   51 51 51   51 51 51   51 51 51   51 51 51   51 51 51   51 51 51   51 51 51   206 255 93   226 255 102   51 51 51   51 51 51   51 51 51   2 51 49   5 87 83   6 115 111   8 140 134   9 161 156   14 187 226   24 219 255   13 211 220   12 216 208   183 255 166   21 2 1   21 2 1   99 12 6   147 197 167   245 255 255   255 255 255   255 36 18   3 15 18   3 15 18   8 44 52   17 86 102   24 125 148   31 160 190   17 22 7   17 22 7   30 38 12   87 110 34   140 177 56   190 239 75   233 255 92   51 51 51   51 51 51   51 51 51   51 51 51   51 51 51   
51 51 51   51 51 51   51 51 51   51 51 51   51 51 51   51 51 51   51 51 51   51 51 51   51 51 51   110 167 49   172 255 78   211 255 95   239 255 108   227 126 40   255 186 59   0 12 12   1 32 30   3 66 63   5 94 90   6 119 114   8 140 134   9 159 155   12 178 193   11 189 190   11 197 189   11 195 187   21 2 1   21 2 1   16 22 18   116 155 131   197 255 223   255 255 255   255 255 255   3 15 18   3 15 18   3 15 18   9 50 59   17 88 105   24 124 147   17 22 7   17 22 7   17 22 7   30 38 12   83 105 33   132 167 52   169 214 67   51 51 51   51 51 51   51 51 51   51 51 51   51 51 51   
51 51 51   51 51 51   51 51 51   51 51 51   51 51 51   51 51 51   51 51 51   51 51 51   51 51 51   98 149 44   149 227 67   186 255 84   22 12 3   169 94 30   255 148 47   39 131 14   57 189 21   70 229 26   80 255 29   88 255 33   96 255 36   103 255 38   108 255 40   113 255 42   116 255 43   114 255 42   28 55 255   21 2 1   16 22 18   47 63 53   127 170 144   191 255 216   231 255 255   3 15 18   3 15 18   3 15 18   3 15 18   9 49 58   16 85 100   17 22 7   17 22 7   17 22 7   17 22 7   17 22 7   67 84 26   51 51 51   51 51 51   51 51 51   51 51 51   51 51 51   51 51 51   
51 51 51   51 51 51   51 51 51   51 51 51   51 51 51   51 51 51   51 51 51   51 51 51   255 104 255   255 139 255   113 172 51   150 228 68   185 183 150   253 251 205   17 58 6   41 135 15   55 181 20   66 218 24   76 249 28   84 255 31   91 255 34   98 255 36   105 255 40   109 255 40   113 255 42   114 255 42   109 255 40   24 47 255   16 22 18   16 22 18   42 56 47   105 140 118   135 180 152   3 15 18   3 15 18   3 15 18   3 15 18   3 15 18   3 15 18   3 15 18   17 22 7   17 22 7   17 22 7   17 22 7   25 30 27   51 51 51   51 51 51   51 51 51   51 51 51   51 51 51   51 51 51   
51 51 51   51 51 51   51 51 51   51 51 51   51 51 51   51 51 51   51 51 51   93 31 86   255 99 255   255 222 255   255 139 255   88 224 245   103 255 255   6 17 18   20 67 7   37 123 14   50 165 18   61 200 22   70 231 26   78 255 29   86 255 32   93 255 35   203 255 125   169 255 93   107 255 40   110 255 41   110 255 41   16 31 217   21 2 1   16 22 18   16 22 18   16 22 18   227 71 97   255 82 112   17 5 7   3 15 18   3 15 18   3 15 18   3 15 18   3 15 18   12 15 14   12 15 14   12 15 14   51 51 51   51 51 51   51 51 51   51 51 51   51 51 51   51 51 51   51 51 51   51 51 51   
77 140 218   92 169 255   102 187 255   109 200 255   114 209 255   117 215 255   118 216 255   114 209 255   154 51 144   52 131 143   76 192 210   91 232 253   103 255 255   6 17 18   16 53 6   32 105 12   44 145 16   54 179 20   64 209 23   72 236 26   79 255 29   86 255 32   103 255 43   136 255 69   101 255 38   104 255 39   105 255 39   97 255 36   112 161 102   5 9 22   90 156 255   185 58 79   222 70 95   255 80 109   255 89 121   255 96 131   255 101 138   3 15 18   3 15 18   66 101 182   115 155 242   106 150 251   93 142 255   97 147 255   51 51 51   51 51 51   51 51 51   51 51 51   51 51 51   51 51 51   51 51 51   
88 161 250   98 179 255   106 194 255   112 205 255   117 214 255   121 221 255   123 225 255   123 226 255   121 221 255   108 198 255   73 185 202   87 220 241   6 17 18   6 20 2   9 32 3   25 82 9   37 121 13   47 155 17   56 185 21   64 212 24   72 236 26   78 255 29   84 255 31   90 255 33   94 255 35   97 255 36   98 255 36   94 255 35   5 9 22   5 9 22   84 146 255   97 169 255   102 177 255   237 74 101   255 86 120   255 95 134   255 98 133   255 101 138   5 8 15   57 87 156   67 102 183   76 116 208   84 128 230   90 136 245   51 51 51   51 51 51   51 51 51   51 51 51   51 51 51   51 51 51   51 51 51   
89 163 252   98 179 255   105 192 255   111 203 255   116 212 255   120 219 255   122 224 255   124 227 255   123 226 255   120 220 255   108 197 255   6 17 18   223 91 184   255 111 226   6 20 2   16 54 6   28 94 10   39 128 14   48 158 18   56 185 21   64 210 23   70 231 26   76 251 28   81 255 30   86 255 32   89 255 33   90 255 33   87 255 32   5 9 22   55 96 220   72 124 255   96 186 255   9 24 22   9 24 22   9 24 22   9 24 22   9 24 22   9 24 22   5 8 15   47 71 128   57 86 155   66 100 180   74 112 202   79 120 217   51 51 51   51 51 51   51 51 51   51 51 51   51 51 51   51 51 51   51 51 51   
86 158 246   95 173 255   102 186 255   107 197 255   112 206 255   116 213 255   120 219 255   121 222 255   122 222 255   120 220 255   115 210 255   176 72 146   232 95 192   255 112 226   255 125 254   6 20 2   19 63 7   30 98 11   39 129 14   47 156 17   55 180 20   61 202 23   67 221 25   72 238 27   77 252 28   80 255 29   81 255 30   77 253 28   19 33 76   39 68 156   56 97 222   9 24 22   9 24 22   9 24 22   9 24 22   9 24 22   9 24 22   9 24 22   167 255 255   36 54 98   46 69 125   55 83 150   62 95 171   67 102 183   51 51 51   51 51 51   51 51 51   51 51 51   51 51 51   51 51 51   51 51 51   
82 150 233   90 165 255   97 177 255   102 188 255   107 197 255   126 220 255   222 255 255   118 214 255   117 215 255   117 213 255   113 207 255   175 71 144   223 91 184   255 107 216   255 120 243   255 131 255   8 29 3   19 65 7   29 96 10   37 123 14   45 148 16   52 170 19   57 189 21   62 206 23   66 219 25   69 228 26   70 229 26   64 209 23   5 9 22   20 35 80   9 24 22   9 24 22   9 24 22   9 24 22   9 24 22   9 24 22   9 24 22   155 255 255   161 255 255   167 255 255   237 255 83   246 255 32   254 255 3   51 51 51   51 51 51   51 51 51   51 51 51   51 51 51   51 51 51   51 51 51   51 51 51   
76 140 217   84 154 239   91 166 255   96 176 255   101 185 255   105 193 255   112 203 255   111 202 255   112 204 255   111 203 255   108 198 255   160 65 132   205 84 170   242 99 200   255 112 226   255 122 248   255 133 255   8 27 3   18 59 6   26 87 10   34 112 12   41 134 15   47 154 17   51 170 19   55 182 20   57 189 21   57 187 21   176 116 166   5 9 22   9 24 22   25 68 63   49 130 119   68 182 168   86 228 210   102 255 249   116 255 255   147 255 255   255 255 255   153 255 255   159 255 255   160 255 255   203 255 6   123 35 115   154 44 144   180 52 167   202 58 188   223 64 207   241 69 225   255 74 239   51 51 51   51 51 51   
69 127 196   77 141 218   83 153 237   89 163 253   94 172 255   98 179 255   101 185 255   103 189 255   104 191 255   104 190 255   102 186 255   137 56 113   181 74 149   218 89 180   249 101 205   255 112 227   255 121 246   255 129 255   6 20 2   14 47 5   22 72 8   29 95 10   34 113 12   39 129 14   42 139 15   43 143 16   213 107 255   165 108 158   166 110 156   9 24 22   15 41 38   38 101 93   57 152 140   74 198 182   90 240 221   104 255 255   118 255 255   138 255 255   141 255 255   148 255 255   152 255 255   94 27 87   124 35 115   150 43 139   173 50 161   195 56 181   215 62 200   234 67 218   251 72 234   255 77 249   255 80 255   
61 111 172   68 125 195   75 138 213   81 148 230   86 157 243   90 164 254   93 170 255   95 174 255   96 176 255   96 175 255   93 171 255   107 43 88   151 61 125   188 76 155   219 89 181   246 100 203   255 109 221   255 117 237   255 122 248   6 20 2   8 27 3   15 49 5   20 67 7   24 81 9   27 89 10   25 85 9   127 84 119   142 94 134   148 98 139   9 24 22   9 24 22   25 67 61   44 118 109   62 164 151   77 206 189   92 244 224   105 255 255   117 255 255   127 255 255   135 255 255   56 16 52   88 25 82   115 33 107   140 40 130   162 47 151   184 53 171   204 59 190   222 64 207   240 69 224   255 74 239   255 78 253   
51 93 145   59 108 167   66 120 187   71 131 203   76 140 216   80 147 228   83 152 236   85 156 242   86 158 245   86 157 243   83 152 236   71 29 58   116 47 96   153 62 126   185 75 152   211 86 175   234 95 193   252 103 208   255 108 219   255 111 226   6 20 2   6 20 2   6 20 2   6 20 2   49 32 46   77 51 72   99 65 93   114 75 107   118 78 111   9 24 22   9 24 22   9 24 22   30 80 74   47 127 116   63 168 155   78 207 190   91 241 222   102 255 251   113 255 255   15 4 14   48 13 44   77 22 72   103 30 96   127 37 119   150 43 140   171 49 159   191 55 178   210 60 195   235 73 217   246 72 229   255 75 242   
40 73 113   48 88 136   55 100 156   61 111 172   65 120 186   69 127 197   72 133 206   74 136 211   75 137 213   74 136 210   71 129 201   27 11 22   74 30 61   113 46 93   145 59 120   172 70 142   194 79 161   212 86 175   225 92 186   231 94 191   227 93 188   6 20 2   6 20 2   9 6 9   14 9 13   43 28 40   64 42 60   78 51 73   9 6 9   9 24 22   9 24 22   9 24 22   14 38 35   32 85 78   48 127 117   62 166 152   75 200 184   87 231 213   97 255 237   15 4 14   36 10 33   64 18 60   90 26 84   114 33 106   136 39 127   157 45 146   177 51 165   196 56 182   242 89 221   255 158 255   247 72 230   
26 49 76   35 65 101   42 78 121   48 89 138   53 98 152   57 105 163   60 110 171   62 113 176   62 114 176   60 111 172   56 102 159   21 8 17   21 8 17   66 26 54   99 40 82   127 51 105   149 61 123   166 68 137   178 72 147   123 105 149   171 70 141   20 14 4   20 14 4   9 6 9   9 6 9   9 6 9   19 12 18   26 17 24   10 4 0   9 24 22   9 24 22   9 24 22   9 24 22   14 38 35   30 81 75   45 120 110   58 155 142   69 185 170   15 4 14   15 4 14   21 6 20   50 14 46   75 21 70   99 28 92   121 35 113   142 41 132   162 46 151   180 52 168   199 58 185   229 75 211   232 68 216   
11 20 32   20 38 59   28 52 80   34 63 98   39 72 112   43 79 123   46 84 131   47 86 134   47 86 133   44 81 125   255 255 196   255 255 210   21 8 17   21 8 17   44 18 37   73 30 60   104 88 125   127 108 153   143 122 173   156 133 188   165 141 200   172 146 207   173 148 209   158 135 190   20 14 4   10 4 0   10 4 0   10 4 0   10 4 0   10 4 0   9 24 22   9 24 22   9 24 22   9 24 22   9 24 22   26 68 63   38 103 94   9 24 22   15 4 14   15 4 14   15 4 14   34 9 31   59 17 55   83 24 77   105 30 98   126 36 117   146 42 136   165 47 153   182 52 170   199 57 186   215 62 201   
6 12 19   6 12 19   11 20 32   18 33 51   23 42 65   27 49 76   29 53 83   29 54 84   28 51 79   252 254 161   255 255 178   255 255 192   255 255 204   22 22 14   59 50 71   96 82 116   119 101 144   136 116 165   151 128 182   162 138 196   172 147 207   179 153 216   184 157 222   185 158 223   177 151 214   10 4 0   10 4 0   10 4 0   10 4 0   163 210 254   14 18 22   9 24 22   9 24 22   9 24 22   9 24 22   9 24 22   9 24 22   9 24 22   15 4 14   15 4 14   15 4 14   15 4 14   42 12 39   66 19 61   88 25 82   109 31 102   129 37 120   148 42 138   166 48 154   183 53 170   199 57 185   
7 10 25   95 138 255   108 157 255   118 171 255   125 181 255   129 188 255   131 190 255   130 189 255   186 187 119   219 220 140   246 248 157   255 255 171   255 255 182   37 31 45   79 67 96   104 89 125   123 105 148   139 118 167   152 129 183   163 139 197   172 147 208   180 154 217   186 158 224   189 161 228   188 160 227   177 151 214   255 211 255   255 222 255   255 207 255   188 242 255   220 255 255   245 255 255   255 255 255   9 24 22   9 24 22   9 24 22   9 24 22   15 4 14   15 4 14   15 4 14   15 4 14   15 4 14   24 6 22   48 13 44   70 20 65   91 26 85   111 32 104   130 37 121   148 43 138   165 47 154   181 52 169   
84 122 255   99 144 255   110 160 255   119 172 255   125 182 255   130 188 255   132 192 255   132 192 255   128 186 255   179 181 114   207 208 132   229 230 146   246 248 157   54 46 66   83 71 101   105 89 127   122 104 148   137 117 165   150 128 181   161 137 194   170 145 205   178 152 214   184 157 222   188 160 226   189 161 228   185 158 223   158 135 190   255 228 255   255 235 255   255 216 255   216 255 255   241 255 255   255 255 255   255 255 255   22 5 17   22 5 17   22 5 17   15 4 14   15 4 14   15 4 14   15 4 14   15 4 14   15 4 14   28 8 26   51 14 47   72 21 67   92 26 86   111 32 104   129 37 121   146 42 136   162 46 151   
84 123 255   98 142 255   108 157 255   116 169 255   123 178 255   181 225 255   145 199 255   130 188 255   127 185 255   120 174 255   160 162 102   183 184 116   18 16 22   57 49 69   83 70 100   102 87 124   119 101 144   133 114 161   145 124 176   156 133 189   165 141 200   218 166 212   198 160 218   184 157 222   186 158 224   184 157 222   173 148 209   255 236 255   255 232 255   255 231 255   203 255 255   230 255 255   250 255 255   255 255 255   255 255 255   22 5 17   22 5 17   22 5 17   15 4 14   15 4 14   15 4 14   15 4 14   15 4 14   15 4 14   30 8 28   52 15 48   72 21 67   91 26 85   109 31 102   126 36 117   141 41 132   
81 118 255   93 136 255   103 150 255   111 161 255   117 170 255   153 200 255   166 207 29   190 237 34   205 255 37   213 255 38   214 255 38   14 17 2   22 19 27   55 47 66   78 67 95   98 83 118   114 97 137   127 109 154   140 119 168   150 128 181   159 136 192   198 155 203   218 166 212   178 152 214   180 154 217   179 153 216   172 146 207   213 226 234   219 232 240   216 228 237   255 195 255   210 255 255   231 255 255   245 255 255   247 255 255   22 5 17   22 5 17   22 5 17   15 4 14   15 4 14   15 4 14   15 4 14   15 4 14   15 4 14   15 4 14   30 8 28   50 14 47   52 52 1   107 107 2   151 151 3   181 181 4   
74 108 255   87 126 255   96 140 255   104 151 255   147 184 26   179 224 32   202 252 36   218 255 39   231 255 41   239 255 43   243 255 43   14 17 2   19 16 23   49 42 60   72 61 87   91 77 109   106 91 128   120 102 145   132 113 159   143 122 172   152 129 183   159 136 192   165 141 200   170 145 205   172 147 208   172 147 207   165 141 200   220 233 242   228 242 251   232 246 255   229 243 252   214 197 161   229 210 172   235 216 176   224 255 255   19 12 23   8 1 19   22 5 17   22 5 17   15 4 14   15 4 14   15 4 14   15 4 14   15 4 14   15 4 14   15 4 14   10 10 0   30 30 0   83 83 1   128 128 2   165 165 3   
65 95 230   77 113 255   80 100 14   141 176 25   174 217 31   197 246 35   215 255 38   230 255 41   241 255 43   249 255 45   255 255 45   14 17 2   10 8 12   41 35 50   64 54 77   82 70 99   98 83 118   111 95 134   123 105 149   134 114 161   143 122 172   150 128 181   156 133 189   161 137 194   163 139 197   162 138 196   156 133 188   222 235 243   230 244 253   236 250 255   238 252 255   232 245 255   235 216 176   246 226 185   250 230 188   19 12 23   8 1 19   8 1 19   8 1 19   8 1 19   15 4 14   15 4 14   15 4 14   15 4 14   15 4 14   15 4 14   10 10 0   10 10 0   50 50 1   95 95 2   133 133 3   
54 78 189   42 53 7   123 154 22   159 198 28   184 230 33   205 255 36   221 255 39   234 255 42   246 255 45   255 255 48   255 255 49   14 17 2   10 8 12   30 26 36   53 45 64   71 61 86   87 74 105   101 86 122   113 96 136   123 105 149   132 113 159   140 119 168   145 124 176   150 128 181   152 129 183   151 128 182   143 122 173   219 232 241   228 242 251   235 249 255   239 253 255   238 252 255   222 235 244   245 225 184   253 233 190   252 231 189   8 1 19   8 1 19   8 1 19   8 1 19   8 1 19   8 1 19   15 4 14   15 4 14   15 4 14   15 4 14   10 10 0   10 10 0   10 10 0   54 54 1   91 91 2   
38 56 136   93 117 16   136 170 24   165 206 29   188 234 33   206 255 37   222 255 40   235 255 43   255 255 58   255 255 97   255 255 104   14 17 2   10 8 12   16 14 20   40 34 48   59 50 71   75 64 91   89 76 107   101 86 122   111 95 134   120 102 145   127 109 154   133 114 161   137 117 165   139 118 167   136 116 165   204 216 224   228 240 242   255 255 255   231 245 254   236 250 255   237 251 255   230 243 252   243 227 185   248 228 186   252 231 189   233 214 175   8 1 19   8 1 19   8 1 19   8 1 19   8 1 19   8 1 19   8 1 19   127 24 255   136 26 255   140 26 255   10 10 0   10 10 0   10 10 0   51 51 51   
43 54 7   105 130 18   140 174 25   166 207 29   187 233 33   204 255 36   219 255 39   235 255 46   255 255 89   255 255 198   255 255 227   255 255 116   10 8 12   10 8 12   25 21 30   45 38 54   61 52 74   75 64 91   87 74 105   98 83 118   106 91 128   114 97 137   119 101 144   122 104 148   123 105 148   119 101 144   197 209 217   228 239 238   255 255 255   226 239 248   230 244 253   232 246 255   228 241 250   241 233 191   239 220 179   244 224 183   236 217 177   8 1 19   8 1 19   8 1 19   8 1 19   8 1 19   8 1 19   8 1 19   112 21 250   122 23 255   124 23 255   51 51 51   51 51 51   51 51 51   51 51 51   
59 73 10   106 133 19   138 172 24   163 203 29   183 228 32   199 249 35   213 255 38   229 255 44   255 255 83   255 255 177   255 255 205   255 255 110   14 17 2   10 8 12   10 8 12   27 23 33   45 38 54   59 50 71   71 61 86   82 70 99   91 77 109   98 83 118   102 87 124   105 89 127   104 89 125   177 187 194   190 201 208   201 212 220   212 224 231   217 230 239   223 236 244   225 238 247   221 234 243   215 198 162   226 208 170   232 213 174   226 208 170   8 1 19   8 1 19   8 1 19   8 1 19   8 1 19   8 1 19   83 15 186   96 18 213   104 19 232   100 19 223   51 51 51   51 51 51   51 51 51   51 51 51   
60 75 10   103 128 18   133 165 23   156 195 28   176 219 31   192 239 34   205 255 37   218 255 40   237 255 52   255 255 80   255 255 88   255 255 61   14 17 2   10 8 12   10 8 12   10 8 12   25 21 30   40 34 48   53 45 64   64 54 77   72 61 87   78 67 95   83 70 100   83 71 101   154 163 169   168 178 184   180 191 198   191 202 210   200 212 220   208 220 228   213 225 234   215 228 236   212 225 233   195 207 214   210 193 158   215 198 161   210 193 157   8 1 19   8 1 19   8 1 19   8 1 19   32 6 72   3 27 1   10 84 3   16 124 5   20 157 6   23 181 7   51 51 51   51 51 51   51 51 51   51 51 51   
54 67 9   95 118 17   124 154 22   147 183 26   166 207 29   182 227 32   195 243 35   206 255 37   216 255 39   225 255 43   230 255 44   230 255 42   228 255 41   14 17 2   10 8 12   10 8 12   10 8 12   16 14 20   30 26 36   41 35 50   49 42 60   55 47 66   57 49 69   127 135 140   143 151 157   157 166 172   169 179 186   180 191 198   189 200 208   197 208 216   202 213 221   203 215 223   200 212 220   181 192 199   191 175 143   195 179 146   186 171 139   15 23 0   8 1 19   8 1 19   8 1 19   1 11 0   5 39 1   11 85 3   16 123 5   20 155 6   23 183 7   26 205 8   27 213 8   51 51 51   51 51 51   
41 51 7   82 103 14   112 139 20   135 168 24   153 191 27   169 211 30   182 227 32   193 241 34   202 252 36   208 255 37   213 255 38   214 255 38   213 255 38   14 17 2   14 17 2   14 17 2   10 8 12   10 8 12   10 8 12   10 8 12   19 16 23   22 19 27   97 102 106   115 121 126   131 138 143   145 153 159   157 166 173   168 178 184   177 187 194   184 195 202   188 199 207   190 201 208   185 196 203   159 146 119   168 154 126   169 156 127   147 135 110   15 23 0   15 23 0   15 23 0   8 1 19   1 11 0   4 32 1   9 75 3   14 113 4   19 145 6   25 174 9   37 199 17   28 215 9   51 51 51   51 51 51   
22 27 3   66 82 11   96 120 17   119 149 21   138 173 25   154 192 27   167 208 30   178 222 32   186 232 33   192 240 34   196 245 35   197 246 35   195 243 35   188 234 33   14 17 2   14 17 2   12 18 2   12 18 2   13 13 14   13 13 14   36 38 40   61 65 67   82 87 90   101 106 110   117 124 128   131 138 144   143 152 157   154 163 169   162 172 178   169 179 186   173 183 190   173 183 190   165 175 182   132 121 99   139 128 104   134 124 101   15 23 0   15 23 0   15 23 0   15 23 0   15 23 0   1 11 0   2 17 0   7 61 2   12 98 4   17 131 5   21 160 7   159 200 114   26 204 8   27 213 8   51 51 51   
14 17 2   44 55 7   76 95 13   101 126 18   120 150 21   136 170 24   149 186 26   160 199 28   168 209 30   173 216 31   176 220 31   176 220 31   172 215 31   163 203 29   14 17 2   14 17 2   12 18 2   12 18 2   13 13 14   13 13 14   17 18 19   43 46 48   65 69 72   84 89 92   101 107 110   115 122 126   127 135 140   138 146 151   146 155 160   152 161 167   155 164 170   153 162 168   138 147 152   98 90 73   99 91 74   15 23 0   15 23 0   15 23 0   102 160 5   23 19 11   41 36 21   52 45 26   58 50 30   5 41 1   10 79 3   14 112 4   18 141 5   21 167 7   24 187 7   26 199 8   51 51 51   
51 51 51   14 17 2   51 63 9   77 97 14   98 122 17   115 143 20   128 159 23   138 172 24   146 182 26   151 188 27   153 191 27   151 189 27   145 181 26   131 163 23   14 17 2   19 17 23   19 17 23   19 17 23   19 17 23   13 13 14   13 13 14   22 24 24   45 48 50   65 69 72   82 87 90   96 102 106   109 115 119   119 126 131   127 134 139   132 139 144   132 140 145   126 133 138   43 40 32   44 41 33   164 255 146   15 23 0   15 23 0   5 4 2   24 20 12   39 33 20   51 44 26   61 52 31   69 59 35   75 65 38   79 68 40   11 90 3   15 120 5   19 145 6   21 166 6   23 178 7   51 51 51   
51 51 51   14 17 2   16 21 3   48 60 8   71 88 12   88 110 15   102 127 18   112 140 20   119 149 21   123 154 22   124 155 22   120 149 21   108 135 19   81 101 14   19 17 23   19 17 23   19 17 23   19 17 23   19 17 23   13 13 14   13 13 14   13 13 14   21 22 23   42 45 46   60 63 66   75 79 82   87 92 95   97 102 106   103 109 113   106 112 117   103 109 113   74 79 82   137 255 122   143 255 128   121 231 108   15 23 0   5 4 2   12 11 6   29 25 14   42 36 21   53 45 27   63 54 32   71 61 36   78 67 40   84 72 43   88 75 45   12 94 3   15 119 5   18 139 5   19 147 6   51 51 51   
51 51 51   51 51 51   14 17 2   14 17 2   34 43 6   54 68 9   69 86 12   79 99 14   86 107 15   88 110 15   86 107 15   75 94 13   46 58 8   19 17 23   19 17 23   19 17 23   19 17 23   19 17 23   19 17 23   19 17 23   0 5 13   13 13 14   13 13 14   13 13 14   32 34 35   47 50 52   59 63 65   68 72 75   73 77 80   70 75 77   66 126 59   88 169 79   102 195 91   101 193 90   51 51 51   51 51 51   5 4 2   15 13 7   29 25 15   42 36 21   53 45 27   62 54 32   71 61 36   79 68 40   85 73 43   90 77 46   92 79 47   11 87 3   13 104 4   51 51 51   51 51 51   
51 51 51   51 51 51   51 51 51   51 51 51   14 17 2   14 17 2   22 28 4   33 41 6   38 48 6   36 45 6   21 27 3   51 51 51   19 17 23   19 17 23   19 17 23   19 17 23   19 17 23   19 17 23   19 17 23   19 17 23   19 17 23   0 5 13   13 13 14   13 13 14   13 13 14   13 13 14   20 22 23   26 27 28   17 18 19   11 22 10   19 37 17   40 77 36   42 81 38   51 51 51   51 51 51   5 4 2   5 4 2   14 12 7   28 24 14   41 35 21   51 44 26   61 52 31   69 60 35   83 74 41   101 95 47   93 81 46   93 80 47   94 81 48   51 51 51   51 51 51   51 51 51   
51 51 51   51 51 51   51 51 51   51 51 51   51 51 51   51 51 51   51 51 51   51 51 51   51 51 51   51 51 51   51 51 51   51 51 51   19 17 23   19 17 23   19 17 23   19 17 23   19 17 23   19 17 23   19 17 23   19 17 23   19 17 23   18 4 18   126 29 123   193 45 189   244 57 239   255 67 255   255 74 255   255 78 255   255 80 255   255 74 255   2 10 9   38 136 131   51 51 51   51 51 51   51 51 51   5 4 2   5 4 2   12 11 6   26 22 13   38 33 19   49 42 25   58 50 30   67 58 34   88 82 41   156 168 59   133 135 55   93 80 47   94 81 48   90 77 46   51 51 51   51 51 51   
51 51 51   51 51 51   51 51 51   51 51 51   51 51 51   51 51 51   51 51 51   51 51 51   51 51 51   51 51 51   51 51 51   51 51 51   19 17 23   19 17 23   19 17 23   19 17 23   19 17 23   19 17 23   19 17 23   19 17 23   51 51 51   51 12 50   136 32 133   198 46 194   247 58 241   255 67 255   255 74 255   255 79 255   255 81 255   255 79 255   8 29 28   51 51 51   51 51 51   51 51 51   51 51 51   5 4 2   5 4 2   9 8 4   23 20 11   35 30 18   45 39 23   55 47 28   64 55 32   78 69 38   137 144 54   154 164 59   95 85 47   92 79 47   92 79 47   51 51 51   51 51 51   
51 51 51   51 51 51   51 51 51   51 51 51   51 51 51   51 51 51   51 51 51   51 51 51   51 51 51   51 51 51   51 51 51   51 51 51   51 51 51   19 17 23   19 17 23   19 17 23   19 17 23   19 17 23   19 17 23   51 51 51   18 4 18   55 13 54   134 31 131   194 45 189   241 56 236   255 65 255   255 73 255   255 78 255   255 80 255   255 79 255   255 62 255   51 51 51   51 51 51   51 51 51   51 51 51   5 4 2   5 4 2   5 4 2   19 16 9   31 26 15   41 35 21   51 44 26   60 51 30   68 59 34   85 78 40   102 98 46   89 78 44   89 76 45   90 77 46   51 51 51   51 51 51   
51 51 51   51 51 51   51 51 51   51 51 51   51 51 51   51 51 51   51 51 51   51 51 51   51 51 51   51 51 51   51 51 51   51 51 51   51 51 51   51 51 51   19 17 23   19 17 23   19 17 23   19 17 23   51 51 51   51 51 51   18 4 18   46 10 45   123 29 120   182 42 178   228 53 223   255 62 255   255 69 255   255 74 255   255 77 255   255 76 255   255 63 255   51 51 51   51 51 51   51 51 51   51 51 51   5 4 2   5 4 2   5 4 2   13 11 7   26 22 13   36 31 18   46 40 23   55 47 28   63 54 32   70 61 36   77 67 39   82 70 41   85 73 43   86 74 44   51 51 51   51 51 51   
51 51 51   51 51 51   51 51 51   51 51 51   51 51 51   51 51 51   51 51 51   51 51 51   51 51 51   51 51 51   51 51 51   51 51 51   51 51 51   51 51 51   51 51 51   51 51 51   51 51 51   51 51 51   51 51 51   51 51 51   18 4 18   24 5 24   103 24 101   162 38 159   209 49 205   247 58 241   255 65 255   255 70 255   255 72 255   255 71 255   223 52 218   51 51 51   51 51 51   51 51 51   51 51 51   51 51 51   5 4 2   5 4 2   7 6 3   20 17 10   31 26 16   41 35 21   50 43 25   58 49 29   65 55 33   71 61 36   76 65 39   80 68 41   81 69 41   51 51 51   51 51 51   
51 51 51   51 51 51   51 51 51   51 51 51   51 51 51   51 51 51   51 51 51   51 51 51   51 51 51   51 51 51   51 51 51   51 51 51   51 51 51   51 51 51   51 51 51   51 51 51   51 51 51   51 51 51   51 51 51   51 51 51   51 51 51   18 4 18   74 17 73   135 32 132   183 43 179   221 52 216   250 58 244   255 63 255   255 65 255   255 62 255   51 51 51   51 51 51   51 51 51   51 51 51   51 51 51   51 51 51   5 4 2   5 4 2   5 4 2   13 11 6   24 21 12   34 30 17   44 37 22   52 44 26   59 50 30   65 56 33   70 60 36   73 63 37   74 63 37   51 51 51   51 51 51   
