P3
51 51
255
51 51 51   51 51 51   51 51 51   51 51 51   51 51 51   51 51 51   51 51 51   51 51 51   51 51 51   51 51 51   51 51 51   51 51 51   51 51 51   51 51 51   51 51 51   51 51 51   51 51 51   51 51 51   51 51 51   51 51 51   51 51 51   51 51 51   51 51 51   51 51 51   51 51 51   51 51 51   51 51 51   51 51 51   51 51 51   51 51 51   51 51 51   51 51 51   51 51 51   51 51 51   51 51 51   51 51 51   51 51 51   51 51 51   51 51 51   51 51 51   51 51 51   51 51 51   51 51 51   51 51 51   51 51 51   51 51 51   51 51 51   51 51 51   51 51 51   51 51 51   51 51 51   
51 51 51   51 51 51   51 51 51   51 51 51   51 51 51   51 51 51   51 51 51   51 51 51   51 51 51   51 51 51   51 51 51   51 51 51   51 51 51   51 51 51   51 51 51   51 51 51   51 51 51   51 51 51   51 51 51   51 51 51   51 51 51   51 51 51   51 51 51   51 51 51   51 51 51   51 51 51   51 51 51   51 51 51   51 51 51   51 51 51   51 51 51   51 51 51   51 51 51   51 51 51   51 51 51   51 51 51   51 51 51   51 51 51   51 51 51   51 51 51   51 51 51   51 51 51   51 51 51   51 51 51   51 51 51   51 51 51   51 51 51   51 51 51   51 51 51   51 51 51   51 51 51   
51 51 51   51 51 51   51 51 51   51 51 51   51 51 51   51 51 51   51 51 51   51 51 51   51 51 51   51 51 51   51 51 51   51 51 51   51 51 51   51 51 51   51 51 51   51 51 51   51 51 51   51 51 51   51 51 51   51 51 51   51 51 51   51 51 51   51 51 51   51 51 51   51 51 51   51 51 51   51 51 51   51 51 51   51 51 51   51 51 51   51 51 51   51 51 51   51 51 51   51 51 51   51 51 51   51 51 51   51 51 51   51 51 51   51 51 51   51 51 51   51 51 51   51 51 51   51 51 51   51 51 51   51 51 51   51 51 51   51 51 51   51 51 51   51 51 51   51 51 51   51 51 51   
51 51 51   51 51 51   51 51 51   51 51 51   51 51 51   51 51 51   51 51 51   51 51 51   51 51 51   51 51 51   51 51 51   51 51 51   51 51 51   51 51 51   51 51 51   51 51 51   51 51 51   51 51 51   51 51 51   51 51 51   51 51 51   51 51 51   51 51 51   51 51 51   51 51 51   51 51 51   51 51 51   51 51 51   51 51 51   51 51 51   51 51 51   51 51 51   51 51 51   51 51 51   51 51 51   51 51 51   51 51 51   51 51 51   51 51 51   51 51 51   51 51 51   51 51 51   51 51 51   51 51 51   51 51 51   51 51 51   51 51 51   51 51 51   51 51 51   51 51 51   51 51 51   
51 51 51   51 51 51   51 51 51   51 51 51   51 51 51   51 51 51   51 51 51   51 51 51   202 1 157   229 1 178   249 1 194   255 1 207   255 1 217   255 1 225   255 1 229   51 51 51   51 51 51   51 51 51   51 51 51   51 51 51   51 51 51   51 51 51   51 51 51   51 51 51   51 51 51   51 51 51   51 51 51   51 51 51   35 135 155   53 240 234   65 255 255   51 51 51   51 51 51   51 51 51   51 51 51   51 51 51   51 51 51   51 51 51   51 51 51   51 51 51   51 51 51   51 51 51   51 51 51   51 51 51   51 51 51   51 51 51   51 51 51   51 51 51   51 51 51   51 51 51   51 51 51   
51 51 51   51 51 51   51 51 51   51 51 51   51 51 51   51 51 51   141 0 110   182 1 141   208 1 162   229 1 178   248 1 193   255 1 205   255 1 215   255 1 224   255 1 231   255 1 236   255 1 235   51 51 51   51 51 51   51 51 51   51 51 51   51 51 51   51 51 51   51 51 51   51 51 51   51 51 51   51 51 51   3 12 16   22 89 100   40 197 176   53 255 237   58 208 255   51 51 51   51 51 51   51 51 51   51 51 51   51 51 51   51 51 51   51 51 51   51 51 51   51 51 51   51 51 51   51 51 51   51 51 51   51 51 51   51 51 51   51 51 51   51 51 51   51 51 51   51 51 51   51 51 51   
51 51 51   51 51 51   51 51 51   51 51 51   51 51 51   105 0 81   150 0 117   179 1 139   202 1 157   222 1 173   240 1 186   255 1 198   255 1 209   255 1 218   255 1 226   255 1 232   255 1 236   255 1 234   51 51 51   51 51 51   154 102 141   247 164 227   255 198 255   255 221 255   51 51 51   51 51 51   51 51 51   3 12 16   6 22 28   22 95 101   36 169 162   43 162 194   51 51 51   51 51 51   51 51 51   51 51 51   51 51 51   51 51 51   51 51 51   51 51 51   51 51 51   51 51 51   51 51 51   51 51 51   51 51 51   51 51 51   51 51 51   51 51 51   51 51 51   51 51 51   51 51 51   
51 51 51   51 51 51   51 51 51   51 51 51   51 51 51   111 0 86   144 0 112   170 0 133   192 1 150   211 1 164   228 1 178   243 1 189   255 1 200   255 2 217   255 3 228   255 1 225   255 1 229   255 1 231   255 1 226   64 42 59   162 107 149   224 149 206   255 181 251   255 208 255   255 225 255   51 51 51   51 51 51   3 12 16   3 12 16   3 12 16   16 57 72   51 51 51   51 51 51   51 51 51   51 51 51   51 51 51   51 51 51   51 51 51   51 51 51   51 51 51   51 51 51   51 51 51   51 51 51   51 51 51   51 51 51   51 51 51   51 51 51   51 51 51   51 51 51   51 51 51   51 51 51   
51 51 51   51 51 51   246 182 173   255 239 228   58 0 45   103 0 80   133 0 104   158 0 123   179 1 139   198 1 154   215 1 167   230 1 179   244 1 190   255 8 246   255 29 255   255 8 255   255 1 220   255 1 223   255 1 223   255 1 208   124 82 114   183 121 168   232 154 213   255 203 255   255 201 255   255 207 255   51 51 51   51 51 51   3 12 16   3 12 16   3 12 16   154 97 220   198 125 255   235 148 255   255 168 255   255 184 255   51 51 51   51 51 51   51 51 51   51 51 51   51 51 51   51 51 51   51 51 51   51 51 51   51 51 51   51 51 51   51 51 51   94 255 247   115 255 255   51 51 51   51 51 51   
51 51 51   229 169 161   255 215 205   255 247 236   50 0 39   90 0 70   119 0 92   143 0 111   164 0 127   182 1 142   199 1 155   214 1 167   228 1 177   252 3 198   255 16 255   255 11 255   255 1 210   255 1 212   255 1 213   255 1 208   247 245 235   255 255 255   255 255 255   222 147 204   253 168 233   255 178 247   51 51 51   51 51 51   51 51 51   51 51 51   90 57 129   138 87 197   178 113 255   214 135 255   245 156 255   255 172 255   255 186 255   69 210 58   89 255 74   105 255 88   120 255 101   51 51 51   51 51 51   51 51 51   51 51 51   32 97 84   57 175 151   79 243 210   100 255 255   120 255 255   138 255 255   
141 104 99   222 164 156   255 203 193   21 16 15   35 0 28   73 0 57   102 0 79   126 0 98   147 0 114   165 0 128   182 1 141   197 1 153   211 1 164   223 1 174   237 1 185   248 1 193   252 1 196   255 1 200   255 1 201   254 1 198   255 255 255   255 255 255   255 255 255   255 255 255   255 255 255   209 138 192   51 51 51   209 255 218   249 255 255   255 255 255   68 43 97   113 71 161   13 193 120   18 255 163   22 255 193   25 255 219   27 255 241   29 255 255   75 228 63   93 255 78   112 255 93   120 255 101   51 51 51   51 51 51   7 23 20   16 48 42   39 121 105   61 188 162   82 251 217   210 255 255   120 255 255   
123 91 86   193 142 136   243 179 171   21 16 15   16 0 12   54 0 42   82 0 64   106 0 83   127 0 99   146 0 114   163 0 127   178 1 139   192 1 149   204 1 159   215 1 168   225 1 175   233 1 181   238 1 185   241 1 187   237 1 185   213 1 166   255 255 255   255 255 255   255 255 255   255 255 255   255 255 255   182 232 190   220 255 229   251 255 255   255 255 255   255 255 255   9 134 83   14 197 123   17 248 155   20 255 182   23 255 207   26 255 230   28 255 250   30 255 255   30 255 255   93 255 78   105 255 88   51 51 51   51 51 51   7 23 20   7 23 20   20 63 54   42 130 112   63 193 166   83 253 218   101 255 255   
82 61 58   150 111 106   200 148 141   21 16 15   16 0 12   31 0 24   60 0 47   85 0 66   106 0 83   125 0 97   142 0 111   158 0 123   172 0 133   184 1 143   195 1 152   204 1 159   212 1 165   218 1 169   220 1 171   217 1 169   196 1 153   255 255 250   255 255 255   255 255 255   255 255 255   255 255 255   172 220 180   207 255 215   237 255 247   255 255 255   255 255 255   8 121 75   12 176 110   15 224 140   19 255 166   21 255 191   35 255 215   62 255 239   29 255 252   30 255 255   75 228 63   89 255 74   51 51 51   51 51 51   7 23 20   7 23 20   7 23 20   22 68 58   43 131 113   62 191 165   81 248 214   
21 16 15   97 71 68   21 16 15   21 16 15   16 0 12   16 0 12   36 0 28   61 0 48   83 0 65   103 0 80   120 0 93   135 0 105   149 0 116   162 0 126   173 0 134   182 1 142   190 1 148   195 1 152   197 1 153   193 1 150   170 0 132   226 223 214   255 255 248   255 255 255   255 255 255   255 255 255   255 255 255   188 239 196   217 255 227   255 255 255   255 255 255   6 95 59   10 148 92   13 195 121   16 237 148   19 255 172   33 255 196   154 255 234   62 255 239   28 255 250   29 255 255   69 210 58   51 51 51   51 51 51   7 23 20   7 23 20   7 23 20   7 23 20   21 66 56   41 125 108   59 181 156   
21 16 15   31 22 21   21 16 15   21 16 15   16 0 12   16 0 12   16 0 12   35 0 27   58 0 45   78 0 60   95 0 74   111 0 86   125 0 97   138 0 107   149 0 116   158 0 123   165 0 128   170 0 132   171 0 133   165 0 128   126 0 98   183 181 174   218 216 207   248 245 236   255 255 255   255 255 255   255 255 255   165 210 172   194 248 202   225 255 232   255 255 255   4 64 40   8 116 72   11 162 101   14 204 127   17 243 152   20 255 174   33 255 196   35 255 215   26 255 230   27 255 241   46 140 39   51 51 51   51 51 51   7 23 20   7 23 20   7 23 20   7 23 20   7 23 20   17 53 46   32 98 85   
51 51 51   21 16 15   21 16 15   21 16 15   21 16 15   16 0 12   16 0 12   16 0 12   29 0 22   50 0 39   68 0 53   84 0 66   99 0 77   111 0 87   122 0 95   131 0 102   138 0 107   142 0 110   141 0 110   131 0 102   92 91 87   134 132 127   169 167 161   199 197 189   221 219 210   234 231 222   215 213 204   139 177 145   168 214 175   195 248 203   220 255 228   1 24 15   5 80 50   9 126 79   12 168 105   14 207 129   17 243 152   19 255 172   21 255 191   23 255 207   25 255 219   51 51 51   51 51 51   51 51 51   51 51 51   7 23 20   7 23 20   7 23 20   7 23 20   51 51 51   51 51 51   
51 51 51   21 16 15   21 16 15   21 16 15   21 16 15   16 0 12   16 0 12   16 0 12   16 0 12   16 0 12   38 0 29   55 0 42   69 0 54   82 0 64   93 0 72   101 0 79   107 0 83   109 0 85   106 0 82   87 0 67   34 34 32   77 76 73   113 112 108   142 141 135   163 162 155   171 169 162   77 98 80   110 140 114   139 178 145   174 224 255   188 242 255   1 24 15   2 40 25   6 87 54   9 129 81   12 168 105   14 204 127   222 251 187   255 255 238   255 255 255   22 255 193   51 51 51   51 51 51   51 51 51   51 51 51   51 51 51   51 51 51   51 51 51   51 51 51   51 51 51   51 51 51   
51 51 51   51 51 51   51 51 51   21 16 15   21 16 15   21 16 15   16 0 12   16 0 12   16 0 12   16 0 12   16 0 12   21 0 16   36 0 28   49 0 38   59 0 46   67 0 52   71 0 56   71 0 55   61 0 47   21 20 20   21 20 20   21 20 20   47 47 45   75 74 72   92 91 87   83 83 79   56 72 100   120 154 214   156 201 255   185 238 255   208 255 255   225 255 255   230 255 255   3 44 27   6 87 54   91 103 77   171 193 144   229 255 193   255 255 235   255 255 255   255 255 255   255 255 255   51 51 51   19 8 2   19 8 2   19 8 2   248 115 35   255 134 41   255 150 46   51 51 51   51 51 51   
51 51 51   51 51 51   51 51 51   51 51 51   51 51 51   51 51 51   14 6 16   16 0 12   16 0 12   16 0 12   16 0 12   16 0 12   16 0 12   16 0 12   20 0 16   27 0 21   28 0 22   21 0 16   51 51 51   21 20 20   21 20 20   21 20 20   21 20 20   21 20 20   21 20 20   17 22 18   75 96 133   115 149 206   148 191 255   175 226 255   199 255 255   218 255 255   231 255 255   230 255 255   20 23 17   88 99 74   152 172 128   206 233 174   254 255 215   255 255 251   255 255 255   255 255 255   255 255 255   19 8 2   132 61 18   179 83 25   222 103 31   255 122 37   255 139 42   255 154 47   51 51 51   
51 51 51   51 51 51   51 51 51   51 51 51   51 51 51   14 6 16   14 6 16   14 6 16   16 0 12   16 0 12   16 0 12   16 0 12   16 0 12   16 0 12   16 0 12   16 0 12   16 0 12   51 51 51   51 51 51   51 51 51   51 51 51   51 51 51   51 51 51   51 51 51   17 22 18   12 16 22   64 82 114   102 131 181   133 171 237   160 206 255   183 236 255   255 255 255   218 255 255   225 255 255   20 23 17   62 70 52   123 139 104   176 199 149   223 252 188   255 255 225   255 255 255   255 255 255   255 255 255   51 24 7   102 47 14   149 69 21   192 89 27   231 108 33   255 255 173   255 140 43   255 153 47   
51 51 51   51 51 51   51 51 51   51 51 51   51 51 51   14 6 16   14 6 16   14 6 16   14 6 16   14 6 16   14 6 16   16 0 12   16 0 12   16 0 12   16 0 12   13 12 3   13 12 3   51 51 51   51 51 51   51 51 51   51 51 51   24 14 11   24 14 11   24 14 11   17 22 18   12 16 22   46 59 82   83 106 147   113 146 202   140 180 250   163 210 255   183 236 255   199 255 255   12 16 22   20 23 17   28 31 23   88 99 74   140 158 118   187 211 158   230 255 194   255 255 226   255 255 254   255 255 255   19 8 2   69 32 9   115 53 16   158 73 22   198 92 28   235 109 33   255 125 38   255 138 42   
51 51 51   51 51 51   51 51 51   51 51 51   51 51 51   14 6 16   14 6 16   14 6 16   14 6 16   14 6 16   13 12 3   13 12 3   13 12 3   13 12 3   13 12 3   13 12 3   172 158 41   51 51 51   51 51 51   51 51 51   24 14 11   24 14 11   24 14 11   24 14 11   24 14 11   12 16 22   23 29 41   59 77 106   90 116 161   117 151 208   140 180 250   160 206 255   175 226 255   12 16 22   20 23 17   20 23 17   47 53 39   100 113 84   147 166 124   189 214 160   227 255 192   255 255 220   255 255 241   19 8 2   32 15 4   79 36 11   121 56 17   161 75 23   198 92 28   232 108 33   255 121 37   
51 51 51   51 51 51   51 51 51   51 51 51   14 6 16   14 6 16   14 6 16   14 6 16   14 6 16   14 6 16   14 6 16   13 12 3   13 12 3   13 12 3   135 123 33   142 130 34   109 100 26   51 51 51   51 51 51   51 51 51   24 14 11   24 14 11   24 14 11   24 14 11   24 14 11   12 16 22   12 16 22   32 41 57   63 82 113   90 116 161   113 146 202   133 171 237   148 191 255   12 16 22   20 23 17   20 23 17   20 23 17   54 61 45   102 115 86   144 163 122   182 206 154   214 242 181   236 255 199   19 8 2   19 8 2   38 18 5   82 38 11   122 56 17   159 74 22   192 89 27   219 102 31   
51 51 51   51 51 51   51 51 51   51 51 51   51 51 51   14 6 16   14 6 16   14 6 16   14 6 16   14 6 16   14 6 16   13 12 3   13 12 3   41 37 10   64 59 15   63 58 15   51 51 51   51 51 51   51 51 51   51 51 51   24 14 11   24 14 11   24 14 11   24 14 11   24 14 11   12 16 22   12 16 22   12 16 22   32 41 57   59 77 106   83 106 147   102 131 181   115 149 206   12 16 22   20 23 17   20 23 17   20 23 17   20 23 17   50 57 42   93 105 78   130 147 110   160 180 135   172 194 145   19 8 2   19 8 2   19 8 2   38 17 5   78 36 11   115 53 16   146 68 21   167 77 23   
51 51 51   51 51 51   51 51 51   51 51 51   51 51 51   14 6 16   14 6 16   14 6 16   14 6 16   14 6 16   14 6 16   14 6 16   14 6 16   13 12 3   13 12 3   51 51 51   51 51 51   51 51 51   51 51 51   51 51 51   24 14 11   24 14 11   24 14 11   24 14 11   24 14 11   24 14 11   12 16 22   12 16 22   12 16 22   23 29 41   46 59 82   64 82 114   12 16 22   12 16 22   24 255 200   20 23 17   20 23 17   20 23 17   20 23 17   33 37 28   67 76 57   89 100 75   19 8 2   19 8 2   19 8 2   19 8 2   19 8 2   28 13 4   63 29 9   90 42 12   51 51 51   
51 51 51   51 51 51   51 51 51   51 51 51   51 51 51   51 51 51   14 6 16   14 6 16   14 6 16   14 6 16   14 6 16   14 6 16   14 6 16   14 6 16   51 51 51   51 51 51   20 3 17   20 3 17   20 3 17   51 51 51   51 51 51   23 15 9   23 15 9   23 15 9   24 14 11   51 51 51   51 51 51   12 16 22   12 16 22   12 16 22   12 16 22   12 16 22   1 17 12   21 249 178   25 255 209   28 255 230   20 23 17   20 23 17   20 23 17   20 23 17   20 23 17   51 51 51   51 51 51   19 8 2   19 8 2   19 8 2   19 8 2   19 8 2   19 8 2   51 51 51   51 51 51   
51 51 51   51 51 51   51 51 51   51 51 51   51 51 51   51 51 51   11 2 17   14 6 16   14 6 16   14 6 16   14 6 16   14 6 16   14 6 16   11 2 17   11 2 17   20 3 17   20 3 17   20 3 17   20 3 17   23 15 9   23 15 9   23 15 9   23 15 9   23 15 9   23 15 9   51 51 51   51 51 51   51 51 51   22 177 200   29 239 255   34 255 255   2 17 19   15 178 127   20 230 165   26 255 198   27 255 220   28 255 233   51 51 51   51 51 51   51 51 51   51 51 51   12 18 9   12 18 9   12 18 9   221 255 164   51 51 51   51 51 51   51 51 51   51 51 51   51 51 51   51 51 51   
51 51 51   51 51 51   51 51 51   51 51 51   51 51 51   51 51 51   11 2 17   11 2 17   11 2 17   11 2 17   11 2 17   187 38 255   11 2 17   11 2 17   11 2 17   20 3 17   20 3 17   20 3 17   20 3 17   23 15 9   23 15 9   23 15 9   23 15 9   23 15 9   23 15 9   23 15 9   51 51 51   13 109 124   22 184 208   29 240 255   34 255 255   38 255 255   2 17 19   17 200 144   21 244 175   25 255 200   26 255 215   51 51 51   51 51 51   51 51 51   12 18 9   12 18 9   12 18 9   12 18 9   235 255 164   236 255 175   51 51 51   51 51 51   51 51 51   51 51 51   51 51 51   
51 51 51   51 51 51   51 51 51   51 51 51   51 51 51   51 51 51   11 2 17   11 2 17   11 2 17   11 2 17   11 2 17   162 34 255   169 35 255   11 2 17   11 2 17   20 3 17   20 3 17   20 3 17   23 15 9   23 15 9   23 15 9   23 15 9   23 15 9   23 15 9   23 15 9   23 15 9   2 17 19   11 96 108   20 165 186   27 219 247   48 255 255   38 255 255   37 255 255   14 162 116   18 205 147   21 240 172   22 255 188   20 238 171   51 51 51   51 51 51   12 18 9   12 18 9   12 18 9   139 199 103   205 255 142   212 255 157   51 51 51   51 51 51   51 51 51   51 51 51   51 51 51   
51 51 51   51 51 51   51 51 51   51 51 51   51 51 51   51 51 51   11 2 17   11 2 17   11 2 17   11 2 17   11 2 17   138 29 218   144 30 228   143 30 226   128 27 203   20 3 17   20 3 17   20 3 17   23 15 9   23 15 9   23 15 9   23 15 9   23 15 9   23 15 9   23 15 9   23 15 9   2 17 19   7 64 72   16 132 149   23 185 209   28 228 255   32 255 255   33 255 255   10 115 82   13 158 113   16 191 137   18 210 151   51 51 51   55 20 42   73 27 56   12 18 9   12 18 9   52 75 39   101 145 75   143 203 106   174 248 129   51 51 51   51 51 51   51 51 51   51 51 51   51 51 51   
51 51 51   51 51 51   51 51 51   51 51 51   51 51 51   51 51 51   11 2 17   11 2 17   11 2 17   11 2 17   94 20 150   106 22 169   111 23 177   107 22 170   82 17 130   156 144 115   244 225 180   255 255 222   255 255 249   23 15 9   23 15 9   23 15 9   23 15 9   23 15 9   23 15 9   51 51 51   2 17 19   2 17 19   10 87 98   17 141 159   22 183 207   26 213 241   27 223 252   4 56 40   8 99 71   11 130 93   15 5 11   41 15 32   61 22 47   76 28 59   12 18 9   12 18 9   12 18 9   55 78 41   96 137 71   123 176 91   51 51 51   51 51 51   51 51 51   51 51 51   51 51 51   
51 51 51   51 51 51   51 51 51   51 51 51   51 51 51   51 51 51   51 51 51   11 2 17   11 2 17   11 2 17   54 11 85   65 13 103   67 14 106   54 11 85   54 50 40   175 162 129   248 228 183   255 255 221   255 255 255   23 15 9   23 15 9   23 15 9   23 15 9   23 15 9   23 15 9   51 51 51   2 17 19   2 17 19   3 28 32   10 84 95   15 126 143   19 153 173   18 149 168   1 17 12   1 17 12   5 2 4   18 6 14   40 15 31   58 21 44   73 27 56   86 32 66   12 18 9   12 18 9   12 18 9   30 43 22   51 51 51   51 51 51   51 51 51   51 51 51   51 51 51   51 51 51   
51 51 51   51 51 51   51 51 51   51 51 51   51 51 51   51 51 51   51 51 51   51 51 51   11 2 17   11 2 17   11 2 17   11 2 17   11 2 17   51 51 51   61 56 45   162 149 119   229 211 169   255 255 206   255 255 255   255 255 255   255 255 249   23 15 9   23 15 9   51 51 51   51 51 51   51 51 51   51 51 51   2 17 19   2 17 19   2 17 19   5 46 53   7 59 67   51 51 51   51 51 51   51 51 51   5 2 4   13 5 10   5 2 4   51 19 40   67 25 51   80 30 62   161 143 159   100 38 78   106 39 82   51 51 51   51 51 51   51 51 51   51 51 51   51 51 51   51 51 51   51 51 51   
51 51 51   51 51 51   51 51 51   51 51 51   51 51 51   51 51 51   51 51 51   51 51 51   51 51 51   21 20 18   21 20 18   255 255 255   21 20 18   21 20 18   19 18 14   19 18 14   19 18 14   19 18 14   255 255 206   255 255 221   19 18 14   2 0 20   2 0 20   2 0 20   51 51 51   51 51 51   3 8 21   3 8 21   3 8 21   3 8 21   3 8 21   51 51 51   51 51 51   51 51 51   51 51 51   5 2 4   5 2 4   5 2 4   5 2 4   58 22 45   72 27 55   83 31 65   92 35 72   99 37 76   51 51 51   51 51 51   51 51 51   51 51 51   51 51 51   51 51 51   51 51 51   
51 51 51   51 51 51   51 51 51   51 51 51   51 51 51   51 51 51   51 51 51   51 51 51   51 51 51   130 121 110   249 233 211   255 255 255   21 20 18   21 20 18   19 18 14   19 18 14   19 18 14   19 18 14   229 211 169   19 18 14   19 18 14   2 0 20   2 0 20   2 0 20   51 51 51   51 51 51   3 8 21   3 8 21   3 8 21   3 8 21   3 8 21   51 51 51   51 51 51   51 51 51   51 51 51   5 2 4   5 2 4   5 2 4   33 12 25   48 18 37   62 23 48   73 27 57   83 31 64   89 33 69   85 31 65   51 51 51   51 51 51   51 51 51   51 51 51   51 51 51   51 51 51   
51 51 51   51 51 51   51 51 51   51 51 51   51 51 51   51 51 51   51 51 51   51 51 51   51 51 51   21 20 18   130 121 110   21 20 18   21 20 18   51 51 51   51 51 51   19 18 14   19 18 14   19 18 14   19 18 14   19 18 14   19 18 14   51 51 51   2 0 20   51 51 51   51 51 51   51 51 51   3 8 21   17 9 2   17 9 2   17 9 2   17 9 2   51 51 51   51 51 51   51 51 51   51 51 51   5 2 4   5 2 4   23 67 33   36 105 52   45 132 66   52 151 75   61 23 47   71 26 55   76 28 59   51 51 51   51 51 51   51 51 51   51 51 51   51 51 51   51 51 51   51 51 51   
51 51 51   51 51 51   51 51 51   51 51 51   51 51 51   51 51 51   51 51 51   51 51 51   51 51 51   51 51 51   51 51 51   51 51 51   51 51 51   51 51 51   51 51 51   51 51 51   19 18 14   19 18 14   19 18 14   19 18 14   51 51 51   51 51 51   51 51 51   51 51 51   51 51 51   17 9 2   165 88 23   207 110 29   240 128 34   255 142 38   255 151 40   255 156 42   255 139 37   51 51 51   51 51 51   51 51 51   11 32 16   25 75 37   37 108 54   46 135 68   54 157 78   59 173 86   58 170 85   59 22 46   51 51 51   51 51 51   51 51 51   51 51 51   51 51 51   51 51 51   51 51 51   
51 51 51   51 51 51   51 51 51   51 51 51   51 51 51   51 51 51   51 51 51   51 51 51   51 51 51   51 51 51   51 51 51   51 51 51   51 51 51   51 51 51   51 51 51   51 51 51   51 51 51   51 51 51   51 51 51   51 51 51   51 51 51   51 51 51   51 51 51   51 51 51   70 37 10   135 72 19   183 97 26   220 117 31   252 134 36   255 148 39   255 158 42   255 166 44   255 168 45   255 153 41   216 21 24   3 9 4   10 31 15   24 70 35   35 102 51   44 129 64   53 154 78   58 170 85   61 180 90   51 51 51   51 51 51   51 51 51   51 51 51   51 51 51   51 51 51   51 51 51   51 51 51   
51 51 51   51 51 51   51 51 51   51 51 51   51 51 51   51 51 51   51 51 51   51 51 51   51 51 51   51 51 51   51 51 51   51 51 51   51 51 51   51 51 51   51 51 51   51 51 51   51 51 51   51 51 51   51 51 51   51 51 51   51 51 51   51 51 51   51 51 51   17 9 2   90 48 12   144 77 20   187 100 27   223 119 32   253 135 36   255 149 40   255 160 43   255 168 45   255 173 46   255 171 46   225 22 25   3 9 4   7 21 10   20 59 29   31 91 45   40 118 59   49 143 72   72 215 128   59 173 86   58 170 85   51 51 51   51 51 51   51 51 51   51 51 51   51 51 51   51 51 51   51 51 51   
51 51 51   51 51 51   51 51 51   51 51 51   51 51 51   51 51 51   255 145 56   255 179 69   255 191 74   255 180 70   51 51 51   51 51 51   51 51 51   51 51 51   51 51 51   51 51 51   51 51 51   51 51 51   51 51 51   51 51 51   51 51 51   51 51 51   51 51 51   26 14 3   94 50 13   144 77 20   185 98 26   220 117 31   249 133 35   255 147 40   255 206 70   255 193 60   255 172 46   255 173 46   255 162 43   3 9 4   3 9 4   15 44 22   26 76 38   35 103 51   43 127 63   50 146 73   54 159 79   55 160 80   220 9 192   51 51 51   51 51 51   51 51 51   51 51 51   51 51 51   51 51 51   
51 51 51   51 51 51   51 51 51   51 51 51   147 81 31   255 154 60   255 192 75   255 216 84   255 228 89   255 227 88   255 206 80   51 51 51   51 51 51   51 51 51   51 51 51   51 51 51   51 51 51   51 51 51   51 51 51   51 51 51   51 51 51   51 51 51   17 9 2   27 14 3   90 48 12   138 73 19   178 95 25   212 113 30   241 128 34   255 143 39   255 255 109   255 255 129   255 170 46   255 171 46   255 165 44   3 9 4   3 9 4   8 24 12   19 57 28   29 85 42   37 108 54   43 127 63   48 140 70   48 140 70   255 11 226   255 13 255   255 14 255   51 51 51   51 51 51   51 51 51   51 51 51   
51 51 51   51 51 51   51 51 51   45 25 9   236 130 50   255 177 69   255 208 81   255 228 89   255 240 94   255 240 94   255 227 88   255 180 70   51 51 51   51 51 51   51 51 51   51 51 51   51 51 51   51 51 51   51 51 51   51 51 51   210 99 103   255 127 130   255 135 139   17 9 2   80 42 11   127 67 18   166 88 23   17 9 2   17 9 2   17 9 2   17 9 2   17 9 2   255 163 44   255 165 44   255 161 43   223 22 25   3 9 4   3 9 4   11 33 16   21 62 31   29 85 42   35 104 52   39 115 57   205 8 179   255 11 226   255 13 255   255 14 255   255 16 255   255 15 255   51 51 51   51 51 51   
51 51 51   51 51 51   51 51 51   142 78 30   255 142 55   255 182 71   255 209 81   255 250 114   255 255 255   255 240 94   255 228 89   255 191 74   51 51 51   51 51 51   51 51 51   51 51 51   51 51 51   51 51 51   118 56 58   225 107 110   255 138 142   255 160 165   255 174 179   255 178 183   255 158 162   111 59 16   17 9 2   17 9 2   17 9 2   17 9 2   17 9 2   17 9 2   255 154 41   255 156 42   255 153 41   194 19 22   3 9 4   3 9 4   3 9 4   11 32 16   19 56 28   25 73 36   26 76 38   193 8 169   247 10 216   255 12 255   255 15 255   255 15 255   255 16 255   51 51 51   51 51 51   
51 51 51   51 51 51   51 51 51   153 84 33   253 139 54   255 176 68   255 201 78   255 223 91   255 250 114   255 228 89   255 216 84   255 179 69   93 139 70   114 170 86   51 51 51   51 51 51   51 51 51   54 25 26   183 87 89   255 124 128   255 152 156   255 172 177   255 187 192   255 194 200   255 191 196   17 9 2   17 9 2   17 9 2   17 9 2   17 9 2   17 9 2   17 9 2   17 9 2   255 146 39   255 141 38   157 15 18   17 1 2   17 1 2   3 9 4   3 9 4   3 9 4   42 1 36   113 4 99   174 7 152   229 9 200   255 11 241   255 41 255   255 43 255   255 16 255   255 16 255   51 51 51   
51 51 51   51 51 51   51 51 51   133 73 28   229 126 49   255 161 63   255 186 72   255 201 78   255 209 81   255 208 81   21 32 16   97 145 73   130 195 98   148 221 111   150 223 113   113 169 85   51 51 51   106 50 52   205 97 100   255 130 134   255 156 161   255 177 183   255 201 213   255 201 209   255 199 205   255 183 189   17 9 2   17 9 2   17 9 2   17 9 2   17 9 2   17 9 2   245 130 35   247 132 35   232 123 33   17 1 2   17 1 2   17 1 2   17 1 2   21 0 18   21 0 18   21 0 18   88 3 77   150 6 131   204 8 178   253 10 221   255 12 255   255 16 255   255 15 255   255 16 255   51 51 51   
51 51 51   51 51 51   51 51 51   85 46 18   185 102 40   249 137 53   255 161 63   255 176 68   255 182 71   23 13 5   63 95 48   111 165 83   139 208 105   177 242 133   158 237 120   141 210 106   23 10 11   119 56 58   208 98 101   255 130 134   255 154 159   255 179 188   255 240 255   255 219 237   255 198 205   255 188 193   17 9 2   17 9 2   17 9 2   17 9 2   17 9 2   17 9 2   215 114 30   213 113 30   17 9 2   17 1 2   17 1 2   17 1 2   51 51 51   51 51 51   21 0 18   21 0 18   56 2 49   120 5 104   175 7 153   224 9 196   255 11 233   255 13 255   255 14 255   255 15 255   51 51 51   
51 51 51   51 51 51   51 51 51   23 13 5   116 64 25   185 102 40   229 126 49   253 139 54   23 13 5   23 13 5   68 101 51   109 163 82   135 202 102   198 246 147   153 228 115   136 204 103   23 10 11   114 54 55   198 94 97   255 124 128   255 148 153   255 169 176   255 203 221   255 201 212   255 192 198   255 182 188   17 9 2   17 9 2   17 9 2   17 9 2   17 9 2   171 91 24   176 94 25   162 86 23   51 51 51   51 51 51   51 51 51   51 51 51   51 51 51   51 51 51   21 0 18   21 0 18   21 0 18   83 3 73   140 6 122   190 8 166   234 10 204   255 11 237   255 12 255   255 13 255   51 51 51   
51 51 51   51 51 51   51 51 51   51 51 51   23 13 5   85 46 18   133 73 28   23 13 5   23 13 5   23 13 5   56 84 42   96 144 73   121 181 92   135 202 102   136 203 102   113 169 85   23 10 11   94 44 46   178 84 87   242 114 118   255 138 142   255 157 162   255 171 177   255 179 185   255 180 185   255 169 174   17 9 2   17 9 2   17 9 2   17 9 2   114 61 16   124 66 17   116 61 16   51 51 51   51 51 51   51 51 51   51 51 51   51 51 51   51 51 51   51 51 51   51 51 51   21 0 18   21 0 18   40 1 35   99 4 86   150 6 131   194 8 170   231 9 202   255 11 226   255 11 231   51 51 51   
51 51 51   51 51 51   51 51 51   51 51 51   51 51 51   51 51 51   51 51 51   51 51 51   51 51 51   51 51 51   29 43 22   72 108 54   97 145 73   108 162 82   104 155 78   51 51 51   23 10 11   59 28 29   147 69 72   211 100 103   255 124 128   255 142 147   255 155 160   255 163 168   255 163 167   255 147 151   51 51 51   17 9 2   17 9 2   32 17 4   44 23 6   51 51 51   51 51 51   51 51 51   51 51 51   51 51 51   51 51 51   51 51 51   51 51 51   51 51 51   51 51 51   21 0 18   21 0 18   21 0 18   47 2 41   101 4 88   145 6 127   181 7 158   202 8 177   51 51 51   51 51 51   
51 51 51   51 51 51   51 51 51   51 51 51   51 51 51   51 51 51   51 51 51   51 51 51   51 51 51   51 51 51   51 51 51   28 42 21   55 82 41   61 92 46   51 51 51   51 51 51   51 51 51   23 10 11   102 48 50   170 80 83   221 105 108   255 123 127   255 135 139   255 141 146   255 137 141   216 102 105   51 51 51   51 51 51   51 51 51   51 51 51   51 51 51   51 51 51   51 51 51   51 51 51   51 51 51   51 51 51   51 51 51   51 51 51   51 51 51   51 51 51   51 51 51   51 51 51   51 51 51   21 0 18   21 0 18   34 1 30   79 3 69   106 4 93   51 51 51   51 51 51   51 51 51   
51 51 51   51 51 51   51 51 51   51 51 51   51 51 51   51 51 51   51 51 51   51 51 51   51 51 51   51 51 51   51 51 51   51 51 51   51 51 51   51 51 51   51 51 51   51 51 51   51 51 51   23 10 11   36 17 17   112 53 55   166 79 81   205 97 100   228 108 111   234 111 114   202 96 99   51 51 51   51 51 51   51 51 51   51 51 51   51 51 51   51 51 51   51 51 51   51 51 51   51 51 51   51 51 51   51 51 51   51 51 51   51 51 51   51 51 51   51 51 51   51 51 51   51 51 51   51 51 51   51 51 51   51 51 51   51 51 51   51 51 51   51 51 51   51 51 51   51 51 51   51 51 51   
