P3
51 51
255
51 51 51   126 25 181   156 31 224   169 33 242   51 51 51   51 51 51   51 51 51   51 51 51   51 51 51   51 51 51   51 51 51   142 204 231   173 249 255   199 255 255   221 255 255   240 255 255   255 255 255   255 255 255   255 255 255   255 255 255   51 51 51   51 51 51   51 51 51   51 51 51   51 51 51   51 51 51   51 51 51   51 51 51   51 51 51   51 51 51   51 51 51   51 51 51   51 51 51   51 51 51   51 51 51   51 51 51   51 51 51   51 51 51   51 51 51   51 51 51   51 51 51   51 51 51   51 51 51   51 51 51   51 51 51   51 51 51   51 51 51   51 51 51   51 51 51   51 51 51   51 51 51   
56 11 81   101 20 145   161 30 202   255 47 255   155 30 222   51 51 51   51 51 51   51 51 51   51 51 51   51 51 51   94 135 153   130 188 212   159 229 255   183 255 255   205 255 255   224 255 255   242 255 255   255 255 255   255 255 255   255 255 255   255 255 255   51 51 51   51 51 51   51 51 51   51 51 51   51 51 51   51 51 51   51 51 51   51 51 51   51 51 51   51 51 51   51 51 51   51 51 51   51 51 51   51 51 51   51 51 51   51 51 51   51 51 51   51 51 51   51 51 51   51 51 51   51 51 51   51 51 51   51 51 51   51 51 51   51 51 51   51 51 51   51 51 51   51 51 51   51 51 51   51 51 51   
15 3 22   61 12 87   92 18 132   119 23 165   124 24 178   51 51 51   51 51 51   51 51 51   51 51 51   28 41 46   80 115 130   113 163 184   141 202 229   164 237 255   186 255 255   205 255 255   227 255 255   255 255 255   255 255 255   255 255 255   255 255 255   51 51 51   51 51 51   51 51 51   51 51 51   51 51 51   51 51 51   51 51 51   51 51 51   51 51 51   51 51 51   51 51 51   51 51 51   51 51 51   51 51 51   51 51 51   51 51 51   51 51 51   51 51 51   51 51 51   51 51 51   51 51 51   51 51 51   51 51 51   51 51 51   51 51 51   51 51 51   51 51 51   51 51 51   51 51 51   51 51 51   
9 1 13   9 1 13   43 8 61   66 13 94   78 15 111   59 11 84   51 51 51   51 51 51   51 51 51   15 22 25   60 87 98   92 133 150   119 172 194   143 206 233   165 237 255   184 255 255   202 255 255   225 255 255   237 255 255   242 255 255   250 255 255   245 255 255   51 51 51   51 51 51   51 51 51   51 51 51   51 51 51   51 51 51   51 51 51   51 51 51   51 51 51   51 51 51   51 51 51   51 51 51   51 51 51   51 51 51   51 51 51   51 51 51   51 51 51   51 51 51   216 92 122   253 108 143   255 122 162   255 136 180   255 149 197   51 51 51   51 51 51   51 51 51   51 51 51   51 51 51   51 51 51   
51 51 51   9 1 13   9 1 13   9 1 13   16 3 23   51 51 51   51 51 51   51 51 51   51 51 51   15 22 25   37 53 60   69 99 112   96 138 156   120 173 195   141 203 230   161 231 255   179 255 255   194 255 255   208 255 255   220 255 255   228 255 255   228 255 255   51 51 51   51 51 51   51 51 51   51 51 51   51 51 51   51 51 51   51 51 51   51 51 51   51 51 51   51 51 51   51 51 51   51 51 51   51 51 51   51 51 51   51 51 51   51 51 51   112 47 63   156 66 88   194 83 110   228 97 129   255 111 148   255 125 166   255 138 183   255 150 199   51 51 51   51 51 51   51 51 51   51 51 51   51 51 51   
51 51 51   51 51 51   51 51 51   9 1 13   51 51 51   51 51 51   51 51 51   51 51 51   51 51 51   15 22 25   15 22 25   43 61 69   70 101 114   94 136 154   116 167 189   136 195 221   154 221 250   170 244 255   184 255 255   195 255 255   204 255 255   205 255 255   51 51 51   51 51 51   51 51 51   51 51 51   51 51 51   51 51 51   51 51 51   51 51 51   51 51 51   51 51 51   51 51 51   51 51 51   51 51 51   51 51 51   51 51 51   42 18 24   90 38 51   130 55 74   167 71 94   201 86 114   233 100 132   255 113 150   255 132 178   255 138 183   255 150 199   51 51 51   51 51 51   51 51 51   51 51 51   
51 51 51   51 51 51   51 51 51   51 51 51   51 51 51   51 51 51   51 51 51   51 51 51   51 51 51   15 22 25   15 22 25   15 22 25   42 60 68   67 96 109   89 128 145   109 157 177   127 182 206   143 205 232   157 226 255   168 242 255   176 254 255   177 255 255   51 51 51   51 51 51   51 51 51   255 181 255   51 51 51   51 51 51   51 51 51   51 51 51   51 51 51   51 51 51   51 51 51   51 51 51   51 51 51   51 51 51   20 8 11   20 8 11   63 27 36   102 43 58   138 59 78   172 73 97   204 87 115   235 100 133   255 149 211   255 132 178   255 138 183   255 149 197   51 51 51   51 51 51   51 51 51   
51 51 51   51 51 51   51 51 51   51 51 51   51 51 51   51 51 51   51 51 51   51 51 51   51 51 51   15 22 25   15 22 25   15 22 25   15 22 25   36 52 59   59 85 96   79 114 129   97 140 159   114 163 185   127 183 207   139 199 225   146 210 237   144 208 235   51 51 51   209 103 145   255 143 202   255 175 246   255 201 255   255 219 255   51 51 51   51 51 51   51 51 51   51 51 51   51 51 51   51 51 51   51 51 51   51 51 51   20 8 11   20 8 11   33 14 19   72 30 41   108 46 61   142 60 80   174 74 98   205 88 116   235 100 133   255 113 150   255 125 166   255 136 180   51 51 51   51 51 51   51 51 51   
51 51 51   51 51 51   51 51 51   51 51 51   51 51 51   51 51 51   51 51 51   51 51 51   51 51 51   51 51 51   15 22 25   15 22 25   15 22 25   15 22 25   26 38 43   47 68 77   65 94 107   81 117 133   95 137 155   105 152 172   111 160 181   104 150 170   76 38 53   175 86 121   249 123 173   255 154 216   255 254 255   255 215 255   255 213 255   51 51 51   51 51 51   51 51 51   51 51 51   51 51 51   51 51 51   51 51 51   20 8 11   20 8 11   20 8 11   40 17 23   76 32 43   110 47 62   143 61 81   174 74 98   204 87 115   233 100 132   255 111 148   255 122 162   51 51 51   51 51 51   51 51 51   
51 51 51   51 51 51   51 51 51   51 51 51   51 51 51   51 51 51   51 51 51   51 51 51   51 51 51   51 51 51   15 22 25   15 22 25   15 22 25   15 22 25   15 22 25   15 22 25   30 43 49   46 66 75   59 85 96   68 98 110   70 101 114   51 51 51   24 12 17   122 60 85   195 96 135   255 127 178   255 156 217   255 187 253   255 189 255   51 51 51   51 51 51   51 51 51   51 51 51   51 51 51   51 51 51   51 51 51   20 8 11   20 8 11   20 8 11   20 8 11   43 18 24   78 33 44   110 47 62   142 60 80   172 73 97   201 86 114   228 97 129   253 108 143   51 51 51   51 51 51   51 51 51   
51 51 51   51 51 51   51 51 51   51 51 51   51 51 51   51 51 51   51 51 51   51 51 51   51 51 51   51 51 51   51 51 51   15 22 25   15 22 25   15 22 25   15 22 25   15 22 25   15 22 25   15 22 25   15 22 25   23 33 37   15 22 25   51 51 51   24 12 17   59 29 41   131 65 91   193 95 134   246 122 171   255 143 202   255 159 223   51 51 51   51 51 51   51 51 51   51 51 51   51 51 51   51 51 51   51 51 51   20 8 11   20 8 11   20 8 11   20 8 11   20 8 11   43 18 24   76 32 43   108 46 61   138 59 78   167 71 94   194 83 110   216 92 122   51 51 51   51 51 51   51 51 51   
51 51 51   51 51 51   51 51 51   51 51 51   51 51 51   51 51 51   51 51 51   51 51 51   51 51 51   51 51 51   51 51 51   51 51 51   166 201 92   222 255 123   255 255 144   255 255 159   255 255 165   15 22 25   15 22 25   15 22 25   51 51 51   51 51 51   24 12 17   24 12 17   59 29 41   121 60 84   174 86 121   217 107 151   246 122 171   51 51 51   182 190 16   255 255 25   255 255 32   51 51 51   51 51 51   51 51 51   20 8 11   20 8 11   20 8 11   20 8 11   20 8 11   20 8 11   40 17 23   72 30 41   102 43 58   130 55 74   156 66 88   51 51 51   51 51 51   51 51 51   51 51 51   
51 51 51   51 51 51   51 51 51   51 51 51   51 51 51   51 51 51   51 51 51   51 51 51   51 51 51   51 51 51   51 51 51   91 111 51   160 194 89   207 250 115   243 255 136   255 255 209   255 255 168   255 255 162   51 51 51   51 51 51   51 51 51   51 51 51   24 12 17   24 12 17   24 12 17   39 19 27   92 45 64   133 65 92   153 75 106   21 22 1   154 27 89   205 35 118   244 42 141   255 48 160   255 53 176   19 3 11   19 3 11   20 8 11   20 8 11   20 8 11   20 8 11   20 8 11   20 8 11   33 14 19   63 27 36   90 38 51   112 47 63   51 51 51   51 51 51   51 51 51   51 51 51   
51 51 51   51 51 51   51 51 51   51 51 51   51 51 51   51 51 51   51 51 51   51 51 51   51 51 51   51 51 51   51 51 51   73 89 41   134 162 74   178 215 99   213 255 119   255 255 215   255 255 237   255 255 150   252 255 140   51 51 51   51 51 51   51 51 51   51 51 51   24 12 17   24 12 17   24 12 17   24 12 17   24 12 17   51 51 51   103 18 59   155 27 89   196 34 113   231 40 134   255 46 152   255 51 168   255 55 183   255 59 195   19 3 11   20 8 11   20 8 11   20 8 11   20 8 11   20 8 11   20 8 11   20 8 11   42 18 24   51 51 51   51 51 51   51 51 51   51 51 51   51 51 51   
51 51 51   51 51 51   51 51 51   51 51 51   51 51 51   51 51 51   51 51 51   51 51 51   51 51 51   51 51 51   51 51 51   37 45 20   96 116 53   140 170 78   176 212 98   203 246 113   224 255 126   234 255 130   225 255 125   51 51 51   51 51 51   51 51 51   51 51 51   51 51 51   24 12 17   24 12 17   24 12 17   51 51 51   34 5 19   94 16 54   140 24 81   178 31 103   213 37 123   244 42 141   255 49 158   255 85 202   255 56 185   255 59 195   19 3 11   20 8 11   20 8 11   20 8 11   20 8 11   20 8 11   20 8 11   51 51 51   51 51 51   51 51 51   51 51 51   51 51 51   51 51 51   
51 51 51   51 51 51   51 51 51   51 51 51   51 51 51   51 51 51   51 51 51   51 51 51   51 51 51   5 8 0   5 8 0   16 19 9   49 59 27   94 114 52   130 157 72   158 191 88   179 216 99   189 228 105   178 216 99   51 51 51   51 51 51   51 51 51   51 51 51   51 51 51   51 51 51   51 51 51   51 51 51   51 51 51   19 3 11   75 13 43   119 20 68   156 27 90   190 33 110   221 38 128   249 44 145   255 197 255   255 85 202   255 55 183   19 3 11   14 0 5   14 0 5   176 9 64   255 108 91   242 16 88   255 9 94   51 51 51   51 51 51   51 51 51   51 51 51   51 51 51   51 51 51   
51 51 51   51 51 51   51 51 51   51 51 51   51 51 51   51 51 51   51 51 51   51 51 51   5 8 0   5 8 0   5 8 0   16 19 9   16 19 9   38 47 21   76 92 42   104 126 58   124 150 69   131 159 73   108 131 60   51 51 51   51 51 51   51 51 51   51 51 51   51 51 51   51 51 51   51 51 51   51 51 51   19 3 11   19 3 11   51 9 29   94 16 54   131 23 76   165 28 95   195 34 113   223 39 129   249 44 145   255 49 158   255 51 168   255 53 176   67 2 24   109 3 40   146 5 54   217 72 75   255 89 88   234 8 86   51 51 51   51 51 51   51 51 51   51 51 51   51 51 51   51 51 51   
51 51 51   51 51 51   51 51 51   51 51 51   51 51 51   51 51 51   51 51 51   5 8 0   5 8 0   5 8 0   5 8 0   5 8 0   16 19 9   16 19 9   16 19 9   38 45 21   55 66 30   54 65 30   51 51 51   51 51 51   51 51 51   51 51 51   51 51 51   51 51 51   51 51 51   51 51 51   51 51 51   19 3 11   19 3 11   19 3 11   66 11 38   103 18 59   137 23 79   167 29 97   195 34 113   221 38 128   244 42 141   255 46 152   255 48 160   35 1 13   76 2 28   114 4 42   148 5 54   178 8 65   202 7 74   51 51 51   51 51 51   51 51 51   51 51 51   51 51 51   51 51 51   
51 51 51   51 51 51   51 51 51   51 51 51   51 51 51   51 51 51   51 51 51   5 8 0   5 8 0   5 8 0   5 8 0   5 8 0   5 8 0   16 19 9   16 19 9   16 19 9   16 19 9   51 51 51   51 51 51   51 51 51   51 51 51   51 51 51   51 51 51   51 51 51   51 51 51   237 93 255   51 51 51   19 3 11   19 3 11   19 3 11   34 6 19   72 12 41   106 18 61   137 23 79   165 28 95   190 33 110   213 37 123   231 40 134   244 42 141   14 0 5   40 1 14   78 2 28   111 3 41   141 5 52   164 5 60   51 51 51   51 51 51   51 51 51   51 51 51   51 51 51   51 51 51   
51 51 51   51 51 51   51 51 51   51 51 51   51 51 51   51 51 51   51 51 51   51 51 51   5 8 0   5 8 0   5 8 0   5 8 0   5 8 0   5 8 0   44 76 3   51 51 51   51 51 51   51 51 51   51 51 51   51 51 51   51 51 51   51 51 51   51 51 51   51 51 51   16 6 18   16 6 18   16 6 18   19 3 11   19 3 11   19 3 11   19 3 11   37 6 21   72 12 41   103 18 59   131 23 76   156 27 90   178 31 103   196 34 113   205 35 118   14 0 5   14 0 5   37 1 13   71 2 26   99 3 36   116 4 42   51 51 51   51 51 51   51 51 51   51 51 51   51 51 51   51 51 51   
51 51 51   51 51 51   51 51 51   51 51 51   51 51 51   51 51 51   51 51 51   51 51 51   5 8 0   5 8 0   5 8 0   5 8 0   5 8 0   26 46 2   51 51 51   51 51 51   51 51 51   51 51 51   51 51 51   51 51 51   51 51 51   51 51 51   51 51 51   51 51 51   51 51 51   16 6 18   51 51 51   51 51 51   19 3 11   19 3 11   19 3 11   19 3 11   34 6 19   66 11 38   94 16 54   119 20 68   140 24 81   155 27 89   154 27 89   14 0 5   14 0 5   14 0 5   23 0 8   46 1 17   51 51 51   51 51 51   51 51 51   51 51 51   51 51 51   51 51 51   51 51 51   
51 51 51   51 51 51   51 51 51   51 51 51   51 51 51   51 51 51   51 51 51   51 51 51   51 51 51   5 8 0   5 8 0   5 8 0   5 8 0   51 51 51   51 51 51   51 51 51   35 216 193   50 255 255   60 255 255   66 255 255   70 255 255   70 255 255   51 51 51   51 51 51   51 51 51   51 51 51   51 51 51   51 51 51   19 3 11   19 3 11   19 3 11   19 3 11   19 3 11   19 3 11   51 9 29   75 13 43   94 16 54   103 18 59   19 16 5   14 0 5   14 0 5   14 0 5   19 16 5   51 51 51   51 51 51   51 51 51   51 51 51   51 51 51   51 51 51   51 51 51   51 51 51   
51 51 51   51 51 51   51 51 51   51 51 51   51 51 51   51 51 51   51 51 51   51 51 51   51 51 51   51 51 51   51 51 51   51 51 51   51 51 51   51 51 51   51 51 51   23 144 129   40 249 223   51 255 255   60 255 255   67 255 255   71 255 255   4 24 22   4 24 22   37 77 23   61 126 38   76 158 47   86 179 53   89 184 55   51 51 51   19 3 11   19 3 11   19 3 11   19 3 11   19 3 11   19 3 11   19 3 11   34 5 19   19 16 5   19 16 5   207 171 55   254 210 68   255 244 79   255 255 88   255 255 94   51 51 51   51 51 51   51 51 51   51 51 51   51 51 51   51 51 51   51 51 51   
51 51 51   51 51 51   51 51 51   51 51 51   51 51 51   51 51 51   51 51 51   51 51 51   51 51 51   51 51 51   51 51 51   0 9 21   7 155 255   7 168 255   4 24 22   25 153 137   38 238 214   49 255 255   57 255 255   64 255 255   77 255 255   4 24 22   11 24 7   40 84 25   59 123 37   73 152 45   88 177 56   91 188 56   89 184 55   20 24 11   20 24 11   20 24 11   20 24 11   20 24 11   20 24 11   255 255 199   255 255 201   70 57 18   131 108 35   183 151 49   229 189 61   255 224 73   255 255 118   255 255 89   255 255 93   51 51 51   51 51 51   51 51 51   51 51 51   51 51 51   51 51 51   
51 51 51   51 51 51   51 51 51   51 51 51   51 51 51   51 51 51   51 51 51   51 51 51   51 51 51   51 51 51   0 9 21   5 119 255   6 148 255   24 168 255   4 24 22   21 131 118   34 211 189   44 255 244   52 255 255   58 255 255   65 255 255   4 24 22   10 21 6   34 72 21   52 108 32   66 137 41   138 198 104   88 177 56   86 179 53   20 24 11   20 24 11   163 199 89   216 255 118   255 255 145   255 255 186   255 255 189   255 255 189   41 34 11   101 83 27   152 126 40   199 164 53   240 198 64   255 230 79   255 253 82   255 255 87   51 51 51   51 51 51   51 51 51   51 51 51   51 51 51   51 51 51   
51 51 51   51 51 51   51 51 51   51 51 51   51 51 51   51 51 51   51 51 51   51 51 51   51 51 51   51 51 51   2 49 115   4 94 219   5 123 255   6 138 255   4 24 22   15 92 83   27 170 153   37 231 207   45 255 251   52 255 255   57 255 255   4 24 22   5 10 3   24 50 15   41 86 25   55 115 34   66 137 41   73 152 45   76 158 47   20 24 11   63 77 34   125 152 68   178 217 97   223 255 122   255 255 144   255 255 160   255 255 169   19 16 5   65 53 17   117 96 31   163 134 43   204 169 54   241 199 64   255 224 72   255 241 78   51 51 51   51 51 51   51 51 51   51 51 51   51 51 51   51 51 51   
51 51 51   51 51 51   51 51 51   51 51 51   51 51 51   51 51 51   51 51 51   51 51 51   51 51 51   51 51 51   0 9 21   2 55 128   3 84 195   4 99 229   4 24 22   6 38 34   19 118 106   29 180 161   37 230 206   43 255 241   48 255 255   4 24 22   5 10 3   9 20 6   27 57 17   41 86 25   52 108 32   59 123 37   61 126 38   20 24 11   20 24 11   79 97 43   133 162 72   178 217 97   216 255 118   245 255 134   255 255 142   19 16 5   19 16 5   76 63 20   122 101 32   164 135 43   200 165 53   230 190 61   248 205 66   51 51 51   51 51 51   51 51 51   51 51 51   51 51 51   51 51 51   
51 51 51   51 51 51   51 51 51   51 51 51   51 51 51   51 51 51   51 51 51   51 51 51   51 51 51   51 51 51   51 51 51   0 9 21   1 26 60   1 37 87   4 24 22   4 24 22   8 52 47   19 117 105   27 168 150   33 208 186   38 236 212   4 24 22   5 10 3   5 10 3   9 20 6   24 50 15   34 72 21   40 84 25   37 77 23   20 24 11   20 24 11   20 24 11   79 96 43   125 152 68   162 197 88   189 230 103   196 239 107   19 16 5   19 16 5   29 24 7   76 63 20   118 97 31   153 126 41   181 149 48   188 155 50   51 51 51   51 51 51   51 51 51   51 51 51   51 51 51   51 51 51   
51 51 51   51 51 51   51 51 51   51 51 51   51 51 51   51 51 51   51 51 51   51 51 51   51 51 51   51 51 51   51 51 51   51 51 51   51 51 51   51 51 51   51 51 51   4 24 22   4 24 22   6 38 34   14 91 82   21 131 117   25 158 141   4 24 22   4 24 22   5 10 3   5 10 3   5 10 3   10 21 6   11 24 7   51 51 51   20 24 11   20 24 11   20 24 11   20 24 11   59 72 32   95 115 52   114 139 62   51 51 51   19 16 5   19 16 5   19 16 5   19 16 5   63 52 16   96 80 25   117 96 31   51 51 51   51 51 51   51 51 51   51 51 51   51 51 51   51 51 51   51 51 51   
51 51 51   51 51 51   51 51 51   51 51 51   51 51 51   51 51 51   51 51 51   51 51 51   51 51 51   110 105 29   139 132 37   154 146 41   155 147 41   51 51 51   51 51 51   51 51 51   4 24 22   4 24 22   4 24 22   4 24 22   4 24 22   4 24 22   51 51 51   51 51 51   51 51 51   51 51 51   51 51 51   51 51 51   51 51 51   51 51 51   51 51 51   20 24 11   20 24 11   20 24 11   20 24 11   51 51 51   51 51 51   51 51 51   19 16 5   19 16 5   19 16 5   19 16 5   19 16 5   51 51 51   51 51 51   51 51 51   51 51 51   51 51 51   51 51 51   51 51 51   51 51 51   
51 51 51   51 51 51   51 51 51   51 51 51   51 51 51   51 51 51   51 51 51   51 51 51   9 8 2   128 122 34   151 143 40   165 156 43   171 162 45   164 155 43   51 51 51   51 51 51   51 51 51   51 51 51   51 51 51   51 51 51   51 51 51   51 51 51   51 51 51   51 51 51   81 26 72   105 34 93   114 38 101   51 51 51   51 51 51   51 51 51   51 51 51   51 51 51   51 51 51   51 51 51   51 51 51   51 51 51   51 51 51   9 9 19   9 9 19   9 9 19   9 9 19   51 51 51   51 51 51   51 51 51   51 51 51   51 51 51   51 51 51   51 51 51   51 51 51   51 51 51   51 51 51   
51 51 51   51 51 51   51 51 51   51 51 51   51 51 51   51 51 51   51 51 51   9 8 2   97 92 25   127 120 33   147 140 39   189 162 45   168 159 44   165 156 43   141 134 37   51 51 51   51 51 51   0 5 10   0 5 10   0 5 10   51 51 51   51 51 51   37 12 33   78 26 70   104 34 92   122 40 109   136 45 120   143 47 127   136 45 121   51 51 51   51 51 51   87 33 100   197 76 227   255 102 255   51 51 51   51 51 51   9 9 19   9 9 19   9 9 19   9 9 19   169 255 255   165 163 255   51 51 51   51 51 51   51 51 51   51 51 51   51 51 51   51 51 51   51 51 51   51 51 51   51 51 51   
51 51 51   51 51 51   51 51 51   51 51 51   51 51 51   51 51 51   51 51 51   46 43 12   88 83 23   116 110 30   136 129 36   149 141 39   155 147 41   153 145 40   133 126 35   51 51 51   0 5 10   0 5 10   0 5 10   0 5 10   51 51 51   8 2 7   55 18 48   84 28 75   107 35 95   124 41 111   140 46 128   148 49 133   150 49 133   134 44 119   51 51 51   54 21 63   158 61 183   227 88 255   248 96 255   51 51 51   9 9 19   9 9 19   57 57 123   95 94 202   124 123 255   142 141 255   51 51 51   51 51 51   51 51 51   51 51 51   51 51 51   51 51 51   51 51 51   51 51 51   51 51 51   
51 51 51   51 51 51   51 51 51   51 51 51   51 51 51   51 51 51   51 51 51   27 26 7   70 66 18   97 92 25   117 111 31   129 123 34   135 128 35   131 125 35   9 8 2   51 51 51   0 5 10   0 5 10   0 5 10   0 5 10   51 51 51   17 5 15   55 18 49   82 27 73   103 34 92   121 40 110   163 58 215   175 62 230   149 49 134   145 48 129   51 51 51   15 5 17   87 33 100   155 60 179   160 62 185   51 51 51   9 9 19   9 9 19   24 24 51   62 61 132   91 90 194   106 105 226   51 51 51   51 51 51   51 51 51   51 51 51   51 51 51   51 51 51   51 51 51   51 51 51   51 51 51   
51 51 51   51 51 51   51 51 51   51 51 51   51 51 51   51 51 51   51 51 51   9 8 2   41 39 11   71 67 18   90 85 24   102 97 27   106 101 28   99 94 26   9 8 2   51 51 51   51 51 51   0 5 10   0 5 10   51 51 51   51 51 51   14 4 12   49 16 43   75 24 66   96 31 85   113 37 101   144 50 171   168 60 227   143 47 130   141 46 125   51 51 51   51 51 51   15 5 17   15 5 17   51 51 51   51 51 51   51 51 51   9 9 19   9 9 19   17 17 37   43 43 92   51 51 51   51 51 51   51 51 51   51 51 51   51 51 51   51 51 51   51 51 51   51 51 51   51 51 51   51 51 51   
51 51 51   51 51 51   51 51 51   51 51 51   51 51 51   51 51 51   51 51 51   51 51 51   9 8 2   32 31 8   53 50 14   64 61 17   65 61 17   44 41 11   51 51 51   51 51 51   51 51 51   51 51 51   51 51 51   51 51 51   51 51 51   8 2 7   38 12 34   64 21 57   85 28 75   102 33 90   116 38 104   127 42 117   131 43 117   130 43 115   51 51 51   51 51 51   51 51 51   51 51 51   51 51 51   51 51 51   51 51 51   51 51 51   51 51 51   51 51 51   51 51 51   51 51 51   51 51 51   51 51 51   51 51 51   51 51 51   51 51 51   51 51 51   51 51 51   51 51 51   51 51 51   
51 51 51   51 51 51   51 51 51   51 51 51   51 51 51   51 51 51   51 51 51   51 51 51   51 51 51   9 8 2   9 8 2   9 8 2   51 51 51   51 51 51   51 51 51   51 51 51   51 51 51   51 51 51   51 51 51   51 51 51   51 51 51   8 2 7   24 7 21   50 16 44   71 23 63   88 29 78   101 33 90   111 36 98   116 38 103   113 37 101   51 51 51   51 51 51   51 51 51   51 51 51   51 51 51   51 51 51   51 51 51   51 51 51   51 51 51   51 51 51   51 51 51   51 51 51   51 51 51   51 51 51   51 51 51   51 51 51   51 51 51   51 51 51   51 51 51   51 51 51   51 51 51   
51 51 51   51 51 51   51 51 51   51 51 51   51 51 51   51 51 51   51 51 51   51 51 51   51 51 51   51 51 51   51 51 51   51 51 51   51 51 51   51 51 51   51 51 51   51 51 51   51 51 51   51 51 51   51 51 51   51 51 51   51 51 51   8 2 7   8 2 7   31 10 28   53 17 47   70 23 62   83 27 74   92 30 82   96 32 85   89 29 79   51 51 51   27 16 49   62 38 115   83 50 152   98 59 179   108 66 199   113 68 208   51 51 51   51 51 51   51 51 51   51 51 51   51 51 51   51 51 51   129 184 184   167 238 237   193 255 255   51 51 51   51 51 51   51 51 51   51 51 51   51 51 51   
51 51 51   51 51 51   51 51 51   51 51 51   51 51 51   51 51 51   51 51 51   51 51 51   51 51 51   51 51 51   255 150 255   255 189 255   255 137 255   51 51 51   51 51 51   51 51 51   51 51 51   51 51 51   51 51 51   51 51 51   51 51 51   51 51 51   8 2 7   8 2 7   30 10 26   47 15 42   60 20 54   68 22 61   68 22 61   51 51 51   23 14 42   53 32 98   75 45 137   92 55 169   106 64 195   118 71 216   127 77 233   132 80 242   125 76 230   51 51 51   51 51 51   80 114 113   124 177 176   160 228 227   191 255 255   218 255 255   242 255 255   255 255 255   255 255 255   51 51 51   51 51 51   
51 51 51   51 51 51   51 51 51   51 51 51   51 51 51   51 51 51   51 51 51   51 51 51   51 51 51   180 88 198   255 167 255   255 255 255   255 189 255   51 51 51   51 51 51   51 51 51   51 51 51   51 51 51   51 51 51   51 51 51   51 51 51   51 51 51   51 51 51   8 2 7   8 2 7   16 5 14   28 9 25   31 10 28   51 51 51   7 4 14   35 21 64   59 35 108   78 47 143   94 57 173   108 65 199   120 73 221   130 79 238   137 83 252   140 85 255   17 25 25   47 67 67   94 134 133   132 188 188   166 236 235   195 255 255   222 255 255   246 255 255   255 255 255   255 255 255   255 255 255   255 255 255   
51 51 51   51 51 51   51 51 51   51 51 51   51 51 51   51 51 51   51 51 51   51 51 51   51 51 51   133 65 146   255 138 255   255 167 255   255 150 255   51 51 51   51 51 51   51 51 51   22 1 18   22 1 18   22 1 18   51 51 51   51 51 51   51 51 51   51 51 51   51 51 51   51 51 51   51 51 51   51 51 51   51 51 51   51 51 51   7 4 14   37 22 69   59 36 109   78 47 143   94 57 172   107 65 197   120 73 219   139 83 240   140 84 253   143 86 255   17 25 25   54 77 76   96 136 136   132 188 187   164 234 233   193 255 255   220 255 255   244 255 255   255 255 255   255 255 255   255 255 255   255 255 255   
51 51 51   51 51 51   51 51 51   51 51 51   51 51 51   51 51 51   51 51 51   51 51 51   51 51 51   22 11 25   133 65 146   180 88 198   51 51 51   51 51 51   51 51 51   22 1 18   22 1 18   22 1 18   22 1 18   51 51 51   51 51 51   51 51 51   51 51 51   51 51 51   51 51 51   51 51 51   51 51 51   51 51 51   7 4 14   10 6 18   36 22 67   57 35 105   75 45 138   91 55 167   104 63 192   123 74 216   235 133 255   227 130 255   143 86 255   17 25 25   52 75 74   92 132 131   127 182 181   159 226 226   188 255 255   214 255 255   240 255 255   255 255 255   255 255 255   255 255 255   255 255 255   
51 51 51   51 51 51   51 51 51   51 51 51   51 51 51   51 51 51   51 51 51   51 51 51   51 51 51   51 51 51   51 51 51   51 51 51   51 51 51   51 51 51   51 51 51   22 1 18   22 1 18   22 1 18   22 1 18   51 51 51   51 51 51   51 51 51   51 51 51   51 51 51   51 51 51   51 51 51   51 51 51   51 51 51   7 4 14   7 4 14   32 19 60   53 32 98   71 43 130   86 52 159   100 60 183   116 70 206   226 128 255   255 170 255   7 4 14   17 25 25   47 67 66   85 122 121   120 171 170   151 215 214   180 255 255   206 255 255   234 255 255   255 255 255   255 255 255   255 255 255   255 255 255   
51 51 51   51 51 51   51 51 51   51 51 51   51 51 51   51 51 51   51 51 51   51 51 51   51 51 51   51 51 51   51 51 51   51 51 51   51 51 51   51 51 51   51 51 51   51 51 51   22 1 18   22 1 18   22 1 18   51 51 51   51 51 51   51 51 51   51 51 51   51 51 51   132 26 65   186 37 93   210 41 105   51 51 51   7 4 14   7 4 14   27 16 49   47 28 87   65 39 119   80 49 148   94 57 173   106 64 194   129 77 218   160 94 241   17 25 25   17 25 25   38 54 54   76 108 108   110 157 156   141 201 201   170 242 241   196 255 255   223 255 255   255 255 255   255 255 255   255 255 255   255 255 255   
51 51 51   51 51 51   51 51 51   51 51 51   51 51 51   51 51 51   51 51 51   51 51 51   51 51 51   51 51 51   51 51 51   51 51 51   51 51 51   51 51 51   51 51 51   51 51 51   51 51 51   51 51 51   51 51 51   51 51 51   51 51 51   51 51 51   51 51 51   113 22 56   180 36 90   230 47 116   255 58 135   255 53 133   7 4 14   7 4 14   19 11 35   40 24 73   58 35 106   73 44 134   87 52 159   99 60 181   109 66 200   119 72 217   17 25 25   17 25 25   26 37 37   64 92 92   99 141 140   130 185 184   158 226 225   185 255 255   210 255 255   245 255 255   255 255 255   255 255 255   255 255 255   
51 51 51   51 51 51   51 51 51   51 51 51   51 51 51   51 51 51   51 51 51   51 51 51   51 51 51   51 51 51   51 51 51   51 51 51   51 51 51   51 51 51   51 51 51   51 51 51   51 51 51   51 51 51   51 51 51   51 51 51   51 51 51   51 51 51   47 9 23   134 26 67   195 40 98   255 77 150   255 123 206   255 93 179   255 55 138   7 4 14   7 4 14   31 18 56   49 29 90   64 39 118   78 47 144   90 54 166   101 61 185   109 66 201   17 25 25   17 25 25   17 25 25   51 73 72   85 122 121   117 166 165   145 207 206   172 245 244   196 255 255   222 255 255   255 255 255   255 255 255   255 255 255   
51 51 51   51 51 51   51 51 51   51 51 51   51 51 51   51 51 51   51 51 51   51 51 51   51 51 51   51 51 51   51 51 51   51 51 51   51 51 51   51 51 51   51 51 51   51 51 51   51 51 51   51 51 51   51 51 51   51 51 51   51 51 51   51 51 51   57 11 28   135 27 67   196 42 100   255 99 172   255 177 255   255 146 234   255 62 147   7 4 14   7 4 14   19 11 36   38 23 70   54 33 100   68 41 125   80 48 147   91 55 167   7 4 14   17 25 25   17 25 25   17 25 25   35 50 50   70 100 100   102 145 144   131 186 186   157 224 223   182 255 255   205 255 255   229 255 255   255 255 255   255 255 255   
51 51 51   51 51 51   51 51 51   51 51 51   51 51 51   51 51 51   51 51 51   51 51 51   51 51 51   51 51 51   51 51 51   51 51 51   51 51 51   51 51 51   51 51 51   51 51 51   51 51 51   51 51 51   51 51 51   51 51 51   51 51 51   15 3 7   48 9 24   124 24 62   182 37 91   255 79 147   255 143 222   255 127 211   255 60 142   200 39 100   7 4 14   7 4 14   25 15 46   42 25 77   56 34 103   68 41 126   79 48 145   7 4 14   17 25 25   17 25 25   17 25 25   17 25 25   53 76 75   85 121 121   115 163 163   142 202 201   167 238 236   190 255 255   211 255 255   232 255 255   250 255 255   
51 51 51   51 51 51   51 51 51   51 51 51   51 51 51   51 51 51   51 51 51   51 51 51   51 51 51   51 51 51   51 51 51   51 51 51   51 51 51   51 51 51   51 51 51   51 51 51   51 51 51   51 51 51   51 51 51   51 51 51   51 51 51   51 51 51   24 4 12   102 20 51   158 31 78   208 47 108   255 74 144   255 70 145   247 49 123   51 51 51   7 4 14   7 4 14   7 4 14   27 16 50   42 25 77   54 33 100   65 39 119   7 4 14   17 25 25   17 25 25   17 25 25   17 25 25   34 48 48   67 95 95   97 138 137   124 177 176   150 213 212   173 246 245   195 255 255   214 255 255   232 255 255   
51 51 51   51 51 51   51 51 51   51 51 51   51 51 51   51 51 51   51 51 51   51 51 51   51 51 51   51 51 51   51 51 51   51 51 51   51 51 51   51 51 51   51 51 51   51 51 51   51 51 51   51 51 51   51 51 51   51 51 51   51 51 51   51 51 51   15 3 7   67 13 33   125 25 62   168 33 83   199 40 100   213 43 106   203 40 101   51 51 51   51 51 51   7 4 14   7 4 14   7 4 14   23 14 43   36 22 67   7 4 14   7 4 14   7 4 14   17 25 25   17 25 25   17 25 25   17 25 25   46 66 65   77 109 109   105 150 149   131 186 185   154 220 219   176 251 250   196 255 255   214 255 255   
51 51 51   51 51 51   51 51 51   51 51 51   51 51 51   51 51 51   51 51 51   51 51 51   51 51 51   51 51 51   51 51 51   51 51 51   51 51 51   51 51 51   51 51 51   51 51 51   51 51 51   51 51 51   51 51 51   51 51 51   51 51 51   51 51 51   51 51 51   15 3 7   78 15 38   122 24 61   150 30 75   159 31 79   51 51 51   51 51 51   51 51 51   51 51 51   51 51 51   7 4 14   7 4 14   7 4 14   7 4 14   51 51 51   51 51 51   17 25 25   17 25 25   17 25 25   17 25 25   17 25 25   54 77 77   83 119 118   110 156 156   134 190 190   156 222 221   175 250 249   193 255 255   
