P3
51 51
255
51 51 51   51 51 51   51 51 51   51 51 51   51 51 51   51 51 51   51 51 51   51 51 51   51 51 51   129 37 148   186 54 215   230 67 255   255 78 255   255 87 255   255 98 255   255 102 255   65 70 92   81 88 115   101 102 144   109 114 155   111 120 157   51 51 51   51 51 51   51 51 51   51 51 51   51 51 51   51 51 51   51 51 51   51 51 51   51 51 51   51 51 51   51 51 51   51 51 51   51 51 51   51 51 51   51 51 51   51 51 51   51 51 51   51 51 51   51 51 51   51 51 51   8 6 13   8 6 13   8 6 13   8 6 13   8 6 13   21 16 34   32 24 50   42 31 66   53 39 82   63 46 98   
255 255 81   255 255 87   51 51 51   51 51 51   51 51 51   51 51 51   51 51 51   51 51 51   20 5 23   102 29 117   155 45 178   197 57 228   234 68 255   255 77 255   255 125 255   34 37 48   52 57 75   68 74 97   110 90 157   251 109 255   107 110 152   102 111 145   51 51 51   51 51 51   51 51 51   51 51 51   51 51 51   51 51 51   51 51 51   51 51 51   51 51 51   51 51 51   51 51 51   51 51 51   51 51 51   51 51 51   51 51 51   51 51 51   51 51 51   51 51 51   51 51 51   8 6 13   8 6 13   8 6 13   8 6 13   8 6 13   8 6 13   21 16 34   32 24 50   42 31 66   53 39 82   
255 255 86   255 255 92   255 255 96   255 255 98   255 255 91   51 51 51   51 51 51   51 51 51   20 5 23   64 18 74   116 34 134   159 46 183   196 57 226   228 66 255   255 75 255   19 21 27   38 41 54   53 58 76   67 72 96   101 86 143   95 95 135   92 100 130   51 51 51   51 51 51   51 51 51   51 51 51   51 51 51   51 51 51   51 51 51   51 51 51   51 51 51   51 51 51   51 51 51   51 51 51   51 51 51   51 51 51   51 51 51   51 51 51   51 51 51   51 51 51   8 6 13   8 6 13   8 6 13   8 6 13   8 6 13   8 6 13   8 6 13   8 6 13   22 16 34   32 24 50   42 31 66   
255 255 81   255 255 88   255 255 93   255 255 96   255 255 97   255 255 93   51 51 51   51 51 51   20 5 23   20 5 23   73 21 84   116 34 134   153 44 177   186 54 214   215 62 248   239 70 255   21 22 29   36 40 52   50 54 71   61 67 87   71 77 100   76 83 108   51 51 51   51 51 51   51 51 51   51 51 51   51 51 51   51 51 51   51 51 51   51 51 51   51 51 51   51 51 51   51 51 51   225 105 138   255 125 165   182 22 255   202 25 255   219 27 255   51 51 51   51 51 51   8 6 13   8 6 13   8 6 13   8 6 13   8 6 13   8 6 13   8 6 13   8 6 13   8 6 13   21 16 34   32 24 50   
255 255 74   255 255 81   255 255 115   255 255 101   255 255 92   255 255 92   255 255 83   255 255 52   20 5 23   20 5 23   20 5 23   68 19 78   106 31 122   139 40 161   168 49 194   193 56 223   6 6 8   17 19 25   31 34 44   43 46 61   52 56 74   57 62 81   51 51 51   51 51 51   51 51 51   132 214 220   157 255 255   178 255 255   195 255 255   209 255 255   217 255 255   99 46 61   101 12 144   133 16 189   156 19 221   176 21 249   194 24 255   13 1 19   13 1 19   13 1 19   8 6 13   8 6 13   8 6 13   8 6 13   8 6 13   8 6 13   8 6 13   8 6 13   8 6 13   8 6 13   21 16 34   
255 255 65   255 255 72   255 255 77   255 255 86   255 255 84   255 255 85   255 255 82   255 255 49   255 255 54   20 5 23   20 5 23   20 5 23   54 15 62   88 25 102   117 34 136   142 41 164   6 6 8   6 6 8   10 11 14   22 24 31   30 33 43   33 36 47   51 51 51   57 92 95   101 165 169   127 206 212   149 242 248   168 255 255   186 255 255   201 255 255   214 255 255   223 255 255   100 12 141   123 15 175   144 18 205   164 20 232   13 1 19   13 1 19   13 1 19   13 1 19   8 6 13   8 6 13   8 6 13   8 6 13   8 6 13   8 6 13   8 6 13   8 6 13   8 6 13   8 6 13   8 6 13   
214 225 55   241 253 61   255 255 67   255 255 72   255 255 75   255 255 76   255 255 75   245 255 63   255 255 50   20 5 23   20 5 23   20 5 23   20 5 23   30 9 35   60 17 70   85 24 98   6 6 8   6 6 8   6 6 8   6 6 8   6 6 8   51 51 51   80 255 55   101 255 69   110 255 75   116 188 193   137 221 227   155 252 255   172 255 255   191 255 255   202 255 255   214 255 255   88 11 125   110 13 156   131 16 185   150 18 212   13 1 19   13 1 19   13 1 19   13 1 19   13 1 19   8 6 13   8 6 13   8 6 13   8 6 13   8 6 13   8 6 13   8 6 13   8 6 13   8 6 13   8 6 13   
168 177 43   195 205 50   217 229 56   235 248 60   248 255 63   255 255 65   250 255 64   218 230 56   255 255 43   255 255 48   20 5 23   20 5 23   20 5 23   20 5 23   20 5 23   20 5 23   20 5 23   6 6 8   6 6 8   6 6 8   51 51 51   42 160 29   69 255 47   89 255 61   105 255 71   101 164 168   122 197 202   140 227 233   157 255 255   235 255 255   255 255 255   200 255 255   209 255 255   96 11 136   116 14 164   135 16 191   13 1 19   13 1 19   13 1 19   13 1 19   13 1 19   8 6 13   8 6 13   8 6 13   8 6 13   8 6 13   8 6 13   8 6 13   8 6 13   8 6 13   8 6 13   
115 121 29   143 151 37   167 175 42   185 195 47   198 208 50   204 215 52   199 210 51   166 175 42   225 228 36   255 255 40   255 255 44   20 5 23   20 5 23   20 5 23   20 5 23   20 5 23   20 5 23   51 51 51   51 51 51   51 51 51   6 23 4   24 92 16   50 187 34   70 255 48   86 255 58   85 137 141   105 170 175   124 200 206   141 228 234   157 254 255   179 255 255   183 255 255   193 255 255   80 10 113   100 12 142   13 1 19   13 1 19   13 1 19   13 1 19   13 1 19   13 1 19   13 1 19   8 6 13   8 6 13   8 6 13   8 6 13   8 6 13   8 6 13   8 6 13   8 6 13   8 6 13   
55 58 14   85 89 21   109 115 28   127 134 32   140 147 36   145 153 37   138 145 35   85 90 22   21 21 3   21 21 3   21 21 3   242 244 38   248 251 39   232 234 37   51 51 51   51 51 51   51 51 51   51 51 51   244 142 52   255 191 70   6 23 4   6 23 4   26 98 18   46 175 32   62 235 42   76 230 114   87 255 130   96 255 144   104 255 156   112 255 168   119 255 178   124 255 186   176 255 255   63 7 90   83 10 118   13 1 19   13 1 19   13 1 19   13 1 19   13 1 19   13 1 19   13 1 19   13 1 19   8 6 13   8 6 13   8 6 13   8 6 13   8 6 13   8 6 13   8 6 13   8 6 13   
21 22 5   21 22 5   42 44 10   61 64 15   72 76 18   74 78 19   58 62 15   21 21 3   21 21 3   21 21 3   21 21 3   182 184 29   186 188 30   164 165 26   51 51 51   51 51 51   51 51 51   185 108 39   255 154 56   255 188 69   255 215 79   6 23 4   6 23 4   18 69 12   59 180 89   71 214 106   81 245 121   90 255 135   98 255 147   106 255 159   113 255 169   119 255 178   124 255 185   45 5 64   65 8 93   13 1 19   13 1 19   13 1 19   13 1 19   18 9 19   18 9 19   18 9 19   253 125 255   255 136 255   18 9 19   18 9 19   8 6 13   8 6 13   8 6 13   190 255 161   51 51 51   
21 22 5   21 22 5   21 22 5   21 22 5   21 22 5   21 22 5   21 21 3   21 21 3   21 21 3   21 21 3   21 21 3   111 112 17   110 111 17   51 51 51   51 51 51   255 33 2   72 42 15   174 101 37   241 141 51   24 14 5   24 14 5   6 23 4   6 21 10   40 123 60   53 160 79   64 194 96   74 224 111   83 251 124   91 255 137   102 255 151   154 255 199   113 255 168   117 255 176   121 255 180   13 1 19   13 1 19   201 162 127   255 244 191   139 69 143   169 84 174   195 97 201   219 109 226   242 120 249   255 130 255   255 140 255   255 150 255   255 158 255   255 166 255   215 255 171   167 255 143   51 51 51   
51 51 51   21 22 5   21 22 5   21 22 5   21 22 5   51 51 51   21 21 3   21 21 3   21 21 3   21 21 3   21 21 3   21 21 3   21 21 3   16 108 139   22 143 185   247 23 1   56 32 12   141 82 30   24 14 5   24 14 5   0 9 13   6 21 10   19 57 28   33 101 50   45 138 68   56 171 84   66 201 99   75 228 113   84 253 125   91 255 137   101 255 149   105 255 157   110 255 165   114 255 170   13 1 19   23 19 15   138 111 87   98 49 102   130 64 134   157 78 162   182 90 188   206 102 212   228 113 235   249 124 255   255 138 255   255 149 255   255 154 255   255 160 255   255 168 255   129 255 114   51 51 51   
51 51 51   51 51 51   51 51 51   51 51 51   51 51 51   51 51 51   51 51 51   21 21 3   21 21 3   21 21 3   21 21 3   14 6 5   16 14 0   16 14 0   16 14 0   16 14 0   255 254 7   16 14 0   16 14 0   0 9 13   0 9 13   6 21 10   11 33 16   25 76 37   37 113 56   48 146 72   58 175 87   67 203 100   75 228 113   83 251 124   90 255 135   96 255 144   102 255 152   106 255 158   13 1 19   23 19 15   53 26 55   87 43 90   117 58 120   143 71 148   167 83 173   190 94 196   212 105 219   235 120 246   255 153 255   255 197 255   255 190 255   255 160 255   255 160 255   255 167 255   51 51 51   
51 51 51   51 51 51   51 51 51   51 51 51   51 51 51   51 51 51   51 51 51   51 51 51   14 6 5   14 6 5   16 14 0   165 149 4   199 180 5   225 205 5   247 224 6   255 241 6   255 254 7   16 14 0   16 14 0   16 14 0   6 21 10   6 21 10   6 21 10   15 48 23   28 85 42   39 118 58   49 148 73   58 175 87   66 201 99   74 224 111   81 245 121   87 255 131   92 255 138   96 255 144   6 21 10   18 9 19   41 20 42   73 36 75   101 50 104   127 63 131   151 75 156   174 86 180   196 97 202   218 111 228   252 149 255   255 233 255   255 255 255   255 191 255   255 155 255   255 160 255   51 51 51   
51 51 51   51 51 51   51 51 51   51 51 51   51 51 51   51 51 51   51 51 51   14 6 5   14 6 5   16 14 0   125 113 3   163 148 4   193 176 5   218 198 5   239 217 6   255 233 6   255 247 7   255 255 7   16 14 0   16 14 0   16 14 0   6 21 10   6 21 10   6 21 10   18 54 27   29 88 43   39 118 58   48 146 72   56 171 85   64 194 96   71 215 106   77 234 116   82 249 123   6 21 10   18 9 19   18 9 19   26 12 26   57 28 58   84 42 87   110 54 114   134 66 138   157 78 162   178 88 184   199 100 207   225 121 242   255 176 255   255 230 255   255 197 255   255 151 255   255 151 255   255 157 255   
51 51 51   51 51 51   51 51 51   51 51 51   51 51 51   0 0 18   0 0 18   0 0 18   0 0 18   70 63 1   119 108 3   154 140 4   182 165 4   206 187 5   226 205 5   244 222 6   255 245 24   255 255 105   255 255 7   16 14 0   16 14 0   6 21 10   6 21 10   6 21 10   6 21 10   18 55 27   28 86 42   37 113 56   46 139 69   53 162 80   60 183 90   66 201 99   71 216 107   6 21 10   18 9 19   18 9 19   18 9 19   39 19 40   66 33 69   92 45 95   116 57 120   139 69 143   160 79 165   181 90 187   201 101 209   225 121 242   252 148 255   255 152 255   255 140 255   255 142 255   255 149 255   
51 51 51   51 51 51   51 51 51   51 51 51   0 0 18   0 0 18   0 0 18   0 0 18   0 0 18   62 56 1   106 96 2   139 126 3   166 151 4   190 172 4   210 191 5   228 207 5   245 222 8   255 255 69   255 241 8   16 14 0   16 14 0   6 21 10   6 21 10   6 21 10   6 21 10   100 167 185   125 206 230   143 238 255   159 255 255   171 255 255   179 255 255   174 255 255   59 178 88   6 21 10   18 9 19   18 9 19   18 9 19   18 9 19   47 23 49   73 36 75   97 48 100   120 59 124   141 70 146   162 80 167   182 90 188   201 100 209   221 112 231   238 121 249   253 126 255   255 133 255   255 139 255   
51 51 51   51 51 51   51 51 51   51 51 51   1 0 110   2 1 186   3 1 237   5 3 255   16 14 0   45 41 1   88 80 2   120 109 3   147 134 3   171 155 4   191 173 4   208 189 5   223 203 5   236 214 6   246 223 6   16 14 0   16 14 0   16 14 0   6 21 10   37 62 69   78 129 144   103 171 191   124 205 228   141 234 255   156 255 255   169 255 255   179 255 255   186 255 255   185 255 255   18 9 19   18 9 19   18 9 19   18 9 19   18 9 19   27 13 28   53 26 55   77 38 80   100 49 103   122 60 126   142 70 147   162 80 168   181 90 187   199 99 206   217 108 224   233 116 241   248 123 255   255 129 255   
51 51 51   51 51 51   51 51 51   51 51 51   1 0 70   2 0 143   2 1 194   3 1 231   16 14 0   23 21 0   65 59 1   98 89 2   125 114 3   149 135 3   169 153 4   187 169 4   202 183 5   214 194 5   224 203 5   230 209 6   16 14 0   16 14 0   6 21 10   46 77 86   76 125 140   98 163 182   118 195 217   134 223 248   149 247 255   162 255 255   173 255 255   182 255 255   186 255 255   174 255 255   18 9 19   18 9 19   18 9 19   18 9 19   18 9 19   31 15 33   56 28 58   79 39 82   101 50 104   122 60 126   142 70 146   161 80 166   179 89 185   196 97 203   212 105 219   227 112 234   238 118 245   
51 51 51   51 51 51   51 51 51   51 51 51   0 0 18   1 0 84   1 0 137   2 1 175   16 14 0   16 14 0   38 35 1   72 65 1   100 91 2   224 255 30   252 255 34   162 147 4   177 161 4   189 172 4   198 180 5   204 185 5   16 14 0   16 14 0   10 17 18   42 70 77   68 113 126   90 149 166   109 180 201   125 208 231   140 232 255   154 255 255   170 255 255   173 255 255   179 255 255   179 255 255   18 9 19   18 9 19   18 9 19   18 9 19   18 9 19   18 9 19   34 16 35   57 28 59   79 39 82   100 50 103   120 59 124   139 69 144   157 78 162   174 86 180   190 94 196   204 101 210   211 105 218   
51 51 51   51 51 51   51 51 51   51 51 51   0 0 18   0 0 18   0 0 63   0 0 18   0 0 18   16 14 0   103 94 43   130 118 54   147 133 61   158 144 66   166 151 69   170 155 71   165 150 69   255 255 45   255 255 39   174 158 4   16 14 0   16 14 0   10 17 18   33 54 60   58 96 107   79 132 146   98 162 180   114 189 211   129 213 237   142 236 255   154 255 255   162 255 255   169 255 255   171 255 255   18 9 19   18 9 19   18 9 19   18 9 19   18 9 19   18 9 19   18 9 19   34 16 35   56 28 58   77 38 80   97 48 100   116 57 120   134 66 139   151 75 156   166 82 171   178 88 184   51 51 51   
51 51 51   51 51 51   51 51 51   51 51 51   51 51 51   0 0 18   0 0 18   0 0 18   0 0 18   99 90 41   124 113 51   141 129 59   155 141 64   166 151 69   174 159 72   180 164 75   182 166 76   179 163 74   255 255 36   255 255 35   16 14 0   16 14 0   10 17 18   20 34 38   45 75 84   66 110 123   85 141 157   101 168 187   116 192 214   129 213 237   140 232 255   149 247 255   156 255 255   159 255 255   18 9 19   18 9 19   18 9 19   18 9 19   18 9 19   18 9 19   18 9 19   18 9 19   31 15 32   52 26 54   73 36 75   92 45 94   109 54 113   125 62 129   139 69 143   146 72 151   51 51 51   
51 51 51   51 51 51   51 51 51   51 51 51   51 51 51   9 13 23   9 13 23   252 1 174   82 74 34   108 98 45   128 116 53   143 130 59   156 142 65   166 151 69   175 159 72   181 165 75   185 168 77   185 168 77   179 163 74   238 255 32   16 20 2   14 23 7   10 17 18   10 17 18   30 51 56   52 86 96   70 117 130   87 144 160   101 168 187   114 189 211   125 208 231   134 223 248   141 234 255   143 238 255   22 24 1   18 9 19   18 9 19   18 9 19   18 9 19   18 9 19   18 9 19   18 9 19   18 9 19   25 12 26   46 22 47   64 32 66   81 40 84   96 47 99   106 52 109   51 51 51   51 51 51   
51 51 51   51 51 51   51 51 51   51 51 51   9 13 23   102 139 251   212 1 147   53 49 22   86 78 36   109 99 45   126 115 52   141 128 58   153 139 63   163 148 68   171 157 73   178 165 82   182 166 76   184 167 76   181 165 75   10 9 4   16 20 2   14 23 7   10 17 18   10 17 18   13 22 24   35 58 64   54 89 99   70 117 130   85 141 157   98 162 180   109 180 201   118 195 217   124 205 228   125 206 230   22 24 1   22 24 1   18 9 19   18 9 19   18 9 19   18 9 19   18 9 19   18 9 19   18 9 19   18 9 19   18 9 19   33 16 34   48 24 50   58 29 60   51 51 51   51 51 51   51 51 51   
51 51 51   51 51 51   51 51 51   51 51 51   66 91 164   132 0 91   10 9 4   57 51 23   84 77 35   105 95 43   121 110 50   135 123 56   147 134 61   157 143 65   166 161 97   178 236 255   177 168 93   178 162 74   177 161 74   10 9 4   10 9 4   23 13 5   10 17 18   10 17 18   10 17 18   15 26 29   35 58 64   52 86 96   66 110 123   79 132 146   90 149 166   98 163 182   103 171 191   100 167 185   15 21 1   10 12 6   10 12 6   10 12 6   10 12 6   10 12 6   18 9 19   18 9 19   18 9 19   18 9 19   18 9 19   18 9 19   18 9 19   51 51 51   51 51 51   51 51 51   51 51 51   
51 51 51   51 51 51   51 51 51   9 13 23   61 84 152   131 0 91   12 11 5   53 48 22   78 71 32   98 89 40   114 104 47   128 116 53   139 127 58   149 136 62   157 144 68   165 162 104   168 156 77   171 155 71   170 155 70   10 9 4   10 9 4   23 13 5   6 7 6   10 17 18   10 17 18   10 17 18   13 22 24   30 51 56   45 75 84   58 96 107   68 113 126   76 125 140   78 129 144   15 21 1   10 12 6   34 43 22   81 101 53   118 147 77   149 185 99   172 214 112   10 12 6   18 9 19   18 9 19   18 9 19   51 51 51   51 51 51   51 51 51   51 51 51   51 51 51   51 51 51   51 51 51   
51 51 51   51 51 51   51 51 51   9 13 23   22 0 15   22 0 15   10 9 4   45 41 18   69 63 29   89 81 37   105 95 43   118 107 49   129 118 54   139 127 58   147 134 61   154 140 64   158 144 66   161 146 67   160 145 66   154 140 64   10 9 4   23 13 5   6 7 6   10 17 18   10 17 18   10 17 18   10 17 18   10 17 18   20 34 38   33 54 60   42 70 77   46 77 86   37 62 69   249 255 30   10 12 6   15 18 9   60 74 39   96 120 63   127 158 83   151 188 99   165 206 108   1 2 20   1 2 20   51 51 51   51 51 51   51 51 51   51 51 51   51 51 51   51 51 51   51 51 51   51 51 51   
51 51 51   51 51 51   51 51 51   9 13 23   22 0 15   22 0 15   10 9 4   33 30 13   58 52 24   77 70 32   93 85 38   106 97 44   118 107 49   128 116 53   135 123 56   142 129 59   146 133 61   148 135 61   147 134 61   141 129 59   10 9 4   23 13 5   6 7 6   6 7 6   6 7 6   10 17 18   10 17 18   10 17 18   10 17 18   10 17 18   10 17 18   96 98 88   223 255 27   242 255 30   10 12 6   10 12 6   32 40 21   69 86 45   99 124 65   124 154 81   137 171 90   1 2 20   12 30 225   255 134 225   255 140 235   51 51 51   51 51 51   51 51 51   51 51 51   51 51 51   51 51 51   
51 51 51   51 51 51   51 51 51   51 51 51   9 13 23   22 0 15   10 9 4   17 16 7   43 39 18   63 57 26   79 72 33   93 84 38   104 95 43   114 104 47   122 111 50   128 116 53   132 120 55   134 122 55   132 120 55   125 113 52   10 9 4   2 6 13   6 7 6   6 7 6   6 7 6   6 7 6   6 7 6   6 7 6   6 7 6   6 7 6   80 81 73   193 255 23   213 255 26   233 255 33   15 21 1   10 12 6   10 12 6   34 43 22   65 81 43   88 110 58   95 118 62   1 2 20   255 105 177   255 154 253   255 139 234   51 51 51   51 51 51   51 51 51   51 51 51   51 51 51   51 51 51   
51 51 51   51 51 51   51 51 51   51 51 51   51 51 51   22 0 15   22 0 15   10 9 4   25 23 10   46 42 19   63 57 26   77 70 32   89 81 37   98 89 41   106 96 44   112 102 46   115 105 48   116 106 48   113 103 47   103 94 43   2 6 13   2 6 13   6 7 6   6 7 6   6 7 6   6 7 6   6 7 6   6 7 6   6 7 6   60 61 54   158 221 19   181 254 22   201 255 24   220 255 27   247 255 65   15 21 1   10 12 6   10 12 6   20 25 13   36 45 24   96 39 65   164 66 111   223 90 151   255 111 186   255 126 211   255 128 216   51 51 51   51 51 51   51 51 51   51 51 51   51 51 51   
241 14 106   255 16 118   255 17 126   255 18 130   255 18 131   255 17 127   19 1 8   10 9 4   10 9 4   26 23 10   44 40 18   58 53 24   70 64 29   80 73 33   87 80 36   93 84 38   96 87 40   95 87 39   90 82 37   10 9 4   2 6 13   2 6 13   16 15 18   6 7 6   6 7 6   6 7 6   6 7 6   26 26 23   36 36 33   118 165 14   143 201 17   166 234 20   187 255 23   206 255 25   222 255 27   236 255 29   15 21 1   15 21 1   255 255 31   19 7 13   49 19 33   117 47 80   176 71 120   226 91 154   255 107 180   255 110 185   51 51 51   51 51 51   51 51 51   51 51 51   51 51 51   
255 17 124   255 18 133   255 19 139   255 20 143   255 20 145   255 20 144   255 19 139   19 1 8   10 9 4   10 9 4   20 18 8   36 33 15   48 44 20   58 53 24   65 59 27   70 64 29   72 65 30   69 63 28   57 52 23   2 6 13   16 15 18   16 15 18   16 15 18   16 15 18   6 7 6   6 7 6   6 7 6   6 7 6   72 102 9   101 142 12   127 179 15   150 211 18   171 240 21   189 255 23   206 255 25   220 255 27   231 255 28   239 255 29   240 255 29   255 195 154   255 216 170   60 24 41   120 48 82   170 68 115   205 83 139   51 51 51   51 51 51   51 51 51   51 51 51   51 51 51   51 51 51   
255 18 132   255 19 140   255 20 145   255 20 149   255 21 151   255 21 151   255 20 148   255 19 141   19 1 8   10 9 4   10 9 4   10 9 4   21 19 8   31 28 13   38 34 15   41 37 17   40 36 16   29 26 12   20 20 18   20 20 18   16 15 18   16 15 18   16 15 18   16 15 18   16 15 18   15 21 1   15 21 1   15 21 1   53 75 6   83 116 10   109 153 13   132 185 16   153 214 18   171 240 21   187 255 23   201 255 24   212 255 26   219 255 27   219 255 27   255 185 145   255 211 166   255 217 171   49 20 33   96 39 65   112 45 76   51 51 51   51 51 51   51 51 51   51 51 51   51 51 51   51 51 51   
255 19 135   255 20 142   255 20 148   255 21 151   255 21 153   255 21 153   255 21 151   255 20 146   255 19 136   19 1 8   10 9 4   10 9 4   10 9 4   10 9 4   10 9 4   10 9 4   20 20 18   20 20 18   20 20 18   16 15 18   16 15 18   16 15 18   16 15 18   253 235 255   16 15 18   16 15 18   15 21 1   15 21 1   31 43 3   61 86 7   88 123 10   111 156 13   132 186 16   151 212 18   167 234 20   180 253 22   191 255 23   196 255 24   192 255 23   255 162 128   255 191 150   255 205 162   19 7 13   146 184 54   136 171 50   51 51 51   51 51 51   51 51 51   51 51 51   51 51 51   51 51 51   
255 19 136   255 19 142   255 20 147   255 22 152   255 22 153   255 21 153   255 21 151   255 20 146   255 19 138   255 16 121   8 8 12   8 8 12   8 8 12   8 8 12   16 23 13   20 20 18   52 9 127   79 14 191   92 16 221   98 18 237   95 17 229   161 150 177   203 189 224   237 220 255   255 248 255   16 15 18   15 21 1   15 21 1   15 21 1   36 51 4   64 89 7   88 123 10   109 153 13   127 179 15   143 201 17   156 219 19   165 232 20   168 237 20   152 214 18   255 133 105   255 161 127   255 175 138   110 139 40   119 150 44   51 51 51   51 51 51   51 51 51   51 51 51   51 51 51   51 51 51   51 51 51   
255 18 134   255 19 140   255 20 145   255 120 241   255 59 186   255 21 150   255 20 148   255 20 144   255 19 136   255 17 121   8 8 12   8 8 12   8 8 12   8 8 12   20 20 18   66 12 159   85 15 206   99 18 240   109 20 255   116 21 255   120 22 255   119 21 255   103 19 250   214 198 235   239 222 255   255 239 255   16 15 18   15 21 1   15 21 1   15 21 1   35 50 4   60 85 7   82 115 10   100 141 12   116 163 14   128 179 15   134 189 16   131 183 16   117 57 45   194 95 75   250 122 96   84 44 43   144 75 74   190 99 98   217 113 111   51 51 51   51 51 51   51 51 51   51 51 51   51 51 51   51 51 51   
255 18 130   255 19 136   255 19 140   255 22 145   255 20 145   255 20 145   255 20 143   255 19 139   255 18 131   255 16 116   166 10 73   11 14 13   11 14 13   20 3 49   58 10 142   79 14 192   95 17 229   107 19 255   116 21 255   123 22 255   128 23 255   130 23 255   127 23 255   108 20 255   208 193 229   225 209 247   16 15 18   7 17 22   15 21 1   15 21 1   15 21 1   27 39 3   49 70 6   68 95 8   82 115 10   91 129 11   91 128 11   64 93 255   67 97 255   86 42 33   12 6 6   79 41 41   137 71 70   183 96 94   220 115 113   237 124 122   51 51 51   51 51 51   51 51 51   51 51 51   51 51 51   
255 17 125   255 18 130   255 18 134   255 19 137   255 19 139   255 19 138   255 19 136   255 18 132   255 17 123   247 15 108   11 14 13   11 14 13   11 14 13   43 8 105   67 12 163   85 15 205   99 18 239   110 20 255   119 21 255   126 23 255   131 24 255   134 24 255   133 24 255   126 23 255   168 156 185   182 169 201   7 17 22   22 1 7   92 5 29   169 10 54   230 13 73   255 16 89   255 20 105   255 30 132   255 34 145   255 25 131   255 24 131   128 105 255   70 100 255   67 97 255   12 6 6   59 31 30   116 60 59   163 85 84   255 130 145   227 119 117   51 51 51   51 51 51   51 51 51   51 51 51   51 51 51   
255 16 118   255 17 123   255 17 127   255 18 130   255 18 131   255 18 130   255 17 128   255 17 122   255 15 113   218 13 95   11 14 13   166 207 205   18 3 45   50 9 121   71 13 171   87 15 210   99 18 241   110 20 255   119 21 255   128 25 255   137 29 255   134 24 255   134 24 255   130 23 255   113 20 255   70 168 219   84 202 255   22 1 7   93 5 29   165 9 52   223 13 71   255 16 87   255 21 106   255 64 196   255 113 255   255 47 173   255 24 132   255 23 126   98 102 255   68 98 255   12 6 6   28 14 14   86 45 44   134 70 69   173 90 89   200 105 103   51 51 51   51 51 51   51 51 51   51 51 51   51 51 51   
249 15 109   255 16 114   255 16 118   255 16 120   255 17 121   255 16 120   255 16 117   252 15 110   226 13 99   174 10 76   11 14 13   11 14 13   25 4 62   52 9 126   71 13 171   86 15 208   98 18 237   108 20 255   117 21 255   165 60 255   255 155 255   134 25 255   133 24 255   129 23 255   118 21 255   62 151 196   7 17 22   22 1 7   82 4 26   152 9 48   209 12 67   255 15 82   255 20 100   255 59 184   255 136 255   255 74 224   255 25 130   255 23 126   66 89 255   63 91 255   12 6 6   12 6 6   46 24 24   96 50 49   135 70 69   160 84 82   51 51 51   51 51 51   51 51 51   51 51 51   51 51 51   
226 13 99   237 14 104   245 15 107   249 15 109   249 15 109   245 15 107   235 14 103   217 13 95   183 11 80   11 14 13   11 14 13   7 1 17   26 4 64   50 9 122   68 12 166   83 15 201   95 17 230   105 19 254   113 20 255   127 28 255   155 50 255   129 24 255   129 23 255   126 23 255   116 21 255   53 129 168   7 17 22   22 1 7   63 3 20   132 7 42   189 11 60   238 14 76   255 17 90   255 27 118   255 56 180   255 43 160   255 23 124   255 22 122   53 77 245   55 79 253   111 80 255   12 6 6   12 6 6   44 23 23   82 43 42   85 45 44   51 51 51   51 51 51   51 51 51   51 51 51   51 51 51   
197 12 86   208 12 91   215 13 94   218 13 96   217 13 95   210 12 92   196 12 86   171 10 75   114 7 50   11 14 13   11 14 13   7 1 17   23 4 56   46 8 113   64 11 155   78 14 190   90 16 218   100 18 242   108 19 255   115 21 255   120 22 255   123 22 255   123 22 255   120 22 255   110 20 255   7 17 22   7 17 22   22 1 7   36 2 11   106 6 34   164 9 52   213 12 68   255 15 81   255 17 94   255 21 107   255 22 113   255 21 114   255 21 113   42 61 196   56 39 38   98 68 66   129 90 87   152 106 102   159 111 107   51 51 51   51 51 51   51 51 51   51 51 51   51 51 51   51 51 51   51 51 51   
163 10 71   173 10 76   179 11 78   180 11 79   176 10 77   166 10 72   144 8 63   98 6 43   17 11 6   17 11 6   5 10 0   7 1 17   17 3 41   40 7 98   58 10 140   72 13 175   84 15 203   94 17 227   102 18 246   108 19 255   113 20 255   116 21 255   116 21 255   112 20 255   100 18 242   7 17 22   7 17 22   22 1 7   22 1 7   73 4 23   132 7 42   182 10 58   224 13 71   255 15 83   255 17 93   255 18 100   255 19 104   255 19 101   14 10 9   63 44 43   102 70 68   133 92 89   158 110 106   176 123 119   180 125 121   51 51 51   51 51 51   51 51 51   51 51 51   51 51 51   51 51 51   
118 7 52   128 7 56   133 8 58   131 8 57   122 7 54   102 6 45   53 3 23   17 11 6   17 11 6   17 11 6   5 10 0   5 10 0   7 1 17   32 5 77   50 9 121   64 11 156   76 14 184   86 15 208   94 17 227   100 18 242   104 19 253   107 19 255   106 19 255   101 18 245   84 15 203   12 6 25   12 6 25   22 1 7   22 1 7   30 1 9   93 5 29   144 8 46   188 11 60   224 13 71   253 15 81   255 16 87   255 16 90   255 15 83   13 9 8   59 41 40   96 67 65   128 88 86   156 122 122   180 154 157   187 130 126   51 51 51   51 51 51   51 51 51   51 51 51   51 51 51   51 51 51   
57 3 25   66 4 29   67 4 29   58 3 25   31 1 13   51 51 51   51 51 51   17 11 6   17 11 6   17 11 6   17 11 6   5 10 0   7 1 17   20 3 49   39 7 95   54 10 131   66 12 160   76 14 184   84 15 203   90 16 218   94 17 227   96 17 231   94 17 227   86 15 208   12 6 25   52 24 103   12 6 25   12 6 25   22 1 7   22 1 7   43 2 13   98 5 31   142 8 45   179 10 57   207 12 66   225 13 72   225 13 72   10 7 6   10 7 6   48 34 32   86 59 58   117 81 79   145 110 108   193 255 255   181 126 122   182 126 122   51 51 51   51 51 51   51 51 51   51 51 51   51 51 51   
51 51 51   51 51 51   51 51 51   51 51 51   51 51 51   51 51 51   51 51 51   51 51 51   51 51 51   51 51 51   51 51 51   5 10 0   7 1 17   7 1 17   26 4 63   42 7 101   54 10 131   64 11 155   72 13 174   78 14 188   81 14 196   81 15 197   77 14 187   61 11 148   51 51 51   28 13 57   97 46 193   12 6 25   12 6 25   22 1 7   22 1 7   36 2 11   84 5 27   120 7 38   146 8 46   154 9 49   6 4 18   10 7 6   10 7 6   33 23 22   71 49 47   103 71 69   130 90 87   152 109 107   168 117 113   172 120 116   51 51 51   51 51 51   51 51 51   51 51 51   51 51 51   
51 51 51   51 51 51   51 51 51   51 51 51   51 51 51   51 51 51   51 51 51   51 51 51   51 51 51   51 51 51   51 51 51   51 51 51   5 10 0   7 1 17   7 1 17   25 4 61   39 7 94   49 9 119   57 10 138   62 11 150   64 11 155   62 11 151   51 9 124   51 51 51   51 51 51   12 6 25   62 29 123   112 53 223   12 6 25   12 6 25   12 6 25   22 1 7   22 1 7   26 1 8   22 1 7   6 4 18   6 4 18   6 4 18   10 7 6   10 7 6   51 35 34   84 58 56   111 77 75   134 93 90   150 104 101   154 107 103   51 51 51   51 51 51   51 51 51   51 51 51   51 51 51   
51 51 51   51 51 51   51 51 51   51 51 51   51 51 51   51 51 51   51 51 51   51 51 51   51 51 51   51 51 51   51 51 51   51 51 51   51 51 51   51 51 51   7 1 17   7 1 17   17 3 42   29 5 70   36 6 88   40 7 98   39 7 96   26 4 63   51 51 51   51 51 51   51 51 51   51 51 51   12 6 25   60 29 120   94 45 187   12 6 25   51 51 51   51 51 51   51 51 51   51 51 51   6 4 18   6 4 18   6 4 18   6 4 18   10 7 6   10 7 6   26 18 17   60 42 40   88 61 59   111 77 75   126 87 85   119 83 80   51 51 51   51 51 51   51 51 51   51 51 51   51 51 51   
51 51 51   51 51 51   51 51 51   51 51 51   51 51 51   51 51 51   51 51 51   51 51 51   51 51 51   51 51 51   51 51 51   51 51 51   51 51 51   51 51 51   51 51 51   51 51 51   51 51 51   7 1 17   7 1 17   51 51 51   51 51 51   51 51 51   51 51 51   51 51 51   51 51 51   51 51 51   51 51 51   51 51 51   51 51 51   51 51 51   51 51 51   51 51 51   51 51 51   51 51 51   51 51 51   51 51 51   51 51 51   51 51 51   51 51 51   10 7 6   10 7 6   29 20 19   58 40 39   80 55 54   89 62 60   51 51 51   51 51 51   51 51 51   51 51 51   51 51 51   51 51 51   
51 51 51   51 51 51   51 51 51   51 51 51   51 51 51   51 51 51   51 51 51   51 51 51   51 51 51   51 51 51   51 51 51   51 51 51   51 51 51   51 51 51   51 51 51   51 51 51   51 51 51   51 51 51   51 51 51   51 51 51   51 51 51   51 51 51   51 51 51   51 51 51   51 51 51   51 51 51   51 51 51   51 51 51   51 51 51   51 51 51   51 51 51   51 51 51   51 51 51   51 51 51   51 51 51   51 51 51   51 51 51   51 51 51   51 51 51   51 51 51   51 51 51   10 7 6   10 7 6   51 51 51   51 51 51   51 51 51   51 51 51   51 51 51   51 51 51   51 51 51   51 51 51   
