P3
51 51
255
51 51 51   51 51 51   51 51 51   51 51 51   51 51 51   51 51 51   51 51 51   51 51 51   51 51 51   51 51 51   51 51 51   51 51 51   51 51 51   51 51 51   51 51 51   51 51 51   51 51 51   51 51 51   51 51 51   51 51 51   51 51 51   51 51 51   51 51 51   51 51 51   51 51 51   51 51 51   51 51 51   51 51 51   51 51 51   51 51 51   51 51 51   51 51 51   51 51 51   51 51 51   51 51 51   51 51 51   51 51 51   51 51 51   51 51 51   51 51 51   51 51 51   51 51 51   51 51 51   51 51 51   51 51 51   51 51 51   51 51 51   51 51 51   51 51 51   51 51 51   51 51 51   
51 51 51   51 51 51   51 51 51   51 51 51   51 51 51   51 51 51   51 51 51   51 51 51   51 51 51   51 51 51   51 51 51   51 51 51   51 51 51   51 51 51   51 51 51   51 51 51   51 51 51   51 51 51   51 51 51   51 51 51   51 51 51   51 51 51   51 51 51   51 51 51   51 51 51   51 51 51   51 51 51   51 51 51   51 51 51   51 51 51   51 51 51   51 51 51   51 51 51   51 51 51   51 51 51   51 51 51   51 51 51   51 51 51   51 51 51   51 51 51   51 51 51   51 51 51   51 51 51   51 51 51   51 51 51   51 51 51   51 51 51   51 51 51   51 51 51   51 51 51   51 51 51   
51 51 51   51 51 51   51 51 51   51 51 51   51 51 51   51 51 51   51 51 51   51 51 51   51 51 51   51 51 51   51 51 51   51 51 51   51 51 51   51 51 51   51 51 51   51 51 51   51 51 51   51 51 51   51 51 51   51 51 51   51 51 51   51 51 51   51 51 51   51 51 51   51 51 51   51 51 51   51 51 51   51 51 51   51 51 51   51 51 51   51 51 51   51 51 51   51 51 51   51 51 51   51 51 51   51 51 51   51 51 51   51 51 51   51 51 51   51 51 51   51 51 51   51 51 51   51 51 51   51 51 51   51 51 51   51 51 51   51 51 51   51 51 51   51 51 51   51 51 51   51 51 51   
51 51 51   51 51 51   51 51 51   51 51 51   51 51 51   51 51 51   51 51 51   51 51 51   51 51 51   51 51 51   51 51 51   51 51 51   51 51 51   51 51 51   51 51 51   51 51 51   51 51 51   51 51 51   51 51 51   51 51 51   51 51 51   51 51 51   51 51 51   51 51 51   51 51 51   51 51 51   51 51 51   51 51 51   51 51 51   51 51 51   51 51 51   51 51 51   51 51 51   51 51 51   51 51 51   51 51 51   51 51 51   51 51 51   51 51 51   51 51 51   51 51 51   51 51 51   51 51 51   51 51 51   51 51 51   51 51 51   51 51 51   51 51 51   51 51 51   51 51 51   51 51 51   
51 51 51   51 51 51   51 51 51   51 51 51   51 51 51   51 51 51   51 51 51   51 51 51   51 51 51   51 51 51   51 51 51   51 51 51   51 51 51   51 51 51   51 51 51   51 51 51   51 51 51   51 51 51   51 51 51   51 51 51   51 51 51   51 51 51   51 51 51   51 51 51   51 51 51   51 51 51   51 51 51   51 51 51   51 51 51   51 51 51   51 51 51   51 51 51   51 51 51   51 51 51   51 51 51   51 51 51   51 51 51   51 51 51   51 51 51   51 51 51   51 51 51   51 51 51   51 51 51   51 51 51   51 51 51   51 51 51   51 51 51   51 51 51   51 51 51   51 51 51   51 51 51   
51 51 51   51 51 51   51 51 51   51 51 51   51 51 51   51 51 51   51 51 51   51 51 51   51 51 51   51 51 51   51 51 51   51 51 51   51 51 51   51 51 51   51 51 51   51 51 51   51 51 51   51 51 51   51 51 51   51 51 51   51 51 51   51 51 51   51 51 51   51 51 51   51 51 51   51 51 51   51 51 51   51 51 51   51 51 51   51 51 51   51 51 51   51 51 51   51 51 51   51 51 51   51 51 51   51 51 51   51 51 51   51 51 51   51 51 51   51 51 51   51 51 51   51 51 51   51 51 51   172 21 115   255 72 237   255 47 255   51 51 51   51 51 51   51 51 51   51 51 51   51 51 51   
51 51 51   51 51 51   51 51 51   51 51 51   51 51 51   51 51 51   51 51 51   51 51 51   51 51 51   51 51 51   51 51 51   51 51 51   51 51 51   51 51 51   51 51 51   51 51 51   51 51 51   51 51 51   51 51 51   51 51 51   51 51 51   51 51 51   176 255 255   51 51 51   51 51 51   51 51 51   51 51 51   51 51 51   51 51 51   51 51 51   51 51 51   51 51 51   51 51 51   51 51 51   51 51 51   51 51 51   51 51 51   51 51 51   51 51 51   51 51 51   51 51 51   51 51 51   21 2 14   71 8 47   185 27 129   255 72 237   51 51 51   51 51 51   51 51 51   51 51 51   51 51 51   
51 51 51   51 51 51   51 51 51   51 51 51   51 51 51   51 51 51   51 51 51   51 51 51   134 156 243   172 200 255   196 227 255   199 231 255   51 51 51   51 51 51   51 51 51   51 51 51   51 51 51   51 51 51   51 51 51   51 51 51   67 148 104   128 255 201   171 255 255   200 255 255   51 51 51   51 51 51   51 51 51   51 51 51   51 51 51   51 51 51   51 51 51   51 51 51   51 51 51   51 51 51   51 51 51   51 51 51   51 51 51   51 51 51   51 51 51   51 51 51   51 51 51   51 51 51   21 2 14   21 2 14   71 8 47   172 21 115   51 51 51   51 51 51   51 51 51   51 51 51   51 51 51   
51 51 51   51 51 51   51 51 51   51 51 51   51 51 51   101 255 63   113 255 71   121 255 76   126 255 79   126 255 79   207 240 255   191 222 255   183 213 255   51 51 51   51 51 51   187 122 64   255 172 91   255 196 104   51 51 51   51 51 51   36 79 56   91 203 143   133 255 209   169 255 255   177 255 255   51 51 51   200 228 224   246 255 255   255 255 255   255 255 255   255 255 255   255 255 255   255 255 255   51 51 51   51 51 51   51 51 51   51 51 51   51 51 51   51 51 51   51 51 51   51 51 51   51 51 51   21 2 14   21 2 14   21 2 14   51 51 51   51 51 51   51 51 51   51 51 51   51 51 51   51 51 51   
51 51 51   51 51 51   51 51 51   77 202 48   95 250 59   107 255 67   117 255 73   125 255 78   131 255 82   135 255 84   136 255 85   130 255 81   163 190 255   51 51 51   56 36 19   163 106 56   230 149 79   255 244 118   255 190 101   51 51 51   11 25 17   43 95 67   85 189 134   117 255 183   131 255 206   150 171 168   197 225 221   236 255 255   255 255 255   255 255 255   255 255 255   255 255 255   255 255 255   255 255 255   51 51 51   51 51 51   237 182 140   51 51 51   51 51 51   51 51 51   16 12 18   167 134 193   195 156 225   220 176 254   243 195 255   255 213 255   255 229 255   51 51 51   51 51 51   51 51 51   51 51 51   
51 51 51   51 51 51   60 158 37   80 210 50   94 247 59   105 255 65   114 255 71   122 255 76   128 255 80   133 255 83   135 255 85   136 255 85   130 255 81   51 51 51   16 10 5   101 66 35   168 109 58   215 140 74   240 156 83   51 51 51   11 25 17   11 25 17   27 59 42   57 127 90   86 97 96   139 158 156   181 206 203   218 248 244   250 255 255   255 255 255   255 255 255   255 255 255   255 255 255   255 255 255   255 255 255   191 147 113   245 188 147   255 237 192   255 255 211   255 255 201   123 98 142   151 121 175   178 143 206   203 163 235   231 184 255   255 203 255   255 217 255   255 231 255   51 51 51   51 51 51   51 51 51   
51 51 51   31 83 19   59 157 37   76 200 47   89 234 55   99 255 62   108 255 68   116 255 72   124 255 77   139 255 82   131 255 82   132 255 83   123 255 255   158 255 255   171 255 255   16 10 5   87 56 30   135 87 46   16 10 5   51 51 51   51 51 51   11 25 17   11 25 17   20 23 23   71 81 80   119 136 134   160 182 179   195 223 219   227 255 255   255 255 255   255 255 255   255 255 255   255 255 255   255 255 255   255 255 255   168 129 99   237 182 147   255 255 246   255 255 255   255 255 255   255 255 201   133 107 154   159 127 184   185 148 214   222 174 250   255 203 255   255 215 255   255 218 255   255 231 255   51 51 51   51 51 51   
51 51 51   32 85 20   54 142 34   69 183 43   81 215 51   92 242 57   100 255 63   108 255 68   119 255 72   255 255 115   139 255 81   50 121 120   102 247 245   135 255 255   155 255 255   149 255 255   16 10 5   16 10 5   16 10 5   51 51 51   51 51 51   51 51 51   51 51 51   20 23 23   49 56 55   95 109 107   135 154 151   170 194 190   202 230 226   231 255 255   255 255 255   255 255 255   255 255 255   255 255 255   255 255 255   135 104 80   195 149 119   255 237 210   255 255 255   255 255 255   255 255 211   113 90 131   139 111 160   164 131 189   196 154 222   244 186 255   255 207 255   255 207 255   255 215 255   51 51 51   51 51 51   
51 51 51   25 66 15   45 120 28   60 159 38   72 191 45   82 218 52   91 241 57   99 255 62   105 255 66   111 255 69   115 255 72   9 22 22   62 150 149   96 232 230   117 255 255   118 255 255   51 51 51   51 51 51   51 51 51   51 51 51   51 51 51   51 51 51   51 51 51   20 23 23   20 23 23   68 77 76   107 122 120   142 162 159   174 198 195   203 232 227   230 255 255   255 255 255   255 255 255   255 255 255   255 255 255   99 76 58   145 111 86   211 162 133   255 237 210   255 255 246   255 237 192   92 73 106   117 94 136   142 114 164   167 133 192   198 156 224   228 177 255   238 188 255   247 198 255   255 209 255   51 51 51   
51 51 51   14 38 9   34 91 21   49 131 31   62 163 38   72 190 45   81 213 50   88 233 55   95 250 59   17 255 247   19 255 255   21 255 255   22 255 255   43 104 103   63 154 152   58 141 140   51 51 51   51 51 51   51 51 51   51 51 51   51 51 51   51 51 51   51 51 51   20 23 23   20 23 23   36 42 41   76 87 85   112 127 125   144 164 161   173 197 194   200 228 224   224 255 251   246 255 255   255 255 255   255 255 255   59 45 34   102 79 60   145 111 86   195 149 119   237 182 147   245 188 147   69 55 80   95 76 110   119 96 138   143 114 165   166 133 191   189 151 217   208 166 240   225 180 255   239 192 255   51 51 51   
51 51 51   7 19 4   21 57 13   37 97 23   49 130 31   60 158 37   69 182 43   13 208 190   16 255 243   19 255 255   21 255 255   22 255 255   23 255 255   24 255 255   24 255 255   51 51 51   51 51 51   51 51 51   51 51 51   51 51 51   51 51 51   51 51 51   51 51 51   20 23 23   20 23 23   20 23 23   42 48 47   78 89 87   111 126 124   140 160 157   167 190 187   192 218 214   213 243 239   232 255 255   245 255 255   18 14 11   59 45 34   99 76 58   135 104 80   168 129 99   191 147 113   45 36 52   71 57 82   96 77 111   119 95 138   141 113 164   163 130 188   183 146 211   200 161 232   213 171 246   51 51 51   
51 51 51   7 19 4   7 19 4   22 59 14   35 93 22   46 122 29   10 166 152   14 228 209   17 255 248   19 255 255   21 255 255   22 255 255   23 255 255   24 255 255   24 255 255   24 255 255   51 51 51   51 51 51   51 51 51   51 51 51   51 51 51   51 51 51   156 214 208   20 23 23   20 23 23   20 23 23   20 23 23   41 47 46   74 85 83   104 119 117   131 150 147   156 177 174   177 201 198   194 221 217   205 233 229   18 14 11   18 14 11   50 39 29   86 66 50   116 89 68   134 103 79   16 12 18   46 37 53   71 57 82   94 76 109   117 93 135   138 110 159   157 126 182   174 140 202   51 51 51   51 51 51   
51 51 51   7 19 4   7 19 4   7 19 4   19 50 12   5 91 84   11 174 159   14 224 205   16 255 240   18 255 255   20 255 255   21 255 255   23 255 255   23 255 255   24 255 255   24 255 255   23 255 255   51 51 51   51 51 51   51 51 51   51 51 51   47 65 64   125 171 166   20 23 23   20 23 23   20 23 23   20 23 23   20 23 23   34 39 39   65 74 72   92 104 103   116 132 129   136 155 152   151 172 169   20 23 23   18 14 11   18 14 11   18 14 11   29 22 17   53 41 31   16 12 18   16 12 18   16 12 18   44 36 51   68 54 79   90 72 104   111 89 128   130 104 150   145 116 168   51 51 51   51 51 51   
51 51 51   51 51 51   7 19 4   7 19 4   7 19 4   6 99 90   10 163 149   13 209 191   15 245 224   17 255 252   19 255 255   20 255 255   35 255 255   96 255 255   23 255 255   23 255 255   23 255 255   20 255 255   51 51 51   51 51 51   51 51 51   12 16 16   68 94 91   120 165 160   20 23 23   20 23 23   20 23 23   20 23 23   20 23 23   20 23 23   47 54 53   70 80 79   89 101 99   99 113 111   18 14 11   18 14 11   18 14 11   18 14 11   18 14 11   16 12 18   16 12 18   16 12 18   16 12 18   16 12 18   39 32 46   61 49 71   82 65 94   99 79 114   51 51 51   51 51 51   51 51 51   
51 51 51   51 51 51   51 51 51   7 19 4   7 19 4   5 84 77   9 143 131   11 187 171   14 223 204   16 253 232   17 255 255   19 255 255   20 255 255   21 255 255   21 255 255   22 255 255   21 255 255   20 255 255   51 51 51   51 51 51   51 51 51   12 16 16   12 16 16   41 56 55   61 84 82   20 23 23   20 23 23   20 23 23   20 23 23   20 23 23   20 23 23   20 23 23   29 33 33   51 51 51   51 51 51   51 51 51   188 115 17   255 198 30   255 236 36   16 12 18   16 12 18   16 12 18   16 12 18   16 12 18   16 12 18   29 23 34   47 38 55   56 45 65   51 51 51   51 51 51   51 51 51   
51 51 51   51 51 51   51 51 51   51 51 51   1 21 19   3 58 53   7 116 106   10 160 146   12 196 179   14 226 206   16 251 230   17 255 249   18 255 255   19 255 255   20 255 255   20 255 255   20 255 255   18 255 255   51 51 51   51 51 51   51 51 51   51 51 51   116 255 255   144 255 255   51 51 51   51 51 51   20 23 23   20 23 23   20 23 23   20 23 23   20 23 23   20 23 23   51 51 51   51 51 51   1 19 22   22 13 2   159 97 14   255 170 26   255 226 37   255 239 36   16 12 18   16 12 18   16 12 18   16 12 18   16 12 18   16 12 18   51 51 51   51 51 51   51 51 51   51 51 51   51 51 51   
51 51 51   51 51 51   51 51 51   51 51 51   51 51 51   1 21 19   5 83 75   8 127 116   10 163 149   12 194 177   14 219 201   15 241 220   16 255 237   17 255 249   18 255 255   18 255 255   17 255 255   16 255 238   51 51 51   51 51 51   51 51 51   74 169 211   118 255 255   159 255 255   160 255 255   51 51 51   9 9 37   61 62 254   5 5 23   5 5 23   51 51 51   51 51 51   51 51 51   51 51 51   1 19 22   22 13 2   76 46 7   194 118 18   255 174 26   255 206 31   29 255 255   16 12 18   16 12 18   16 12 18   51 51 51   51 51 51   51 51 51   51 51 51   51 51 51   51 51 51   51 51 51   
51 51 51   51 51 51   51 51 51   51 51 51   51 51 51   1 21 19   2 41 38   5 88 81   8 126 115   10 157 143   11 183 167   13 204 187   14 222 203   15 236 215   15 244 223   15 247 226   15 240 220   13 214 196   51 51 51   51 51 51   8 20 25   8 20 25   96 219 255   129 255 255   141 255 255   51 51 51   5 5 23   5 5 23   5 5 23   5 5 23   51 51 51   51 51 51   51 51 51   51 51 51   1 19 22   22 13 2   22 13 2   82 50 7   173 105 16   191 116 17   27 255 255   25 255 255   51 51 51   51 51 51   51 51 51   51 51 51   51 51 51   51 51 51   51 51 51   51 51 51   51 51 51   
51 51 51   51 51 51   51 51 51   51 51 51   51 51 51   1 21 19   1 21 19   2 42 38   5 82 75   7 114 104   8 141 129   10 163 149   11 180 165   12 193 176   12 200 183   12 201 184   12 190 174   9 146 134   51 51 51   51 51 51   8 20 25   8 20 25   8 20 25   90 206 255   106 242 255   51 51 51   5 5 23   5 5 23   5 5 23   5 5 23   51 51 51   51 51 51   51 51 51   51 51 51   1 19 22   1 19 22   22 13 2   22 13 2   22 13 2   17 222 249   20 255 255   21 255 255   51 51 51   51 51 51   51 51 51   51 51 51   51 51 51   51 51 51   51 51 51   51 51 51   51 51 51   
51 51 51   51 51 51   51 51 51   51 51 51   51 51 51   51 51 51   1 21 19   1 21 19   1 29 26   4 63 58   5 91 83   7 114 104   8 131 120   9 143 131   9 148 136   9 145 132   7 123 113   51 51 51   51 51 51   42 156 70   67 244 110   81 255 133   91 255 149   97 255 159   5 20 9   51 51 51   51 51 51   5 5 23   5 5 23   5 5 23   51 51 51   51 51 51   51 51 51   51 51 51   1 19 22   1 19 22   1 19 22   5 75 84   10 125 140   13 168 188   15 199 223   15 193 216   51 51 51   51 51 51   51 51 51   51 51 51   51 51 51   51 51 51   51 51 51   51 51 51   51 51 51   
51 51 51   51 51 51   51 51 51   51 51 51   51 51 51   51 51 51   51 51 51   1 21 19   1 21 19   1 21 19   2 31 29   3 55 50   4 71 65   5 81 74   5 82 75   4 68 62   51 51 51   51 51 51   31 116 52   56 204 92   72 255 118   85 255 140   100 255 167   109 255 182   106 255 174   102 255 167   51 51 51   255 241 255   255 255 255   51 51 51   51 51 51   51 51 51   51 51 51   51 51 51   1 19 22   36 154 85   59 248 137   73 255 171   83 255 193   8 101 113   9 124 139   51 51 51   51 51 51   51 51 51   51 51 51   51 51 51   51 51 51   51 51 51   51 51 51   51 51 51   51 51 51   
51 51 51   51 51 51   51 51 51   51 51 51   51 51 51   51 51 51   51 51 51   51 51 51   1 21 19   1 21 19   1 21 19   1 21 19   1 21 19   1 21 19   1 21 19   51 51 51   22 12 2   5 20 9   37 134 60   56 204 91   70 255 116   89 255 149   129 255 232   163 255 255   134 255 236   106 255 174   95 255 155   25 21 22   25 21 22   25 21 22   51 51 51   51 51 51   51 51 51   51 51 51   20 87 48   43 180 100   60 252 139   74 255 171   85 255 198   93 255 217   51 51 51   51 51 51   82 12 38   166 25 77   231 34 107   255 42 131   255 47 146   51 51 51   51 51 51   51 51 51   51 51 51   
51 51 51   51 51 51   51 51 51   51 51 51   51 51 51   51 51 51   51 51 51   6 11 2   6 11 2   109 217 39   106 211 38   51 51 51   51 51 51   51 51 51   51 51 51   22 12 2   22 12 2   8 32 14   34 125 56   52 189 85   66 240 108   84 255 142   133 255 243   187 255 255   163 255 255   109 255 182   97 255 159   25 21 22   25 21 22   25 21 22   51 51 51   51 51 51   51 51 51   5 22 12   19 80 44   38 163 90   55 231 127   68 255 159   82 255 190   90 255 208   95 255 221   18 2 8   71 10 33   145 21 67   208 31 96   255 75 143   255 59 150   255 49 153   51 51 51   51 51 51   51 51 51   
51 51 51   51 51 51   51 51 51   51 51 51   51 51 51   51 51 51   6 11 2   6 11 2   6 11 2   6 11 2   98 196 35   59 118 21   51 51 51   51 51 51   51 51 51   22 12 2   22 12 2   5 20 9   28 102 46   45 164 74   58 213 96   72 255 119   98 255 171   133 255 243   129 255 232   100 255 167   91 255 149   25 21 22   25 21 22   25 21 22   51 51 51   51 51 51   51 51 51   5 22 12   12 51 28   31 131 72   47 198 109   61 255 141   73 255 168   85 255 195   89 255 206   85 255 197   38 5 17   110 16 51   172 26 79   241 51 115   255 155 196   255 46 142   51 51 51   51 51 51   51 51 51   
51 51 51   51 51 51   51 51 51   51 51 51   51 51 51   51 51 51   6 11 2   6 11 2   6 11 2   6 11 2   74 147 26   51 51 51   51 51 51   51 51 51   51 51 51   22 12 2   22 12 2   5 20 9   18 68 30   36 130 58   49 180 81   61 221 99   72 255 119   84 255 142   89 255 149   85 255 140   81 255 133   25 21 22   25 21 22   25 21 22   51 51 51   51 51 51   51 51 51   5 22 12   5 22 12   21 90 49   37 157 86   51 214 118   63 255 146   72 255 168   79 255 184   79 255 183   18 2 8   66 9 30   129 19 59   183 27 85   231 35 107   255 40 123   51 51 51   51 51 51   51 51 51   
51 51 51   51 51 51   51 51 51   51 51 51   51 51 51   51 51 51   51 51 51   6 11 2   6 11 2   6 11 2   28 56 10   200 127 255   51 51 51   51 51 51   51 51 51   51 51 51   22 12 2   5 20 9   5 20 9   24 88 39   38 139 62   49 180 81   58 213 96   66 240 108   70 255 116   72 255 118   67 244 110   51 51 51   51 51 51   51 51 51   51 51 51   51 51 51   51 51 51   5 22 12   5 22 12   9 39 21   25 107 59   39 165 91   51 215 118   61 255 141   67 255 156   62 255 145   18 2 8   18 2 8   77 11 35   132 19 61   178 26 82   211 31 97   51 51 51   51 51 51   51 51 51   
51 51 51   51 51 51   51 51 51   51 51 51   51 51 51   51 51 51   51 51 51   51 51 51   17 10 25   17 10 25   255 175 255   255 187 255   255 186 255   17 10 25   51 51 51   51 51 51   51 51 51   5 20 9   5 20 9   9 35 15   24 88 39   36 130 58   45 164 74   52 189 85   56 204 91   56 204 92   42 156 70   51 51 51   51 51 51   51 51 51   51 51 51   51 51 51   51 51 51   5 22 12   5 22 12   5 22 12   11 47 26   25 106 59   37 156 86   46 194 107   51 215 119   51 51 51   18 2 8   18 2 8   18 2 8   69 10 32   113 17 52   117 17 54   51 51 51   51 51 51   51 51 51   
51 51 51   51 51 51   51 51 51   51 51 51   51 51 51   51 51 51   51 51 51   17 10 25   17 10 25   252 160 255   255 181 255   255 194 255   17 10 25   17 10 25   51 51 51   51 51 51   51 51 51   51 51 51   5 20 9   5 20 9   5 20 9   18 68 30   28 102 46   34 125 56   37 134 60   31 116 52   51 51 51   22 22 4   255 255 64   22 22 4   51 51 51   51 51 51   51 51 51   51 51 51   5 22 12   5 22 12   5 22 12   7 33 18   19 81 45   27 113 62   217 157 60   51 51 51   51 51 51   18 2 8   18 2 8   18 2 8   51 51 51   51 51 51   51 51 51   51 51 51   51 51 51   
51 51 51   51 51 51   51 51 51   51 51 51   51 51 51   51 51 51   51 51 51   17 10 25   199 126 255   244 154 255   255 174 255   255 255 255   17 10 25   17 10 25   17 10 25   51 51 51   51 51 51   51 51 51   51 51 51   5 20 9   5 20 9   5 20 9   5 20 9   8 32 14   5 20 9   51 51 51   22 22 4   177 180 32   255 255 57   255 255 70   51 51 51   51 51 51   51 51 51   51 51 51   4 6 23   4 6 23   5 22 12   5 22 12   5 22 12   95 68 26   228 164 63   255 232 90   255 245 94   51 51 51   51 51 51   51 51 51   51 51 51   51 51 51   51 51 51   51 51 51   51 51 51   
51 51 51   51 51 51   51 51 51   51 51 51   51 51 51   51 51 51   17 10 25   17 10 25   177 112 255   221 140 255   182 35 49   255 58 81   255 70 98   255 77 108   255 79 111   255 73 102   51 51 51   51 51 51   51 51 51   51 51 51   51 51 51   23 8 1   23 8 1   255 146 26   51 51 51   51 51 51   22 22 4   71 72 13   209 212 38   255 255 50   51 51 51   51 51 51   51 51 51   4 6 23   4 6 23   43 55 214   58 74 255   70 90 255   80 103 255   86 110 255   171 123 47   255 194 75   255 234 90   51 51 51   51 51 51   51 51 51   51 51 51   51 51 51   51 51 51   51 51 51   51 51 51   
51 51 51   51 51 51   51 51 51   51 51 51   51 51 51   51 51 51   17 10 25   17 10 25   142 90 209   132 25 35   255 51 71   255 66 92   255 76 107   255 85 118   255 87 121   255 85 119   255 73 102   2 23 1   2 23 1   2 23 1   51 51 51   23 8 1   255 95 17   255 112 20   51 51 51   51 51 51   51 51 51   22 22 4   22 22 4   51 51 51   51 51 51   51 51 51   51 51 51   4 6 23   21 27 106   39 50 196   54 69 255   66 85 255   184 193 255   83 108 255   85 110 255   180 130 50   229 165 64   51 51 51   51 51 51   51 51 51   51 51 51   51 51 51   51 51 51   51 51 51   51 51 51   
51 51 51   51 51 51   51 51 51   51 51 51   51 51 51   51 51 51   51 51 51   17 10 25   89 56 131   182 35 49   255 54 75   255 67 94   255 83 112   255 183 193   255 162 179   255 87 121   255 79 111   2 23 1   2 23 1   2 23 1   2 23 1   23 8 1   68 23 4   51 51 51   51 51 51   51 51 51   51 51 51   51 51 51   51 51 51   51 51 51   51 51 51   51 51 51   51 51 51   4 6 23   15 19 75   33 42 164   47 61 237   60 77 255   76 95 255   78 100 255   81 105 255   31 22 8   51 51 51   51 51 51   51 51 51   51 51 51   51 51 51   51 51 51   51 51 51   51 51 51   51 51 51   
51 51 51   51 51 51   51 51 51   51 51 51   51 51 51   56 189 38   69 235 48   77 255 53   28 5 7   183 35 49   255 52 73   255 64 90   255 82 109   255 195 200   255 183 193   255 85 118   255 77 108   2 23 1   2 23 1   2 23 1   2 23 1   51 51 51   13 20 4   13 20 4   51 51 51   51 51 51   51 51 51   51 51 51   51 51 51   51 51 51   51 51 51   51 51 51   51 51 51   4 6 23   4 6 23   24 31 121   39 50 195   51 66 255   62 79 255   69 89 255   73 94 255   51 51 51   51 51 51   51 51 51   51 51 51   51 51 51   51 51 51   51 51 51   51 51 51   51 51 51   51 51 51   
51 51 51   51 51 51   51 51 51   41 141 28   63 213 43   75 255 52   84 255 58   5 19 3   24 4 6   159 30 42   244 47 65   255 58 82   255 68 94   255 82 109   255 83 112   255 76 107   255 70 98   2 23 1   2 23 1   2 23 1   2 23 1   2 23 1   105 158 33   13 20 4   51 51 51   51 51 51   51 51 51   51 51 51   51 51 51   51 51 51   51 51 51   51 51 51   51 51 51   4 6 23   4 6 23   13 17 65   28 36 142   41 53 205   51 66 255   59 76 255   61 79 255   51 51 51   51 51 51   51 51 51   51 51 51   51 51 51   51 51 51   51 51 51   51 51 51   51 51 51   51 51 51   
51 51 51   51 51 51   39 131 27   60 204 42   74 250 51   83 255 58   5 19 3   5 19 3   24 4 6   113 21 30   200 38 53   255 50 70   255 58 82   255 64 90   255 67 94   255 66 92   255 58 81   2 23 1   2 23 1   2 23 1   2 23 1   2 23 1   13 20 4   26 39 8   51 51 51   51 51 51   51 51 51   51 51 51   51 51 51   51 51 51   51 51 51   51 51 51   51 51 51   51 51 51   4 6 23   4 6 23   14 19 74   27 35 139   38 48 189   44 57 222   39 51 197   51 51 51   51 51 51   51 51 51   51 51 51   51 51 51   51 51 51   51 51 51   51 51 51   51 51 51   51 51 51   
51 51 51   25 87 17   52 177 36   68 229 47   79 255 54   87 255 60   5 19 3   5 19 3   5 19 3   39 7 10   136 26 36   200 38 53   244 47 65   255 52 73   255 54 75   255 51 71   182 35 49   24 255 19   2 23 1   2 23 1   2 23 1   51 51 51   51 51 51   51 51 51   51 51 51   51 51 51   51 51 51   51 51 51   51 51 51   51 51 51   51 51 51   51 51 51   51 51 51   51 51 51   51 51 51   4 6 23   4 6 23   9 12 48   18 24 94   17 22 88   51 51 51   51 51 51   51 51 51   51 51 51   51 51 51   51 51 51   51 51 51   51 51 51   51 51 51   51 51 51   51 51 51   
51 51 51   39 132 27   58 196 40   71 239 49   81 255 56   88 255 61   5 19 3   5 19 3   5 19 3   24 4 6   39 7 10   113 21 30   159 30 42   183 35 49   182 35 49   132 25 35   14 169 11   18 215 15   2 23 1   2 23 1   2 23 1   51 51 51   51 51 51   51 51 51   51 51 51   51 51 51   51 51 51   51 51 51   23 75 37   2 7 3   51 51 51   51 51 51   51 51 51   51 51 51   51 51 51   18 3 12   18 3 12   255 44 176   51 51 51   51 51 51   51 51 51   51 51 51   51 51 51   51 51 51   51 51 51   61 125 21   90 184 31   110 226 38   118 243 41   51 51 51   51 51 51   
16 54 11   43 148 30   59 202 41   71 241 49   80 255 55   88 255 60   5 19 3   5 19 3   5 19 3   5 19 3   5 19 3   24 4 6   24 4 6   28 5 7   51 51 51   2 23 1   6 72 5   10 119 8   2 23 1   2 23 1   51 51 51   51 51 51   51 51 51   51 51 51   51 51 51   51 51 51   51 51 51   7 24 12   26 84 41   39 123 60   2 7 3   51 51 51   51 51 51   51 51 51   18 3 12   18 3 12   250 42 167   255 52 210   255 49 198   51 51 51   51 51 51   51 51 51   51 51 51   10 21 3   47 97 16   76 157 26   101 207 35   122 250 42   140 255 48   154 255 53   160 255 55   
21 73 15   44 150 30   59 199 40   70 236 48   78 255 54   85 255 59   91 255 63   5 19 3   5 19 3   5 19 3   5 19 3   5 19 3   5 19 3   77 255 53   51 51 51   51 51 51   51 51 51   51 51 51   51 51 51   51 51 51   51 51 51   51 51 51   51 51 51   51 51 51   51 51 51   51 51 51   51 51 51   4 14 6   22 71 35   33 107 53   39 125 61   51 51 51   51 51 51   51 51 51   18 3 12   125 21 83   223 37 149   255 55 203   255 53 211   51 51 51   51 51 51   51 51 51   10 21 3   18 37 6   50 103 17   78 159 27   101 208 35   123 251 42   141 255 49   157 255 54   170 255 59   
21 72 14   42 143 29   56 190 39   67 226 46   75 254 52   82 255 56   87 255 60   91 255 63   5 19 3   5 19 3   5 19 3   5 19 3   84 255 58   69 235 48   51 51 51   51 51 51   51 51 51   51 51 51   51 51 51   51 51 51   51 51 51   51 51 51   51 51 51   51 51 51   51 51 51   51 51 51   51 51 51   2 7 3   13 42 20   24 79 39   29 93 46   51 51 51   51 51 51   51 51 51   18 3 12   68 11 45   169 28 113   239 40 160   18 3 12   51 51 51   51 51 51   51 51 51   10 21 3   17 35 6   48 98 16   74 152 25   98 200 34   119 243 41   138 255 47   155 255 53   169 255 58   
17 58 12   38 128 26   51 175 35   62 210 43   70 238 48   77 255 53   82 255 56   85 255 59   88 255 60   88 255 61   87 255 60   83 255 58   75 255 52   56 189 38   51 51 51   51 51 51   51 51 51   51 51 51   51 51 51   51 51 51   51 51 51   51 51 51   51 51 51   51 51 51   51 51 51   51 51 51   51 51 51   51 51 51   2 7 3   6 22 10   51 51 51   51 51 51   51 51 51   51 51 51   51 51 51   18 3 12   83 14 55   18 3 12   51 51 51   51 51 51   51 51 51   10 21 3   10 21 3   10 21 3   42 86 14   68 140 23   91 188 31   113 231 39   132 255 45   149 255 52   169 255 67   
9 30 6   31 105 21   45 153 31   56 189 38   64 216 44   70 238 48   75 254 52   78 255 54   80 255 55   81 255 56   79 255 54   74 250 51   63 213 43   51 51 51   51 51 51   51 51 51   51 51 51   51 51 51   51 51 51   51 51 51   51 51 51   51 51 51   51 51 51   51 51 51   51 51 51   51 51 51   51 51 51   51 51 51   51 51 51   51 51 51   51 51 51   51 51 51   51 51 51   51 51 51   51 51 51   51 51 51   51 51 51   51 51 51   51 51 51   51 51 51   51 51 51   10 21 3   10 21 3   10 21 3   34 69 11   60 123 20   83 171 29   105 215 36   124 254 43   142 255 49   243 255 234   
5 19 3   21 72 14   36 123 25   47 161 33   56 189 38   62 210 43   67 226 46   70 236 48   71 241 49   71 239 49   68 229 47   60 204 42   41 141 28   51 51 51   51 51 51   51 51 51   51 51 51   51 51 51   51 51 51   51 51 51   51 51 51   51 51 51   51 51 51   51 51 51   51 51 51   51 51 51   51 51 51   51 51 51   51 51 51   51 51 51   51 51 51   51 51 51   51 51 51   51 51 51   51 51 51   51 51 51   51 51 51   51 51 51   51 51 51   51 51 51   51 51 51   10 21 3   10 21 3   10 21 3   23 48 8   50 103 17   74 151 25   95 195 33   115 235 39   132 255 46   149 255 52   
51 51 51   5 19 3   24 83 17   36 123 25   45 153 31   51 175 35   56 190 39   59 199 40   59 202 41   58 196 40   52 177 36   39 131 27   51 51 51   51 51 51   51 51 51   51 51 51   51 51 51   51 51 51   51 51 51   51 51 51   51 51 51   51 51 51   51 51 51   51 51 51   51 51 51   51 51 51   51 51 51   51 51 51   51 51 51   51 51 51   51 51 51   51 51 51   51 51 51   51 51 51   51 51 51   51 51 51   51 51 51   51 51 51   51 51 51   51 51 51   51 51 51   10 21 3   10 21 3   10 21 3   10 21 3   38 79 13   62 128 21   84 172 29   104 213 36   122 249 42   138 255 47   
51 51 51   51 51 51   5 19 3   21 72 14   31 105 21   38 128 26   42 143 29   44 150 30   43 148 30   39 132 27   25 87 17   51 51 51   51 51 51   51 51 51   51 51 51   51 51 51   51 51 51   51 51 51   51 51 51   51 51 51   51 51 51   51 51 51   51 51 51   51 51 51   51 51 51   51 51 51   51 51 51   51 51 51   51 51 51   51 51 51   51 51 51   51 51 51   51 51 51   51 51 51   51 51 51   51 51 51   51 51 51   51 51 51   51 51 51   51 51 51   51 51 51   51 51 51   10 21 3   10 21 3   10 21 3   25 51 8   49 101 17   71 146 24   91 188 31   110 225 38   126 255 43   
51 51 51   51 51 51   51 51 51   5 19 3   9 30 6   17 58 12   21 72 14   21 73 15   16 54 11   51 51 51   51 51 51   51 51 51   51 51 51   51 51 51   51 51 51   51 51 51   51 51 51   51 51 51   51 51 51   51 51 51   51 51 51   51 51 51   51 51 51   51 51 51   51 51 51   51 51 51   51 51 51   51 51 51   51 51 51   51 51 51   51 51 51   51 51 51   51 51 51   51 51 51   51 51 51   51 51 51   51 51 51   51 51 51   51 51 51   51 51 51   51 51 51   51 51 51   10 21 3   10 21 3   10 21 3   10 21 3   34 70 12   57 117 19   77 159 27   96 197 33   112 230 39   
