P3
51 51
255
51 51 51   51 51 51   51 51 51   51 51 51   51 51 51   51 51 51   51 51 51   51 51 51   51 51 51   51 51 51   51 51 51   51 51 51   51 51 51   51 51 51   51 51 51   51 51 51   51 51 51   51 51 51   51 51 51   51 51 51   238 84 168   255 95 190   255 103 208   255 111 223   255 117 236   255 122 245   0 18 14   0 18 14   0 47 36   0 78 59   0 106 81   0 132 101   0 157 120   0 181 138   0 204 156   1 228 175   4 255 203   1 255 206   0 255 220   0 255 234   51 51 51   51 51 51   51 51 51   51 51 51   51 51 51   51 51 51   51 51 51   51 51 51   51 51 51   51 51 51   51 51 51   
51 51 51   51 51 51   51 51 51   51 51 51   51 51 51   51 51 51   51 51 51   51 51 51   51 51 51   51 51 51   51 51 51   51 51 51   51 51 51   51 51 51   51 51 51   51 51 51   51 51 51   51 51 51   165 58 117   205 72 145   236 83 167   255 92 185   255 100 201   255 108 216   255 115 230   255 121 242   255 125 252   0 18 14   0 18 14   0 53 41   0 81 62   0 108 82   0 133 101   0 157 120   0 180 137   0 202 154   0 224 171   0 245 187   0 255 202   0 255 216   51 51 51   51 51 51   51 51 51   51 51 51   51 51 51   51 51 51   51 51 51   51 51 51   51 51 51   51 51 51   51 51 51   
51 51 51   51 51 51   51 51 51   51 51 51   51 51 51   51 51 51   51 51 51   51 51 51   51 51 51   51 51 51   51 51 51   51 51 51   51 51 51   51 51 51   51 51 51   51 51 51   51 51 51   120 42 85   164 58 116   196 69 139   223 79 158   248 87 175   255 95 191   255 103 206   255 109 220   255 116 232   255 121 243   255 126 252   0 18 14   0 28 21   0 56 43   0 83 63   0 108 82   0 132 101   0 155 118   0 178 135   0 199 152   0 220 168   0 240 183   0 255 197   51 51 51   51 51 51   51 51 51   51 51 51   51 51 51   51 51 51   51 51 51   51 51 51   51 51 51   51 51 51   51 51 51   
51 51 51   51 51 51   51 51 51   51 51 51   51 51 51   51 51 51   51 51 51   51 51 51   51 51 51   51 51 51   51 51 51   51 51 51   51 51 51   51 51 51   51 51 51   51 51 51   59 20 42   115 40 81   151 53 107   181 64 128   207 73 147   231 82 164   253 89 179   255 97 194   255 104 208   255 114 224   255 116 232   255 121 242   0 18 14   0 18 14   0 30 23   0 56 43   0 82 62   0 106 81   0 129 99   0 152 116   0 173 132   0 194 148   0 214 163   0 231 176   51 51 51   51 51 51   51 51 51   51 51 51   51 51 51   51 51 51   51 51 51   51 51 51   51 51 51   51 51 51   51 51 51   
51 51 51   51 51 51   51 51 51   51 51 51   51 51 51   51 51 51   51 51 51   51 51 51   51 51 51   51 51 51   51 51 51   51 51 51   51 51 51   51 51 51   51 51 51   51 51 51   139 217 81   100 35 71   134 47 95   163 57 115   189 67 134   212 75 150   234 83 166   255 90 181   255 98 196   255 233 255   255 175 255   255 114 229   255 119 238   0 18 14   0 18 14   0 29 22   0 55 42   0 79 60   0 103 78   0 125 95   0 146 112   0 167 127   0 186 142   0 201 154   51 51 51   51 51 51   51 51 51   51 51 51   51 51 51   51 51 51   51 51 51   51 51 51   51 51 51   51 51 51   51 51 51   
51 51 51   51 51 51   51 51 51   51 51 51   51 51 51   51 51 51   51 51 51   51 51 51   51 51 51   51 51 51   51 51 51   51 51 51   51 51 51   51 51 51   51 51 51   70 109 41   122 190 71   82 29 58   114 40 81   143 50 101   169 59 119   192 68 136   214 76 152   235 83 166   254 90 180   255 111 207   255 151 252   255 108 215   255 112 224   0 18 14   0 18 14   0 18 14   0 26 20   0 51 39   0 74 57   0 97 74   0 118 90   0 138 105   0 156 119   0 168 128   51 51 51   51 51 51   51 51 51   51 51 51   51 51 51   51 51 51   51 51 51   51 51 51   51 51 51   51 51 51   51 51 51   
51 51 51   51 51 51   51 51 51   51 51 51   51 51 51   51 51 51   51 51 51   41 212 89   60 255 129   70 255 151   76 255 164   74 255 160   51 51 51   51 51 51   51 51 51   41 63 24   89 139 52   61 21 43   93 33 66   121 43 86   147 52 104   170 60 121   192 68 136   213 75 151   232 82 164   250 88 177   255 94 189   255 99 200   255 104 209   255 108 216   0 18 14   0 18 14   0 18 14   0 18 14   0 44 34   0 67 51   0 88 67   0 107 82   0 123 94   255 114 55   51 51 51   51 51 51   51 51 51   51 51 51   51 51 51   51 51 51   51 51 51   51 51 51   51 51 51   51 51 51   51 51 51   
255 255 255   255 255 255   255 255 255   255 255 255   255 255 255   255 255 255   19 100 42   43 218 92   56 255 120   65 255 141   72 255 156   76 255 165   74 255 160   51 51 51   51 51 51   11 18 6   47 74 27   37 13 26   69 24 49   98 34 69   123 43 87   147 52 104   169 60 120   190 67 134   209 74 148   227 80 161   244 86 173   255 91 183   255 96 193   255 100 200   0 18 14   0 18 14   0 18 14   0 18 14   0 18 14   0 34 26   0 55 42   0 73 55   0 83 63   255 255 198   255 117 56   51 51 51   51 51 51   51 51 51   51 51 51   51 51 51   51 51 51   51 51 51   51 51 51   51 51 51   51 51 51   
255 255 255   255 255 255   255 255 255   255 255 255   255 255 255   255 255 255   255 255 255   34 176 74   47 239 101   56 255 122   68 255 131   77 255 148   70 255 151   51 51 51   51 51 51   11 18 6   11 18 6   19 7 14   43 15 31   72 25 51   98 35 70   122 43 87   145 51 102   165 58 117   185 65 131   203 71 143   219 77 155   234 83 166   247 87 175   255 91 182   0 18 14   0 18 14   0 18 14   0 18 14   0 18 14   0 18 14   0 18 14   0 30 23   255 255 206   255 255 186   204 86 41   255 255 165   61 204 255   67 222 255   51 51 51   51 51 51   51 51 51   51 51 51   51 51 51   51 51 51   51 51 51   
255 255 255   255 255 255   255 255 255   255 255 255   255 255 255   255 255 255   255 255 255   255 255 255   35 180 76   45 191 88   65 255 125   83 255 161   81 255 157   54 255 118   34 42 53   11 18 6   19 7 14   19 7 14   19 7 14   45 16 32   72 25 51   96 34 68   118 42 84   139 49 99   159 56 112   177 62 125   193 68 137   208 73 147   220 78 156   230 81 163   19 7 14   15 5 11   15 5 11   15 5 11   145 46 108   168 53 125   187 60 139   201 64 150   255 255 165   241 255 168   224 255 173   255 255 156   255 255 165   63 208 255   68 225 255   51 51 51   51 51 51   51 51 51   51 51 51   51 51 51   51 51 51   
255 255 255   255 255 255   255 255 255   255 255 255   255 255 255   255 255 255   255 255 255   255 255 255   255 255 255   31 130 60   49 208 95   62 255 121   69 255 133   61 255 118   15 18 23   19 7 14   19 7 14   19 7 14   19 7 14   19 7 14   43 15 30   67 24 48   90 32 64   111 39 79   131 46 92   149 52 105   165 58 117   179 63 127   191 67 135   199 70 141   15 5 11   15 5 11   63 20 47   90 28 66   114 36 85   136 43 101   155 49 115   166 53 123   168 255 122   184 255 139   194 255 150   255 255 144   255 255 155   139 255 255   63 209 255   68 225 255   51 51 51   51 51 51   51 51 51   51 51 51   51 51 51   
248 234 255   255 255 255   255 255 255   255 255 255   255 255 255   255 255 255   255 255 255   255 255 255   255 255 255   255 255 255   28 118 54   41 173 80   48 204 93   4 19 8   15 18 23   15 18 23   19 7 14   19 7 14   19 7 14   19 7 14   19 7 14   37 13 26   60 21 42   81 28 57   101 35 71   119 42 84   135 47 95   148 52 105   159 56 113   165 58 117   15 5 11   15 5 11   29 9 21   55 17 41   80 25 59   101 32 75   118 37 88   97 171 75   123 216 95   145 255 112   159 255 122   238 255 130   255 255 141   141 255 255   61 195 255   62 207 255   66 218 255   51 51 51   51 51 51   51 51 51   51 51 51   
214 201 230   244 230 255   255 254 255   255 255 255   255 255 255   255 255 255   255 255 255   255 255 255   255 255 255   255 255 255   4 19 8   14 58 27   4 19 8   21 5 2   48 11 5   15 18 23   19 7 14   19 7 14   19 7 14   19 7 14   19 7 14   19 7 14   27 9 19   48 17 34   68 24 48   86 30 61   101 36 72   114 40 81   123 43 87   124 44 88   15 5 11   15 5 11   15 5 11   15 5 11   42 13 31   62 19 46   73 23 54   62 110 48   87 154 67   108 190 83   187 241 102   210 255 115   231 255 126   46 154 237   52 172 255   57 188 255   60 201 255   51 51 51   51 51 51   51 51 51   51 51 51   
174 164 187   205 193 220   231 217 248   253 238 255   255 255 255   255 255 255   255 255 255   255 255 255   255 255 255   255 250 255   4 19 8   4 19 8   255 255 255   6 1 0   8 6 1   15 18 23   15 18 23   19 7 14   19 7 14   19 7 14   93 17 234   123 23 255   145 27 255   162 30 255   173 32 255   176 33 255   64 22 45   75 26 53   81 28 57   15 5 11   15 5 11   15 5 11   15 5 11   15 5 11   15 5 11   15 5 11   14 25 10   23 41 18   47 82 36   62 109 47   157 203 86   181 233 99   201 255 110   40 134 206   46 152 233   50 168 255   54 180 255   51 51 51   51 51 51   51 51 51   51 51 51   
128 120 137   160 151 172   187 176 201   209 197 225   227 214 244   241 227 255   250 235 255   252 237 255   245 231 255   219 206 235   56 59 62   171 179 189   12 6 13   12 6 13   12 6 13   12 6 13   12 6 13   5 15 16   19 7 14   60 11 152   94 17 237   119 22 255   139 26 255   162 38 255   179 46 255   178 34 255   178 33 255   28 10 20   19 7 14   25 13 10   15 5 11   15 5 11   15 5 11   15 5 11   15 5 11   14 25 10   14 25 10   14 25 10   14 25 10   101 130 55   126 163 69   149 192 81   168 216 91   34 113 173   39 130 200   44 146 224   47 156 240   51 51 51   51 51 51   51 51 51   51 51 51   
74 70 80   108 102 116   136 128 146   159 150 171   178 167 191   191 180 205   199 187 214   200 188 215   191 180 205   157 148 169   12 6 13   12 6 13   12 6 13   12 6 13   12 6 13   12 6 13   12 6 13   12 6 13   9 1 24   55 10 139   84 16 213   108 20 255   128 25 255   180 81 255   255 241 255   199 76 255   173 32 255   25 13 10   25 13 10   25 13 10   25 13 10   15 23 14   15 23 14   15 23 14   15 23 14   14 25 10   16 21 9   16 21 9   39 51 21   66 86 36   91 118 50   113 146 62   128 166 70   27 90 138   32 107 164   36 121 187   51 51 51   51 51 51   51 51 51   51 51 51   51 51 51   
22 21 24   48 45 52   78 73 84   102 96 109   120 113 129   133 125 143   140 132 151   139 131 149   123 116 132   52 49 56   77 40 85   119 61 130   150 77 163   174 89 190   12 6 13   12 6 13   12 6 13   12 6 13   9 1 24   42 8 107   70 13 177   93 17 234   112 21 255   138 37 255   211 127 255   191 84 255   160 30 255   156 29 255   25 13 10   25 13 10   25 13 10   15 23 14   15 23 14   15 23 14   15 23 14   16 21 9   16 21 9   16 21 9   16 21 9   28 37 15   52 68 28   212 74 88   255 92 109   255 107 126   24 81 125   28 93 143   51 51 51   51 51 51   51 51 51   51 51 51   51 51 51   
22 21 24   22 21 24   22 21 24   34 32 36   52 49 56   65 61 69   69 65 74   62 58 66   27 25 29   12 6 13   66 34 72   104 53 114   133 68 145   157 80 171   182 97 198   12 6 13   12 6 13   12 6 13   9 1 24   25 4 63   52 10 132   75 14 190   95 17 238   111 21 255   127 26 255   138 28 255   143 27 255   141 26 255   255 102 255   255 110 255   255 115 255   15 23 14   15 23 14   15 23 14   15 23 14   18 7 8   18 7 8   16 21 9   16 21 9   65 23 27   132 46 55   188 66 78   238 83 99   255 99 117   255 112 132   51 51 51   51 51 51   51 51 51   51 51 51   51 51 51   51 51 51   
22 21 24   22 21 24   22 21 24   22 21 24   22 21 24   22 21 24   22 21 24   22 21 24   51 51 51   12 6 13   45 23 49   83 42 90   112 57 122   135 69 147   154 79 169   172 90 188   12 6 13   12 6 13   9 1 24   9 1 24   31 6 79   54 10 137   74 14 186   91 17 228   104 19 255   115 21 255   121 23 255   237 91 255   255 100 255   255 109 255   255 115 255   255 119 255   255 117 255   15 23 14   15 23 14   148 59 69   18 7 8   18 7 8   18 6 7   37 13 15   100 35 41   155 54 64   203 71 84   255 116 118   255 110 124   255 111 131   51 51 51   51 51 51   51 51 51   51 51 51   51 51 51   
71 9 235   84 10 255   90 11 255   92 11 255   91 11 255   51 51 51   51 51 51   51 51 51   51 51 51   12 6 13   18 9 19   56 28 61   85 44 93   109 56 119   128 66 140   12 6 13   12 6 13   12 6 13   9 1 24   9 1 24   9 1 24   30 5 76   50 9 127   67 12 169   80 15 203   91 17 228   199 76 219   226 87 250   251 96 255   255 110 255   255 115 255   255 117 255   255 119 255   3 15 20   78 31 36   108 42 50   133 52 62   10 8 12   18 6 7   18 6 7   61 21 25   115 40 47   164 57 68   208 73 86   247 87 102   255 98 115   51 51 51   51 51 51   51 51 51   51 51 51   51 51 51   
92 11 255   97 12 255   101 13 255   104 13 255   106 13 255   106 13 255   104 13 255   96 12 255   51 51 51   0 3 15   12 6 13   23 12 25   54 27 59   78 40 86   98 50 107   12 6 13   12 6 13   20 21 10   20 21 10   9 1 24   9 1 24   9 1 24   22 4 57   39 7 99   52 9 132   153 59 169   184 70 203   211 81 233   236 91 255   255 138 255   255 221 255   255 115 255   255 115 255   255 115 255   33 13 15   62 24 28   10 8 12   10 8 12   18 6 7   18 6 7   18 6 7   70 24 29   119 42 49   163 57 68   202 71 84   233 82 96   51 51 51   51 51 51   51 51 51   51 51 51   51 51 51   
96 12 255   101 13 255   105 13 255   108 14 255   110 14 255   111 14 255   111 14 255   108 14 255   102 13 255   0 3 15   12 6 13   12 6 13   16 8 17   42 21 46   12 6 13   12 6 13   12 6 13   20 21 10   20 21 10   20 21 10   9 1 24   9 1 24   9 1 24   9 1 24   100 38 110   135 52 149   166 63 183   193 74 213   217 83 239   242 97 255   255 138 255   255 110 255   255 109 255   255 110 255   18 7 8   18 7 8   10 8 12   7 23 18   7 23 18   18 6 7   18 6 7   18 6 7   69 24 28   113 40 47   151 53 62   176 62 73   51 51 51   51 51 51   51 51 51   51 51 51   51 51 51   
98 12 255   102 13 255   106 14 255   110 15 255   113 16 255   113 15 255   113 14 255   111 14 255   108 14 255   101 13 255   18 8 14   12 6 13   12 6 13   12 6 13   12 6 13   12 6 13   20 21 10   20 21 10   20 21 10   20 21 10   20 21 10   9 1 24   17 6 18   38 14 42   79 30 87   114 44 126   145 55 159   172 66 189   196 75 216   217 83 239   236 91 255   251 96 255   255 100 255   255 102 255   18 7 8   21 24 2   19 66 50   59 202 153   91 255 234   7 23 18   18 6 7   18 6 7   18 6 7   54 19 22   88 31 36   51 51 51   51 51 51   51 51 51   51 51 51   51 51 51   51 51 51   
97 12 255   102 14 255   111 20 255   127 37 255   140 50 255   132 39 255   118 21 255   112 14 255   109 14 255   105 13 255   95 12 255   18 8 14   18 8 14   18 8 14   18 8 14   18 8 14   20 21 10   20 21 10   20 21 10   20 21 10   20 21 10   20 21 10   17 6 18   17 6 18   54 21 60   90 34 99   120 46 133   147 56 163   172 66 189   193 74 213   211 81 233   226 87 250   237 91 255   240 92 255   18 3 24   7 23 18   7 23 18   38 129 98   69 234 178   94 255 242   7 23 18   18 6 7   18 6 7   18 6 7   51 51 51   51 51 51   51 51 51   51 51 51   51 51 51   51 51 51   51 51 51   
95 12 255   102 16 255   124 38 255   172 93 255   218 145 255   200 123 255   144 55 255   114 19 255   108 14 255   105 13 255   98 12 255   80 10 255   18 8 14   18 8 14   18 8 14   18 8 14   20 21 10   20 21 10   20 21 10   20 21 10   20 21 10   20 21 10   17 6 18   17 6 18   26 10 28   62 23 68   93 35 102   120 46 133   145 55 159   166 63 183   184 70 203   199 76 219   208 80 230   209 80 230   8 22 8   8 22 8   7 23 18   7 23 18   41 138 105   65 222 168   79 255 203   255 30 255   255 32 255   51 51 51   51 51 51   51 51 51   51 51 51   51 51 51   51 51 51   51 51 51   51 51 51   
92 12 255   100 16 255   124 42 255   183 110 255   244 181 255   234 166 255   163 81 255   116 25 255   106 14 255   103 13 255   97 12 255   86 11 255   18 8 14   18 8 14   18 8 14   18 8 14   20 21 10   20 21 10   20 21 10   20 21 10   20 21 10   20 21 10   17 6 18   17 6 18   17 6 18   30 11 33   62 23 68   90 34 99   114 44 126   135 52 149   153 59 169   167 64 184   174 67 192   169 65 186   8 22 8   8 22 8   7 23 18   7 23 18   14 172 167   19 226 220   22 255 255   25 255 255   27 255 255   255 31 255   51 51 51   51 51 51   51 51 51   51 51 51   51 51 51   51 51 51   51 51 51   
88 11 255   94 13 255   107 26 255   139 61 255   174 101 255   173 98 255   136 53 255   109 20 255   102 13 255   99 12 255   94 12 255   84 10 255   18 8 14   18 8 14   18 8 14   18 8 14   18 8 14   20 21 10   20 21 10   22 7 8   22 7 8   22 7 8   22 7 8   17 6 18   17 6 18   17 6 18   26 10 28   54 21 60   79 30 87   100 38 110   117 45 129   129 49 142   132 51 146   255 228 75   255 239 79   255 228 75   6 71 69   12 142 138   16 193 187   20 235 228   23 255 255   26 255 255   28 255 255   30 255 255   32 255 255   51 51 51   51 51 51   51 51 51   51 51 51   51 51 51   51 51 51   
84 10 255   88 11 255   93 14 255   102 22 255   112 31 255   113 31 255   105 21 255   99 14 255   96 12 255   94 12 255   89 11 255   80 10 255   18 8 14   18 8 14   18 8 14   18 8 14   18 8 14   20 21 10   22 7 8   22 7 8   22 7 8   22 7 8   22 7 8   17 6 18   17 6 18   17 6 18   17 6 18   17 6 18   38 14 42   58 22 64   73 28 81   81 31 89   65 25 71   255 230 76   255 244 80   255 252 83   7 89 87   12 143 139   16 189 183   19 228 222   22 255 255   25 255 255   27 255 255   30 255 255   31 255 255   33 255 255   51 51 51   51 51 51   51 51 51   51 51 51   51 51 51   
78 10 255   82 10 255   85 11 255   88 12 255   91 13 255   93 13 255   92 12 255   92 11 255   90 11 255   88 11 255   82 10 255   73 9 240   18 8 14   18 8 14   18 8 14   18 8 14   18 8 14   18 8 14   22 7 8   22 7 8   22 7 8   22 7 8   22 7 8   22 7 8   1 13 23   17 6 18   17 6 18   17 6 18   17 6 18   17 6 18   17 6 18   17 183 255   201 255 91   255 224 74   255 239 79   255 250 83   7 84 82   11 134 130   15 177 172   18 216 210   21 251 244   24 255 255   26 255 255   31 255 255   31 255 255   32 255 255   33 255 255   51 51 51   51 51 51   51 51 51   51 51 51   
72 9 237   76 9 250   79 10 255   81 10 255   83 10 255   85 11 255   85 11 255   85 10 255   83 10 255   80 10 255   74 9 245   63 8 209   4 8 20   4 8 20   3 12 11   3 12 11   3 12 11   3 12 11   22 7 8   22 7 8   22 7 8   22 7 8   22 7 8   22 7 8   11 16 5   1 13 23   1 13 23   8 83 149   10 110 198   12 131 236   14 145 255   198 255 90   201 255 91   193 255 87   255 255 157   255 243 80   6 71 69   10 119 116   13 162 157   17 200 194   20 235 228   22 255 255   26 255 255   123 255 255   84 255 255   31 255 255   32 255 255   32 255 255   51 51 51   51 51 51   51 51 51   
65 8 214   69 8 226   72 9 236   74 9 245   76 9 251   77 10 254   77 10 255   77 9 253   75 9 246   71 9 234   64 8 212   50 6 165   10 19 25   10 19 25   3 12 11   3 12 11   3 12 11   3 12 11   22 7 8   22 7 8   22 7 8   22 7 8   22 7 8   11 16 5   86 131 39   109 165 49   128 195 58   145 220 66   160 243 72   221 255 120   255 255 192   191 255 87   195 255 88   192 255 87   255 228 100   255 231 76   4 54 52   8 101 98   12 143 139   15 181 176   18 215 209   21 247 240   23 255 255   41 255 255   79 255 255   30 255 255   31 255 255   32 255 255   51 51 51   51 51 51   51 51 51   
57 7 187   60 7 199   64 8 210   66 8 217   68 8 223   69 8 226   69 8 226   67 8 222   65 8 214   60 7 199   51 6 170   10 19 25   10 19 25   10 19 25   3 12 11   3 12 11   3 12 11   3 12 11   3 12 11   22 7 8   22 7 8   22 7 8   18 28 8   51 78 23   77 117 35   99 151 45   119 180 54   135 205 61   150 228 68   163 247 74   178 255 82   181 255 82   186 255 84   185 255 84   255 204 67   255 217 71   2 32 31   6 79 77   10 121 118   13 159 154   16 194 188   19 226 219   21 255 248   24 255 255   26 255 255   28 255 255   29 255 255   197 57 255   215 62 255   229 66 255   51 51 51   
47 6 156   51 6 169   54 7 179   56 7 186   58 7 191   59 7 193   58 7 192   56 7 186   53 6 175   46 6 154   32 4 108   10 19 25   10 19 25   10 19 25   3 12 11   3 12 11   3 12 11   3 12 11   3 12 11   51 51 51   22 7 8   11 16 5   11 16 5   40 60 18   66 100 30   88 133 40   146 255 177   165 255 201   181 255 220   194 255 236   203 255 247   170 255 77   174 255 79   173 255 78   255 187 62   255 199 66   1 21 20   4 54 53   8 96 94   11 135 131   14 169 165   17 202 196   19 231 225   22 255 251   24 255 255   26 255 255   172 50 255   194 56 255   215 63 255   229 66 255   242 70 255   
36 4 120   40 5 133   43 5 143   45 5 150   47 6 154   47 6 155   46 5 151   43 5 143   38 4 125   27 3 89   101 212 138   147 255 201   172 255 236   188 255 255   193 255 255   181 255 249   3 12 11   10 19 25   14 23 3   14 23 3   14 23 3   11 16 5   11 16 5   67 119 82   100 178 122   126 224 154   148 255 180   167 255 203   182 255 222   196 255 238   206 255 250   212 255 255   213 255 255   158 239 71   234 167 55   252 180 59   1 21 20   1 21 20   5 69 67   9 108 105   12 143 139   15 175 170   17 205 199   19 232 226   21 255 249   141 41 255   165 48 255   195 59 255   238 78 255   255 84 255   243 72 255   
23 3 76   27 3 90   30 3 100   32 4 107   33 4 109   32 4 108   30 3 101   25 3 85   15 1 50   96 201 131   141 255 193   170 255 233   191 255 255   206 255 255   213 255 255   213 255 255   198 255 255   10 19 25   14 23 3   14 23 3   14 23 3   11 16 5   32 56 38   71 126 87   101 179 123   125 222 153   146 255 178   164 255 200   182 255 221   226 255 255   242 255 255   214 255 255   215 255 255   210 255 255   203 145 48   219 156 51   1 21 20   1 21 20   3 38 37   6 78 75   9 113 110   12 146 142   15 176 171   17 203 197   106 30 193   131 38 238   154 45 255   187 58 255   255 93 255   255 126 255   255 99 255   
6 0 20   10 1 35   13 1 45   15 2 51   15 2 51   13 1 44   8 1 26   6 0 20   62 129 84   117 246 161   152 255 208   177 255 243   196 255 255   210 255 255   219 255 255   220 255 255   213 255 255   181 255 249   176 209 223   195 231 247   0 19 18   11 20 14   34 60 41   69 123 85   97 173 119   121 214 147   141 250 172   159 255 194   182 255 218   255 255 255   255 255 255   245 255 255   212 255 255   211 255 255   189 255 230   180 128 42   1 21 20   1 21 20   1 21 20   3 44 43   6 80 78   9 114 111   12 144 140   68 19 123   94 27 171   119 34 216   142 41 255   168 50 255   224 77 255   255 119 255   255 115 255   
6 0 20   6 0 20   6 0 20   2 15 13   43 255 234   44 255 237   44 255 237   2 15 13   78 163 106   121 255 166   152 255 209   176 255 241   194 255 255   225 255 255   246 255 255   219 255 255   213 255 255   193 255 255   179 212 227   202 239 255   0 19 18   11 20 14   30 53 36   64 113 78   91 161 111   114 202 139   134 238 163   152 255 185   170 255 205   240 255 255   255 255 255   246 255 255   205 255 250   205 255 250   193 255 235   19 13 4   1 21 20   1 21 20   1 21 20   1 21 20   3 43 42   6 77 75   25 7 45   54 15 98   81 23 147   105 30 191   128 37 232   150 43 255   180 55 255   226 77 255   251 87 255   
38 223 204   40 238 218   43 250 229   44 255 238   45 255 243   46 255 247   46 255 247   12 25 16   78 163 106   117 246 161   146 255 200   169 255 231   186 255 255   208 255 255   225 255 255   210 255 255   206 255 255   188 255 255   155 183 196   177 209 224   0 19 18   11 20 14   22 38 26   55 98 67   82 146 100   105 186 128   125 221 152   142 252 173   158 255 192   176 255 212   202 255 236   198 255 237   196 255 238   196 255 239   187 255 227   8 23 21   1 21 20   1 21 20   1 21 20   1 21 20   1 21 20   13 3 24   13 3 24   39 11 70   66 19 119   90 26 164   113 32 205   134 38 243   155 45 255   178 53 255   198 60 255   
39 231 212   42 245 224   44 255 234   45 255 242   46 255 248   47 255 251   47 255 252   12 25 16   69 144 94   107 224 146   135 255 185   157 255 215   174 255 238   186 255 255   194 255 255   196 255 255   191 255 255   172 255 236   108 128 137   1 177 164   0 19 18   11 20 14   11 20 14   44 77 53   71 125 86   94 166 114   114 201 138   131 232 160   146 255 178   159 255 194   171 255 207   179 255 218   184 255 224   184 255 225   174 255 212   8 23 21   8 23 21   8 23 21   1 21 20   1 21 20   13 3 24   13 3 24   13 3 24   21 6 39   49 14 89   74 21 134   97 28 176   118 34 214   138 40 250   156 45 255   173 50 255   
40 235 215   42 247 227   44 255 236   48 255 243   64 255 249   63 255 252   49 255 253   12 25 16   52 109 71   90 190 124   119 249 163   140 255 192   157 255 215   169 255 231   176 255 241   177 255 243   170 255 233   147 255 201   1 124 115   1 173 161   0 19 18   11 20 14   11 20 14   29 52 35   57 101 69   80 142 98   100 178 122   118 209 144   133 236 162   146 255 178   157 255 191   165 255 201   170 255 207   169 255 206   155 255 189   8 23 21   8 23 21   8 23 21   8 23 21   8 23 21   13 3 24   13 3 24   13 3 24   13 3 24   30 8 54   55 16 101   79 22 143   100 29 182   120 34 218   138 40 251   155 44 255   
40 235 215   42 247 226   45 255 235   74 255 243   192 255 252   168 255 254   60 255 251   46 255 249   26 55 36   67 142 92   97 203 133   119 249 163   135 255 185   146 255 200   152 255 209   152 255 208   141 255 193   101 212 138   191 252 89   201 255 94   0 19 18   0 19 18   11 20 14   11 20 14   40 71 49   64 114 78   85 150 103   102 182 125   118 208 143   131 231 159   141 250 172   149 255 181   153 255 186   150 255 182   117 207 142   8 23 21   8 23 21   8 23 21   8 23 21   8 23 21   13 3 24   13 3 24   13 3 24   13 3 24   13 3 24   35 10 63   59 17 107   81 23 147   101 29 183   119 34 216   135 39 245   
40 232 213   41 244 223   44 253 232   80 255 239   191 255 247   151 255 249   57 255 246   45 255 244   12 25 16   35 75 49   67 142 92   90 190 124   107 224 146   117 246 161   121 255 166   117 246 161   96 201 131   193 255 90   207 255 97   218 255 102   225 255 105   0 19 18   11 20 14   11 20 14   20 35 24   45 80 55   66 118 81   84 150 103   100 177 121   112 199 137   122 217 149   129 229 157   131 232 160   123 218 150   95 255 241   8 23 21   8 23 21   8 23 21   8 23 21   8 23 21   8 23 21   13 3 24   13 3 24   13 3 24   13 3 24   13 3 24   36 10 66   58 17 106   79 22 143   97 28 176   113 32 204   
39 227 208   40 238 218   42 247 226   49 255 232   66 255 237   57 255 239   45 255 239   44 255 236   43 252 231   12 25 16   26 55 36   52 109 71   69 144 94   78 163 106   78 163 106   166 219 77   186 245 87   203 255 95   216 255 101   227 255 106   235 255 109   239 255 111   13 17 6   11 20 14   11 20 14   21 38 26   44 78 53   63 111 76   78 138 95   91 161 110   100 177 122   105 185 127   102 181 125   75 208 190   90 250 228   104 255 255   8 23 21   8 23 21   8 23 21   8 23 21   8 23 21   8 23 21   13 3 24   13 3 24   13 3 24   13 3 24   13 3 24   32 9 59   53 15 96   70 20 128   85 24 154   
37 220 202   39 230 211   41 238 218   42 245 224   43 249 228   43 251 230   43 251 230   42 247 227   41 241 220   2 15 13   2 15 13   12 25 16   12 25 16   122 161 57   150 198 70   173 228 81   192 253 89   208 255 97   222 255 104   236 255 111   245 255 116   245 255 115   245 255 114   13 17 6   11 20 14   11 20 14   15 27 18   35 62 43   51 90 62   63 111 76   70 124 85   70 124 85   51 143 130   69 190 174   84 232 212   97 255 246   109 255 255   8 23 21   8 23 21   8 23 21   8 23 21   8 23 21   8 23 21   9 2 1   13 3 24   13 3 24   13 3 24   13 3 24   19 5 35   34 10 62   35 10 64   
36 210 193   37 220 202   39 228 209   40 234 214   40 238 218   41 239 219   40 238 218   40 234 215   38 226 207   36 213 195   2 15 13   52 69 24   97 128 45   129 171 60   155 205 72   176 233 82   194 255 91   210 255 98   231 255 110   255 255 138   255 255 151   255 255 129   249 255 116   245 255 114   13 17 6   11 20 14   11 20 14   11 20 14   11 20 14   20 36 25   15 27 19   23 65 60   43 121 110   61 169 154   76 211 193   90 249 227   102 255 255   8 23 21   8 23 21   8 23 21   8 23 21   8 23 21   8 23 21   9 2 1   101 29 16   116 33 18   51 51 51   51 51 51   51 51 51   51 51 51   51 51 51   
34 198 182   35 208 191   37 215 197   38 221 202   38 224 205   38 225 206   38 223 204   37 218 200   35 208 191   33 192 176   13 17 6   63 84 29   102 135 48   132 174 62   156 206 73   177 233 82   194 255 91   211 255 99   246 255 122   255 255 184   255 255 218   255 255 161   253 255 120   245 255 114   236 255 110   0 19 18   0 19 18   0 19 18   0 19 18   8 23 21   8 23 21   13 37 34   34 94 86   52 143 131   67 186 170   81 224 205   93 255 235   103 255 255   8 23 21   8 23 21   8 23 21   8 23 21   9 2 1   32 9 5   58 16 9   51 51 51   51 51 51   51 51 51   51 51 51   51 51 51   51 51 51   
31 184 169   33 193 177   34 200 184   35 205 188   35 208 190   35 208 190   35 205 188   34 198 181   32 186 170   28 165 151   13 17 6   68 89 31   104 137 48   132 174 61   155 205 72   175 231 82   192 253 89   208 255 98   245 255 122   255 255 187   255 255 225   255 255 167   252 255 120   242 255 113   234 255 109   213 255 99   1 172 160   1 159 148   51 51 51   8 23 21   8 23 21   8 23 21   22 63 57   41 113 103   57 157 143   70 196 179   83 229 209   93 255 236   102 255 255   109 255 255   8 23 21   8 23 21   51 51 51   51 51 51   51 51 51   51 51 51   51 51 51   51 51 51   51 51 51   51 51 51   51 51 51   
28 167 153   30 176 161   31 182 167   32 187 171   32 188 173   32 187 172   31 183 167   29 173 159   27 157 144   21 127 116   18 23 8   67 89 31   102 134 47   129 170 60   152 200 71   171 225 80   187 247 87   202 255 95   226 255 109   255 255 142   255 255 162   255 255 136   242 255 114   236 255 110   228 255 107   208 255 97   0 100 93   51 51 51   51 51 51   51 51 51   8 23 21   8 23 21   8 23 21   28 77 71   44 123 112   58 162 148   71 196 179   81 226 206   90 250 228   96 255 244   99 255 251   93 255 235   51 51 51   51 51 51   51 51 51   51 51 51   51 51 51   51 51 51   51 51 51   51 51 51   51 51 51   
25 146 134   26 155 142   27 161 147   28 164 151   28 165 151   27 162 148   26 155 142   24 141 130   20 116 107   51 51 51   15 20 7   63 84 29   97 128 45   124 163 58   146 193 68   165 218 77   181 239 84   195 255 91   209 255 98   227 255 109   239 255 115   235 255 111   231 255 108   228 255 106   220 255 103   198 255 92   51 51 51   51 51 51   51 51 51   51 51 51   51 51 51   8 23 21   8 23 21   12 33 30   29 81 74   44 122 112   57 157 143   67 186 170   75 209 191   80 223 204   80 222 202   51 51 51   51 51 51   51 51 51   51 51 51   51 51 51   51 51 51   51 51 51   51 51 51   51 51 51   51 51 51   
20 120 110   22 129 118   23 134 123   23 137 125   23 135 124   22 130 119   20 118 108   16 95 87   51 51 51   51 51 51   13 17 6   56 74 26   90 118 42   116 153 54   138 183 64   157 207 73   173 228 81   187 246 87   198 255 93   208 255 97   216 255 101   219 255 102   220 255 103   217 255 101   208 255 97   182 241 85   51 51 51   51 51 51   51 51 51   51 51 51   51 51 51   51 51 51   8 23 21   8 23 21   8 23 21   26 72 66   39 108 98   49 136 124   56 155 141   57 159 145   51 51 51   51 51 51   51 51 51   51 51 51   51 51 51   51 51 51   51 51 51   51 51 51   51 51 51   51 51 51   51 51 51   
15 87 80   16 96 88   17 100 92   17 101 92   16 96 88   14 84 77   9 57 52   51 51 51   51 51 51   51 51 51   13 17 6   45 59 21   79 105 37   106 140 49   129 170 60   147 194 69   163 215 76   177 233 82   188 248 88   197 255 92   204 255 95   207 255 97   208 255 97   204 255 95   192 253 90   156 205 73   51 51 51   51 51 51   51 51 51   51 51 51   51 51 51   51 51 51   51 51 51   51 51 51   8 23 21   8 23 21   12 34 31   20 57 52   51 51 51   51 51 51   51 51 51   51 51 51   51 51 51   51 51 51   51 51 51   51 51 51   51 51 51   51 51 51   51 51 51   51 51 51   51 51 51   
