P3
51 51
255
51 51 51   51 51 51   51 51 51   51 51 51   51 51 51   51 51 51   51 51 51   51 51 51   51 51 51   51 51 51   51 51 51   51 51 51   51 51 51   51 51 51   51 51 51   51 51 51   51 51 51   51 51 51   51 51 51   51 51 51   51 51 51   51 51 51   51 51 51   51 51 51   51 51 51   51 51 51   51 51 51   51 51 51   51 51 51   25 19 1   45 34 3   112 85 7   173 131 12   243 177 29   255 238 108   255 255 190   255 255 86   255 255 28   51 51 51   51 51 51   51 51 51   51 51 51   51 51 51   51 51 51   51 51 51   8 13 16   31 47 59   51 78 97   71 108 134   91 138 170   126 224 255   
51 51 51   51 51 51   51 51 51   51 51 51   51 51 51   51 51 51   51 51 51   51 51 51   51 51 51   51 51 51   51 51 51   51 51 51   51 51 51   51 51 51   51 51 51   51 51 51   51 51 51   51 51 51   51 51 51   51 51 51   51 51 51   51 51 51   51 51 51   51 51 51   51 51 51   51 51 51   51 51 51   51 51 51   51 51 51   25 19 1   25 19 1   56 43 4   117 89 8   174 131 13   241 175 30   255 222 66   255 252 51   255 255 25   51 51 51   51 51 51   51 51 51   51 51 51   51 51 51   51 51 51   8 13 16   8 13 16   8 13 16   31 48 59   51 78 97   71 108 133   91 138 170   
51 51 51   51 51 51   51 51 51   51 51 51   51 51 51   51 51 51   51 51 51   51 51 51   51 51 51   51 51 51   51 51 51   51 51 51   51 51 51   51 51 51   51 51 51   51 51 51   51 51 51   51 51 51   51 51 51   51 51 51   51 51 51   51 51 51   51 51 51   51 51 51   51 51 51   51 51 51   51 51 51   51 51 51   51 51 51   25 19 1   25 19 1   25 19 1   58 44 4   114 86 8   168 127 12   221 165 18   255 200 21   255 226 20   51 51 51   51 51 51   51 51 51   51 51 51   51 51 51   51 51 51   8 13 16   8 13 16   8 13 16   8 13 16   31 48 59   51 78 97   71 108 134   
51 51 51   51 51 51   51 51 51   51 51 51   51 51 51   51 51 51   51 51 51   51 51 51   51 51 51   51 51 51   51 51 51   51 51 51   51 51 51   51 51 51   51 51 51   51 51 51   51 51 51   51 51 51   51 51 51   51 51 51   51 51 51   51 51 51   51 51 51   51 51 51   51 51 51   51 51 51   51 51 51   51 51 51   51 51 51   25 19 1   25 19 1   25 19 1   25 19 1   51 39 3   105 79 7   154 117 10   198 150 13   51 51 51   51 51 51   51 51 51   51 51 51   51 51 51   51 51 51   51 51 51   8 13 16   8 13 16   8 13 16   8 13 16   8 13 16   31 48 59   51 78 97   
51 51 51   51 51 51   51 51 51   51 51 51   51 51 51   51 51 51   51 51 51   51 51 51   51 51 51   51 51 51   51 51 51   51 51 51   51 51 51   51 51 51   51 51 51   51 51 51   51 51 51   51 51 51   51 51 51   51 51 51   51 51 51   51 51 51   51 51 51   51 51 51   51 51 51   51 51 51   51 51 51   51 51 51   51 51 51   25 19 1   25 19 1   25 19 1   25 19 1   25 19 1   37 28 2   85 65 6   126 95 8   51 51 51   51 51 51   51 51 51   51 51 51   51 51 51   51 51 51   51 51 51   8 13 16   8 13 16   8 13 16   8 13 16   8 13 16   8 13 16   31 47 59   
51 51 51   51 51 51   51 51 51   51 51 51   51 51 51   51 51 51   51 51 51   51 51 51   51 51 51   51 51 51   51 51 51   51 51 51   51 51 51   166 195 255   200 235 255   222 255 255   233 255 255   51 51 51   51 51 51   51 51 51   51 51 51   51 51 51   51 51 51   51 51 51   51 51 51   51 51 51   51 51 51   51 51 51   51 51 51   51 51 51   25 19 1   25 19 1   25 19 1   25 19 1   25 19 1   25 19 1   51 51 51   51 51 51   51 51 51   51 51 51   51 51 51   51 51 51   51 51 51   51 51 51   8 13 16   8 13 16   8 13 16   8 13 16   8 13 16   8 13 16   8 13 16   
51 51 51   51 51 51   51 51 51   51 51 51   51 51 51   51 51 51   51 51 51   51 51 51   51 51 51   51 51 51   51 51 51   51 51 51   132 155 229   168 197 255   195 230 255   217 255 255   235 255 255   245 255 255   51 51 51   51 51 51   51 51 51   51 51 51   51 51 51   51 51 51   51 51 51   51 51 51   51 51 51   51 51 51   51 51 51   51 51 51   51 51 51   25 19 1   25 19 1   25 19 1   25 19 1   51 51 51   51 51 51   51 51 51   51 51 51   51 51 51   51 51 51   51 51 51   51 51 51   51 51 51   51 51 51   8 13 16   8 13 16   8 13 16   8 13 16   8 13 16   51 51 51   
51 51 51   51 51 51   51 51 51   51 51 51   51 51 51   51 51 51   51 51 51   51 51 51   51 51 51   51 51 51   51 51 51   76 90 133   120 141 209   152 179 255   179 210 255   212 246 255   255 255 255   241 255 255   238 255 255   51 51 51   51 51 51   51 51 51   51 51 51   51 51 51   51 51 51   51 51 51   51 51 51   51 51 51   51 51 51   51 51 51   51 51 51   51 51 51   51 51 51   51 51 51   51 51 51   51 51 51   51 51 51   51 51 51   51 51 51   51 51 51   51 51 51   51 51 51   51 51 51   51 51 51   51 51 51   51 51 51   51 51 51   51 51 51   51 51 51   51 51 51   51 51 51   
51 51 51   51 51 51   51 51 51   51 51 51   51 51 51   51 51 51   51 51 51   51 51 51   51 51 51   51 51 51   51 51 51   60 70 104   99 117 173   131 154 227   157 184 255   185 215 255   255 255 255   255 255 255   221 255 255   217 255 255   51 51 51   51 51 51   51 51 51   51 51 51   51 51 51   51 51 51   51 51 51   51 51 51   51 51 51   51 51 51   51 51 51   51 51 51   51 51 51   51 51 51   51 51 51   51 51 51   105 45 150   11 4 16   11 4 16   11 4 16   11 4 16   51 51 51   51 51 51   51 51 51   51 51 51   51 51 51   51 51 51   51 51 51   51 51 51   51 51 51   51 51 51   
51 51 51   51 51 51   51 51 51   51 51 51   51 51 51   51 51 51   51 51 51   51 51 51   51 51 51   51 51 51   13 15 23   34 40 60   73 86 127   104 123 181   130 153 226   153 180 255   174 204 255   192 224 255   196 231 255   197 232 255   145 238 254   51 51 51   51 51 51   27 157 221   35 207 255   42 245 255   47 255 255   50 255 255   51 51 51   51 51 51   29 185 235   33 209 255   51 51 51   51 51 51   51 51 51   63 27 90   95 40 134   11 4 16   11 4 16   11 4 16   11 4 16   11 4 16   51 51 51   51 51 51   51 51 51   51 51 51   51 51 51   51 51 51   51 51 51   51 51 51   51 51 51   
51 51 51   51 51 51   51 51 51   51 51 51   51 51 51   51 51 51   51 51 51   51 51 51   51 51 51   59 106 70   160 159 88   255 255 163   255 255 203   255 255 207   100 118 174   123 144 213   141 167 246   157 184 255   167 196 255   168 198 255   109 179 192   156 255 255   16 95 133   25 151 212   33 193 255   39 228 255   49 255 255   49 255 255   20 125 159   25 159 202   29 186 237   33 210 255   36 230 255   39 245 255   11 4 16   48 20 68   77 33 110   11 4 16   11 4 16   11 4 16   11 4 16   11 4 16   11 4 16   51 51 51   51 51 51   51 51 51   51 51 51   51 51 51   51 51 51   51 51 51   51 51 51   
51 51 51   51 51 51   51 51 51   51 51 51   51 51 51   51 51 51   234 68 149   255 98 215   51 51 51   42 76 50   119 118 65   231 231 127   255 255 207   255 255 189   66 78 115   89 105 154   108 127 187   123 144 213   132 156 229   132 155 229   255 124 97   255 136 107   255 145 113   255 143 112   29 168 237   35 203 255   117 255 255   12 79 101   18 116 148   23 147 187   27 173 220   32 197 251   44 225 255   11 4 16   11 4 16   28 12 40   57 24 81   11 4 16   11 4 16   11 4 16   11 4 16   11 4 16   11 4 16   51 51 51   51 51 51   51 51 51   51 51 51   51 51 51   51 51 51   51 51 51   51 51 51   
51 51 51   51 51 51   51 51 51   51 51 51   51 51 51   79 23 50   238 69 151   255 109 221   255 115 239   255 88 192   21 21 11   125 125 69   199 199 109   237 237 131   168 167 92   50 59 87   69 82 120   83 98 145   91 108 159   86 101 149   255 121 94   255 133 104   255 143 112   255 149 117   255 149 117   29 172 242   3 22 28   10 66 84   16 100 128   20 129 165   24 155 198   33 183 231   2 13 17   11 4 16   11 4 16   11 4 16   35 15 50   11 4 16   34 96 121   41 115 146   46 131 166   51 144 183   11 4 16   51 51 51   51 51 51   51 51 51   51 51 51   51 51 51   51 51 51   51 51 51   51 51 51   
51 51 51   51 51 51   51 51 51   51 51 51   51 51 51   20 5 12   150 43 95   230 66 146   230 251 199   255 255 239   255 255 254   21 21 11   57 57 31   91 91 50   13 15 23   13 15 23   24 28 41   37 43 64   40 47 70   215 98 77   246 112 88   255 127 99   255 165 129   255 143 112   255 147 115   255 138 108   2 13 17   7 47 60   12 80 102   17 109 139   21 135 172   2 13 17   2 13 17   11 4 16   11 4 16   11 4 16   17 50 64   26 74 95   33 94 119   39 110 140   44 126 159   49 139 177   54 152 193   57 162 206   51 51 51   51 51 51   51 51 51   51 51 51   51 51 51   51 51 51   51 51 51   
51 51 51   51 51 51   51 51 51   51 51 51   51 51 51   51 51 51   20 5 12   209 228 181   255 255 224   255 255 254   255 255 255   255 255 255   255 255 255   13 15 23   13 15 23   13 15 23   13 15 23   13 15 23   154 70 55   191 87 68   222 101 79   250 114 89   255 173 136   255 143 112   18 8 6   2 13 17   2 13 17   4 25 31   9 57 73   13 86 110   2 13 17   2 13 17   2 13 17   11 4 16   11 4 16   7 21 27   16 47 60   24 67 86   30 85 108   36 101 129   41 116 148   46 130 165   50 143 182   54 154 196   58 164 208   51 51 51   51 51 51   51 51 51   51 51 51   51 51 51   51 51 51   
51 51 51   51 51 51   51 51 51   51 51 51   51 51 51   51 51 51   139 152 120   201 219 174   245 255 212   255 255 240   255 255 255   255 255 255   255 255 255   255 255 249   9 16 11   18 8 6   18 8 6   83 38 29   126 57 45   162 74 58   193 88 69   220 100 79   243 111 87   255 119 93   18 8 6   2 13 17   2 13 17   2 13 17   5 32 40   2 13 17   4 2 19   4 2 19   2 13 17   2 13 17   3 9 11   5 15 19   13 38 48   20 57 73   26 75 95   32 91 115   37 106 134   42 122 154   47 255 255   51 149 186   54 154 196   57 160 204   51 51 51   51 51 51   51 51 51   51 51 51   51 51 51   
51 51 51   51 51 51   51 51 51   51 51 51   51 51 51   17 19 15   118 129 102   175 190 151   217 236 187   249 255 215   255 255 240   255 255 255   255 255 255   255 255 245   51 51 51   18 8 6   18 8 6   49 22 17   25 11 7   25 11 7   25 11 7   187 85 67   210 96 75   18 8 6   18 8 6   2 13 17   2 13 17   2 13 17   23 13 97   43 24 182   4 2 19   4 2 19   4 2 19   4 2 19   3 9 11   3 9 11   9 27 34   16 46 58   22 63 80   28 79 100   33 94 119   38 108 137   42 141 168   47 143 176   50 143 181   53 151 192   51 51 51   51 51 51   51 51 51   51 51 51   51 51 51   
51 51 51   51 51 51   51 51 51   51 51 51   51 51 51   17 19 15   80 88 69   137 149 118   179 195 154   211 230 182   236 255 204   253 255 219   255 255 225   251 255 217   51 51 51   51 51 51   18 8 6   197 92 62   255 148 99   25 11 7   25 11 7   25 11 7   172 79 61   18 8 6   18 8 6   18 8 6   2 13 17   4 2 19   23 13 98   39 22 165   52 29 219   4 2 19   4 2 19   4 2 19   3 9 11   3 9 11   5 14 18   11 33 42   18 50 64   23 66 84   28 81 103   33 95 120   38 108 137   42 119 152   46 130 165   49 138 176   51 51 51   51 51 51   51 51 51   51 51 51   51 51 51   
51 51 51   51 51 51   51 51 51   51 51 51   51 51 51   17 19 15   29 31 25   88 95 76   131 143 113   164 179 142   189 206 163   206 224 178   213 232 184   202 220 174   51 51 51   51 51 51   25 11 7   164 77 51   255 127 85   255 163 109   25 11 7   25 11 7   18 8 6   18 8 6   6 18 9   98 255 133   122 255 165   4 2 19   17 9 72   32 18 135   44 25 187   4 2 19   4 2 19   4 2 19   3 9 11   3 9 11   3 9 11   6 19 24   13 36 46   18 52 67   24 67 85   28 81 103   33 94 119   37 106 134   41 116 148   44 124 158   51 51 51   51 51 51   51 51 51   51 51 51   51 51 51   
51 51 51   51 51 51   51 51 51   51 51 51   51 51 51   51 51 51   17 19 15   26 28 22   72 79 62   107 117 92   132 144 114   148 162 128   152 166 132   134 146 116   51 51 51   51 51 51   25 11 7   92 43 28   196 92 61   255 128 86   255 154 103   25 11 7   25 11 7   6 18 9   39 106 52   74 203 101   111 255 145   4 2 19   8 4 34   23 13 97   35 20 149   4 2 19   4 2 19   4 2 19   3 9 11   3 9 11   3 9 11   3 9 11   7 21 27   13 38 48   18 52 67   23 66 84   28 79 101   32 91 115   35 101 128   38 108 137   51 51 51   51 51 51   51 51 51   51 51 51   51 51 51   
51 51 51   51 51 51   51 51 51   51 51 51   51 51 51   51 51 51   51 51 51   17 19 15   17 19 15   35 39 31   61 67 53   75 82 65   72 79 62   51 51 51   51 51 51   51 51 51   25 11 7   25 11 7   98 46 30   176 83 55   231 108 72   255 120 80   18 8 6   6 18 9   6 18 9   39 107 53   62 171 85   4 2 19   4 2 19   4 2 19   4 2 19   4 2 19   4 2 19   4 2 19   3 9 11   3 9 11   3 9 11   3 9 11   3 9 11   7 21 27   13 36 46   18 50 64   22 63 80   26 74 95   29 84 107   31 88 112   51 51 51   51 51 51   51 51 51   51 51 51   51 51 51   
51 51 51   51 51 51   51 51 51   51 51 51   51 51 51   51 51 51   51 51 51   18 10 15   17 19 15   17 19 15   17 19 15   17 19 15   96 255 255   51 51 51   51 51 51   51 51 51   51 51 51   25 11 7   25 11 7   49 23 15   100 47 31   105 49 33   18 8 6   51 51 51   6 18 9   6 18 9   6 18 9   4 2 19   4 2 19   4 2 19   4 2 19   4 2 19   4 2 19   4 2 19   3 9 11   3 9 11   3 9 11   3 9 11   3 9 11   3 9 11   6 19 24   11 33 42   16 45 57   20 56 71   22 64 81   51 51 51   51 51 51   51 51 51   51 51 51   51 51 51   51 51 51   
51 51 51   51 51 51   51 51 51   51 51 51   51 51 51   51 51 51   5 19 22   5 19 22   87 255 255   96 255 255   102 255 255   106 255 255   105 255 255   96 255 255   51 51 51   51 51 51   51 51 51   51 51 51   51 51 51   25 11 7   51 51 51   51 51 51   51 51 51   51 51 51   51 51 51   51 51 51   51 51 51   51 51 51   4 2 19   4 2 19   4 2 19   4 2 19   4 2 19   23 22 5   23 22 5   3 9 11   3 9 11   3 9 11   3 9 11   3 9 11   3 9 11   4 12 16   8 24 31   11 33 42   51 51 51   51 51 51   51 51 51   51 51 51   51 51 51   51 51 51   51 51 51   
51 51 51   51 51 51   51 51 51   51 51 51   51 51 51   5 19 22   57 192 223   72 242 255   84 255 255   92 255 255   119 255 255   106 255 255   103 255 255   5 19 22   5 19 22   51 51 51   51 51 51   105 50 70   140 67 93   153 73 101   51 51 51   51 51 51   51 51 51   3 19 14   37 217 157   50 255 215   3 19 14   3 19 14   22 7 13   4 2 19   4 2 19   4 2 19   4 2 19   23 22 5   23 22 5   23 22 5   3 9 11   3 9 11   3 9 11   3 9 11   3 9 11   3 9 11   3 9 11   164 39 146   51 51 51   51 51 51   51 51 51   51 51 51   51 51 51   51 51 51   51 51 51   
51 51 51   51 51 51   51 51 51   51 51 51   51 51 51   32 107 124   52 174 202   66 222 255   77 255 255   86 255 255   94 255 255   100 255 255   97 255 255   5 19 22   5 19 22   41 255 154   51 24 34   101 49 67   136 68 90   165 90 110   145 69 96   51 51 51   51 51 51   14 87 63   33 194 141   3 19 14   3 19 14   3 19 14   22 7 13   22 7 13   22 7 13   22 7 13   23 22 5   23 22 5   23 22 5   23 22 5   23 22 5   23 22 5   23 22 5   23 22 5   23 22 5   23 22 5   255 255 91   255 255 93   51 51 51   51 51 51   51 51 51   51 51 51   51 51 51   51 51 51   51 51 51   
51 51 51   189 255 167   211 255 187   223 255 198   228 255 202   15 23 13   43 144 167   57 191 222   68 227 255   76 255 255   82 255 255   86 255 255   88 255 255   5 19 22   5 19 22   2 21 12   30 14 20   77 37 51   108 52 72   126 60 84   125 60 83   60 125 236   60 123 232   6 38 27   3 19 14   3 19 14   3 19 14   3 19 14   22 7 13   22 7 13   22 7 13   255 98 174   23 22 5   23 22 5   23 22 5   23 22 5   23 22 5   23 22 5   23 22 5   23 22 5   255 255 70   255 255 77   255 255 83   255 255 85   51 51 51   51 51 51   51 51 51   51 51 51   51 51 51   51 51 51   51 51 51   
208 255 184   227 255 201   242 255 214   252 255 223   255 255 229   255 255 230   255 255 227   244 255 216   56 187 218   64 215 250   70 236 255   74 248 255   75 252 255   5 19 22   5 19 22   20 41 77   8 4 5   39 19 26   70 34 47   87 42 58   81 39 53   64 132 250   66 135 255   65 134 253   3 19 14   3 19 14   3 19 14   3 19 14   0 9 15   0 9 15   22 7 13   22 7 13   23 22 5   23 22 5   23 22 5   23 22 5   23 22 5   23 22 5   23 22 5   218 206 52   252 239 61   255 255 68   255 255 73   255 255 74   51 51 51   51 51 51   51 51 51   51 51 51   51 51 51   51 51 51   51 51 51   
224 255 198   240 255 213   253 255 224   255 255 232   255 255 238   255 255 241   255 255 241   255 255 236   252 255 223   210 255 186   56 186 217   59 198 230   59 198 231   5 19 22   7 16 30   27 55 105   37 77 145   8 4 5   13 6 9   25 12 16   62 126 239   67 134 253   67 137 255   67 138 255   3 7 14   0 9 15   0 9 15   0 9 15   0 9 15   0 9 15   22 7 13   22 7 13   108 36 65   23 22 5   23 22 5   23 22 5   23 22 5   93 88 22   136 129 33   175 165 42   208 197 50   237 224 57   255 242 61   51 51 51   51 51 51   51 51 51   51 51 51   51 51 51   51 51 51   51 51 51   51 51 51   
230 255 203   244 255 216   255 255 227   255 255 235   255 255 240   255 255 244   255 255 244   255 255 241   255 255 234   245 255 217   37 124 144   40 133 155   157 62 4   13 5 0   198 78 5   3 7 14   3 7 14   3 7 14   50 103 196   56 114 216   85 143 255   172 219 255   98 161 255   67 137 255   3 7 14   3 7 14   0 9 15   0 9 15   0 9 15   0 9 15   0 9 15   124 3 66   43 183 123   23 22 5   23 22 5   23 22 5   23 22 5   43 41 10   87 82 21   125 119 30   158 150 38   184 174 44   195 184 47   51 51 51   51 51 51   51 51 51   51 51 51   51 51 51   51 51 51   51 51 51   51 51 51   
230 255 203   243 255 215   254 255 225   255 255 234   255 255 249   255 255 248   255 255 243   255 255 241   255 255 235   251 255 223   221 255 196   140 55 3   13 5 0   13 5 0   13 5 0   3 7 14   3 7 14   3 7 14   48 99 187   53 109 207   92 146 255   255 255 255   172 219 255   67 134 253   3 7 14   3 7 14   0 9 15   0 9 15   0 9 15   0 9 15   0 9 15   111 3 59   35 147 99   49 206 138   23 22 5   23 22 5   23 22 5   23 22 5   23 22 5   67 63 16   97 92 23   115 109 27   90 183 255   51 51 51   51 51 51   51 51 51   51 51 51   51 51 51   51 51 51   51 51 51   51 51 51   
226 255 200   238 255 211   249 255 221   255 255 241   255 255 255   255 255 255   255 255 242   255 255 236   255 255 231   249 255 221   226 255 200   142 56 3   13 5 0   13 5 0   13 5 0   3 7 14   3 7 14   39 80 152   45 92 174   49 102 193   58 114 214   92 146 255   85 143 255   62 126 239   61 126 238   3 7 14   0 9 15   0 9 15   0 9 15   0 9 15   0 9 15   88 2 47   24 102 69   38 162 108   50 212 142   23 22 5   23 22 5   23 22 5   23 22 5   23 22 5   23 22 5   66 134 201   77 157 237   51 51 51   51 51 51   51 51 51   51 51 51   51 51 51   51 51 51   51 51 51   51 51 51   
218 255 193   231 255 204   241 255 213   250 255 225   255 255 255   255 255 255   255 255 232   255 255 228   253 255 224   241 255 214   220 255 195   164 250 145   13 5 0   13 5 0   13 5 0   3 7 14   28 58 109   35 72 136   40 84 158   45 94 177   49 102 193   53 109 207   56 114 216   57 117 221   57 117 221   3 7 14   0 9 15   0 9 15   0 9 15   0 9 15   0 9 15   54 1 29   11 47 32   25 108 72   5 21 14   5 21 14   19 18 24   5 10 15   5 10 15   13 27 41   33 67 101   49 100 150   60 122 184   51 51 51   51 51 51   51 51 51   51 51 51   51 51 51   51 51 51   51 51 51   51 51 51   
208 255 184   220 255 195   230 255 203   238 255 210   244 255 216   247 255 219   248 255 219   246 255 218   240 255 213   229 255 203   208 255 184   157 239 139   129 51 3   13 5 0   13 5 0   14 30 57   23 47 90   30 62 117   36 74 139   40 84 158   45 92 174   48 99 187   50 103 196   51 106 201   51 105 199   3 10 24   3 10 24   3 10 24   0 9 15   0 9 15   0 9 15   255 173 200   5 21 14   5 21 14   5 21 14   19 18 24   19 18 24   19 18 24   19 18 24   5 10 15   12 24 36   27 55 83   255 255 255   255 255 255   51 51 51   51 51 51   51 51 51   51 51 51   51 51 51   51 51 51   51 51 51   
195 255 173   207 255 183   216 255 192   224 255 198   229 255 203   233 255 206   233 255 206   231 255 204   225 255 199   213 255 188   190 255 168   131 200 116   78 31 2   106 42 2   118 46 3   8 17 32   17 35 66   24 49 94   30 62 117   35 72 136   39 80 152   42 86 164   44 91 172   45 93 176   43 138 255   50 161 255   56 178 255   59 188 255   58 186 255   0 9 15   0 9 15   255 154 183   21 9 11   5 21 14   5 21 14   19 18 24   54 52 70   115 112 149   168 163 217   214 208 255   255 253 255   255 255 255   255 255 255   255 255 255   255 255 255   51 51 51   51 51 51   51 51 51   51 51 51   51 51 51   51 51 51   
179 255 159   191 255 169   200 255 177   208 255 184   213 255 188   215 255 191   216 255 191   212 255 188   205 255 181   191 255 169   165 252 146   13 5 0   13 5 0   27 10 0   28 11 0   3 7 14   9 19 37   17 35 66   23 47 90   28 58 109   32 66 125   35 72 136   37 76 144   36 115 255   44 142 255   51 164 255   57 182 255   61 193 255   62 198 255   59 188 255   255 118 140   21 9 11   21 9 11   21 9 11   19 18 24   158 145 55   255 245 94   255 255 122   255 255 143   255 255 150   229 223 255   255 255 255   255 255 255   255 255 255   255 255 255   51 51 51   51 51 51   51 51 51   51 51 51   51 51 51   51 51 51   
161 245 142   172 255 153   182 255 161   189 255 167   193 255 171   195 255 173   195 255 172   190 255 168   181 255 160   164 250 145   130 198 115   2 18 25   2 18 25   17 15 8   17 15 8   3 7 14   3 7 14   8 17 32   14 30 57   19 40 77   23 49 92   26 54 103   25 80 179   35 113 251   43 139 255   50 161 255   94 230 255   118 255 255   62 197 255   61 195 255   255 255 175   21 9 11   21 9 11   51 51 51   24 22 8   160 147 56   255 239 91   255 255 122   255 255 203   255 255 160   255 255 153   235 229 255   255 255 255   255 255 255   255 255 255   51 51 51   51 51 51   51 51 51   51 51 51   51 51 51   51 51 51   
139 212 123   150 229 133   159 243 141   166 253 147   170 255 151   171 255 152   169 255 150   163 249 145   151 231 134   128 196 114   55 85 49   2 18 25   2 18 25   17 15 8   17 15 8   17 15 8   3 7 14   3 7 14   3 7 14   9 18 35   13 26 50   10 33 74   23 74 165   33 106 234   41 131 255   48 152 255   84 211 255   146 255 255   61 192 255   59 189 255   52 166 255   255 255 226   23 19 13   51 51 51   24 22 8   133 122 46   230 211 80   255 255 111   255 255 255   255 255 238   255 255 156   201 195 255   230 224 255   252 245 255   253 247 255   51 51 51   51 51 51   51 51 51   51 51 51   51 51 51   51 51 51   
112 172 100   124 190 110   133 203 118   139 213 123   143 218 126   143 218 126   139 212 123   130 198 115   112 171 99   72 109 63   51 51 51   51 51 51   51 51 51   51 51 51   17 15 8   17 15 8   17 15 8   15 2 17   3 7 14   3 7 14   3 10 24   7 23 51   19 63 140   29 94 208   37 119 255   44 140 255   50 157 255   56 174 255   55 177 255   56 178 255   49 158 255   255 255 255   255 255 241   11 1 1   24 22 8   87 80 30   185 170 65   255 244 93   255 255 125   255 255 147   255 255 142   160 156 207   188 183 244   206 201 255   51 51 51   51 51 51   51 51 51   51 51 51   51 51 51   51 51 51   51 51 51   
80 122 71   92 141 82   101 155 90   107 163 95   109 166 97   107 164 95   100 153 89   85 129 75   49 75 43   15 14 4   15 14 4   15 14 4   51 51 51   51 51 51   51 51 51   51 51 51   51 51 51   51 51 51   15 2 17   15 2 17   3 10 24   3 10 24   14 47 104   24 78 173   32 103 229   39 124 255   44 141 255   48 153 255   50 161 255   50 160 255   42 135 255   255 255 255   11 1 1   11 1 1   24 22 8   24 22 8   125 115 44   207 190 72   255 251 96   255 255 113   255 255 121   110 107 142   135 131 174   138 134 178   51 51 51   51 51 51   51 51 51   51 51 51   51 51 51   51 51 51   51 51 51   
38 58 33   52 79 46   60 92 54   65 99 58   65 99 58   59 90 52   43 65 38   15 23 13   15 14 4   15 14 4   15 14 4   15 14 4   15 14 4   51 51 51   51 51 51   51 51 51   51 51 51   51 51 51   5 18 0   5 18 0   5 18 0   3 10 24   7 25 56   18 58 128   26 83 185   33 104 232   38 121 255   41 133 255   43 139 255   42 136 255   23 19 13   23 19 13   11 1 1   11 1 1   24 22 8   24 22 8   47 43 16   132 121 46   198 182 69   244 224 85   240 220 84   38 37 49   51 51 51   51 51 51   51 51 51   51 51 51   51 51 51   51 51 51   51 51 51   51 51 51   51 51 51   
15 23 13   15 23 13   15 23 13   15 23 13   15 23 13   51 51 51   51 51 51   51 51 51   15 14 4   15 14 4   15 14 4   15 14 4   119 73 28   255 184 70   255 222 84   255 204 77   51 51 51   51 51 51   51 51 51   5 18 0   5 18 0   3 10 24   3 10 24   9 31 69   18 58 130   25 80 177   30 96 213   33 107 237   34 110 245   30 97 215   23 19 13   23 19 13   11 1 1   11 1 1   11 1 1   24 22 8   24 22 8   24 22 8   91 84 32   111 102 39   211 22 20   51 51 51   51 51 51   51 51 51   51 51 51   51 51 51   51 51 51   51 51 51   51 51 51   51 51 51   51 51 51   
51 51 51   51 51 51   51 51 51   51 51 51   51 51 51   51 51 51   51 51 51   51 51 51   15 14 4   15 14 4   15 14 4   23 14 5   253 156 59   255 221 83   255 255 106   255 255 98   255 161 61   51 51 51   51 51 51   51 51 51   51 51 51   51 51 51   3 10 24   3 10 24   8 25 56   15 47 105   19 63 140   22 71 158   20 65 145   23 19 13   23 19 13   11 1 1   11 1 1   11 1 1   11 1 1   11 1 1   11 1 1   11 1 1   255 38 35   203 22 20   203 22 19   51 51 51   51 51 51   51 51 51   51 51 51   51 51 51   51 51 51   51 51 51   51 51 51   51 51 51   51 51 51   
51 51 51   51 51 51   51 51 51   51 51 51   51 51 51   51 51 51   51 51 51   51 51 51   51 51 51   15 14 4   15 14 4   97 60 22   255 161 61   255 218 84   255 255 255   255 255 98   255 208 78   51 51 51   51 51 51   51 51 51   51 51 51   51 51 51   51 51 51   51 51 51   3 10 24   3 10 24   3 10 24   51 51 51   23 19 13   23 19 13   23 19 13   23 19 13   11 1 1   11 1 1   63 6 6   96 10 9   125 13 12   149 16 14   169 18 16   183 19 17   188 20 18   51 51 51   51 51 51   51 51 51   51 51 51   51 51 51   51 51 51   51 51 51   51 51 51   51 51 51   51 51 51   
51 51 51   51 51 51   51 51 51   51 51 51   51 51 51   51 51 51   51 51 51   51 51 51   51 51 51   51 51 51   51 51 51   66 41 15   221 137 52   255 191 72   255 221 84   255 223 84   255 162 61   51 51 51   51 51 51   51 51 51   51 51 51   51 51 51   51 51 51   51 51 51   51 51 51   51 51 51   51 51 51   51 51 51   51 51 51   51 51 51   51 51 51   51 51 51   11 1 1   11 1 1   42 4 4   76 8 7   105 11 10   129 14 12   149 16 14   163 17 15   167 18 16   51 51 51   51 51 51   51 51 51   51 51 51   51 51 51   51 51 51   51 51 51   51 51 51   51 51 51   51 51 51   
51 51 51   51 51 51   51 51 51   51 51 51   51 51 51   51 51 51   51 51 51   51 51 51   51 51 51   51 51 51   51 51 51   23 14 5   138 85 32   228 141 53   255 167 63   255 158 60   51 51 51   51 51 51   51 51 51   51 51 51   51 51 51   51 51 51   51 51 51   51 51 51   51 51 51   51 51 51   51 51 51   51 51 51   51 51 51   51 51 51   51 51 51   51 51 51   11 1 1   11 1 1   11 1 1   51 5 5   80 8 7   105 11 10   124 13 12   136 14 13   134 14 13   51 51 51   51 51 51   51 51 51   51 51 51   51 51 51   51 51 51   51 51 51   51 51 51   51 51 51   51 51 51   
51 51 51   51 51 51   51 51 51   51 51 51   51 51 51   51 51 51   51 51 51   51 51 51   51 51 51   51 51 51   51 51 51   51 51 51   23 14 5   77 47 18   102 63 24   51 51 51   51 51 51   51 51 51   51 51 51   51 51 51   51 51 51   51 51 51   51 51 51   51 51 51   11 180 14   18 255 23   21 255 28   51 51 51   51 51 51   51 51 51   51 51 51   51 51 51   51 51 51   11 1 1   11 1 1   18 2 1   49 5 4   74 8 7   92 10 9   99 10 9   51 51 51   51 51 51   51 51 51   51 51 51   51 51 51   51 51 51   51 51 51   51 51 51   51 51 51   51 51 51   51 51 51   
51 51 51   51 51 51   51 51 51   51 51 51   51 51 51   51 51 51   51 51 51   51 51 51   51 51 51   51 51 51   51 51 51   51 51 51   51 51 51   51 51 51   51 51 51   51 51 51   51 51 51   51 51 51   51 51 51   51 51 51   51 51 51   51 51 51   51 51 51   1 21 1   13 209 16   19 255 25   33 255 57   22 255 29   51 51 51   51 51 51   51 51 51   51 51 51   51 51 51   51 51 51   51 51 51   11 1 1   11 1 1   28 3 2   38 4 3   51 51 51   51 51 51   51 51 51   51 51 51   51 51 51   51 51 51   51 51 51   51 51 51   51 51 51   51 51 51   51 51 51   51 51 51   
51 51 51   51 51 51   51 51 51   51 51 51   51 51 51   51 51 51   51 51 51   51 51 51   51 51 51   51 51 51   51 51 51   51 51 51   51 51 51   51 51 51   51 51 51   51 51 51   51 51 51   51 51 51   51 51 51   51 51 51   51 51 51   51 51 51   51 51 51   1 21 1   11 185 14   18 255 23   25 255 36   21 255 27   51 51 51   51 51 51   51 51 51   51 51 51   51 51 51   51 51 51   51 51 51   51 51 51   51 51 51   51 51 51   51 51 51   51 51 51   51 51 51   51 51 51   51 51 51   51 51 51   51 51 51   51 51 51   51 51 51   51 51 51   51 51 51   51 51 51   51 51 51   
51 51 51   51 51 51   51 51 51   51 51 51   51 51 51   51 51 51   51 51 51   51 51 51   51 51 51   51 51 51   51 51 51   51 51 51   51 51 51   51 51 51   51 51 51   51 51 51   51 51 51   51 51 51   51 51 51   51 51 51   51 51 51   51 51 51   51 51 51   1 21 1   7 120 9   14 228 18   17 255 22   15 255 20   51 51 51   51 51 51   51 51 51   51 51 51   51 51 51   51 51 51   51 51 51   51 51 51   51 51 51   51 51 51   51 51 51   51 51 51   51 51 51   51 51 51   51 51 51   51 51 51   51 51 51   51 51 51   51 51 51   51 51 51   51 51 51   51 51 51   51 51 51   
51 51 51   51 51 51   51 51 51   51 51 51   51 51 51   51 51 51   51 51 51   51 51 51   51 51 51   51 51 51   51 51 51   51 51 51   51 51 51   51 51 51   51 51 51   51 51 51   51 51 51   51 51 51   51 51 51   51 51 51   51 51 51   51 51 51   51 51 51   51 51 51   1 21 1   6 110 8   9 150 11   51 51 51   51 51 51   51 51 51   51 51 51   51 51 51   51 51 51   51 51 51   51 51 51   51 51 51   51 51 51   51 51 51   51 51 51   51 51 51   51 51 51   51 51 51   51 51 51   51 51 51   51 51 51   51 51 51   51 51 51   51 51 51   51 51 51   51 51 51   51 51 51   
51 51 51   51 51 51   51 51 51   51 51 51   51 51 51   51 51 51   51 51 51   51 51 51   51 51 51   51 51 51   51 51 51   51 51 51   51 51 51   51 51 51   51 51 51   51 51 51   51 51 51   51 51 51   51 51 51   51 51 51   51 51 51   51 51 51   51 51 51   51 51 51   51 51 51   51 51 51   51 51 51   51 51 51   51 51 51   51 51 51   51 51 51   51 51 51   51 51 51   51 51 51   51 51 51   51 51 51   51 51 51   51 51 51   51 51 51   51 51 51   51 51 51   51 51 51   51 51 51   51 51 51   51 51 51   51 51 51   51 51 51   51 51 51   51 51 51   51 51 51   51 51 51   
