P3
51 51
255
51 51 51   51 51 51   51 51 51   51 51 51   51 51 51   51 51 51   51 51 51   51 51 51   51 51 51   51 51 51   51 51 51   51 51 51   51 51 51   51 51 51   51 51 51   51 51 51   51 51 51   51 51 51   51 51 51   51 51 51   51 51 51   51 51 51   51 51 51   51 51 51   51 51 51   51 51 51   51 51 51   51 51 51   51 51 51   51 51 51   51 51 51   51 51 51   51 51 51   51 51 51   51 51 51   73 78 16   148 158 32   216 230 47   255 255 118   255 255 74   51 51 51   51 51 51   33 32 23   54 53 38   74 72 52   93 90 65   111 108 78   129 126 91   150 144 106   238 173 200   190 179 137   
51 51 51   51 51 51   51 51 51   51 51 51   51 51 51   51 51 51   51 51 51   51 51 51   51 51 51   51 51 51   51 51 51   51 51 51   51 51 51   51 51 51   51 51 51   51 51 51   51 51 51   51 51 51   51 51 51   51 51 51   51 51 51   51 51 51   51 51 51   51 51 51   51 51 51   51 51 51   51 51 51   51 51 51   51 51 51   51 51 51   51 51 51   51 51 51   51 51 51   51 51 51   21 22 4   21 22 4   83 88 18   151 161 33   214 229 47   255 255 60   51 51 51   12 12 8   15 15 10   36 35 25   56 54 39   75 73 52   93 91 65   111 108 78   129 126 91   195 151 158   238 173 200   
51 51 51   51 51 51   51 51 51   51 51 51   51 51 51   51 51 51   51 51 51   51 51 51   51 51 51   51 51 51   51 51 51   51 51 51   51 51 51   51 51 51   51 51 51   51 51 51   51 51 51   51 51 51   51 51 51   51 51 51   51 51 51   51 51 51   51 51 51   51 51 51   51 51 51   51 51 51   51 51 51   51 51 51   51 51 51   51 51 51   51 51 51   51 51 51   51 51 51   51 51 51   21 22 4   21 22 4   21 22 4   81 87 18   145 155 32   203 217 44   51 51 51   12 12 8   12 12 8   18 17 12   37 37 26   57 55 40   75 73 53   93 91 65   111 109 78   129 126 91   150 144 106   
51 51 51   51 51 51   51 51 51   51 51 51   51 51 51   51 51 51   51 51 51   51 51 51   51 51 51   51 51 51   51 51 51   51 51 51   51 51 51   51 51 51   51 51 51   51 51 51   51 51 51   51 51 51   51 51 51   51 51 51   51 51 51   51 51 51   51 51 51   58 43 83   83 62 121   102 76 148   118 87 170   128 94 184   51 51 51   51 51 51   51 51 51   51 51 51   51 51 51   51 51 51   21 22 4   21 22 4   21 22 4   21 22 4   70 75 15   126 135 27   12 12 8   12 12 8   12 12 8   12 12 8   19 19 13   38 37 27   57 56 40   75 73 53   93 91 65   111 108 78   129 126 91   
51 51 51   51 51 51   51 51 51   51 51 51   51 51 51   51 51 51   51 51 51   51 51 51   51 51 51   51 51 51   51 51 51   51 51 51   51 51 51   51 51 51   51 51 51   51 51 51   51 51 51   51 51 51   51 51 51   51 51 51   51 51 51   51 51 51   19 14 27   50 37 72   71 53 103   90 66 130   167 90 222   121 88 174   124 92 180   51 51 51   51 51 51   51 51 51   51 51 51   51 51 51   51 51 51   21 22 4   21 22 4   21 22 4   21 22 4   51 51 51   12 12 8   12 12 8   12 12 8   12 12 8   12 12 8   20 19 14   38 38 27   57 56 40   75 73 53   93 91 65   111 108 78   
51 51 51   51 51 51   51 51 51   51 51 51   51 51 51   51 51 51   51 51 51   51 51 51   51 51 51   51 51 51   51 51 51   51 51 51   51 51 51   51 51 51   51 51 51   59 237 60   85 255 86   96 255 97   51 51 51   51 51 51   51 51 51   51 51 51   7 5 10   34 25 50   56 41 80   74 54 107   109 70 151   140 83 191   112 83 162   51 51 51   51 51 51   51 51 51   51 51 51   51 51 51   51 51 51   51 51 51   21 22 4   21 22 4   51 51 51   51 51 51   12 12 8   12 12 8   12 12 8   12 12 8   12 12 8   12 12 8   20 19 14   38 37 27   57 55 40   75 73 52   93 90 65   
51 51 51   51 51 51   51 51 51   51 51 51   51 51 51   51 51 51   51 51 51   51 51 51   51 51 51   51 51 51   51 51 51   51 51 51   51 51 51   51 51 51   12 48 12   49 195 49   71 255 72   97 255 167   90 255 91   51 51 51   51 51 51   51 51 51   7 5 10   16 12 23   37 27 54   55 41 80   71 52 103   85 62 122   95 70 137   51 51 51   51 51 51   51 51 51   51 51 51   51 51 51   51 51 51   51 51 51   51 51 51   51 51 51   51 51 51   51 51 51   12 12 8   12 12 8   12 12 8   12 12 8   12 12 8   12 12 8   12 12 8   19 19 13   37 37 26   56 54 39   74 72 52   
51 51 51   51 51 51   51 51 51   51 51 51   51 51 51   51 51 51   51 51 51   51 51 51   51 51 51   51 51 51   51 51 51   51 51 51   51 51 51   51 51 51   5 21 5   26 105 26   49 195 49   65 255 65   73 255 73   51 51 51   51 51 51   51 51 51   7 5 10   7 5 10   16 12 24   35 26 50   51 37 73   64 47 93   73 54 106   51 51 51   51 51 51   51 51 51   51 51 51   51 51 51   51 51 51   51 51 51   51 51 51   51 51 51   51 51 51   51 51 51   12 12 8   12 12 8   12 12 8   12 12 8   12 12 8   12 12 8   12 12 8   12 12 8   18 17 12   36 35 25   54 53 38   
51 51 51   51 51 51   51 51 51   51 51 51   51 51 51   51 51 51   51 51 51   51 51 51   51 51 51   51 51 51   2 222 56   51 51 51   51 51 51   51 51 51   5 21 5   5 21 5   20 81 20   36 146 37   43 174 44   51 51 51   51 51 51   51 51 51   7 5 10   7 5 10   7 5 10   11 8 17   27 20 40   40 30 58   48 35 70   51 51 51   51 51 51   51 51 51   51 51 51   51 51 51   51 51 51   51 51 51   51 51 51   51 51 51   51 51 51   51 51 51   51 51 51   12 12 8   12 12 8   12 12 8   12 12 8   12 12 8   12 12 8   12 12 8   12 12 8   15 15 10   33 32 23   
51 51 51   51 51 51   51 51 51   51 51 51   51 51 51   51 51 51   51 51 51   51 51 51   51 51 51   1 151 38   2 220 55   3 255 65   3 255 65   51 51 51   51 51 51   5 21 5   5 21 5   5 21 5   51 51 51   51 51 51   51 51 51   51 51 51   51 51 51   7 5 10   7 5 10   7 5 10   7 5 10   12 9 17   51 51 51   51 51 51   51 51 51   51 51 51   51 51 51   51 51 51   51 51 51   51 51 51   51 51 51   51 51 51   51 51 51   51 51 51   51 51 51   12 12 8   12 12 8   12 12 8   12 12 8   12 12 8   12 12 8   12 12 8   12 12 8   12 12 8   51 51 51   
51 51 51   51 51 51   51 51 51   51 51 51   51 51 51   51 51 51   51 51 51   51 51 51   0 15 3   1 95 24   2 162 40   2 205 51   2 222 55   51 51 51   51 51 51   51 51 51   51 51 51   51 51 51   51 51 51   51 51 51   51 51 51   51 51 51   51 51 51   51 51 51   7 5 10   7 5 10   7 5 10   51 51 51   51 51 51   51 51 51   51 51 51   51 51 51   51 51 51   51 51 51   51 51 51   51 51 51   51 51 51   51 51 51   51 51 51   51 51 51   51 51 51   51 51 51   51 51 51   12 12 8   12 12 8   12 12 8   12 12 8   12 12 8   51 51 51   51 51 51   51 51 51   
51 51 51   51 51 51   51 51 51   51 51 51   51 51 51   51 51 51   51 51 51   51 51 51   51 51 51   0 15 3   1 80 20   1 124 31   1 142 35   51 51 51   51 51 51   51 51 51   51 51 51   51 51 51   51 51 51   51 51 51   51 51 51   51 51 51   51 51 51   51 51 51   51 51 51   51 51 51   51 51 51   51 51 51   51 51 51   51 51 51   51 51 51   51 51 51   51 51 51   51 51 51   51 51 51   51 51 51   51 51 51   51 51 51   51 51 51   51 51 51   51 51 51   51 51 51   51 51 51   51 51 51   51 51 51   51 51 51   51 51 51   51 51 51   51 51 51   51 51 51   51 51 51   
51 51 51   51 51 51   51 51 51   51 51 51   51 51 51   51 51 51   51 51 51   51 51 51   51 51 51   0 15 3   0 15 3   0 15 3   0 19 4   51 51 51   51 51 51   51 51 51   51 51 51   51 51 51   51 51 51   51 51 51   51 51 51   51 51 51   51 51 51   51 51 51   51 51 51   51 51 51   51 51 51   51 51 51   51 51 51   51 51 51   51 51 51   51 51 51   51 51 51   51 51 51   51 51 51   51 51 51   51 51 51   51 51 51   51 51 51   51 51 51   51 51 51   51 51 51   51 51 51   51 51 51   51 51 51   51 51 51   51 51 51   51 51 51   51 51 51   51 51 51   51 51 51   
51 51 51   51 51 51   51 51 51   51 51 51   51 51 51   51 51 51   51 51 51   51 51 51   51 51 51   51 51 51   51 51 51   51 51 51   51 51 51   51 51 51   51 51 51   51 51 51   51 51 51   51 51 51   51 51 51   51 51 51   51 51 51   51 51 51   51 51 51   6 8 16   6 8 16   101 131 253   114 147 255   121 157 255   51 51 51   51 51 51   51 51 51   51 51 51   51 51 51   51 51 51   51 51 51   51 51 51   51 51 51   51 51 51   51 51 51   51 51 51   51 51 51   51 51 51   51 51 51   51 51 51   51 51 51   51 51 51   51 51 51   51 51 51   51 51 51   51 51 51   51 51 51   
51 51 51   51 51 51   51 51 51   51 51 51   51 51 51   51 51 51   51 51 51   51 51 51   51 51 51   51 51 51   51 51 51   51 51 51   51 51 51   51 51 51   51 51 51   51 51 51   51 51 51   51 51 51   51 51 51   51 51 51   51 51 51   51 51 51   6 8 16   61 79 153   80 103 199   6 8 16   6 8 16   117 152 255   122 158 255   51 51 51   51 51 51   51 51 51   51 51 51   51 51 51   51 51 51   51 51 51   51 51 51   51 51 51   51 51 51   51 51 51   51 51 51   51 51 51   51 51 51   51 51 51   51 51 51   51 51 51   51 51 51   51 51 51   51 51 51   51 51 51   51 51 51   
51 51 51   51 51 51   51 51 51   51 51 51   51 51 51   51 51 51   51 51 51   51 51 51   51 51 51   51 51 51   51 51 51   51 51 51   51 51 51   51 51 51   51 51 51   51 51 51   20 8 20   20 8 20   20 8 20   51 51 51   51 51 51   6 8 16   29 38 74   6 8 16   6 8 16   6 8 16   6 8 16   6 8 16   114 148 255   6 8 16   51 51 51   51 51 51   1 9 9   1 9 9   1 9 9   1 9 9   51 51 51   51 51 51   51 51 51   51 51 51   51 51 51   51 51 51   51 51 51   51 51 51   51 51 51   51 51 51   51 51 51   51 51 51   51 51 51   51 51 51   51 51 51   
51 51 51   51 51 51   51 51 51   51 51 51   51 51 51   51 51 51   51 51 51   51 51 51   51 51 51   51 51 51   51 51 51   51 51 51   51 51 51   51 51 51   51 51 51   79 32 81   216 87 220   20 8 20   20 8 20   20 8 20   51 51 51   6 8 16   6 8 16   6 8 16   6 8 16   6 8 16   6 8 16   6 8 16   102 132 255   6 8 16   51 51 51   51 51 51   1 9 9   1 9 9   1 9 9   1 9 9   51 51 51   51 51 51   51 51 51   218 68 255   255 89 255   51 51 51   51 51 51   51 51 51   51 51 51   51 51 51   51 51 51   51 51 51   51 51 51   51 51 51   51 51 51   
51 51 51   51 51 51   51 51 51   51 51 51   51 51 51   51 51 51   51 51 51   51 51 51   51 51 51   51 51 51   51 51 51   183 255 91   221 255 110   51 51 51   51 51 51   20 8 20   131 53 134   215 87 219   20 8 20   20 8 20   51 51 51   6 8 16   6 8 16   6 8 16   6 8 16   6 8 16   6 8 16   79 103 198   86 112 216   6 8 16   51 51 51   51 51 51   1 9 9   1 9 9   1 9 9   1 9 9   51 51 51   51 51 51   75 23 89   175 55 208   255 132 255   255 94 255   51 51 51   51 51 51   51 51 51   51 51 51   51 51 51   51 51 51   51 51 51   51 51 51   51 51 51   
51 51 51   51 51 51   51 51 51   51 51 51   51 51 51   51 51 51   51 51 51   51 51 51   51 51 51   51 51 51   42 82 21   137 255 68   181 255 89   146 255 72   51 51 51   20 8 20   20 8 20   95 38 97   142 57 144   51 51 51   51 51 51   6 8 16   6 8 16   6 8 16   6 8 16   6 8 16   6 8 16   61 79 153   68 88 169   6 8 16   51 51 51   51 51 51   51 51 51   45 101 45   57 129 57   66 150 66   74 168 75   81 184 82   87 197 87   92 207 92   181 57 215   235 74 255   51 51 51   51 51 51   51 51 51   51 51 51   51 51 51   51 51 51   51 51 51   51 51 51   51 51 51   
51 51 51   51 51 51   51 51 51   51 51 51   51 51 51   51 51 51   51 51 51   51 51 51   51 51 51   51 51 51   12 23 6   38 75 19   82 161 41   51 51 51   51 51 51   51 51 51   20 8 20   20 8 20   51 51 51   51 51 51   51 51 51   51 51 51   6 8 16   6 8 16   6 8 16   6 8 16   30 39 76   40 51 99   6 8 16   51 51 51   51 51 51   51 51 51   36 81 36   48 108 48   57 130 57   66 149 66   74 166 74   84 182 83   92 197 91   96 208 95   97 218 97   99 223 99   51 51 51   51 51 51   51 51 51   51 51 51   51 51 51   51 51 51   51 51 51   51 51 51   51 51 51   
51 51 51   51 51 51   51 51 51   51 51 51   51 51 51   51 51 51   51 51 51   51 51 51   51 51 51   51 51 51   51 51 51   51 51 51   51 51 51   51 51 51   51 51 51   51 51 51   51 51 51   51 51 51   51 51 51   51 51 51   51 51 51   51 51 51   51 51 51   6 8 16   6 8 16   6 8 16   6 8 16   11 15 29   51 51 51   51 51 51   5 12 5   23 52 23   36 81 36   46 104 46   55 125 55   64 143 64   77 161 76   100 181 96   129 202 121   138 215 130   118 219 114   101 223 101   100 226 100   51 51 51   51 51 51   51 51 51   51 51 51   51 51 51   51 51 51   51 51 51   51 51 51   
51 51 51   51 51 51   51 51 51   51 51 51   51 51 51   51 51 51   51 51 51   51 51 51   51 51 51   51 51 51   51 51 51   51 51 51   51 51 51   51 51 51   51 51 51   51 51 51   51 51 51   51 51 51   51 51 51   51 51 51   51 51 51   51 51 51   51 51 51   51 51 51   6 8 16   6 8 16   6 8 16   51 51 51   51 51 51   51 51 51   7 17 7   22 50 22   33 75 33   43 97 43   52 117 52   61 135 61   78 154 76   117 179 110   180 209 163   221 232 198   193 234 176   128 224 122   100 223 100   98 222 99   51 51 51   51 51 51   51 51 51   51 51 51   51 51 51   51 51 51   51 51 51   
51 51 51   51 51 51   51 51 51   51 51 51   51 51 51   51 51 51   51 51 51   51 51 51   51 51 51   51 51 51   51 51 51   151 255 41   12 25 3   12 25 3   196 255 53   51 51 51   51 51 51   51 51 51   51 51 51   51 51 51   51 51 51   51 51 51   51 51 51   51 51 51   51 51 51   51 51 51   51 51 51   51 51 51   51 51 51   5 12 5   5 12 5   19 43 19   30 67 30   39 89 39   48 108 48   56 126 56   72 144 71   112 169 105   187 202 168   255 234 228   254 243 226   173 229 160   107 218 105   97 219 97   51 51 51   51 51 51   51 51 51   51 51 51   51 51 51   51 51 51   51 51 51   
51 51 51   51 51 51   51 51 51   51 51 51   51 51 51   51 51 51   51 51 51   51 51 51   51 51 51   51 51 51   12 25 3   12 25 3   12 25 3   12 25 3   12 25 3   200 255 54   51 51 51   8 6 2   51 51 51   51 51 51   51 51 51   51 51 51   51 51 51   51 51 51   3 10 10   3 10 10   3 10 10   51 51 51   51 51 51   5 12 5   5 12 5   14 33 14   25 57 25   34 78 34   43 97 43   51 115 51   62 132 62   89 153 85   145 181 133   212 211 190   234 228 208   180 222 164   113 210 109   94 210 94   51 51 51   51 51 51   51 51 51   51 51 51   51 51 51   51 51 51   51 51 51   
51 51 51   51 51 51   51 51 51   51 51 51   51 51 51   51 51 51   51 51 51   51 51 51   51 51 51   12 25 3   12 25 3   12 25 3   12 25 3   12 25 3   12 25 3   12 25 3   94 75 28   134 107 41   8 6 2   51 51 51   51 51 51   51 51 51   51 51 51   3 10 10   3 10 10   3 10 10   3 10 10   3 10 10   51 51 51   5 12 5   5 12 5   9 22 9   20 45 20   29 66 29   38 85 38   46 103 46   54 119 54   68 136 66   97 157 91   137 180 126   161 197 147   141 200 131   103 197 100   89 199 89   87 197 87   51 51 51   51 51 51   51 51 51   51 51 51   51 51 51   51 51 51   
51 51 51   51 51 51   51 51 51   51 51 51   51 51 51   51 51 51   51 51 51   51 51 51   51 51 51   12 25 3   12 25 3   12 25 3   12 25 3   12 25 3   12 25 3   8 6 2   68 54 20   107 85 32   126 100 38   8 6 2   51 51 51   51 51 51   51 51 51   3 10 10   3 10 10   3 10 10   3 10 10   3 10 10   51 51 51   5 12 5   5 12 5   5 12 5   14 32 14   23 53 23   32 72 32   40 90 40   47 106 47   55 122 55   67 137 66   85 154 82   99 168 95   98 177 94   87 181 85   83 186 83   82 185 82   51 51 51   51 51 51   51 51 51   51 51 51   51 51 51   51 51 51   
51 51 51   51 51 51   51 51 51   51 51 51   51 51 51   51 51 51   51 51 51   51 51 51   51 51 51   12 25 3   12 25 3   12 25 3   12 25 3   12 25 3   12 25 3   12 25 3   17 14 5   58 46 17   74 59 22   51 51 51   51 51 51   51 51 51   51 51 51   3 10 10   3 10 10   3 10 10   3 10 10   3 10 10   51 51 51   5 12 5   5 12 5   5 12 5   7 17 7   17 39 17   26 58 26   33 76 33   41 92 41   48 107 48   55 121 54   62 135 62   70 147 69   74 157 73   74 165 74   76 171 76   75 168 75   51 51 51   51 51 51   51 51 51   51 51 51   51 51 51   51 51 51   
51 51 51   51 51 51   51 51 51   51 51 51   51 51 51   51 51 51   51 51 51   51 51 51   51 51 51   51 51 51   12 25 3   12 25 3   12 25 3   12 25 3   12 25 3   12 25 3   51 51 51   8 6 2   51 51 51   51 51 51   51 51 51   51 51 51   51 51 51   51 51 51   3 10 10   3 10 10   3 10 10   51 51 51   51 51 51   5 12 5   5 12 5   5 12 5   5 12 5   10 23 10   19 43 19   27 60 27   34 77 34   41 92 41   47 106 47   53 119 53   58 131 58   63 141 63   66 149 66   68 154 68   51 51 51   51 51 51   51 51 51   51 51 51   51 51 51   51 51 51   51 51 51   
51 51 51   51 51 51   51 51 51   51 51 51   51 51 51   51 51 51   51 51 51   51 51 51   51 51 51   51 51 51   51 51 51   12 25 3   12 25 3   12 25 3   12 25 3   51 51 51   51 51 51   2 18 4   37 242 61   51 51 51   51 51 51   51 51 51   51 51 51   51 51 51   51 51 51   51 51 51   51 51 51   51 51 51   51 51 51   5 12 5   5 12 5   5 12 5   5 12 5   5 12 5   11 25 11   19 44 19   27 60 27   33 76 33   40 90 40   45 102 45   50 114 50   55 123 55   58 131 58   59 133 59   51 51 51   51 51 51   51 51 51   51 51 51   51 51 51   51 51 51   51 51 51   
51 51 51   51 51 51   51 51 51   51 51 51   51 51 51   51 51 51   51 51 51   51 51 51   51 51 51   51 51 51   51 51 51   51 51 51   51 51 51   51 51 51   51 51 51   2 18 4   35 225 56   42 255 68   47 255 76   49 255 80   48 255 78   51 51 51   51 51 51   51 51 51   51 51 51   51 51 51   51 51 51   51 51 51   51 51 51   51 51 51   5 12 5   5 12 5   5 12 5   5 12 5   5 12 5   11 25 11   18 42 18   25 57 25   31 71 31   37 84 37   42 95 42   46 104 46   48 110 48   46 104 46   51 51 51   51 51 51   51 51 51   51 51 51   51 51 51   51 51 51   51 51 51   
51 51 51   51 51 51   51 51 51   51 51 51   51 51 51   51 51 51   51 51 51   51 51 51   51 51 51   51 51 51   51 51 51   51 51 51   51 51 51   51 51 51   15 98 24   28 183 46   37 238 60   44 255 73   55 255 100   58 255 105   52 255 85   48 255 78   51 51 51   51 51 51   51 51 51   51 51 51   51 51 51   51 51 51   51 51 51   51 51 51   5 12 5   5 12 5   5 12 5   5 12 5   5 12 5   5 12 5   9 21 9   16 37 16   22 51 22   28 63 28   32 73 32   36 80 36   36 81 36   59 79 7   111 147 13   149 197 17   181 240 21   209 255 24   234 255 27   253 255 30   51 51 51   
51 51 51   51 51 51   51 51 51   51 51 51   51 51 51   51 51 51   51 51 51   51 51 51   51 51 51   51 51 51   51 51 51   51 51 51   51 51 51   51 51 51   17 112 28   28 181 45   36 232 58   46 255 80   71 255 156   83 255 188   2 18 4   2 18 4   51 51 51   51 51 51   51 51 51   51 51 51   51 51 51   51 51 51   51 51 51   51 51 51   51 51 51   51 51 51   5 12 5   5 12 5   5 12 5   5 12 5   5 12 5   5 12 5   11 26 11   16 38 16   20 46 20   21 47 21   24 31 2   74 98 8   113 150 13   148 195 17   178 236 21   206 255 24   231 255 27   253 255 30   255 255 32   
51 51 51   51 51 51   51 51 51   51 51 51   51 51 51   217 25 63   239 28 69   51 51 51   51 51 51   51 51 51   51 51 51   51 51 51   51 51 51   2 18 4   15 100 25   25 165 41   33 213 53   41 255 70   2 18 4   2 18 4   2 18 4   2 18 4   2 18 4   51 51 51   51 51 51   51 51 51   51 51 51   51 51 51   51 51 51   51 51 51   51 51 51   51 51 51   51 51 51   5 12 5   5 12 5   5 12 5   5 12 5   5 12 5   5 12 5   5 12 5   51 51 51   16 21 1   26 34 3   69 92 8   106 141 12   139 184 16   169 224 20   197 255 23   222 255 26   245 255 29   255 255 31   
51 51 51   51 51 51   51 51 51   121 14 35   248 29 72   255 35 88   255 38 95   255 37 91   51 51 51   51 51 51   51 51 51   51 51 51   51 51 51   2 18 4   11 73 18   21 138 34   29 185 46   35 223 56   2 18 4   2 18 4   2 18 4   2 18 4   2 18 4   51 51 51   51 51 51   51 51 51   51 51 51   51 51 51   51 51 51   51 51 51   51 51 51   51 51 51   51 51 51   20 19 11   20 19 11   20 19 11   255 255 185   51 51 51   51 51 51   51 51 51   51 51 51   16 21 1   16 21 1   59 78 7   95 126 11   127 168 15   157 208 18   184 244 21   210 255 24   234 255 28   255 255 36   
51 51 51   51 51 51   51 51 51   174 20 50   255 30 75   255 35 88   255 96 138   255 37 93   255 30 75   51 51 51   51 51 51   51 51 51   51 51 51   2 18 4   5 32 8   15 99 25   23 148 37   2 18 4   2 18 4   2 18 4   2 18 4   2 18 4   51 51 51   51 51 51   153 94 126   255 175 235   255 196 255   51 51 51   51 51 51   51 51 51   51 51 51   51 51 51   20 19 11   20 19 11   20 19 11   20 19 11   255 255 188   51 51 51   51 51 51   51 51 51   16 21 1   16 21 1   16 21 1   45 60 5   81 107 9   113 149 13   142 188 16   170 225 20   195 255 23   219 255 26   255 255 205   
51 51 51   51 51 51   18 2 5   155 18 45   229 27 66   255 32 79   255 34 85   255 33 83   226 26 66   51 51 51   51 51 51   51 51 51   51 51 51   51 51 51   2 18 4   7 47 12   2 18 4   2 18 4   2 18 4   2 18 4   2 18 4   2 18 4   51 51 51   33 20 27   213 131 175   255 194 255   255 230 255   255 221 255   51 51 51   51 51 51   51 51 51   51 51 51   51 51 51   20 19 11   20 19 11   219 208 119   20 19 11   51 51 51   51 51 51   51 51 51   16 21 1   16 21 1   16 21 1   29 38 3   64 85 7   96 128 11   126 167 15   153 203 18   179 237 21   203 255 24   225 255 27   
51 51 51   51 51 51   51 51 51   96 11 28   172 20 50   214 25 62   231 27 67   216 25 63   116 13 33   0 49 60   0 50 61   0 47 58   51 51 51   51 51 51   51 51 51   2 18 4   2 18 4   2 18 4   2 18 4   2 18 4   2 18 4   51 51 51   51 51 51   32 20 27   186 115 154   255 175 234   255 217 255   255 218 255   51 51 51   51 51 51   51 51 51   51 51 51   51 51 51   20 19 11   20 19 11   20 19 11   51 51 51   51 51 51   51 51 51   51 51 51   16 21 1   16 21 1   16 21 1   16 21 1   46 60 5   78 103 9   108 143 12   135 179 16   161 213 19   185 245 22   207 255 24   
51 51 51   51 51 51   51 51 51   18 2 5   76 9 22   120 14 35   129 15 37   84 9 24   0 52 64   0 55 68   0 57 69   0 56 69   0 54 66   0 42 51   51 51 51   51 51 51   2 18 4   2 18 4   2 18 4   51 51 51   51 51 51   51 51 51   21 12 16   20 12 17   120 74 99   218 134 180   255 171 229   255 173 231   21 12 16   51 51 51   51 51 51   51 51 51   51 51 51   51 51 51   51 51 51   51 51 51   51 51 51   51 51 51   51 51 51   51 51 51   16 21 1   16 21 1   16 21 1   16 21 1   25 33 2   58 76 6   88 116 10   116 153 13   142 187 16   166 219 19   188 248 22   
51 51 51   51 51 51   51 51 51   51 51 51   0 3 4   0 3 4   0 3 4   0 51 63   0 55 68   0 58 71   0 60 73   0 60 73   0 58 71   0 54 66   51 51 51   51 51 51   51 51 51   51 51 51   51 51 51   51 51 51   51 51 51   21 12 16   21 12 16   21 12 16   20 12 17   111 68 91   163 100 135   21 12 16   21 12 16   21 12 16   51 51 51   51 51 51   51 51 51   51 51 51   51 51 51   51 51 51   51 51 51   51 51 51   51 51 51   51 51 51   51 51 51   16 21 1   16 21 1   16 21 1   16 21 1   35 47 4   66 87 7   94 125 11   120 159 14   144 191 17   166 220 19   
51 51 51   51 51 51   51 51 51   0 3 4   0 3 4   0 3 4   0 48 59   0 53 65   2 56 72   14 60 86   16 61 89   3 61 78   0 60 73   0 56 69   0 47 58   51 51 51   51 51 51   51 51 51   51 51 51   51 51 51   21 12 16   21 12 16   21 12 16   21 12 16   21 12 16   21 12 16   21 12 16   21 12 16   21 12 16   255 222 255   21 12 16   51 51 51   51 51 51   51 51 51   51 51 51   51 51 51   51 51 51   51 51 51   51 51 51   51 51 51   51 51 51   16 21 1   16 21 1   16 21 1   16 21 1   16 21 1   41 55 4   70 93 8   97 128 11   121 160 14   143 189 17   
51 51 51   51 51 51   0 3 4   0 3 4   0 3 4   0 43 52   0 48 59   0 53 65   14 57 82   60 62 129   67 64 137   16 61 89   0 60 73   0 57 69   0 50 61   51 51 51   11 18 0   11 18 0   51 51 51   51 51 51   21 12 16   21 12 16   21 12 16   21 12 16   21 12 16   21 12 16   21 12 16   21 12 16   255 218 255   255 220 255   21 12 16   51 51 51   51 51 51   2 14 89   4 29 178   5 38 232   6 45 255   6 49 255   0 3 23   51 51 51   51 51 51   51 51 51   16 21 1   16 21 1   16 21 1   16 21 1   16 21 1   43 57 5   70 93 8   95 125 11   117 154 13   
51 51 51   51 51 51   0 3 4   0 26 32   0 35 43   0 42 52   0 47 58   0 52 64   14 56 81   57 60 124   60 62 129   14 60 86   0 58 71   0 55 68   0 49 60   11 18 0   11 18 0   11 18 0   11 18 0   51 51 51   21 12 16   21 12 16   21 12 16   21 12 16   21 12 16   21 12 16   255 187 250   255 209 255   255 209 255   21 12 16   21 12 16   51 51 51   2 14 86   3 27 162   5 36 218   6 44 255   7 50 255   7 55 255   8 59 255   8 61 255   51 51 51   51 51 51   51 51 51   16 21 1   16 21 1   16 21 1   16 21 1   16 21 1   39 52 4   64 84 7   85 113 10   
51 51 51   51 51 51   0 13 16   0 25 31   0 34 42   0 40 49   0 45 56   0 49 61   3 53 68   14 56 81   14 57 82   2 56 72   0 55 68   0 52 64   0 45 55   11 18 0   11 18 0   11 18 0   11 18 0   51 51 51   21 12 16   21 12 16   148 83 111   201 113 151   245 138 184   255 159 211   255 175 234   255 189 251   255 197 255   21 12 16   21 12 16   0 5 33   2 19 118   4 30 180   5 38 232   6 46 255   7 52 255   8 57 255   8 62 255   9 65 255   9 66 255   51 51 51   51 51 51   0 11 15   0 11 15   16 21 1   16 21 1   16 21 1   16 21 1   24 31 2   42 56 5   
51 51 51   51 51 51   0 11 13   0 23 28   0 31 38   0 38 46   0 43 52   0 46 57   0 49 61   0 52 64   0 53 65   0 53 65   0 51 63   0 48 59   0 3 4   51 51 51   11 18 0   11 18 0   51 51 51   51 51 51   21 12 16   52 29 39   120 68 90   174 98 131   219 123 164   255 144 192   255 161 214   255 173 231   255 182 242   21 12 16   0 3 23   1 9 56   3 21 128   4 31 186   5 39 235   6 46 255   7 52 255   8 58 255   8 62 255   9 66 255   9 68 255   9 68 255   0 11 15   0 11 15   0 11 15   0 200 255   51 51 51   51 51 51   51 51 51   51 51 51   51 51 51   
51 51 51   51 51 51   0 6 8   0 19 24   0 28 34   0 34 41   0 39 48   0 43 52   0 45 56   0 47 58   0 48 59   0 48 59   0 46 56   0 3 4   0 3 4   51 51 51   51 51 51   51 51 51   51 51 51   51 51 51   21 12 16   21 12 16   84 47 63   140 79 105   186 104 139   223 125 167   21 12 16   21 12 16   21 12 16   21 12 16   0 3 23   1 10 61   3 21 129   4 30 184   5 38 232   6 45 255   7 51 255   8 57 255   8 62 255   9 66 255   9 68 255   9 70 255   9 68 255   0 11 15   0 114 162   0 165 235   0 188 255   51 51 51   51 51 51   51 51 51   51 51 51   
51 51 51   51 51 51   0 3 4   0 13 17   0 22 27   0 29 35   0 34 41   0 38 46   0 40 49   0 42 52   0 43 52   0 42 51   0 39 48   0 3 4   51 51 51   51 51 51   51 51 51   51 51 51   51 51 51   51 51 51   51 51 51   21 12 16   37 21 28   97 54 73   144 81 108   21 12 16   21 12 16   21 12 16   21 12 16   21 12 16   0 3 23   1 9 58   2 20 123   4 29 177   5 37 224   6 44 255   7 50 255   7 56 255   9 62 255   11 70 255   9 68 255   9 70 255   9 69 255   0 11 15   0 69 99   0 121 173   0 137 196   51 51 51   51 51 51   51 51 51   51 51 51   
51 51 51   51 51 51   51 51 51   0 5 6   0 15 19   0 22 27   0 28 34   0 31 38   0 34 42   0 35 43   0 35 43   0 34 41   0 29 36   51 51 51   51 51 51   51 51 51   51 51 51   51 51 51   51 51 51   51 51 51   51 51 51   51 51 51   21 12 16   39 22 29   21 12 16   21 12 16   21 12 16   21 12 16   21 12 16   0 3 23   0 3 23   1 8 48   2 18 111   3 27 165   4 35 212   5 42 254   6 48 255   7 54 255   8 59 255   12 69 255   9 66 255   9 68 255   9 69 255   8 62 255   0 11 15   0 41 58   51 51 51   51 51 51   51 51 51   51 51 51   51 51 51   
51 51 51   51 51 51   51 51 51   0 3 4   0 5 6   0 13 17   0 19 24   0 23 28   0 25 31   0 26 32   0 25 31   0 22 26   51 51 51   51 51 51   51 51 51   51 51 51   51 51 51   51 51 51   51 51 51   51 51 51   51 51 51   51 51 51   51 51 51   21 12 16   21 12 16   21 12 16   21 12 16   21 12 16   51 51 51   0 3 23   0 3 23   0 5 32   2 16 96   3 25 150   4 32 197   5 39 238   6 45 255   7 51 255   7 56 255   8 60 255   8 63 255   9 66 255   9 67 255   8 63 255   51 51 51   51 51 51   51 51 51   51 51 51   51 51 51   51 51 51   51 51 51   
51 51 51   51 51 51   51 51 51   51 51 51   51 51 51   0 3 4   0 6 8   0 11 13   0 13 16   0 13 15   0 7 9   51 51 51   51 51 51   51 51 51   51 51 51   51 51 51   51 51 51   51 51 51   51 51 51   51 51 51   51 51 51   51 51 51   51 51 51   51 51 51   51 51 51   51 51 51   51 51 51   51 51 51   51 51 51   51 51 51   0 3 23   0 3 23   1 12 76   3 21 130   4 29 178   5 36 220   6 42 255   6 48 255   7 53 255   8 57 255   8 60 255   8 63 255   9 64 255   8 61 255   51 51 51   51 51 51   51 51 51   51 51 51   51 51 51   51 51 51   51 51 51   
51 51 51   51 51 51   51 51 51   51 51 51   51 51 51   51 51 51   51 51 51   51 51 51   51 51 51   51 51 51   51 51 51   51 51 51   51 51 51   51 51 51   51 51 51   51 51 51   51 51 51   51 51 51   51 51 51   51 51 51   51 51 51   51 51 51   51 51 51   51 51 51   51 51 51   51 51 51   51 51 51   51 51 51   51 51 51   51 51 51   0 3 23   0 3 23   1 8 51   2 17 107   3 26 155   4 33 198   5 39 236   6 44 255   6 49 255   7 54 255   8 57 255   8 59 255   8 60 255   7 56 255   51 51 51   51 51 51   51 51 51   51 51 51   51 51 51   51 51 51   51 51 51   
51 51 51   51 51 51   51 51 51   51 51 51   51 51 51   51 51 51   51 51 51   51 51 51   51 51 51   51 51 51   51 51 51   51 51 51   51 51 51   51 51 51   51 51 51   51 51 51   51 51 51   51 51 51   51 51 51   51 51 51   51 51 51   51 51 51   51 51 51   51 51 51   51 51 51   51 51 51   51 51 51   51 51 51   51 51 51   51 51 51   0 3 23   0 3 23   0 3 23   1 13 79   3 21 129   4 28 172   4 35 211   5 40 244   6 45 255   7 49 255   7 53 255   7 55 255   7 55 255   6 48 255   51 51 51   51 51 51   51 51 51   51 51 51   51 51 51   51 51 51   51 51 51   
