P3
51 51
255
51 51 51   51 51 51   51 51 51   51 51 51   51 51 51   51 51 51   51 51 51   51 51 51   51 51 51   51 51 51   51 51 51   51 51 51   51 51 51   51 51 51   51 51 51   51 51 51   51 51 51   102 45 0   188 82 0   255 122 4   255 255 68   255 176 10   51 51 51   51 51 51   51 51 51   51 51 51   51 51 51   51 51 51   51 51 51   51 51 51   51 51 51   51 51 51   51 51 51   51 51 51   51 51 51   51 51 51   51 51 51   51 51 51   51 51 51   51 51 51   51 51 51   51 51 51   51 51 51   51 51 51   51 51 51   51 51 51   51 51 51   51 51 51   51 51 51   51 51 51   51 51 51   
51 51 51   51 51 51   51 51 51   51 51 51   51 51 51   51 51 51   51 51 51   51 51 51   51 51 51   51 51 51   51 51 51   51 51 51   51 51 51   51 51 51   51 51 51   51 51 51   51 51 51   35 15 0   119 52 0   187 82 0   247 121 7   255 143 8   255 136 0   51 51 51   51 51 51   51 51 51   51 51 51   51 51 51   51 51 51   51 51 51   51 51 51   51 51 51   51 51 51   51 51 51   51 51 51   51 51 51   51 51 51   51 51 51   40 27 97   46 31 111   51 34 123   51 51 51   51 51 51   51 51 51   51 51 51   51 51 51   51 51 51   51 51 51   51 51 51   51 51 51   51 51 51   
51 51 51   51 51 51   51 51 51   51 51 51   51 51 51   51 51 51   51 51 51   51 51 51   51 51 51   51 51 51   51 51 51   51 51 51   51 51 51   51 51 51   51 51 51   51 51 51   51 51 51   21 9 0   39 17 0   108 47 0   166 73 0   212 93 0   234 103 0   51 51 51   51 51 51   51 51 51   51 51 51   51 51 51   51 51 51   51 51 51   51 51 51   1 176 161   1 232 212   1 255 248   1 255 255   2 255 255   25 17 60   31 21 76   37 25 90   42 29 103   47 32 115   52 35 127   56 38 138   51 51 51   51 51 51   51 51 51   51 51 51   51 51 51   51 51 51   51 51 51   51 51 51   
51 51 51   51 51 51   51 51 51   51 51 51   51 51 51   51 51 51   51 51 51   51 51 51   51 51 51   51 51 51   51 51 51   51 51 51   51 51 51   51 51 51   51 51 51   51 51 51   51 51 51   21 9 0   21 9 0   21 9 0   77 34 0   121 53 0   132 58 0   51 51 51   51 51 51   51 51 51   51 51 51   51 51 51   51 51 51   114 85 24   133 99 28   149 111 31   163 121 34   1 249 227   1 255 255   1 255 255   21 14 52   27 18 66   33 22 80   38 26 93   44 30 106   51 36 120   52 35 128   57 38 138   51 51 51   51 51 51   51 51 51   51 51 51   51 51 51   51 51 51   51 51 51   
51 51 51   51 51 51   51 51 51   51 51 51   51 51 51   51 51 51   51 51 51   59 254 206   68 255 238   69 255 240   51 51 51   51 51 51   51 51 51   51 51 51   51 51 51   225 125 87   255 156 108   21 9 0   21 9 0   21 9 0   21 9 0   21 9 0   51 51 51   51 51 51   51 51 51   51 51 51   51 51 51   63 47 13   88 66 18   108 80 22   125 93 26   141 105 29   155 115 33   167 125 35   177 132 37   1 255 255   17 11 41   23 15 56   28 19 69   33 22 82   43 30 98   218 193 255   66 49 135   52 35 127   51 51 51   51 51 51   51 51 51   51 51 51   51 51 51   51 51 51   51 51 51   
51 51 51   51 51 51   51 51 51   51 51 51   51 51 51   31 135 110   50 215 174   61 255 212   69 255 240   75 255 255   77 255 255   51 51 51   255 138 255   255 151 255   150 83 58   215 120 83   255 146 101   255 167 116   255 180 125   21 9 0   21 9 0   51 51 51   51 51 51   51 51 51   51 51 51   51 51 51   28 21 5   57 42 12   79 58 16   97 72 20   114 85 24   133 98 31   186 130 80   191 136 73   168 125 35   176 131 37   12 8 30   18 12 44   23 16 57   29 19 70   34 23 82   53 40 109   60 45 123   47 32 115   51 35 125   154 46 98   195 58 123   233 70 147   255 80 170   51 51 51   51 51 51   
51 51 51   51 51 51   51 51 51   51 51 51   51 51 51   31 135 109   45 193 156   55 236 191   63 255 219   90 255 255   73 255 254   255 106 255   255 134 255   29 16 11   118 66 45   178 99 68   225 125 87   255 180 128   255 165 115   255 169 117   51 51 51   51 51 51   51 51 51   51 51 51   51 51 51   51 51 51   21 16 4   46 34 9   66 49 14   84 63 17   101 75 21   119 88 28   205 139 115   255 208 243   178 128 59   165 123 34   7 5 18   13 9 32   18 12 45   24 16 58   29 19 70   33 22 82   38 26 93   42 29 103   83 25 53   125 37 79   164 49 104   200 60 127   237 73 151   255 81 171   255 91 192   
51 51 51   51 51 51   51 51 51   51 51 51   4 18 14   23 101 82   36 156 127   46 199 161   54 233 189   62 255 213   67 255 230   231 86 224   255 113 255   18 10 6   71 39 27   129 72 50   176 98 68   215 120 83   245 136 94   255 146 101   51 51 51   51 51 51   51 51 51   51 51 51   51 51 51   9 7 2   9 7 2   32 24 6   52 39 11   70 52 14   86 64 18   102 76 21   126 92 36   187 128 95   163 117 56   151 112 31   156 116 32   8 5 19   13 9 32   18 12 45   23 16 57   28 19 69   33 22 80   16 5 10   51 15 32   92 27 58   130 39 82   167 50 106   209 86 145   255 161 209   255 81 171   
51 51 51   51 51 51   51 51 51   51 51 51   4 18 14   12 55 44   25 110 89   36 153 124   44 188 152   50 216 175   55 237 192   153 56 148   226 84 220   18 10 6   18 10 6   72 40 27   120 66 46   159 88 61   189 105 73   206 115 79   51 51 51   51 51 51   51 51 51   102 85 75   163 136 120   9 7 2   9 7 2   17 12 3   37 27 7   55 41 11   71 53 15   86 64 18   101 75 21   115 85 26   127 94 28   136 101 28   142 106 29   3 2 7   8 5 19   13 9 32   18 12 44   23 15 56   16 5 10   16 5 10   16 5 10   57 17 36   96 28 60   132 40 84   168 50 106   202 61 128   235 71 149   
51 51 51   122 34 211   154 43 255   173 48 255   186 52 255   194 54 255   199 56 255   194 54 255   31 136 110   38 164 133   43 185 150   55 20 53   24 9 23   18 10 6   18 10 6   18 10 6   53 30 20   93 52 36   122 68 47   137 76 53   51 51 51   51 51 51   14 12 10   77 65 57   14 12 10   9 7 2   9 7 2   9 7 2   20 15 4   38 28 8   55 40 11   70 52 14   84 62 17   97 72 20   109 81 23   119 88 25   125 93 26   3 2 7   3 2 7   7 5 18   12 8 30   3 2 7   16 5 10   16 5 10   16 5 10   16 5 10   60 18 38   97 29 61   132 39 84   166 50 105   199 60 126   
111 31 192   140 39 241   159 44 255   175 49 255   187 52 255   196 55 255   203 57 255   206 58 255   204 57 255   255 102 255   255 114 255   25 7 23   24 9 23   24 9 23   18 10 6   18 10 6   18 10 6   18 10 6   42 23 16   44 24 17   51 51 51   51 51 51   14 12 10   14 12 10   14 12 10   9 7 2   9 7 2   9 7 2   9 7 2   20 15 4   37 27 7   52 39 11   66 49 14   79 59 16   91 68 19   100 75 21   104 77 21   3 2 7   3 2 7   3 2 7   3 2 7   3 2 7   16 5 10   16 5 10   16 5 10   16 5 10   16 5 10   59 18 37   95 28 60   129 39 82   162 48 102   
114 32 198   137 38 236   154 43 255   169 47 255   181 50 255   190 53 255   198 55 255   202 57 255   204 57 255   255 109 255   255 119 255   255 127 255   25 7 23   25 7 23   24 9 23   18 10 6   18 10 6   18 10 6   18 10 6   255 255 255   255 255 255   20 15 23   14 12 10   14 12 10   14 12 10   9 7 2   9 7 2   9 7 2   9 7 2   9 7 2   17 13 3   33 24 7   47 35 10   60 45 12   71 53 15   79 59 16   0 21 19   3 2 7   3 2 7   3 2 7   3 2 7   3 2 7   16 5 10   16 5 10   16 5 10   16 5 10   16 5 10   16 5 10   56 16 35   90 27 57   120 36 76   
107 30 186   128 36 221   145 40 250   159 44 255   170 48 255   183 52 255   255 102 255   202 60 255   196 55 255   255 104 255   255 115 255   255 123 255   255 128 255   25 7 23   25 7 23   155 120 176   212 164 240   255 198 255   255 227 255   255 250 255   255 255 255   20 15 23   14 12 10   14 12 10   14 12 10   14 12 10   9 7 2   9 7 2   9 7 2   9 7 2   9 7 2   9 7 2   26 19 5   39 29 8   49 36 10   109 152 152   197 255 255   255 255 255   21 17 23   21 17 23   21 17 23   21 17 23   255 4 69   16 5 10   16 5 10   16 5 10   16 5 10   16 5 10   16 5 10   45 13 28   51 51 51   
96 27 165   116 32 200   132 37 228   146 41 252   158 44 255   168 47 255   198 64 255   197 61 255   185 52 255   255 96 255   255 106 255   255 149 255   255 191 255   255 124 255   25 7 23   25 7 23   188 146 213   230 179 255   255 206 255   255 231 255   255 255 255   20 15 23   20 15 23   14 12 10   14 12 10   14 12 10   9 7 2   9 7 2   9 7 2   9 7 2   9 7 2   9 7 2   9 7 2   14 10 2   15 21 21   68 95 95   148 207 207   255 255 255   255 255 255   21 17 23   21 17 23   21 17 23   21 17 23   16 5 10   16 5 10   16 5 10   16 5 10   16 5 10   16 5 10   51 51 51   51 51 51   
80 22 139   100 28 173   117 32 201   130 36 225   142 40 245   152 42 255   160 45 255   166 46 255   170 47 255   255 85 255   255 95 255   255 104 255   255 112 255   255 114 255   255 115 255   255 109 255   156 121 177   198 153 224   233 181 255   255 205 255   20 15 23   20 15 23   20 15 23   74 83 193   90 100 235   102 114 255   111 125 255   117 131 255   9 7 2   9 7 2   9 7 2   9 7 2   9 7 2   9 7 2   15 21 21   15 21 21   83 116 116   148 207 207   197 255 255   21 17 23   21 17 23   21 17 23   21 17 23   255 255 255   51 51 51   51 51 51   51 51 51   51 51 51   51 51 51   51 51 51   51 51 51   
62 17 107   82 23 142   99 27 170   113 31 194   124 35 215   134 37 232   142 40 246   149 41 255   152 43 255   251 72 229   255 82 255   255 90 255   255 97 255   255 101 255   255 102 255   255 97 255   117 91 133   160 124 181   195 152 221   226 175 255   20 15 23   31 35 82   58 65 152   75 84 197   89 99 233   101 113 255   114 125 255   120 133 255   123 137 255   120 135 255   9 7 2   23 7 15   23 7 15   255 114 235   15 21 21   15 21 21   15 21 21   68 95 95   109 152 152   21 17 23   21 17 23   21 17 23   21 17 23   21 17 23   51 51 51   51 51 51   51 51 51   51 51 51   51 51 51   51 51 51   51 51 51   
40 11 68   61 17 105   78 22 135   92 26 159   104 29 180   114 32 198   123 34 212   129 36 222   132 37 228   197 56 179   233 67 213   255 75 240   220 58 137   255 75 177   255 86 204   255 94 222   255 97 228   39 230 255   47 255 255   20 15 23   14 25 9   36 40 94   55 62 145   71 79 185   84 94 219   103 109 255   157 137 255   189 155 255   136 139 255   122 137 255   23 7 15   23 7 15   255 91 188   255 99 205   255 102 212   15 21 21   15 21 21   15 21 21   21 17 23   21 17 23   21 17 23   21 17 23   21 17 23   255 255 255   51 51 51   51 51 51   51 51 51   51 51 51   51 51 51   51 51 51   51 51 51   
11 3 19   36 10 62   54 15 93   69 19 119   81 23 141   92 25 158   100 28 172   106 29 182   109 30 188   133 38 121   171 49 156   151 40 94   227 60 141   255 74 174   255 84 199   255 93 219   255 97 229   255 97 230   42 243 255   14 25 9   6 7 17   31 35 82   49 55 128   64 71 167   76 85 200   96 101 241   169 136 255   255 177 255   189 154 255   119 131 255   116 129 255   201 64 132   234 74 154   255 82 170   73 255 90   5 21 6   5 21 6   21 17 23   21 17 23   21 17 23   21 17 23   21 17 23   21 17 23   255 224 255   51 51 51   51 51 51   51 51 51   51 51 51   51 51 51   51 51 51   51 51 51   
11 3 19   11 3 19   26 7 45   42 11 73   55 15 95   66 18 113   74 20 127   79 22 137   82 23 141   58 16 53   23 6 14   140 37 87   206 54 128   255 67 159   255 78 184   255 112 220   255 108 226   255 93 220   255 88 208   14 25 9   6 7 17   23 26 61   40 45 106   55 61 144   67 75 176   80 88 208   110 107 255   165 134 255   154 135 255   112 122 255   109 122 255   23 7 15   175 55 115   58 239 72   67 255 83   5 21 6   5 21 6   5 21 6   21 17 23   21 17 23   21 17 23   21 17 23   21 17 23   223 183 245   51 51 51   51 51 51   51 51 51   51 51 51   51 51 51   51 51 51   51 51 51   
11 3 19   11 3 19   11 3 19   11 3 19   24 6 42   35 10 61   43 12 75   48 13 83   49 14 85   25 7 23   20 5 12   107 28 67   171 45 107   220 58 137   255 68 161   255 77 180   255 83 194   255 84 199   20 5 12   3 18 23   6 7 17   13 14 34   30 34 79   44 50 117   57 64 149   68 76 178   79 87 205   93 99 235   100 106 253   98 109 255   99 110 255   75 24 49   43 175 53   52 214 65   61 249 75   69 255 85   5 21 6   5 21 6   5 21 6   21 17 23   21 17 23   21 17 23   160 131 175   255 196 255   51 51 51   51 51 51   51 51 51   51 51 51   51 51 51   51 51 51   51 51 51   
51 51 51   11 3 19   11 3 19   11 3 19   11 3 19   11 3 19   11 3 19   11 3 19   99 133 46   14 19 6   20 5 12   60 16 37   125 33 78   174 46 108   213 56 133   243 64 151   255 70 165   255 72 170   20 5 12   142 135 98   6 7 17   6 7 17   18 20 47   32 36 85   45 51 118   56 63 147   66 74 172   74 83 194   81 90 211   85 95 223   86 96 225   25 103 31   36 146 44   45 185 56   54 220 66   61 251 76   68 255 85   5 21 6   5 21 6   5 21 6   21 17 23   81 67 89   82 67 90   255 178 235   51 51 51   51 51 51   51 51 51   51 51 51   51 51 51   51 51 51   51 51 51   
51 51 51   51 51 51   51 51 51   11 3 19   11 3 19   11 3 19   11 3 19   14 19 6   57 76 26   14 19 6   20 5 12   20 5 12   67 17 42   118 31 73   158 41 98   188 49 117   208 55 129   20 5 12   20 5 12   16 15 11   6 7 17   6 7 17   6 7 17   19 21 50   32 35 83   43 48 113   52 59 138   60 68 159   67 75 175   71 79 186   70 78 183   17 71 21   28 114 34   37 152 46   46 187 57   53 219 66   60 248 75   67 255 82   72 255 88   74 255 92   21 17 23   198 110 145   242 135 178   255 155 204   255 164 216   51 51 51   51 51 51   51 51 51   51 51 51   51 51 51   51 51 51   
51 51 51   51 51 51   51 51 51   51 51 51   51 51 51   51 51 51   51 51 51   14 19 6   14 19 6   14 19 6   14 19 6   20 5 12   20 5 12   49 12 30   90 23 56   120 31 74   138 36 86   20 5 12   20 5 12   16 15 11   6 7 17   6 7 17   6 7 17   6 7 17   16 18 43   28 31 73   37 42 98   45 50 118   51 57 134   53 60 140   45 51 119   8 34 10   13 4 193   17 6 255   21 7 255   25 8 255   27 9 255   29 10 255   62 255 77   64 255 80   99 55 73   149 83 110   192 107 141   228 127 167   234 131 172   51 51 51   51 51 51   51 51 51   51 51 51   51 51 51   51 51 51   
51 51 51   51 51 51   51 51 51   51 51 51   51 51 51   51 51 51   51 51 51   51 51 51   14 19 6   14 19 6   14 19 6   14 19 6   20 5 12   20 5 12   20 5 12   31 8 19   20 5 12   20 5 12   16 15 11   16 15 11   16 15 11   6 7 17   6 7 17   6 7 17   6 7 17   10 11 26   19 22 51   27 30 70   31 35 82   29 33 77   1 0 23   6 2 95   11 4 171   16 5 234   19 7 255   23 8 255   78 41 255   28 10 255   29 10 255   51 211 64   43 24 31   93 52 68   135 75 99   166 93 122   51 51 51   51 51 51   51 51 51   51 51 51   51 51 51   51 51 51   51 51 51   
188 237 53   241 255 69   255 255 76   255 255 80   255 255 80   255 255 77   51 51 51   51 51 51   51 51 51   51 51 51   14 19 6   14 19 6   13 19 23   13 19 23   20 5 12   20 5 12   10 8 1   16 15 11   16 15 11   16 15 11   16 15 11   16 15 11   6 7 17   6 7 17   6 7 17   6 7 17   6 7 17   6 7 17   6 7 17   5 21 6   1 0 23   4 1 65   9 3 138   13 4 200   17 6 254   20 7 255   26 10 255   25 9 255   27 9 255   19 10 14   19 10 14   19 10 14   64 36 47   51 51 51   51 51 51   51 51 51   51 51 51   51 51 51   51 51 51   51 51 51   51 51 51   
255 255 73   255 255 80   255 255 85   255 255 89   255 255 91   255 255 91   255 255 88   255 255 80   51 51 51   51 51 51   51 51 51   51 51 51   40 38 28   109 104 75   141 135 98   2 2 13   2 2 13   2 2 13   2 2 13   20 14 14   20 14 14   20 14 14   255 233 225   16 15 11   16 15 11   6 7 17   17 14 24   17 14 24   17 14 24   17 14 24   85 29 101   135 45 160   175 59 207   209 70 247   238 80 255   255 89 255   255 96 255   255 103 255   255 107 255   255 108 255   19 10 14   19 10 14   51 51 51   51 51 51   51 51 51   51 51 51   107 129 23   142 171 31   163 196 35   51 51 51   51 51 51   
255 255 78   255 255 84   255 255 88   255 255 92   255 255 94   255 255 94   255 255 93   255 255 90   255 255 81   51 51 51   51 51 51   51 51 51   73 70 51   10 9 7   21 23 119   2 2 13   2 2 13   2 2 13   20 14 14   20 14 14   20 14 14   20 14 14   20 14 14   255 255 253   20 14 14   16 15 11   17 14 24   17 14 24   17 14 24   29 10 35   87 29 103   131 44 155   168 56 199   200 67 237   229 77 255   255 86 255   255 100 255   255 106 255   255 105 255   255 109 255   255 105 255   51 51 51   51 51 51   51 51 51   51 62 11   89 107 19   119 143 26   146 175 32   169 204 37   190 229 41   208 250 45   
255 255 79   255 255 84   255 255 89   255 255 94   255 255 99   255 255 96   255 255 94   255 255 92   255 255 87   255 255 73   51 51 51   10 9 7   10 9 7   12 13 69   2 2 13   2 2 13   2 2 13   20 14 14   20 14 14   20 14 14   20 14 14   20 14 14   20 14 14   255 255 254   255 255 253   7 0 1   7 0 1   17 14 24   17 5 21   28 9 33   79 26 94   121 40 143   156 52 185   188 63 223   216 73 255   242 82 255   255 148 255   255 255 255   255 116 255   255 106 255   255 107 255   51 51 51   51 51 51   12 14 2   50 60 11   82 99 18   111 133 24   136 164 30   160 193 35   182 220 40   201 242 44   
255 255 78   255 255 83   255 255 89   255 255 128   255 255 180   255 255 125   255 255 94   255 255 91   255 255 87   255 255 78   51 51 51   10 9 7   10 9 7   2 2 13   2 2 13   2 2 13   20 14 14   20 14 14   20 14 14   20 14 14   20 14 14   20 14 14   20 14 14   255 252 244   255 254 246   255 233 225   7 0 1   7 0 1   17 5 21   17 5 21   66 22 78   106 35 126   141 47 167   172 58 204   200 67 237   226 76 255   255 102 255   255 230 255   255 131 255   255 101 255   255 103 255   51 51 51   12 14 2   12 14 2   39 47 8   70 85 15   98 118 21   124 149 27   147 178 32   178 233 50   216 255 80   
255 255 75   255 255 80   255 255 87   255 255 130   255 255 194   255 255 135   255 255 92   255 255 88   255 255 85   255 255 77   193 242 55   10 9 7   2 2 13   2 2 13   2 2 13   2 2 13   20 14 14   20 14 14   20 14 14   20 14 14   20 14 14   20 14 14   20 14 14   255 233 225   255 237 229   255 221 214   7 0 1   7 0 1   48 214 156   61 255 197   71 255 227   78 255 250   82 255 255   154 52 183   182 61 216   208 70 246   231 78 255   254 90 255   255 93 255   255 95 255   17 5 21   17 5 21   12 14 2   12 14 2   25 30 5   56 67 12   83 100 18   109 131 24   132 159 29   158 198 39   212 255 93   
250 255 71   255 255 76   255 255 80   255 255 87   255 255 97   255 255 91   255 255 85   255 255 84   255 255 80   255 255 73   194 245 55   10 9 7   2 2 13   2 2 13   2 2 13   2 2 13   20 14 14   20 14 14   20 14 14   20 14 14   20 14 14   20 14 14   255 196 189   88 97 189   118 131 254   138 153 255   150 167 255   153 170 255   56 246 179   66 255 213   75 255 241   82 255 255   88 255 255   92 255 255   92 255 255   187 63 222   210 71 249   230 77 255   248 83 255   17 5 21   17 5 21   17 5 21   12 14 2   12 14 2   12 14 2   39 47 8   67 80 14   92 111 20   116 139 25   138 166 30   161 199 39   
232 255 66   248 255 70   255 255 74   255 255 77   255 255 79   255 255 80   255 255 79   255 255 78   255 255 74   234 255 67   167 211 47   9 6 7   10 9 7   2 2 13   2 2 13   2 2 13   20 14 14   20 14 14   20 14 14   20 14 14   20 14 14   21 23 46   81 90 175   111 123 239   133 148 255   151 167 255   164 182 255   173 192 255   57 252 183   67 255 215   75 255 242   83 255 255   89 255 255   93 255 255   96 255 255   95 255 255   187 63 221   207 70 245   224 75 255   17 5 21   17 5 21   17 5 21   12 14 2   12 14 2   12 14 2   20 24 4   48 58 10   74 89 16   97 117 21   119 144 26   140 168 30   
210 255 60   225 255 64   238 255 68   247 255 70   253 255 72   255 255 73   254 255 72   247 255 70   232 255 66   202 254 57   51 51 51   9 6 7   9 6 7   2 2 13   2 2 13   2 2 13   2 2 13   20 14 14   20 14 14   20 14 14   118 83 80   57 63 123   91 101 195   116 129 250   136 151 255   153 170 255   167 185 255   177 196 255   183 203 255   66 255 210   74 255 237   81 255 255   89 255 255   93 255 255   96 255 255   97 255 255   161 54 191   181 61 214   17 5 21   17 5 21   17 5 21   19 13 0   12 14 2   12 14 2   12 14 2   12 14 2   27 33 6   53 64 11   77 93 17   99 120 21   120 144 26   
183 230 52   199 250 56   211 255 60   220 255 63   226 255 64   227 255 65   224 255 64   215 255 61   196 247 56   157 198 45   51 51 51   51 51 51   51 51 51   9 6 7   2 2 13   2 2 13   2 2 13   2 2 13   20 14 14   20 14 14   19 21 42   62 69 133   91 101 197   115 127 247   134 149 255   150 167 255   164 182 255   177 194 255   182 202 255   63 255 202   71 255 228   78 255 251   141 255 255   158 255 255   94 255 255   96 255 255   94 255 255   17 5 21   17 5 21   17 5 21   10 25 3   10 25 3   10 25 3   12 14 2   12 14 2   12 14 2   12 14 2   31 37 6   55 66 12   77 93 17   98 117 21   
151 190 43   167 210 47   179 226 51   188 236 53   192 242 55   192 242 55   187 236 53   174 219 49   148 187 42   230 255 142   51 51 51   51 51 51   51 51 51   51 51 51   51 51 51   4 21 3   4 21 3   22 5 23   22 5 23   20 14 14   22 25 49   59 66 128   87 97 188   110 122 237   129 143 255   145 161 255   160 176 255   255 219 255   178 197 255   59 255 189   67 255 215   74 255 238   92 255 255   130 255 255   90 255 255   92 255 255   92 255 255   17 5 21   17 5 21   19 46 5   78 186 22   10 25 3   10 25 3   10 25 3   12 14 2   12 14 2   12 14 2   12 14 2   30 36 6   52 63 11   72 87 16   
112 141 32   129 162 36   141 177 40   149 187 42   152 191 43   150 188 42   141 177 40   222 251 137   255 255 170   255 255 181   255 255 159   31 83 35   27 74 31   51 51 51   51 51 51   51 51 51   18 0 21   22 5 23   22 5 23   10 11 21   18 20 39   53 59 114   80 89 172   102 113 220   121 134 255   137 151 255   150 166 255   165 179 255   169 187 255   173 192 255   62 255 200   70 255 223   76 255 243   81 255 255   85 255 255   88 255 255   88 255 255   5 23 17   10 25 3   10 25 3   63 150 18   108 255 30   145 255 41   10 25 3   10 25 3   12 14 2   12 14 2   12 14 2   12 14 2   23 27 5   42 50 9   
62 78 17   80 101 23   92 116 26   99 125 28   100 126 28   94 118 26   128 145 79   216 244 133   255 255 162   255 255 172   255 255 157   39 106 45   40 109 46   38 104 44   51 51 51   18 0 21   22 5 23   22 5 23   22 5 23   10 11 21   10 11 21   43 47 92   69 77 150   91 102 197   110 122 237   126 140 255   139 155 255   150 166 255   158 175 255   162 180 255   57 250 182   64 255 205   70 255 225   75 255 242   79 255 255   82 255 255   82 255 255   5 23 17   10 25 3   10 25 3   39 93 11   84 199 24   121 255 34   152 255 43   10 25 3   19 13 0   12 14 2   12 14 2   12 14 2   12 14 2   51 51 51   
18 22 5   18 22 5   25 32 7   30 38 8   25 31 7   18 22 5   88 100 54   173 195 106   217 246 134   230 255 142   197 223 122   42 113 48   43 116 49   43 115 49   38 104 44   18 0 21   22 5 23   22 5 23   22 5 23   10 11 21   10 11 21   29 32 62   56 62 121   78 87 169   97 108 209   113 125 244   126 140 255   137 152 255   144 160 255   148 165 255   50 222 162   57 253 184   64 255 204   69 255 221   73 255 233   75 255 240   74 255 238   17 10 12   17 10 12   10 25 3   10 25 3   53 127 15   91 216 26   121 255 34   140 255 39   136 97 2   164 116 3   182 129 3   51 51 51   51 51 51   51 51 51   
51 51 51   51 51 51   51 51 51   51 51 51   51 51 51   51 51 51   16 18 9   90 102 56   135 152 83   138 156 85   39 106 45   43 115 49   43 117 50   43 116 49   40 109 46   2 6 2   22 5 23   22 5 23   22 5 23   22 5 23   10 11 21   10 11 21   39 44 85   62 69 135   82 90 176   97 108 210   111 123 238   121 134 255   128 142 255   131 145 255   43 189 138   50 221 161   56 247 180   61 255 196   65 255 208   66 255 213   64 255 205   17 10 12   17 10 12   10 25 3   10 25 3   10 25 3   52 123 14   80 191 22   85 203 24   87 61 1   110 78 2   51 51 51   51 51 51   51 51 51   51 51 51   
51 51 51   51 51 51   94 42 113   106 48 128   95 43 115   51 51 51   2 6 2   2 6 2   2 6 2   35 93 39   38 103 44   60 132 62   43 115 49   42 113 48   237 91 240   255 106 255   24 9 24   22 5 23   22 5 23   22 5 23   10 11 21   10 11 21   19 21 40   43 48 93   63 69 135   79 87 170   92 102 198   102 113 219   108 120 232   108 120 233   34 151 110   41 182 133   47 209 152   52 230 167   55 243 177   56 245 179   47 206 150   17 10 12   129 74 89   194 112 133   236 136 162   10 25 3   10 25 3   19 13 0   19 13 0   19 13 0   51 51 51   51 51 51   51 51 51   51 51 51   51 51 51   
62 28 75   102 46 123   122 55 147   130 59 158   128 58 155   106 48 128   2 6 2   2 6 2   28 75 31   32 87 37   36 97 41   38 103 44   227 87 229   255 110 255   255 126 255   255 137 255   255 144 255   24 9 24   24 9 24   22 5 23   22 5 23   10 11 21   10 11 21   18 20 39   39 43 84   56 62 120   69 76 148   77 86 167   81 90 175   15 66 48   23 104 76   31 136 99   37 162 118   41 181 132   43 190 138   40 175 127   3 4 18   3 4 18   3 4 18   119 68 81   150 86 103   51 51 51   51 51 51   51 51 51   51 51 51   51 51 51   51 51 51   51 51 51   51 51 51   51 51 51   51 51 51   
83 37 101   111 50 134   128 58 154   181 123 208   132 59 159   116 52 140   2 6 2   18 48 20   24 66 28   186 45 78   32 87 37   220 85 222   255 109 255   255 127 255   255 140 255   255 150 255   255 157 255   255 161 255   24 9 24   24 9 24   22 5 23   22 5 23   10 11 21   10 11 21   10 11 21   25 28 54   37 41 80   43 48 94   38 42 81   5 23 17   10 45 33   17 78 56   23 102 74   26 114 83   23 102 74   3 4 18   3 4 18   3 4 18   3 4 18   3 4 18   51 51 51   51 51 51   51 51 51   51 51 51   51 51 51   51 51 51   51 51 51   51 51 51   51 51 51   51 51 51   51 51 51   
83 37 100   107 48 129   122 56 147   138 72 164   124 56 150   107 48 129   154 37 65   210 51 88   244 59 102   255 64 111   255 67 115   255 99 255   255 119 255   255 135 255   255 147 255   255 157 255   255 164 255   255 168 255   255 168 255   24 9 24   24 9 24   22 5 23   22 5 23   22 5 23   18 13 22   10 11 21   51 51 51   51 51 51   21 6 23   5 23 17   5 23 17   5 23 17   5 23 17   37 44 182   46 55 225   54 65 255   67 86 255   74 95 255   69 83 255   69 82 255   51 51 51   51 51 51   51 51 51   51 51 51   51 51 51   51 51 51   51 51 51   51 51 51   51 51 51   51 51 51   51 51 51   
71 32 86   94 42 113   106 48 129   110 50 134   105 47 127   155 38 65   212 51 89   250 61 105   255 67 116   255 72 124   255 74 128   255 106 255   255 124 255   255 139 255   255 151 255   255 160 255   255 167 255   255 171 255   255 172 255   255 169 255   24 9 24   22 5 23   18 13 22   18 13 22   18 13 22   18 13 22   51 51 51   51 51 51   21 6 23   21 6 23   3 4 18   13 15 64   25 30 124   35 42 173   44 53 216   52 63 255   74 100 255   96 139 255   73 92 255   69 82 255   65 77 255   51 51 51   51 51 51   51 51 51   51 51 51   51 51 51   51 51 51   51 51 51   51 51 51   51 51 51   51 51 51   
46 21 56   70 31 85   82 37 99   84 38 101   72 33 88   193 47 81   237 57 100   255 65 113   255 71 123   255 76 133   255 79 138   255 109 255   255 126 255   255 140 255   255 151 255   255 160 255   255 215 255   255 177 255   255 172 255   255 170 255   255 161 255   24 9 24   18 13 22   18 13 22   18 13 22   51 51 51   51 51 51   51 51 51   21 6 23   21 6 23   3 4 18   10 12 51   22 27 110   32 39 159   41 49 202   49 59 240   62 79 255   82 113 255   71 91 255   67 80 255   65 77 255   51 51 51   51 51 51   51 51 51   51 51 51   51 51 51   51 51 51   51 51 51   51 51 51   51 51 51   51 51 51   
7 3 8   28 13 35   40 18 48   35 15 42   158 38 66   210 51 88   248 60 104   255 67 117   255 76 133   255 99 189   255 109 212   255 109 255   255 125 255   255 138 255   255 149 255   255 160 255   255 255 255   255 196 255   255 170 255   255 168 255   255 160 255   255 139 255   18 13 22   51 51 51   51 51 51   51 51 51   51 51 51   51 51 51   51 51 51   21 6 23   3 4 18   6 7 31   18 22 91   29 34 140   37 45 183   45 54 220   52 62 255   60 73 255   62 75 255   63 75 255   62 74 255   51 51 51   51 51 51   51 51 51   51 51 51   51 51 51   51 51 51   51 51 51   51 51 51   51 51 51   51 51 51   
51 51 51   51 51 51   51 51 51   103 25 43   171 41 72   217 53 91   251 61 106   255 68 118   255 84 154   255 140 255   255 154 255   255 106 255   255 122 255   255 135 255   255 145 255   255 154 255   255 164 255   255 164 255   255 165 255   255 163 255   255 155 255   255 134 255   51 51 51   51 51 51   51 51 51   51 51 51   51 51 51   51 51 51   51 51 51   51 51 51   3 4 18   3 4 18   13 16 66   24 28 116   33 39 160   40 48 197   47 56 229   52 62 255   56 67 255   58 70 255   56 67 255   51 51 51   51 51 51   51 51 51   51 51 51   51 51 51   51 51 51   51 51 51   51 51 51   51 51 51   51 51 51   
51 51 51   51 51 51   17 4 7   112 27 47   172 42 72   215 52 90   248 60 104   255 67 116   255 80 145   255 117 235   255 120 242   255 102 255   255 117 255   255 129 255   255 140 255   255 148 255   255 154 255   255 157 255   255 158 255   255 156 255   255 147 255   255 124 255   51 51 51   51 51 51   51 51 51   51 51 51   51 51 51   51 51 51   51 51 51   51 51 51   3 4 18   3 4 18   7 8 34   18 21 87   27 32 131   34 41 169   41 49 201   46 55 227   50 60 246   52 62 255   48 57 233   51 51 51   51 51 51   51 51 51   51 51 51   51 51 51   51 51 51   51 51 51   51 51 51   51 51 51   51 51 51   
51 51 51   51 51 51   17 4 7   110 26 46   166 40 70   207 50 87   239 58 100   255 64 111   255 70 122   255 78 141   255 79 141   246 95 249   255 110 255   255 122 255   255 132 255   255 140 255   255 146 255   255 149 255   255 149 255   255 146 255   255 135 255   255 103 255   51 51 51   51 51 51   51 51 51   51 51 51   51 51 51   51 51 51   51 51 51   51 51 51   51 51 51   3 4 18   3 4 18   10 12 50   20 23 97   28 33 135   34 41 168   39 47 193   43 51 210   43 52 212   51 51 51   51 51 51   51 51 51   51 51 51   51 51 51   51 51 51   51 51 51   51 51 51   51 51 51   51 51 51   51 51 51   
51 51 51   51 51 51   17 4 7   97 23 41   153 37 64   193 47 81   224 54 94   247 60 104   255 64 111   255 67 117   255 69 119   222 86 224   255 101 255   255 113 255   255 123 255   255 130 255   255 136 255   255 138 255   255 138 255   255 133 255   255 119 255   51 51 51   51 51 51   51 51 51   51 51 51   51 51 51   51 51 51   51 51 51   51 51 51   51 51 51   51 51 51   51 51 51   3 4 18   3 4 18   10 12 52   19 22 93   25 30 125   30 36 149   33 39 160   51 51 51   51 51 51   51 51 51   51 51 51   51 51 51   51 51 51   51 51 51   51 51 51   51 51 51   51 51 51   51 51 51   51 51 51   
51 51 51   51 51 51   51 51 51   73 18 31   131 32 55   172 42 72   203 49 85   226 55 95   242 59 102   253 61 106   255 62 108   192 74 193   231 89 234   255 101 255   255 111 255   255 118 255   255 123 255   255 125 255   255 123 255   255 115 255   237 91 239   51 51 51   51 51 51   51 51 51   51 51 51   51 51 51   51 51 51   51 51 51   51 51 51   51 51 51   51 51 51   51 51 51   51 51 51   3 4 18   3 4 18   6 7 31   13 15 63   16 19 78   51 51 51   51 51 51   51 51 51   51 51 51   51 51 51   51 51 51   51 51 51   51 51 51   51 51 51   51 51 51   51 51 51   51 51 51   51 51 51   
