P3
51 51
255
51 51 51   51 51 51   51 51 51   51 51 51   51 51 51   51 51 51   51 51 51   51 51 51   144 77 90   231 123 145   255 153 180   255 178 209   255 199 234   255 225 255   255 233 255   255 239 255   3 70 32   4 97 44   5 118 54   6 136 62   6 152 70   7 167 76   8 181 83   9 193 89   9 204 93   9 213 97   9 215 98   51 51 51   51 51 51   51 51 51   51 51 51   51 51 51   51 51 51   51 51 51   51 51 51   51 51 51   51 51 51   51 51 51   51 51 51   51 51 51   51 51 51   51 51 51   51 51 51   51 51 51   51 51 51   51 51 51   51 51 51   51 51 51   51 51 51   51 51 51   51 51 51   
51 51 51   51 51 51   51 51 51   51 51 51   51 51 51   51 51 51   51 51 51   51 51 51   130 69 81   199 106 124   252 134 158   255 158 186   255 183 213   255 255 255   255 255 255   255 230 255   255 229 255   3 87 39   4 106 48   5 124 56   6 140 64   7 154 70   12 169 85   63 190 179   24 195 116   9 202 92   9 209 95   51 51 51   51 51 51   51 51 51   51 51 51   51 51 51   51 51 51   51 51 51   51 51 51   51 51 51   51 51 51   51 51 51   51 51 51   51 51 51   51 51 51   51 51 51   51 51 51   51 51 51   51 51 51   51 51 51   51 51 51   51 51 51   51 51 51   51 51 51   51 51 51   
51 51 51   51 51 51   51 51 51   51 51 51   51 51 51   51 51 51   51 51 51   24 13 15   92 49 57   157 83 98   209 111 131   254 135 159   255 157 184   255 196 220   255 255 255   255 228 255   255 211 248   3 73 33   4 93 42   4 110 50   5 126 57   6 140 64   8 154 73   73 178 191   105 196 252   10 189 89   8 197 90   9 200 91   51 51 51   51 51 51   51 51 51   51 51 51   51 51 51   51 51 51   51 51 51   51 51 51   51 51 51   51 51 51   51 51 51   51 51 51   51 51 51   51 51 51   51 51 51   51 51 51   51 51 51   51 51 51   51 51 51   51 51 51   51 51 51   51 51 51   51 51 51   
51 51 51   51 51 51   51 51 51   51 51 51   51 51 51   51 51 51   51 51 51   24 13 15   43 23 27   108 57 67   161 85 101   206 110 129   246 131 154   255 150 176   255 169 197   255 181 212   255 188 221   2 58 26   3 78 35   4 95 43   5 111 50   5 125 57   6 139 63   9 152 73   19 165 96   9 174 81   8 182 83   8 188 86   51 51 51   51 51 51   51 51 51   51 51 51   51 51 51   51 51 51   51 51 51   51 51 51   51 51 51   51 51 51   51 51 51   51 51 51   51 51 51   51 51 51   51 51 51   51 51 51   51 51 51   51 51 51   51 51 51   51 51 51   51 51 51   51 51 51   51 51 51   
51 51 51   53 207 255   57 222 255   59 230 255   59 229 255   51 51 51   51 51 51   24 13 15   24 13 15   52 28 32   106 56 66   152 81 95   193 103 121   228 121 143   255 138 162   255 151 178   255 160 189   1 42 19   2 61 28   3 78 36   4 94 43   4 109 50   5 123 56   6 135 62   6 147 67   7 157 72   7 166 76   7 172 79   51 51 51   51 51 51   51 51 51   51 51 51   51 51 51   51 51 51   51 51 51   51 51 51   51 51 51   51 51 51   51 51 51   51 51 51   34 5 102   42 6 125   49 7 146   55 8 165   61 9 183   51 51 51   51 51 51   51 51 51   51 51 51   51 51 51   51 51 51   
52 204 255   56 220 255   60 233 255   62 243 255   64 250 255   65 254 255   65 253 255   51 51 51   24 13 15   24 13 15   45 24 28   93 49 58   134 71 84   170 91 107   201 107 126   226 120 141   243 129 152   1 24 11   1 43 20   2 61 28   3 77 35   4 92 42   4 105 48   5 118 54   5 130 59   6 140 64   6 149 68   7 155 71   6 148 67   51 51 51   51 51 51   51 51 51   51 51 51   51 51 51   51 51 51   51 51 51   51 51 51   51 51 51   11 1 35   21 3 64   29 4 88   37 5 110   43 6 130   50 7 149   56 8 168   62 9 185   51 51 51   51 51 51   51 51 51   51 51 51   51 51 51   
52 203 255   56 218 255   59 230 255   62 240 255   64 248 255   65 255 255   66 255 255   66 255 255   3 14 23   24 13 15   24 13 15   24 13 15   69 37 43   106 56 66   137 73 86   161 86 101   24 13 15   0 11 5   1 24 11   1 42 19   2 58 26   3 73 33   3 87 40   4 100 45   5 111 51   5 122 55   5 130 59   6 136 62   51 51 51   51 51 51   51 51 51   51 51 51   51 51 51   51 51 51   51 51 51   51 51 51   51 51 51   51 51 51   7 1 22   16 2 48   24 3 71   31 4 92   38 5 112   50 10 138   175 80 255   56 8 168   61 9 183   51 51 51   51 51 51   51 51 51   51 51 51   
50 196 255   54 210 255   57 222 255   60 232 255   62 241 255   64 248 255   65 253 255   66 255 255   65 253 255   3 14 23   24 13 15   24 13 15   24 13 15   33 18 21   64 34 40   87 46 54   0 11 5   0 11 5   0 11 5   1 22 10   1 38 17   2 53 24   3 67 31   3 80 36   4 92 42   4 102 46   4 110 50   5 114 52   255 63 18   51 51 51   51 51 51   51 51 51   51 51 51   51 51 51   51 51 51   51 51 51   51 51 51   3 0 10   3 0 10   10 1 30   17 2 53   25 3 74   31 4 94   38 5 113   50 10 138   50 7 149   55 8 165   51 51 51   51 51 51   51 51 51   51 51 51   
48 186 255   51 199 255   54 211 255   57 222 255   82 239 255   117 255 255   68 246 255   63 247 255   64 248 255   62 243 255   24 13 15   24 13 15   24 13 15   24 13 15   24 13 15   24 13 15   0 11 5   0 11 5   0 11 5   0 11 5   0 17 7   1 32 14   2 46 21   2 59 27   3 70 32   3 80 36   3 87 40   4 89 40   255 54 15   255 170 118   51 51 51   51 51 51   51 51 51   51 51 51   51 51 51   51 51 51   51 51 51   3 0 10   3 0 10   3 0 10   11 1 33   18 2 55   25 3 75   31 4 94   38 5 112   43 6 130   49 7 146   51 51 51   51 51 51   51 51 51   51 51 51   
44 173 255   48 186 255   51 198 255   54 209 255   84 228 255   242 255 255   127 255 255   61 236 255   61 237 255   60 235 255   58 225 255   24 13 15   24 13 15   24 13 15   24 13 15   24 13 15   0 11 5   0 11 5   0 11 5   0 11 5   0 11 5   0 11 5   1 23 10   1 35 16   2 46 21   2 55 25   2 61 28   2 55 25   172 32 9   255 53 15   255 65 18   51 51 51   51 51 51   51 51 51   51 51 51   51 51 51   3 0 10   3 0 10   3 0 10   3 0 10   3 0 10   11 1 34   18 2 55   25 3 74   31 4 92   27 188 72   33 233 89   39 255 104   51 51 51   51 51 51   51 51 51   
40 158 255   44 171 255   47 183 255   50 194 255   53 203 255   64 215 255   66 221 255   57 222 255   57 224 255   57 223 255   55 216 255   49 191 255   9 19 20   9 19 20   9 19 20   9 19 20   0 11 5   0 11 5   0 11 5   0 11 5   0 11 5   0 11 5   0 11 5   0 11 5   0 19 9   1 27 12   1 28 12   24 4 1   24 4 1   134 25 7   180 34 9   51 51 51   51 51 51   51 51 51   51 51 51   51 51 51   51 51 51   3 0 10   3 0 10   3 0 10   3 0 10   3 0 10   11 1 33   8 59 22   16 113 43   23 159 61   29 202 77   35 242 93   40 255 107   51 51 51   51 51 51   
36 141 236   40 154 255   43 167 255   45 177 255   48 186 255   50 194 255   51 201 255   53 205 255   53 208 255   53 207 255   52 202 255   47 185 255   9 19 20   9 19 20   9 19 20   9 19 20   9 19 20   9 19 20   0 11 5   0 11 5   0 11 5   0 11 5   0 11 5   0 11 5   0 11 5   0 11 5   51 51 51   24 4 1   24 4 1   24 4 1   51 51 51   51 51 51   51 51 51   51 51 51   51 51 51   51 51 51   51 51 51   3 0 10   3 0 10   3 0 10   3 0 10   3 0 10   2 16 6   4 28 11   11 78 30   17 124 47   24 166 63   46 219 95   71 255 129   40 255 106   51 51 51   
31 122 204   35 136 227   38 148 248   41 159 255   43 168 255   45 176 255   47 182 255   48 187 255   49 190 255   49 189 255   47 185 255   44 170 255   99 209 218   112 236 246   137 255 255   9 19 20   9 19 20   9 19 20   9 19 20   0 11 5   0 11 5   0 11 5   0 11 5   0 11 5   17 11 16   255 210 255   255 203 255   51 51 51   51 51 51   51 51 51   51 51 51   36 6 35   135 24 130   194 34 187   51 51 51   51 51 51   51 51 51   3 0 10   3 0 10   3 0 10   3 0 10   3 0 10   2 16 6   2 16 6   5 40 15   12 86 33   18 128 49   24 168 64   29 206 79   34 240 92   51 51 51   
26 101 169   29 115 193   33 127 214   35 138 232   38 148 247   40 156 255   41 162 255   43 167 255   43 169 255   43 169 255   42 164 255   38 149 249   87 185 193   100 211 220   114 236 247   144 255 255   9 19 20   9 19 20   9 19 20   9 19 20   17 11 16   17 11 16   17 11 16   17 11 16   255 212 255   255 194 255   255 195 255   51 51 51   51 51 51   51 51 51   51 51 51   10 1 10   77 13 74   138 24 133   40 152 47   75 255 88   100 255 117   51 51 51   3 0 10   3 0 10   3 0 10   3 0 10   2 16 6   2 16 6   2 16 6   6 45 17   12 88 33   18 128 49   23 165 63   28 199 76   51 51 51   
20 78 130   23 92 154   27 105 176   30 116 194   32 125 210   34 133 223   36 140 234   37 144 241   37 146 245   37 145 243   36 139 233   31 122 204   74 158 165   87 184 192   98 207 216   109 228 238   124 248 255   9 19 20   38 106 165   45 125 193   50 139 215   54 150 233   58 159 247   60 166 255   61 168 255   252 174 238   255 177 242   51 51 51   51 51 51   51 51 51   51 51 51   10 1 10   10 1 10   5 22 6   27 103 32   58 220 68   118 255 100   100 255 117   51 51 51   51 51 51   51 51 51   3 0 10   2 16 6   2 16 6   2 16 6   2 16 6   6 44 17   12 84 32   17 121 46   22 153 58   51 51 51   
13 51 86   17 67 112   20 80 134   23 91 153   26 101 169   28 109 182   29 115 192   30 119 199   31 120 202   30 118 198   28 110 185   22 86 144   60 127 132   72 154 160   83 177 184   93 197 205   24 66 102   34 94 145   40 112 174   46 127 197   50 140 217   54 150 233   58 160 248   61 167 255   63 173 255   64 176 255   61 168 255   51 51 51   51 51 51   51 51 51   51 51 51   51 51 51   51 51 51   5 22 6   5 22 6   33 126 39   58 220 68   75 255 88   51 51 51   51 51 51   51 51 51   51 51 51   2 16 6   2 16 6   2 16 6   2 16 6   2 16 6   5 37 14   10 72 27   51 51 51   51 51 51   
5 21 36   9 38 63   13 51 86   16 63 106   18 73 122   20 81 135   22 87 145   23 90 151   23 91 152   22 87 145   19 74 125   187 255 216   222 255 255   247 255 255   255 255 255   15 43 66   27 74 115   34 94 147   40 111 172   45 124 193   49 136 212   53 147 228   58 156 242   62 164 254   62 170 255   63 175 255   64 176 255   60 165 255   51 51 51   51 51 51   51 51 51   51 51 51   51 51 51   5 22 6   5 22 6   5 22 6   27 103 32   40 152 47   51 51 51   51 51 51   51 51 51   12 8 5   12 8 5   2 16 6   2 16 6   2 16 6   2 16 6   2 16 6   222 154 96   51 51 51   51 51 51   
3 14 23   3 14 23   4 19 32   8 31 52   10 41 69   12 49 82   14 54 91   14 57 95   14 55 93   12 48 80   5 22 38   198 255 229   227 255 255   250 255 255   255 255 255   17 49 76   26 73 113   33 91 141   38 106 164   43 119 185   47 131 203   52 141 219   76 151 233   129 161 246   104 167 255   64 171 255   63 173 255   62 172 255   3 4 17   51 51 51   51 51 51   51 51 51   51 51 51   51 51 51   5 22 6   5 22 6   5 22 6   51 51 51   51 51 51   12 8 5   12 8 5   12 8 5   12 8 5   12 8 5   146 102 63   167 117 73   192 136 87   205 144 90   215 150 93   227 158 98   51 51 51   
3 14 23   3 14 23   3 14 23   3 14 23   3 14 23   3 14 23   3 14 23   3 14 23   3 14 23   3 14 23   160 228 185   193 255 223   220 255 254   241 255 255   5 15 24   16 46 72   24 67 105   30 85 131   36 99 154   41 112 174   45 124 192   50 134 208   88 144 222   225 157 236   235 164 247   88 165 254   61 167 255   61 168 255   58 160 249   51 51 51   51 51 51   51 51 51   51 51 51   15 15 10   51 51 51   51 51 51   51 51 51   51 51 51   51 51 51   12 8 5   12 8 5   66 46 28   90 63 39   112 78 48   133 93 57   158 111 70   236 176 126   255 232 174   221 157 103   216 151 94   51 51 51   
3 14 23   3 14 23   3 14 23   3 14 23   3 14 23   3 14 23   3 14 23   3 14 23   15 22 18   109 156 126   149 212 172   180 255 208   206 255 238   227 255 255   4 12 20   14 40 62   22 60 93   28 77 119   33 91 142   37 104 161   42 115 179   46 126 195   60 135 209   124 145 222   165 153 233   87 156 241   58 160 247   58 161 250   57 157 244   128 255 236   142 255 255   15 15 10   15 15 10   15 15 10   15 15 10   15 15 10   51 51 51   51 51 51   12 8 5   12 8 5   26 18 11   52 36 22   76 53 33   98 68 42   118 82 51   139 97 61   196 143 99   255 248 192   255 195 140   204 142 89   214 149 93   
51 51 51   51 51 51   51 51 51   51 51 51   51 51 51   51 51 51   51 51 51   19 23 17   40 57 47   94 134 109   132 188 153   162 231 188   188 255 217   209 255 241   3 9 14   11 31 48   18 51 79   24 67 105   29 82 127   34 94 147   38 106 164   42 116 180   46 125 194   55 133 207   64 141 218   58 146 226   54 150 233   55 152 236   54 149 231   119 255 218   138 255 253   142 255 255   15 15 10   15 15 10   15 15 10   15 15 10   15 15 10   51 51 51   12 8 5   12 8 5   12 8 5   36 25 16   60 42 26   82 57 35   102 71 44   121 85 52   143 100 63   184 133 89   199 143 96   188 132 82   199 139 86   
51 51 51   51 51 51   51 51 51   51 51 51   51 51 51   51 51 51   19 23 17   19 23 17   19 28 23   72 103 83   110 156 127   140 199 162   165 235 191   186 255 215   3 9 14   7 20 31   14 40 62   20 57 88   26 71 110   30 84 130   34 95 148   38 105 163   41 114 178   44 122 190   47 129 201   49 135 210   50 139 216   51 141 219   50 138 214   99 255 182   119 255 218   128 255 236   15 15 10   169 170 120   203 205 145   239 255 203   254 255 181   255 255 185   12 8 5   12 8 5   12 8 5   19 13 8   43 30 18   65 45 28   85 59 37   104 73 45   123 85 53   140 98 61   157 110 68   170 119 74   182 127 79   
51 51 51   51 51 51   51 51 51   51 51 51   51 51 51   51 51 51   19 23 17   19 23 17   15 22 18   44 62 51   82 117 95   113 161 131   139 197 160   160 228 185   3 9 14   3 9 14   10 27 43   16 44 69   21 59 92   26 72 112   30 83 129   34 93 145   37 103 159   40 111 172   42 117 182   44 123 191   46 127 197   46 128 199   45 124 193   73 194 134   92 246 169   101 255 185   100 101 71   139 140 99   205 135 58   250 165 71   255 188 81   20 13 5   12 8 5   12 8 5   12 8 5   12 8 5   24 17 10   47 32 20   67 47 29   86 60 37   105 73 45   122 85 53   137 96 59   152 106 66   163 114 71   
51 51 51   51 51 51   51 51 51   51 51 51   51 51 51   51 51 51   19 23 17   19 23 17   15 22 18   15 22 18   50 71 57   82 116 94   108 153 125   15 22 18   3 9 14   3 9 14   4 13 20   11 30 48   16 45 71   21 59 91   25 70 109   29 80 125   32 89 139   35 97 151   38 104 162   39 109 170   41 113 175   41 113 176   39 108 167   39 104 71   57 152 105   57 153 105   119 78 34   177 117 50   221 146 63   255 171 74   255 192 83   255 211 91   20 13 5   12 8 5   12 8 5   12 8 5   12 8 5   27 19 11   48 33 20   67 47 29   85 59 37   102 71 44   118 82 51   132 92 57   141 99 61   
51 51 51   51 51 51   51 51 51   51 51 51   51 51 51   51 51 51   51 51 51   19 23 17   19 23 17   15 22 18   15 22 18   44 63 51   71 102 82   15 22 18   3 9 14   3 9 14   3 9 14   5 15 23   11 30 47   16 44 68   20 55 86   24 66 102   27 75 116   30 83 129   32 89 139   34 94 146   35 97 150   35 96 149   30 84 131   8 21 14   8 21 14   67 44 19   129 85 37   177 117 50   217 143 62   253 167 72   255 188 81   255 206 89   255 223 96   20 13 5   12 8 5   12 8 5   12 8 5   12 8 5   27 18 11   46 32 20   64 45 28   81 57 35   96 67 42   109 76 47   111 77 48   
51 51 51   51 51 51   51 51 51   51 51 51   51 51 51   51 51 51   51 51 51   51 51 51   19 23 17   15 22 18   15 22 18   15 22 18   27 39 31   15 22 18   15 22 18   3 9 14   3 9 14   3 9 14   4 13 20   9 27 42   14 39 60   18 49 77   21 58 91   24 66 103   26 72 112   27 76 119   28 78 121   26 74 114   19 10 11   19 10 11   20 13 5   70 46 20   123 81 35   168 110 47   206 136 58   241 159 68   255 179 77   255 198 85   255 217 94   255 231 100   255 242 104   12 8 5   12 8 5   12 8 5   12 8 5   23 16 10   41 29 18   58 40 25   72 50 31   80 56 35   51 51 51   
51 51 51   51 51 51   51 51 51   51 51 51   51 51 51   51 51 51   51 51 51   51 51 51   12 25 24   12 25 24   15 22 18   15 22 18   15 22 18   15 22 18   15 22 18   3 9 14   3 9 14   3 9 14   3 9 14   3 9 14   7 20 31   11 30 47   14 40 62   17 47 73   19 52 81   20 55 86   19 54 84   12 35 54   19 10 11   19 10 11   20 13 5   60 40 17   110 73 31   153 101 43   191 126 54   225 148 64   255 169 73   255 187 81   255 244 118   255 255 191   255 233 101   255 242 104   12 8 5   12 8 5   12 8 5   12 8 5   12 8 5   29 20 12   39 27 17   51 51 51   51 51 51   
51 51 51   51 51 51   51 51 51   51 51 51   51 51 51   51 51 51   51 51 51   51 51 51   12 25 24   12 25 24   12 25 24   7 5 20   7 5 20   15 22 18   15 22 18   15 22 18   3 9 14   3 9 14   3 9 14   3 9 14   3 9 14   3 9 14   6 17 26   8 24 37   10 28 43   10 27 42   3 10 16   19 10 11   19 10 11   20 13 5   20 13 5   44 29 12   93 61 26   135 89 38   172 114 49   206 136 58   237 156 67   255 175 75   255 195 85   255 253 124   255 222 96   255 231 99   20 13 5   12 8 5   12 8 5   12 8 5   12 8 5   51 51 51   51 51 51   51 51 51   51 51 51   
51 51 51   51 51 51   51 51 51   51 51 51   51 51 51   51 51 51   51 51 51   51 51 51   12 25 24   12 25 24   12 25 24   7 5 20   7 5 20   7 5 20   7 5 20   7 5 20   7 5 20   7 5 20   3 9 14   3 9 14   3 9 14   3 9 14   3 9 14   3 9 14   3 9 14   19 10 11   19 10 11   19 10 11   19 10 11   20 13 5   20 13 5   20 13 5   72 47 20   113 75 32   151 99 43   185 122 52   215 142 61   243 161 69   255 177 76   255 193 83   255 206 89   255 217 93   255 224 96   20 13 5   51 51 51   51 51 51   51 51 51   51 51 51   51 51 51   51 51 51   51 51 51   
51 51 51   51 51 51   51 51 51   51 51 51   51 51 51   51 51 51   51 51 51   51 51 51   12 25 24   12 25 24   12 25 24   7 5 20   7 5 20   7 5 20   7 5 20   7 5 20   7 5 20   7 5 20   7 5 20   7 5 20   7 5 20   7 5 20   51 51 51   51 51 51   51 51 51   19 10 11   19 10 11   19 10 11   19 10 11   20 13 5   20 13 5   20 13 5   47 31 13   89 59 25   127 83 36   161 106 45   191 126 54   220 145 62   245 162 70   255 177 76   255 190 82   255 201 87   255 208 89   255 201 87   51 51 51   51 51 51   51 51 51   51 51 51   51 51 51   51 51 51   51 51 51   
51 51 51   51 51 51   51 51 51   51 51 51   51 51 51   51 51 51   51 51 51   51 51 51   51 51 51   12 25 24   12 25 24   7 5 20   7 5 20   7 5 20   7 5 20   7 5 20   7 5 20   7 5 20   7 5 20   7 5 20   7 5 20   7 5 20   51 51 51   51 51 51   51 51 51   51 51 51   19 10 11   11 0 16   11 0 16   20 13 5   20 13 5   20 13 5   20 13 5   61 40 17   100 66 28   134 88 38   165 109 47   193 127 55   219 144 62   242 159 69   255 172 74   255 183 79   255 189 81   255 176 76   51 51 51   51 51 51   51 51 51   51 51 51   51 51 51   51 51 51   51 51 51   
51 51 51   51 51 51   51 51 51   51 51 51   51 51 51   51 51 51   10 17 21   10 17 21   10 17 21   10 17 21   10 17 21   12 25 24   7 5 20   17 2 25   17 2 25   17 2 25   17 2 25   7 5 20   7 5 20   7 5 20   7 5 20   51 51 51   51 51 51   51 51 51   51 51 51   48 1 67   101 2 143   136 3 191   11 0 16   11 0 16   20 13 5   20 13 5   20 13 5   30 20 8   69 46 19   104 69 29   136 89 38   164 108 46   190 125 54   212 140 60   231 153 66   246 162 70   251 166 71   51 51 51   51 51 51   51 51 51   51 51 51   51 51 51   51 51 51   51 51 51   51 51 51   
51 51 51   51 51 51   51 51 51   51 51 51   51 51 51   92 153 188   135 224 255   160 255 255   10 17 21   10 17 21   10 17 21   17 2 25   17 2 25   17 2 25   17 2 25   17 2 25   17 2 25   17 2 25   17 2 25   7 5 20   51 51 51   51 51 51   51 51 51   51 51 51   11 0 16   70 1 99   109 2 153   140 3 196   164 3 231   11 0 16   11 0 16   20 13 5   20 13 5   20 13 5   35 23 10   70 46 20   102 68 29   131 86 37   157 103 44   179 118 51   197 130 56   209 138 59   206 136 58   51 51 51   51 51 51   51 51 51   51 51 51   51 51 51   51 51 51   51 51 51   51 51 51   
51 51 51   51 51 51   51 51 51   51 51 51   60 99 122   113 188 230   144 239 255   166 255 255   183 255 255   10 17 21   10 17 21   17 2 25   203 23 255   246 28 255   17 2 25   17 2 25   17 2 25   17 2 25   17 2 25   51 51 51   51 51 51   51 51 51   51 51 51   51 51 51   24 0 34   72 1 101   107 2 151   136 3 191   160 3 225   180 4 253   11 0 16   20 13 5   20 13 5   20 13 5   20 13 5   32 21 9   65 43 18   94 62 26   119 78 34   140 92 40   156 103 44   161 106 46   246 66 78   255 84 99   51 51 51   51 51 51   51 51 51   51 51 51   51 51 51   51 51 51   51 51 51   
51 51 51   51 51 51   51 51 51   51 51 51   74 122 150   114 190 233   142 236 255   162 255 255   191 255 255   243 255 255   70 8 101   151 17 217   203 23 255   242 28 255   255 31 255   255 36 255   255 48 255   255 36 255   255 35 255   34 71 105   59 123 182   73 153 226   81 170 250   79 165 243   22 0 32   66 1 93   100 2 141   128 2 180   152 3 213   172 4 241   219 33 255   11 0 16   20 13 5   20 13 5   20 13 5   20 13 5   20 13 5   165 122 179   233 173 253   255 212 255   255 241 255   255 255 255   230 62 73   255 83 98   255 95 112   51 51 51   51 51 51   51 51 51   51 51 51   51 51 51   51 51 51   
51 51 51   51 51 51   51 51 51   10 17 21   69 116 142   107 178 217   133 221 255   152 252 255   168 255 255   186 255 255   72 8 104   143 16 206   192 22 255   230 26 255   255 30 255   255 32 255   255 36 255   255 35 255   16 34 50   46 98 144   65 136 201   78 163 241   86 181 255   90 188 255   81 170 251   55 1 78   89 2 125   116 2 163   140 3 196   160 3 225   177 4 248   190 4 255   11 0 16   11 0 16   20 13 5   22 16 24   114 85 124   187 139 204   246 183 255   255 220 255   255 251 255   255 255 255   255 255 255   255 71 83   255 86 101   51 51 51   51 51 51   51 51 51   51 51 51   51 51 51   51 51 51   
51 51 51   51 51 51   51 51 51   10 17 21   55 92 112   92 152 187   117 195 239   136 226 255   149 247 255   157 255 255   55 6 80   124 14 178   172 20 248   209 24 255   238 27 255   255 30 255   255 31 255   17 2 25   22 47 70   47 98 145   64 133 197   76 160 235   215 255 255   89 187 255   86 180 255   40 0 57   74 1 103   101 2 142   125 2 176   145 3 204   162 3 227   175 4 246   184 4 255   11 0 16   11 0 16   35 26 38   119 88 129   185 138 202   242 180 255   255 216 255   255 248 255   255 255 255   255 255 255   255 255 255   255 68 80   51 51 51   51 51 51   51 51 51   51 51 51   51 51 51   51 51 51   
51 51 51   51 51 51   51 51 51   51 51 51   30 50 62   69 115 141   95 158 194   114 189 232   126 210 255   10 17 21   24 2 34   95 11 136   144 16 207   181 21 255   209 24 255   230 26 255   17 2 25   17 2 25   19 40 59   42 88 130   58 122 180   70 147 217   87 172 251   83 175 255   81 171 252   20 0 29   55 1 77   83 1 117   107 2 150   127 2 178   144 3 202   156 3 220   164 3 231   165 3 231   22 16 24   31 23 34   109 81 118   173 128 188   228 170 248   255 206 255   255 237 255   255 255 255   255 255 255   255 255 255   255 255 255   51 51 51   51 51 51   51 51 51   51 51 51   51 51 51   51 51 51   
51 51 51   51 51 51   51 51 51   51 51 51   10 17 21   36 61 75   65 108 133   84 140 172   97 161 197   10 17 21   17 2 25   53 6 77   105 12 152   144 16 207   172 20 248   192 22 255   17 2 25   17 2 25   10 21 31   33 69 102   49 103 152   61 128 189   69 146 215   73 154 228   71 149 219   11 0 16   31 0 44   61 1 85   85 1 119   105 2 148   122 2 171   134 3 188   140 3 197   136 3 191   22 16 24   22 16 24   90 67 98   154 114 167   209 155 227   255 191 255   255 223 255   255 255 255   255 255 255   255 255 255   255 255 255   51 51 51   51 51 51   51 51 51   51 51 51   51 51 51   51 51 51   
51 51 51   51 51 51   51 51 51   51 51 51   51 51 51   10 17 21   21 35 43   43 71 87   55 91 112   10 17 21   10 17 21   17 2 25   53 6 77   95 11 136   124 14 178   17 2 25   17 2 25   17 2 25   4 10 15   19 41 60   36 76 112   48 101 150   56 118 174   59 125 184   53 111 164   11 0 16   11 0 16   9 152 66   12 200 86   14 234 101   1 19 8   1 19 8   1 19 8   82 1 115   22 16 24   22 16 24   65 48 71   129 95 140   184 136 200   232 173 253   255 205 255   255 233 255   255 255 255   255 255 255   255 255 255   255 255 255   51 51 51   51 51 51   51 51 51   51 51 51   51 51 51   
51 51 51   51 51 51   51 51 51   51 51 51   51 51 51   51 51 51   51 51 51   10 17 21   10 17 21   51 51 51   1 106 51   3 224 108   4 255 142   5 255 167   6 255 186   0 23 11   0 23 11   0 23 11   0 23 11   4 10 15   18 38 56   30 64 94   37 79 116   37 78 116   51 51 51   4 76 33   8 146 63   11 194 84   14 232 100   16 255 113   17 255 124   1 19 8   1 19 8   1 19 8   22 16 24   22 16 24   34 25 37   98 73 107   154 114 167   203 151 221   246 183 255   255 211 255   255 236 255   255 255 255   255 255 255   255 252 255   51 51 51   51 51 51   51 51 51   51 51 51   51 51 51   
51 51 51   51 51 51   51 51 51   51 51 51   51 51 51   51 51 51   51 51 51   51 51 51   51 51 51   51 51 51   2 160 77   4 247 119   5 255 149   5 255 172   6 255 189   0 23 11   0 23 11   0 23 11   0 23 11   0 23 11   4 10 15   4 10 15   4 10 15   51 51 51   2 39 17   7 116 50   10 169 73   12 211 91   15 246 106   16 255 119   18 255 130   1 19 8   1 19 8   1 19 8   22 16 24   22 16 24   22 16 24   61 45 67   118 88 129   168 125 183   212 158 231   251 186 255   255 211 255   255 229 255   255 240 255   51 51 51   51 51 51   51 51 51   51 51 51   51 51 51   51 51 51   
51 51 51   51 51 51   51 51 51   51 51 51   51 51 51   51 51 51   153 255 20   160 255 20   51 51 51   0 51 24   2 175 84   4 252 121   5 255 149   5 255 170   6 255 187   72 255 240   0 23 11   0 23 11   0 23 11   0 23 11   51 51 51   51 51 51   51 51 51   1 19 8   4 71 30   8 131 57   10 179 77   13 218 94   15 251 108   17 255 121   18 255 132   19 255 140   1 19 8   1 19 8   1 19 8   22 16 24   22 16 24   22 16 24   77 57 83   128 95 139   173 128 188   211 157 230   243 181 255   255 198 255   255 204 255   51 51 51   51 51 51   51 51 51   51 51 51   51 51 51   51 51 51   
51 51 51   51 51 51   51 51 51   51 51 51   51 51 51   156 255 20   225 255 29   240 255 31   160 255 20   1 63 30   2 171 83   4 243 118   4 255 144   5 255 165   6 255 180   7 255 192   7 255 199   0 23 11   0 23 11   0 23 11   51 51 51   51 51 51   51 51 51   1 19 8   5 83 36   8 137 59   11 181 78   13 219 94   15 251 109   17 255 121   18 255 131   20 255 140   1 19 8   1 19 8   1 19 8   1 19 8   22 16 24   22 16 24   22 16 24   79 59 86   125 93 136   163 121 178   194 144 211   213 158 231   189 140 206   51 51 51   51 51 51   51 51 51   51 51 51   51 51 51   51 51 51   
51 51 51   51 51 51   51 51 51   51 51 51   13 24 1   159 255 20   215 255 28   225 255 29   13 24 1   0 50 24   2 155 75   3 225 109   4 255 134   5 255 154   5 255 170   6 255 181   6 255 187   6 255 188   6 255 180   14 77 12   46 239 40   56 255 49   51 255 44   1 19 8   5 86 37   8 137 59   11 179 77   13 216 93   15 248 107   16 255 119   18 255 129   29 255 152   74 255 223   1 19 8   1 19 8   1 19 8   1 19 8   22 16 24   22 16 24   22 16 24   64 47 69   101 75 110   126 94 137   113 84 123   51 51 51   51 51 51   51 51 51   51 51 51   51 51 51   51 51 51   51 51 51   
51 51 51   51 51 51   51 51 51   51 51 51   51 51 51   107 197 14   159 255 20   156 255 20   51 51 51   0 23 11   2 125 60   3 196 95   4 249 120   4 255 140   5 255 155   5 255 166   5 255 171   5 255 171   21 111 18   47 244 40   62 255 54   72 255 62   77 255 66   71 255 61   5 82 35   8 132 57   10 174 75   12 209 90   14 241 104   16 255 116   17 255 126   29 255 151   167 255 255   25 255 155   1 19 8   1 19 8   1 19 8   7 16 12   7 16 12   22 16 24   22 16 24   135 255 213   51 51 51   51 51 51   51 51 51   51 51 51   51 51 51   51 51 51   51 51 51   51 51 51   51 51 51   
51 51 51   51 51 51   51 51 51   51 51 51   51 51 51   51 51 51   13 24 1   51 51 51   51 51 51   0 23 11   1 80 38   2 156 75   3 210 102   4 252 122   4 255 136   4 255 146   5 255 150   4 23 3   34 178 29   54 255 46   68 255 59   83 255 85   86 255 84   82 255 71   4 74 32   7 123 53   10 164 71   12 200 86   14 231 100   15 255 112   17 255 122   18 255 131   25 255 147   20 255 145   21 255 149   1 19 8   1 19 8   7 16 12   7 16 12   159 255 228   230 255 255   138 255 219   51 51 51   51 51 51   51 51 51   51 51 51   51 51 51   51 51 51   51 51 51   51 51 51   51 51 51   
51 51 51   51 51 51   51 51 51   51 51 51   51 51 51   51 51 51   51 51 51   51 51 51   51 51 51   51 51 51   0 23 11   1 99 48   2 158 76   3 200 97   3 230 111   0 23 11   0 23 11   10 52 8   37 195 32   55 255 48   70 255 65   124 255 218   130 255 225   84 255 74   3 62 27   6 111 48   9 152 66   11 188 81   13 219 94   15 246 106   16 255 117   17 255 126   18 255 133   19 255 139   20 255 143   20 255 145   20 255 141   54 117 86   82 176 130   107 225 168   154 255 227   132 255 208   51 51 51   51 51 51   51 51 51   51 51 51   51 51 51   51 51 51   51 51 51   51 51 51   51 51 51   
51 51 51   51 51 51   51 51 51   51 51 51   51 51 51   51 51 51   51 51 51   51 51 51   51 51 51   51 51 51   51 51 51   0 23 11   1 82 40   2 129 62   0 23 11   0 23 11   0 23 11   10 56 9   36 187 31   53 255 46   67 255 60   106 255 166   115 255 182   81 255 72   2 45 19   5 95 41   8 137 59   10 173 74   12 204 88   14 231 100   15 255 110   16 255 119   18 255 127   18 255 133   19 255 137   19 255 138   18 255 133   40 85 63   68 146 108   91 195 144   108 232 171   118 253 187   51 51 51   51 51 51   51 51 51   51 51 51   51 51 51   51 51 51   51 51 51   51 51 51   51 51 51   
51 51 51   51 51 51   51 51 51   51 51 51   51 51 51   51 51 51   51 51 51   51 51 51   51 51 51   51 51 51   51 51 51   51 51 51   0 23 11   0 23 11   0 23 11   0 23 11   51 51 51   5 29 4   31 161 26   48 249 41   60 255 52   71 255 66   76 255 71   74 255 64   64 255 55   4 76 32   7 118 51   9 154 67   11 186 80   13 214 92   14 238 103   15 255 112   16 255 119   17 255 125   18 255 128   18 255 129   17 255 123   19 42 31   49 106 78   73 155 115   90 192 142   98 209 154   51 51 51   51 51 51   51 51 51   51 51 51   51 51 51   51 51 51   51 51 51   51 51 51   51 51 51   
51 51 51   51 51 51   51 51 51   51 51 51   51 51 51   51 51 51   51 51 51   51 51 51   51 51 51   51 51 51   51 51 51   51 51 51   51 51 51   51 51 51   51 51 51   51 51 51   51 51 51   4 23 3   22 113 19   39 205 34   52 255 45   60 255 52   65 255 56   63 255 55   1 19 8   3 51 22   5 95 41   8 133 57   10 165 71   11 193 83   13 217 94   14 238 103   15 254 110   16 255 115   16 255 118   16 255 118   15 249 108   7 16 12   23 49 36   47 101 74   63 134 99   51 51 51   51 51 51   51 51 51   51 51 51   51 51 51   51 51 51   51 51 51   51 51 51   51 51 51   51 51 51   
