P3
51 51
255
51 51 51   51 51 51   51 51 51   51 51 51   51 51 51   51 51 51   51 51 51   51 51 51   51 51 51   132 182 4   175 242 5   206 255 6   231 255 7   251 255 8   255 255 8   255 255 9   255 255 9   51 51 51   51 51 51   51 51 51   51 51 51   51 51 51   51 51 51   51 51 51   51 51 51   51 51 51   51 51 51   51 51 51   51 51 51   51 51 51   51 51 51   51 51 51   51 51 51   51 51 51   51 51 51   51 51 51   51 51 51   51 51 51   51 51 51   51 51 51   51 51 51   51 51 51   51 51 51   51 51 51   51 51 51   51 51 51   51 51 51   51 51 51   51 51 51   51 51 51   51 51 51   
51 51 51   51 51 51   51 51 51   51 51 51   51 51 51   51 51 51   51 51 51   51 51 51   72 99 2   128 176 4   162 224 5   190 255 6   214 255 7   235 255 7   253 255 8   255 255 8   255 255 9   255 255 9   51 51 51   51 51 51   51 51 51   51 51 51   51 51 51   51 51 51   51 51 51   51 51 51   51 51 51   51 51 51   51 51 51   51 51 51   51 51 51   51 51 51   51 51 51   51 51 51   51 51 51   51 51 51   51 51 51   51 51 51   51 51 51   51 51 51   51 51 51   51 51 51   51 51 51   51 51 51   51 51 51   51 51 51   51 51 51   51 51 51   51 51 51   51 51 51   51 51 51   
51 51 51   51 51 51   51 51 51   51 51 51   51 51 51   51 51 51   51 51 51   51 51 51   67 93 2   110 152 3   142 196 4   169 234 5   193 255 6   214 255 7   255 255 25   255 255 36   255 255 8   255 255 8   51 51 51   51 51 51   51 51 51   51 51 51   51 51 51   51 51 51   51 51 51   51 51 51   51 51 51   51 51 51   51 51 51   51 51 51   51 51 51   51 51 51   51 51 51   51 51 51   51 51 51   51 51 51   51 51 51   51 51 51   51 51 51   51 51 51   51 51 51   51 51 51   51 51 51   51 51 51   51 51 51   51 51 51   51 51 51   51 51 51   51 51 51   51 51 51   51 51 51   
51 51 51   51 51 51   51 51 51   51 51 51   51 51 51   51 51 51   51 51 51   51 51 51   46 64 1   86 119 2   118 163 3   145 201 4   169 234 5   190 255 6   209 255 7   234 255 14   238 255 7   247 255 8   245 255 8   51 51 51   51 51 51   51 51 51   51 51 51   51 51 51   51 51 51   51 51 51   51 51 51   51 51 51   51 51 51   51 51 51   51 51 51   51 51 51   51 51 51   51 51 51   51 51 51   51 51 51   51 51 51   51 51 51   51 51 51   51 51 51   51 51 51   51 51 51   51 51 51   51 51 51   51 51 51   51 51 51   51 51 51   51 51 51   51 51 51   51 51 51   51 51 51   
51 51 51   51 51 51   51 51 51   51 51 51   51 51 51   51 51 51   51 51 51   15 21 0   19 27 0   59 82 1   91 126 3   118 163 3   142 197 4   164 226 5   183 252 6   199 255 6   213 255 7   222 255 7   224 255 7   51 51 51   51 51 51   51 51 51   51 51 51   51 51 51   51 51 51   51 51 51   51 51 51   51 51 51   51 51 51   51 51 51   51 51 51   51 51 51   51 51 51   51 51 51   51 51 51   51 51 51   51 51 51   51 51 51   51 51 51   51 51 51   51 51 51   51 51 51   51 51 51   51 51 51   51 51 51   51 51 51   51 51 51   51 51 51   51 51 51   51 51 51   51 51 51   
51 51 51   51 51 51   51 51 51   51 51 51   51 51 51   51 51 51   51 51 51   51 51 51   15 21 0   28 39 0   61 84 2   88 122 2   113 156 3   134 186 4   153 212 5   170 235 5   184 254 6   194 255 6   196 255 6   51 51 51   197 235 15   255 255 21   255 255 25   255 255 28   51 51 51   51 51 51   51 51 51   51 51 51   51 51 51   51 51 51   51 51 51   51 51 51   51 51 51   51 51 51   51 51 51   51 51 51   51 51 51   51 51 51   51 51 51   51 51 51   51 51 51   51 51 51   51 51 51   51 51 51   51 51 51   51 51 51   51 51 51   51 51 51   51 51 51   51 51 51   51 51 51   
51 51 51   51 51 51   51 51 51   51 51 51   51 51 51   51 51 51   51 51 51   51 51 51   15 21 0   15 21 0   27 37 0   55 77 1   80 111 2   102 141 3   122 168 4   138 191 4   152 210 5   161 223 5   163 226 5   99 119 8   182 217 14   241 255 19   255 255 23   255 255 26   255 255 28   51 51 51   51 51 51   51 51 51   51 51 51   51 51 51   51 51 51   51 51 51   51 51 51   51 51 51   51 51 51   51 51 51   51 51 51   51 51 51   51 51 51   51 51 51   51 51 51   51 51 51   51 51 51   51 51 51   51 51 51   51 51 51   51 51 51   51 51 51   51 51 51   51 51 51   51 51 51   
51 51 51   51 51 51   51 51 51   51 51 51   51 51 51   51 51 51   51 51 51   51 51 51   15 21 0   15 21 0   15 21 0   15 21 0   44 62 1   67 93 2   87 120 2   103 143 3   116 161 3   125 173 4   125 172 4   68 81 5   140 168 11   198 237 15   246 255 19   255 255 79   255 255 25   255 255 25   51 51 51   51 51 51   51 51 51   51 51 51   51 51 51   51 51 51   51 51 51   131 202 87   188 255 125   234 255 156   255 255 180   51 51 51   51 51 51   51 51 51   51 51 51   51 51 51   51 51 51   51 51 51   51 51 51   51 51 51   51 51 51   51 51 51   51 51 51   51 51 51   51 51 51   
51 51 51   51 51 51   51 51 51   51 51 51   51 51 51   51 51 51   51 51 51   51 51 51   51 51 51   15 21 0   15 21 0   15 21 0   15 21 0   27 38 0   47 65 1   64 88 2   76 105 2   83 115 2   76 105 2   19 23 1   88 106 7   146 174 11   194 232 15   234 255 18   255 255 21   255 255 22   51 51 51   51 51 51   51 51 51   51 51 51   51 51 51   51 51 51   34 53 22   99 154 66   153 237 102   201 255 135   241 255 163   255 255 176   255 203 130   255 239 153   255 255 173   255 255 190   51 51 51   51 51 51   51 51 51   51 51 51   51 51 51   51 51 51   51 51 51   51 51 51   51 51 51   
51 51 51   51 51 51   51 51 51   51 51 51   51 51 51   51 51 51   51 51 51   51 51 51   51 51 51   15 21 0   15 21 0   15 21 0   15 21 0   15 21 0   15 21 0   15 21 0   29 41 0   31 43 1   51 51 51   19 23 1   19 23 1   85 102 6   134 160 10   174 208 14   205 244 16   215 255 17   51 51 51   1 25 226   3 41 255   51 51 51   51 51 51   51 51 51   15 23 10   57 88 38   109 170 73   155 241 104   196 255 131   226 255 151   239 177 113   255 213 136   255 247 157   255 255 175   255 255 190   51 51 51   51 51 51   51 51 51   51 51 51   51 51 51   51 51 51   51 51 51   51 51 51   
51 51 51   51 51 51   51 51 51   51 51 51   51 51 51   51 51 51   51 51 51   51 51 51   51 51 51   51 51 51   15 21 0   15 21 0   15 21 0   15 21 0   15 21 0   15 21 0   15 21 0   51 51 51   51 51 51   19 23 1   19 23 1   19 23 1   65 78 5   105 126 8   133 159 10   129 154 10   0 2 23   1 19 177   2 33 255   6 44 255   51 51 51   15 23 10   15 23 10   15 23 10   60 93 40   106 165 71   146 226 97   175 255 117   199 148 95   246 183 117   255 224 140   255 247 157   255 255 173   51 51 51   51 51 51   51 51 51   51 51 51   51 51 51   51 51 51   51 51 51   51 51 51   
51 51 51   51 51 51   51 51 51   51 51 51   51 51 51   24 15 7   24 15 7   24 15 7   51 51 51   51 51 51   87 43 95   240 119 255   255 164 255   15 21 0   15 21 0   51 51 51   51 51 51   51 51 51   51 51 51   19 23 1   19 23 1   19 23 1   19 23 1   19 23 1   41 49 3   51 51 51   0 2 23   0 6 62   1 20 187   0 2 23   51 51 51   51 51 51   15 23 10   15 23 10   15 23 10   68 24 113   116 42 192   153 55 254   183 66 255   203 150 96   246 183 117   255 213 136   255 239 153   124 153 128   165 204 170   51 51 51   51 51 51   51 51 51   51 51 51   51 51 51   51 51 51   
51 51 51   51 51 51   51 51 51   51 51 51   217 140 61   255 215 94   24 15 7   24 15 7   24 15 7   51 51 51   21 10 23   86 42 93   174 86 188   178 88 193   51 51 51   51 51 51   51 51 51   51 51 51   51 51 51   51 51 51   51 51 51   19 23 1   19 23 1   19 23 1   51 51 51   51 51 51   0 2 23   0 2 23   0 4 39   0 2 23   51 51 51   51 51 51   15 23 10   15 23 10   10 3 17   49 17 82   92 33 152   129 46 213   255 128 255   183 66 255   199 148 95   239 177 113   57 71 59   101 126 105   140 174 145   175 217 181   203 252 210   51 51 51   51 51 51   51 51 51   51 51 51   
51 51 51   51 51 51   51 51 51   51 51 51   166 107 47   255 174 76   255 219 96   24 15 7   24 15 7   24 15 7   51 51 51   21 10 23   21 10 23   51 51 51   51 51 51   51 51 51   51 51 51   51 51 51   51 51 51   51 51 51   51 51 51   51 51 51   14 52 157   16 59 178   51 51 51   1 4 5   1 4 5   1 4 5   1 4 5   1 4 5   1 4 5   51 51 51   51 51 51   51 51 51   10 3 17   19 6 31   61 22 101   97 35 160   129 46 213   153 55 254   148 110 70   11 13 11   27 34 28   70 87 72   108 134 112   145 179 149   174 216 180   51 51 51   51 51 51   51 51 51   51 51 51   
51 51 51   51 51 51   51 51 51   51 51 51   67 43 19   174 112 49   244 158 69   255 187 82   24 15 7   24 15 7   51 51 51   51 51 51   51 51 51   51 51 51   51 51 51   51 51 51   51 51 51   51 51 51   51 51 51   51 51 51   8 29 88   12 43 130   15 53 160   17 60 182   18 65 198   8 30 44   11 41 60   1 4 5   1 4 5   1 4 5   1 4 5   1 4 5   51 51 51   51 51 51   10 3 17   10 3 17   24 9 41   61 22 101   92 33 152   116 42 192   92 68 43   11 13 11   11 13 11   34 43 35   73 90 75   108 134 111   138 171 143   51 51 51   51 51 51   51 51 51   51 51 51   
51 51 51   51 51 51   51 51 51   51 51 51   24 15 7   43 27 12   119 77 34   166 107 47   24 15 7   24 15 7   51 51 51   51 51 51   72 123 255   82 140 255   85 145 255   8 8 4   8 8 4   8 8 4   51 51 51   1 3 10   1 3 10   11 38 116   13 48 145   18 57 169   20 63 187   6 26 37   9 36 53   12 45 66   1 4 5   1 4 5   1 4 5   1 4 5   1 4 5   51 51 51   10 3 17   10 3 17   10 3 17   19 6 31   49 17 82   68 24 113   22 16 10   11 13 11   11 13 11   11 13 11   33 41 34   68 84 70   44 203 86   52 235 100   58 255 112   51 51 51   51 51 51   
51 51 51   51 51 51   233 180 110   255 245 150   255 255 172   255 255 187   255 255 197   255 255 202   255 255 200   51 51 51   60 102 250   74 126 255   84 144 255   92 156 255   97 166 255   100 171 255   99 170 255   8 8 4   51 51 51   1 3 10   1 3 10   9 31 95   11 41 124   13 48 146   16 55 165   16 58 175   8 30 43   10 39 56   1 4 5   1 4 5   1 4 5   1 4 5   1 4 5   51 51 51   51 51 51   10 3 17   10 3 17   10 3 17   10 3 17   22 16 10   22 16 10   11 13 11   11 13 11   15 71 30   26 120 51   34 158 67   42 191 81   49 222 95   55 251 107   61 255 118   66 255 129   
51 51 51   207 160 98   255 220 135   255 255 159   255 255 176   255 255 190   255 255 200   255 255 207   255 255 210   48 83 203   64 109 255   75 128 255   84 144 255   91 156 255   97 166 255   101 172 255   103 176 255   101 173 255   51 51 51   43 73 93   60 102 131   72 121 155   80 135 173   86 144 186   87 147 189   14 49 149   6 22 32   8 31 45   10 39 56   1 4 5   1 4 5   1 4 5   15 58 83   51 51 51   51 51 51   51 51 51   51 51 51   51 51 51   51 51 51   51 51 51   51 51 51   51 51 51   3 17 7   14 64 27   23 104 44   30 140 59   38 172 73   44 203 86   51 231 98   58 255 111   62 255 121   
122 95 58   226 175 107   255 220 135   255 254 156   255 255 172   255 255 185   255 255 195   255 255 202   30 51 125   49 84 206   62 106 255   72 124 255   81 138 255   88 150 255   101 162 255   110 171 255   101 172 255   101 173 255   97 165 255   49 82 106   61 103 133   71 120 155   79 134 172   86 145 186   90 152 195   91 153 197   3 14 20   6 23 33   8 30 44   9 37 54   11 43 62   12 47 68   12 48 69   51 51 51   51 51 51   51 51 51   51 51 51   51 51 51   51 51 51   51 51 51   51 51 51   3 17 7   3 17 7   10 45 19   18 83 35   26 118 50   33 150 64   40 181 77   46 209 89   119 238 156   120 255 164   
140 108 66   216 167 102   255 208 127   255 239 147   255 255 162   255 255 175   255 255 186   255 255 196   29 49 122   45 78 191   58 98 242   68 115 255   76 129 255   83 141 255   120 161 255   255 212 255   102 165 255   97 166 255   95 162 255   80 136 255   58 98 126   68 114 146   76 128 164   133 166 182   94 150 189   90 151 194   88 148 190   3 13 18   5 21 30   7 27 40   8 33 47   9 36 53   9 35 51   51 51 51   51 51 51   51 51 51   51 51 51   51 51 51   51 51 51   51 51 51   51 51 51   3 17 7   3 17 7   5 22 9   13 60 25   21 95 40   28 127 54   34 157 67   41 186 79   49 213 93   84 239 128   
123 95 58   192 149 91   242 187 115   255 218 134   255 243 149   255 255 162   255 255 172   255 255 180   24 41 101   39 67 165   51 87 215   61 104 255   69 118 255   76 130 255   82 140 255   93 149 255   90 153 255   91 155 255   89 152 255   81 138 255   52 89 114   62 104 134   70 118 151   177 183 174   163 181 183   85 143 184   85 143 184   1 4 5   2 9 13   4 16 23   5 21 30   6 23 33   22 255 61   28 255 78   51 51 51   51 51 51   51 51 51   51 51 51   51 51 51   51 51 51   51 51 51   3 17 7   3 17 7   3 17 7   7 35 15   15 69 29   22 102 43   29 132 56   35 161 68   41 188 80   47 213 91   
90 69 42   158 122 75   208 161 99   248 192 118   255 217 133   255 237 146   255 254 156   255 255 163   16 27 67   31 54 132   43 74 182   53 90 222   61 104 255   68 116 255   74 126 255   78 133 255   81 139 255   83 141 255   81 139 255   74 126 255   45 77 98   55 92 118   62 105 135   70 117 150   76 126 161   78 131 168   78 132 170   5 8 10   1 4 5   1 4 5   1 5 7   12 163 34   20 255 56   27 255 74   31 255 85   51 51 51   51 51 51   51 51 51   51 51 51   51 51 51   51 51 51   3 17 7   3 17 7   3 17 7   3 17 7   9 42 18   16 75 32   23 105 45   29 134 57   35 161 68   41 187 79   
43 33 20   115 89 54   166 128 79   207 160 98   239 185 114   255 206 126   255 222 136   255 235 144   5 9 23   21 37 90   33 57 141   43 74 183   52 88 217   59 100 246   64 110 255   69 117 255   72 122 255   73 124 255   71 122 255   63 107 255   37 62 80   46 78 100   54 91 117   60 102 131   66 111 142   69 116 150   70 117 151   5 8 10   1 4 5   16 17 17   1 23 4   8 110 23   16 210 44   22 255 61   27 255 75   29 255 79   51 51 51   51 51 51   51 51 51   51 51 51   51 51 51   3 17 7   3 17 7   3 17 7   3 17 7   3 17 7   10 46 19   17 77 32   23 106 45   29 133 56   35 158 67   
24 18 11   60 46 28   115 89 54   157 122 74   191 148 91   218 169 103   239 185 114   255 197 121   5 9 23   9 16 39   22 38 93   32 55 136   41 70 171   48 82 201   53 91 224   58 98 242   60 103 254   61 104 255   59 100 246   46 78 192   27 45 58   36 61 78   44 74 95   50 85 110   55 94 120   59 99 127   58 98 127   16 17 17   16 17 17   201 218 226   1 23 4   1 23 4   10 135 28   16 215 45   21 255 58   23 255 63   135 140 144   185 191 197   216 224 231   51 51 51   51 51 51   3 17 7   3 17 7   3 17 7   3 17 7   3 17 7   3 17 7   10 46 19   16 75 32   22 102 43   28 128 54   
24 18 11   24 18 11   52 40 24   98 76 46   134 103 63   162 125 77   183 142 87   198 153 94   5 9 23   5 9 23   8 14 35   19 33 81   28 48 118   35 60 148   41 69 171   45 76 188   47 80 198   47 80 197   42 72 177   5 8 10   15 25 32   24 41 53   32 55 70   39 65 84   43 73 94   46 77 99   43 73 94   16 17 17   56 61 63   16 17 17   1 23 4   1 23 4   3 38 8   9 118 25   13 174 36   102 105 109   151 156 161   191 198 203   224 232 239   250 255 255   255 255 255   51 51 51   3 17 7   3 17 7   3 17 7   3 17 7   3 17 7   3 17 7   9 42 18   15 69 29   20 93 40   
51 51 51   24 18 11   24 18 11   24 18 11   63 49 30   93 72 44   115 89 54   129 100 61   24 18 11   5 9 23   5 9 23   5 9 23   12 21 53   20 34 84   25 43 107   29 50 123   30 52 129   28 48 119   12 20 50   5 8 10   5 8 10   10 17 22   18 31 40   25 42 54   29 48 62   29 49 64   51 51 51   51 51 51   51 51 51   51 51 51   51 51 51   1 23 4   1 23 4   1 23 4   39 40 42   95 99 102   140 145 149   178 185 190   211 219 225   240 249 255   255 255 255   255 255 255   3 17 7   3 17 7   3 17 7   3 17 7   3 17 7   3 17 7   3 17 7   6 30 13   11 52 22   
51 51 51   51 51 51   24 18 11   24 18 11   24 18 11   24 18 11   24 18 11   24 18 11   24 18 11   24 18 11   5 9 23   5 9 23   5 9 23   5 9 23   5 9 23   9 15 37   7 13 32   21 9 1   51 51 51   5 8 10   5 8 10   5 8 10   5 8 10   6 11 14   8 14 18   51 51 51   51 51 51   17 2 17   17 2 17   17 2 17   51 51 51   51 51 51   51 51 51   14 15 15   16 7 8   16 7 8   16 7 8   159 165 170   192 199 205   242 255 255   244 254 255   255 255 255   51 51 51   51 51 51   3 17 7   3 17 7   3 17 7   3 17 7   3 17 7   3 17 7   51 51 51   
51 51 51   51 51 51   51 51 51   51 51 51   51 51 51   24 18 11   24 18 11   24 18 11   13 60 44   41 182 133   59 255 190   5 24 18   5 9 23   5 9 23   5 9 23   21 9 1   21 9 1   21 9 1   21 9 1   51 51 51   24 14 14   5 8 10   5 8 10   24 14 14   51 51 51   51 51 51   17 2 17   158 22 159   17 2 17   17 2 17   51 51 51   51 51 51   51 51 51   16 7 8   16 7 8   16 7 8   16 7 8   16 7 8   168 174 179   197 204 210   221 229 236   238 247 254   229 237 244   51 51 51   51 51 51   51 51 51   51 51 51   51 51 51   51 51 51   51 51 51   51 51 51   
51 51 51   51 51 51   51 51 51   51 51 51   51 51 51   51 51 51   51 51 51   51 51 51   5 24 18   31 136 99   48 213 156   5 24 18   5 24 18   5 24 18   5 24 18   21 9 1   21 9 1   21 9 1   21 9 1   51 51 51   24 14 14   24 14 14   24 14 14   255 224 233   255 182 190   51 51 51   17 2 17   101 14 101   193 27 194   17 2 17   17 2 17   51 51 51   16 7 8   16 7 8   16 7 8   16 7 8   16 7 8   16 7 8   140 145 149   169 175 180   193 200 205   209 217 223   200 207 213   51 51 51   51 51 51   51 51 51   51 51 51   51 51 51   51 51 51   51 51 51   51 51 51   
51 51 51   51 51 51   51 51 51   51 51 51   51 51 51   51 51 51   51 51 51   51 51 51   5 24 18   15 69 50   5 24 18   5 24 18   5 24 18   5 24 18   5 24 18   21 9 1   21 9 1   21 9 1   21 9 1   51 51 51   24 14 14   89 51 54   208 120 125   255 153 160   23 7 9   51 51 51   17 2 17   17 2 17   101 14 101   155 22 155   51 51 51   51 51 51   51 51 51   16 7 8   16 7 8   16 7 8   16 7 8   16 7 8   107 111 114   136 141 145   159 165 170   173 180 185   51 51 51   51 51 51   51 51 51   51 51 51   51 51 51   51 51 51   51 51 51   51 51 51   51 51 51   
51 51 51   51 51 51   51 51 51   51 51 51   51 51 51   51 51 51   51 51 51   51 51 51   51 51 51   5 24 18   5 24 18   5 24 18   5 24 18   5 24 18   5 24 18   5 24 18   51 51 51   51 51 51   51 51 51   23 7 9   23 7 9   24 14 14   24 14 14   24 14 14   255 137 162   255 138 162   4 11 4   4 11 4   17 2 17   75 192 77   73 186 75   51 51 51   51 51 51   16 7 8   16 7 8   16 7 8   16 7 8   16 7 8   69 71 73   97 100 103   118 122 126   124 129 133   51 51 51   51 51 51   51 51 51   51 51 51   51 51 51   51 51 51   51 51 51   51 51 51   51 51 51   
51 51 51   51 51 51   51 51 51   51 51 51   51 51 51   51 51 51   51 51 51   51 51 51   51 51 51   51 51 51   5 24 18   5 24 18   5 24 18   5 24 18   89 94 15   117 122 20   119 125 21   51 51 51   23 7 9   23 7 9   23 7 9   23 7 9   255 117 138   255 129 152   255 138 163   255 142 167   255 137 161   4 11 4   67 172 69   75 193 78   79 204 82   51 51 51   51 51 51   51 51 51   16 7 8   16 7 8   14 15 15   14 15 15   14 15 15   47 48 50   59 62 63   51 51 51   51 51 51   51 51 51   51 51 51   51 51 51   51 51 51   51 51 51   51 51 51   51 51 51   51 51 51   
51 51 51   51 51 51   51 51 51   51 51 51   51 51 51   51 51 51   51 51 51   51 51 51   51 51 51   51 51 51   51 51 51   18 8 20   39 40 6   98 103 17   127 133 22   145 152 25   155 163 27   155 162 27   23 7 9   23 7 9   239 77 91   255 97 114   255 112 132   255 131 151   255 223 218   23 7 9   23 7 9   4 11 4   4 11 4   4 11 4   76 194 78   74 189 76   51 51 51   51 51 51   51 51 51   51 51 51   51 51 51   14 15 15   14 15 15   153 67 32   255 114 53   255 148 69   255 161 76   51 51 51   51 51 51   51 51 51   51 51 51   51 51 51   51 51 51   51 51 51   51 51 51   
51 51 51   51 51 51   51 51 51   51 51 51   51 51 51   51 51 51   51 51 51   51 51 51   51 51 51   51 51 51   51 51 51   18 8 20   73 76 12   108 113 19   132 139 23   149 157 26   160 168 28   164 172 29   155 162 27   143 46 55   216 70 83   255 89 105   255 104 123   255 116 137   23 7 9   23 7 9   23 7 9   23 7 9   4 11 4   4 11 4   4 11 4   67 172 69   51 51 51   51 51 51   51 51 51   51 51 51   51 51 51   51 51 51   21 9 4   133 59 27   234 103 48   255 143 73   255 164 77   51 51 51   51 51 51   51 51 51   51 51 51   51 51 51   51 51 51   51 51 51   51 51 51   
51 51 51   51 51 51   51 51 51   51 51 51   51 51 51   51 51 51   51 51 51   51 51 51   51 51 51   51 51 51   51 51 51   25 26 4   75 79 13   106 111 18   129 135 22   145 153 25   255 255 48   160 168 28   155 163 27   119 125 21   182 59 70   240 78 92   255 93 109   255 105 124   23 7 9   23 7 9   23 7 9   23 7 9   4 11 4   4 11 4   57 147 59   54 139 56   51 51 51   51 51 51   51 51 51   51 51 51   51 51 51   51 51 51   21 9 4   85 37 17   185 81 38   255 117 55   255 144 68   255 153 72   51 51 51   51 51 51   51 51 51   51 51 51   51 51 51   51 51 51   51 51 51   
51 51 51   51 51 51   51 51 51   51 51 51   51 51 51   51 51 51   51 51 51   51 51 51   51 51 51   51 51 51   51 51 51   23 24 4   67 71 12   97 102 17   118 124 21   134 141 23   145 153 25   149 157 26   145 152 25   117 122 20   137 44 52   196 63 75   242 79 93   23 7 9   23 7 9   23 7 9   23 7 9   4 11 4   4 11 4   4 11 4   41 107 43   51 51 51   51 51 51   51 51 51   51 51 51   51 51 51   93 101 64   201 218 138   255 255 180   21 9 4   117 51 24   199 88 41   255 115 54   255 119 56   51 51 51   51 51 51   51 51 51   51 51 51   51 51 51   51 51 51   51 51 51   
51 51 51   51 51 51   51 51 51   51 51 51   51 51 51   51 51 51   51 51 51   51 51 51   51 51 51   51 51 51   51 51 51   8 9 1   52 55 9   82 85 14   103 108 18   118 124 21   129 135 22   132 139 23   127 133 22   89 94 15   79 25 30   140 45 53   188 61 72   23 7 9   23 7 9   23 7 9   23 7 9   4 11 4   12 22 3   12 22 3   51 51 51   26 33 10   122 153 48   13 17 5   13 17 5   16 18 11   107 116 74   201 218 138   255 255 186   255 255 211   21 9 4   109 48 22   162 71 33   51 51 51   51 51 51   51 51 51   51 51 51   51 51 51   51 51 51   51 51 51   51 51 51   
51 51 51   51 51 51   51 51 51   51 51 51   51 51 51   51 51 51   51 51 51   51 51 51   51 51 51   51 51 51   51 51 51   8 9 1   29 30 5   60 63 10   82 85 14   97 102 17   106 111 18   108 113 19   98 103 17   23 7 9   23 7 9   67 22 26   23 7 9   23 7 9   23 7 9   23 7 9   93 172 24   132 245 34   160 255 41   181 255 47   12 22 3   12 22 3   127 159 50   180 226 71   13 17 5   16 18 11   75 81 51   167 182 115   240 255 164   255 255 194   22 16 15   22 16 15   51 51 51   51 51 51   51 51 51   51 51 51   51 51 51   51 51 51   51 51 51   51 51 51   51 51 51   
51 51 51   51 51 51   51 51 51   51 51 51   33 226 57   41 255 69   44 255 76   46 255 78   44 255 75   51 51 51   51 51 51   51 51 51   8 9 1   29 30 5   52 55 9   67 71 12   75 79 13   73 76 12   39 40 6   21 22 7   23 7 9   23 7 9   23 7 9   23 7 9   23 7 9   67 125 17   111 206 28   144 255 37   170 255 44   191 255 49   207 255 53   216 255 56   213 255 55   165 206 64   13 17 5   16 18 11   16 18 11   112 122 77   183 199 126   228 248 157   255 231 206   255 255 255   255 255 255   51 51 51   51 51 51   51 51 51   51 51 51   51 51 51   51 51 51   51 51 51   51 51 51   
51 51 51   51 51 51   29 199 50   40 255 67   46 255 78   51 255 86   53 255 91   55 255 93   55 255 93   53 255 90   46 255 78   51 51 51   51 51 51   8 9 1   8 9 1   23 24 4   25 26 4   21 22 7   21 22 7   21 22 7   51 51 51   51 51 51   51 51 51   51 51 51   23 43 6   77 143 20   115 214 30   146 255 38   171 255 44   192 255 50   12 22 3   12 22 3   12 22 3   208 255 54   179 224 70   13 17 5   16 18 11   31 34 21   103 112 71   134 146 92   255 210 187   255 255 255   255 255 255   255 255 255   51 51 51   51 51 51   51 51 51   51 51 51   51 51 51   51 51 51   51 51 51   
51 51 51   29 200 50   40 255 67   46 255 79   51 255 87   55 255 94   58 255 98   59 255 101   60 255 101   58 255 99   55 255 93   46 255 78   51 51 51   51 51 51   51 51 51   21 22 7   105 111 35   21 22 7   21 22 7   21 22 7   51 51 51   51 51 51   51 51 51   12 22 3   29 54 7   77 142 20   113 210 29   143 255 37   167 255 43   188 255 49   12 22 3   12 22 3   12 22 3   218 255 56   141 177 55   13 17 5   13 17 5   22 16 15   63 48 43   156 119 106   233 178 159   255 226 202   255 255 233   255 255 244   51 51 51   51 51 51   51 51 51   51 51 51   51 51 51   51 51 51   51 51 51   
25 170 43   36 247 62   44 255 75   50 255 84   54 255 92   57 255 97   60 255 101   61 255 104   62 255 105   61 255 103   58 255 99   53 255 90   51 51 51   51 51 51   51 51 51   51 51 51   21 22 7   21 22 7   51 51 51   51 51 51   51 51 51   51 51 51   51 51 51   12 22 3   25 47 6   71 131 18   106 197 27   135 250 35   160 255 41   180 255 47   12 22 3   12 22 3   12 22 3   12 22 3   88 111 34   13 17 5   51 51 51   22 16 15   22 16 15   100 76 68   178 136 121   241 185 165   255 220 196   255 226 201   51 51 51   51 51 51   51 51 51   51 51 51   51 51 51   51 51 51   51 51 51   
31 209 52   40 255 67   46 255 78   51 255 87   55 255 94   58 255 99   60 255 103   62 255 105   62 255 106   62 255 105   60 255 101   55 255 93   44 255 75   51 51 51   51 51 51   51 51 51   51 51 51   51 51 51   51 51 51   51 51 51   53 117 20   118 255 44   116 254 43   12 22 3   12 22 3   60 111 15   95 176 24   124 230 32   148 255 38   169 255 44   12 22 3   12 22 3   12 22 3   204 255 53   163 255 42   51 51 51   51 51 51   51 51 51   22 16 15   22 16 15   106 81 72   169 129 115   209 160 143   51 51 51   51 51 51   51 51 51   51 51 51   51 51 51   51 51 51   51 51 51   51 51 51   
33 226 57   41 255 70   47 255 80   52 255 87   55 255 94   58 255 99   62 255 127   70 255 216   62 255 105   61 255 104   59 255 101   55 255 93   46 255 78   51 51 51   51 51 51   51 51 51   51 51 51   51 51 51   51 51 51   65 144 24   127 255 47   163 255 61   182 255 68   177 255 66   12 22 3   45 83 11   80 149 20   109 203 28   134 248 34   154 255 40   171 255 44   12 22 3   12 22 3   188 255 49   51 51 51   51 51 51   51 51 51   51 51 51   51 51 51   22 16 15   22 16 15   55 42 38   51 51 51   51 51 51   51 51 51   51 51 51   51 51 51   51 51 51   51 51 51   51 51 51   51 51 51   
34 230 58   41 255 70   46 255 79   51 255 86   54 255 92   57 255 97   60 255 111   62 255 127   60 255 103   60 255 101   58 255 98   53 255 91   44 255 76   51 51 51   51 51 51   51 51 51   51 51 51   51 51 51   10 23 4   89 196 33   139 255 52   172 255 64   192 255 72   197 255 73   149 255 56   24 45 6   61 114 16   91 169 23   116 215 30   137 253 35   153 255 39   165 255 42   171 255 44   165 255 43   51 51 51   51 51 51   51 51 51   51 51 51   51 51 51   51 51 51   51 51 51   51 51 51   51 51 51   51 51 51   51 51 51   51 51 51   51 51 51   51 51 51   51 51 51   51 51 51   51 51 51   
33 226 57   40 255 68   45 255 77   49 255 84   53 255 90   55 255 94   57 255 97   58 255 99   58 255 99   57 255 97   55 255 94   51 255 86   41 255 69   51 51 51   51 51 51   51 51 51   51 51 51   51 51 51   15 34 5   89 196 33   136 255 50   168 255 62   255 255 169   194 255 72   169 255 63   12 22 3   37 68 9   68 127 17   94 174 24   114 212 29   130 242 34   141 255 36   144 255 37   128 238 33   51 51 51   51 51 51   51 51 51   51 51 51   51 51 51   51 51 51   51 51 51   51 51 51   51 51 51   51 51 51   51 51 51   51 51 51   51 51 51   51 51 51   51 51 51   51 51 51   51 51 51   
32 214 54   38 255 65   43 255 73   47 255 80   50 255 85   53 255 90   54 255 92   55 255 94   55 255 94   54 255 92   51 255 87   46 255 78   33 226 57   51 51 51   51 51 51   51 51 51   51 51 51   51 51 51   10 23 4   76 167 28   121 255 45   153 255 57   173 255 64   178 255 66   151 255 56   12 22 3   12 22 3   38 71 10   65 121 17   86 160 22   101 188 26   110 204 28   105 195 27   51 51 51   51 51 51   51 51 51   51 51 51   51 51 51   51 51 51   51 51 51   51 51 51   51 51 51   51 51 51   51 51 51   51 51 51   51 51 51   51 51 51   51 51 51   51 51 51   51 51 51   51 51 51   
29 195 49   35 238 60   40 255 68   44 255 75   47 255 80   49 255 84   51 255 86   52 255 87   51 255 87   50 255 84   46 255 79   40 255 67   51 51 51   51 51 51   51 51 51   51 51 51   51 51 51   51 51 51   10 23 4   50 109 18   97 213 36   128 255 48   147 255 55   148 255 55   51 51 51   51 51 51   12 22 3   12 22 3   26 48 6   47 87 12   60 111 15   57 107 15   51 51 51   51 51 51   51 51 51   51 51 51   51 51 51   51 51 51   51 51 51   51 51 51   51 51 51   51 51 51   51 51 51   51 51 51   51 51 51   51 51 51   51 51 51   51 51 51   51 51 51   51 51 51   51 51 51   
25 168 42   31 212 53   36 245 62   40 255 68   43 255 73   45 255 77   46 255 79   47 255 80   46 255 78   44 255 75   40 255 67   29 199 50   51 51 51   51 51 51   51 51 51   51 51 51   51 51 51   51 51 51   51 51 51   10 23 4   57 126 21   90 197 33   105 230 39   91 200 34   51 51 51   51 51 51   51 51 51   51 51 51   51 51 51   51 51 51   51 51 51   51 51 51   51 51 51   51 51 51   51 51 51   51 51 51   51 51 51   51 51 51   51 51 51   51 51 51   51 51 51   51 51 51   51 51 51   51 51 51   51 51 51   51 51 51   51 51 51   51 51 51   51 51 51   51 51 51   51 51 51   
19 131 33   26 177 44   31 212 53   35 238 60   38 255 65   40 255 68   41 255 70   41 255 70   40 255 67   36 247 62   29 200 50   51 51 51   51 51 51   51 51 51   51 51 51   51 51 51   51 51 51   51 51 51   51 51 51   51 51 51   10 23 4   14 32 5   51 51 51   51 51 51   51 51 51   51 51 51   51 51 51   51 51 51   51 51 51   51 51 51   51 51 51   51 51 51   51 51 51   51 51 51   51 51 51   51 51 51   51 51 51   51 51 51   51 51 51   51 51 51   51 51 51   51 51 51   51 51 51   51 51 51   51 51 51   51 51 51   51 51 51   51 51 51   51 51 51   51 51 51   51 51 51   
11 78 19   19 131 33   25 168 42   29 195 49   32 214 54   33 226 57   34 230 58   33 226 57   31 209 52   25 170 43   51 51 51   51 51 51   51 51 51   51 51 51   51 51 51   51 51 51   51 51 51   51 51 51   51 51 51   51 51 51   51 51 51   51 51 51   51 51 51   51 51 51   51 51 51   51 51 51   51 51 51   51 51 51   51 51 51   51 51 51   51 51 51   51 51 51   51 51 51   51 51 51   51 51 51   51 51 51   51 51 51   51 51 51   51 51 51   51 51 51   51 51 51   51 51 51   51 51 51   51 51 51   51 51 51   51 51 51   51 51 51   51 51 51   51 51 51   51 51 51   51 51 51   
