P3
51 51
255
51 51 51   51 51 51   51 51 51   51 51 51   51 51 51   51 51 51   51 51 51   51 51 51   51 51 51   117 2 8   149 3 10   175 4 12   196 4 14   215 5 15   232 5 16   247 5 17   255 6 18   255 6 19   255 6 19   51 51 51   9 6 13   9 6 13   19 13 28   33 23 47   45 32 65   57 40 82   68 48 98   78 55 113   90 63 128   107 74 150   141 94 188   187 120 239   206 131 255   175 116 233   147 102 208   148 104 212   51 51 51   51 51 51   51 51 51   51 51 51   51 51 51   51 51 51   21 12 20   21 12 20   29 17 29   63 37 62   97 57 95   129 76 127   161 94 159   193 113 190   224 132 221   
51 51 51   51 51 51   253 255 255   255 255 255   255 255 255   51 51 51   51 51 51   51 51 51   66 1 4   107 2 7   136 3 9   160 3 11   181 4 13   200 4 14   217 5 15   232 5 17   246 6 20   255 6 18   255 6 19   255 6 19   9 6 13   9 6 13   9 6 13   22 15 32   35 24 50   46 32 66   57 40 82   68 48 97   78 55 112   89 62 127   103 72 145   123 84 170   139 94 189   138 95 192   133 93 190   137 96 197   51 51 51   51 51 51   51 51 51   51 51 51   51 51 51   51 51 51   21 12 20   21 12 20   21 12 20   31 18 30   64 38 63   97 57 96   129 76 127   161 94 158   193 113 190   
51 51 51   121 151 153   206 255 255   255 255 255   255 255 255   255 255 255   51 51 51   51 51 51   57 1 4   92 2 6   119 2 8   143 3 10   164 3 11   182 4 13   199 4 14   215 5 17   255 48 213   242 7 24   15 0 1   15 0 1   9 6 13   9 6 13   9 6 13   9 6 13   23 16 33   35 24 50   46 32 66   57 40 81   67 47 96   76 54 110   86 61 124   97 68 138   107 75 152   115 80 163   120 84 171   126 88 180   162 133 251   182 150 255   200 166 255   216 179 255   229 189 255   51 51 51   21 12 20   21 12 20   21 12 20   21 12 20   32 18 31   65 38 64   97 57 96   129 76 127   161 94 159   
51 51 51   47 58 59   131 163 165   190 236 239   232 255 255   255 255 255   238 255 255   51 51 51   39 0 2   73 1 5   100 2 7   123 2 8   144 3 10   163 3 11   180 4 13   196 4 14   210 5 16   222 5 17   15 0 1   15 0 1   9 6 13   9 6 13   9 6 13   9 6 13   9 6 13   23 16 33   34 24 49   45 31 65   55 39 79   65 46 93   74 52 106   83 58 119   92 65 132   100 70 143   107 75 154   114 80 163   152 127 237   175 151 255   200 178 255   220 197 255   230 201 255   234 195 255   21 12 20   21 12 20   21 12 20   21 12 20   21 12 20   32 19 31   65 38 64   97 57 96   129 76 127   
51 51 51   18 23 23   36 45 46   99 124 125   144 179 181   170 211 214   160 199 201   15 0 1   15 0 1   51 1 3   79 1 5   102 2 7   123 2 8   142 3 10   159 3 11   175 4 12   189 4 13   15 0 1   15 0 1   15 0 1   9 6 13   9 6 13   9 6 13   9 6 13   9 6 13   9 6 13   22 15 32   33 23 47   43 30 62   53 37 76   62 44 89   71 50 102   80 56 114   88 62 126   95 67 136   146 182 118   139 118 218   166 148 255   197 186 255   226 221 255   241 233 255   239 216 255   234 195 255   21 12 20   21 12 20   21 12 20   21 12 20   21 12 20   32 18 31   64 38 63   97 57 95   
51 51 51   51 51 51   18 23 23   18 23 23   35 43 44   60 74 75   22 28 28   15 0 1   15 0 1   27 0 1   55 1 3   78 1 5   100 2 7   119 2 8   136 3 9   152 3 10   166 3 12   15 0 1   15 0 1   15 0 1   9 6 13   9 6 13   9 6 13   9 6 13   9 6 13   9 6 13   9 6 13   20 14 29   30 21 43   40 28 58   49 35 71   58 41 84   67 47 96   75 52 107   168 166 175   140 167 120   143 179 115   150 134 238   182 174 255   216 218 255   239 244 255   242 235 255   231 202 255   21 12 20   21 12 20   21 12 20   21 12 20   21 12 20   21 12 20   31 18 30   63 37 62   
51 51 51   51 51 51   51 51 51   18 23 23   18 23 23   18 23 23   51 51 51   51 51 51   15 0 1   15 0 1   28 0 2   53 1 3   75 1 5   94 2 6   112 2 8   127 3 9   142 3 10   15 0 1   15 0 1   15 0 1   9 6 13   9 6 13   9 6 13   9 6 13   9 6 13   9 6 13   9 6 13   9 6 13   17 12 24   27 19 38   36 25 52   45 31 64   53 37 76   78 97 63   97 121 80   118 143 100   126 157 102   129 112 203   158 146 253   190 187 255   217 220 255   228 225 255   221 201 255   13 10 20   21 12 20   21 12 20   21 12 20   21 12 20   21 12 20   21 12 20   29 17 29   
51 51 51   51 51 51   51 51 51   51 51 51   51 51 51   51 51 51   51 51 51   51 51 51   15 0 1   15 0 1   15 0 1   25 0 1   47 1 3   67 1 4   85 2 6   101 2 7   15 0 1   15 0 1   15 0 1   15 0 1   15 0 1   9 6 13   9 6 13   9 6 13   9 6 13   9 6 13   9 6 13   9 6 13   9 6 13   9 6 13   21 15 31   30 21 43   38 48 31   58 73 47   76 95 61   92 116 75   106 133 86   108 91 169   131 116 208   158 147 253   183 177 255   199 191 255   202 182 255   200 167 255   13 13 8   13 13 8   152 148 90   168 164 100   184 179 109   200 194 118   215 209 127   
51 51 51   51 51 51   51 51 51   51 51 51   51 51 51   51 51 51   51 51 51   51 51 51   15 0 1   15 0 1   15 0 1   15 0 1   15 0 1   37 0 2   56 1 4   72 1 5   15 0 1   15 0 1   15 0 1   15 0 1   15 0 1   9 6 13   9 6 13   9 6 13   9 6 13   9 6 13   9 6 13   9 6 13   9 6 13   9 6 13   9 6 13   8 10 6   16 20 13   36 45 29   54 68 44   70 88 57   83 104 67   89 73 138   108 91 169   129 113 203   150 135 239   167 151 255   176 154 255   181 150 255   104 101 61   121 118 72   138 135 82   154 150 91   171 167 101   190 196 112   206 214 121   
51 51 51   51 51 51   51 51 51   51 51 51   51 51 51   51 51 51   51 51 51   51 51 51   51 51 51   15 0 1   15 0 1   15 0 1   15 0 1   15 0 1   24 0 1   15 0 1   15 0 1   15 0 1   15 0 1   15 0 1   15 0 1   17 255 255   9 6 13   9 6 13   9 6 13   9 6 13   9 6 13   9 6 13   9 6 13   9 6 13   9 6 13   8 10 6   8 10 6   12 16 10   30 38 24   46 57 37   52 42 81   70 57 109   87 72 136   105 88 164   123 105 193   139 119 218   152 128 237   72 70 42   90 88 53   108 105 64   124 121 74   140 137 83   157 156 93   189 226 110   239 255 136   
51 51 51   51 51 51   51 51 51   51 51 51   51 51 51   51 51 51   51 51 51   51 51 51   51 51 51   51 51 51   15 0 1   15 0 1   15 0 1   15 0 1   15 0 1   191 255 91   218 255 103   237 255 112   249 255 118   252 255 120   1 24 19   1 24 19   5 4 19   9 6 13   9 6 13   9 6 13   9 6 13   9 6 13   9 6 13   9 6 13   8 10 6   8 10 6   8 10 6   8 10 6   8 10 6   13 10 20   33 27 51   51 42 79   68 56 106   85 70 132   101 83 157   116 96 180   129 107 201   58 56 34   76 74 45   93 91 55   110 107 65   126 123 75   142 139 84   164 176 96   213 255 122   
51 51 51   51 51 51   51 51 51   51 51 51   51 51 51   51 51 51   51 51 51   51 51 51   51 51 51   51 51 51   1 24 19   15 0 1   15 0 1   143 202 68   179 252 85   204 255 97   225 255 107   242 255 115   255 255 122   255 255 127   255 255 130   255 255 127   5 4 19   5 4 19   5 4 19   9 6 13   9 6 13   9 6 13   9 6 13   9 6 13   4 6 9   8 10 6   8 10 6   8 10 6   13 10 20   13 10 20   13 10 20   31 25 48   48 39 75   64 53 100   80 66 124   94 78 147   23 23 14   43 42 25   61 59 36   79 76 46   95 93 56   111 108 66   127 124 75   143 140 84   162 171 96   
51 51 51   51 51 51   51 51 51   51 51 51   51 51 51   51 51 51   51 51 51   51 51 51   51 51 51   111 177 59   1 24 19   1 24 19   113 159 53   150 212 71   178 251 84   201 255 95   220 255 104   237 255 112   252 255 119   255 255 125   255 255 129   255 255 131   255 255 129   5 10 3   5 10 3   5 10 3   5 4 19   5 4 19   5 4 19   5 4 19   4 6 9   4 6 9   4 6 9   13 10 20   13 10 20   13 10 20   13 10 20   13 10 20   26 22 41   43 35 67   58 48 90   13 10 20   13 13 8   28 27 16   46 45 27   63 62 37   80 78 47   96 94 57   112 109 66   127 124 75   142 139 84   
51 51 51   51 51 51   51 51 51   51 51 51   51 51 51   51 51 51   51 51 51   51 51 51   51 51 51   19 11 10   1 24 19   67 95 32   114 160 54   145 205 69   170 240 81   192 255 91   211 255 100   227 255 108   242 255 115   255 255 122   255 255 125   255 255 128   255 255 129   255 255 123   5 10 3   5 10 3   5 10 3   5 10 3   5 4 19   4 6 9   4 6 9   4 6 9   4 6 9   4 6 9   13 10 20   13 10 20   13 10 20   13 10 20   13 10 20   19 16 30   34 28 53   13 13 8   13 13 8   13 13 8   30 29 18   48 46 28   65 63 38   81 79 48   97 94 57   112 109 66   127 124 75   
51 51 51   51 51 51   51 51 51   51 51 51   51 51 51   51 51 51   51 51 51   51 51 51   51 51 51   19 11 10   1 24 19   67 95 32   105 149 50   135 190 64   159 224 75   180 254 85   198 255 94   215 255 102   231 255 111   255 255 224   255 255 150   255 255 123   255 255 125   255 255 123   5 10 3   5 10 3   5 10 3   5 10 3   5 10 3   5 4 19   4 6 9   4 6 9   20 27 43   40 47 74   4 6 9   13 10 20   13 10 20   13 10 20   13 10 20   13 10 20   13 13 8   13 13 8   13 13 8   13 13 8   13 13 8   32 31 19   49 47 29   65 63 38   81 79 48   96 94 57   111 108 66   
51 51 51   51 51 51   51 51 51   51 51 51   51 51 51   51 51 51   51 51 51   51 51 51   19 11 10   19 11 10   15 21 7   57 80 27   92 130 44   121 170 57   144 204 68   165 233 78   183 255 87   200 255 95   214 255 101   238 255 123   252 255 132   246 255 116   251 255 119   250 255 118   231 255 109   5 10 3   5 10 3   5 10 3   5 10 3   5 10 3   4 6 9   4 6 9   4 6 9   4 6 9   4 6 9   13 10 20   13 10 20   13 10 20   13 10 20   13 13 8   13 13 8   13 13 8   13 13 8   13 13 8   13 13 8   13 13 8   32 31 19   49 47 29   64 63 38   80 78 47   95 92 56   
51 51 51   51 51 51   51 51 51   51 51 51   51 51 51   51 51 51   51 51 51   51 51 51   19 11 10   19 11 10   15 21 7   41 59 19   76 107 36   104 146 49   127 180 60   148 209 70   166 235 79   183 255 86   197 255 93   210 255 99   220 255 104   229 255 108   234 255 111   234 255 111   222 255 105   194 255 133   175 255 120   5 10 3   5 10 3   5 10 3   3 6 15   4 6 9   4 6 9   4 6 9   20 17 21   20 17 21   20 17 21   20 17 21   20 17 21   13 13 8   13 13 8   13 13 8   13 13 8   13 13 8   13 13 8   13 13 8   13 13 8   31 30 18   47 46 28   63 61 37   78 76 46   
51 51 51   51 51 51   51 51 51   51 51 51   51 51 51   51 51 51   51 51 51   51 51 51   19 11 10   18 21 21   15 21 7   22 31 10   56 80 26   84 119 40   108 153 51   129 182 61   147 208 70   164 231 77   178 251 84   191 255 90   201 255 95   209 255 99   215 255 102   215 255 102   205 255 97   105 182 71   118 202 80   97 176 64   5 10 3   5 10 3   3 6 15   3 6 15   3 6 15   3 6 15   20 17 21   20 17 21   20 17 21   20 17 21   20 17 21   13 13 8   13 13 8   13 13 8   13 13 8   13 13 8   13 13 8   13 13 8   13 13 8   13 13 8   29 28 17   45 44 26   60 58 35   
51 51 51   51 51 51   51 51 51   51 51 51   51 51 51   51 51 51   51 51 51   51 51 51   19 11 10   18 21 21   15 21 7   15 21 7   33 47 16   62 88 29   86 122 41   107 152 51   126 178 60   142 201 67   157 221 74   169 239 80   180 254 85   188 255 89   193 255 91   193 255 91   180 254 85   78 144 52   84 154 56   87 160 58   90 165 60   5 10 3   3 6 15   3 6 15   3 6 15   3 6 15   3 6 15   20 17 21   20 17 21   20 17 21   19 2 21   19 2 21   13 13 8   13 13 8   13 13 8   13 13 8   13 13 8   13 13 8   13 13 8   13 13 8   13 13 8   25 25 15   40 39 24   
51 51 51   51 51 51   51 51 51   51 51 51   51 51 51   51 51 51   51 51 51   3 4 25   3 4 25   18 21 21   15 21 7   15 21 7   15 21 7   37 52 17   62 87 29   83 118 39   102 144 48   119 168 56   133 188 63   146 206 69   156 220 74   164 231 77   168 237 79   166 234 79   148 209 70   70 129 47   75 138 50   79 145 52   82 150 54   82 151 55   3 6 15   3 6 15   3 6 15   3 6 15   3 6 15   3 6 15   19 2 21   19 2 21   19 2 21   19 2 21   13 13 8   13 13 8   13 13 8   13 13 8   13 13 8   13 13 8   13 13 8   13 13 8   13 13 8   13 13 8   18 17 10   
51 51 51   51 51 51   51 51 51   51 51 51   51 51 51   51 51 51   3 4 25   3 4 25   3 4 25   18 21 21   18 21 21   15 21 7   15 21 7   15 21 7   34 48 16   57 80 27   76 107 36   93 131 44   107 151 51   120 169 56   129 182 61   136 192 64   139 196 66   134 189 63   56 103 37   62 114 41   67 122 44   70 129 47   73 134 48   73 134 48   3 6 15   3 6 15   3 6 15   3 6 15   3 6 15   19 2 21   19 2 21   19 2 21   19 2 21   19 2 21   19 2 21   19 2 21   13 13 8   13 13 8   13 13 8   13 13 8   13 13 8   13 13 8   13 13 8   13 13 8   51 51 51   
51 51 51   51 51 51   51 51 51   51 51 51   51 51 51   3 4 25   3 4 25   3 4 25   3 4 25   3 4 25   18 21 21   15 21 7   15 21 7   15 21 7   15 21 7   26 36 12   46 65 21   63 89 30   78 110 37   90 127 42   99 139 47   104 147 49   104 147 49   91 129 43   47 86 31   52 96 35   57 105 38   60 111 40   62 115 41   61 112 40   3 6 15   3 6 15   11 23 59   3 6 15   3 6 15   19 2 21   19 2 21   19 2 21   19 2 21   19 2 21   19 2 21   19 2 21   19 2 21   19 2 21   13 13 8   13 13 8   13 13 8   13 13 8   51 51 51   51 51 51   51 51 51   
51 51 51   51 51 51   51 51 51   51 51 51   51 51 51   3 4 25   3 4 25   3 4 25   3 4 25   3 4 25   3 4 25   17 12 13   15 21 7   15 21 7   15 21 7   15 21 7   15 21 7   29 41 13   43 61 20   55 77 26   63 88 29   65 92 31   59 83 28   80 175 41   89 196 46   97 212 50   46 85 30   49 90 32   50 92 33   46 84 30   3 6 15   3 6 15   3 6 15   3 6 15   255 255 240   19 2 21   19 2 21   19 2 21   19 2 21   19 2 21   19 2 21   19 2 21   19 2 21   19 2 21   19 2 21   51 51 51   51 51 51   51 51 51   51 51 51   51 51 51   51 51 51   
51 51 51   51 51 51   51 51 51   51 51 51   51 51 51   3 4 25   23 30 178   31 41 238   3 4 25   3 4 25   3 4 25   17 12 13   17 12 13   15 21 7   15 21 7   15 21 7   15 21 7   15 21 7   15 21 7   15 21 7   15 21 7   15 21 7   57 125 29   69 150 35   78 171 40   86 187 44   90 198 46   90 198 46   34 63 23   6 0 11   6 0 11   6 0 11   21 22 11   21 22 11   19 2 21   19 2 21   19 2 21   19 2 21   19 2 21   19 2 21   19 2 21   19 2 21   19 2 21   19 2 21   19 2 21   51 51 51   51 51 51   51 51 51   51 51 51   51 51 51   51 51 51   
51 51 51   51 51 51   51 51 51   51 51 51   51 51 51   5 7 44   17 22 130   25 33 191   3 4 25   3 4 25   3 4 25   17 12 13   6 8 21   6 8 21   6 8 21   15 21 7   15 21 7   15 21 7   15 21 7   15 21 7   21 17 10   30 65 15   44 96 22   55 121 28   65 142 33   72 158 37   76 167 39   75 165 38   6 0 11   6 0 11   6 0 11   6 0 11   21 22 11   17 0 15   8 22 8   19 2 21   19 2 21   19 2 21   19 2 21   19 2 21   19 2 21   19 2 21   19 2 21   19 2 21   19 2 21   51 51 51   51 51 51   51 51 51   51 51 51   51 51 51   51 51 51   
51 51 51   51 51 51   51 51 51   51 51 51   51 51 51   3 4 25   9 11 68   3 4 25   3 4 25   3 4 25   3 4 25   6 8 21   6 8 21   6 8 21   21 17 10   21 17 10   21 17 10   255 255 160   255 255 179   255 255 190   255 255 193   255 255 174   28 61 14   40 87 20   49 107 25   56 122 28   59 129 30   54 118 28   139 255 13   143 255 14   6 0 11   6 0 11   6 0 11   8 22 8   8 22 8   19 2 21   19 2 21   19 2 21   19 2 21   19 2 21   19 2 21   19 2 21   19 2 21   190 28 210   195 29 215   51 51 51   51 51 51   51 51 51   51 51 51   51 51 51   51 51 51   
51 51 51   51 51 51   51 51 51   51 51 51   51 51 51   3 4 25   3 4 25   3 4 25   3 4 25   3 4 25   3 4 25   6 8 21   6 8 21   6 8 21   21 17 10   199 159 98   255 209 128   255 248 152   255 255 170   255 255 188   255 255 188   255 255 181   8 19 4   20 45 10   30 65 15   35 78 18   36 78 18   137 255 13   149 255 15   158 255 16   163 255 16   158 255 15   8 22 8   8 22 8   8 22 8   8 22 8   19 2 21   19 2 21   19 2 21   19 2 21   50 7 56   86 12 95   115 17 127   132 19 146   51 51 51   51 51 51   51 51 51   51 51 51   51 51 51   51 51 51   51 51 51   
51 51 51   51 51 51   51 51 51   51 51 51   51 51 51   24 0 23   24 0 23   3 4 25   3 4 25   3 4 25   6 8 21   6 8 21   6 8 21   21 17 10   90 72 44   172 137 84   233 186 114   255 223 137   255 252 155   255 255 167   255 255 173   255 255 169   6 13 3   6 13 3   6 13 3   105 215 10   123 250 12   140 255 19   160 255 36   173 255 43   185 159 85   255 233 124   255 255 150   255 255 169   255 255 179   8 22 8   8 22 8   19 2 21   19 2 21   19 2 21   19 2 21   24 3 27   45 6 50   255 149 227   51 51 51   51 51 51   51 51 51   51 51 51   51 51 51   51 51 51   51 51 51   
51 51 51   51 51 51   51 51 51   51 51 51   51 51 51   24 0 23   24 0 23   17 16 11   24 0 23   24 0 23   24 0 23   6 8 21   6 8 21   21 17 10   48 39 23   131 104 64   191 153 94   238 190 117   255 219 134   255 239 147   255 248 152   255 241 148   9 19 0   60 124 6   84 171 8   103 210 10   120 243 14   145 255 35   186 255 94   145 125 66   227 196 104   255 250 133   255 255 157   255 255 176   255 255 192   255 255 201   255 255 190   102 255 201   116 255 227   19 2 21   19 2 21   126 54 83   200 87 133   234 101 155   51 51 51   51 51 51   51 51 51   145 155 211   194 207 255   227 242 255   51 51 51   
51 51 51   51 51 51   51 51 51   51 51 51   17 16 11   17 16 11   17 16 11   17 16 11   17 16 11   17 16 11   17 16 11   6 8 21   6 8 21   6 8 21   21 17 10   75 60 37   138 110 67   185 148 91   221 176 108   245 195 120   254 203 124   237 189 116   29 60 2   57 117 5   79 162 8   98 199 9   115 232 14   142 255 41   60 52 28   156 135 72   227 196 104   255 246 131   255 255 154   255 255 173   255 255 190   255 255 202   255 255 208   104 255 203   119 255 233   130 255 255   131 255 255   23 10 15   63 27 41   51 51 51   51 51 51   41 44 60   103 110 149   152 163 221   195 209 255   233 253 255   255 255 255   
51 51 51   51 51 51   17 16 11   136 143 53   174 184 68   159 167 62   17 16 11   17 16 11   17 16 11   17 16 11   17 16 11   6 8 21   6 8 21   6 8 21   21 17 10   21 17 10   68 54 33   118 94 57   153 122 75   175 139 85   177 141 86   127 101 62   118 237 185   51 104 5   72 147 7   90 184 9   107 216 11   24 21 11   62 54 28   146 126 67   213 184 98   255 232 124   255 255 146   255 255 166   255 255 253   255 255 205   255 255 204   98 255 192   115 255 223   127 255 247   134 255 255   51 51 51   51 51 51   51 51 51   16 17 24   37 39 53   91 97 132   138 147 200   180 196 255   222 255 255   255 255 255   
51 51 51   51 51 51   109 114 42   168 177 65   195 205 76   197 207 77   149 157 58   17 16 11   17 16 11   17 16 11   17 16 11   17 16 11   17 16 11   6 8 21   7 14 11   21 17 10   21 17 10   26 21 12   61 49 30   75 60 37   45 36 22   126 252 197   118 236 184   42 86 4   63 129 6   81 165 8   9 19 0   24 21 11   45 39 21   125 108 57   190 164 87   246 212 113   255 254 135   255 255 155   255 255 206   255 255 214   255 255 195   255 255 197   106 255 205   147 255 231   127 255 249   128 255 250   51 51 51   51 51 51   16 17 24   16 17 24   71 76 103   117 125 170   159 172 233   201 254 255   248 255 255   
51 51 51   122 116 75   100 105 39   150 158 58   174 183 68   176 186 69   141 149 55   17 16 11   17 16 11   17 16 11   17 16 11   17 16 11   17 16 11   17 16 11   7 14 11   7 14 11   7 14 11   7 14 11   7 14 11   7 14 11   112 225 175   114 229 179   106 213 166   30 62 3   52 106 5   70 143 7   9 19 0   24 21 11   24 21 11   96 83 44   161 139 74   216 187 99   255 228 122   255 255 141   255 255 158   255 255 171   255 255 181   255 255 185   93 255 182   106 255 208   116 255 227   119 255 232   51 51 51   16 17 24   16 17 24   16 17 24   46 49 67   92 98 133   134 143 194   173 198 255   215 255 255   
50 47 30   17 16 11   53 56 20   104 110 40   127 134 49   126 132 49   67 71 26   17 16 11   17 16 11   17 16 11   17 16 11   17 16 11   17 16 11   17 16 11   7 14 11   7 14 11   7 14 11   7 14 11   78 157 123   89 180 140   96 193 151   97 195 152   86 174 135   16 34 1   38 79 3   9 19 0   9 19 0   24 21 11   24 21 11   59 51 27   125 108 57   181 156 83   229 198 105   255 234 125   255 255 141   255 255 155   255 255 165   255 255 168   79 255 154   92 255 180   101 255 198   7 24 14   51 51 51   16 17 24   16 17 24   16 17 24   16 17 24   63 68 92   105 112 153   144 155 210   180 206 255   
17 16 11   17 16 11   17 16 11   20 21 8   43 45 17   17 18 6   255 255 169   255 255 178   255 255 184   17 16 11   17 16 11   17 16 11   17 16 11   17 16 11   19 14 6   158 121 51   225 172 73   255 208 89   255 235 100   255 254 109   255 255 113   255 255 112   255 214 91   9 19 0   9 19 0   9 19 0   9 19 0   24 21 11   24 21 11   24 21 11   82 70 37   139 120 64   188 162 86   230 199 106   255 230 122   255 254 136   255 255 145   255 255 146   61 206 120   74 249 145   83 255 162   7 24 14   51 51 51   51 51 51   16 17 24   16 17 24   16 17 24   31 33 45   74 79 107   112 120 163   148 158 215   
17 16 11   17 16 11   17 16 11   17 16 11   17 16 11   243 231 150   255 247 161   255 255 169   255 255 175   17 16 11   17 16 11   17 16 11   17 16 11   17 16 11   82 62 26   168 128 55   226 173 74   255 207 88   255 233 99   255 255 113   255 255 112   255 255 113   255 245 105   9 19 0   9 19 0   9 19 0   106 55 55   248 129 128   255 166 164   255 174 172   24 21 11   89 77 41   139 120 64   181 157 83   217 187 100   244 211 112   255 225 120   248 215 114   40 135 79   52 175 102   7 24 14   51 51 51   51 51 51   12 21 18   16 17 24   16 17 24   16 17 24   16 17 24   38 40 55   77 82 112   113 120 163   
17 16 11   17 16 11   17 16 11   180 171 111   205 195 127   226 214 139   242 230 150   255 242 157   255 251 163   17 16 11   17 16 11   17 16 11   17 16 11   17 16 11   83 63 27   160 122 52   215 164 70   255 197 84   255 222 95   255 255 114   255 253 108   255 255 109   255 241 103   9 19 0   9 19 0   22 11 11   184 95 94   255 146 144   255 182 179   255 204 201   255 201 199   24 21 11   80 69 36   123 106 56   157 136 72   181 156 83   185 160 85   7 24 14   11 37 21   7 24 14   51 51 51   51 51 51   51 51 51   12 21 18   12 21 18   16 17 24   16 17 24   16 17 24   16 17 24   36 38 52   72 77 104   
17 16 11   85 81 53   127 121 78   159 151 98   184 174 113   204 194 126   220 209 136   233 221 144   242 229 149   247 234 152   17 16 11   17 16 11   17 16 11   19 14 6   66 50 21   140 107 46   194 148 63   236 180 77   255 205 88   255 223 95   255 235 100   255 237 101   255 223 95   18 10 11   9 19 0   48 25 25   179 93 92   255 141 139   255 176 173   255 230 217   255 208 205   24 21 11   24 21 11   46 40 21   76 66 35   85 74 39   23 24 17   23 24 17   23 24 17   23 24 17   8 3 4   8 3 4   8 3 4   12 21 18   12 21 18   12 21 18   16 17 24   16 17 24   16 17 24   16 17 24   16 17 24   
17 16 11   54 51 33   99 93 61   132 125 81   157 149 97   178 169 110   194 184 120   206 196 127   214 203 132   218 207 134   17 16 11   17 16 11   17 16 11   5 22 2   33 25 11   109 83 35   164 125 53   206 157 67   238 182 78   255 200 85   255 210 90   255 210 90   252 192 82   18 10 11   18 10 11   22 11 11   147 77 76   237 123 122   255 158 156   255 182 180   255 192 190   6 17 12   23 24 17   23 24 17   197 209 146   255 255 191   255 255 230   255 255 255   23 24 17   23 24 17   8 3 4   8 3 4   8 3 4   8 3 4   12 21 18   12 21 18   12 21 18   95 166 143   51 51 51   51 51 51   51 51 51   
51 51 51   17 16 11   61 58 38   97 92 60   125 118 77   146 138 90   162 154 100   173 165 107   181 171 111   183 173 113   17 16 11   17 16 11   5 22 2   5 22 2   19 14 6   66 50 21   123 94 40   166 127 54   198 151 65   220 168 72   232 177 76   227 174 74   19 14 6   18 10 11   18 10 11   22 11 11   94 49 48   185 96 95   252 131 129   255 155 153   255 163 161   23 24 17   23 24 17   111 118 83   182 194 135   243 255 180   255 255 219   255 255 252   255 255 255   23 24 17   8 3 4   8 3 4   8 3 4   8 3 4   8 3 4   198 255 137   51 51 51   51 51 51   51 51 51   51 51 51   51 51 51   
51 51 51   17 16 11   17 16 11   53 50 32   83 79 51   105 100 65   122 116 75   133 126 82   139 132 85   138 131 85   17 16 11   22 5 12   5 22 2   5 22 2   19 14 6   19 14 6   68 52 22   114 87 37   146 111 47   166 127 54   173 132 56   155 118 50   18 10 11   18 10 11   18 10 11   22 11 11   22 11 11   110 57 56   178 93 91   220 115 113   220 114 113   23 24 17   23 24 17   90 95 67   160 170 119   220 234 164   255 255 202   255 255 236   255 255 255   23 24 17   8 3 4   8 3 4   8 3 4   8 3 4   8 3 4   142 55 81   51 51 51   51 51 51   51 51 51   51 51 51   51 51 51   
51 51 51   51 51 51   51 51 51   17 16 11   25 24 15   51 49 32   69 65 42   79 75 49   82 78 50   17 16 11   22 5 12   22 5 12   22 5 12   24 25 56   58 59 134   76 78 175   89 91 205   99 102 228   107 110 246   112 115 255   115 118 255   115 118 255   7 7 16   18 10 11   18 10 11   18 3 8   22 11 11   22 11 11   64 33 33   88 45 45   17 4 12   23 24 17   23 24 17   60 64 45   131 139 97   192 204 142   244 255 181   255 255 215   255 255 243   255 255 255   61 23 34   85 32 48   105 40 60   122 47 70   135 52 77   137 53 78   160 22 171   51 51 51   51 51 51   51 51 51   51 51 51   
51 51 51   51 51 51   51 51 51   51 51 51   51 51 51   17 16 11   17 16 11   22 5 12   239 54 127   22 5 12   22 5 12   22 5 12   19 19 44   52 54 121   71 73 165   86 88 198   97 100 224   106 109 245   113 117 255   119 122 255   122 126 255   124 127 255   122 125 255   7 7 16   18 3 8   128 26 60   203 42 95   255 53 121   255 61 139   255 66 149   18 3 8   23 24 17   23 24 17   23 24 17   95 101 71   157 166 116   210 223 156   255 255 190   255 255 218   255 255 241   45 17 25   69 26 39   90 35 51   107 41 61   120 46 68   121 46 69   163 23 174   51 51 51   51 51 51   51 51 51   51 51 51   
51 51 51   51 51 51   51 51 51   51 51 51   51 51 51   51 51 51   31 7 16   153 34 81   227 51 120   255 63 149   22 5 12   22 5 12   41 42 95   63 64 145   78 81 181   91 94 210   101 104 234   110 113 254   117 120 255   122 126 255   126 130 255   128 132 255   128 132 255   123 127 255   7 7 16   137 28 64   206 42 96   255 53 121   255 62 140   255 67 152   18 3 8   51 51 51   23 24 17   23 24 17   50 53 37   114 121 85   169 179 125   215 228 159   253 255 188   255 255 210   103 14 110   50 19 28   71 27 40   88 34 50   169 43 166   156 22 167   161 22 172   158 22 168   51 51 51   51 51 51   51 51 51   
51 51 51   51 51 51   51 51 51   51 51 51   51 51 51   51 51 51   22 5 12   131 29 69   204 46 108   255 58 136   22 5 12   23 24 54   50 51 115   68 70 157   82 85 190   94 97 217   104 107 239   112 115 255   119 122 255   124 128 255   128 132 255   130 134 255   131 134 255   128 132 255   119 122 255   128 26 60   195 40 91   246 51 115   255 60 135   255 67 148   255 67 151   18 3 8   51 51 51   23 24 17   23 24 17   62 65 46   118 125 88   165 175 123   203 215 151   82 11 87   97 13 103   110 15 118   123 17 131   137 22 144   147 24 154   151 21 161   156 22 167   156 22 167   51 51 51   51 51 51   51 51 51   
51 51 51   51 51 51   51 51 51   51 51 51   51 51 51   51 51 51   22 5 12   92 20 49   168 38 89   22 5 12   7 7 16   32 33 74   54 56 125   71 73 163   84 86 194   95 98 219   104 107 241   112 116 255   119 123 255   130 143 255   136 154 255   131 135 255   131 135 255   129 133 255   122 126 255   97 100 225   172 36 81   224 46 105   255 54 123   255 60 136   255 62 140   18 3 8   51 51 51   51 51 51   23 24 17   23 24 17   53 56 39   101 107 75   58 8 61   74 10 79   89 12 95   103 14 110   115 16 123   126 18 135   136 19 145   144 20 154   150 21 160   151 21 161   51 51 51   51 51 51   51 51 51   
51 51 51   51 51 51   51 51 51   51 51 51   51 51 51   51 51 51   51 51 51   30 6 16   22 5 12   22 5 12   7 7 16   36 37 83   56 58 129   71 73 165   84 86 194   95 97 218   104 107 239   111 115 255   118 122 255   154 211 255   179 255 255   131 137 255   130 134 255   128 132 255   123 126 255   106 109 244   139 29 65   192 40 90   231 48 108   255 53 120   255 54 123   18 3 8   51 51 51   51 51 51   8 1 9   8 1 9   8 1 9   30 4 32   49 6 52   66 9 70   81 11 86   95 13 101   107 15 114   118 16 126   128 18 137   136 19 145   141 20 151   143 20 152   51 51 51   51 51 51   51 51 51   
51 51 51   51 51 51   51 51 51   51 51 51   51 51 51   51 51 51   51 51 51   51 51 51   22 5 12   22 5 12   9 10 22   37 38 85   56 57 129   70 72 163   83 85 191   93 96 215   102 105 235   109 113 252   116 119 255   129 148 255   140 170 255   127 132 255   128 132 255   126 130 255   121 124 255   106 109 244   92 19 43   147 30 69   186 38 87   208 43 98   204 42 96   51 51 51   51 51 51   51 51 51   8 1 9   8 1 9   8 1 9   19 2 20   38 5 41   56 7 59   71 10 76   85 12 91   98 13 104   109 15 116   118 16 127   126 18 135   132 18 141   132 18 141   51 51 51   51 51 51   51 51 51   
51 51 51   51 51 51   51 51 51   51 51 51   51 51 51   51 51 51   51 51 51   51 51 51   51 51 51   22 5 12   10 10 23   36 37 83   54 55 124   68 70 158   80 83 185   90 93 208   99 102 228   106 109 245   112 116 255   118 121 255   121 125 255   124 127 255   124 128 255   122 126 255   117 120 255   101 104 234   18 3 8   81 17 38   119 24 56   132 27 62   51 51 51   51 51 51   51 51 51   51 51 51   51 51 51   8 1 9   8 1 9   8 1 9   26 3 28   44 6 47   60 8 64   74 10 79   87 12 93   98 13 105   108 15 115   115 16 123   120 17 128   117 16 126   51 51 51   51 51 51   51 51 51   
51 51 51   51 51 51   51 51 51   51 51 51   51 51 51   51 51 51   51 51 51   51 51 51   51 51 51   51 51 51   7 7 16   32 33 75   50 52 117   65 67 150   77 79 177   87 89 200   95 98 219   102 105 236   108 112 250   113 117 255   117 120 255   119 122 255   119 123 255   117 121 255   111 114 255   93 96 215   51 51 51   51 51 51   51 51 51   51 51 51   51 51 51   51 51 51   51 51 51   51 51 51   51 51 51   8 1 9   8 1 9   8 1 9   12 1 13   31 4 33   47 6 50   62 8 66   75 10 80   86 12 92   95 13 102   102 14 109   105 14 112   51 51 51   51 51 51   51 51 51   51 51 51   
51 51 51   51 51 51   51 51 51   51 51 51   51 51 51   51 51 51   51 51 51   51 51 51   51 51 51   51 51 51   7 7 16   27 28 64   46 47 106   60 62 139   72 74 166   82 84 189   90 93 208   97 100 225   103 106 238   108 111 249   111 115 255   113 117 255   113 117 255   111 114 255   103 106 238   74 76 171   51 51 51   51 51 51   51 51 51   51 51 51   51 51 51   51 51 51   51 51 51   51 51 51   51 51 51   51 51 51   8 1 9   8 1 9   8 1 9   15 2 16   32 4 34   47 6 50   60 8 64   71 10 76   80 11 85   85 12 91   83 11 89   51 51 51   51 51 51   51 51 51   51 51 51   
