P3
51 51
255
51 51 51   51 51 51   51 51 51   51 51 51   51 51 51   51 51 51   51 51 51   51 51 51   148 125 1   183 154 1   207 175 1   228 193 2   246 208 2   255 222 2   255 235 2   255 246 2   255 255 2   255 255 2   255 255 2   255 255 2   255 255 2   51 51 51   51 51 51   51 51 51   51 51 51   51 51 51   51 51 51   51 51 51   51 51 51   51 51 51   51 51 51   51 51 51   51 51 51   51 51 51   51 51 51   51 51 51   51 51 51   51 51 51   51 51 51   51 51 51   51 51 51   51 51 51   51 51 51   51 51 51   51 51 51   51 51 51   51 51 51   51 51 51   51 51 51   51 51 51   51 51 51   
51 51 51   51 51 51   51 51 51   51 51 51   51 51 51   51 51 51   51 51 51   109 92 0   150 126 1   176 149 1   199 168 1   218 184 1   236 199 2   252 213 2   255 226 2   255 237 2   255 248 2   255 255 2   255 255 2   255 255 2   255 255 2   255 255 2   51 51 51   51 51 51   51 51 51   51 51 51   51 51 51   51 51 51   51 51 51   51 51 51   51 51 51   51 51 51   51 51 51   51 51 51   51 51 51   51 51 51   51 51 51   51 51 51   51 51 51   51 51 51   51 51 51   51 51 51   51 51 51   51 51 51   51 51 51   51 51 51   51 51 51   51 51 51   51 51 51   51 51 51   51 51 51   
51 51 51   51 51 51   51 51 51   51 51 51   51 51 51   51 51 51   51 51 51   110 93 0   142 120 1   166 140 1   187 158 1   206 174 1   224 189 1   240 202 2   254 215 2   255 227 2   255 238 7   255 249 14   255 255 7   255 255 2   255 255 2   255 255 2   255 255 2   51 51 51   51 51 51   51 51 51   51 51 51   51 51 51   51 51 51   51 51 51   51 51 51   51 51 51   51 51 51   51 51 51   51 51 51   51 51 51   51 51 51   51 51 51   51 51 51   51 51 51   51 51 51   51 51 51   51 51 51   51 51 51   51 51 51   51 51 51   51 51 51   51 51 51   51 51 51   51 51 51   51 51 51   
51 51 51   51 51 51   51 51 51   51 51 51   51 51 51   51 51 51   61 52 0   102 86 0   130 110 1   154 130 1   174 147 1   193 163 1   210 177 1   226 191 2   241 203 2   255 215 2   255 227 15   255 244 63   255 253 61   255 254 10   255 255 2   255 255 2   255 255 2   51 51 51   51 51 51   51 51 51   51 51 51   51 51 51   51 51 51   51 51 51   51 51 51   51 51 51   51 51 51   51 51 51   51 51 51   51 51 51   51 51 51   51 51 51   51 51 51   51 51 51   51 51 51   51 51 51   51 51 51   51 51 51   51 51 51   51 51 51   51 51 51   51 51 51   51 51 51   51 51 51   51 51 51   
51 51 51   51 51 51   51 51 51   51 51 51   51 51 51   51 51 51   53 45 0   89 75 0   116 98 1   139 117 1   159 135 1   178 150 1   195 165 1   211 178 1   225 190 2   240 202 2   255 214 7   255 229 45   255 243 80   255 244 27   255 248 3   255 254 2   255 255 2   255 253 2   51 51 51   51 51 51   56 210 100   69 255 124   79 255 141   87 255 155   93 255 166   51 51 51   51 51 51   51 51 51   51 51 51   51 51 51   51 51 51   51 51 51   51 51 51   51 51 51   51 51 51   51 51 51   51 51 51   51 51 51   51 51 51   51 51 51   51 51 51   51 51 51   51 51 51   51 51 51   51 51 51   
51 51 51   51 51 51   51 51 51   51 51 51   51 51 51   51 51 51   39 33 0   73 62 0   100 84 0   123 104 1   143 121 1   162 137 1   179 151 1   194 164 1   209 177 1   223 188 1   237 199 2   255 210 7   255 221 19   255 229 12   255 235 3   255 241 2   255 245 2   255 244 2   51 51 51   43 161 77   56 208 99   66 246 118   75 255 134   83 255 148   90 255 161   96 255 171   98 255 175   255 52 255   255 58 255   255 62 255   255 66 255   51 51 51   51 51 51   51 51 51   51 51 51   51 51 51   51 51 51   51 51 51   51 51 51   51 51 51   51 51 51   51 51 51   51 51 51   51 51 51   51 51 51   
51 51 51   51 51 51   51 51 51   51 51 51   51 51 51   18 15 0   22 19 0   56 47 0   82 69 0   105 89 0   126 106 1   144 122 1   161 136 1   177 150 1   192 162 1   206 174 1   219 185 1   231 195 2   244 205 2   254 213 2   255 221 2   255 227 2   255 231 2   255 232 2   25 94 45   39 146 70   50 188 90   60 224 107   69 255 123   77 255 137   84 255 150   91 255 162   96 255 171   253 49 254   255 54 255   255 59 255   255 63 255   255 67 255   255 70 255   45 84 74   58 108 95   68 128 113   78 146 128   51 51 51   51 51 51   51 51 51   51 51 51   51 51 51   51 51 51   51 51 51   51 51 51   
51 51 51   51 51 51   51 51 51   51 51 51   51 51 51   18 15 0   18 15 0   36 30 0   63 53 0   86 73 0   107 90 0   126 106 1   143 121 1   159 134 1   174 147 1   188 158 1   201 169 1   213 180 1   224 189 2   234 198 2   243 205 2   250 211 2   255 216 2   255 217 2   243 206 2   33 123 59   43 163 78   53 198 95   62 231 110   70 255 125   168 255 166   100 255 155   89 255 159   93 255 166   255 51 255   255 56 255   255 61 255   255 64 255   25 48 42   38 72 63   50 94 82   61 114 100   71 132 116   79 149 130   51 51 51   51 51 51   51 51 51   51 51 51   51 51 51   51 51 51   51 51 51   
51 51 51   51 51 51   51 51 51   51 51 51   51 51 51   18 15 0   18 15 0   18 15 0   42 35 0   65 55 0   87 73 0   106 89 0   123 104 1   139 118 1   154 130 1   168 142 1   181 153 1   193 163 1   205 173 1   215 181 1   223 189 1   231 195 2   236 199 2   237 200 2   225 190 2   25 95 45   36 134 64   45 169 81   54 202 96   62 231 111   69 255 124   77 255 136   82 255 146   86 255 154   238 46 239   255 53 255   255 121 255   4 8 7   17 32 28   29 56 49   41 77 67   52 97 85   116 242 116   71 132 116   78 146 128   51 51 51   51 51 51   51 51 51   51 51 51   51 51 51   51 51 51   
51 51 51   51 51 51   51 51 51   51 51 51   51 51 51   51 51 51   18 15 0   18 15 0   18 15 0   43 36 0   65 55 0   84 71 0   102 86 0   118 100 1   134 113 1   148 125 1   161 136 1   173 146 1   184 155 1   194 164 1   203 171 1   210 177 1   214 181 1   214 181 1   201 170 1   17 63 30   27 102 49   37 138 66   45 170 81   53 200 96   61 227 109   67 252 121   73 255 131   78 255 139   215 42 216   239 47 240   255 59 255   4 8 7   7 14 12   20 37 32   31 58 51   42 78 68   52 97 85   61 114 100   68 128 113   51 51 51   51 51 51   51 51 51   51 51 51   51 51 51   51 51 51   
51 51 51   51 51 51   51 51 51   51 51 51   51 51 51   51 51 51   18 15 0   18 15 0   18 15 0   18 15 0   41 35 0   61 52 0   79 67 0   96 81 0   111 94 0   126 106 1   139 117 1   151 128 1   162 137 1   172 145 1   180 152 1   187 158 1   191 161 1   190 160 1   170 144 1   7 28 13   18 68 32   28 104 49   36 136 65   44 166 79   52 193 92   58 218 104   64 239 114   68 255 122   190 37 192   214 42 216   237 46 239   4 8 7   4 8 7   9 17 15   20 39 34   31 58 51   41 77 67   50 94 82   58 108 95   51 51 51   51 51 51   51 51 51   51 51 51   51 51 51   51 51 51   
51 51 51   51 51 51   51 51 51   51 51 51   51 51 51   51 51 51   18 15 0   18 15 0   18 15 0   18 15 0   18 15 0   36 30 0   55 46 0   72 61 0   88 74 0   102 86 0   115 97 1   127 108 1   138 117 1   148 125 1   156 132 1   162 137 1   165 139 1   161 136 1   5 20 9   5 20 9   8 30 14   17 66 31   26 99 47   34 129 62   42 156 75   48 181 86   54 201 96   58 215 103   165 32 166   189 37 190   211 41 213   4 8 7   4 8 7   4 8 7   9 17 15   20 37 32   29 56 49   38 72 63   45 84 74   51 51 51   51 51 51   51 51 51   51 51 51   51 51 51   51 51 51   
51 51 51   51 51 51   51 51 51   51 51 51   51 51 51   51 51 51   51 51 51   18 15 0   18 15 0   18 15 0   18 15 0   18 15 0   28 24 0   46 39 0   62 52 0   77 65 0   90 76 0   102 86 0   113 95 1   122 103 1   129 109 1   134 114 1   135 114 1   127 107 1   5 20 9   5 20 9   5 20 9   5 20 9   15 59 28   24 89 42   31 116 55   37 140 67   42 159 76   45 169 81   137 27 138   161 31 162   184 36 185   19 3 19   4 8 7   4 8 7   4 8 7   7 14 12   17 32 28   25 48 42   51 51 51   51 51 51   51 51 51   51 51 51   51 51 51   51 51 51   51 51 51   
51 51 51   51 51 51   51 51 51   51 51 51   51 51 51   51 51 51   51 51 51   18 15 0   18 15 0   18 15 0   18 15 0   18 15 0   18 15 0   18 15 0   34 29 0   49 41 0   62 53 0   74 63 0   85 72 0   94 79 0   100 84 0   103 87 0   101 85 0   77 65 0   5 20 9   5 20 9   5 20 9   5 20 9   255 21 197   255 23 211   19 71 34   25 93 45   29 110 52   82 16 83   108 21 109   132 26 133   19 3 19   19 3 19   4 8 7   4 8 7   4 8 7   4 8 7   4 8 7   51 51 51   51 51 51   51 51 51   51 51 51   51 51 51   51 51 51   51 51 51   51 51 51   
51 51 51   51 51 51   51 51 51   51 51 51   51 51 51   51 51 51   51 51 51   51 51 51   18 15 0   18 15 0   18 15 0   18 15 0   18 15 0   18 15 0   18 15 0   18 15 0   32 27 0   43 37 0   54 45 0   61 52 0   66 56 0   67 57 0   57 48 0   255 60 255   137 11 104   194 16 148   227 18 173   253 21 193   255 23 209   255 24 224   255 25 237   255 27 247   255 27 252   51 10 51   77 15 77   101 19 102   19 3 19   19 3 19   19 3 19   4 8 7   4 8 7   4 8 7   71 89 102   91 115 131   110 138 158   125 157 179   51 51 51   56 106 188   64 122 215   72 135 239   78 148 255   
51 51 51   51 51 51   51 51 51   51 51 51   51 51 51   51 51 51   51 51 51   51 51 51   14 8 22   18 15 0   18 15 0   18 15 0   18 15 0   18 15 0   18 15 0   18 15 0   18 15 0   18 15 0   18 15 0   24 20 0   26 22 0   18 15 0   250 49 255   125 10 95   169 14 128   201 16 153   228 19 174   251 21 192   255 22 208   255 24 222   255 25 235   255 27 246   255 28 255   255 28 255   43 8 43   67 13 67   19 3 19   19 3 19   19 3 19   19 3 19   10 12 14   37 46 53   59 75 86   81 102 117   25 47 83   36 69 122   45 86 152   53 101 179   61 115 203   68 128 227   75 141 249   
51 51 51   51 51 51   51 51 51   51 51 51   51 51 51   51 51 51   51 51 51   74 6 163   117 10 255   143 12 255   18 15 0   18 15 0   18 15 0   18 15 0   18 15 0   18 15 0   18 15 0   18 15 0   18 15 0   18 15 0   18 15 0   198 39 212   86 7 66   133 11 102   168 14 128   197 16 150   222 18 169   244 20 186   255 22 202   255 23 216   255 25 229   255 26 241   255 27 251   255 28 255   255 28 255   19 3 19   19 3 19   19 3 19   19 3 19   7 9 10   7 9 10   23 29 33   45 56 65   13 24 43   24 45 80   33 63 111   42 79 139   49 93 165   56 107 189   63 120 211   70 132 233   
51 51 51   51 51 51   51 51 51   51 51 51   51 51 51   6 14 18   6 14 18   6 14 18   6 14 18   6 14 18   153 26 255   202 188 255   18 15 0   18 15 0   18 15 0   18 15 0   18 15 0   18 15 0   18 15 0   21 4 22   142 28 153   33 2 25   91 7 69   130 10 99   161 13 123   188 15 143   212 17 162   234 19 179   254 21 194   255 23 208   255 30 222   255 44 235   255 32 244   255 27 252   255 28 255   255 28 255   19 3 19   19 3 19   23 11 2   7 9 10   7 9 10   7 9 10   5 10 18   10 19 35   20 38 68   29 55 97   37 70 124   44 84 149   52 97 172   58 110 195   65 123 217   
51 51 51   51 51 51   51 51 51   6 14 18   6 14 18   6 14 18   6 14 18   6 14 18   6 14 18   6 14 18   6 14 18   6 14 18   147 13 255   15 15 10   15 15 10   15 15 10   15 15 10   15 15 10   21 4 22   21 4 22   21 4 22   39 3 30   85 7 65   121 10 92   151 12 115   177 14 135   201 16 153   222 18 169   242 20 185   255 22 199   255 46 215   255 153 240   255 121 247   255 32 244   255 27 251   255 28 255   255 27 252   23 11 2   23 11 2   7 9 10   7 9 10   5 10 18   5 10 18   5 10 18   15 29 52   24 45 81   32 60 107   39 74 132   46 88 155   53 101 178   60 113 199   
51 51 51   51 51 51   6 14 18   6 14 18   6 14 18   6 14 18   6 14 18   6 14 18   6 14 18   6 14 18   6 14 18   6 14 18   6 14 18   71 255 75   15 15 10   15 15 10   15 15 10   15 15 10   21 4 22   45 8 48   18 1 14   33 2 25   75 6 57   109 9 83   138 11 105   164 13 125   187 15 143   208 17 159   228 19 174   246 20 188   255 32 202   255 118 225   255 153 240   255 44 235   255 26 241   255 27 246   255 27 247   23 11 2   23 11 2   7 9 10   7 9 10   5 10 18   5 10 18   5 10 18   10 20 35   19 36 63   27 50 89   34 64 114   41 78 138   48 90 160   54 103 182   
51 51 51   6 14 18   6 14 18   6 14 18   6 14 18   6 14 18   6 14 18   6 14 18   6 14 18   6 14 18   6 14 18   6 14 18   6 14 18   5 23 5   4 15 11   15 15 10   15 15 10   21 4 22   21 4 22   21 4 22   18 1 14   18 1 14   61 5 47   94 7 72   123 10 94   149 12 113   172 14 131   193 16 147   213 17 162   231 19 176   248 21 189   255 32 202   255 46 215   255 30 222   255 25 229   255 25 235   255 25 237   23 11 2   73 213 57   105 255 82   126 255 99   5 10 18   5 10 18   5 10 18   5 10 18   13 25 45   21 40 71   28 54 96   36 67 119   42 80 142   49 92 163   
51 51 51   6 14 18   6 14 18   6 14 18   6 14 18   6 14 18   6 14 18   6 14 18   6 14 18   6 14 18   6 14 18   6 14 18   6 14 18   4 15 11   4 15 11   4 15 11   4 15 11   130 255 240   21 4 22   21 4 22   18 1 14   18 1 14   45 3 34   78 6 59   106 8 81   132 11 100   155 12 118   176 14 134   196 16 149   214 17 163   231 19 176   246 20 188   255 22 199   255 23 208   255 23 216   255 24 222   255 24 224   255 23 211   7 21 5   7 21 5   5 10 18   5 10 18   5 10 18   5 10 18   5 10 18   7 14 25   15 29 51   23 43 76   30 56 100   37 69 122   43 82 144   
51 51 51   6 14 18   6 14 18   6 14 18   6 14 18   6 14 18   6 14 18   6 14 18   6 14 18   6 14 18   6 14 18   6 14 18   6 14 18   4 15 11   4 15 11   4 15 11   48 174 126   65 214 157   4 15 11   21 4 22   18 1 14   18 1 14   26 2 20   59 4 45   88 7 67   113 9 86   137 11 104   158 13 120   178 14 136   196 16 149   213 17 162   228 19 174   242 20 185   254 21 194   255 22 202   255 22 208   255 23 209   255 21 197   7 21 5   7 21 5   5 10 18   5 10 18   5 10 18   5 10 18   5 10 18   5 10 18   9 17 31   17 32 56   24 45 80   31 58 103   37 70 124   
51 51 51   6 14 18   6 14 18   6 14 18   6 14 18   6 14 18   6 14 18   6 14 18   6 14 18   6 14 18   6 14 18   6 14 18   6 14 18   4 15 11   4 15 11   26 96 69   37 135 98   4 15 11   4 15 11   4 15 11   18 1 14   18 1 14   18 1 14   38 3 29   67 5 51   93 7 71   117 9 89   138 11 105   158 13 120   176 14 134   193 16 147   208 17 159   222 18 169   234 19 179   244 20 186   251 21 192   253 21 193   222 18 169   7 21 5   7 21 5   5 10 18   5 10 18   5 10 18   5 10 18   5 10 18   5 10 18   5 10 18   10 20 35   17 33 59   24 46 82   31 59 104   
51 51 51   6 14 18   6 14 18   6 14 18   6 14 18   6 14 18   6 14 18   6 14 18   6 14 18   6 14 18   6 14 18   6 14 18   6 14 18   4 15 11   4 15 11   12 45 33   4 15 11   4 15 11   4 15 11   4 15 11   18 1 14   18 1 14   18 1 14   18 1 14   44 3 34   71 5 54   95 7 72   117 9 89   137 11 104   155 12 118   172 14 131   187 15 143   201 16 153   212 17 162   222 18 169   228 19 174   227 18 173   7 21 5   7 21 5   7 21 5   7 21 5   5 10 18   5 10 18   5 10 18   5 10 18   5 10 18   5 10 18   5 10 18   11 21 37   18 34 60   24 46 82   
51 51 51   51 51 51   6 14 18   6 14 18   6 14 18   6 14 18   6 14 18   6 14 18   6 14 18   172 130 204   6 14 18   6 14 18   6 14 18   5 23 5   4 15 11   4 15 11   4 15 11   4 15 11   4 15 11   4 15 11   18 1 14   18 1 14   18 1 14   18 1 14   18 1 14   46 3 35   71 5 54   93 7 71   113 9 86   132 11 100   149 12 113   164 13 125   177 14 135   188 15 143   197 16 150   201 16 153   194 16 148   157 142 180   217 255 255   244 255 255   233 200 255   5 10 18   5 10 18   5 10 18   5 10 18   5 10 18   5 10 18   5 10 18   5 10 18   11 21 37   18 34 60   
51 51 51   51 51 51   6 14 18   6 14 18   6 14 18   6 14 18   6 14 18   121 91 143   181 137 215   215 163 255   231 175 255   226 171 255   6 14 18   14 24 13   14 24 13   4 15 11   4 15 11   4 15 11   4 15 11   14 24 13   22 18 23   22 18 23   18 1 14   18 1 14   18 1 14   18 1 14   44 3 34   67 5 51   88 7 67   106 8 81   123 10 94   138 11 105   151 12 115   161 13 123   168 14 128   169 14 128   137 11 104   132 115 148   180 201 229   226 255 255   216 193 246   51 51 51   5 10 18   5 10 18   5 10 18   5 10 18   5 10 18   5 10 18   5 10 18   5 10 18   10 20 35   
51 51 51   51 51 51   51 51 51   6 14 18   6 14 18   6 14 18   37 28 44   131 99 155   178 135 211   213 161 249   255 255 255   227 172 255   197 149 234   14 24 13   14 24 13   14 24 13   14 24 13   14 24 13   14 24 13   14 24 13   181 148 193   255 234 255   255 255 255   18 1 14   18 1 14   18 1 14   18 1 14   38 3 29   59 4 45   78 6 59   94 7 72   109 9 83   121 10 92   130 10 99   133 11 102   125 10 95   12 14 22   102 87 114   137 120 154   168 154 194   185 160 207   51 51 51   5 10 18   5 10 18   5 10 18   5 10 18   5 10 18   5 10 18   5 10 18   5 10 18   5 10 18   
51 51 51   51 51 51   51 51 51   51 51 51   51 51 51   6 14 18   35 26 41   111 84 131   155 118 184   185 140 219   205 155 240   204 155 242   181 137 215   82 255 229   4 24 13   14 24 13   14 24 13   14 24 13   4 6 7   22 18 23   144 118 154   244 199 255   255 255 255   255 255 255   18 1 14   18 1 14   18 1 14   18 1 14   26 2 20   45 3 34   61 5 47   75 6 57   85 7 65   91 7 69   86 7 66   12 14 22   12 14 22   12 14 22   101 87 113   129 110 144   147 126 164   51 51 51   51 51 51   51 51 51   5 10 18   5 10 18   5 10 18   5 10 18   5 10 18   5 10 18   5 10 18   
51 51 51   51 51 51   51 51 51   51 51 51   51 51 51   51 51 51   12 9 15   72 54 85   117 89 139   147 111 174   163 123 193   163 124 194   135 102 160   88 255 246   4 24 13   4 24 13   14 24 13   4 6 7   4 6 7   22 18 23   74 60 78   174 142 185   244 199 255   255 234 255   22 18 23   18 1 14   18 1 14   18 1 14   18 1 14   18 1 14   18 1 14   33 2 25   39 3 30   33 2 25   12 14 22   12 14 22   12 14 22   12 14 22   58 49 65   84 72 93   91 78 102   51 51 51   51 51 51   51 51 51   51 51 51   5 10 18   5 10 18   5 10 18   5 10 18   5 10 18   5 10 18   
51 51 51   51 51 51   51 51 51   51 51 51   51 51 51   51 51 51   4 24 13   12 9 15   62 47 73   92 70 109   106 80 126   101 76 119   87 255 243   89 255 249   90 255 251   4 24 13   4 24 13   4 6 7   4 6 7   4 6 7   22 18 23   74 60 78   144 118 154   181 148 193   22 18 23   18 1 14   18 1 14   18 1 14   18 1 14   18 1 14   18 1 14   18 1 14   12 14 22   12 14 22   12 14 22   12 14 22   12 14 22   12 14 22   12 14 22   66 206 26   109 255 43   51 51 51   51 51 51   51 51 51   51 51 51   51 51 51   51 51 51   51 51 51   51 51 51   51 51 51   51 51 51   
51 51 51   51 51 51   51 51 51   51 51 51   51 51 51   4 24 13   4 24 13   4 24 13   12 9 15   12 9 15   12 9 15   82 255 229   102 255 255   96 255 255   89 255 249   4 24 13   4 24 13   4 6 7   4 6 7   4 6 7   4 6 7   22 18 23   22 18 23   4 6 7   4 6 7   4 6 7   4 6 7   4 6 7   7 15 8   7 15 8   7 15 8   7 15 8   12 14 22   12 14 22   12 14 22   12 14 22   12 14 22   12 14 22   12 14 22   255 255 255   135 255 67   51 51 51   51 51 51   51 51 51   51 51 51   51 51 51   51 51 51   51 51 51   51 51 51   51 51 51   51 51 51   
51 51 51   51 51 51   51 51 51   51 51 51   11 7 2   4 24 13   4 24 13   4 24 13   4 24 13   4 24 13   74 255 207   79 255 221   136 255 255   132 255 255   86 255 241   4 24 13   4 24 13   4 6 7   4 6 7   4 6 7   4 6 7   4 6 7   4 6 7   4 6 7   4 6 7   4 6 7   4 6 7   7 15 8   7 15 8   7 15 8   131 255 151   7 15 8   12 14 22   12 14 22   12 14 22   12 14 22   12 14 22   12 14 22   12 14 22   255 255 255   255 255 255   51 51 51   51 51 51   51 51 51   51 51 51   51 51 51   51 51 51   51 51 51   51 51 51   51 51 51   51 51 51   
51 51 51   51 51 51   51 51 51   51 51 51   11 7 2   4 24 13   36 180 101   48 237 134   57 255 159   64 255 179   70 255 196   75 255 209   79 255 220   81 255 227   82 255 229   4 24 13   4 24 13   4 6 7   4 6 7   4 6 7   4 6 7   4 6 7   4 6 7   4 6 7   4 6 7   4 6 7   4 6 7   7 15 8   7 15 8   110 228 128   120 248 139   7 15 8   12 14 22   12 14 22   12 14 22   12 14 22   12 14 22   12 14 22   12 14 22   255 255 255   255 255 255   51 51 51   51 51 51   51 51 51   51 51 51   51 51 51   51 51 51   51 51 51   51 51 51   51 51 51   51 51 51   
51 51 51   51 51 51   51 51 51   51 51 51   11 7 2   15 78 44   31 157 88   43 213 120   52 255 145   59 255 165   65 255 182   69 255 195   73 255 204   75 255 211   76 255 213   4 24 13   4 24 13   4 6 7   4 6 7   4 6 7   4 6 7   4 6 7   4 6 7   4 6 7   4 6 7   4 6 7   4 6 7   62 128 72   81 167 94   96 197 111   105 217 122   7 15 8   12 14 22   12 14 22   12 14 22   12 14 22   12 14 22   12 14 22   12 14 22   255 255 255   255 255 255   255 255 255   51 51 51   51 51 51   51 51 51   51 51 51   51 51 51   51 51 51   51 51 51   51 51 51   51 51 51   
51 51 51   51 51 51   51 51 51   51 51 51   51 51 51   8 42 23   25 123 69   36 181 102   45 225 127   52 255 147   58 255 163   63 255 176   66 255 186   68 255 191   69 255 193   4 24 13   4 24 13   4 6 7   4 6 7   26 36 43   35 48 56   42 58 68   49 66 78   54 73 87   59 79 94   62 84 99   64 87 103   42 88 49   62 127 71   76 157 88   85 175 98   7 15 8   12 14 22   12 14 22   12 14 22   12 14 22   12 14 22   12 14 22   12 14 22   255 252 255   255 255 255   255 255 255   51 51 51   51 51 51   51 51 51   51 51 51   51 51 51   51 51 51   51 51 51   51 51 51   51 51 51   
51 51 51   51 51 51   51 51 51   51 51 51   51 51 51   4 24 13   15 79 44   28 139 78   37 186 104   44 222 125   50 251 141   55 255 154   58 255 163   60 255 168   60 255 168   58 255 162   4 24 13   4 6 7   8 11 13   19 26 30   28 38 45   35 48 57   42 56 67   47 64 75   51 69 82   55 74 87   57 77 91   16 34 19   36 75 42   50 103 58   55 115 64   12 14 22   12 14 22   12 14 22   12 14 22   12 14 22   12 14 22   12 14 22   239 215 250   255 233 255   255 247 255   255 251 255   51 51 51   51 51 51   51 51 51   51 51 51   51 51 51   51 51 51   51 51 51   51 51 51   51 51 51   
51 51 51   51 51 51   51 51 51   51 51 51   51 51 51   4 24 13   4 24 13   17 86 48   27 136 76   35 174 98   41 203 114   45 225 127   48 240 135   49 246 139   49 242 136   45 222 125   4 24 13   4 6 7   4 6 7   9 13 15   19 26 30   27 36 43   33 45 53   39 52 62   43 58 69   46 62 73   47 64 76   46 62 74   7 15 8   7 15 8   12 14 22   12 14 22   12 14 22   12 14 22   12 14 22   12 14 22   12 14 22   12 14 22   215 193 225   236 212 246   250 225 255   253 228 255   237 239 255   51 51 51   51 51 51   51 51 51   51 51 51   51 51 51   51 51 51   51 51 51   51 51 51   
51 51 51   51 51 51   51 51 51   51 51 51   51 51 51   51 51 51   4 24 13   4 24 13   14 71 40   22 112 63   29 143 80   33 165 93   35 177 100   36 179 101   33 167 94   24 121 68   15 1 22   15 1 22   4 6 7   4 6 7   8 11 13   16 22 26   23 31 37   28 38 45   32 44 52   35 47 56   35 47 56   30 41 48   16 3 11   16 3 11   12 14 22   12 14 22   12 14 22   12 14 22   12 14 22   12 14 22   133 120 139   162 146 169   187 168 195   207 186 216   220 197 229   218 196 227   251 253 255   51 51 51   51 51 51   51 51 51   51 51 51   51 51 51   51 51 51   51 51 51   51 51 51   
51 51 51   51 51 51   51 51 51   51 51 51   51 51 51   51 51 51   1 1 3   4 24 13   4 24 13   4 24 13   12 62 35   16 83 46   18 91 51   16 81 45   4 24 13   51 51 51   11 5 21   11 5 21   15 1 22   4 6 7   4 6 7   4 6 7   10 13 16   15 20 24   18 25 30   19 26 31   14 19 23   15 11 17   16 3 11   16 3 11   16 3 11   4 8 15   4 8 15   4 8 15   17 15 18   66 59 69   100 90 104   129 116 135   153 138 160   172 155 180   181 163 189   239 233 255   236 238 255   227 229 255   51 51 51   51 51 51   51 51 51   51 51 51   51 51 51   51 51 51   51 51 51   
51 51 51   51 51 51   51 51 51   51 51 51   51 51 51   1 1 3   1 1 3   1 1 3   1 1 3   1 1 3   4 24 13   4 24 13   51 51 51   51 51 51   51 51 51   51 51 51   11 5 21   11 5 21   11 5 21   11 5 21   18 20 17   4 6 7   4 6 7   4 6 7   4 6 7   18 20 17   18 20 17   15 11 17   15 11 17   15 11 17   4 8 15   4 8 15   4 8 15   4 8 15   74 146 255   24 21 25   59 53 62   89 80 93   112 101 117   159 77 65   122 109 127   185 186 255   209 211 255   205 207 255   51 51 51   51 51 51   51 51 51   51 51 51   51 51 51   51 51 51   51 51 51   
51 51 51   51 51 51   51 51 51   51 51 51   51 51 51   1 1 3   1 1 3   1 1 3   1 1 3   1 1 3   3 19 23   41 255 255   45 255 255   43 255 255   51 51 51   51 51 51   51 51 51   11 5 21   11 5 21   11 5 21   11 5 21   18 20 17   18 20 17   18 20 17   18 20 17   18 20 17   15 11 17   15 11 17   15 11 17   51 51 51   4 8 15   4 8 15   52 103 191   78 143 246   74 145 255   72 142 255   17 15 18   94 45 38   160 77 65   211 102 86   252 121 102   255 136 114   255 141 118   51 51 51   51 51 51   51 51 51   51 51 51   51 51 51   51 51 51   51 51 51   51 51 51   
51 51 51   51 51 51   51 51 51   51 51 51   1 1 3   1 1 3   1 1 3   1 1 3   10 65 81   31 202 251   42 255 255   48 255 255   52 255 255   52 255 255   47 255 255   51 51 51   51 51 51   51 51 51   51 51 51   51 51 51   51 51 51   18 20 17   18 20 17   18 20 17   18 20 17   51 51 51   51 51 51   51 51 51   51 51 51   51 51 51   4 8 15   28 55 102   46 90 167   59 116 215   68 133 246   68 134 248   35 17 14   111 53 45   170 82 69   219 105 89   255 125 105   255 142 119   255 154 129   255 157 132   51 51 51   51 51 51   51 51 51   51 51 51   51 51 51   51 51 51   51 51 51   
51 51 51   51 51 51   51 51 51   51 51 51   1 1 3   1 1 3   1 1 3   1 1 3   22 143 178   36 230 255   44 255 255   50 255 255   54 255 255   54 255 255   51 255 255   51 51 51   51 51 51   51 51 51   51 51 51   51 51 51   51 51 51   51 51 51   51 51 51   51 51 51   51 51 51   51 51 51   51 51 51   51 51 51   51 51 51   51 51 51   4 8 15   17 34 63   35 69 128   4 8 15   4 8 15   18 9 7   41 20 17   110 53 45   167 80 68   214 103 87   255 123 104   255 142 119   255 154 130   255 163 137   255 160 135   51 51 51   51 51 51   51 51 51   51 51 51   51 51 51   51 51 51   
51 51 51   51 51 51   51 51 51   51 51 51   1 1 3   10 8 17   1 1 3   3 19 23   24 158 196   36 233 255   44 255 255   50 255 255   178 255 255   53 255 255   51 255 255   38 244 255   51 51 51   51 51 51   51 51 51   51 51 51   51 51 51   51 51 51   51 51 51   51 51 51   51 51 51   51 51 51   51 51 51   51 51 51   51 51 51   51 51 51   4 8 15   4 8 15   4 8 15   4 8 15   4 8 15   18 9 7   34 16 13   100 48 41   156 75 63   203 98 83   245 118 99   255 163 136   255 255 248   255 161 135   255 164 138   51 51 51   51 51 51   51 51 51   51 51 51   51 51 51   51 51 51   
51 51 51   51 51 51   51 51 51   51 51 51   51 51 51   1 1 3   1 1 3   4 26 32   23 148 184   34 219 255   41 255 255   47 255 255   50 255 255   50 255 255   47 255 255   32 206 255   51 51 51   51 51 51   51 51 51   51 51 51   51 51 51   51 51 51   51 51 51   51 51 51   51 51 51   51 51 51   51 51 51   51 51 51   51 51 51   51 51 51   51 51 51   51 51 51   4 8 15   4 8 15   51 51 51   18 9 7   18 9 7   84 40 34   139 67 56   187 90 76   229 110 93   255 132 111   255 248 205   255 156 131   255 160 135   255 146 123   51 51 51   51 51 51   51 51 51   51 51 51   51 51 51   
51 51 51   51 51 51   51 51 51   51 51 51   51 51 51   51 51 51   1 1 3   3 19 23   18 119 148   29 190 236   37 238 255   42 255 255   44 255 255   44 255 255   39 254 255   51 51 51   51 51 51   51 51 51   51 51 51   51 51 51   51 51 51   51 51 51   51 51 51   51 51 51   51 51 51   51 51 51   51 51 51   51 51 51   51 51 51   51 51 51   51 51 51   51 51 51   51 51 51   51 51 51   51 51 51   18 9 7   18 9 7   62 30 25   118 57 48   166 80 67   208 100 84   245 118 99   255 134 112   255 145 122   255 152 128   255 145 122   51 51 51   51 51 51   51 51 51   51 51 51   51 51 51   
51 51 51   51 51 51   51 51 51   51 51 51   51 51 51   51 51 51   51 51 51   51 51 51   10 67 83   22 143 178   30 192 238   34 222 255   36 235 255   35 225 255   25 165 205   51 51 51   51 51 51   51 51 51   51 51 51   51 51 51   51 51 51   51 51 51   51 51 51   51 51 51   51 51 51   51 51 51   51 51 51   51 51 51   51 51 51   51 51 51   51 51 51   51 51 51   51 51 51   51 51 51   51 51 51   18 9 7   18 9 7   33 16 13   91 44 37   140 67 57   183 88 74   220 106 89   251 121 102   255 133 112   255 140 118   255 132 111   51 51 51   51 51 51   51 51 51   51 51 51   51 51 51   
51 51 51   51 51 51   51 51 51   51 51 51   51 51 51   51 51 51   51 51 51   51 51 51   3 19 23   10 68 84   19 122 152   23 151 187   24 155 193   18 116 144   51 51 51   51 51 51   51 51 51   51 51 51   51 51 51   51 51 51   51 51 51   51 51 51   51 51 51   51 51 51   51 51 51   51 51 51   51 51 51   51 51 51   51 51 51   51 51 51   51 51 51   51 51 51   51 51 51   51 51 51   51 51 51   51 51 51   18 9 7   18 9 7   58 28 23   109 52 44   152 73 62   190 92 77   221 107 90   245 118 99   255 124 104   51 51 51   51 51 51   51 51 51   51 51 51   51 51 51   51 51 51   
51 51 51   51 51 51   51 51 51   51 51 51   51 51 51   51 51 51   51 51 51   51 51 51   51 51 51   51 51 51   3 19 23   3 19 23   51 51 51   51 51 51   51 51 51   51 51 51   51 51 51   51 51 51   51 51 51   51 51 51   51 51 51   51 51 51   51 51 51   51 51 51   51 51 51   51 51 51   51 51 51   51 51 51   51 51 51   51 51 51   51 51 51   51 51 51   51 51 51   51 51 51   51 51 51   51 51 51   18 9 7   18 9 7   18 9 7   70 33 28   115 55 47   153 74 62   184 89 75   205 99 83   209 101 85   51 51 51   51 51 51   51 51 51   51 51 51   51 51 51   51 51 51   
51 51 51   51 51 51   51 51 51   51 51 51   51 51 51   51 51 51   51 51 51   51 51 51   51 51 51   51 51 51   51 51 51   51 51 51   51 51 51   51 51 51   51 51 51   51 51 51   51 51 51   51 51 51   51 51 51   51 51 51   51 51 51   51 51 51   51 51 51   51 51 51   51 51 51   51 51 51   51 51 51   51 51 51   51 51 51   51 51 51   51 51 51   51 51 51   51 51 51   51 51 51   51 51 51   51 51 51   51 51 51   18 9 7   18 9 7   18 9 7   67 32 27   106 51 43   135 65 55   149 72 60   51 51 51   51 51 51   51 51 51   51 51 51   51 51 51   51 51 51   51 51 51   
