P3
51 51
255
51 51 51   51 51 51   51 51 51   51 51 51   51 51 51   51 51 51   51 51 51   51 51 51   51 51 51   51 51 51   51 51 51   51 51 51   51 51 51   51 51 51   51 51 51   51 51 51   51 51 51   51 51 51   51 51 51   51 51 51   51 51 51   51 51 51   95 189 255   117 231 255   51 51 51   14 22 0   25 38 1   46 72 2   66 103 3   84 130 4   101 157 4   117 182 5   132 205 6   147 229 7   161 251 7   176 255 8   192 255 19   204 255 14   216 255 10   229 255 10   14 22 0   6 9 9   6 9 9   6 9 9   6 9 9   6 9 9   6 9 9   6 9 9   16 22 23   23 32 33   31 42 44   
51 51 51   51 51 51   51 51 51   51 51 51   51 51 51   51 51 51   51 51 51   51 51 51   51 51 51   51 51 51   51 51 51   51 51 51   51 51 51   51 51 51   51 51 51   51 51 51   51 51 51   51 51 51   51 51 51   51 51 51   51 51 51   55 109 163   81 161 240   102 203 255   119 236 255   14 22 0   14 22 0   31 49 1   51 79 2   69 107 3   86 133 4   102 158 4   117 182 5   132 205 6   147 228 7   161 250 7   174 255 8   188 255 9   201 255 9   214 255 10   14 22 0   6 9 9   6 9 9   6 9 9   6 9 9   6 9 9   6 9 9   6 9 9   6 9 9   16 22 22   23 32 33   
51 51 51   51 51 51   51 51 51   51 51 51   51 51 51   51 51 51   51 51 51   51 51 51   51 51 51   51 51 51   51 51 51   51 51 51   172 115 232   235 157 255   255 186 255   255 203 255   51 51 51   51 51 51   51 51 51   51 51 51   7 13 20   35 70 105   60 120 179   81 162 241   100 198 255   14 22 0   14 22 0   14 22 0   35 55 1   53 83 2   70 109 3   86 134 4   102 158 4   117 182 5   131 204 6   145 226 6   159 247 7   172 255 8   185 255 8   198 255 9   14 22 0   6 9 9   6 9 9   6 9 9   6 9 9   6 9 9   6 9 9   6 9 9   6 9 9   6 9 9   16 22 23   
137 123 93   141 127 96   144 129 98   143 129 97   221 84 57   255 112 77   255 130 89   255 255 194   255 255 219   255 255 237   255 255 250   255 255 255   150 100 202   204 136 255   247 166 255   255 209 255   255 198 255   51 51 51   51 51 51   51 51 51   7 13 20   11 22 33   36 72 107   57 114 170   75 149 222   14 22 0   14 22 0   14 22 0   14 22 0   37 58 1   54 84 2   70 109 3   86 134 4   101 157 4   116 180 5   130 202 6   143 223 6   157 244 7   170 255 8   182 255 8   14 22 0   6 9 9   6 9 9   6 9 9   6 9 9   6 9 9   6 9 9   6 9 9   6 9 9   6 9 9   6 9 9   
139 125 94   143 129 97   147 132 100   149 134 102   150 135 102   148 133 101   252 255 174   255 255 198   255 255 218   255 255 235   255 255 249   255 255 255   105 70 141   158 106 213   201 134 255   238 169 255   255 172 255   249 166 255   51 51 51   3 22 20   7 13 20   7 13 20   7 13 20   30 59 89   7 13 20   14 22 0   14 22 0   14 22 0   14 22 0   20 31 0   37 58 1   54 84 2   69 108 3   85 132 4   99 154 4   113 176 5   127 198 6   140 218 6   153 238 7   165 255 7   14 22 0   6 9 9   6 9 9   6 9 9   6 9 9   6 9 9   6 9 9   6 9 9   6 9 9   6 9 9   6 9 9   
137 123 93   141 127 96   145 130 99   148 133 101   150 135 102   151 136 103   149 134 102   140 126 95   255 255 209   255 255 226   255 255 240   255 255 252   255 255 255   103 68 138   146 98 197   181 121 244   205 137 255   207 138 255   3 22 20   3 22 20   3 22 20   7 13 20   7 13 20   7 13 20   7 13 20   14 22 0   14 22 0   14 22 0   14 22 0   14 22 0   20 31 0   36 57 1   52 81 2   67 105 3   82 128 3   96 150 4   110 171 5   123 192 5   136 211 6   14 22 0   14 22 0   6 9 9   6 9 9   6 9 9   6 9 9   6 9 9   6 9 9   6 9 9   6 9 9   6 9 9   6 9 9   
133 119 90   137 123 93   141 127 96   145 130 99   148 132 100   149 134 101   149 134 102   147 132 100   138 123 94   255 255 213   255 255 227   255 255 244   255 255 254   255 255 255   82 55 111   117 78 158   141 94 190   12 77 68   3 22 20   3 22 20   3 22 20   3 22 20   7 13 20   7 13 20   3 22 20   14 22 0   14 22 0   14 22 0   14 22 0   14 22 0   14 22 0   14 22 0   34 53 1   50 77 2   64 100 3   79 122 3   92 143 4   105 164 5   118 183 5   14 22 0   14 22 0   6 9 9   6 9 9   6 9 9   6 9 9   6 9 9   6 9 9   6 9 9   6 9 9   6 9 9   6 9 9   
127 114 87   132 119 90   139 122 95   151 126 105   144 128 98   145 130 99   146 131 99   145 130 99   142 127 96   126 113 86   255 255 211   255 255 242   255 255 255   255 255 245   255 255 249   255 255 250   62 41 84   3 22 20   3 22 20   3 22 20   3 22 20   3 22 20   42 255 227   3 22 20   3 22 20   14 22 0   14 22 0   14 22 0   14 22 0   14 22 0   14 22 0   14 22 0   14 22 0   31 48 1   45 71 2   60 93 2   73 114 3   86 134 4   14 22 0   14 22 0   168 255 255   21 255 228   6 9 9   6 9 9   6 9 9   6 9 9   6 9 9   6 9 9   6 9 9   6 9 9   6 9 9   
121 109 82   126 113 86   147 117 104   255 127 255   236 126 183   140 125 96   141 126 96   141 126 96   139 125 95   133 119 90   255 255 193   255 255 206   255 255 219   255 255 226   255 255 232   255 255 235   21 21 14   3 22 20   3 22 20   22 134 119   28 169 151   33 201 179   38 230 204   3 22 20   3 22 20   3 22 20   14 22 0   14 22 0   14 22 0   14 22 0   14 22 0   14 22 0   14 22 0   14 22 0   25 40 1   40 62 1   53 83 2   66 102 3   14 22 0   14 22 0   34 255 181   29 152 38   42 216 54   6 9 9   6 9 9   6 9 9   6 9 9   6 9 9   6 9 9   6 9 9   6 9 9   
114 102 78   119 107 81   124 111 85   154 115 111   174 118 128   135 119 92   134 120 91   135 121 92   134 120 91   130 116 88   117 105 80   255 255 186   255 255 197   255 255 206   255 255 213   255 255 216   21 21 14   3 22 20   11 67 59   17 106 95   23 141 126   28 173 154   33 202 179   3 22 20   3 22 20   3 22 20   14 22 0   14 22 0   14 22 0   14 22 0   14 22 0   14 22 0   14 22 0   14 22 0   14 22 0   14 22 0   31 48 1   14 22 0   14 22 0   14 23 2   14 23 2   24 125 31   35 181 45   45 231 58   6 9 9   6 9 9   6 9 9   6 9 9   6 9 9   6 9 9   6 9 9   
106 95 72   111 100 76   115 104 79   119 107 81   123 110 83   125 112 85   127 114 86   127 114 87   127 114 86   124 111 84   116 104 79   239 242 164   255 255 175   255 255 185   255 255 191   255 255 195   21 21 14   3 22 20   5 36 32   12 76 67   18 111 99   23 143 127   28 172 153   3 22 20   3 22 20   3 22 20   3 22 20   14 22 0   14 22 0   14 22 0   14 22 0   14 22 0   14 22 0   14 22 0   14 22 0   14 22 0   14 22 0   14 22 0   24 15 10   24 15 10   14 23 2   14 23 2   14 23 2   3 18 4   46 236 62   54 255 70   61 255 79   51 51 51   51 51 51   51 51 51   51 51 51   
98 88 66   103 92 70   107 96 73   111 99 75   114 102 77   117 105 79   118 106 80   119 107 81   119 107 81   116 104 79   110 98 74   204 206 140   220 223 151   233 236 160   243 246 167   247 250 170   21 21 14   3 22 20   3 22 20   7 42 37   12 78 69   18 110 98   23 140 124   3 22 20   3 22 20   3 22 20   3 22 20   3 22 20   14 22 0   14 22 0   14 22 0   14 22 0   14 22 0   14 22 0   14 22 0   14 22 0   14 22 0   24 15 10   24 15 10   24 15 10   24 15 10   14 23 2   14 23 2   14 23 2   37 189 47   45 233 58   53 255 67   51 51 51   51 51 51   51 51 51   51 51 51   
88 79 60   93 84 63   98 88 66   101 91 69   105 94 71   107 96 73   109 98 74   110 99 75   109 98 74   107 96 73   101 90 69   74 66 50   182 184 125   194 197 134   203 206 140   207 209 142   21 21 14   3 22 20   3 22 20   3 22 20   7 42 37   12 75 67   17 105 93   3 22 20   3 22 20   3 22 20   3 22 20   3 22 20   3 22 20   14 22 0   14 22 0   14 22 0   14 22 0   14 22 0   14 22 0   24 15 10   24 15 10   24 15 10   24 15 10   24 15 10   24 15 10   14 23 2   14 23 2   14 23 2   14 23 2   35 182 45   42 217 54   51 51 51   51 51 51   51 51 51   51 51 51   
78 70 53   83 75 56   88 79 59   91 82 62   95 85 64   97 87 66   99 89 67   100 89 68   99 89 67   96 87 66   90 81 61   67 60 46   139 140 95   151 153 104   159 161 109   160 162 110   21 21 14   3 22 20   3 22 20   3 22 20   3 22 20   6 36 32   11 67 59   3 22 20   3 22 20   3 22 20   3 22 20   3 22 20   3 22 20   3 22 20   24 15 10   24 15 10   24 15 10   24 15 10   24 15 10   24 15 10   24 15 10   24 15 10   24 15 10   24 15 10   24 15 10   24 15 10   14 23 2   14 23 2   14 23 2   24 126 31   51 51 51   51 51 51   51 51 51   51 51 51   51 51 51   
67 60 45   72 65 49   76 69 52   80 72 55   83 75 57   86 77 58   88 79 59   88 79 60   87 78 59   84 76 57   77 69 52   75 76 51   90 91 62   102 103 70   107 109 74   104 106 72   21 21 14   3 22 20   3 22 20   3 22 20   3 22 20   3 22 20   3 22 20   3 22 20   3 22 20   3 22 20   3 22 20   3 22 20   3 22 20   3 22 20   24 15 10   24 15 10   24 15 10   24 15 10   24 15 10   24 15 10   24 15 10   24 15 10   24 15 10   24 15 10   24 15 10   24 15 10   14 23 2   14 23 2   14 23 2   229 255 42   51 51 51   51 51 51   51 51 51   51 51 51   51 51 51   
55 49 37   60 54 41   64 58 44   68 61 46   71 64 48   74 66 50   75 67 51   75 68 51   74 66 50   70 63 48   62 55 42   21 21 14   34 34 23   43 44 30   45 45 31   21 21 14   12 13 8   12 13 8   3 22 20   3 22 20   3 22 20   3 52 43   4 68 56   4 80 66   5 88 72   5 90 74   3 22 20   3 22 20   3 22 20   14 24 25   24 15 10   24 15 10   24 15 10   24 15 10   24 15 10   24 15 10   24 15 10   24 15 10   24 15 10   24 15 10   24 15 10   24 15 10   14 23 2   14 23 2   199 255 36   208 255 38   51 51 51   51 51 51   51 51 51   51 51 51   51 51 51   
41 37 28   47 42 32   51 46 35   55 49 37   58 52 39   60 54 41   61 55 42   61 55 41   59 53 40   54 48 37   41 37 28   50 174 255   55 194 255   56 197 255   21 21 14   12 13 8   12 13 8   12 13 8   12 13 8   3 22 20   1 29 24   2 48 40   3 63 52   4 74 61   6 84 70   5 89 73   5 87 71   3 22 20   20 14 15   14 24 25   24 15 10   24 15 10   24 15 10   24 15 10   24 15 10   24 15 10   24 15 10   24 15 10   24 15 10   24 15 10   24 15 10   24 15 10   14 23 2   161 255 29   176 255 32   182 255 33   51 51 51   51 51 51   51 51 51   51 51 51   51 51 51   
26 23 18   32 28 21   36 33 25   40 36 27   43 39 29   45 40 30   46 41 31   45 40 30   41 37 28   44 153 255   52 182 255   58 202 255   62 218 255   65 229 255   67 234 255   66 231 255   12 13 8   12 13 8   12 13 8   0 5 4   1 22 18   2 40 33   3 54 44   4 65 54   11 81 72   4 81 67   5 83 68   20 14 15   20 14 15   14 24 25   14 24 25   24 15 10   24 15 10   24 15 10   24 15 10   24 15 10   24 15 10   24 15 10   24 15 10   24 15 10   11 9 2   11 9 2   11 9 2   204 171 47   150 245 27   51 51 51   51 51 51   51 51 51   51 51 51   51 51 51   51 51 51   
8 7 5   15 13 10   19 17 13   23 21 16   26 23 17   27 24 18   27 24 18   22 78 139   38 132 236   46 163 255   53 186 255   58 204 255   63 219 255   66 230 255   68 238 255   69 242 255   68 237 255   12 13 8   12 13 8   0 5 4   0 11 9   1 29 24   2 43 35   3 54 44   3 63 52   4 70 57   4 72 59   20 14 15   20 14 15   14 24 25   14 24 25   24 15 10   24 15 10   24 15 10   24 15 10   24 15 10   24 15 10   24 15 10   11 9 2   11 9 2   153 128 35   170 142 39   186 156 43   201 168 46   212 177 49   245 255 83   255 255 94   51 51 51   51 51 51   51 51 51   51 51 51   
8 7 5   8 7 5   8 7 5   8 7 5   8 7 5   8 7 5   8 7 5   28 98 174   38 134 238   46 160 255   52 181 255   57 199 255   61 213 255   64 225 255   67 234 255   68 239 255   68 239 255   65 229 255   12 13 8   0 5 4   0 5 4   0 15 12   1 29 24   2 40 33   3 49 41   3 56 46   3 57 47   13 3 0   13 3 0   25 16 14   25 16 14   25 16 14   24 15 10   24 15 10   24 15 10   24 15 10   11 9 2   11 9 2   104 87 24   124 104 28   143 120 33   160 134 37   177 148 41   192 160 45   204 171 47   233 255 79   255 255 91   255 255 101   255 255 110   51 51 51   51 51 51   
8 7 5   8 7 5   8 7 5   8 7 5   8 7 5   8 7 5   13 47 83   27 95 170   36 127 226   43 151 255   49 172 255   54 189 255   58 203 255   66 242 255   81 255 255   66 230 255   66 231 255   65 226 255   58 202 255   12 13 8   0 5 4   0 5 4   0 12 10   1 24 20   2 33 27   2 38 31   2 36 30   13 3 0   13 3 0   25 16 14   25 16 14   25 16 14   25 16 14   25 16 14   11 9 2   11 9 2   46 38 10   71 59 16   93 77 21   113 94 26   131 110 30   149 124 34   177 143 57   255 205 225   194 162 47   211 246 71   248 255 83   255 255 95   255 255 104   255 255 111   51 51 51   
1 12 6   1 12 6   1 12 6   29 182 99   31 191 104   77 227 158   12 43 76   24 85 152   33 115 205   40 139 248   45 159 255   50 176 255   54 190 255   58 202 255   62 224 255   62 217 255   63 219 255   62 216 255   57 200 255   12 13 8   0 5 4   0 5 4   0 5 4   0 5 4   0 11 9   0 14 11   21 24 9   13 3 0   13 3 0   25 16 14   25 16 14   25 16 14   25 16 14   25 16 14   11 9 2   11 9 2   34 28 7   58 49 13   80 67 18   100 84 23   118 99 27   136 113 31   152 127 36   198 154 88   185 153 49   185 216 62   221 255 74   255 255 91   255 255 96   255 255 104   51 51 51   
20 126 68   23 143 77   25 157 85   27 168 91   28 177 96   1 12 6   8 29 52   20 70 124   28 99 177   35 123 219   41 143 255   45 159 255   49 173 255   53 185 255   55 194 255   57 200 255   58 203 255   57 200 255   53 187 255   12 13 8   12 13 8   12 13 8   0 5 4   0 5 4   12 13 8   21 24 9   21 24 9   13 3 0   13 3 0   13 3 0   25 16 14   25 16 14   25 16 14   25 16 14   11 9 2   11 9 2   20 16 4   44 37 10   66 55 15   86 72 19   104 87 24   121 102 28   138 115 32   152 127 35   166 139 38   156 182 53   191 223 64   224 255 76   254 255 86   255 255 94   255 255 99   
17 110 59   20 126 68   22 140 76   24 151 82   25 160 87   1 12 6   3 13 23   14 50 89   23 80 142   29 104 185   35 124 221   40 140 251   44 154 255   47 166 255   50 175 255   52 181 255   52 183 255   51 180 255   47 166 255   12 13 8   12 13 8   12 13 8   12 13 8   21 21 5   21 24 9   21 24 9   212 108 79   255 137 100   18 9 7   13 3 0   25 16 14   25 16 14   18 21 4   11 9 2   11 9 2   11 9 2   11 9 2   28 24 6   50 42 11   70 59 16   89 74 20   106 89 24   122 102 28   137 115 31   151 126 35   163 136 37   159 186 54   192 224 65   222 255 75   247 255 84   255 255 88   
14 89 48   17 107 58   19 120 65   21 132 71   255 30 255   21 1 20   3 13 23   7 25 45   16 56 101   23 81 145   29 101 181   34 118 211   38 132 236   41 144 255   43 153 255   45 158 255   46 160 255   44 155 255   39 137 245   12 13 8   12 13 8   21 21 5   255 255 70   255 255 82   255 255 91   255 255 94   234 119 87   255 149 109   255 174 126   255 179 131   18 9 7   18 21 4   18 21 4   18 21 4   11 9 2   11 9 2   11 9 2   11 9 2   33 28 7   53 45 12   72 60 16   90 75 20   106 88 24   120 101 28   134 112 31   89 104 30   125 145 42   157 183 53   187 218 63   211 246 71   51 51 51   
255 22 255   255 24 255   255 26 255   255 27 255   255 29 255   21 1 20   3 13 23   3 13 23   8 28 50   15 54 97   21 75 134   26 93 166   30 107 191   34 118 211   36 126 226   37 131 234   37 131 235   35 124 221   27 94 168   12 13 8   129 133 31   216 222 53   255 255 68   255 255 81   255 255 96   255 255 95   255 255 94   255 153 111   255 193 138   255 203 146   255 182 133   18 21 4   18 21 4   18 21 4   11 9 2   11 9 2   11 9 2   11 9 2   11 9 2   35 29 8   54 45 12   72 60 16   88 73 20   102 86 23   116 97 26   227 40 104   255 46 119   255 167 164   255 59 146   255 60 156   255 63 162   
255 21 253   255 23 255   255 25 255   255 26 255   255 27 255   21 1 20   21 1 20   3 13 23   3 13 23   6 22 39   12 44 79   18 62 112   22 77 138   25 88 157   27 96 171   28 99 177   27 97 172   23 82 147   18 18 15   21 21 5   116 119 28   194 200 48   255 255 63   255 255 74   255 255 216   255 255 96   255 255 91   255 138 100   255 180 128   255 199 142   255 182 132   18 9 7   15 2 5   15 2 5   11 9 2   11 9 2   11 9 2   11 9 2   11 9 2   11 9 2   34 28 8   52 43 12   68 57 15   82 69 19   166 29 76   201 35 92   234 41 107   255 47 122   255 52 134   255 56 145   255 59 153   
238 20 235   255 22 255   255 23 255   255 25 255   255 26 255   21 1 20   21 1 20   21 1 20   3 13 23   3 13 23   3 13 23   7 26 46   11 41 73   14 51 92   16 58 103   16 58 104   14 49 87   14 24 18   14 24 18   21 21 5   82 84 20   159 163 39   218 225 54   255 255 65   255 255 74   255 255 81   255 255 82   231 111 81   255 142 102   255 162 117   255 158 115   255 146 107   15 2 5   15 2 5   15 2 5   11 9 2   11 9 2   11 9 2   11 9 2   11 9 2   11 9 2   29 25 6   45 38 10   99 17 45   138 24 63   174 30 80   207 36 95   237 42 109   255 47 122   255 51 133   255 54 141   
216 18 213   238 20 235   255 21 254   255 23 255   255 24 255   255 25 255   21 1 20   12 22 19   12 22 19   3 13 23   3 13 23   3 13 23   3 13 23   3 13 23   3 13 23   3 13 23   14 24 18   5 20 10   5 20 10   21 21 5   32 33 8   111 114 27   171 176 42   218 225 54   255 255 63   255 255 68   255 255 70   168 85 62   215 106 78   252 122 89   255 128 94   18 9 7   15 2 5   15 2 5   15 2 5   15 2 5   11 9 2   11 9 2   11 9 2   11 9 2   11 9 2   11 9 2   19 3 9   68 12 31   107 19 49   143 25 66   177 31 81   207 36 95   235 41 108   255 46 119   255 49 127   
190 16 188   212 18 210   231 19 229   247 20 244   255 22 255   168 255 250   188 255 255   12 22 19   12 22 19   12 22 19   12 22 19   12 22 19   12 22 19   12 22 19   12 22 19   14 24 18   26 94 46   5 20 10   5 20 10   21 21 5   21 21 5   48 49 11   111 114 27   159 163 39   194 200 48   216 222 53   213 219 52   115 59 43   152 78 57   179 91 67   190 97 71   15 2 5   15 2 5   15 2 5   15 2 5   15 2 5   15 2 5   15 2 5   11 9 2   11 9 2   19 3 9   19 3 9   19 3 9   34 6 16   74 13 34   110 19 50   144 25 66   174 31 80   201 35 92   225 40 103   239 42 109   
159 13 157   182 15 180   201 17 199   217 18 215   143 248 211   166 255 246   185 255 255   200 255 255   218 255 255   255 255 255   255 255 255   12 22 19   12 22 19   12 22 19   206 255 255   14 24 18   28 101 50   54 195 96   5 20 10   1 15 9   11 150 88   14 188 111   17 216 127   18 238 140   20 254 149   20 255 155   20 255 154   51 26 19   87 44 32   109 56 41   104 53 39   39 6 13   81 13 28   116 19 40   147 24 50   186 32 62   15 2 5   15 2 5   15 2 5   20 16 5   19 3 9   19 3 9   19 3 9   19 3 9   37 6 17   73 13 33   107 19 49   137 24 63   164 29 75   184 32 85   255 255 97   
123 10 121   147 12 145   167 14 165   108 189 161   137 238 203   159 255 236   177 255 255   192 255 255   207 255 255   255 255 255   255 255 255   242 255 255   222 255 255   215 255 255   200 255 255   150 255 223   20 73 36   45 163 80   5 70 41   10 132 78   13 172 101   16 202 119   18 228 134   19 248 146   21 255 156   21 255 163   22 255 167   22 255 165   18 9 7   15 2 5   15 2 5   15 2 5   61 10 21   96 16 33   127 21 44   156 26 53   194 33 64   245 44 77   15 2 5   20 16 5   20 16 5   20 16 5   20 16 5   19 3 9   19 3 9   31 5 14   65 11 30   94 16 43   119 21 54   255 255 90   255 255 92   
79 6 78   105 8 104   62 108 92   99 173 148   127 221 188   148 255 220   166 255 246   180 255 255   192 255 255   203 255 255   212 255 255   211 255 255   209 255 255   203 255 255   188 255 255   144 250 213   5 20 10   1 20 12   7 99 58   11 143 84   14 178 105   16 206 121   18 230 135   20 250 147   24 255 157   25 255 165   23 255 170   23 255 171   22 255 167   15 2 5   15 2 5   15 2 5   37 6 13   73 12 25   104 17 36   132 22 45   157 26 54   182 30 62   201 34 68   20 16 5   20 16 5   40 32 11   84 68 23   124 100 34   161 130 44   195 157 53   226 182 62   254 204 70   255 224 77   255 240 82   255 245 84   
21 1 20   53 4 52   48 85 72   86 150 127   113 197 168   134 234 199   152 255 225   166 255 246   177 255 255   186 255 255   191 255 255   194 255 255   193 255 255   186 255 255   169 255 251   114 199 170   5 20 10   4 51 30   8 106 62   11 145 85   14 177 104   16 204 120   18 227 134   24 249 146   54 255 160   78 255 171   41 255 171   23 255 171   22 255 170   21 255 157   15 2 5   15 2 5   15 2 5   46 7 16   78 13 27   106 17 36   131 21 45   152 25 52   169 28 58   20 16 5   20 16 5   20 16 5   52 42 14   93 75 25   97 102 17   183 192 33   248 255 45   255 255 55   255 255 62   255 213 73   255 212 72   
21 1 20   21 1 20   28 49 42   67 117 100   95 166 141   117 203 173   134 234 199   148 255 220   159 255 236   168 255 249   173 255 255   175 255 255   172 255 255   164 255 243   143 250 213   13 19 6   1 15 9   4 56 33   8 104 61   11 142 83   13 172 101   15 198 117   17 221 130   27 244 142   89 255 161   163 255 180   90 255 175   27 255 169   22 255 168   21 255 161   8 1 21   15 2 5   15 2 5   15 2 5   48 8 16   76 12 26   101 16 35   121 20 42   137 22 47   20 16 5   20 16 5   20 16 5   20 16 5   21 22 3   104 109 19   178 187 32   241 253 44   255 255 54   255 255 63   255 255 69   51 51 51   
51 51 51   11 16 7   12 22 19   43 75 63   72 126 108   95 166 141   113 197 168   127 221 189   138 240 205   146 254 216   150 255 223   151 255 224   147 255 218   135 235 201   104 182 155   8 7 5   1 15 9   4 52 30   7 98 57   10 133 78   12 163 96   15 189 111   16 211 124   22 232 136   58 255 151   114 255 167   77 255 167   27 255 163   22 255 163   21 255 158   107 13 255   8 1 21   15 2 5   15 2 5   15 2 5   40 6 14   65 10 22   84 14 29   15 2 5   20 16 5   20 16 5   20 16 5   21 22 3   21 22 3   85 90 15   157 165 28   219 230 40   255 255 50   255 255 99   255 255 70   255 255 71   
133 188 87   11 16 7   12 22 19   12 22 19   44 76 65   68 119 101   87 151 129   101 177 150   112 195 166   119 208 177   123 214 183   122 213 181   115 200 170   95 165 141   8 7 5   8 7 5   1 15 9   3 42 25   6 87 51   9 122 72   12 151 89   14 177 104   15 199 117   17 218 128   24 237 138   38 255 148   32 255 153   22 255 155   20 255 156   20 255 150   108 14 255   126 16 255   142 18 255   153 19 255   15 2 5   15 2 5   15 2 5   15 2 5   22 15 17   22 15 17   20 16 5   20 16 5   21 22 3   21 22 3   56 59 10   127 133 23   189 199 34   245 255 45   255 255 78   255 255 114   255 255 68   
153 215 100   171 241 112   185 255 121   11 16 7   12 22 19   33 58 49   54 94 80   69 121 103   80 139 119   86 151 128   88 154 131   84 146 124   68 119 101   8 7 5   8 7 5   8 7 5   1 15 9   2 27 16   5 72 42   8 107 63   10 137 80   12 162 95   14 184 108   16 202 119   17 218 129   19 232 136   19 242 142   19 247 146   19 248 146   18 238 140   104 13 250   122 15 255   141 18 255   198 28 255   157 20 255   255 255 31   255 255 38   21 24 2   22 15 17   51 51 51   51 51 51   51 51 51   21 22 3   21 22 3   21 22 3   90 94 16   153 161 28   209 220 38   255 255 47   255 255 56   255 255 62   
163 229 106   178 251 117   191 255 125   201 255 131   208 255 136   12 22 19   12 22 19   25 45 38   36 63 54   41 72 61   38 66 56   20 36 30   10 19 19   4 25 6   4 25 6   8 7 5   1 15 9   1 15 9   4 52 31   7 88 52   9 118 70   11 144 85   13 166 98   14 185 109   15 200 118   16 213 125   17 223 131   18 228 134   18 227 134   17 214 126   96 12 232   115 14 255   130 16 255   176 24 255   151 19 255   255 255 30   255 255 40   21 24 2   21 24 2   51 51 51   51 51 51   51 51 51   21 22 3   21 22 3   21 22 3   46 48 8   110 116 20   167 176 30   218 229 40   255 255 48   255 255 54   
167 234 109   181 254 118   192 255 126   202 255 132   222 255 142   255 255 162   232 255 148   215 255 140   210 255 138   11 16 7   185 255 121   145 204 95   10 19 19   4 25 6   4 25 6   4 25 6   51 51 51   1 15 9   2 28 16   5 66 39   7 97 57   9 123 72   11 145 85   13 164 96   14 179 106   15 192 113   15 200 118   16 205 120   16 201 118   14 181 106   86 11 207   104 13 251   120 15 255   132 17 255   141 18 255   237 255 26   21 24 2   21 24 2   21 24 2   51 51 51   51 51 51   51 51 51   51 51 51   21 22 3   21 22 3   21 22 3   60 63 11   118 124 21   169 178 31   212 223 39   244 255 44   
167 234 109   180 253 118   191 255 125   201 255 131   255 255 165   255 255 235   255 255 168   212 255 139   207 255 136   199 255 130   60 15 108   77 20 138   87 22 158   95 24 171   99 26 179   100 26 181   96 25 173   1 15 9   1 15 9   3 38 22   5 71 42   7 98 57   9 120 71   11 139 82   12 155 91   13 166 98   13 174 102   13 176 103   13 167 98   51 6 124   73 9 176   92 11 220   107 13 255   119 15 255   127 16 255   185 214 20   21 24 2   21 24 2   21 24 2   51 51 51   51 51 51   51 51 51   51 51 51   51 51 51   21 22 3   25 2 18   115 12 84   213 23 155   255 32 214   255 39 255   255 45 255   
164 230 107   176 248 115   187 255 122   196 255 128   229 255 143   255 255 164   224 255 142   206 255 135   201 255 132   65 17 117   80 21 145   92 24 165   100 26 181   107 28 193   111 29 201   114 29 205   113 29 204   109 28 196   1 15 9   1 15 9   3 39 23   5 67 40   7 91 53   8 110 65   9 125 73   10 136 80   11 141 83   10 138 81   8 112 66   35 4 84   57 7 138   76 9 183   91 11 219   103 13 248   111 14 255   111 129 12   21 24 2   21 24 2   23 20 15   51 51 51   51 51 51   51 51 51   51 51 51   51 51 51   51 51 51   25 2 18   102 11 74   196 21 143   255 30 201   255 38 252   255 44 255   
158 223 104   170 240 112   180 253 118   188 255 123   194 255 127   199 255 130   199 255 130   197 255 129   61 16 111   78 20 140   90 23 162   100 26 180   107 28 194   113 29 205   118 30 213   121 31 217   121 31 219   119 31 215   113 29 203   1 15 9   1 15 9   2 28 16   4 53 31   5 73 43   6 87 51   7 95 56   7 95 56   5 74 43   8 1 21   13 1 32   37 4 89   56 7 136   71 9 172   83 10 199   88 11 213   21 24 2   21 24 2   255 255 220   255 255 215   24 9 7   24 9 7   51 51 51   51 51 51   51 51 51   25 2 18   25 2 18   72 7 52   165 18 120   246 27 179   255 35 231   255 73 255   
150 211 98   162 228 106   172 241 112   179 251 117   184 255 120   187 255 123   188 255 123   53 14 96   71 18 129   85 22 153   95 25 172   104 27 188   111 29 201   117 30 211   121 31 219   124 32 224   125 32 226   124 32 225   120 31 217   109 28 197   1 15 9   1 15 9   1 15 9   1 20 11   2 31 18   2 30 17   51 51 51   4 3 5   8 1 21   8 1 21   8 1 21   30 4 74   46 5 110   55 7 132   8 1 21   23 20 15   23 20 15   255 240 184   24 9 7   24 9 7   24 9 7   24 9 7   24 9 7   51 51 51   25 2 18   25 2 18   25 2 18   124 13 90   206 22 150   255 30 203   255 37 249   
140 197 92   152 213 99   161 226 105   168 236 110   172 242 113   175 246 114   40 10 72   61 16 111   77 20 138   89 23 160   99 25 178   107 28 193   114 29 205   119 31 215   124 33 224   127 33 229   127 33 230   127 33 229   124 32 223   116 30 209   91 24 165   51 51 51   51 51 51   51 51 51   51 51 51   51 51 51   51 51 51   51 51 51   4 3 5   4 3 5   8 1 21   8 1 21   8 1 21   23 20 15   23 20 15   23 20 15   193 170 130   188 165 126   24 9 7   24 9 7   24 9 7   24 9 7   24 9 7   23 12 21   23 12 21   25 2 18   25 2 18   73 8 53   157 17 114   231 25 168   255 32 215   
127 178 83   138 194 90   147 207 96   154 216 101   158 222 103   160 225 105   48 12 86   66 17 119   79 20 143   91 23 163   100 26 180   108 28 194   114 30 206   123 35 222   154 64 255   152 59 255   129 35 233   127 33 230   125 32 225   118 31 213   102 26 184   51 51 51   51 51 51   51 51 51   51 51 51   51 51 51   51 51 51   51 51 51   51 51 51   51 51 51   51 51 51   51 51 51   23 20 15   23 20 15   23 20 15   76 67 51   63 56 42   51 51 51   24 9 7   24 9 7   24 9 7   24 9 7   24 9 7   23 12 21   23 12 21   107 55 99   23 12 21   25 2 18   98 10 71   174 19 126   239 26 174   
111 156 72   122 172 80   131 184 86   137 192 90   141 198 92   28 7 51   51 13 93   68 17 122   80 21 145   91 23 164   100 26 180   107 28 194   114 30 205   132 44 237   220 134 255   205 116 255   132 38 238   126 33 228   124 32 224   118 31 213   104 27 188   51 51 51   51 51 51   51 51 51   51 51 51   51 51 51   51 51 51   51 51 51   51 51 51   51 51 51   51 51 51   51 51 51   51 51 51   51 51 51   51 51 51   51 51 51   51 51 51   51 51 51   51 51 51   24 9 7   24 9 7   24 9 7   23 12 21   23 12 21   23 12 21   93 48 86   154 80 142   208 108 193   255 133 238   255 156 255   255 180 255   
90 127 59   102 143 67   110 155 72   116 163 76   119 167 78   32 8 57   52 13 95   68 17 122   80 21 144   90 23 163   99 25 178   106 27 191   112 29 202   124 38 223   168 80 255   158 68 255   126 34 228   124 32 224   122 31 219   116 30 209   103 26 185   51 51 51   51 51 51   51 51 51   51 51 51   51 51 51   51 51 51   51 51 51   51 51 51   51 51 51   51 51 51   51 51 51   51 51 51   51 51 51   51 51 51   51 51 51   51 51 51   51 51 51   51 51 51   51 51 51   24 9 7   51 51 51   23 12 21   23 12 21   23 12 21   73 38 68   134 69 124   189 98 175   238 123 221   255 147 255   255 169 255   
63 89 41   76 107 50   84 119 55   90 126 59   7 1 12   32 8 58   52 13 94   66 17 120   78 20 141   88 23 159   96 25 174   103 27 186   109 28 197   114 30 207   121 34 219   122 33 221   121 31 219   121 31 218   118 30 213   112 29 202   98 25 177   51 51 51   51 51 51   51 51 51   51 51 51   51 51 51   51 51 51   51 51 51   51 51 51   51 51 51   51 51 51   51 51 51   51 51 51   51 51 51   51 51 51   51 51 51   51 51 51   51 51 51   51 51 51   51 51 51   51 51 51   51 51 51   23 12 21   23 12 21   23 12 21   49 25 45   110 57 102   166 86 153   215 112 200   255 135 242   255 157 255   
24 33 15   39 55 25   48 68 31   52 73 34   7 1 12   30 8 55   49 13 89   64 16 115   75 19 136   85 22 153   93 24 168   100 26 180   106 27 190   110 28 199   114 29 205   116 30 209   117 30 211   116 30 209   113 29 203   106 27 191   90 23 162   51 51 51   51 51 51   51 51 51   51 51 51   51 51 51   51 51 51   51 51 51   51 51 51   51 51 51   51 51 51   51 51 51   51 51 51   51 51 51   51 51 51   51 51 51   51 51 51   51 51 51   51 51 51   51 51 51   51 51 51   51 51 51   51 51 51   23 12 21   23 12 21   23 12 21   83 43 77   139 72 129   189 98 175   235 122 218   255 144 255   
51 51 51   51 51 51   51 51 51   51 51 51   7 1 12   26 7 48   45 12 82   60 15 108   71 18 129   81 21 146   89 23 160   95 25 172   101 26 182   105 27 190   109 28 196   111 29 200   111 29 201   110 28 198   106 27 191   98 25 177   75 19 136   51 51 51   51 51 51   51 51 51   51 51 51   51 51 51   51 51 51   51 51 51   51 51 51   51 51 51   51 51 51   51 51 51   51 51 51   51 51 51   51 51 51   51 51 51   51 51 51   51 51 51   51 51 51   51 51 51   51 51 51   51 51 51   51 51 51   23 12 21   23 12 21   23 12 21   50 26 46   108 56 100   159 83 148   206 107 191   248 129 230   
