P3
51 51
255
51 51 51   51 51 51   51 51 51   51 51 51   51 51 51   51 51 51   51 51 51   51 51 51   51 51 51   51 51 51   51 51 51   51 51 51   51 51 51   51 51 51   51 51 51   51 51 51   51 51 51   51 51 51   51 51 51   51 51 51   51 51 51   51 51 51   51 51 51   51 51 51   51 51 51   51 51 51   51 51 51   51 51 51   51 51 51   51 51 51   51 51 51   51 51 51   51 51 51   51 51 51   51 51 51   51 51 51   51 51 51   51 51 51   51 51 51   51 51 51   51 51 51   51 51 51   51 51 51   51 51 51   51 51 51   51 51 51   51 51 51   51 51 51   51 51 51   51 51 51   51 51 51   
51 51 51   51 51 51   51 51 51   51 51 51   51 51 51   51 51 51   51 51 51   51 51 51   51 51 51   51 51 51   51 51 51   51 51 51   51 51 51   51 51 51   51 51 51   51 51 51   51 51 51   51 51 51   51 51 51   51 51 51   51 51 51   51 51 51   51 51 51   51 51 51   51 51 51   51 51 51   51 51 51   51 51 51   51 51 51   51 51 51   51 51 51   51 51 51   51 51 51   51 51 51   51 51 51   51 51 51   51 51 51   51 51 51   51 51 51   51 51 51   51 51 51   51 51 51   51 51 51   51 51 51   51 51 51   51 51 51   51 51 51   51 51 51   51 51 51   51 51 51   51 51 51   
51 51 51   51 51 51   51 51 51   51 51 51   51 51 51   51 51 51   51 51 51   51 51 51   51 51 51   51 51 51   51 51 51   51 51 51   51 51 51   51 51 51   51 51 51   51 51 51   51 51 51   51 51 51   51 51 51   51 51 51   51 51 51   51 51 51   51 51 51   51 51 51   51 51 51   51 51 51   51 51 51   51 51 51   51 51 51   51 51 51   51 51 51   51 51 51   51 51 51   51 51 51   51 51 51   51 51 51   51 51 51   51 51 51   51 51 51   51 51 51   51 51 51   51 51 51   51 51 51   51 51 51   51 51 51   51 51 51   51 51 51   51 51 51   51 51 51   51 51 51   51 51 51   
51 51 51   51 51 51   51 51 51   51 51 51   51 51 51   51 51 51   51 51 51   51 51 51   51 51 51   51 51 51   51 51 51   51 51 51   51 51 51   51 51 51   51 51 51   51 51 51   51 51 51   51 51 51   51 51 51   51 51 51   51 51 51   51 51 51   51 51 51   51 51 51   51 51 51   51 51 51   51 51 51   51 51 51   51 51 51   51 51 51   51 51 51   51 51 51   51 51 51   51 51 51   51 51 51   51 51 51   51 51 51   51 51 51   51 51 51   51 51 51   51 51 51   51 51 51   51 51 51   51 51 51   51 51 51   51 51 51   51 51 51   51 51 51   51 51 51   51 51 51   51 51 51   
51 51 51   51 51 51   51 51 51   51 51 51   51 51 51   51 51 51   51 51 51   51 51 51   51 51 51   51 51 51   51 51 51   51 51 51   51 51 51   51 51 51   51 51 51   51 51 51   51 51 51   51 51 51   51 51 51   51 51 51   51 51 51   51 51 51   51 51 51   51 51 51   51 51 51   125 12 255   51 51 51   51 51 51   51 51 51   51 51 51   51 51 51   51 51 51   51 51 51   51 51 51   51 51 51   51 51 51   51 51 51   51 51 51   51 51 51   51 51 51   51 51 51   51 51 51   51 51 51   51 51 51   51 51 51   51 51 51   51 51 51   51 51 51   51 51 51   51 51 51   51 51 51   
51 51 51   51 51 51   51 51 51   51 51 51   51 51 51   51 51 51   51 51 51   51 51 51   51 51 51   51 51 51   51 51 51   51 51 51   51 51 51   51 51 51   51 51 51   51 51 51   51 51 51   51 51 51   51 51 51   51 51 51   51 51 51   51 51 51   66 6 147   99 24 215   139 73 255   172 115 255   192 132 255   191 106 255   156 17 255   51 51 51   51 51 51   51 51 51   51 51 51   51 51 51   51 51 51   51 51 51   51 51 51   51 51 51   51 51 51   138 112 122   167 136 147   193 157 170   217 176 191   235 191 208   51 51 51   51 51 51   51 51 51   51 51 51   51 51 51   51 51 51   51 51 51   
51 51 51   51 51 51   51 51 51   51 51 51   51 51 51   51 51 51   51 51 51   51 51 51   255 255 255   255 255 255   255 255 255   255 255 255   51 51 51   51 51 51   51 51 51   51 51 51   51 51 51   51 51 51   51 51 51   51 51 51   51 51 51   36 3 80   66 8 147   106 54 215   149 115 255   188 171 255   216 206 255   227 206 255   213 155 255   161 28 255   51 51 51   51 51 51   51 51 51   51 51 51   51 51 51   51 51 51   51 51 51   54 44 48   91 74 81   122 99 107   149 121 131   174 142 154   200 163 176   221 179 195   240 195 212   51 51 51   51 51 51   51 51 51   51 51 51   51 51 51   51 51 51   
51 51 51   51 51 51   51 51 51   51 51 51   51 51 51   51 51 51   51 51 51   191 192 213   249 250 255   255 255 255   255 255 255   255 255 255   255 255 255   51 51 51   51 51 51   51 51 51   51 51 51   51 51 51   51 51 51   51 51 51   51 51 51   32 3 71   57 9 126   96 55 191   139 118 255   180 179 255   213 225 255   232 242 255   230 215 255   198 128 255   51 51 51   51 51 51   51 51 51   51 51 51   51 51 51   51 51 51   13 10 11   40 32 35   72 58 64   101 82 89   128 104 113   154 125 135   255 204 187   255 244 217   221 179 195   235 191 208   51 51 51   51 51 51   51 51 51   51 51 51   51 51 51   
51 51 51   51 51 51   51 51 51   51 51 51   51 51 51   51 51 51   84 84 94   162 163 181   216 217 241   255 255 255   255 255 255   255 255 255   255 255 255   255 255 255   51 51 51   51 51 51   51 51 51   51 51 51   51 51 51   51 51 51   8 0 19   20 2 46   43 4 96   75 36 153   116 93 218   156 153 255   191 203 255   214 230 255   220 221 255   201 160 255   145 31 255   51 51 51   168 52 93   255 87 156   255 111 200   51 51 51   13 10 11   18 15 16   50 41 44   79 64 69   105 85 93   130 106 115   165 133 140   255 204 187   200 163 176   217 176 191   51 51 51   51 51 51   51 51 51   51 51 51   51 51 51   
51 51 51   51 51 51   51 51 51   51 51 51   51 51 51   51 51 51   44 45 50   118 119 132   171 173 192   214 216 239   248 250 255   255 255 255   255 255 255   255 255 255   51 51 51   51 51 51   51 51 51   51 51 51   51 51 51   51 51 51   8 0 19   8 0 19   28 2 63   50 11 108   84 54 166   122 107 224   156 155 255   181 187 255   192 189 255   181 148 255   141 49 255   19 6 11   86 26 48   194 60 108   255 87 155   13 10 11   13 10 11   13 10 11   26 21 23   55 44 48   81 66 72   107 86 94   130 106 115   154 125 135   174 142 154   193 157 170   51 51 51   51 51 51   51 51 51   51 51 51   51 51 51   
51 51 51   51 51 51   51 51 51   51 51 51   51 51 51   51 51 51   19 19 22   63 64 71   118 119 132   161 162 180   196 198 219   223 225 250   241 243 255   247 249 255   215 216 240   51 51 51   51 51 51   51 51 51   255 118 169   255 150 216   8 0 19   8 0 19   8 0 19   205 78 38   255 106 53   255 127 63   255 143 71   255 153 76   152 134 255   148 107 255   119 34 254   19 6 11   19 6 11   85 26 47   169 52 94   13 10 11   13 10 11   13 10 11   13 10 11   29 24 26   56 46 50   81 66 72   89 153 26   109 187 31   126 217 36   142 244 41   157 255 45   171 255 49   51 51 51   51 51 51   51 51 51   
51 51 51   51 51 51   51 51 51   51 51 51   51 51 51   51 51 51   19 19 22   19 19 22   54 54 61   99 100 111   135 136 151   162 164 182   180 182 202   184 186 206   91 172 199   115 219 253   126 238 255   149 53 76   255 103 148   255 161 237   8 0 19   8 0 19   110 41 20   197 74 37   255 98 49   255 118 59   255 135 67   255 147 73   255 154 76   107 54 217   88 9 197   51 51 51   19 6 11   19 6 11   19 6 11   13 10 11   13 10 11   13 10 11   13 10 11   13 10 11   35 60 10   61 104 17   81 139 23   99 170 28   116 198 33   132 225 38   147 251 42   161 255 46   174 255 50   51 51 51   51 51 51   
51 51 51   51 51 51   51 51 51   51 51 51   51 51 51   51 51 51   51 51 51   19 19 22   19 19 22   19 19 22   63 64 71   91 91 101   107 108 120   80 152 176   103 196 227   120 228 255   133 251 255   140 255 255   138 255 255   24 8 12   24 8 12   8 0 19   86 32 16   163 61 30   223 84 42   255 104 52   255 138 75   255 179 105   255 143 71   67 11 148   51 51 51   51 51 51   51 51 51   51 51 51   51 51 51   51 51 51   13 10 11   13 10 11   13 10 11   9 16 2   29 49 8   50 86 14   69 119 20   87 149 25   104 178 30   119 204 34   138 232 39   164 255 44   162 255 47   174 255 50   51 51 51   
51 51 51   51 51 51   51 51 51   51 51 51   51 51 51   51 51 51   51 51 51   51 51 51   19 19 22   19 19 22   19 19 22   19 19 22   48 91 105   76 144 167   96 183 212   112 213 247   125 237 255   134 254 255   138 255 255   130 246 255   24 8 12   22 8 4   43 16 8   117 44 22   177 67 33   229 86 43   255 103 51   255 117 58   255 126 63   255 127 63   51 51 51   51 51 51   51 51 51   51 51 51   31 119 20   61 230 39   121 255 90   103 255 66   13 10 11   9 16 2   17 30 5   38 65 11   57 97 16   74 127 21   91 155 26   106 182 31   123 208 35   240 255 50   155 255 44   161 255 47   172 255 50   
51 51 51   51 51 51   51 51 51   51 51 51   51 51 51   51 51 51   51 51 51   51 51 51   51 51 51   51 51 51   19 19 22   7 14 16   39 74 86   65 122 142   84 159 185   100 189 219   112 213 247   124 243 255   128 242 255   127 240 255   24 8 12   22 8 4   22 8 4   63 23 11   123 46 23   175 66 33   219 83 41   255 96 48   255 106 53   255 107 53   51 51 51   51 51 51   51 51 51   5 21 3   14 55 9   42 160 27   73 250 49   121 255 90   9 16 2   9 16 2   9 16 2   24 42 7   43 74 12   60 104 17   77 132 22   92 158 27   107 184 31   122 209 35   136 232 39   148 253 43   159 255 46   
51 51 51   51 51 51   51 51 51   51 51 51   51 51 51   51 51 51   51 51 51   51 51 51   51 51 51   51 51 51   51 51 51   7 14 16   24 45 52   49 92 107   68 129 150   84 159 184   97 183 212   106 201 233   112 213 247   113 213 247   51 51 51   22 8 4   22 8 4   22 8 4   61 23 11   113 43 21   157 59 29   192 73 36   216 81 40   204 77 38   51 51 51   51 51 51   51 51 51   5 21 3   5 21 3   19 73 12   42 160 27   61 230 39   9 16 2   9 16 2   9 16 2   9 16 2   28 49 8   46 79 13   62 107 18   78 134 22   93 159 27   107 183 31   121 207 35   133 228 38   144 247 42   
51 51 51   51 51 51   51 51 51   51 51 51   51 51 51   51 51 51   51 51 51   51 51 51   51 51 51   51 51 51   2 23 10   7 14 16   7 14 16   29 55 64   49 93 107   65 123 142   78 147 170   87 165 192   93 177 205   7 14 16   51 51 51   51 51 51   22 8 4   22 8 4   22 8 4   42 15 7   85 32 16   119 45 22   135 51 25   51 51 51   51 51 51   51 51 51   51 51 51   51 51 51   5 21 3   5 21 3   14 55 9   31 119 20   9 16 2   9 16 2   9 16 2   9 16 2   9 16 2   31 53 9   47 81 13   63 108 18   78 133 22   92 158 26   105 181 30   118 202 34   128 220 37   
51 51 51   51 51 51   51 51 51   51 51 51   51 51 51   51 51 51   51 51 51   51 51 51   51 51 51   17 144 64   35 255 128   130 255 201   7 14 16   7 14 16   26 49 57   42 80 93   55 104 121   65 122 142   7 14 16   7 14 16   51 51 51   51 51 51   51 51 51   22 8 4   22 8 4   22 8 4   22 8 4   22 8 4   51 51 51   51 51 51   51 51 51   51 51 51   51 51 51   51 51 51   51 51 51   5 21 3   5 21 3   51 51 51   9 16 2   9 16 2   9 16 2   9 16 2   9 16 2   14 25 4   31 53 9   47 80 13   62 106 18   76 130 22   89 153 26   101 173 29   110 189 32   
51 51 51   51 51 51   51 51 51   51 51 51   51 51 51   51 51 51   51 51 51   51 51 51   51 51 51   7 62 28   24 197 88   34 255 125   7 14 16   7 14 16   7 14 16   15 28 33   28 53 62   7 14 16   7 14 16   7 14 16   51 51 51   51 51 51   51 51 51   51 51 51   51 51 51   22 8 4   51 51 51   51 51 51   51 51 51   51 51 51   51 51 51   51 51 51   51 51 51   51 51 51   51 51 51   51 51 51   51 51 51   51 51 51   9 16 2   9 16 2   9 16 2   9 16 2   9 16 2   9 16 2   14 24 4   30 51 8   45 77 13   59 101 17   72 123 20   83 142 24   51 51 51   
51 51 51   51 51 51   51 51 51   51 51 51   51 51 51   51 51 51   51 51 51   51 51 51   51 51 51   2 23 10   7 61 27   18 147 66   23 189 85   7 14 16   7 14 16   7 14 16   7 14 16   7 14 16   7 14 16   51 51 51   51 51 51   51 51 51   51 51 51   51 51 51   51 51 51   51 51 51   51 51 51   51 51 51   51 51 51   51 51 51   51 51 51   146 31 174   204 44 243   244 53 255   255 59 255   255 65 255   19 4 22   51 51 51   51 51 51   9 16 2   9 16 2   9 16 2   9 16 2   9 16 2   9 16 2   9 16 2   26 45 7   40 68 11   52 89 15   59 102 17   51 51 51   
51 51 51   51 51 51   51 51 51   51 51 51   51 51 51   51 51 51   51 51 51   51 51 51   51 51 51   51 51 51   2 23 10   2 23 10   2 23 10   51 51 51   51 51 51   51 51 51   51 51 51   51 51 51   51 51 51   51 51 51   51 51 51   51 51 51   51 51 51   51 51 51   51 51 51   51 51 51   51 51 51   51 51 51   51 51 51   51 51 51   19 4 22   19 4 22   19 4 22   19 4 22   255 59 255   255 65 255   255 70 255   19 4 22   19 4 22   51 51 51   9 16 2   9 16 2   9 16 2   9 16 2   9 16 2   9 16 2   9 16 2   18 30 5   26 44 7   51 51 51   51 51 51   
51 51 51   51 51 51   51 51 51   51 51 51   51 51 51   51 51 51   51 51 51   51 51 51   51 51 51   51 51 51   51 51 51   51 51 51   51 51 51   51 51 51   51 51 51   51 51 51   51 51 51   51 51 51   51 51 51   51 51 51   51 51 51   51 51 51   51 51 51   19 15 16   255 202 218   255 237 255   255 255 255   19 15 16   51 51 51   19 4 22   19 4 22   19 4 22   19 4 22   234 50 255   255 57 255   255 63 255   255 68 255   255 72 255   19 4 22   19 4 22   51 51 51   9 16 2   9 16 2   9 16 2   9 16 2   9 16 2   9 16 2   51 51 51   51 51 51   51 51 51   51 51 51   
51 51 51   51 51 51   51 51 51   51 51 51   51 51 51   51 51 51   51 51 51   51 51 51   51 51 51   51 51 51   51 51 51   51 51 51   51 51 51   51 51 51   51 51 51   51 51 51   51 51 51   51 51 51   8 10 13   8 10 13   51 51 51   51 51 51   134 105 114   203 160 172   255 201 217   255 238 255   255 255 255   255 255 255   19 4 22   19 4 22   19 4 22   149 32 178   186 40 221   219 47 255   248 53 255   255 60 255   255 113 255   255 76 255   255 72 255   19 4 22   51 51 51   51 51 51   51 51 51   51 51 51   51 51 51   51 51 51   51 51 51   51 51 51   51 51 51   51 51 51   51 51 51   
51 51 51   51 51 51   51 51 51   51 51 51   51 51 51   51 51 51   51 51 51   51 51 51   51 51 51   51 51 51   51 51 51   255 180 255   255 235 255   23 14 24   23 14 24   51 51 51   51 51 51   8 10 13   8 10 13   8 10 13   8 10 13   40 31 34   127 100 108   188 149 160   238 188 202   255 236 246   255 255 255   255 255 255   19 4 22   19 4 22   91 19 109   132 28 157   168 36 200   200 43 238   229 49 255   255 55 255   255 103 255   255 126 255   255 69 255   255 71 255   19 4 22   51 51 51   51 51 51   51 51 51   51 51 51   51 51 51   51 51 51   51 51 51   51 51 51   51 51 51   51 51 51   
51 51 51   51 51 51   51 51 51   51 51 51   51 51 51   51 51 51   51 51 51   51 51 51   51 51 51   51 51 51   146 93 154   255 172 255   255 221 255   255 255 255   23 14 24   23 14 24   8 10 13   70 91 118   102 132 172   124 161 209   149 182 241   26 20 22   105 82 89   164 129 139   212 167 180   255 205 218   255 255 255   255 255 255   19 4 22   19 4 22   71 15 84   111 24 132   147 31 175   179 38 213   208 45 247   234 51 255   255 56 255   255 61 255   255 64 255   255 67 255   255 68 255   51 51 51   51 51 51   51 51 51   51 51 51   51 51 51   51 51 51   51 51 51   51 51 51   51 51 51   51 51 51   
51 51 51   51 51 51   51 51 51   51 51 51   51 51 51   51 51 51   51 51 51   51 51 51   51 51 51   51 51 51   96 61 101   213 136 225   255 183 255   255 212 255   255 221 255   23 14 24   8 10 13   51 66 86   82 106 139   104 135 176   118 153 200   19 15 16   72 57 61   131 103 111   179 141 152   219 173 186   255 205 218   19 15 16   19 4 22   19 4 22   47 10 56   87 19 104   123 26 146   155 33 184   184 40 219   211 45 250   234 51 255   255 55 255   255 59 255   255 62 255   255 63 255   51 51 51   51 51 51   51 51 51   51 51 51   51 51 51   51 51 51   51 51 51   51 51 51   51 51 51   51 51 51   
51 51 51   51 51 51   51 51 51   51 51 51   51 51 51   51 51 51   51 51 51   51 51 51   51 51 51   51 51 51   23 14 24   120 76 127   197 125 207   242 154 254   251 160 255   23 14 24   8 10 13   22 29 37   54 70 91   76 99 129   90 116 152   19 15 16   30 23 25   90 71 76   138 109 118   19 15 16   19 15 16   19 15 16   19 4 22   19 4 22   19 4 22   60 13 71   96 20 114   128 27 153   158 34 188   184 40 219   208 45 247   229 49 255   246 53 255   255 56 255   255 56 255   51 51 51   51 51 51   51 51 51   51 51 51   51 51 51   51 51 51   51 51 51   51 51 51   51 51 51   51 51 51   
51 51 51   51 51 51   51 51 51   51 51 51   51 51 51   51 51 51   51 51 51   51 51 51   51 51 51   51 51 51   51 51 51   23 14 24   64 41 67   106 67 111   90 57 95   51 51 51   51 51 51   8 10 13   15 19 25   38 49 64   49 64 83   19 15 16   19 15 16   39 31 33   19 15 16   19 15 16   19 15 16   19 15 16   19 4 22   19 4 22   19 4 22   29 6 34   66 14 78   99 21 117   128 27 153   155 33 184   178 38 212   199 43 237   216 46 255   226 49 255   221 48 255   51 51 51   51 51 51   51 51 51   51 51 51   51 51 51   51 51 51   51 51 51   51 51 51   51 51 51   51 51 51   
51 51 51   51 51 51   51 51 51   51 51 51   51 51 51   51 51 51   51 51 51   51 51 51   51 51 51   51 51 51   51 51 51   51 51 51   51 51 51   51 51 51   51 51 51   51 51 51   51 51 51   51 51 51   8 10 13   8 10 13   51 51 51   51 51 51   19 15 16   19 15 16   19 15 16   19 15 16   19 15 16   19 15 16   19 4 22   19 4 22   19 4 22   19 4 22   32 6 38   65 14 78   95 20 113   122 26 145   145 31 173   165 35 196   180 39 214   187 40 223   51 51 51   51 51 51   51 51 51   51 51 51   51 51 51   51 51 51   51 51 51   51 51 51   51 51 51   51 51 51   51 51 51   
51 51 51   51 51 51   51 51 51   51 51 51   51 51 51   51 51 51   51 51 51   51 51 51   51 51 51   51 51 51   51 51 51   51 51 51   51 51 51   51 51 51   51 51 51   51 51 51   51 51 51   51 51 51   51 51 51   51 51 51   51 51 51   51 51 51   51 51 51   19 15 16   146 203 152   177 246 184   192 255 200   19 15 16   51 51 51   19 4 22   19 4 22   19 4 22   19 4 22   27 5 32   57 12 68   84 18 100   107 23 127   125 27 149   137 29 163   130 28 155   51 51 51   51 51 51   51 51 51   51 51 51   51 51 51   51 51 51   51 51 51   51 51 51   51 51 51   51 51 51   51 51 51   
51 51 51   102 64 255   118 74 255   127 80 255   131 82 255   131 82 255   122 77 255   51 51 51   51 51 51   51 51 51   51 51 51   51 51 51   51 51 51   51 51 51   51 51 51   51 51 51   51 51 51   51 51 51   51 51 51   51 51 51   51 51 51   51 51 51   101 141 105   148 206 154   180 251 188   205 255 214   224 255 233   236 255 246   236 255 246   51 51 51   19 4 22   19 4 22   19 4 22   19 4 22   19 4 22   39 8 46   60 13 72   75 16 89   73 15 87   51 51 51   51 51 51   51 51 51   51 51 51   51 51 51   51 51 51   51 51 51   51 51 51   51 51 51   51 51 51   51 51 51   51 51 51   
109 68 255   123 77 255   134 84 255   141 89 255   146 92 255   147 92 255   145 91 255   137 86 255   109 68 255   51 51 51   51 51 51   51 51 51   51 51 51   51 51 51   51 51 51   51 51 51   51 51 51   3 4 19   3 4 19   3 4 19   51 51 51   70 98 73   121 169 127   158 220 165   187 255 195   212 255 220   234 255 242   247 255 255   252 255 255   248 255 255   51 51 51   19 4 22   25 5 18   255 64 203   255 82 255   255 96 255   255 104 255   51 51 51   51 51 51   51 51 51   51 51 51   51 51 51   51 51 51   35 27 52   74 57 111   104 80 155   129 100 193   151 117 226   169 131 253   181 141 255   51 51 51   
119 75 255   131 82 255   140 88 255   147 92 255   151 95 255   153 96 255   152 96 255   148 93 255   136 85 255   51 51 51   51 51 51   51 51 51   51 51 51   51 51 51   51 51 51   51 51 51   51 51 51   3 4 19   3 4 19   3 4 19   16 23 17   82 114 85   124 173 130   158 220 165   186 255 193   216 255 221   255 255 255   255 255 255   255 255 255   255 255 255   240 255 250   47 11 35   173 40 129   255 62 198   255 80 254   255 94 255   255 104 255   255 109 255   51 51 51   51 51 51   51 51 51   51 51 51   10 8 16   40 31 60   72 56 109   100 77 150   124 96 187   146 113 219   166 129 249   183 142 255   195 151 255   
123 77 255   133 84 255   142 89 255   149 95 255   157 111 255   157 104 255   154 97 255   150 94 255   142 89 255   123 77 255   51 51 51   51 51 51   51 51 51   51 51 51   51 51 51   51 51 51   51 51 51   3 4 19   3 4 19   3 4 19   26 37 27   80 112 84   120 167 125   152 211 158   179 249 186   214 255 217   255 255 255   255 255 255   255 255 255   254 255 255   245 255 255   33 7 24   148 34 110   239 56 177   255 73 232   255 89 255   255 124 255   255 105 255   51 51 51   51 51 51   51 51 51   10 8 16   10 8 16   34 26 51   65 50 97   91 71 137   116 90 173   138 107 206   157 122 236   175 136 255   190 147 255   
122 77 255   132 83 255   140 89 255   160 131 255   216 255 255   187 195 255   153 99 255   148 93 255   141 89 255   126 79 255   51 51 51   51 51 51   51 51 51   51 51 51   51 51 51   51 51 51   51 51 51   2 15 1   2 15 1   2 15 1   21 30 22   72 100 75   110 153 115   141 196 147   168 233 175   197 255 202   250 255 240   255 255 255   255 255 255   246 255 254   237 255 247   25 5 18   107 25 79   197 46 146   255 63 201   255 78 247   255 89 255   255 96 255   25 5 18   51 51 51   51 51 51   10 8 16   10 8 16   24 18 36   54 41 80   80 62 120   104 81 156   126 98 189   146 113 219   195 255 255   180 140 255   
119 74 255   128 80 255   136 86 255   152 119 255   191 220 255   170 159 255   147 95 255   143 90 255   136 86 255   123 77 255   82 52 221   51 51 51   51 51 51   51 51 51   51 51 51   51 51 51   2 15 1   2 15 1   2 15 1   13 19 14   13 19 14   58 81 60   96 133 100   127 177 132   153 213 159   176 245 183   204 255 208   232 255 230   236 255 238   228 255 236   223 255 232   184 255 192   50 11 37   142 33 105   217 51 161   255 65 207   255 76 242   25 5 18   25 5 18   51 51 51   51 51 51   10 8 16   10 8 16   10 8 16   40 31 60   67 52 100   91 70 136   113 87 169   133 103 200   152 118 227   168 130 252   
113 71 255   122 76 255   129 81 255   135 86 255   140 93 255   140 90 255   139 87 255   136 85 255   128 81 255   114 72 255   73 46 197   51 51 51   51 51 51   51 51 51   51 51 51   51 51 51   2 15 1   2 15 1   2 15 1   2 15 1   13 19 14   39 55 41   77 108 81   109 152 113   135 188 141   157 219 164   176 245 184   193 255 200   203 255 211   207 255 215   202 255 211   25 5 18   25 5 18   72 16 53   149 35 111   211 49 157   255 60 191   25 5 18   51 51 51   51 51 51   51 51 51   10 8 16   10 8 16   10 8 16   24 19 37   51 40 77   76 59 114   98 76 147   118 92 177   137 106 205   153 119 230   
105 66 255   114 71 255   120 76 255   126 79 255   129 81 255   130 82 255   129 81 255   125 78 255   117 73 255   101 63 255   224 255 70   255 255 103   255 255 115   255 255 101   51 51 51   2 15 1   2 15 1   2 15 1   2 15 1   2 15 1   13 19 14   13 19 14   55 76 57   87 121 90   113 158 118   136 189 142   154 215 161   169 235 176   179 249 186   182 254 190   174 243 182   51 51 51   25 5 18   25 5 18   60 14 44   122 28 90   25 5 18   25 5 18   51 51 51   51 51 51   51 51 51   10 8 16   10 8 16   10 8 16   10 8 16   34 26 51   59 45 88   81 63 122   102 79 152   120 93 180   137 106 205   
95 59 254   103 65 255   110 69 255   115 72 255   117 74 255   118 74 255   116 73 255   112 70 255   102 64 255   81 51 219   255 255 82   255 255 108   255 255 125   255 255 115   51 51 51   2 15 1   2 15 1   2 15 1   2 15 1   2 15 1   13 19 14   13 19 14   26 36 27   60 83 62   87 122 91   110 153 115   128 179 134   142 198 148   151 210 157   151 211 158   131 182 136   51 51 51   51 51 51   51 51 51   25 5 18   25 5 18   51 51 51   51 51 51   51 51 51   51 51 51   51 51 51   51 51 51   10 8 16   10 8 16   10 8 16   10 8 16   39 30 59   62 48 93   83 64 124   102 79 152   118 91 177   
82 51 219   90 57 242   97 61 255   101 63 255   103 65 255   104 65 255   101 63 255   94 59 253   81 51 218   44 28 120   232 255 73   255 255 97   255 255 108   255 255 103   51 51 51   51 51 51   2 15 1   2 15 1   2 15 1   2 15 1   2 15 1   13 19 14   13 19 14   26 36 27   55 77 57   78 109 81   96 134 100   109 152 113   114 159 119   106 148 111   51 51 51   51 51 51   51 51 51   51 51 51   51 51 51   51 51 51   51 51 51   51 51 51   51 51 51   51 51 51   51 51 51   51 51 51   10 8 16   10 8 16   10 8 16   10 8 16   17 13 26   41 31 61   62 48 92   80 62 120   96 74 144   
65 41 176   74 46 199   81 50 216   85 53 227   86 54 232   85 53 229   81 51 217   71 44 191   48 30 130   21 23 6   157 179 49   232 255 73   21 23 6   21 23 6   51 51 51   51 51 51   2 15 1   2 15 1   2 15 1   2 15 1   2 15 1   2 15 1   13 19 14   13 19 14   13 19 14   36 51 38   54 75 56   63 88 65   57 80 60   51 51 51   51 51 51   51 51 51   51 51 51   51 51 51   51 51 51   51 51 51   51 51 51   51 51 51   51 51 51   51 51 51   51 51 51   51 51 51   4 5 8   10 8 16   10 8 16   10 8 16   10 8 16   15 11 22   36 28 54   54 42 81   68 52 101   
44 28 120   54 34 145   60 38 162   64 40 171   64 40 173   61 38 165   53 33 143   33 21 90   51 51 51   51 51 51   21 23 6   21 23 6   21 23 6   51 51 51   51 51 51   51 51 51   51 51 51   2 15 1   2 15 1   2 15 1   2 15 1   51 51 51   3 63 82   7 132 172   10 171 223   11 199 255   12 217 255   13 225 255   12 207 255   51 51 51   51 51 51   51 51 51   51 51 51   51 51 51   51 51 51   51 51 51   51 51 51   51 51 51   51 51 51   51 51 51   51 51 51   4 5 8   4 5 8   4 5 8   4 5 8   10 8 16   10 8 16   10 8 16   10 8 16   14 10 21   51 51 51   
15 9 40   26 16 70   32 20 87   35 22 94   33 21 89   25 15 67   51 51 51   51 51 51   51 51 51   51 51 51   51 51 51   51 51 51   51 51 51   51 51 51   51 51 51   51 51 51   51 51 51   51 51 51   51 51 51   51 51 51   51 51 51   3 61 80   7 123 161   9 165 215   11 197 255   13 223 255   14 242 255   15 255 255   15 255 255   14 248 255   51 51 51   51 51 51   51 51 51   51 51 51   51 51 51   51 51 51   51 51 51   51 51 51   51 51 51   51 51 51   4 5 8   4 5 8   4 5 8   4 5 8   4 5 8   4 5 8   96 110 153   86 108 149   51 51 51   51 51 51   51 51 51   
51 51 51   51 51 51   8 5 22   51 51 51   51 51 51   51 51 51   51 51 51   51 51 51   51 51 51   51 51 51   51 51 51   51 51 51   51 51 51   51 51 51   51 51 51   51 51 51   51 51 51   51 51 51   51 51 51   51 51 51   1 23 30   5 96 126   8 143 187   10 180 234   12 209 255   13 234 255   14 253 255   15 255 255   16 255 255   16 255 255   15 254 255   51 51 51   51 51 51   51 51 51   51 51 51   51 51 51   51 51 51   51 51 51   51 51 51   51 51 51   4 5 8   4 5 8   4 5 8   4 5 8   4 5 8   115 110 155   255 202 255   84 105 145   81 102 141   51 51 51   51 51 51   
51 51 51   51 51 51   51 51 51   51 51 51   51 51 51   51 51 51   51 51 51   51 51 51   51 51 51   51 51 51   51 51 51   51 51 51   51 51 51   51 51 51   51 51 51   51 51 51   51 51 51   51 51 51   51 51 51   51 51 51   3 54 71   6 110 144   9 152 199   11 186 243   12 214 255   14 238 255   15 255 255   16 255 255   16 255 255   16 255 255   16 255 255   51 51 51   51 51 51   51 51 51   51 51 51   51 51 51   51 51 51   51 51 51   51 51 51   51 51 51   4 5 8   4 5 8   4 5 8   33 41 57   47 59 82   61 75 104   92 100 140   78 98 135   79 100 138   51 51 51   51 51 51   
51 51 51   51 51 51   51 51 51   51 51 51   51 51 51   51 51 51   51 51 51   51 51 51   51 51 51   51 51 51   51 51 51   51 51 51   51 51 51   51 51 51   51 51 51   51 51 51   51 51 51   51 51 51   51 51 51   0 15 20   3 65 85   6 116 151   9 155 202   11 187 244   12 214 255   14 237 255   18 255 255   57 255 255   20 255 255   17 255 255   16 255 255   15 255 255   51 51 51   51 51 51   51 51 51   40 66 91   111 183 254   133 220 255   51 51 51   51 51 51   4 5 8   4 5 8   7 8 12   24 30 42   38 48 67   51 64 89   61 77 107   69 87 120   71 89 124   51 51 51   51 51 51   
51 51 51   51 51 51   51 51 51   51 51 51   51 51 51   51 51 51   51 51 51   51 51 51   51 51 51   51 51 51   51 51 51   51 51 51   51 51 51   51 51 51   51 51 51   51 51 51   51 51 51   51 51 51   51 51 51   0 15 20   4 68 88   6 115 150   9 153 199   10 184 240   12 211 255   13 234 255   28 255 255   228 255 255   61 255 255   16 255 255   16 255 255   15 255 255   51 51 51   51 51 51   9 16 22   66 109 151   127 209 255   166 255 255   170 255 255   51 51 51   51 51 51   4 5 8   4 5 8   13 16 22   28 35 48   40 51 70   51 64 89   58 73 101   55 69 96   51 51 51   51 51 51   
51 51 51   51 51 51   51 51 51   51 51 51   51 51 51   51 51 51   51 51 51   51 51 51   51 51 51   51 51 51   51 51 51   51 51 51   51 51 51   51 51 51   51 51 51   51 51 51   51 51 51   51 51 51   51 51 51   0 15 20   3 64 84   6 110 143   8 147 192   10 178 232   12 204 255   13 227 255   16 246 255   64 255 255   31 255 255   16 255 255   16 255 255   15 255 255   51 51 51   51 51 51   9 16 22   56 93 129   116 192 255   211 255 255   177 255 255   51 51 51   51 51 51   51 51 51   4 5 8   4 5 8   14 18 25   27 34 47   37 47 65   42 53 74   51 51 51   51 51 51   51 51 51   
51 51 51   51 51 51   51 51 51   51 51 51   51 51 51   51 51 51   51 51 51   51 51 51   51 51 51   51 51 51   51 51 51   51 51 51   51 51 51   51 51 51   51 51 51   51 51 51   51 51 51   51 51 51   51 51 51   0 15 20   3 55 72   5 101 132   8 138 179   9 168 219   11 195 253   12 217 255   13 235 255   15 251 255   15 255 255   15 255 255   15 255 255   15 254 255   51 51 51   51 51 51   9 16 22   28 47 65   91 150 208   134 221 255   154 255 255   51 51 51   51 51 51   51 51 51   51 51 51   4 5 8   4 5 8   7 9 12   12 15 21   51 51 51   51 51 51   51 51 51   51 51 51   
51 51 51   51 51 51   51 51 51   51 51 51   51 51 51   51 51 51   51 51 51   51 51 51   51 51 51   51 51 51   51 51 51   51 51 51   51 51 51   51 51 51   51 51 51   51 51 51   51 51 51   51 51 51   51 51 51   0 15 20   2 42 55   5 88 115   7 125 163   9 156 203   10 182 237   12 204 255   13 223 255   14 238 255   14 248 255   15 254 255   14 253 255   14 237 255   51 51 51   51 51 51   51 51 51   9 16 22   48 79 110   92 152 210   100 166 230   51 51 51   51 51 51   51 51 51   51 51 51   51 51 51   51 51 51   51 51 51   51 51 51   51 51 51   51 51 51   51 51 51   51 51 51   
51 51 51   51 51 51   51 51 51   51 51 51   51 51 51   51 51 51   51 51 51   51 51 51   51 51 51   51 51 51   51 51 51   51 51 51   51 51 51   51 51 51   51 51 51   51 51 51   51 51 51   51 51 51   51 51 51   0 15 20   1 23 30   4 71 93   6 109 142   8 140 183   9 167 217   11 189 246   12 207 255   13 222 255   13 232 255   14 237 255   13 233 255   12 211 255   51 51 51   51 51 51   51 51 51   51 51 51   51 51 51   51 51 51   51 51 51   51 51 51   51 51 51   51 51 51   51 51 51   51 51 51   51 51 51   51 51 51   51 51 51   51 51 51   51 51 51   51 51 51   51 51 51   
