P3
51 51
255
94 44 115   107 49 130   117 54 143   127 59 155   135 63 165   143 66 174   149 69 182   154 72 188   158 73 193   158 74 193   51 51 51   51 51 51   51 51 51   51 51 51   51 51 51   51 51 51   23 16 17   23 16 17   23 16 17   23 16 17   44 31 32   72 51 52   98 69 71   122 86 88   145 103 105   167 118 121   189 133 137   209 148 152   229 162 166   249 176 180   255 189 194   255 202 207   255 213 219   255 224 230   255 228 234   51 51 51   51 51 51   51 51 51   51 51 51   51 51 51   51 51 51   51 51 51   51 51 51   51 51 51   51 51 51   51 51 51   51 51 51   51 51 51   51 51 51   51 51 51   51 51 51   
85 39 104   97 45 119   108 50 132   117 54 143   126 58 154   134 62 164   195 78 251   155 70 192   150 70 183   152 71 186   151 70 184   51 51 51   51 51 51   51 51 51   51 51 51   51 51 51   23 16 17   23 16 17   23 16 17   23 16 17   23 16 17   46 32 33   72 51 52   96 68 70   120 85 87   142 100 103   164 116 119   184 130 134   204 144 148   224 158 162   242 171 176   255 184 188   255 195 200   255 205 211   255 209 215   51 51 51   51 51 51   51 51 51   51 51 51   51 51 51   51 51 51   51 51 51   51 51 51   51 51 51   51 51 51   51 51 51   51 51 51   51 51 51   51 51 51   51 51 51   51 51 51   
74 34 90   86 40 105   97 45 118   107 49 130   115 53 141   123 57 150   137 62 170   155 68 194   140 65 171   143 67 175   144 67 175   138 64 168   51 51 51   51 51 51   51 51 51   51 51 51   23 16 17   23 16 17   23 16 17   23 16 17   23 16 17   23 16 17   44 31 32   69 49 50   93 66 67   116 82 84   137 97 100   158 112 115   178 126 129   197 139 143   216 153 156   233 165 169   249 176 181   255 186 190   255 186 190   51 51 51   51 51 51   51 51 51   51 51 51   51 51 51   51 51 51   51 51 51   51 51 51   51 51 51   51 51 51   51 51 51   51 51 51   51 51 51   51 51 51   51 51 51   51 51 51   
62 29 75   74 34 90   85 39 104   95 44 115   103 48 126   111 52 136   118 55 144   124 58 151   129 60 157   132 61 162   134 62 163   131 61 160   51 51 51   51 51 51   51 51 51   51 51 51   51 51 51   23 16 17   23 16 17   23 16 17   23 16 17   23 16 17   23 16 17   41 29 30   65 46 47   88 62 64   110 78 80   131 92 95   151 107 109   170 120 123   188 133 136   205 145 149   221 156 160   233 164 169   51 51 51   51 51 51   51 51 51   51 51 51   51 51 51   51 51 51   51 51 51   51 51 51   51 51 51   51 51 51   51 51 51   51 51 51   51 51 51   51 51 51   51 51 51   51 51 51   51 51 51   
48 22 59   61 28 74   72 33 87   82 38 100   90 42 110   98 46 120   105 49 128   111 52 136   116 54 142   120 56 147   122 57 149   120 56 147   103 48 126   51 51 51   51 51 51   51 51 51   51 51 51   23 16 17   23 16 17   23 16 17   23 16 17   23 16 17   23 16 17   23 16 17   36 25 26   59 41 43   81 57 59   102 72 74   122 86 88   141 100 102   159 112 115   175 124 127   190 134 138   199 141 145   51 51 51   51 51 51   51 51 51   51 51 51   51 51 51   51 51 51   51 51 51   51 51 51   51 51 51   51 51 51   51 51 51   51 51 51   51 51 51   51 51 51   51 51 51   51 51 51   51 51 51   
33 15 40   46 21 56   57 26 70   67 31 82   76 35 93   84 39 103   91 42 112   98 45 119   103 48 125   106 49 130   108 50 132   107 50 131   96 44 117   51 51 51   51 51 51   51 51 51   51 51 51   23 16 17   23 16 17   23 16 17   23 16 17   23 16 17   23 16 17   23 16 17   23 16 17   23 16 17   50 35 36   71 50 52   91 64 66   110 78 80   128 90 93   143 101 104   156 110 113   160 113 116   51 51 51   51 51 51   51 51 51   51 51 51   51 51 51   51 51 51   51 51 51   51 51 51   51 51 51   51 51 51   51 51 51   51 51 51   51 51 51   51 51 51   51 51 51   51 51 51   51 51 51   
16 7 19   29 13 36   41 19 50   52 24 63   61 28 74   69 32 84   76 35 93   82 38 101   87 41 107   91 42 111   93 43 113   92 42 112   80 37 98   51 51 51   51 51 51   51 51 51   51 51 51   51 51 51   23 16 17   23 16 17   23 16 17   23 16 17   23 16 17   23 16 17   23 16 17   23 16 17   23 16 17   39 27 28   59 41 42   77 54 56   94 66 68   108 76 78   118 83 85   51 51 51   51 51 51   51 51 51   51 51 51   51 51 51   51 51 51   51 51 51   51 51 51   51 51 51   51 51 51   51 51 51   51 51 51   51 51 51   51 51 51   51 51 51   51 51 51   51 51 51   51 51 51   
8 4 10   11 5 14   24 11 29   35 16 42   44 20 54   52 24 64   60 28 73   66 30 80   71 33 87   74 34 91   76 35 93   74 34 90   59 27 72   51 51 51   51 51 51   51 51 51   51 51 51   51 51 51   23 16 17   23 16 17   23 16 17   23 16 17   23 16 17   23 16 17   23 16 17   23 16 17   23 16 17   23 16 17   23 16 17   41 29 29   56 40 41   68 48 49   66 46 48   51 51 51   51 51 51   51 51 51   51 51 51   51 51 51   51 51 51   51 51 51   51 51 51   51 51 51   51 51 51   51 51 51   51 51 51   51 51 51   51 51 51   51 51 51   51 51 51   51 51 51   51 51 51   
8 4 10   8 4 10   8 4 10   16 7 19   25 12 31   34 16 42   41 19 51   48 22 58   53 24 64   56 26 68   56 26 69   53 24 64   51 51 51   51 51 51   51 51 51   51 51 51   51 51 51   51 51 51   51 51 51   23 16 17   23 16 17   23 16 17   23 16 17   23 16 17   23 16 17   23 16 17   23 16 17   23 16 17   23 16 17   23 16 17   23 16 17   23 16 17   51 51 51   51 51 51   51 51 51   51 51 51   51 51 51   51 51 51   51 51 51   51 51 51   51 51 51   51 51 51   51 51 51   51 51 51   51 51 51   51 51 51   51 51 51   51 51 51   51 51 51   51 51 51   51 51 51   
8 4 10   8 4 10   8 4 10   8 4 10   8 4 10   14 6 17   21 10 26   27 12 33   32 15 39   34 16 42   34 15 41   8 4 10   51 51 51   51 51 51   51 51 51   51 51 51   51 51 51   51 51 51   51 51 51   51 51 51   23 16 17   23 16 17   23 16 17   23 16 17   23 16 17   23 16 17   23 16 17   23 16 17   23 16 17   23 16 17   23 16 17   51 51 51   51 51 51   51 51 51   51 51 51   51 51 51   51 51 51   51 51 51   62 78 64   128 160 131   183 228 187   230 255 234   51 51 51   51 51 51   51 51 51   51 51 51   51 51 51   51 51 51   51 51 51   51 51 51   51 51 51   
51 51 51   8 4 10   8 4 10   8 4 10   8 4 10   8 4 10   8 4 10   8 4 10   8 4 10   8 4 10   8 4 10   51 51 51   51 51 51   51 51 51   51 51 51   51 51 51   51 51 51   51 51 51   51 51 51   51 51 51   51 51 51   51 51 51   23 16 17   23 16 17   23 16 17   23 16 17   23 16 17   23 16 17   23 16 17   51 51 51   51 51 51   51 51 51   51 51 51   51 51 51   51 51 51   51 51 51   51 51 51   13 16 13   13 16 13   81 101 83   136 169 139   183 228 187   51 51 51   51 51 51   51 51 51   51 51 51   51 51 51   51 51 51   51 51 51   51 51 51   51 51 51   
51 51 51   51 51 51   8 4 10   8 4 10   8 4 10   8 4 10   8 4 10   8 4 10   8 4 10   8 4 10   51 51 51   51 51 51   51 51 51   51 51 51   51 51 51   51 51 51   51 51 51   51 51 51   51 51 51   51 51 51   51 51 51   51 51 51   51 51 51   51 51 51   51 51 51   51 51 51   51 51 51   51 51 51   51 51 51   51 51 51   51 51 51   51 51 51   51 51 51   51 51 51   51 51 51   51 51 51   51 51 51   13 16 13   13 16 13   27 33 27   81 101 83   128 160 131   51 51 51   51 51 51   51 51 51   51 51 51   51 51 51   51 51 51   51 51 51   51 51 51   51 51 51   
51 51 51   51 51 51   51 51 51   51 51 51   8 4 10   8 4 10   8 4 10   8 4 10   51 51 51   51 51 51   51 51 51   51 51 51   51 51 51   51 51 51   51 51 51   51 51 51   51 51 51   51 51 51   51 51 51   51 51 51   51 51 51   51 51 51   51 51 51   51 51 51   51 51 51   51 51 51   51 51 51   51 51 51   51 51 51   51 51 51   51 51 51   51 51 51   51 51 51   51 51 51   51 51 51   51 51 51   51 51 51   13 16 13   13 16 13   13 16 13   13 16 13   62 78 64   51 51 51   51 51 51   51 51 51   51 51 51   51 51 51   51 51 51   51 51 51   51 51 51   51 51 51   
51 51 51   51 51 51   51 51 51   51 51 51   51 51 51   51 51 51   51 51 51   51 51 51   51 51 51   51 51 51   51 51 51   51 51 51   51 51 51   51 51 51   51 51 51   51 51 51   51 51 51   51 51 51   51 51 51   51 51 51   51 51 51   51 51 51   51 51 51   51 51 51   51 51 51   51 51 51   51 51 51   51 51 51   51 51 51   51 51 51   51 51 51   51 51 51   51 51 51   51 51 51   51 51 51   51 51 51   51 51 51   51 51 51   13 16 13   13 16 13   13 16 13   51 51 51   51 51 51   51 51 51   51 51 51   51 51 51   51 51 51   51 51 51   51 51 51   51 51 51   51 51 51   
51 51 51   51 51 51   51 51 51   51 51 51   51 51 51   51 51 51   51 51 51   51 51 51   51 51 51   51 51 51   51 51 51   51 51 51   51 51 51   51 51 51   51 51 51   51 51 51   51 51 51   51 51 51   51 51 51   51 51 51   51 51 51   51 51 51   51 51 51   51 51 51   51 51 51   51 51 51   51 51 51   51 51 51   51 51 51   51 51 51   51 51 51   51 51 51   51 51 51   51 51 51   51 51 51   51 51 51   51 51 51   51 51 51   51 51 51   51 51 51   51 51 51   51 51 51   51 51 51   51 51 51   51 51 51   51 51 51   51 51 51   51 51 51   51 51 51   51 51 51   51 51 51   
51 51 51   51 51 51   51 51 51   51 51 51   51 51 51   51 51 51   51 51 51   51 51 51   51 51 51   51 51 51   51 51 51   51 51 51   51 51 51   51 51 51   51 51 51   51 51 51   51 51 51   51 51 51   51 51 51   51 51 51   51 51 51   51 51 51   51 51 51   51 51 51   51 51 51   51 51 51   51 51 51   51 51 51   51 51 51   51 51 51   51 51 51   51 51 51   51 51 51   51 51 51   51 51 51   51 51 51   51 51 51   51 51 51   51 51 51   51 51 51   51 51 51   51 51 51   51 51 51   51 51 51   51 51 51   51 51 51   51 51 51   51 51 51   51 51 51   51 51 51   51 51 51   
51 51 51   51 51 51   51 51 51   51 51 51   51 51 51   51 51 51   51 51 51   51 51 51   51 51 51   51 51 51   51 51 51   51 51 51   51 51 51   51 51 51   51 51 51   51 51 51   51 51 51   51 51 51   51 51 51   51 51 51   51 51 51   51 51 51   51 51 51   51 51 51   51 51 51   51 51 51   51 51 51   51 51 51   51 51 51   51 51 51   51 51 51   51 51 51   51 51 51   51 51 51   51 51 51   51 51 51   51 51 51   51 51 51   51 51 51   51 51 51   51 51 51   51 51 51   51 51 51   51 51 51   51 51 51   51 51 51   51 51 51   51 51 51   51 51 51   51 51 51   51 51 51   
51 51 51   51 51 51   51 51 51   51 51 51   51 51 51   51 51 51   51 51 51   51 51 51   51 51 51   51 51 51   51 51 51   51 51 51   51 51 51   51 51 51   51 51 51   51 51 51   51 51 51   51 51 51   51 51 51   51 51 51   51 51 51   51 51 51   51 51 51   51 51 51   51 51 51   51 51 51   51 51 51   51 51 51   51 51 51   51 51 51   51 51 51   51 51 51   51 51 51   51 51 51   51 51 51   51 51 51   51 51 51   51 51 51   51 51 51   51 51 51   51 51 51   51 51 51   51 51 51   51 51 51   51 51 51   51 51 51   51 51 51   51 51 51   51 51 51   51 51 51   51 51 51   
51 51 51   51 51 51   51 51 51   51 51 51   51 51 51   51 51 51   51 51 51   51 51 51   51 51 51   51 51 51   51 51 51   51 51 51   51 51 51   51 51 51   51 51 51   51 51 51   51 51 51   51 51 51   51 51 51   51 51 51   51 51 51   51 51 51   51 51 51   51 51 51   51 51 51   51 51 51   51 51 51   51 51 51   51 51 51   51 51 51   51 51 51   51 51 51   51 51 51   51 51 51   51 51 51   51 51 51   51 51 51   51 51 51   51 51 51   51 51 51   51 51 51   51 51 51   51 51 51   51 51 51   51 51 51   51 51 51   51 51 51   51 51 51   51 51 51   51 51 51   51 51 51   
51 51 51   51 51 51   51 51 51   51 51 51   51 51 51   51 51 51   51 51 51   51 51 51   51 51 51   51 51 51   51 51 51   51 51 51   51 51 51   51 51 51   51 51 51   51 51 51   51 51 51   51 51 51   51 51 51   51 51 51   51 51 51   51 51 51   51 51 51   51 51 51   51 51 51   51 51 51   51 51 51   51 51 51   51 51 51   51 51 51   51 51 51   51 51 51   51 51 51   51 51 51   51 51 51   51 51 51   51 51 51   51 51 51   51 51 51   51 51 51   51 51 51   51 51 51   130 99 126   172 130 167   207 157 200   238 180 231   255 202 255   255 221 255   255 239 255   255 250 255   51 51 51   
51 51 51   51 51 51   51 51 51   51 51 51   51 51 51   51 51 51   51 51 51   51 51 51   51 51 51   51 51 51   51 51 51   51 51 51   51 51 51   51 51 51   51 51 51   51 51 51   51 51 51   51 51 51   51 51 51   51 51 51   51 51 51   51 51 51   51 51 51   51 51 51   51 51 51   51 51 51   51 51 51   51 51 51   51 51 51   51 51 51   51 51 51   51 51 51   51 51 51   51 51 51   51 51 51   51 51 51   51 51 51   51 51 51   51 51 51   51 51 51   22 16 21   84 64 82   126 96 123   163 123 158   195 148 189   225 171 219   253 192 246   255 212 255   255 230 255   255 247 255   255 255 255   
51 51 51   51 51 51   51 51 51   51 51 51   51 51 51   51 51 51   51 51 51   51 51 51   51 51 51   51 51 51   51 51 51   51 51 51   51 51 51   51 51 51   51 51 51   51 51 51   51 51 51   51 51 51   51 51 51   51 51 51   51 51 51   51 51 51   51 51 51   123 186 69   190 255 106   230 255 129   255 255 143   255 255 144   51 51 51   51 51 51   51 51 51   51 51 51   51 51 51   51 51 51   51 51 51   51 51 51   51 51 51   51 51 51   51 51 51   51 51 51   28 21 27   74 56 72   113 86 110   148 112 143   179 136 174   209 159 203   237 180 230   255 200 255   255 221 255   255 235 255   255 250 255   
51 51 51   51 51 51   51 51 51   51 51 51   51 51 51   51 51 51   51 51 51   51 51 51   51 51 51   51 51 51   51 51 51   51 51 51   51 51 51   51 51 51   51 51 51   51 51 51   51 51 51   51 51 51   51 51 51   51 51 51   51 51 51   51 51 51   83 125 46   151 227 84   197 255 110   233 255 130   255 255 146   255 255 156   255 255 157   51 51 51   51 51 51   51 51 51   51 51 51   51 51 51   51 51 51   51 51 51   51 51 51   51 51 51   51 51 51   19 14 18   19 14 18   59 44 57   96 73 93   130 99 126   161 122 157   190 145 185   218 165 212   244 186 237   255 255 255   255 255 255   255 237 255   
51 51 51   51 51 51   51 51 51   51 51 51   51 51 51   51 51 51   51 51 51   51 51 51   51 51 51   51 51 51   7 25 8   7 25 8   51 51 51   51 51 51   51 51 51   51 51 51   51 51 51   51 51 51   51 51 51   51 51 51   51 51 51   15 23 8   86 130 48   142 214 79   185 255 104   220 255 123   250 255 143   255 255 151   255 255 156   255 255 144   51 51 51   51 51 51   51 51 51   51 51 51   51 51 51   51 51 51   51 51 51   51 51 51   19 14 18   19 14 18   19 14 18   40 30 38   77 58 74   110 84 107   141 107 137   170 129 165   198 150 192   224 170 217   253 199 247   255 254 255   255 224 255   
51 51 51   51 51 51   51 51 51   51 51 51   51 51 51   51 51 51   51 51 51   51 51 51   51 51 51   7 25 8   7 25 8   7 25 8   7 25 8   51 51 51   51 51 51   51 51 51   51 51 51   51 51 51   51 51 51   51 51 51   51 51 51   15 23 8   70 105 39   122 184 68   164 247 92   199 255 111   227 255 127   250 255 143   255 255 146   255 255 143   51 51 51   51 51 51   51 51 51   51 51 51   51 51 51   51 51 51   51 51 51   51 51 51   19 14 18   19 14 18   19 14 18   19 14 18   55 42 53   89 67 86   120 91 116   149 113 144   176 134 171   202 153 196   227 172 220   250 190 243   255 206 255   
51 51 51   51 51 51   51 51 51   51 51 51   51 51 51   51 51 51   51 51 51   51 51 51   51 51 51   7 25 8   7 25 8   7 25 8   7 25 8   51 51 51   51 51 51   51 51 51   51 51 51   51 51 51   51 51 51   51 51 51   51 51 51   15 23 8   42 64 24   95 143 53   136 205 76   171 255 95   199 255 111   220 255 123   233 255 130   230 255 129   51 51 51   51 51 51   51 51 51   51 51 51   51 51 51   51 51 51   51 51 51   51 51 51   19 14 18   19 14 18   19 14 18   19 14 18   31 24 30   65 49 63   97 73 94   126 95 122   153 116 149   179 136 174   204 155 198   227 172 220   248 189 241   
51 51 51   51 51 51   51 51 51   51 51 51   51 51 51   51 51 51   51 51 51   51 51 51   51 51 51   7 25 8   7 25 8   7 25 8   7 25 8   51 51 51   51 51 51   51 51 51   51 51 51   51 51 51   51 51 51   51 51 51   51 51 51   15 23 8   15 23 8   59 90 33   102 153 57   136 205 76   164 247 92   185 255 104   197 255 110   190 255 106   51 51 51   51 51 51   51 51 51   51 51 51   51 51 51   51 51 51   51 51 51   51 51 51   19 14 18   19 14 18   19 14 18   19 14 18   19 14 18   40 30 39   72 54 70   101 77 98   129 98 125   155 118 151   180 136 174   203 154 197   224 170 217   
51 51 51   51 51 51   51 51 51   51 51 51   51 51 51   51 51 51   51 51 51   51 51 51   51 51 51   51 51 51   7 25 8   7 25 8   51 51 51   51 51 51   51 51 51   51 51 51   51 51 51   51 51 51   51 51 51   51 51 51   51 51 51   15 23 8   15 23 8   15 23 8   59 90 33   95 143 53   122 184 68   142 214 79   151 227 84   123 186 69   51 51 51   51 51 51   51 51 51   51 51 51   51 51 51   51 51 51   51 51 51   51 51 51   19 14 18   19 14 18   19 14 18   19 14 18   19 14 18   19 14 18   45 34 44   75 57 73   103 78 100   129 98 125   154 117 149   177 134 171   198 150 192   
51 51 51   51 51 51   51 51 51   51 51 51   51 51 51   51 51 51   51 51 51   51 51 51   51 51 51   51 51 51   51 51 51   51 51 51   51 51 51   51 51 51   51 51 51   51 51 51   51 51 51   51 51 51   51 51 51   51 51 51   51 51 51   51 51 51   15 23 8   15 23 8   15 23 8   42 64 24   70 105 39   86 130 48   83 125 46   51 51 51   51 51 51   51 51 51   51 51 51   51 51 51   51 51 51   51 51 51   51 51 51   51 51 51   51 51 51   19 14 18   19 14 18   19 14 18   19 14 18   19 14 18   19 14 18   46 35 45   74 56 72   101 77 98   125 95 122   148 112 144   168 128 163   
51 51 51   51 51 51   51 51 51   51 51 51   51 51 51   51 51 51   51 51 51   51 51 51   51 51 51   51 51 51   51 51 51   51 51 51   51 51 51   51 51 51   51 51 51   51 51 51   51 51 51   51 51 51   51 51 51   51 51 51   51 51 51   51 51 51   51 51 51   15 23 8   15 23 8   15 23 8   15 23 8   15 23 8   51 51 51   51 51 51   51 51 51   51 51 51   51 51 51   51 51 51   51 51 51   51 51 51   51 51 51   51 51 51   51 51 51   51 51 51   19 14 18   19 14 18   19 14 18   19 14 18   19 14 18   19 14 18   43 33 42   70 53 68   94 71 92   116 88 113   135 103 131   
51 51 51   51 51 51   51 51 51   51 51 51   51 51 51   51 51 51   51 51 51   51 51 51   51 51 51   51 51 51   51 51 51   51 51 51   51 51 51   51 51 51   51 51 51   51 51 51   51 51 51   51 51 51   51 51 51   51 51 51   51 51 51   51 51 51   51 51 51   51 51 51   51 51 51   51 51 51   51 51 51   51 51 51   51 51 51   51 51 51   51 51 51   51 51 51   51 51 51   51 51 51   51 51 51   51 51 51   51 51 51   51 51 51   51 51 51   51 51 51   19 14 18   19 14 18   19 14 18   19 14 18   19 14 18   19 14 18   19 14 18   34 26 33   58 44 57   79 60 76   93 70 90   
51 51 51   51 51 51   51 51 51   51 51 51   51 51 51   51 51 51   51 51 51   51 51 51   51 51 51   51 51 51   51 51 51   51 51 51   51 51 51   51 51 51   51 51 51   51 51 51   51 51 51   51 51 51   51 51 51   51 51 51   51 51 51   51 51 51   51 51 51   51 51 51   51 51 51   51 51 51   51 51 51   51 51 51   51 51 51   51 51 51   51 51 51   51 51 51   51 51 51   51 51 51   51 51 51   51 51 51   51 51 51   51 51 51   51 51 51   51 51 51   51 51 51   51 51 51   19 14 18   19 14 18   19 14 18   19 14 18   19 14 18   19 14 18   19 14 18   21 16 20   51 51 51   
51 51 51   51 51 51   51 51 51   51 51 51   51 51 51   51 51 51   51 51 51   51 51 51   51 51 51   51 51 51   51 51 51   51 51 51   51 51 51   51 51 51   51 51 51   51 51 51   51 51 51   51 51 51   51 51 51   51 51 51   51 51 51   51 51 51   51 51 51   51 51 51   51 51 51   51 51 51   51 51 51   51 51 51   51 51 51   51 51 51   51 51 51   51 51 51   51 51 51   51 51 51   51 51 51   51 51 51   51 51 51   51 51 51   51 51 51   51 51 51   51 51 51   51 51 51   51 51 51   51 51 51   51 51 51   51 51 51   51 51 51   51 51 51   51 51 51   51 51 51   51 51 51   
51 51 51   51 51 51   51 51 51   51 51 51   51 51 51   51 51 51   51 51 51   51 51 51   51 51 51   51 51 51   51 51 51   51 51 51   51 51 51   51 51 51   51 51 51   51 51 51   51 51 51   51 51 51   51 51 51   51 51 51   51 51 51   51 51 51   51 51 51   51 51 51   51 51 51   51 51 51   51 51 51   51 51 51   51 51 51   51 51 51   51 51 51   51 51 51   51 51 51   51 51 51   51 51 51   51 51 51   51 51 51   51 51 51   51 51 51   51 51 51   51 51 51   51 51 51   51 51 51   51 51 51   51 51 51   51 51 51   51 51 51   51 51 51   51 51 51   51 51 51   51 51 51   
51 51 51   51 51 51   51 51 51   51 51 51   51 51 51   51 51 51   51 51 51   51 51 51   51 51 51   51 51 51   51 51 51   51 51 51   51 51 51   51 51 51   51 51 51   51 51 51   51 51 51   51 51 51   51 51 51   51 51 51   51 51 51   51 51 51   51 51 51   51 51 51   51 51 51   51 51 51   51 51 51   51 51 51   51 51 51   51 51 51   51 51 51   51 51 51   51 51 51   51 51 51   51 51 51   51 51 51   51 51 51   51 51 51   51 51 51   51 51 51   51 51 51   51 51 51   51 51 51   51 51 51   51 51 51   51 51 51   51 51 51   51 51 51   51 51 51   51 51 51   51 51 51   
51 51 51   51 51 51   51 51 51   51 51 51   51 51 51   51 51 51   51 51 51   51 51 51   51 51 51   51 51 51   51 51 51   51 51 51   51 51 51   51 51 51   51 51 51   51 51 51   51 51 51   51 51 51   51 51 51   51 51 51   51 51 51   51 51 51   51 51 51   58 62 166   89 95 253   8 8 23   8 8 23   8 8 23   51 51 51   51 51 51   51 51 51   51 51 51   51 51 51   51 51 51   51 51 51   51 51 51   51 51 51   51 51 51   51 51 51   51 51 51   51 51 51   51 51 51   51 51 51   51 51 51   51 51 51   51 51 51   51 51 51   51 51 51   51 51 51   51 51 51   51 51 51   
51 51 51   51 51 51   51 51 51   51 51 51   51 51 51   51 51 51   51 51 51   51 51 51   51 51 51   51 51 51   51 51 51   51 51 51   51 51 51   51 51 51   51 51 51   51 51 51   51 51 51   51 51 51   51 51 51   51 51 51   51 51 51   51 51 51   58 62 165   86 92 245   106 113 255   122 130 255   8 8 23   8 8 23   8 8 23   51 51 51   51 51 51   51 51 51   51 51 51   51 51 51   51 51 51   51 51 51   51 51 51   51 51 51   51 51 51   51 51 51   7 139 109   51 51 51   51 51 51   51 51 51   51 51 51   51 51 51   51 51 51   51 51 51   51 51 51   51 51 51   51 51 51   
51 51 51   51 51 51   51 51 51   51 51 51   51 51 51   51 51 51   51 51 51   51 51 51   51 51 51   51 51 51   51 51 51   51 51 51   51 51 51   51 51 51   51 51 51   51 51 51   51 51 51   51 51 51   51 51 51   51 51 51   51 51 51   38 40 108   70 75 200   93 99 255   112 119 255   126 135 255   138 147 255   8 8 23   8 8 23   8 8 23   51 51 51   51 51 51   51 51 51   51 51 51   51 51 51   51 51 51   51 51 51   51 51 51   3 70 55   6 127 99   9 170 134   10 204 160   12 225 177   51 51 51   51 51 51   51 51 51   51 51 51   51 51 51   51 51 51   51 51 51   51 51 51   
51 51 51   51 51 51   51 51 51   51 51 51   51 51 51   51 51 51   51 51 51   51 51 51   51 51 51   51 51 51   51 51 51   51 51 51   51 51 51   51 51 51   51 51 51   51 51 51   51 51 51   51 51 51   51 51 51   51 51 51   8 8 23   46 49 131   73 78 209   95 101 255   112 119 255   126 135 255   144 149 255   161 162 255   8 8 23   8 8 23   8 8 23   51 51 51   51 51 51   51 51 51   51 51 51   51 51 51   51 51 51   0 13 10   3 72 57   6 124 97   8 167 131   13 206 161   14 232 182   13 244 192   51 51 51   51 51 51   51 51 51   51 51 51   51 51 51   51 51 51   51 51 51   
51 51 51   51 51 51   51 51 51   51 51 51   51 51 51   51 51 51   51 51 51   255 134 121   255 175 158   255 192 174   255 185 167   51 51 51   51 51 51   51 51 51   51 51 51   51 51 51   51 51 51   51 51 51   51 51 51   51 51 51   11 12 32   47 50 133   72 77 205   92 98 255   109 116 255   123 131 255   186 163 255   255 238 255   163 165 255   8 8 23   8 8 23   51 51 51   51 51 51   51 51 51   51 51 51   51 51 51   51 51 51   0 13 10   3 60 47   5 111 87   8 154 121   28 217 164   134 255 255   13 240 188   12 231 182   51 51 51   51 51 51   51 51 51   51 51 51   51 51 51   51 51 51   
51 51 51   51 51 51   51 51 51   51 51 51   51 51 51   51 51 51   245 115 104   255 167 151   255 198 179   255 213 193   255 213 193   255 185 167   51 51 51   51 51 51   51 51 51   51 51 51   51 51 51   51 51 51   51 51 51   51 51 51   8 8 23   43 46 123   67 72 192   87 93 248   104 111 255   118 125 255   145 144 255   244 187 255   157 158 255   147 157 255   8 8 23   51 51 51   51 51 51   51 51 51   51 51 51   51 51 51   0 13 10   0 13 10   2 40 32   4 91 72   7 134 105   9 172 135   36 239 179   12 224 175   12 227 178   51 51 51   51 51 51   51 51 51   51 51 51   51 51 51   51 51 51   
51 51 51   51 51 51   51 51 51   51 51 51   51 51 51   108 50 46   255 128 116   255 171 155   255 198 180   255 255 255   255 213 193   255 192 174   51 51 51   51 51 51   51 51 51   51 51 51   51 51 51   51 51 51   51 51 51   51 51 51   8 8 23   36 38 103   60 64 172   80 85 228   96 103 255   110 117 255   122 130 255   133 140 255   137 146 255   139 148 255   135 144 255   51 51 51   51 51 51   51 51 51   51 51 51   51 51 51   51 51 51   0 13 10   0 13 10   3 65 51   5 109 85   7 146 114   9 176 138   10 198 156   10 203 159   51 51 51   51 51 51   51 51 51   51 51 51   51 51 51   51 51 51   
51 51 51   51 51 51   51 51 51   51 51 51   51 51 51   116 54 49   255 121 109   255 161 145   255 186 168   255 198 180   255 198 179   255 175 158   51 51 51   51 51 51   51 51 51   51 51 51   51 51 51   51 51 51   51 51 51   51 51 51   8 8 23   26 27 73   50 54 144   70 75 200   87 92 247   101 107 255   112 119 255   121 129 255   127 135 255   129 137 255   124 132 255   51 51 51   51 51 51   51 51 51   51 51 51   51 51 51   51 51 51   0 13 10   0 13 10   1 32 25   4 77 60   6 114 90   7 145 114   8 165 130   8 159 125   51 51 51   51 51 51   51 51 51   51 51 51   51 51 51   51 51 51   
51 51 51   51 51 51   51 51 51   51 51 51   51 51 51   65 30 27   209 98 89   255 137 124   255 161 145   255 171 155   255 167 151   255 134 121   51 51 51   51 51 51   51 51 51   51 51 51   51 51 51   51 51 51   51 51 51   51 51 51   8 8 23   12 12 34   38 40 107   58 62 165   75 80 213   89 94 252   100 106 255   108 115 255   114 121 255   115 122 255   106 113 255   51 51 51   51 51 51   51 51 51   51 51 51   51 51 51   51 51 51   51 51 51   0 13 10   0 13 10   1 36 28   3 74 58   5 103 81   6 118 93   51 51 51   51 51 51   51 51 51   51 51 51   51 51 51   51 51 51   51 51 51   
51 51 51   51 51 51   51 51 51   51 51 51   51 51 51   25 11 10   121 56 51   209 98 89   255 121 109   255 128 116   245 115 104   51 51 51   51 51 51   51 51 51   51 51 51   51 51 51   51 51 51   51 51 51   51 51 51   51 51 51   8 8 23   8 8 23   21 22 60   43 45 122   60 64 171   74 79 211   85 91 242   93 99 255   98 104 255   96 102 255   74 79 212   51 51 51   51 51 51   51 51 51   51 51 51   51 51 51   51 51 51   51 51 51   51 51 51   0 13 10   0 13 10   0 13 10   1 32 25   51 51 51   51 51 51   51 51 51   51 51 51   51 51 51   51 51 51   51 51 51   51 51 51   
51 51 51   51 51 51   51 51 51   51 51 51   51 51 51   51 51 51   25 11 10   65 30 27   116 54 49   108 50 46   51 51 51   51 51 51   51 51 51   51 51 51   51 51 51   51 51 51   51 51 51   51 51 51   51 51 51   51 51 51   51 51 51   8 8 23   8 8 23   23 24 65   41 44 117   55 59 158   66 71 189   74 78 209   76 81 215   67 71 190   51 51 51   51 51 51   51 51 51   51 51 51   51 51 51   51 51 51   51 51 51   51 51 51   51 51 51   51 51 51   51 51 51   51 51 51   51 51 51   51 51 51   51 51 51   51 51 51   51 51 51   51 51 51   51 51 51   51 51 51   51 51 51   
51 51 51   51 51 51   51 51 51   51 51 51   51 51 51   51 51 51   51 51 51   51 51 51   51 51 51   51 51 51   51 51 51   51 51 51   51 51 51   51 51 51   51 51 51   51 51 51   51 51 51   51 51 51   51 51 51   51 51 51   51 51 51   51 51 51   8 8 23   8 8 23   15 16 43   30 32 87   41 43 116   45 48 129   37 39 106   51 51 51   51 51 51   51 51 51   51 51 51   51 51 51   51 51 51   51 51 51   51 51 51   51 51 51   51 51 51   51 51 51   51 51 51   51 51 51   51 51 51   51 51 51   51 51 51   51 51 51   51 51 51   51 51 51   51 51 51   51 51 51   51 51 51   
51 51 51   51 51 51   51 51 51   51 51 51   51 51 51   51 51 51   51 51 51   51 51 51   51 51 51   51 51 51   51 51 51   51 51 51   51 51 51   51 51 51   51 51 51   51 51 51   51 51 51   51 51 51   51 51 51   51 51 51   51 51 51   51 51 51   51 51 51   51 51 51   51 51 51   8 8 23   51 51 51   51 51 51   51 51 51   51 51 51   51 51 51   51 51 51   51 51 51   51 51 51   51 51 51   51 51 51   51 51 51   51 51 51   51 51 51   51 51 51   51 51 51   51 51 51   51 51 51   51 51 51   51 51 51   51 51 51   51 51 51   51 51 51   51 51 51   51 51 51   51 51 51   
51 51 51   51 51 51   51 51 51   51 51 51   51 51 51   51 51 51   51 51 51   51 51 51   51 51 51   51 51 51   51 51 51   51 51 51   51 51 51   51 51 51   51 51 51   51 51 51   51 51 51   51 51 51   51 51 51   51 51 51   51 51 51   51 51 51   51 51 51   51 51 51   51 51 51   51 51 51   51 51 51   51 51 51   51 51 51   51 51 51   51 51 51   51 51 51   51 51 51   51 51 51   51 51 51   51 51 51   51 51 51   51 51 51   51 51 51   51 51 51   51 51 51   51 51 51   51 51 51   51 51 51   51 51 51   51 51 51   51 51 51   51 51 51   51 51 51   51 51 51   51 51 51   
51 51 51   51 51 51   51 51 51   51 51 51   51 51 51   51 51 51   51 51 51   51 51 51   51 51 51   51 51 51   51 51 51   51 51 51   51 51 51   51 51 51   51 51 51   51 51 51   51 51 51   51 51 51   51 51 51   51 51 51   51 51 51   51 51 51   51 51 51   51 51 51   51 51 51   51 51 51   51 51 51   51 51 51   51 51 51   51 51 51   51 51 51   51 51 51   51 51 51   51 51 51   51 51 51   51 51 51   51 51 51   51 51 51   51 51 51   51 51 51   51 51 51   51 51 51   51 51 51   51 51 51   51 51 51   51 51 51   51 51 51   51 51 51   51 51 51   51 51 51   51 51 51   
51 51 51   51 51 51   51 51 51   51 51 51   51 51 51   51 51 51   51 51 51   51 51 51   51 51 51   51 51 51   51 51 51   51 51 51   51 51 51   51 51 51   51 51 51   51 51 51   51 51 51   51 51 51   51 51 51   51 51 51   51 51 51   51 51 51   51 51 51   51 51 51   51 51 51   51 51 51   51 51 51   51 51 51   51 51 51   51 51 51   51 51 51   51 51 51   51 51 51   51 51 51   51 51 51   51 51 51   51 51 51   51 51 51   51 51 51   51 51 51   51 51 51   51 51 51   51 51 51   51 51 51   51 51 51   51 51 51   51 51 51   51 51 51   51 51 51   51 51 51   51 51 51   
