P3
51 51
255
51 51 51   51 51 51   51 51 51   51 51 51   51 51 51   51 51 51   51 51 51   51 51 51   51 51 51   51 51 51   51 51 51   51 51 51   51 51 51   51 51 51   51 51 51   51 51 51   48 3 102   74 5 157   95 6 201   113 7 239   129 8 255   143 9 255   160 15 255   176 22 255   180 12 255   187 12 255   51 51 51   51 51 51   51 51 51   51 51 51   51 51 51   51 51 51   51 51 51   51 51 51   51 51 51   51 51 51   51 51 51   51 51 51   51 51 51   51 51 51   51 51 51   51 51 51   51 51 51   51 51 51   51 51 51   51 51 51   51 51 51   51 51 51   51 51 51   51 51 51   51 51 51   
51 51 51   51 51 51   51 51 51   51 51 51   51 51 51   51 51 51   51 51 51   51 51 51   51 51 51   51 51 51   51 51 51   51 51 51   51 51 51   51 51 51   51 51 51   10 0 22   37 2 79   61 4 130   81 5 172   99 6 209   114 7 243   129 8 255   145 14 255   255 195 255   169 15 255   175 12 255   179 12 255   51 51 51   51 51 51   51 51 51   51 51 51   51 51 51   51 51 51   51 51 51   51 51 51   51 51 51   51 51 51   51 51 51   51 51 51   51 51 51   51 51 51   51 51 51   51 51 51   51 51 51   51 51 51   51 51 51   51 51 51   51 51 51   51 51 51   51 51 51   51 51 51   
51 51 51   51 51 51   51 51 51   51 51 51   51 51 51   51 51 51   51 51 51   51 51 51   51 51 51   51 51 51   51 51 51   51 51 51   51 51 51   51 51 51   51 51 51   10 0 22   23 1 48   46 3 97   65 4 139   83 5 176   99 6 210   114 7 241   127 8 255   141 11 255   151 11 255   160 11 255   167 11 255   51 51 51   51 51 51   51 51 51   51 51 51   51 51 51   51 51 51   51 51 51   51 51 51   51 51 51   51 51 51   51 51 51   51 51 51   51 51 51   51 51 51   51 51 51   51 51 51   51 51 51   51 51 51   51 51 51   51 51 51   51 51 51   51 51 51   51 51 51   51 51 51   
51 51 51   51 51 51   51 51 51   51 51 51   51 51 51   51 51 51   51 51 51   51 51 51   51 51 51   51 51 51   51 51 51   51 51 51   51 51 51   51 51 51   51 51 51   10 0 22   10 0 22   29 2 61   49 3 103   66 4 141   82 5 175   97 6 206   111 7 234   123 8 255   134 9 255   144 9 255   151 10 255   51 51 51   51 51 51   51 51 51   51 51 51   51 51 51   51 51 51   51 51 51   51 51 51   51 51 51   51 51 51   51 51 51   51 51 51   51 51 51   103 46 9   121 54 11   138 62 12   153 69 14   168 75 15   51 51 51   51 51 51   51 51 51   51 51 51   51 51 51   51 51 51   
51 51 51   51 51 51   51 51 51   51 51 51   51 51 51   51 51 51   51 51 51   51 51 51   51 51 51   51 51 51   51 51 51   51 51 51   51 51 51   51 51 51   51 51 51   10 0 22   10 0 22   10 0 22   30 2 64   48 3 102   64 4 137   79 5 168   93 6 197   105 7 223   116 8 247   126 8 255   133 9 255   127 8 255   51 51 51   51 51 51   51 51 51   51 51 51   51 51 51   51 51 51   51 51 51   51 51 51   51 51 51   51 51 51   51 23 4   74 33 6   93 41 8   110 49 10   126 56 11   141 63 12   156 70 14   170 76 15   51 51 51   51 51 51   51 51 51   51 51 51   51 51 51   
51 51 51   51 51 51   51 51 51   51 51 51   51 51 51   51 51 51   51 51 51   51 51 51   51 51 51   51 51 51   51 51 51   51 51 51   51 51 51   51 51 51   51 51 51   10 0 22   10 0 22   10 0 22   10 0 22   29 1 61   45 3 96   60 4 127   74 5 156   86 5 183   97 6 206   107 7 226   113 7 239   51 51 51   51 51 51   51 51 51   51 51 51   51 51 51   51 51 51   51 51 51   51 51 51   51 51 51   51 51 51   18 8 1   42 19 3   62 27 5   79 35 7   96 43 8   112 50 10   134 62 21   179 92 66   157 71 15   170 76 15   51 51 51   51 51 51   51 51 51   51 51 51   
51 51 51   51 51 51   51 51 51   51 51 51   51 51 51   51 51 51   51 51 51   51 51 51   51 51 51   51 51 51   51 51 51   51 51 51   51 51 51   51 51 51   193 211 212   10 0 22   10 0 22   10 0 22   10 0 22   10 0 22   24 1 51   39 2 84   53 3 113   66 4 139   76 5 162   85 5 181   90 6 191   51 51 51   51 51 51   51 51 51   51 51 51   51 51 51   51 51 51   51 51 51   51 51 51   51 51 51   51 51 51   9 4 0   29 13 2   48 21 4   65 29 6   82 37 7   98 44 8   117 53 15   217 127 140   179 92 66   156 70 14   168 75 15   51 51 51   51 51 51   51 51 51   
51 51 51   51 51 51   51 51 51   51 51 51   51 51 51   51 51 51   51 51 51   51 51 51   51 51 51   57 229 155   72 255 195   51 51 51   243 15 255   16 1 21   16 1 21   223 244 245   10 0 22   10 0 22   10 0 22   10 0 22   10 0 22   17 1 36   31 2 65   43 2 91   53 3 113   61 4 130   63 4 134   51 51 51   51 51 51   51 51 51   51 51 51   51 51 51   51 51 51   51 51 51   51 51 51   51 51 51   9 4 0   9 4 0   14 6 1   33 15 3   51 22 4   67 30 6   83 37 7   98 44 9   117 53 15   134 62 21   141 63 12   153 69 14   51 51 51   51 51 51   51 51 51   
51 51 51   51 51 51   51 51 51   51 51 51   51 51 51   51 51 51   51 51 51   51 51 51   41 164 111   61 236 160   192 12 246   228 14 255   255 16 255   255 18 255   16 1 21   16 1 21   10 0 22   10 0 22   10 0 22   10 0 22   10 0 22   10 0 22   10 0 22   18 1 38   27 1 58   33 2 70   51 51 51   51 51 51   51 51 51   51 51 51   51 51 51   51 51 51   51 51 51   51 51 51   51 51 51   51 51 51   9 4 0   9 4 0   9 4 0   18 8 1   35 16 3   52 23 4   68 30 6   83 37 7   98 44 8   112 50 10   126 56 11   138 62 12   51 51 51   51 51 51   51 51 51   
51 51 51   51 51 51   51 51 51   51 51 51   51 51 51   51 51 51   51 51 51   4 17 12   32 130 88   149 9 191   190 12 243   221 14 255   247 16 255   255 17 255   255 18 255   16 1 21   16 1 21   10 0 22   10 0 22   10 0 22   10 0 22   10 0 22   10 0 22   10 0 22   10 0 22   10 0 22   49 24 35   70 34 50   86 42 62   98 48 71   100 49 72   51 51 51   51 51 51   51 51 51   51 51 51   51 51 51   9 4 0   9 4 0   9 4 0   9 4 0   19 8 1   36 16 3   52 23 4   67 30 6   82 37 7   96 43 8   110 49 10   121 54 11   51 51 51   51 51 51   51 51 51   
51 51 51   51 51 51   51 51 51   51 51 51   51 51 51   51 51 51   51 51 51   4 17 12   89 5 114   139 9 179   176 11 225   205 13 255   230 14 255   252 16 255   255 22 255   255 27 255   16 1 21   16 1 21   16 1 21   10 0 22   10 0 22   10 0 22   10 0 22   10 0 22   51 51 51   16 7 11   41 20 29   59 29 43   75 37 54   118 74 100   97 48 70   137 2 15   193 3 21   237 4 25   255 5 29   51 51 51   9 4 0   9 4 0   9 4 0   9 4 0   9 4 0   19 8 1   35 16 3   51 22 4   65 29 6   79 35 7   93 41 8   103 46 9   51 51 51   51 51 51   51 51 51   
51 51 51   51 51 51   51 51 51   51 51 51   51 51 51   51 51 51   162 223 167   215 255 221   76 4 97   121 7 155   156 10 199   185 11 236   209 13 255   231 14 255   251 18 255   255 116 255   255 17 255   16 1 21   16 1 21   175 192 193   175 192 193   51 51 51   51 51 51   51 51 51   51 51 51   5 2 4   27 13 19   46 22 33   61 30 44   74 36 53   84 41 61   87 42 63   165 3 18   209 8 24   247 18 31   71 225 163   97 255 224   117 255 255   9 4 0   9 4 0   9 4 0   9 4 0   18 8 1   33 15 3   48 21 4   62 27 5   74 33 6   51 51 51   51 51 51   51 51 51   51 51 51   
51 51 51   51 51 51   51 51 51   51 51 51   51 51 51   125 172 129   180 247 185   16 1 21   53 3 68   97 6 124   131 8 168   160 10 205   185 11 236   206 13 255   225 14 255   240 15 255   252 16 255   255 16 255   16 1 21   16 1 21   116 127 128   51 51 51   51 51 51   51 51 51   51 51 51   5 2 4   11 5 8   29 14 21   45 22 32   92 77 111   68 33 49   71 35 51   127 2 13   170 3 18   31 101 73   61 194 140   85 255 196   135 255 255   124 255 255   9 4 0   9 4 0   9 4 0   9 4 0   14 6 1   29 13 2   42 19 3   51 23 4   51 51 51   51 51 51   51 51 51   51 51 51   
51 51 51   51 51 51   51 51 51   51 51 51   31 43 32   120 165 124   165 227 170   16 1 21   23 1 30   68 4 87   103 6 131   132 8 168   157 10 200   178 11 228   197 12 252   212 13 255   224 14 255   231 14 255   231 14 255   16 1 21   51 51 51   51 51 51   51 51 51   51 51 51   51 51 51   5 2 4   5 2 4   11 9 13   57 48 68   95 81 112   106 89 127   44 21 31   83 1 9   7 22 16   16 52 38   44 140 101   67 215 155   104 255 239   135 255 255   117 255 255   9 4 0   9 4 0   9 4 0   9 4 0   9 4 0   18 8 1   51 51 51   51 51 51   51 51 51   51 51 51   51 51 51   
51 51 51   51 51 51   51 51 51   51 51 51   30 42 31   97 134 100   140 192 144   16 1 21   16 1 21   34 2 43   70 4 89   99 6 127   125 8 160   147 9 188   165 10 211   181 11 231   192 12 246   199 12 255   198 12 254   16 1 21   51 51 51   51 51 51   51 51 51   51 51 51   51 51 51   5 2 4   5 2 4   6 5 7   31 26 38   61 51 73   82 68 98   15 0 1   31 0 3   7 22 16   7 22 16   23 75 54   47 149 108   67 215 155   85 255 196   97 255 224   9 4 0   0 14 20   0 14 20   9 4 0   51 51 51   51 51 51   51 51 51   51 51 51   51 51 51   51 51 51   51 51 51   
51 51 51   51 51 51   51 51 51   51 51 51   14 20 15   63 87 65   14 20 15   14 20 15   16 1 21   16 1 21   32 2 40   63 4 80   89 5 114   111 7 142   130 8 166   145 9 186   156 10 200   162 10 207   159 10 203   16 1 21   51 51 51   51 51 51   51 51 51   51 51 51   51 51 51   51 51 51   5 2 4   6 5 7   6 5 7   27 22 32   46 38 55   15 0 1   15 0 1   7 22 16   7 22 16   7 22 16   23 75 54   44 140 101   61 194 140   71 225 163   0 14 20   5 109 159   7 162 235   9 205 255   51 51 51   51 51 51   51 51 51   51 51 51   51 51 51   51 51 51   51 51 51   
51 51 51   51 51 51   51 51 51   51 51 51   14 20 15   14 20 15   14 20 15   14 20 15   16 1 21   16 1 21   16 1 21   16 1 21   48 3 61   71 4 91   90 5 115   104 6 134   114 7 147   118 7 151   109 7 139   51 51 51   51 51 51   51 51 51   51 51 51   51 51 51   51 51 51   51 51 51   51 51 51   51 51 51   6 5 7   6 5 7   51 51 51   15 0 1   15 0 1   15 0 1   7 22 16   7 22 16   7 22 16   16 52 38   31 101 73   0 14 20   0 14 20   2 55 80   5 107 156   7 149 217   51 51 51   51 51 51   51 51 51   51 51 51   51 51 51   51 51 51   51 51 51   
51 51 51   51 51 51   51 51 51   51 51 51   51 51 51   8 4 0   8 4 0   8 4 0   8 4 0   16 1 21   16 1 21   16 1 21   16 1 21   24 1 30   43 2 55   57 3 73   65 4 83   63 4 81   24 1 31   51 51 51   51 51 51   51 51 51   6 10 12   6 10 12   51 51 51   3 19 13   3 19 13   3 19 13   3 19 13   61 255 221   3 19 13   3 19 13   51 51 51   51 51 51   51 51 51   7 22 16   7 22 16   7 22 16   51 51 51   0 14 20   0 14 20   0 14 20   2 42 62   3 75 110   51 51 51   51 51 51   51 51 51   51 51 51   51 51 51   51 51 51   51 51 51   
51 51 51   51 51 51   51 51 51   51 51 51   8 4 0   8 4 0   8 4 0   8 4 0   8 4 0   8 4 0   16 1 21   16 1 21   16 1 21   16 1 21   16 1 21   16 1 21   16 1 21   16 1 21   19 4 18   51 51 51   51 51 51   51 51 51   6 10 12   6 10 12   3 19 13   3 19 13   3 19 13   46 236 167   53 255 193   60 255 215   65 255 233   3 19 13   3 19 13   108 31 224   134 39 255   155 45 255   170 49 255   51 51 51   51 51 51   51 51 51   0 14 20   0 14 20   51 51 51   51 51 51   51 51 51   51 51 51   51 51 51   51 51 51   51 51 51   51 51 51   51 51 51   
51 51 51   51 51 51   51 51 51   40 21 0   8 4 0   8 4 0   8 4 0   8 4 0   8 4 0   8 4 0   8 4 0   19 4 18   16 1 21   16 1 21   16 1 21   16 1 21   19 4 18   255 85 255   255 86 255   255 84 255   51 51 51   51 51 51   6 10 12   6 10 12   3 19 13   25 130 92   35 179 126   43 220 155   50 255 180   56 255 202   70 255 233   3 19 13   3 19 13   3 19 13   9 2 20   148 43 255   165 48 255   178 51 255   51 51 51   51 51 51   51 51 51   51 51 51   51 51 51   51 51 51   51 51 51   51 51 51   51 51 51   51 51 51   51 51 51   51 51 51   51 51 51   
51 51 51   51 51 51   51 51 51   8 4 0   8 4 0   8 4 0   8 4 0   8 4 0   8 4 0   8 4 0   8 4 0   19 4 18   19 4 18   19 4 18   19 4 18   19 4 18   255 107 255   255 139 255   255 82 255   255 82 255   255 73 255   51 51 51   51 51 51   3 19 13   10 53 37   21 111 78   31 157 111   39 198 140   46 233 164   52 255 186   70 255 223   70 255 233   65 255 233   3 19 13   9 2 20   135 39 255   197 142 255   168 48 255   175 50 255   51 51 51   51 51 51   14 7 14   117 66 119   194 109 197   251 141 255   51 51 51   51 51 51   51 51 51   51 51 51   51 51 51   51 51 51   
51 51 51   51 51 51   51 51 51   8 4 0   8 4 0   8 4 0   8 4 0   8 4 0   8 4 0   8 4 0   8 4 0   19 4 18   19 4 18   19 4 18   19 4 18   255 63 244   255 69 255   255 73 255   255 75 255   255 75 255   255 70 255   75 71 9   177 167 23   3 19 13   5 29 20   16 85 60   25 131 92   33 171 121   40 206 145   46 237 167   52 255 186   56 255 202   60 255 215   61 255 221   98 28 204   119 34 247   139 43 255   152 44 255   162 47 255   51 51 51   51 51 51   14 7 14   69 39 70   145 81 147   206 116 210   51 51 51   51 51 51   51 51 51   51 51 51   51 51 51   51 51 51   
51 51 51   51 51 51   51 51 51   8 4 0   8 4 0   8 4 0   8 4 0   8 4 0   8 4 0   8 4 0   8 4 0   19 4 18   19 4 18   19 4 18   197 48 185   226 55 212   250 60 233   255 64 250   255 67 255   255 67 255   254 61 238   64 61 8   148 140 19   3 19 13   3 19 13   10 53 38   19 100 70   27 140 99   34 175 124   40 206 145   46 233 164   50 255 180   53 255 193   55 255 199   80 23 165   100 29 208   118 34 246   133 38 255   143 41 255   51 51 51   51 51 51   14 7 14   14 7 14   79 45 81   140 79 142   51 51 51   51 51 51   51 51 51   51 51 51   51 51 51   51 51 51   
51 51 51   51 51 51   51 51 51   8 4 0   8 4 0   8 4 0   8 4 0   8 4 0   8 4 0   8 4 0   8 4 0   19 4 18   19 4 18   120 29 113   156 38 146   186 45 174   209 50 195   226 54 211   235 57 220   232 56 217   202 49 189   13 13 1   144 152 255   3 19 13   3 19 13   3 19 13   12 64 45   20 105 74   27 140 99   33 171 121   39 198 140   43 220 155   46 236 167   48 242 171   58 16 120   79 22 163   97 28 200   111 32 230   9 2 20   51 51 51   51 51 51   14 7 14   14 7 14   14 7 14   47 26 48   51 51 51   51 51 51   51 51 51   51 51 51   51 51 51   51 51 51   
51 51 51   51 51 51   51 51 51   8 4 0   8 4 0   8 4 0   8 4 0   8 4 0   8 4 0   8 4 0   8 4 0   8 4 0   19 4 18   70 17 66   108 26 101   137 33 128   160 39 150   176 42 165   183 44 171   175 42 164   11 11 22   11 11 22   11 11 22   3 19 13   3 19 13   3 19 13   3 19 13   12 64 45   19 100 70   25 131 92   31 157 111   35 179 126   38 193 136   38 193 136   33 9 68   54 15 111   71 20 148   9 2 20   9 2 20   51 51 51   51 51 51   51 51 51   51 51 51   51 51 51   51 51 51   51 51 51   51 51 51   51 51 51   51 51 51   51 51 51   51 51 51   
51 51 51   51 51 51   51 51 51   51 51 51   8 4 0   8 4 0   8 4 0   8 4 0   8 4 0   8 4 0   8 4 0   8 4 0   19 4 18   19 4 18   48 11 45   79 19 74   101 24 95   115 28 108   117 28 109   91 22 85   11 11 22   11 11 22   11 11 22   11 11 22   3 19 13   3 19 13   3 19 13   3 19 13   10 53 38   16 85 60   21 111 78   25 130 92   27 139 98   21 108 76   9 2 20   24 6 49   9 2 20   9 2 20   51 51 51   51 51 51   51 51 51   51 51 51   51 51 51   51 51 51   51 51 51   51 51 51   51 51 51   51 51 51   51 51 51   51 51 51   51 51 51   
51 51 51   51 51 51   51 51 51   51 51 51   51 51 51   8 4 0   8 4 0   8 4 0   16 8 0   24 13 0   28 15 0   8 4 0   119 17 137   215 32 249   255 41 255   255 46 255   255 49 255   255 48 255   19 4 18   11 11 22   11 11 22   11 11 22   11 11 22   11 11 22   11 11 22   3 19 13   3 19 13   3 19 13   3 19 13   5 29 20   10 53 37   13 67 47   11 55 39   9 2 20   9 2 20   9 2 20   9 2 20   51 51 51   51 51 51   51 51 51   51 51 51   51 51 51   51 51 51   51 51 51   51 51 51   51 51 51   51 51 51   51 51 51   51 51 51   51 51 51   51 51 51   
51 51 51   51 51 51   51 51 51   51 51 51   51 51 51   51 51 51   8 4 0   8 4 0   8 4 0   8 4 0   8 4 0   0 20 20   138 20 160   212 32 245   255 39 255   255 55 255   255 87 255   255 49 255   255 43 255   11 11 22   11 11 22   11 11 22   11 11 22   11 11 22   11 11 22   11 11 22   3 19 13   3 19 13   3 19 13   3 19 13   3 19 13   9 7 14   98 76 151   133 111 188   184 174 221   155 122 233   150 115 231   51 51 51   51 51 51   51 51 51   51 51 51   51 51 51   51 51 51   51 51 51   137 100 21   240 176 37   51 51 51   51 51 51   51 51 51   51 51 51   51 51 51   
51 51 51   51 51 51   51 51 51   51 51 51   51 51 51   51 51 51   51 51 51   51 51 51   51 51 51   51 51 51   51 51 51   18 2 20   118 17 137   187 28 216   236 35 255   255 41 255   255 49 255   255 45 255   255 41 255   11 11 22   11 11 22   11 11 22   11 11 22   11 11 22   11 11 22   11 11 22   11 11 22   16 0 2   16 0 2   16 0 2   9 7 14   51 39 78   77 60 119   100 77 154   118 91 181   130 100 199   127 98 196   51 51 51   51 51 51   51 51 51   51 51 51   51 51 51   51 51 51   17 12 2   112 82 17   210 154 32   255 210 44   51 51 51   51 51 51   51 51 51   51 51 51   
51 51 51   51 51 51   51 51 51   51 51 51   51 51 51   51 51 51   51 51 51   51 51 51   51 51 51   51 51 51   51 51 51   18 2 20   77 11 89   146 22 169   195 29 225   230 34 255   252 37 255   255 38 255   230 34 255   11 11 22   177 236 136   224 255 173   255 255 198   255 255 212   17 23 13   11 11 22   11 11 22   15 24 10   15 24 10   15 24 10   15 24 10   24 19 38   52 40 80   74 57 114   91 70 141   102 78 157   51 51 51   51 51 51   51 51 51   51 51 51   51 51 51   51 51 51   51 51 51   17 12 2   48 35 7   147 108 22   225 165 35   255 193 41   51 51 51   51 51 51   51 51 51   
51 51 51   51 51 51   51 51 51   51 51 51   51 51 51   51 51 51   51 51 51   51 51 51   51 51 51   51 51 51   51 51 51   51 51 51   18 2 20   89 13 103   139 21 161   174 26 201   194 29 224   194 29 224   144 21 166   163 219 126   213 255 164   249 255 193   255 255 215   255 255 231   255 255 241   255 255 242   15 24 10   15 24 10   15 24 10   15 24 10   15 24 10   15 24 10   233 32 21   255 39 25   255 44 28   255 44 29   51 51 51   51 51 51   51 51 51   51 51 51   51 51 51   51 51 51   51 51 51   17 12 2   17 12 2   62 45 9   139 102 21   51 51 51   51 51 51   51 51 51   51 51 51   
51 51 51   51 51 51   51 51 51   51 51 51   51 51 51   51 51 51   51 51 51   51 51 51   51 51 51   51 51 51   51 51 51   51 51 51   18 2 20   18 2 20   63 9 72   98 14 113   113 17 130   96 14 111   122 164 95   178 239 138   220 255 170   254 255 196   255 255 217   255 255 234   255 255 246   255 255 252   255 255 247   194 255 131   225 255 152   15 24 10   15 24 10   15 24 10   246 255 167   255 40 28   255 78 77   255 45 29   51 51 51   51 51 51   51 51 51   51 51 51   51 51 51   51 51 51   51 51 51   51 51 51   51 51 51   17 12 2   51 51 51   51 51 51   51 51 51   51 51 51   51 51 51   
51 51 51   51 51 51   51 51 51   51 51 51   51 51 51   51 51 51   51 51 51   51 51 51   51 51 51   51 51 51   51 51 51   51 51 51   51 51 51   23 23 19   18 2 20   18 2 20   23 23 19   59 80 46   129 173 100   178 239 138   218 255 168   250 255 193   255 255 214   255 255 231   255 255 244   255 255 250   255 255 250   255 255 232   209 255 141   15 24 10   15 24 10   15 24 10   251 255 170   239 33 21   255 49 39   255 42 27   255 39 25   51 51 51   51 51 51   51 51 51   51 51 51   51 51 51   51 51 51   51 51 51   51 51 51   51 51 51   51 51 51   51 51 51   51 51 51   51 51 51   51 51 51   
51 51 51   51 51 51   51 51 51   51 51 51   51 51 51   51 51 51   51 51 51   220 178 143   255 255 215   255 255 250   21 17 14   51 51 51   51 51 51   23 23 19   23 23 19   23 23 19   17 23 13   62 83 48   124 165 95   170 228 131   208 255 161   239 255 185   255 255 205   255 255 231   255 255 255   255 255 242   255 255 244   255 255 234   187 255 127   15 24 10   15 24 10   240 255 162   231 255 157   199 27 18   238 33 21   255 36 23   239 33 21   51 51 51   51 51 51   51 51 51   51 51 51   51 51 51   51 51 51   51 51 51   127 39 35   178 54 48   51 51 51   51 51 51   51 51 51   51 51 51   51 51 51   
51 51 51   51 51 51   51 51 51   51 51 51   51 51 51   51 51 51   70 56 45   248 202 161   255 255 218   255 255 255   255 255 255   21 17 14   51 51 51   23 23 19   54 53 45   23 23 19   17 23 13   51 69 40   110 148 85   156 208 120   193 255 149   224 255 173   250 255 193   255 255 209   255 255 222   255 255 230   255 255 232   255 255 224   159 255 108   184 255 125   202 255 137   210 255 142   197 255 134   146 20 13   185 25 16   204 28 18   140 66 158   199 93 224   232 108 255   51 51 51   51 51 51   51 51 51   15 4 4   89 27 24   148 45 40   197 60 54   236 72 64   255 81 72   51 51 51   51 51 51   51 51 51   
51 51 51   51 51 51   51 51 51   51 51 51   51 51 51   51 51 51   64 52 41   213 173 139   255 239 191   255 255 220   255 255 227   255 245 196   51 51 51   51 51 51   23 23 19   23 23 19   17 23 13   32 43 25   91 121 70   136 182 105   173 231 133   204 255 157   229 255 177   250 255 193   255 255 206   255 255 214   255 255 216   255 255 207   126 201 85   150 239 101   166 255 113   171 255 116   18 2 1   76 10 6   111 15 10   102 14 9   147 69 165   203 95 228   247 115 255   255 125 255   51 51 51   51 51 51   15 4 4   80 24 22   136 42 37   184 56 50   226 69 62   255 80 71   255 86 76   51 51 51   51 51 51   
51 51 51   51 51 51   51 51 51   51 51 51   51 51 51   51 51 51   21 17 14   134 109 87   216 176 141   255 210 168   255 211 169   178 145 116   51 51 51   51 51 51   23 23 19   23 23 19   17 23 13   17 23 13   64 86 50   110 148 85   148 198 114   179 239 138   204 255 158   225 255 174   241 255 186   250 255 193   251 255 194   236 255 182   83 133 56   106 170 72   119 191 81   111 178 75   18 2 1   244 224 68   14 6 16   60 28 68   130 61 146   186 87 209   255 150 255   255 123 255   249 117 255   15 4 4   15 4 4   59 18 16   115 35 31   163 50 44   205 63 56   255 185 70   255 82 73   51 51 51   51 51 51   
51 51 51   51 51 51   51 51 51   51 51 51   51 51 51   51 51 51   65 155 213   87 206 255   96 228 255   97 231 255   80 190 255   51 51 51   51 51 51   51 51 51   51 51 51   51 51 51   23 23 19   17 23 13   30 40 23   79 105 61   117 157 90   149 199 115   174 233 135   195 255 150   210 255 162   217 255 168   215 255 166   187 251 145   24 38 16   44 70 29   39 62 26   51 51 51   191 176 53   255 255 95   255 255 113   30 14 34   100 47 113   156 73 176   203 95 227   233 109 255   236 110 255   15 4 4   15 4 4   30 9 8   86 26 23   135 41 37   177 54 48   213 65 58   242 74 66   249 76 68   51 51 51   
51 51 51   51 51 51   51 51 51   51 51 51   46 111 152   81 191 255   98 234 255   110 255 255   117 255 255   121 255 255   119 255 255   109 255 255   51 51 51   51 51 51   51 51 51   51 51 51   51 51 51   17 23 13   17 23 13   196 59 146   255 79 197   255 93 230   255 102 252   255 105 255   255 99 245   176 235 136   165 221 128   51 51 51   51 51 51   51 51 51   51 51 51   22 20 6   129 118 36   255 255 78   255 255 100   14 6 16   59 27 66   116 54 130   161 75 181   191 89 215   186 87 209   15 4 4   15 4 4   15 4 4   51 16 14   101 31 27   144 44 39   180 55 49   209 64 57   213 65 58   51 51 51   
51 51 51   51 51 51   51 51 51   42 100 138   76 181 249   96 227 255   109 255 255   119 255 255   126 255 255   130 255 255   130 255 255   125 255 255   109 255 255   51 51 51   51 51 51   51 51 51   51 51 51   68 20 50   193 58 143   255 78 195   255 94 232   255 105 255   255 114 255   255 120 255   255 122 255   255 117 255   51 51 51   51 51 51   51 51 51   51 51 51   51 51 51   51 51 51   22 20 6   150 138 42   209 192 58   14 6 16   14 6 16   62 29 70   106 49 119   131 61 147   51 51 51   51 51 51   15 4 4   15 4 4   15 4 4   60 18 16   104 32 28   140 43 38   165 51 45   51 51 51   51 51 51   
51 51 51   51 51 51   12 29 40   63 150 206   86 204 255   102 242 255   114 255 255   123 255 255   129 255 255   133 255 255   133 255 255   130 255 255   119 255 255   80 190 255   51 51 51   51 51 51   24 7 18   154 46 114   231 69 171   255 86 214   255 100 247   255 111 255   255 119 255   255 126 255   255 129 255   255 129 255   255 121 255   51 51 51   51 51 51   51 51 51   51 51 51   51 51 51   51 51 51   51 51 51   51 51 51   51 51 51   14 6 16   14 6 16   14 6 16   51 51 51   51 51 51   51 51 51   51 51 51   15 4 4   15 4 4   15 4 4   52 16 14   86 26 23   85 26 23   51 51 51   51 51 51   
51 51 51   51 51 51   40 95 130   70 166 228   89 212 255   104 246 255   115 255 255   123 255 255   156 255 255   167 255 255   133 255 255   130 255 255   121 255 255   97 231 255   51 51 51   51 51 51   87 26 65   181 54 134   247 74 183   255 89 222   255 102 253   255 113 255   255 121 255   255 128 255   255 132 255   255 133 255   64 27 86   136 59 184   181 78 244   214 92 255   239 103 255   255 111 255   255 114 255   51 51 51   51 51 51   51 51 51   51 51 51   51 51 51   51 51 51   51 51 51   51 51 51   51 51 51   51 51 51   51 51 51   51 51 51   51 51 51   51 51 51   51 51 51   51 51 51   51 51 51   51 51 51   
51 51 51   51 51 51   45 108 149   71 168 231   89 210 255   102 242 255   112 255 255   120 255 255   153 255 255   156 255 255   129 255 255   126 255 255   117 255 255   96 228 255   51 51 51   24 7 18   110 33 82   190 57 141   251 75 186   255 90 223   255 102 253   255 112 255   255 126 255   255 177 255   255 138 255   54 23 73   122 52 164   168 72 227   205 88 255   236 101 255   255 112 255   255 121 255   255 127 255   255 129 255   255 123 255   51 51 51   51 51 51   51 51 51   51 51 51   51 51 51   51 51 51   51 51 51   51 51 51   51 51 51   51 51 51   51 51 51   51 51 51   51 51 51   51 51 51   51 51 51   51 51 51   
51 51 51   7 17 23   44 106 146   68 162 222   85 202 255   98 232 255   108 255 255   115 255 255   120 255 255   123 255 255   123 255 255   119 255 255   110 255 255   7 17 23   51 51 51   24 7 18   116 34 86   190 57 141   247 74 184   255 88 219   255 100 248   255 110 255   255 130 255   255 255 255   18 7 24   89 38 121   141 61 191   183 78 246   217 93 255   246 106 255   255 116 255   255 125 255   255 132 255   255 136 255   255 137 255   255 129 255   51 51 51   51 51 51   51 51 51   51 51 51   51 51 51   51 51 51   51 51 51   51 51 51   51 51 51   51 51 51   51 51 51   51 51 51   51 51 51   51 51 51   51 51 51   
51 51 51   7 17 23   39 93 127   62 147 202   78 186 255   91 216 255   101 239 255   108 255 255   112 255 255   115 255 255   114 255 255   20 61 180   24 75 219   24 72 213   51 51 51   24 7 18   110 33 81   181 54 134   237 71 176   255 85 210   255 97 239   255 106 255   255 116 255   24 7 18   42 18 57   104 44 140   150 65 203   189 81 254   221 95 255   250 107 255   255 118 255   255 127 255   255 134 255   255 139 255   255 142 255   255 140 255   51 51 51   51 51 51   51 51 51   51 51 51   51 51 51   51 51 51   51 51 51   51 51 51   51 51 51   51 51 51   51 51 51   51 51 51   51 51 51   51 51 51   51 51 51   
51 51 51   51 51 51   28 68 93   52 125 171   69 164 226   82 194 255   91 216 255   98 232 255   102 242 255   10 30 89   21 66 194   28 85 249   31 95 255   32 98 255   29 89 255   24 7 18   95 28 71   165 49 123   221 66 164   255 80 198   255 91 227   255 101 251   24 7 18   18 7 24   54 23 73   109 47 147   153 66 206   190 82 255   221 95 255   249 107 255   255 118 255   255 126 255   255 134 255   255 140 255   255 143 255   255 144 255   255 137 255   51 51 51   51 51 51   51 51 51   51 51 51   51 51 51   51 51 51   51 51 51   51 51 51   51 51 51   51 51 51   51 51 51   51 51 51   51 51 51   51 51 51   
51 51 51   51 51 51   11 28 38   39 92 127   56 134 184   69 164 226   78 186 255   85 202 255   89 210 255   17 52 154   25 77 226   30 92 255   33 102 255   35 105 255   33 101 255   22 69 203   72 21 53   143 43 106   199 60 148   245 73 182   255 85 211   24 7 18   24 7 18   18 7 24   57 24 77   109 47 147   151 65 204   187 80 252   218 94 255   245 106 255   255 116 255   255 125 255   255 173 255   255 141 255   255 142 255   255 144 255   255 140 255   51 51 51   51 51 51   51 51 51   51 51 51   51 51 51   51 51 51   51 51 51   51 51 51   51 51 51   51 51 51   51 51 51   51 51 51   51 51 51   51 51 51   
51 51 51   51 51 51   7 17 23   18 44 60   39 92 127   52 125 171   62 147 202   7 17 23   7 21 64   19 57 169   26 79 232   31 93 255   106 220 255   35 106 255   33 101 255   26 79 233   38 11 28   113 34 84   171 51 127   218 65 162   255 77 190   24 7 18   24 7 18   18 7 24   55 23 74   105 45 141   146 63 197   181 78 244   212 91 255   239 103 255   255 113 255   255 122 255   255 167 255   255 146 255   255 140 255   255 142 255   255 140 255   255 122 255   51 51 51   51 51 51   51 51 51   51 51 51   51 51 51   51 51 51   51 51 51   51 51 51   51 51 51   51 51 51   51 51 51   51 51 51   51 51 51   
51 51 51   51 51 51   51 51 51   7 17 23   11 28 38   28 68 93   7 17 23   7 17 23   7 24 70   18 56 164   25 76 222   29 89 255   32 97 255   33 100 255   31 95 255   23 70 207   24 7 18   74 22 55   135 40 100   184 55 136   24 7 18   24 7 18   24 7 18   18 7 24   47 20 64   97 41 130   138 59 185   172 74 233   203 87 255   230 99 255   253 109 255   255 118 255   255 126 255   255 132 255   255 136 255   255 138 255   255 137 255   255 124 255   51 51 51   51 51 51   51 51 51   51 51 51   51 51 51   51 51 51   51 51 51   51 51 51   51 51 51   51 51 51   51 51 51   51 51 51   51 51 51   
51 51 51   51 51 51   51 51 51   51 51 51   51 51 51   51 51 51   7 17 23   7 17 23   5 16 47   15 48 141   22 67 198   26 80 236   29 88 255   29 89 255   27 82 240   51 51 51   24 7 18   24 7 18   89 26 66   24 7 18   24 7 18   24 7 18   24 7 18   18 7 24   35 15 48   85 36 115   126 54 170   161 69 217   192 82 255   219 94 255   242 104 255   255 113 255   255 121 255   255 127 255   255 131 255   255 133 255   255 132 255   255 120 255   51 51 51   51 51 51   51 51 51   51 51 51   51 51 51   51 51 51   51 51 51   51 51 51   51 51 51   51 51 51   51 51 51   51 51 51   51 51 51   
51 51 51   51 51 51   51 51 51   51 51 51   51 51 51   51 51 51   51 51 51   51 51 51   1 5 17   11 33 98   17 54 158   22 66 195   24 73 214   23 72 211   18 57 167   51 51 51   51 51 51   24 7 18   24 7 18   24 7 18   24 7 18   24 7 18   24 7 18   18 7 24   18 7 24   70 30 95   112 48 151   147 63 199   178 77 240   205 88 255   229 98 255   249 107 255   255 115 255   255 121 255   255 125 255   255 127 255   255 125 255   255 111 255   51 51 51   51 51 51   51 51 51   51 51 51   51 51 51   51 51 51   51 51 51   51 51 51   51 51 51   51 51 51   51 51 51   51 51 51   51 51 51   
