P3
51 51
255
51 51 51   51 51 51   51 51 51   51 51 51   51 51 51   51 51 51   51 51 51   51 51 51   51 51 51   51 51 51   51 51 51   51 51 51   51 51 51   51 51 51   51 51 51   51 51 51   51 51 51   51 51 51   51 51 51   51 51 51   51 51 51   51 51 51   51 51 51   51 51 51   51 51 51   51 51 51   51 51 51   51 51 51   51 51 51   51 51 51   51 51 51   51 51 51   51 51 51   51 51 51   51 51 51   51 51 51   51 51 51   51 51 51   51 51 51   51 51 51   51 51 51   51 51 51   51 51 51   51 51 51   51 51 51   51 51 51   51 51 51   51 51 51   51 51 51   51 51 51   51 51 51   
51 51 51   51 51 51   51 51 51   51 51 51   237 188 49   255 239 62   255 255 69   255 255 74   255 255 78   255 255 80   51 51 51   51 51 51   51 51 51   51 51 51   51 51 51   51 51 51   51 51 51   51 51 51   51 51 51   51 51 51   51 51 51   51 51 51   51 51 51   51 51 51   51 51 51   51 51 51   51 51 51   51 51 51   51 51 51   51 51 51   51 51 51   51 51 51   51 51 51   51 51 51   51 51 51   51 51 51   51 51 51   51 51 51   51 51 51   51 51 51   51 51 51   51 51 51   51 51 51   51 51 51   51 51 51   51 51 51   51 51 51   51 51 51   51 51 51   51 51 51   51 51 51   
51 51 51   51 51 51   51 51 51   219 174 45   255 212 55   255 240 63   255 255 69   255 255 74   255 255 78   255 255 81   255 255 83   255 255 83   51 51 51   51 51 51   51 51 51   51 51 51   51 51 51   51 51 51   51 51 51   51 51 51   51 51 51   51 51 51   51 51 51   51 51 51   51 51 51   51 51 51   51 51 51   51 51 51   51 51 51   51 51 51   51 51 51   51 51 51   51 51 51   51 51 51   51 51 51   51 51 51   51 51 51   51 51 51   51 51 51   51 51 51   51 51 51   51 51 51   51 51 51   51 51 51   51 51 51   51 51 51   51 51 51   51 51 51   51 51 51   51 51 51   51 51 51   
51 51 51   51 51 51   161 128 33   216 172 45   255 203 53   255 229 60   255 251 65   255 255 70   255 255 75   255 255 78   255 255 81   255 255 83   255 255 82   51 51 51   51 51 51   51 51 51   51 51 51   51 51 51   51 51 51   51 51 51   51 51 51   51 51 51   51 51 51   51 51 51   51 51 51   51 51 51   51 51 51   51 51 51   51 51 51   51 51 51   51 51 51   51 51 51   51 51 51   51 51 51   51 51 51   51 51 51   51 51 51   51 51 51   51 51 51   51 51 51   51 51 51   51 51 51   51 51 51   51 51 51   51 51 51   51 51 51   51 51 51   51 51 51   51 51 51   51 51 51   51 51 51   
51 51 51   56 44 11   152 121 31   199 158 41   236 187 49   255 212 55   255 234 61   255 252 66   255 255 70   255 255 86   255 255 78   255 255 79   255 255 80   255 255 78   51 51 51   51 51 51   51 51 51   51 51 51   51 51 51   51 51 51   51 51 51   51 51 51   51 51 51   51 51 51   51 51 51   51 51 51   51 51 51   51 51 51   51 51 51   51 51 51   51 51 51   51 51 51   51 51 51   51 51 51   51 51 51   51 51 51   51 51 51   51 51 51   51 51 51   51 51 51   51 51 51   51 51 51   51 51 51   51 51 51   51 51 51   51 51 51   51 51 51   51 51 51   51 51 51   51 51 51   51 51 51   
51 51 51   66 52 13   131 104 27   175 139 36   211 167 44   241 192 50   255 213 56   255 232 60   255 249 65   255 255 99   255 255 134   255 255 74   255 255 76   175 240 164   243 255 229   255 255 255   51 51 51   51 51 51   51 51 51   51 51 51   51 51 51   51 51 51   51 51 51   51 51 51   51 51 51   51 51 51   51 51 51   51 51 51   51 51 51   51 51 51   51 51 51   51 51 51   51 51 51   51 51 51   93 58 47   207 129 105   255 185 150   255 234 194   51 51 51   51 51 51   51 51 51   51 51 51   51 51 51   51 51 51   51 51 51   51 51 51   51 51 51   51 51 51   51 51 51   51 51 51   51 51 51   
51 51 51   41 33 8   102 81 21   145 115 30   181 144 37   212 168 44   239 190 49   255 209 54   255 226 59   255 240 63   255 253 66   255 255 69   255 255 70   135 186 127   198 255 187   255 255 254   255 255 249   51 51 51   51 51 51   51 51 51   51 51 51   51 51 51   51 51 51   51 51 51   51 51 51   51 51 51   51 51 51   51 51 51   51 51 51   51 51 51   51 51 51   51 51 51   51 51 51   51 51 51   35 21 17   136 85 69   224 139 113   255 202 216   255 229 185   51 51 51   51 51 51   62 98 86   89 141 124   112 178 156   51 51 51   51 51 51   51 51 51   51 51 51   51 51 51   51 51 51   51 51 51   
51 51 51   21 17 4   68 54 14   112 89 23   148 117 30   179 142 37   206 164 43   230 183 48   252 200 52   255 215 56   255 228 59   255 238 62   255 245 64   69 95 65   133 183 125   179 246 168   205 255 193   51 51 51   51 51 51   51 51 51   51 51 51   255 255 240   255 255 255   255 255 255   51 51 51   51 51 51   51 51 51   51 51 51   51 51 51   51 51 51   51 51 51   51 51 51   51 51 51   23 14 11   23 14 11   53 33 27   141 88 71   218 136 110   255 177 143   51 51 51   12 20 17   42 67 58   68 108 94   133 190 255   112 178 156   51 51 51   51 51 51   51 51 51   51 51 51   51 51 51   51 51 51   
51 51 51   21 17 4   21 17 4   73 58 15   111 88 23   142 113 29   170 135 35   195 155 40   217 172 45   236 187 49   252 200 52   255 210 55   255 217 57   15 21 14   50 69 47   97 134 92   123 169 116   51 51 51   51 51 51   51 51 51   193 196 165   255 255 241   255 255 255   255 255 255   255 255 255   51 51 51   166 224 222   122 206 124   155 255 158   181 255 184   203 255 207   221 255 225   51 51 51   23 14 11   23 14 11   23 14 11   48 30 24   125 78 63   186 116 94   6 10 9   6 10 9   18 29 25   44 70 61   68 108 94   89 141 124   51 51 51   51 51 51   51 51 51   51 51 51   51 51 51   51 51 51   
51 51 51   21 17 4   21 17 4   30 24 6   69 55 14   102 81 21   131 104 27   156 124 32   178 141 37   197 157 41   213 169 44   226 180 47   235 186 49   15 21 14   15 21 14   15 21 14   15 21 14   51 51 51   51 51 51   43 44 37   158 160 135   237 241 203   255 255 255   255 255 255   255 255 255   255 255 255   80 135 81   115 196 117   144 244 147   169 255 172   191 255 194   211 255 214   226 255 230   232 255 236   23 14 11   23 14 11   23 14 11   23 14 11   51 51 51   6 10 9   6 10 9   6 10 9   18 29 25   42 67 58   62 98 86   51 51 51   51 51 51   51 51 51   51 51 51   51 51 51   51 51 51   
51 51 51   51 51 51   21 17 4   21 17 4   21 17 4   57 45 11   87 69 18   113 89 23   135 107 28   155 123 32   171 136 35   183 145 38   191 152 39   21 17 4   21 17 4   51 51 51   51 51 51   51 51 51   51 51 51   24 24 20   101 102 86   179 181 153   243 247 208   255 255 254   255 255 255   25 43 26   68 115 69   100 170 102   128 216 130   152 255 155   177 255 182   248 255 255   213 255 219   223 255 226   51 51 51   51 51 51   23 14 11   51 51 51   51 51 51   51 51 51   6 10 9   6 10 9   6 10 9   12 20 17   51 51 51   51 51 51   51 51 51   51 51 51   51 51 51   51 51 51   51 51 51   
51 51 51   51 51 51   21 17 4   21 17 4   21 17 4   21 17 4   37 30 7   64 51 13   88 70 18   107 85 22   123 98 25   135 107 28   141 112 29   21 17 4   21 17 4   51 51 51   51 51 51   51 51 51   51 51 51   24 24 20   24 24 20   109 110 93   174 176 149   227 231 195   255 255 231   12 21 12   50 85 51   81 137 82   108 183 110   132 224 135   154 255 157   191 255 207   200 255 210   204 255 208   208 255 212   51 51 51   51 51 51   51 51 51   51 51 51   51 51 51   51 51 51   6 10 9   6 10 9   51 51 51   51 51 51   51 51 51   51 51 51   51 51 51   51 51 51   51 51 51   51 51 51   
51 51 51   51 51 51   51 51 51   21 17 4   21 17 4   21 17 4   21 17 4   21 17 4   34 27 7   54 42 11   69 55 14   79 63 16   83 66 17   21 17 4   51 51 51   51 51 51   51 51 51   51 51 51   51 51 51   24 24 20   24 24 20   24 24 20   93 94 79   147 149 126   12 21 12   12 21 12   28 48 28   59 100 60   86 146 87   110 187 112   132 224 134   152 255 154   169 255 172   183 255 186   189 255 192   51 51 51   51 51 51   51 51 51   51 51 51   51 51 51   51 51 51   51 51 51   51 51 51   51 51 51   51 51 51   51 51 51   51 51 51   51 51 51   51 51 51   51 51 51   51 51 51   
51 51 51   51 51 51   51 51 51   51 51 51   21 17 4   21 17 4   21 17 4   21 17 4   21 17 4   21 17 4   21 17 4   21 17 4   21 17 4   21 17 4   51 51 51   51 51 51   51 51 51   51 51 51   51 51 51   51 51 51   24 24 20   24 24 20   24 24 20   51 52 44   12 21 12   12 21 12   12 21 12   34 58 35   61 104 62   86 145 87   108 182 109   127 215 129   144 244 147   158 255 160   163 255 166   51 51 51   51 51 51   51 51 51   51 51 51   51 51 51   51 51 51   51 51 51   51 51 51   51 51 51   51 51 51   51 51 51   51 51 51   51 51 51   51 51 51   51 51 51   51 51 51   
51 51 51   51 51 51   51 51 51   51 51 51   51 51 51   51 51 51   21 17 4   21 17 4   21 17 4   21 17 4   21 17 4   21 17 4   13 25 15   242 255 255   51 51 51   51 51 51   51 51 51   51 51 51   51 51 51   51 51 51   51 51 51   24 24 20   24 24 20   24 24 20   12 21 12   12 21 12   12 21 12   12 21 12   34 58 35   59 100 60   81 137 82   100 170 102   117 198 119   129 219 131   131 221 133   51 51 51   19 148 163   25 185 204   29 215 237   32 242 255   35 255 255   38 255 255   40 255 255   7 179 255   51 51 51   51 51 51   51 51 51   51 51 51   51 51 51   51 51 51   51 51 51   
51 51 51   51 51 51   51 51 51   51 51 51   51 51 51   51 51 51   13 25 15   13 25 15   13 25 15   13 25 15   13 25 15   13 25 15   13 25 15   226 255 250   193 255 214   51 51 51   34 78 34   4 10 4   4 10 4   4 10 4   51 51 51   51 51 51   51 51 51   51 51 51   16 21 21   12 21 12   12 21 12   12 21 12   12 21 12   29 49 29   51 86 51   70 118 71   86 145 87   96 162 97   6 50 56   15 111 123   20 148 163   24 179 197   27 207 227   31 232 255   34 255 255   37 255 255   39 255 255   42 255 255   51 51 51   51 51 51   51 51 51   51 51 51   51 51 51   51 51 51   51 51 51   
51 51 51   51 51 51   51 51 51   51 51 51   51 51 51   51 51 51   13 25 15   13 25 15   13 25 15   13 25 15   13 25 15   13 25 15   193 255 214   195 255 216   173 255 192   4 10 4   4 10 4   4 10 4   4 10 4   4 10 4   176 121 91   204 140 106   19 18 2   255 255 45   51 51 51   12 21 12   12 21 12   12 21 12   12 21 12   12 21 12   16 28 16   35 59 35   48 82 49   2 17 19   8 65 71   14 104 115   18 137 151   22 167 183   26 193 213   29 218 240   32 242 255   38 255 255   39 255 255   40 255 255   42 255 255   51 51 51   51 51 51   51 51 51   51 51 51   51 51 51   51 51 51   
51 51 51   51 51 51   51 51 51   51 51 51   51 51 51   51 51 51   51 51 51   13 25 15   13 25 15   13 25 15   119 216 132   139 252 155   152 255 168   153 255 170   128 231 142   4 10 4   4 10 4   4 10 4   113 77 58   161 110 83   194 133 100   219 151 114   237 163 123   245 169 127   51 51 51   51 51 51   12 21 12   12 21 12   12 21 12   12 21 12   12 21 12   12 21 12   12 21 12   2 17 19   7 54 60   12 91 100   16 123 135   20 151 166   23 178 195   27 202 222   31 227 249   67 255 255   110 255 255   44 255 255   40 255 255   42 255 255   51 51 51   51 51 51   51 51 51   51 51 51   51 51 51   
51 51 51   51 51 51   51 51 51   51 51 51   51 51 51   51 51 51   159 255 138   213 255 185   239 255 208   244 255 212   69 125 76   89 161 99   65 168 28   102 255 44   123 255 53   137 255 60   145 255 63   59 41 31   117 80 60   156 107 81   186 128 96   211 145 109   233 159 121   243 167 126   245 169 127   51 51 51   51 51 51   51 51 51   51 51 51   12 21 12   51 51 51   18 9 16   2 17 19   2 17 19   5 39 43   10 74 82   14 105 116   18 134 147   21 160 176   24 184 203   28 207 228   46 251 255   116 255 255   62 255 255   38 255 255   40 255 255   51 51 51   51 51 51   51 51 51   51 51 51   51 51 51   
51 51 51   51 51 51   51 51 51   51 51 51   51 51 51   133 222 115   189 255 165   225 255 196   249 255 216   255 255 228   255 255 227   34 87 15   78 199 34   103 255 45   121 255 53   149 255 60   163 255 64   56 38 29   104 72 54   140 97 73   170 117 88   195 134 101   255 189 174   244 161 125   235 162 122   221 152 115   51 51 51   51 51 51   51 51 51   51 51 51   51 51 51   18 9 16   2 17 19   2 17 19   2 17 19   7 56 61   11 86 95   15 115 126   18 141 155   22 165 181   25 188 206   28 210 231   37 239 255   38 255 255   35 255 255   37 255 255   38 255 255   51 51 51   51 51 51   51 51 51   51 51 51   
51 51 51   51 51 51   51 51 51   51 51 51   48 80 42   133 221 115   179 255 156   212 255 184   238 255 205   255 255 231   253 255 220   39 99 17   71 183 31   94 241 41   113 255 49   190 255 60   13 9 7   38 26 19   83 57 43   119 82 62   148 102 77   173 119 89   193 133 100   208 143 108   215 148 111   208 143 108   51 51 51   51 51 51   136 203 41   51 51 51   51 51 51   51 51 51   2 17 19   2 17 19   2 17 19   4 35 38   8 66 72   12 94 103   16 120 132   19 144 159   22 167 184   25 189 207   28 209 229   30 227 250   32 244 255   34 255 255   35 255 255   51 51 51   51 51 51   51 51 51   51 51 51   
51 51 51   51 51 51   51 51 51   51 51 51   41 68 35   110 184 96   154 255 134   186 255 162   209 255 182   225 255 195   230 255 200   28 72 12   58 150 25   81 207 35   98 251 43   119 255 49   13 9 7   13 9 7   57 39 29   92 64 48   122 84 63   146 100 76   166 114 86   180 124 93   188 129 97   182 125 94   56 84 17   9 14 2   9 14 2   9 14 2   51 51 51   51 51 51   2 17 19   2 17 19   2 17 19   2 17 19   5 43 47   9 71 78   13 98 107   16 122 134   19 145 159   22 166 183   25 186 205   27 205 225   29 221 243   31 234 255   32 238 255   51 51 51   51 51 51   51 51 51   51 51 51   
51 51 51   51 51 51   51 51 51   51 51 51   14 24 12   74 124 64   119 198 103   151 251 131   174 255 151   189 255 164   194 255 169   8 20 3   40 104 17   63 161 27   80 205 35   8 20 3   8 20 3   13 9 7   23 16 12   60 41 31   90 62 47   114 79 59   134 92 69   148 102 77   154 106 80   143 99 74   9 14 2   9 14 2   9 14 2   9 14 2   136 203 41   51 51 51   2 17 19   2 17 19   2 17 19   2 17 19   2 17 19   6 47 52   9 74 81   13 98 108   16 121 133   19 143 157   21 163 179   24 181 199   26 197 216   28 209 230   27 203 223   51 51 51   51 51 51   51 51 51   51 51 51   
51 51 51   51 51 51   51 51 51   51 51 51   14 24 12   23 39 20   71 119 62   105 175 91   128 214 112   143 238 124   147 245 128   8 20 3   17 43 7   40 103 17   8 20 3   8 20 3   8 20 3   13 9 7   13 9 7   21 14 11   52 36 27   77 53 40   96 66 50   109 75 56   111 76 58   51 51 51   9 14 2   9 14 2   9 14 2   9 14 2   51 51 51   51 51 51   2 17 19   2 17 19   2 17 19   2 17 19   2 17 19   2 17 19   6 48 52   9 73 80   12 96 105   15 117 129   18 137 151   20 155 170   22 169 186   24 179 197   51 51 51   51 51 51   51 51 51   51 51 51   51 51 51   
51 51 51   51 51 51   51 51 51   41 190 68   55 255 92   62 255 103   65 255 109   64 255 107   70 117 61   83 139 72   14 24 12   8 20 3   8 20 3   8 20 3   8 20 3   8 20 3   8 20 3   8 20 3   13 9 7   13 9 7   13 9 7   31 21 16   49 33 25   58 40 30   47 32 24   51 51 51   9 14 2   9 14 2   9 14 2   56 84 17   51 51 51   51 51 51   51 51 51   2 17 19   2 17 19   2 17 19   2 17 19   2 17 19   2 17 19   6 44 49   9 68 74   12 89 98   14 108 119   16 125 138   18 138 152   18 139 153   51 51 51   51 51 51   51 51 51   51 51 51   51 51 51   
51 51 51   51 51 51   44 205 74   55 255 93   63 255 105   68 255 114   71 255 120   73 255 122   71 255 119   64 255 107   14 24 12   51 51 51   8 20 3   8 20 3   8 20 3   8 20 3   8 20 3   8 20 3   51 51 51   13 9 7   13 9 7   13 9 7   13 9 7   176 201 255   191 219 255   191 223 255   51 51 51   255 18 142   255 24 189   51 51 51   51 51 51   51 51 51   51 51 51   2 17 19   2 17 19   2 17 19   2 17 19   2 17 19   2 17 19   2 17 19   4 36 40   7 57 63   10 76 83   12 91 100   13 97 107   51 51 51   51 51 51   51 51 51   51 51 51   51 51 51   51 51 51   
51 51 51   35 166 60   49 227 82   57 255 96   64 255 107   69 255 115   72 255 121   74 255 124   73 255 123   70 255 118   59 255 99   51 51 51   51 51 51   51 51 51   1 6 3   1 6 3   1 6 3   1 6 3   51 51 51   10 12 19   10 12 19   10 12 19   139 163 255   226 208 255   255 255 255   191 219 255   165 10 86   255 18 149   255 39 206   255 37 230   23 1 12   51 51 51   149 103 4   255 214 10   2 17 19   2 17 19   2 17 19   2 17 19   2 17 19   2 17 19   2 17 19   2 17 19   4 36 39   5 42 47   51 51 51   51 51 51   51 51 51   51 51 51   51 51 51   51 51 51   51 51 51   
19 91 32   37 175 63   48 225 81   56 255 94   62 255 104   67 255 112   98 255 123   78 255 122   72 255 121   70 255 117   63 255 106   51 51 51   51 51 51   1 6 3   1 6 3   1 6 3   1 6 3   1 6 3   51 51 51   10 12 19   59 69 109   95 111 175   123 144 227   157 173 255   226 208 255   23 1 12   133 8 69   244 16 127   255 49 196   255 175 255   255 26 212   24 16 0   126 87 4   255 185 8   255 255 31   255 255 14   2 17 19   2 17 19   2 17 19   2 17 19   2 17 19   2 17 19   76 82 27   126 135 46   158 169 57   51 51 51   51 51 51   51 51 51   51 51 51   51 51 51   51 51 51   
20 96 34   35 166 59   45 212 76   53 247 89   59 255 98   63 255 106   68 255 111   69 255 114   68 255 114   66 255 111   61 255 102   4 18 6   1 6 3   1 6 3   1 6 3   1 6 3   1 6 3   1 6 3   1 6 3   10 12 19   37 43 68   73 85 135   101 118 186   123 144 227   139 163 255   23 1 12   65 4 34   177 11 92   255 17 135   255 21 166   255 22 177   24 16 0   42 29 1   183 126 6   255 198 9   255 240 11   51 51 51   51 51 51   51 51 51   51 51 51   51 51 51   8 9 3   53 57 19   102 110 38   147 182 101   51 51 51   51 51 51   51 51 51   51 51 51   51 51 51   51 51 51   
17 78 28   31 144 52   40 189 68   48 223 80   53 249 90   58 255 97   61 255 102   62 255 105   63 255 105   61 255 102   55 255 93   4 18 6   20 7 23   1 6 3   14 13 24   14 13 24   1 6 3   1 6 3   1 6 3   10 12 19   10 12 19   44 52 82   73 85 135   95 111 175   110 129 204   10 12 19   23 1 12   82 5 43   166 11 87   221 14 115   23 1 12   51 51 51   24 16 0   61 42 2   163 113 5   208 144 6   51 51 51   51 51 51   51 51 51   51 51 51   51 51 51   8 9 3   15 16 5   65 70 23   103 111 37   51 51 51   51 51 51   51 51 51   51 51 51   51 51 51   51 51 51   
9 44 16   24 112 40   34 157 56   41 191 69   47 218 78   51 237 85   54 251 90   55 255 93   55 255 93   53 248 89   47 219 79   14 13 24   14 13 24   14 13 24   14 13 24   14 13 24   14 13 24   14 13 24   14 13 24   51 51 51   10 12 19   10 12 19   37 43 68   59 69 109   10 12 19   10 12 19   23 1 12   23 1 12   32 2 16   71 4 37   51 51 51   51 51 51   51 51 51   24 16 0   24 16 0   51 51 51   51 51 51   51 51 51   51 51 51   51 51 51   51 51 51   51 51 51   8 9 3   14 15 5   48 52 17   51 51 51   51 51 51   51 51 51   51 51 51   51 51 51   51 51 51   
4 18 6   14 68 24   25 116 42   32 152 54   38 178 64   42 198 71   45 211 76   46 217 78   46 214 77   43 200 72   34 161 58   165 147 255   196 174 255   219 195 255   238 212 255   14 13 24   14 13 24   255 235 255   255 231 255   234 208 255   51 51 51   10 12 19   10 12 19   10 12 19   10 12 19   51 51 51   51 51 51   51 51 51   51 51 51   51 51 51   51 51 51   51 51 51   20 144 56   32 232 91   39 255 112   51 51 51   51 51 51   51 51 51   51 51 51   51 51 51   51 51 51   51 51 51   51 51 51   51 51 51   51 51 51   51 51 51   51 51 51   51 51 51   51 51 51   51 51 51   51 51 51   
51 51 51   4 18 6   13 62 22   21 101 36   27 129 46   32 149 53   34 161 58   35 164 59   34 158 57   29 134 48   141 126 236   176 157 255   203 181 255   225 200 255   242 215 255   255 227 255   255 236 255   255 241 255   255 240 255   255 231 255   14 13 24   51 51 51   51 51 51   51 51 51   51 51 51   51 51 51   51 51 51   51 51 51   51 51 51   51 51 51   51 51 51   3 23 9   19 139 54   30 219 86   168 255 247   43 255 121   51 51 51   51 51 51   51 51 51   51 51 51   51 51 51   51 51 51   51 51 51   51 51 51   51 51 51   51 51 51   51 51 51   51 51 51   51 51 51   51 51 51   51 51 51   
51 51 51   51 51 51   4 18 6   7 33 11   13 64 23   18 84 30   20 95 34   20 94 34   16 77 27   107 95 178   148 131 246   179 159 255   203 181 255   224 199 255   240 214 255   254 226 255   255 236 255   255 240 255   255 241 255   255 235 255   14 13 24   51 51 51   51 51 51   51 51 51   51 51 51   51 51 51   51 51 51   25 20 10   25 20 10   25 20 10   25 20 10   2 17 6   14 101 39   25 181 71   45 246 107   38 255 109   51 51 51   51 51 51   51 51 51   51 51 51   51 51 51   51 51 51   51 51 51   51 51 51   51 51 51   51 51 51   51 51 51   51 51 51   51 51 51   51 51 51   51 51 51   
51 51 51   51 51 51   51 51 51   4 18 6   4 18 6   4 18 6   4 18 6   4 18 6   56 49 93   109 97 182   146 130 244   175 156 255   199 177 255   218 194 255   235 209 255   251 227 255   255 255 255   255 236 255   255 236 255   255 232 255   244 218 255   127 28 93   51 51 51   51 51 51   51 51 51   51 51 51   25 20 10   25 20 10   25 20 10   25 20 10   25 20 10   25 20 10   5 42 16   17 124 48   25 184 72   30 219 85   51 51 51   51 51 51   51 51 51   51 51 51   51 51 51   51 51 51   15 126 81   33 255 181   51 51 51   51 51 51   51 51 51   51 51 51   51 51 51   51 51 51   51 51 51   
51 51 51   51 51 51   51 51 51   51 51 51   51 51 51   20 7 23   20 7 23   20 7 23   57 50 94   105 93 175   140 124 233   168 149 255   191 170 255   210 187 255   225 201 255   238 212 255   251 227 255   254 226 255   255 227 255   251 224 255   120 27 88   180 40 132   212 47 156   202 45 148   51 51 51   51 51 51   25 20 10   25 20 10   25 20 10   25 20 10   25 20 10   255 255 255   255 255 177   5 42 16   14 101 39   16 117 45   138 162 142   229 255 235   255 255 255   51 51 51   51 51 51   2 20 13   13 116 75   31 255 170   43 255 232   51 51 51   51 51 51   51 51 51   51 51 51   51 51 51   51 51 51   
51 51 51   51 51 51   51 51 51   51 51 51   51 51 51   51 51 51   20 7 23   14 13 24   49 43 81   95 84 158   129 115 215   156 139 255   179 159 255   197 176 255   213 190 255   225 201 255   235 209 255   240 214 255   242 215 255   24 5 18   117 26 86   173 39 127   209 211 255   210 47 154   51 51 51   25 20 10   25 20 10   163 130 68   255 255 172   255 255 255   255 255 255   255 255 255   255 255 181   0 8 25   22 255 255   14 155 255   14 142 255   217 255 224   255 255 255   255 255 255   51 51 51   2 20 13   2 20 13   21 178 115   33 255 182   51 51 51   51 51 51   51 51 51   51 51 51   51 51 51   51 51 51   
51 51 51   51 51 51   51 51 51   51 51 51   51 51 51   51 51 51   20 7 23   20 7 23   33 30 56   80 71 133   114 102 190   141 126 235   164 146 255   182 162 255   197 176 255   210 187 255   218 194 255   224 199 255   225 200 255   11 2 8   89 20 65   143 32 105   175 39 128   179 40 132   51 51 51   51 51 51   25 20 10   104 83 43   205 167 92   255 255 187   255 255 246   255 255 231   255 255 137   11 118 255   16 204 255   14 148 255   13 136 255   177 208 182   250 255 255   255 255 255   51 51 51   51 51 51   2 20 13   4 40 26   14 122 79   51 51 51   51 51 51   51 51 51   51 51 51   51 51 51   51 51 51   
51 51 51   51 51 51   51 51 51   51 51 51   51 51 51   51 51 51   51 51 51   20 7 23   14 13 24   60 53 100   95 85 158   123 109 204   145 129 242   164 146 255   179 159 255   191 170 255   199 177 255   203 181 255   203 181 255   11 2 8   34 7 25   91 20 67   121 27 89   111 25 81   51 51 51   51 51 51   25 20 10   25 20 10   120 96 50   193 154 81   255 208 117   255 211 111   7 74 233   9 94 255   11 111 255   12 121 255   12 122 255   116 136 119   181 212 186   212 249 218   51 51 51   51 51 51   51 51 51   51 51 51   51 51 51   51 51 51   51 51 51   51 51 51   51 51 51   51 51 51   51 51 51   
51 51 51   51 51 51   51 51 51   51 51 51   51 51 51   51 51 51   51 51 51   51 51 51   14 13 24   33 29 55   71 63 118   100 89 166   123 109 204   141 126 235   156 139 255   168 149 255   175 156 255   179 159 255   176 157 255   14 13 24   14 13 24   11 2 8   11 2 8   23 4 8   51 51 51   51 51 51   51 51 51   25 20 10   25 20 10   84 67 35   126 101 53   3 31 98   5 56 176   7 76 239   9 91 255   10 101 255   9 99 255   16 19 17   85 99 87   51 51 51   51 51 51   51 51 51   51 51 51   51 51 51   51 51 51   51 51 51   51 51 51   51 51 51   51 51 51   51 51 51   51 51 51   
51 51 51   51 51 51   51 51 51   51 51 51   51 51 51   51 51 51   51 51 51   51 51 51   24 24 12   14 13 24   35 53 49   58 89 81   69 104 95   74 112 102   74 112 102   140 124 233   146 130 244   148 131 246   141 126 236   14 13 24   23 4 8   255 59 116   255 71 139   23 4 8   23 4 8   51 51 51   51 51 51   51 51 51   51 51 51   51 51 51   0 8 25   0 8 25   3 32 102   5 53 166   6 67 212   7 74 233   51 51 51   51 51 51   51 51 51   51 51 51   51 51 51   51 51 51   51 51 51   51 51 51   51 51 51   51 51 51   51 51 51   51 51 51   51 51 51   51 51 51   51 51 51   
51 51 51   51 51 51   51 51 51   51 51 51   51 51 51   51 51 51   51 51 51   51 51 51   51 51 51   51 77 71   67 101 92   77 117 107   85 128 117   90 136 124   92 139 127   91 138 126   84 127 116   107 95 178   90 80 150   23 4 8   242 44 86   255 60 118   255 71 140   255 79 154   23 4 8   51 51 51   51 51 51   51 51 51   51 51 51   51 51 51   51 51 51   0 8 25   0 8 25   1 19 61   3 31 97   51 51 51   51 51 51   51 51 51   51 51 51   51 51 51   51 51 51   51 51 51   51 51 51   51 51 51   51 51 51   51 51 51   51 51 51   51 51 51   51 51 51   51 51 51   51 51 51   
51 51 51   51 51 51   51 51 51   51 51 51   51 51 51   51 51 51   51 51 51   16 25 23   49 74 68   65 99 90   77 116 106   85 130 118   92 140 128   97 147 134   100 151 138   100 152 139   97 147 135   87 132 121   51 51 51   101 18 36   223 40 79   255 56 110   255 67 131   255 74 144   255 74 146   23 4 8   51 51 51   51 51 51   51 51 51   51 51 51   51 51 51   51 51 51   51 51 51   51 51 51   51 51 51   51 51 51   51 51 51   51 51 51   51 51 51   51 51 51   51 51 51   51 51 51   51 51 51   51 51 51   51 51 51   51 51 51   51 51 51   51 51 51   51 51 51   51 51 51   51 51 51   
51 51 51   51 51 51   51 51 51   51 51 51   51 51 51   51 51 51   51 51 51   40 61 56   59 89 82   72 109 100   82 124 114   90 136 125   96 146 133   101 152 139   103 157 143   104 158 145   103 156 142   97 147 134   78 118 108   57 10 20   181 33 64   255 48 94   255 59 116   255 65 128   255 65 128   51 51 51   51 51 51   51 51 51   51 51 51   51 51 51   51 51 51   51 51 51   51 51 51   51 51 51   51 51 51   51 51 51   51 51 51   51 51 51   51 51 51   51 51 51   51 51 51   51 51 51   51 51 51   51 51 51   51 51 51   51 51 51   51 51 51   51 51 51   51 51 51   51 51 51   51 51 51   
51 51 51   51 51 51   51 51 51   51 51 51   51 51 51   51 51 51   26 39 36   49 74 68   64 97 89   75 114 105   85 128 117   92 139 127   98 148 136   103 156 142   106 160 146   106 161 147   105 159 146   101 152 139   89 135 123   23 4 8   111 20 40   200 36 71   255 47 92   255 52 103   255 50 98   51 51 51   51 51 51   51 51 51   51 51 51   51 51 51   51 51 51   51 51 51   51 51 51   51 51 51   51 51 51   51 51 51   51 51 51   51 51 51   51 51 51   51 51 51   51 51 51   51 51 51   51 51 51   51 51 51   51 51 51   51 51 51   51 51 51   51 51 51   51 51 51   51 51 51   51 51 51   
51 51 51   51 51 51   51 51 51   51 51 51   51 51 51   51 51 51   34 51 47   52 80 73   66 100 92   77 116 106   85 129 118   92 140 128   99 149 136   148 220 191   154 229 199   106 161 147   105 159 146   101 153 140   92 139 127   51 51 51   23 4 8   98 18 35   156 28 56   172 31 61   51 51 51   51 51 51   51 51 51   51 51 51   51 51 51   100 213 93   141 255 131   51 51 51   51 51 51   51 51 51   51 51 51   51 51 51   51 51 51   51 51 51   51 51 51   51 51 51   51 51 51   51 51 51   51 51 51   51 51 51   51 51 51   51 51 51   51 51 51   51 51 51   51 51 51   51 51 51   51 51 51   
51 51 51   51 51 51   51 51 51   51 51 51   51 51 51   9 14 13   37 56 51   54 81 74   66 100 92   76 116 106   85 128 117   91 138 126   98 148 135   171 252 216   170 251 215   105 159 145   103 157 143   100 151 138   91 138 126   51 51 51   51 51 51   51 51 51   51 51 51   51 51 51   51 51 51   51 51 51   51 51 51   51 51 51   68 145 63   131 255 122   172 255 160   193 255 178   51 51 51   51 51 51   51 51 51   51 51 51   51 51 51   51 51 51   51 51 51   51 51 51   51 51 51   51 51 51   51 51 51   51 51 51   51 51 51   51 51 51   51 51 51   51 51 51   51 51 51   51 51 51   51 51 51   
51 51 51   51 51 51   51 51 51   51 51 51   51 51 51   13 20 18   37 56 51   53 80 73   65 98 90   75 113 103   82 125 114   89 135 123   94 143 130   101 153 139   103 156 142   101 153 140   100 152 139   96 146 134   87 132 121   51 51 51   51 51 51   51 51 51   51 51 51   51 51 51   51 51 51   51 51 51   51 51 51   11 23 10   74 157 68   133 255 123   174 255 161   198 255 183   193 255 179   51 51 51   51 51 51   51 51 51   51 51 51   51 51 51   51 51 51   51 51 51   51 51 51   51 51 51   51 51 51   51 51 51   51 51 51   51 51 51   51 51 51   51 51 51   51 51 51   51 51 51   51 51 51   
51 51 51   51 51 51   51 51 51   51 51 51   51 51 51   12 19 17   35 53 49   50 76 70   62 94 86   72 108 99   79 120 110   86 130 119   90 137 125   94 143 130   96 146 134   97 147 134   96 145 133   91 138 126   81 122 112   51 51 51   51 51 51   51 51 51   51 51 51   51 51 51   51 51 51   51 51 51   51 51 51   11 23 10   61 130 56   119 254 110   160 255 148   186 255 172   187 255 173   51 51 51   51 51 51   51 51 51   51 51 51   51 51 51   51 51 51   51 51 51   51 51 51   51 51 51   51 51 51   51 51 51   51 51 51   51 51 51   51 51 51   51 51 51   51 51 51   51 51 51   51 51 51   
51 51 51   51 51 51   51 51 51   51 51 51   51 51 51   8 12 11   31 47 43   46 70 64   58 88 80   67 102 93   75 113 104   81 123 112   86 130 119   89 135 123   91 138 126   91 138 127   89 135 124   84 127 116   71 107 98   51 51 51   51 51 51   51 51 51   51 51 51   51 51 51   51 51 51   51 51 51   51 51 51   11 23 10   33 70 30   93 199 86   135 255 125   160 255 148   156 255 144   51 51 51   51 51 51   51 51 51   51 51 51   51 51 51   51 51 51   51 51 51   51 51 51   51 51 51   51 51 51   51 51 51   51 51 51   51 51 51   51 51 51   51 51 51   51 51 51   51 51 51   51 51 51   
51 51 51   51 51 51   51 51 51   51 51 51   51 51 51   5 8 8   24 37 34   40 61 56   52 79 72   62 93 85   69 105 96   75 114 104   80 121 110   83 125 115   84 128 117   84 127 117   81 123 113   74 112 102   51 77 70   51 51 51   51 51 51   51 51 51   51 51 51   51 51 51   51 51 51   51 51 51   51 51 51   51 51 51   11 23 10   51 109 47   94 201 87   115 245 107   51 51 51   51 51 51   51 51 51   51 51 51   51 51 51   51 51 51   51 51 51   51 51 51   51 51 51   51 51 51   51 51 51   51 51 51   51 51 51   51 51 51   51 51 51   51 51 51   51 51 51   51 51 51   51 51 51   
