P3
51 51
255
51 51 51   51 51 51   51 51 51   51 51 51   51 51 51   51 51 51   51 51 51   51 51 51   51 51 51   51 51 51   51 51 51   51 51 51   51 51 51   51 51 51   51 51 51   51 51 51   51 51 51   51 51 51   51 51 51   51 51 51   51 51 51   51 51 51   51 51 51   51 51 51   51 51 51   51 51 51   35 69 186   43 85 228   49 96 255   54 107 255   59 116 255   63 125 255   8 15 14   23 43 41   38 69 67   51 94 90   63 116 111   74 137 131   86 158 151   96 178 170   115 231 215   164 255 255   128 238 227   137 253 242   147 255 255   51 51 51   51 51 51   51 51 51   51 51 51   51 51 51   51 51 51   
51 51 51   51 51 51   51 51 51   51 51 51   51 51 51   51 51 51   51 51 51   51 51 51   51 51 51   51 51 51   51 51 51   51 51 51   237 63 186   255 72 211   255 78 231   255 84 246   255 87 255   51 51 51   51 51 51   51 51 51   51 51 51   51 51 51   51 51 51   51 51 51   51 51 51   26 52 140   34 67 181   40 79 214   45 90 244   51 100 255   55 110 255   60 118 255   8 15 14   13 25 24   27 51 49   40 74 71   52 97 93   64 118 113   75 138 133   86 158 152   97 180 172   124 255 246   121 232 219   127 234 224   136 251 241   51 51 51   51 51 51   51 51 51   51 51 51   51 51 51   51 51 51   
51 51 51   51 51 51   51 51 51   51 51 51   51 51 51   51 51 51   51 51 51   51 51 51   51 51 51   51 51 51   152 40 120   201 53 158   235 62 184   255 70 206   255 76 225   255 82 241   255 86 254   255 90 255   255 90 255   51 51 51   51 51 51   51 51 51   51 51 51   51 51 51   15 29 80   23 47 126   30 60 162   36 72 194   41 82 223   47 92 250   51 102 255   3 7 19   8 15 14   8 15 14   17 31 30   29 55 52   42 77 74   53 98 94   64 119 114   75 139 133   86 158 151   96 177 170   106 196 188   116 214 205   126 231 222   51 51 51   51 51 51   51 51 51   51 51 51   51 51 51   51 51 51   
51 51 51   51 51 51   51 51 51   51 51 51   51 51 51   51 51 51   51 51 51   51 51 51   51 51 51   92 24 72   151 40 118   189 50 148   220 58 172   247 66 193   255 72 212   255 77 228   255 82 243   255 86 254   255 89 255   255 88 255   51 51 51   51 51 51   51 51 51   3 7 19   12 24 65   19 39 105   26 52 140   32 63 171   37 74 199   42 84 226   47 94 251   8 15 14   8 15 14   8 15 14   8 15 14   18 34 33   30 56 54   42 78 75   53 99 94   64 118 114   75 138 132   85 157 150   95 175 168   105 193 185   114 211 202   51 51 51   51 51 51   51 51 51   51 51 51   51 51 51   51 51 51   
51 51 51   51 51 51   51 51 51   51 51 51   51 51 51   51 51 51   51 51 51   51 51 51   51 51 51   89 23 70   135 36 106   170 45 133   200 53 157   226 60 177   249 66 196   255 73 214   255 105 255   255 90 254   255 84 248   255 86 253   255 81 237   51 51 51   51 51 51   3 7 19   8 15 42   15 30 81   21 42 115   27 54 146   32 65 174   37 74 201   3 7 19   8 15 14   8 15 14   8 15 14   8 15 14   8 15 14   19 35 34   31 57 54   42 78 74   53 98 94   63 117 112   74 136 130   84 155 148   94 172 165   103 189 182   51 51 51   51 51 51   51 51 51   51 51 51   51 51 51   51 51 51   
51 51 51   51 51 51   51 51 51   51 51 51   51 51 51   51 51 51   51 51 51   161 104 76   18 4 14   70 18 55   113 30 88   147 39 115   177 47 138   203 54 159   226 60 177   247 66 194   255 83 230   255 96 255   255 79 232   255 81 238   255 80 237   51 51 51   51 51 51   3 7 19   3 7 19   10 20 55   16 33 88   22 44 119   27 55 148   32 65 175   3 7 19   8 15 14   8 15 14   8 15 14   8 15 14   8 15 14   8 15 14   19 35 33   30 56 54   41 76 73   52 96 92   62 115 110   72 133 127   82 151 144   90 167 160   51 51 51   51 51 51   51 51 51   51 51 51   51 51 51   51 51 51   
51 51 51   51 51 51   51 51 51   51 51 51   51 51 51   51 51 51   128 83 61   184 119 87   18 4 14   45 12 35   87 23 68   121 32 95   150 40 118   176 47 138   200 53 157   221 59 173   240 64 188   255 69 201   255 72 211   255 74 219   255 75 220   51 51 51   51 51 51   3 7 19   3 7 19   3 7 19   11 22 60   17 33 91   22 44 120   27 54 146   3 7 19   3 7 19   8 15 14   8 15 14   8 15 14   8 15 14   8 15 14   8 15 14   18 33 32   29 53 51   40 73 70   50 92 88   60 110 106   69 127 122   77 142 136   51 51 51   51 51 51   51 51 51   51 51 51   51 51 51   51 51 51   
51 51 51   51 51 51   51 51 51   51 51 51   51 51 51   14 9 6   107 69 51   14 9 6   18 4 14   18 4 14   57 15 44   91 24 72   121 32 95   147 39 116   171 45 134   192 51 151   211 56 166   228 61 178   241 64 189   251 67 197   254 68 199   18 4 14   55 255 255   3 7 19   3 7 19   3 7 19   5 10 29   11 22 60   16 33 89   3 7 19   3 7 19   3 7 19   8 15 14   8 15 14   8 15 14   8 15 14   8 15 14   8 15 14   8 15 14   16 30 28   27 49 47   37 68 65   47 86 82   55 102 98   51 51 51   51 51 51   51 51 51   51 51 51   51 51 51   51 51 51   51 51 51   
51 51 51   51 51 51   51 51 51   51 51 51   51 51 51   14 9 6   56 215 188   14 9 6   18 4 14   18 4 14   18 4 14   58 15 46   89 23 70   116 31 91   140 37 109   161 43 126   180 48 141   196 52 154   210 56 165   220 58 172   223 59 175   18 4 14   51 255 255   3 7 19   3 7 19   3 7 19   3 7 19   5 10 28   10 21 57   3 7 19   3 7 19   3 7 19   8 15 14   8 15 14   8 15 14   8 15 14   8 15 14   8 15 14   8 15 14   8 15 14   13 24 23   23 42 41   32 60 57   39 73 70   51 51 51   51 51 51   51 51 51   51 51 51   51 51 51   51 51 51   51 51 51   
51 51 51   51 51 51   51 51 51   39 150 131   52 201 176   59 231 201   65 252 220   69 255 234   72 255 243   4 15 13   18 4 14   18 4 14   54 14 42   81 21 63   105 28 83   127 34 100   146 39 115   162 43 127   176 47 138   185 49 145   18 4 14   18 4 14   3 24 24   3 7 19   3 7 19   3 7 19   3 7 19   3 7 19   3 7 19   3 7 19   3 7 19   3 7 19   3 7 19   8 15 14   8 15 14   8 15 14   8 15 14   8 15 14   8 15 14   8 15 14   8 15 14   8 15 14   15 28 27   51 51 51   51 51 51   51 51 51   51 51 51   51 51 51   51 51 51   51 51 51   51 51 51   
51 51 51   51 51 51   30 118 103   44 170 148   52 202 177   59 228 199   64 248 216   68 255 231   71 255 241   73 255 247   4 15 13   18 4 14   18 4 14   43 11 33   68 18 53   90 24 70   109 29 85   125 33 98   137 36 108   145 38 114   18 4 14   3 24 24   3 24 24   3 7 19   3 7 19   3 7 19   3 7 19   3 7 19   3 7 19   3 7 19   3 7 19   3 7 19   3 7 19   8 15 14   8 15 14   8 15 14   8 15 14   8 15 14   8 15 14   8 15 14   8 15 14   8 15 14   51 51 51   51 51 51   51 51 51   51 51 51   51 51 51   51 51 51   51 51 51   51 51 51   51 51 51   
51 51 51   51 51 51   31 122 107   42 162 141   49 191 167   55 215 188   61 235 205   65 251 220   73 255 247   71 255 239   71 255 242   4 15 13   18 4 14   18 4 14   25 6 20   48 12 37   67 18 52   83 22 65   94 25 74   99 26 78   18 4 14   3 24 24   3 24 24   3 24 24   3 7 19   3 7 19   3 7 19   3 7 19   3 7 19   3 7 19   3 7 19   3 7 19   3 7 19   3 7 19   159 49 77   8 15 14   8 15 14   8 15 14   8 15 14   8 15 14   51 51 51   51 51 51   51 51 51   51 51 51   51 51 51   51 51 51   51 51 51   51 51 51   51 51 51   51 51 51   51 51 51   
51 51 51   14 54 47   28 109 95   37 145 127   45 174 152   51 197 172   56 217 189   60 233 204   98 255 255   81 255 255   67 255 228   67 255 228   18 4 14   18 4 14   18 4 14   18 4 14   18 4 14   34 9 27   43 11 34   18 4 14   15 5 21   15 5 21   15 5 21   15 5 21   15 5 21   3 7 19   3 7 19   3 7 19   3 7 19   3 7 19   3 7 19   3 7 19   3 7 19   12 4 6   12 4 6   12 4 6   209 64 101   230 71 111   73 209 255   73 130 255   51 51 51   51 51 51   51 51 51   36 252 149   50 255 207   51 51 51   51 51 51   51 51 51   51 51 51   51 51 51   51 51 51   
51 51 51   9 37 33   23 88 77   32 123 108   39 151 132   45 175 153   50 194 170   54 211 184   58 224 196   61 234 205   62 240 210   62 241 211   60 233 203   255 108 218   255 126 254   255 141 255   255 226 255   255 222 255   255 169 255   24 10 20   15 5 21   15 5 21   15 5 21   15 5 21   15 5 21   15 5 21   51 51 51   3 7 19   3 7 19   3 7 19   3 7 19   3 7 19   12 4 6   12 4 6   12 4 6   12 4 6   192 63 96   213 66 103   230 71 111   58 104 255   51 51 51   51 51 51   10 70 42   26 186 110   162 255 188   53 255 217   51 51 51   51 51 51   51 51 51   51 51 51   51 51 51   
51 51 51   4 15 13   15 61 53   25 97 84   32 125 109   38 148 130   43 168 147   48 185 161   51 198 173   54 209 182   55 215 188   56 217 189   54 209 183   228 92 185   255 110 221   255 125 252   255 138 255   255 149 255   255 154 255   24 10 20   24 10 20   15 5 21   15 5 21   15 5 21   15 5 21   15 5 21   15 5 21   51 51 51   51 51 51   51 51 51   51 51 51   12 4 6   12 4 6   12 4 6   12 4 6   12 4 6   168 52 82   192 63 96   209 64 101   211 65 102   51 51 51   3 21 12   3 21 12   13 96 57   28 195 115   40 255 164   51 51 51   51 51 51   51 51 51   51 51 51   51 51 51   
51 51 51   4 15 13   7 27 24   16 65 57   24 94 82   30 118 103   36 138 121   40 155 136   43 169 147   46 179 156   48 185 162   48 187 163   46 179 156   180 72 146   225 90 182   255 106 213   255 118 239   255 128 255   255 135 255   24 10 20   24 10 20   15 5 21   15 5 21   15 5 21   15 5 21   15 5 21   15 5 21   51 51 51   51 51 51   51 51 51   12 4 6   12 4 6   12 4 6   12 4 6   12 4 6   12 4 6   142 44 69   165 51 80   183 57 89   191 59 93   51 51 51   3 21 12   3 21 12   3 21 12   12 89 52   23 165 98   51 51 51   51 51 51   51 51 51   51 51 51   51 51 51   
51 51 51   4 15 13   4 15 13   7 27 24   15 58 51   21 84 73   27 104 91   31 121 106   35 135 118   37 145 127   39 151 132   39 151 132   36 141 123   124 50 100   170 68 138   208 84 169   240 96 194   255 106 214   255 112 226   24 10 20   24 10 20   15 5 21   15 5 21   15 5 21   15 5 21   15 5 21   15 5 21   64 15 130   120 29 242   149 36 255   12 4 6   12 4 6   12 4 6   12 4 6   12 4 6   87 27 42   113 35 55   136 42 66   12 4 6   159 49 77   51 51 51   51 51 51   3 21 12   3 21 12   3 21 12   51 51 51   51 51 51   51 51 51   51 51 51   51 51 51   51 51 51   
51 51 51   51 51 51   4 15 13   4 15 13   4 15 13   11 43 38   16 65 57   21 83 72   25 96 84   27 106 92   28 110 96   28 108 94   24 10 20   58 23 47   106 42 86   145 58 117   176 71 143   200 80 162   213 86 173   24 10 20   15 5 21   15 5 21   15 5 21   15 5 21   15 5 21   15 5 21   15 5 21   16 3 33   8 2 17   8 2 17   51 51 51   12 4 6   12 4 6   12 4 6   26 8 12   55 17 27   81 25 39   103 32 50   12 4 6   51 51 51   51 51 51   51 51 51   51 51 51   51 51 51   51 51 51   51 51 51   51 51 51   51 51 51   51 51 51   51 51 51   51 51 51   
51 51 51   51 51 51   51 51 51   4 15 13   4 15 13   4 15 13   4 15 13   9 37 32   13 50 44   15 59 51   16 61 53   13 53 46   24 10 20   24 10 20   24 10 20   70 28 57   102 41 82   123 49 100   131 53 107   24 10 20   15 5 21   15 5 21   15 5 21   15 5 21   15 5 21   15 5 21   15 5 21   8 2 17   8 2 17   51 51 51   51 51 51   12 4 6   12 4 6   12 4 6   12 4 6   18 5 9   44 13 21   12 4 6   12 4 6   51 51 51   51 51 51   51 51 51   51 51 51   140 200 46   175 250 58   51 51 51   51 51 51   51 51 51   51 51 51   51 51 51   51 51 51   
51 51 51   51 51 51   51 51 51   123 124 77   231 232 144   255 255 181   255 255 208   255 255 225   255 255 235   255 255 234   255 255 208   51 51 51   24 10 20   24 10 20   24 10 20   24 10 20   24 10 20   24 10 20   24 10 20   15 5 21   15 5 21   15 5 21   15 5 21   15 5 21   15 5 21   15 5 21   51 51 51   51 51 51   14 19 21   51 51 51   51 51 51   51 51 51   9 22 12   9 22 12   113 255 155   137 255 187   9 22 12   9 22 12   51 51 51   51 51 51   51 51 51   36 51 12   88 126 29   130 186 43   166 238 55   197 255 65   211 255 70   51 51 51   51 51 51   51 51 51   51 51 51   
51 51 51   51 51 51   51 51 51   132 133 82   214 214 133   255 255 167   255 255 192   255 255 214   255 255 247   255 255 223   255 255 211   51 51 51   51 51 51   19 15 23   24 10 20   24 10 20   24 10 20   19 15 23   19 15 23   19 15 23   15 5 21   15 5 21   15 5 21   15 5 21   15 5 21   51 51 51   14 19 21   14 19 21   14 19 21   14 19 21   14 19 21   9 22 12   39 97 54   73 179 100   100 246 137   124 255 169   175 255 230   9 22 12   9 22 12   51 51 51   11 16 3   18 26 6   66 94 22   106 152 35   143 204 48   255 255 250   200 255 66   51 51 51   51 51 51   51 51 51   51 51 51   
51 51 51   51 51 51   51 51 51   99 99 62   176 177 110   229 230 143   255 255 167   255 255 185   82 148 51   102 185 63   113 203 70   119 215 74   123 221 76   122 220 75   19 15 23   19 15 23   19 15 23   19 15 23   19 15 23   19 15 23   19 15 23   19 15 23   21 11 15   21 11 15   21 11 15   14 19 21   14 19 21   14 19 21   14 19 21   14 19 21   14 19 21   9 22 12   24 59 33   56 138 77   83 204 114   107 255 146   127 255 174   143 255 196   9 22 12   51 51 51   11 16 3   11 16 3   37 53 12   77 110 25   113 162 37   145 207 48   172 245 57   51 51 51   51 51 51   51 51 51   51 51 51   
51 51 51   51 51 51   51 51 51   42 42 26   122 122 76   177 177 110   75 136 47   95 172 59   108 194 67   117 212 73   125 225 77   131 236 81   135 244 84   138 248 85   138 249 86   135 243 84   19 15 23   19 15 23   19 15 23   19 15 23   19 15 23   19 15 23   21 11 15   21 11 15   21 11 15   14 19 21   14 19 21   14 19 21   14 19 21   14 19 21   14 19 21   9 22 12   9 22 12   35 87 49   63 154 86   86 211 118   106 255 145   123 255 168   9 22 12   51 51 51   11 16 3   11 16 3   11 16 3   44 62 14   80 114 26   111 159 37   137 196 45   51 51 51   51 51 51   51 51 51   51 51 51   
51 51 51   51 51 51   51 51 51   20 20 12   50 50 31   73 133 45   91 165 56   104 187 64   114 205 71   122 220 76   129 233 80   135 243 83   139 251 86   142 255 88   144 255 89   144 255 89   141 254 87   129 232 80   19 15 23   19 15 23   19 15 23   19 15 23   21 11 15   21 11 15   21 11 15   14 19 21   14 19 21   14 19 21   14 19 21   14 19 21   14 19 21   9 22 12   9 22 12   9 22 12   38 95 53   62 152 85   82 201 112   9 22 12   9 22 12   51 51 51   11 16 3   11 16 3   11 16 3   11 16 3   41 59 13   72 103 24   95 135 31   51 51 51   51 51 51   51 51 51   51 51 51   
51 51 51   51 51 51   51 51 51   51 51 51   64 115 39   82 149 51   96 173 59   107 193 66   116 209 72   123 222 76   130 234 80   135 244 84   140 252 87   143 255 89   146 255 90   147 255 91   145 255 90   141 254 87   126 227 78   21 9 4   21 9 4   21 9 4   21 9 4   21 9 4   21 9 4   14 19 21   14 19 21   14 19 21   48 19 132   60 24 163   66 27 180   9 22 12   9 22 12   9 22 12   9 22 12   34 83 46   9 22 12   9 22 12   9 22 12   51 51 51   51 51 51   11 16 3   11 16 3   11 16 3   11 16 3   21 31 7   51 51 51   51 51 51   51 51 51   51 51 51   51 51 51   
51 51 51   51 51 51   51 51 51   48 86 29   70 127 43   85 154 53   97 175 60   107 193 66   115 208 71   123 221 76   129 232 80   134 242 83   139 250 87   144 255 91   145 255 90   146 255 91   146 255 90   143 255 89   137 246 85   180 80 36   245 108 49   255 130 59   255 147 67   255 160 73   255 169 77   255 171 78   25 10 70   43 17 118   55 22 151   65 26 178   72 29 198   78 32 212   78 32 215   9 22 12   9 22 12   9 22 12   9 22 12   9 22 12   51 51 51   51 51 51   51 51 51   51 51 51   51 51 51   51 51 51   51 51 51   51 51 51   51 51 51   51 51 51   51 51 51   51 51 51   51 51 51   
51 51 51   51 51 51   20 37 13   54 97 33   72 129 44   85 153 53   96 173 59   105 190 65   113 204 70   120 217 75   126 228 78   133 237 83   152 246 114   180 254 165   158 255 119   145 255 90   144 255 89   143 255 88   138 249 85   125 226 78   235 104 47   255 125 56   255 141 64   255 206 138   255 181 97   9 3 24   29 12 81   43 17 119   54 22 149   64 26 174   72 29 196   78 32 212   81 33 222   80 33 218   122 255 255   51 51 51   51 51 51   51 51 51   51 51 51   51 51 51   8 15 23   8 15 23   132 255 255   51 51 51   51 51 51   51 51 51   51 51 51   51 51 51   51 51 51   51 51 51   51 51 51   
51 51 51   51 51 51   31 56 19   55 99 34   70 127 44   83 150 51   93 169 58   102 185 63   110 199 68   117 211 72   123 222 76   130 231 83   165 241 144   238 251 255   195 253 194   144 253 94   141 254 87   140 252 87   136 245 84   127 229 79   215 95 43   255 115 52   255 131 60   255 184 118   255 206 138   10 4 29   27 11 75   40 16 111   51 21 140   60 24 165   91 50 218   196 144 255   80 33 216   80 33 219   255 255 255   51 51 51   51 51 51   51 51 51   51 51 51   8 15 23   8 15 23   8 15 23   163 255 255   145 255 255   51 51 51   51 51 51   51 51 51   51 51 51   51 51 51   51 51 51   51 51 51   
51 51 51   51 51 51   32 58 20   53 95 32   67 122 42   79 143 49   90 162 55   98 177 61   106 191 66   113 203 70   118 214 73   124 223 77   137 231 97   165 239 147   157 243 127   138 245 88   136 246 85   135 244 84   132 238 82   125 225 77   95 171 59   231 102 46   255 118 54   255 131 60   4 1 12   7 3 20   23 9 63   35 14 97   46 19 126   55 22 151   67 29 177   134 89 255   77 34 207   76 31 208   71 29 195   90 201 189   51 51 51   51 51 51   51 51 51   8 15 23   27 52 75   66 128 187   99 192 255   125 241 255   51 51 51   51 51 51   51 51 51   51 51 51   51 51 51   51 51 51   51 51 51   
51 51 51   8 14 4   29 53 18   49 88 30   63 114 39   75 135 46   85 153 52   93 168 58   101 182 62   107 194 66   113 204 70   118 213 73   123 221 77   127 227 81   130 232 82   130 235 81   131 236 81   130 234 80   127 228 78   119 215 74   98 177 61   194 85 39   21 9 4   21 9 4   4 1 12   4 1 12   17 7 46   29 12 80   40 16 109   48 20 133   56 23 154   63 26 171   67 27 184   70 28 191   66 27 182   51 51 51   51 51 51   51 51 51   51 51 51   8 15 23   8 15 23   37 71 104   70 135 196   95 183 255   51 51 51   51 51 51   51 51 51   51 51 51   51 51 51   51 51 51   51 51 51   
51 51 51   8 14 4   24 43 15   43 78 26   57 103 35   69 124 43   79 142 49   87 157 54   95 171 59   101 183 63   107 193 66   112 202 69   116 209 72   119 215 74   122 220 76   124 223 77   124 224 77   123 222 76   120 216 74   112 202 70   91 164 56   21 9 4   21 9 4   21 9 4   4 1 12   4 1 12   8 3 24   21 8 59   32 13 87   41 16 112   48 20 133   55 22 150   59 24 162   61 25 168   57 23 155   120 136 255   120 136 255   51 51 51   133 95 9   225 160 16   8 15 23   8 15 23   31 59 87   51 98 144   51 51 51   51 51 51   51 51 51   51 51 51   51 51 51   51 51 51   51 51 51   
51 51 51   8 14 4   16 30 10   36 65 22   50 91 31   62 112 38   72 130 44   80 145 50   88 158 54   94 170 58   100 180 62   105 189 65   109 196 67   112 202 69   115 207 71   116 209 72   116 210 72   115 207 71   111 200 69   103 186 64   74 134 46   21 9 4   21 9 4   21 9 4   21 9 4   4 1 12   4 1 12   12 4 32   22 9 62   32 13 87   39 16 108   45 18 124   50 20 136   51 21 139   6 7 16   6 7 16   123 140 255   19 13 1   19 13 1   19 13 1   255 211 21   255 241 24   51 51 51   51 51 51   51 51 51   51 51 51   51 51 51   51 51 51   51 51 51   51 51 51   51 51 51   
51 51 51   51 51 51   8 14 4   27 48 16   42 75 26   54 97 33   64 115 39   72 131 45   80 144 49   86 156 53   92 166 57   97 175 60   101 182 62   104 188 64   106 192 66   107 194 67   107 194 66   105 190 65   101 182 62   91 164 56   21 9 4   21 9 4   21 9 4   21 9 4   21 9 4   4 1 12   4 1 12   4 1 12   11 4 31   21 8 57   28 11 78   34 14 93   37 15 103   36 14 98   6 7 16   6 7 16   19 13 1   19 13 1   19 13 1   19 13 1   255 199 19   255 233 25   255 252 25   51 51 51   51 51 51   51 51 51   51 51 51   51 51 51   51 51 51   51 51 51   51 51 51   
51 51 51   51 51 51   8 14 4   15 28 9   31 57 19   44 80 27   54 98 34   63 114 39   71 128 44   77 140 48   83 150 51   88 158 54   92 165 57   95 171 59   97 174 60   98 176 60   97 175 60   94 170 58   88 160 55   74 134 46   51 51 51   21 9 4   21 9 4   21 9 4   51 51 51   51 51 51   4 1 12   4 1 12   4 1 12   7 2 19   14 5 39   19 7 52   19 8 53   6 7 16   6 7 16   6 7 16   19 13 1   19 13 1   19 13 1   189 135 13   246 176 17   255 213 25   255 234 23   255 227 22   51 51 51   51 51 51   51 51 51   51 51 51   51 51 51   51 51 51   51 51 51   
51 51 51   51 51 51   8 14 4   8 14 4   19 35 12   33 59 20   44 79 27   53 95 33   60 109 37   67 121 42   73 131 45   78 140 48   81 147 50   84 152 52   86 155 53   86 155 53   85 153 52   81 146 50   72 131 45   51 51 51   18 1 14   18 1 14   18 1 14   18 1 14   51 51 51   10 2 11   20 6 18   151 48 135   4 1 12   4 1 12   4 1 12   6 7 16   6 7 16   6 7 16   6 7 16   6 7 16   19 13 1   19 13 1   78 56 5   147 105 10   205 146 14   252 180 18   255 205 20   255 204 20   51 51 51   51 51 51   51 51 51   51 51 51   51 51 51   51 51 51   51 51 51   
51 51 51   51 51 51   51 51 51   8 14 4   8 14 4   19 34 12   31 56 19   40 73 25   49 88 30   55 100 34   61 110 38   66 119 41   69 125 43   72 130 44   73 132 45   73 131 45   70 127 43   64 116 40   48 88 30   51 51 51   18 1 14   18 1 14   18 1 14   18 1 14   10 2 11   10 2 11   20 6 18   73 23 65   179 57 160   247 79 221   255 83 235   6 7 16   6 7 16   6 7 16   6 7 16   6 7 16   19 13 1   19 13 1   19 13 1   94 67 6   153 109 11   200 143 14   232 166 16   51 51 51   51 51 51   51 51 51   51 51 51   51 51 51   51 51 51   51 51 51   51 51 51   
51 51 51   51 51 51   51 51 51   51 51 51   8 14 4   8 14 4   15 28 9   26 47 16   35 63 21   42 75 26   47 86 29   52 94 32   55 100 34   57 104 35   58 105 36   56 102 35   51 93 32   39 71 24   51 51 51   51 51 51   18 1 14   18 1 14   18 1 14   18 1 14   10 2 11   10 2 11   10 2 11   20 6 18   58 18 52   120 38 107   10 2 11   6 7 16   6 7 16   6 7 16   6 7 16   6 7 16   6 7 16   19 13 1   19 13 1   27 19 1   87 62 6   132 94 9   152 108 10   51 51 51   51 51 51   51 51 51   51 51 51   51 51 51   51 51 51   51 51 51   51 51 51   
51 51 51   51 51 51   51 51 51   51 51 51   51 51 51   8 14 4   8 14 4   8 14 4   17 31 10   25 45 15   31 56 19   35 64 22   38 69 24   39 71 24   38 69 24   34 61 21   21 38 13   16 5 5   16 5 5   51 51 51   18 1 14   18 1 14   18 1 14   18 1 14   10 2 11   10 2 11   10 2 11   10 2 11   156 40 177   226 92 255   220 79 255   10 2 11   10 2 11   6 7 16   6 7 16   51 51 51   51 51 51   51 51 51   19 13 1   19 13 1   19 13 1   51 51 51   51 51 51   51 51 51   51 51 51   51 51 51   51 51 51   51 51 51   51 51 51   51 51 51   51 51 51   
51 51 51   51 51 51   51 51 51   51 51 51   51 51 51   51 51 51   8 14 4   8 14 4   8 14 4   8 14 4   9 16 5   13 24 8   15 28 9   14 26 9   8 14 4   19 18 14   16 5 5   16 5 5   16 5 5   16 5 5   51 51 51   18 1 14   18 1 14   10 2 11   10 2 11   10 2 11   10 2 11   122 30 136   142 35 159   163 43 188   176 46 203   177 43 198   175 43 195   4 19 16   51 51 51   51 51 51   51 51 51   51 51 51   51 51 51   8 18 6   48 107 38   76 168 60   98 217 77   115 255 92   129 255 102   129 255 102   51 51 51   51 51 51   51 51 51   51 51 51   51 51 51   
51 51 51   51 51 51   51 51 51   51 51 51   51 51 51   51 51 51   51 51 51   19 18 14   19 18 14   19 18 14   19 18 14   19 18 14   255 255 255   255 255 255   255 255 234   255 253 197   255 98 97   16 5 5   16 5 5   16 5 5   51 51 51   8 75 47   51 51 51   10 2 11   10 2 11   10 2 11   83 20 92   107 26 120   127 31 142   144 35 161   156 38 174   162 40 181   158 39 177   51 51 51   51 51 51   51 51 51   51 51 51   51 51 51   8 18 6   21 48 17   52 117 41   77 172 61   99 219 78   117 255 93   133 255 106   144 255 114   147 255 116   51 51 51   51 51 51   51 51 51   51 51 51   
51 51 51   51 51 51   51 51 51   51 51 51   51 51 51   51 51 51   51 51 51   19 18 14   128 122 95   192 182 142   236 225 175   255 255 199   255 255 215   255 255 216   255 255 204   211 200 156   255 127 103   255 115 104   7 66 42   9 89 56   11 105 67   12 117 74   13 124 79   13 127 80   13 121 76   33 8 36   63 15 71   88 21 99   109 26 122   125 30 139   136 33 152   141 34 158   133 32 148   51 51 51   51 51 51   51 51 51   51 51 51   51 51 51   8 18 6   21 47 16   50 111 39   74 164 59   95 211 75   115 253 94   146 255 146   152 255 138   151 255 120   146 255 116   51 51 51   51 51 51   51 51 51   
51 51 51   51 51 51   51 51 51   51 51 51   51 51 51   51 51 51   51 51 51   19 18 14   79 75 59   146 139 108   192 182 142   222 211 164   238 226 176   239 227 176   212 202 157   249 86 86   2 22 14   7 64 40   9 88 55   11 105 66   12 119 75   14 129 82   14 137 87   15 142 90   15 143 91   14 137 87   39 9 43   65 16 72   85 21 95   101 25 113   111 27 124   113 27 126   51 51 51   51 51 51   51 51 51   51 51 51   51 51 51   51 51 51   8 18 6   15 34 12   43 96 34   67 150 53   88 196 70   109 239 90   163 255 204   203 255 255   152 255 129   152 255 121   51 51 51   51 51 51   51 51 51   
51 51 51   51 51 51   51 51 51   51 51 51   51 51 51   51 51 51   51 51 51   51 51 51   19 18 14   79 75 59   128 122 95   158 150 117   170 162 126   160 152 118   81 77 60   0 8 5   5 52 33   8 78 49   10 97 61   12 113 71   13 125 79   14 136 86   15 144 91   16 149 94   16 152 96   16 151 95   15 141 89   34 8 38   55 13 61   70 17 78   76 18 86   63 15 70   51 51 51   51 51 51   51 51 51   51 51 51   51 51 51   51 51 51   8 18 6   8 18 6   34 76 27   58 130 46   79 176 63   98 218 78   128 255 126   173 255 220   149 255 136   147 255 116   51 51 51   51 51 51   51 51 51   
51 51 51   51 51 51   51 51 51   51 51 51   51 51 51   51 51 51   51 51 51   51 51 51   51 51 51   19 18 14   26 24 19   56 53 41   53 51 39   147 51 51   182 63 63   3 32 20   6 63 40   9 85 54   11 102 65   12 117 74   14 129 81   15 139 88   15 147 93   16 152 96   17 156 99   17 156 99   16 152 96   14 130 82   10 2 11   18 4 20   51 51 51   51 51 51   51 51 51   51 51 51   51 51 51   51 51 51   51 51 51   51 51 51   8 18 6   8 18 6   23 51 18   47 105 37   68 152 54   87 194 69   105 231 84   123 255 106   131 255 107   137 255 109   126 255 100   51 51 51   51 51 51   
51 51 51   51 51 51   51 51 51   51 51 51   51 51 51   51 51 51   51 51 51   51 51 51   51 51 51   51 51 51   51 51 51   16 5 5   66 23 23   16 5 5   0 8 5   4 42 26   7 68 43   9 88 55   11 104 66   12 118 74   14 129 82   15 139 88   16 147 93   16 153 97   17 157 99   17 158 100   16 155 98   15 144 91   51 51 51   51 51 51   51 51 51   51 51 51   51 51 51   51 51 51   51 51 51   51 51 51   51 51 51   51 51 51   8 18 6   8 18 6   8 18 6   33 75 26   55 123 44   74 166 59   91 203 72   106 235 84   117 255 93   124 255 99   51 51 51   51 51 51   51 51 51   
51 51 51   51 51 51   51 51 51   51 51 51   51 51 51   51 51 51   51 51 51   51 51 51   51 51 51   51 51 51   51 51 51   51 51 51   16 5 5   16 5 5   1 11 7   5 46 29   7 69 44   9 88 56   11 104 66   12 117 74   14 129 81   15 138 87   16 146 93   18 157 107   16 156 98   17 157 99   16 156 98   16 147 93   51 51 51   51 51 51   51 51 51   51 51 51   51 51 51   51 51 51   51 51 51   51 51 51   51 51 51   51 51 51   8 18 6   8 18 6   8 18 6   17 39 14   40 89 32   59 132 47   76 170 61   91 202 72   102 227 81   108 239 85   51 51 51   51 51 51   51 51 51   
51 51 51   51 51 51   51 51 51   51 51 51   51 51 51   51 51 51   51 51 51   51 51 51   51 51 51   51 51 51   51 51 51   51 51 51   51 51 51   16 5 5   1 14 9   5 46 29   7 69 43   9 87 55   11 102 64   12 115 73   13 126 80   14 135 85   15 143 91   17 152 100   16 153 97   16 155 98   16 153 97   15 146 92   51 51 51   51 51 51   51 51 51   51 51 51   51 51 51   51 51 51   51 51 51   51 51 51   51 51 51   51 51 51   51 51 51   8 18 6   8 18 6   8 18 6   21 47 17   41 92 33   59 130 46   73 162 58   83 184 65   82 182 65   51 51 51   51 51 51   51 51 51   
51 51 51   51 51 51   51 51 51   51 51 51   51 51 51   51 51 51   51 51 51   51 51 51   51 51 51   51 51 51   51 51 51   51 51 51   51 51 51   51 51 51   1 14 8   4 44 27   7 66 41   9 84 53   10 99 62   12 111 70   13 122 77   14 131 83   15 139 88   15 145 91   16 149 94   16 150 95   16 149 94   15 142 89   11 110 69   51 51 51   51 51 51   51 51 51   51 51 51   51 51 51   51 51 51   51 51 51   51 51 51   51 51 51   51 51 51   51 51 51   8 18 6   8 18 6   8 18 6   18 40 14   35 79 28   48 107 38   51 115 41   51 51 51   51 51 51   51 51 51   51 51 51   
51 51 51   51 51 51   51 51 51   51 51 51   51 51 51   51 51 51   51 51 51   51 51 51   51 51 51   51 51 51   51 51 51   51 51 51   51 51 51   51 51 51   0 8 5   4 39 25   6 61 38   8 79 50   10 94 59   11 106 67   12 117 74   13 126 80   14 133 84   15 139 88   15 143 90   15 144 91   15 143 90   14 135 85   51 51 51   51 51 51   51 51 51   51 51 51   51 51 51   51 51 51   51 51 51   51 51 51   51 51 51   51 51 51   51 51 51   51 51 51   51 51 51   51 51 51   51 51 51   8 18 6   51 51 51   51 51 51   51 51 51   51 51 51   51 51 51   51 51 51   51 51 51   
51 51 51   51 51 51   51 51 51   51 51 51   51 51 51   51 51 51   51 51 51   51 51 51   51 51 51   51 51 51   51 51 51   51 51 51   51 51 51   51 51 51   0 8 5   3 32 20   5 54 34   7 72 46   9 87 55   10 100 63   12 110 70   13 119 75   13 127 80   14 132 83   14 136 86   14 137 86   14 134 85   13 124 79   51 51 51   51 51 51   51 51 51   51 51 51   51 51 51   51 51 51   51 51 51   51 51 51   51 51 51   51 51 51   51 51 51   51 51 51   51 51 51   51 51 51   51 51 51   51 51 51   51 51 51   51 51 51   51 51 51   51 51 51   51 51 51   51 51 51   51 51 51   
51 51 51   51 51 51   51 51 51   51 51 51   51 51 51   51 51 51   51 51 51   51 51 51   51 51 51   51 51 51   51 51 51   51 51 51   51 51 51   51 51 51   0 8 5   2 23 14   5 46 29   7 64 40   8 79 50   10 92 58   11 102 65   12 111 70   12 118 75   13 124 78   13 127 80   13 127 80   13 123 78   11 109 69   51 51 51   51 51 51   51 51 51   51 51 51   51 51 51   51 51 51   51 51 51   51 51 51   51 51 51   51 51 51   51 51 51   51 51 51   51 51 51   51 51 51   51 51 51   51 51 51   51 51 51   51 51 51   51 51 51   51 51 51   51 51 51   51 51 51   51 51 51   
