P3
51 51
255
51 51 51   51 51 51   51 51 51   51 51 51   51 51 51   51 51 51   51 51 51   51 51 51   51 51 51   51 51 51   51 51 51   51 51 51   11 60 59   22 116 115   30 159 157   38 196 193   44 228 225   50 255 254   55 255 255   62 255 255   188 255 255   69 255 255   71 255 255   73 255 255   51 51 51   51 51 51   51 51 51   51 51 51   51 51 51   51 51 51   51 51 51   51 51 51   51 51 51   51 51 51   51 51 51   51 51 51   51 51 51   51 51 51   51 51 51   51 51 51   51 51 51   51 51 51   51 51 51   51 51 51   51 51 51   51 51 51   51 51 51   51 51 51   51 51 51   51 51 51   51 51 51   
51 51 51   51 51 51   51 51 51   51 51 51   51 51 51   51 51 51   51 51 51   51 51 51   51 51 51   51 51 51   51 51 51   51 51 51   6 35 35   17 88 87   25 130 128   32 166 163   38 198 195   44 228 225   49 255 252   54 255 255   60 255 255   63 255 255   66 255 255   68 255 255   66 255 255   51 51 51   51 51 51   51 51 51   51 51 51   51 51 51   51 51 51   51 51 51   51 51 51   51 51 51   51 51 51   51 51 51   51 51 51   51 51 51   51 51 51   51 51 51   51 51 51   51 51 51   51 51 51   51 51 51   51 51 51   51 51 51   51 51 51   51 51 51   51 51 51   51 51 51   51 51 51   
51 51 51   51 51 51   51 51 51   51 51 51   51 51 51   51 51 51   51 51 51   51 51 51   51 51 51   51 51 51   51 51 51   51 51 51   4 22 21   10 55 54   18 97 96   25 133 131   32 166 164   38 196 193   43 224 220   48 249 245   52 255 255   56 255 255   60 255 255   63 255 255   63 255 255   51 51 51   51 51 51   51 51 51   51 51 51   51 51 51   51 51 51   51 51 51   51 51 51   51 51 51   51 51 51   51 51 51   51 51 51   51 51 51   51 51 51   51 51 51   51 51 51   51 51 51   51 51 51   51 51 51   51 51 51   51 51 51   51 51 51   51 51 51   51 51 51   51 51 51   51 51 51   
51 51 51   51 51 51   51 51 51   51 51 51   51 51 51   143 109 176   181 138 223   51 51 51   51 51 51   51 51 51   51 51 51   51 51 51   4 22 21   4 22 21   12 61 60   19 98 97   25 131 129   31 162 159   36 189 186   41 215 212   46 238 235   50 255 255   53 255 255   56 255 255   57 255 255   51 51 51   51 51 51   51 51 51   51 51 51   51 51 51   51 51 51   51 51 51   51 51 51   51 51 51   51 51 51   51 51 51   51 51 51   51 51 51   51 51 51   51 51 51   3 94 135   4 117 168   4 138 197   5 157 224   6 175 251   6 193 255   51 51 51   51 51 51   51 51 51   51 51 51   51 51 51   
51 51 51   51 51 51   51 51 51   51 51 51   106 81 131   149 113 184   178 135 219   197 150 243   203 155 251   51 51 51   51 51 51   51 51 51   4 22 21   4 22 21   4 22 21   11 60 59   18 94 92   24 124 123   29 153 150   34 178 176   39 202 199   43 223 219   46 241 237   49 254 250   49 255 252   51 51 51   51 51 51   51 51 51   51 51 51   51 51 51   51 51 51   51 51 51   51 51 51   51 51 51   51 51 51   51 51 51   51 51 51   51 51 51   51 51 51   1 57 81   2 80 115   3 102 145   4 122 174   4 141 201   5 159 227   6 177 253   6 194 255   51 51 51   51 51 51   51 51 51   51 51 51   
51 51 51   51 51 51   51 51 51   11 8 13   84 64 103   123 93 151   151 115 187   255 139 255   185 141 228   180 137 222   51 51 51   51 51 51   4 22 21   4 22 21   4 22 21   4 22 21   10 53 53   16 85 83   22 113 111   27 139 137   31 162 160   35 183 180   38 200 197   41 213 209   41 212 209   51 51 51   51 51 51   51 51 51   51 51 51   51 51 51   51 51 51   51 51 51   51 51 51   51 51 51   51 51 51   51 51 51   51 51 51   51 51 51   0 15 22   1 41 59   2 64 91   2 85 121   3 105 150   4 124 177   9 150 209   70 255 255   6 177 253   6 193 255   51 51 51   51 51 51   51 51 51   
51 51 51   51 51 51   51 51 51   11 8 13   47 36 58   86 66 106   116 88 143   138 105 170   152 115 187   154 117 190   51 51 51   51 51 51   4 22 21   4 22 21   4 22 21   4 22 21   4 22 21   8 41 41   13 70 69   18 96 95   23 120 118   27 140 138   30 156 154   32 166 164   30 155 153   51 51 51   51 51 51   51 51 51   51 51 51   51 51 51   51 51 51   51 51 51   51 51 51   51 51 51   51 51 51   51 51 51   51 51 51   0 11 16   0 11 16   0 24 34   1 46 66   2 67 96   3 87 124   3 106 151   4 124 177   9 150 209   5 159 227   6 175 251   51 51 51   51 51 51   51 51 51   
51 51 51   51 51 51   51 51 51   51 51 51   11 8 13   41 31 51   72 54 89   95 72 117   109 83 135   112 86 139   51 51 51   51 51 51   51 51 51   4 22 21   4 22 21   4 22 21   4 22 21   4 22 21   4 22 21   9 50 49   14 73 72   18 92 91   20 107 105   21 112 111   51 51 51   51 51 51   51 51 51   51 51 51   51 51 51   51 51 51   51 51 51   51 51 51   51 51 51   51 51 51   51 51 51   51 51 51   51 51 51   0 11 16   0 11 16   0 11 16   0 28 40   1 49 70   2 69 98   3 88 125   3 106 151   4 124 177   4 141 201   5 157 224   51 51 51   51 51 51   51 51 51   
51 51 51   51 51 51   51 51 51   51 51 51   11 8 13   11 8 13   18 14 23   42 32 52   57 43 70   11 8 13   51 51 51   51 51 51   51 51 51   4 22 21   4 22 21   4 22 21   4 22 21   4 22 21   4 22 21   4 22 21   4 22 21   7 38 38   9 49 48   7 37 36   51 51 51   51 51 51   51 51 51   51 51 51   51 51 51   51 51 51   51 51 51   51 51 51   51 51 51   51 51 51   51 51 51   51 51 51   51 51 51   0 11 16   0 11 16   0 11 16   0 11 16   1 29 42   1 49 71   2 69 98   3 87 124   3 105 150   4 122 174   4 138 197   51 51 51   51 51 51   51 51 51   
51 51 51   51 51 51   51 51 51   51 51 51   51 51 51   11 8 13   11 8 13   11 8 13   11 8 13   51 51 51   51 51 51   51 51 51   51 51 51   51 51 51   4 22 21   4 22 21   4 22 21   4 22 21   4 22 21   4 22 21   4 22 21   4 22 21   4 22 21   51 51 51   51 51 51   51 51 51   51 51 51   51 51 51   51 51 51   51 51 51   51 51 51   51 51 51   51 51 51   51 51 51   51 51 51   51 51 51   51 51 51   0 11 16   0 11 16   0 11 16   0 11 16   0 11 16   1 29 42   1 49 70   2 67 96   2 85 121   3 102 145   4 117 168   51 51 51   51 51 51   51 51 51   
51 51 51   51 51 51   51 51 51   51 51 51   51 51 51   51 51 51   51 51 51   51 51 51   51 51 51   51 51 51   51 51 51   51 51 51   51 51 51   51 51 51   51 51 51   51 51 51   4 22 21   4 22 21   4 22 21   4 22 21   4 22 21   51 51 51   51 51 51   51 51 51   51 51 51   51 51 51   51 51 51   51 51 51   51 51 51   51 51 51   51 51 51   51 51 51   51 51 51   51 51 51   51 51 51   51 51 51   51 51 51   0 11 16   0 11 16   0 11 16   0 11 16   0 11 16   0 11 16   0 28 40   1 46 66   2 64 91   2 80 115   3 94 135   51 51 51   51 51 51   51 51 51   
51 51 51   51 51 51   51 51 51   51 51 51   51 51 51   51 51 51   51 51 51   51 51 51   51 51 51   51 51 51   51 51 51   51 51 51   51 51 51   51 51 51   51 51 51   51 51 51   51 51 51   51 51 51   51 51 51   51 51 51   51 51 51   51 51 51   51 51 51   51 51 51   51 51 51   51 51 51   51 51 51   51 51 51   51 51 51   51 51 51   51 51 51   51 51 51   51 51 51   51 51 51   51 51 51   51 51 51   51 51 51   0 11 16   0 11 16   0 11 16   0 11 16   0 11 16   0 11 16   0 11 16   0 24 34   1 41 59   1 57 81   51 51 51   51 51 51   51 51 51   51 51 51   
51 51 51   51 51 51   51 51 51   51 51 51   51 51 51   51 51 51   51 51 51   51 51 51   51 51 51   51 51 51   51 51 51   51 51 51   51 51 51   51 51 51   51 51 51   51 51 51   51 51 51   51 51 51   51 51 51   51 51 51   51 51 51   51 51 51   51 51 51   51 51 51   51 51 51   51 51 51   51 51 51   51 51 51   51 51 51   255 255 51   51 51 51   51 51 51   51 51 51   51 51 51   51 51 51   51 51 51   51 51 51   51 51 51   0 11 16   0 11 16   0 11 16   0 11 16   0 11 16   0 11 16   0 11 16   0 15 22   51 51 51   51 51 51   51 51 51   51 51 51   51 51 51   
51 51 51   51 51 51   51 51 51   51 51 51   51 51 51   51 51 51   51 51 51   51 51 51   51 51 51   51 51 51   51 51 51   51 51 51   51 51 51   51 51 51   51 51 51   51 51 51   51 51 51   51 51 51   51 51 51   51 51 51   51 51 51   51 51 51   51 51 51   51 51 51   51 51 51   51 51 51   51 51 51   51 51 51   21 20 3   129 118 22   255 241 46   51 51 51   51 51 51   51 51 51   51 51 51   51 51 51   51 51 51   51 51 51   51 51 51   0 11 16   0 11 16   0 11 16   20 7 0   20 7 0   0 11 16   51 51 51   51 51 51   51 51 51   51 51 51   51 51 51   51 51 51   
51 51 51   51 51 51   51 51 51   51 51 51   51 51 51   51 51 51   51 51 51   51 51 51   51 51 51   51 51 51   51 51 51   51 51 51   51 51 51   51 51 51   51 51 51   51 51 51   51 51 51   51 51 51   51 51 51   51 51 51   51 51 51   51 51 51   51 51 51   51 51 51   51 51 51   51 51 51   51 51 51   51 51 51   51 51 51   21 20 3   51 51 51   51 51 51   51 51 51   51 51 51   51 51 51   51 51 51   51 51 51   51 51 51   51 51 51   158 60 2   200 76 3   236 90 4   255 102 5   255 114 5   255 124 6   255 134 6   51 51 51   51 51 51   51 51 51   51 51 51   51 51 51   
51 51 51   51 51 51   51 51 51   51 51 51   51 51 51   51 51 51   51 51 51   51 51 51   51 51 51   51 51 51   51 51 51   51 51 51   51 51 51   51 51 51   51 51 51   51 51 51   51 51 51   51 51 51   51 51 51   51 51 51   51 51 51   51 51 51   51 51 51   51 51 51   51 51 51   51 51 51   51 51 51   51 51 51   128 116 151   190 173 224   233 212 255   255 243 255   255 255 255   255 255 255   51 51 51   51 51 51   51 51 51   20 7 0   102 39 1   146 55 2   184 70 3   219 83 4   252 96 5   255 113 11   255 134 22   255 133 12   255 136 6   255 141 6   51 51 51   51 51 51   51 51 51   
51 51 51   51 51 51   51 51 51   51 51 51   51 51 51   51 51 51   51 51 51   51 51 51   51 51 51   51 51 51   51 51 51   51 51 51   51 51 51   51 51 51   51 51 51   51 51 51   51 51 51   114 255 98   153 255 131   177 255 152   184 255 158   51 51 51   51 51 51   51 51 51   51 51 51   51 51 51   51 51 51   72 65 85   136 124 160   183 167 216   222 202 255   255 233 255   255 255 255   255 255 255   255 255 255   51 51 51   20 7 0   38 14 0   86 32 1   127 48 2   164 62 3   198 75 3   231 88 5   255 121 27   255 216 111   255 234 120   255 144 21   255 136 6   51 51 51   51 51 51   51 51 51   
51 51 51   51 51 51   51 51 51   51 51 51   51 51 51   51 51 51   51 51 51   51 51 51   13 8 22   13 8 22   51 51 51   51 51 51   51 51 51   51 51 51   51 51 51   51 51 51   51 116 44   103 235 89   138 255 119   255 255 198   178 255 153   167 255 143   51 51 51   51 51 51   51 51 51   51 51 51   17 16 20   67 61 79   121 110 142   165 150 194   202 184 239   236 215 255   255 255 255   255 255 255   255 255 255   255 255 255   20 7 0   20 7 0   65 24 1   105 40 1   141 54 2   175 66 3   207 79 4   251 102 16   255 194 98   255 255 186   255 187 72   255 129 7   255 134 6   51 51 51   51 51 51   
51 51 51   51 51 51   51 51 51   51 51 51   51 51 51   51 51 51   13 8 22   13 8 22   13 8 22   13 8 22   13 8 22   51 51 51   51 51 51   51 51 51   51 51 51   51 51 51   28 64 24   77 175 66   111 254 96   137 255 117   152 255 131   151 255 130   51 51 51   51 51 51   51 51 51   51 51 51   17 16 20   46 42 55   98 89 115   140 128 166   178 162 210   211 192 249   246 229 255   255 255 255   255 255 255   255 255 255   20 7 0   20 7 0   40 15 0   80 30 1   116 44 2   150 57 2   181 69 3   213 82 5   255 110 23   255 162 65   255 150 45   255 121 8   255 125 6   51 51 51   51 51 51   
51 51 51   51 51 51   51 51 51   51 51 51   51 51 51   51 51 51   13 8 22   13 8 22   13 8 22   13 8 22   13 8 22   13 8 22   51 51 51   51 51 51   51 51 51   51 51 51   10 23 8   40 91 34   75 171 64   100 229 86   116 255 99   113 255 97   51 51 51   51 51 51   51 51 51   51 51 51   17 16 20   17 16 20   69 63 81   112 102 132   149 135 175   182 165 214   211 192 249   236 215 255   255 233 255   255 243 255   20 7 0   20 7 0   20 7 0   53 20 1   89 34 1   123 47 2   154 59 2   184 70 3   213 82 4   245 96 9   255 105 10   255 109 5   255 115 5   51 51 51   51 51 51   
51 51 51   51 51 51   51 51 51   51 51 51   51 51 51   51 51 51   13 8 22   13 8 22   13 8 22   13 8 22   13 8 22   13 8 22   51 51 51   51 51 51   51 51 51   51 51 51   10 23 8   10 23 8   27 63 24   53 121 45   66 150 56   34 79 29   51 51 51   51 51 51   51 51 51   51 51 51   17 16 20   17 16 20   35 32 42   78 71 92   116 105 137   149 135 175   178 162 210   202 184 239   222 202 255   233 212 255   20 7 0   20 7 0   20 7 0   20 7 0   60 23 1   94 36 1   126 48 2   156 59 2   184 70 3   210 80 4   234 89 4   255 97 4   255 103 5   51 51 51   51 51 51   
51 51 51   51 51 51   51 51 51   51 51 51   51 51 51   51 51 51   51 51 51   13 8 22   13 8 22   13 8 22   13 8 22   51 51 51   51 51 51   51 51 51   51 51 51   51 51 51   51 51 51   10 23 8   10 23 8   10 23 8   10 23 8   51 51 51   51 51 51   51 51 51   51 51 51   51 51 51   17 16 20   17 16 20   17 16 20   40 37 48   78 71 92   112 102 132   140 128 166   165 150 194   183 167 216   190 173 224   20 7 0   20 7 0   20 7 0   20 7 0   29 11 0   63 24 1   95 36 1   125 47 2   153 58 2   179 68 3   203 77 3   224 85 4   237 90 4   51 51 51   51 51 51   
51 51 51   51 51 51   51 51 51   51 51 51   51 51 51   51 51 51   51 51 51   51 51 51   13 8 22   13 8 22   51 51 51   51 51 51   51 51 51   51 51 51   51 51 51   51 51 51   51 51 51   51 51 51   51 51 51   51 51 51   51 51 51   51 51 51   51 51 51   51 51 51   51 51 51   51 51 51   17 16 20   17 16 20   17 16 20   17 16 20   35 32 42   69 63 81   98 89 115   121 110 142   136 124 160   17 16 20   20 7 0   20 7 0   20 7 0   20 7 0   20 7 0   30 11 0   62 23 1   92 35 1   120 46 2   146 55 2   169 64 3   188 71 3   189 72 3   51 51 51   51 51 51   
51 51 51   51 51 51   51 51 51   51 51 51   51 51 51   51 51 51   51 51 51   51 51 51   51 51 51   51 51 51   51 51 51   51 51 51   51 51 51   51 51 51   51 51 51   51 51 51   51 51 51   51 51 51   51 51 51   51 51 51   51 51 51   51 51 51   51 51 51   51 51 51   51 51 51   51 51 51   51 51 51   17 16 20   17 16 20   17 16 20   17 16 20   17 16 20   46 42 55   67 61 79   72 65 85   51 51 51   20 7 0   20 7 0   20 7 0   20 7 0   20 7 0   20 7 0   20 7 0   56 21 1   84 32 1   109 41 2   130 49 2   144 55 2   51 51 51   51 51 51   51 51 51   
51 51 51   51 51 51   51 51 51   51 51 51   51 51 51   51 51 51   51 51 51   51 51 51   51 51 51   51 51 51   51 51 51   51 51 51   51 51 51   51 51 51   51 51 51   51 51 51   51 51 51   51 51 51   51 51 51   51 51 51   51 51 51   51 51 51   51 51 51   51 51 51   51 51 51   51 51 51   51 51 51   51 51 51   17 16 20   17 16 20   17 16 20   17 16 20   17 16 20   17 16 20   51 51 51   51 51 51   51 51 51   20 7 0   20 7 0   20 7 0   20 7 0   20 7 0   20 7 0   20 7 0   42 16 0   65 25 1   82 31 1   51 51 51   51 51 51   51 51 51   51 51 51   
51 51 51   51 51 51   51 51 51   51 51 51   51 51 51   51 51 51   51 51 51   51 51 51   51 51 51   51 51 51   51 51 51   51 51 51   48 97 255   57 116 255   61 123 255   51 51 51   51 51 51   51 51 51   51 51 51   51 51 51   51 51 51   51 51 51   51 51 51   51 51 51   51 51 51   51 51 51   51 51 51   51 51 51   51 51 51   51 51 51   51 51 51   51 51 51   51 51 51   51 51 51   51 51 51   51 51 51   51 51 51   51 51 51   20 7 0   20 7 0   20 7 0   20 7 0   20 7 0   20 7 0   20 7 0   20 7 0   51 51 51   51 51 51   51 51 51   51 51 51   51 51 51   
51 51 51   51 51 51   51 51 51   51 51 51   51 51 51   51 51 51   51 51 51   51 51 51   51 51 51   51 51 51   25 51 142   45 91 254   56 114 255   64 129 255   68 139 255   70 141 255   64 129 255   211 28 87   255 35 110   255 40 125   255 43 135   255 45 140   255 40 124   51 51 51   51 51 51   51 51 51   51 51 51   51 51 51   51 51 51   51 51 51   200 71 113   255 93 147   51 51 51   51 51 51   51 51 51   51 51 51   51 51 51   51 51 51   51 51 51   51 51 51   51 51 51   51 51 51   51 51 51   51 51 51   51 51 51   51 51 51   51 51 51   51 51 51   51 51 51   51 51 51   51 51 51   
51 51 51   51 51 51   51 51 51   51 51 51   51 51 51   51 51 51   51 51 51   51 51 51   51 51 51   51 51 51   32 66 183   46 94 255   56 114 255   63 128 255   69 138 255   67 9 27   183 24 75   243 32 100   255 38 118   255 42 132   255 46 142   255 48 149   255 48 151   255 45 141   51 51 51   51 51 51   51 51 51   51 51 51   101 36 57   191 68 108   252 89 142   255 106 169   255 119 189   255 127 202   51 51 51   51 51 51   51 51 51   51 51 51   51 51 51   9 18 14   9 18 14   9 18 14   9 18 14   51 51 51   51 51 51   51 51 51   51 51 51   51 51 51   51 51 51   51 51 51   51 51 51   
51 51 51   51 51 51   51 51 51   51 51 51   51 51 51   51 51 51   51 51 51   51 51 51   51 51 51   10 21 59   30 62 173   43 88 244   52 106 255   59 120 255   101 147 255   124 16 51   195 25 80   246 32 101   255 38 117   255 42 131   255 45 148   255 48 155   255 49 153   255 48 151   255 40 124   51 51 51   51 51 51   20 7 11   125 44 71   195 69 110   250 89 141   255 105 167   255 118 188   255 128 204   255 134 212   51 51 51   51 51 51   51 51 51   9 18 14   9 18 14   9 18 14   182 255 211   219 255 249   187 255 255   51 51 51   51 51 51   51 51 51   51 51 51   51 51 51   51 51 51   51 51 51   
51 51 51   51 51 51   51 51 51   51 51 51   51 51 51   51 51 51   51 51 51   51 51 51   51 51 51   6 13 36   25 51 142   37 76 211   46 94 255   53 108 255   29 3 12   127 16 52   189 25 77   237 31 97   255 36 113   255 40 127   255 47 209   255 52 255   255 48 155   255 48 149   255 45 140   51 51 51   51 51 51   32 11 18   117 41 66   181 64 102   234 83 132   255 99 157   255 113 180   255 135 215   255 130 207   255 131 207   51 51 51   9 18 14   9 18 14   57 109 89   101 191 142   174 255 189   239 255 230   225 255 255   168 255 255   51 51 51   51 51 51   51 51 51   51 51 51   51 51 51   51 51 51   
51 51 51   51 51 51   51 51 51   51 51 51   51 51 51   51 51 51   51 51 51   51 51 51   51 51 51   3 7 21   16 33 92   29 58 163   38 77 214   44 90 252   30 4 12   114 15 47   173 23 71   219 29 90   255 34 105   255 38 118   255 42 151   255 47 209   255 45 148   255 46 142   255 43 135   51 51 51   20 7 11   20 7 11   96 34 54   158 56 89   210 75 119   255 91 144   255 104 165   255 119 189   255 123 195   255 125 199   51 51 51   9 18 14   9 18 14   38 72 59   73 140 111   125 233 157   184 255 198   196 255 228   157 255 241   51 51 51   51 51 51   51 51 51   51 51 51   51 51 51   51 51 51   
51 51 51   51 51 51   51 51 51   51 51 51   51 51 51   51 51 51   51 51 51   51 51 51   51 51 51   3 7 21   3 7 21   17 35 98   27 54 152   33 68 190   20 2 8   92 12 37   149 19 61   195 25 80   232 30 95   255 34 108   255 38 118   255 40 127   255 42 131   255 42 132   255 40 125   51 51 51   20 7 11   20 7 11   65 23 37   128 45 72   180 64 101   224 80 126   255 93 148   255 104 165   255 112 177   255 115 182   51 51 51   9 18 14   9 18 14   9 18 14   47 91 74   79 151 120   116 218 159   135 255 189   129 247 201   51 51 51   51 51 51   51 51 51   51 51 51   51 51 51   51 51 51   
51 51 51   51 51 51   51 51 51   51 51 51   51 51 51   51 51 51   51 51 51   51 51 51   51 51 51   51 51 51   3 7 21   3 7 21   12 24 68   19 38 108   20 2 8   59 7 24   118 15 48   164 21 67   202 26 83   232 30 95   255 34 105   255 36 113   255 38 117   255 38 118   255 35 110   51 51 51   51 51 51   20 7 11   20 7 11   89 32 50   142 50 80   187 66 105   224 80 126   254 90 144   255 98 156   255 100 159   51 51 51   51 51 51   9 18 14   9 18 14   18 35 29   48 92 75   72 138 113   90 172 141   51 51 51   51 51 51   51 51 51   51 51 51   51 51 51   51 51 51   51 51 51   
51 51 51   51 51 51   51 51 51   51 51 51   51 51 51   51 51 51   51 51 51   51 51 51   51 51 51   51 51 51   51 51 51   51 51 51   3 7 21   3 7 21   20 2 8   20 2 8   78 10 32   126 16 51   164 21 67   195 25 80   219 29 90   237 31 97   246 32 101   243 32 100   211 28 87   51 51 51   51 51 51   20 7 11   20 7 11   42 15 24   96 34 54   142 50 80   179 64 101   208 74 118   227 81 128   224 80 127   51 51 51   51 51 51   51 51 51   9 18 14   9 18 14   9 18 14   34 66 54   42 80 65   51 51 51   51 51 51   51 51 51   51 51 51   51 51 51   51 51 51   51 51 51   
51 51 51   51 51 51   51 51 51   51 51 51   51 51 51   51 51 51   51 51 51   51 51 51   51 51 51   51 51 51   51 51 51   51 51 51   51 51 51   51 51 51   51 51 51   20 2 8   27 3 11   78 10 32   118 15 48   149 19 61   173 23 71   189 25 77   195 25 80   183 24 75   51 51 51   51 51 51   51 51 51   51 51 51   20 7 11   20 7 11   40 14 22   87 31 49   124 44 70   151 53 85   163 58 92   51 51 51   51 51 51   51 51 51   51 51 51   51 51 51   51 51 51   51 51 51   51 51 51   51 51 51   51 51 51   51 51 51   51 51 51   51 51 51   51 51 51   51 51 51   51 51 51   
51 51 51   51 51 51   51 51 51   51 51 51   51 51 51   51 51 51   51 51 51   51 51 51   51 51 51   51 51 51   51 51 51   51 51 51   51 51 51   51 51 51   51 51 51   20 2 8   20 2 8   20 2 8   59 7 24   92 12 37   114 15 47   127 16 52   124 16 51   67 9 27   51 51 51   51 51 51   51 51 51   51 51 51   51 51 51   20 7 11   20 7 11   20 7 11   50 17 28   68 24 38   51 51 51   51 51 51   34 40 55   104 124 167   150 178 239   183 217 255   198 235 255   51 51 51   51 51 51   51 51 51   51 51 51   51 51 51   51 51 51   51 51 51   51 51 51   51 51 51   51 51 51   
51 51 51   51 51 51   51 51 51   51 51 51   51 51 51   51 51 51   51 51 51   51 51 51   51 51 51   51 51 51   51 51 51   51 51 51   51 51 51   51 51 51   51 51 51   51 51 51   51 51 51   20 2 8   20 2 8   20 2 8   30 4 12   29 3 12   16 10 17   255 187 255   51 51 51   51 51 51   51 51 51   51 51 51   51 51 51   51 51 51   51 51 51   51 51 51   51 51 51   51 51 51   51 51 51   12 14 19   12 14 19   12 14 19   152 180 242   186 221 255   212 251 255   222 255 255   51 51 51   51 51 51   51 51 51   51 51 51   51 51 51   51 51 51   51 51 51   51 51 51   51 51 51   
51 51 51   51 51 51   51 51 51   51 51 51   51 51 51   51 51 51   51 51 51   51 51 51   51 51 51   51 51 51   51 51 51   51 51 51   51 51 51   51 51 51   51 51 51   51 51 51   51 51 51   51 51 51   16 10 17   16 10 17   16 10 17   16 10 17   16 10 17   16 10 17   16 10 17   51 51 51   51 51 51   51 51 51   51 51 51   51 51 51   51 51 51   51 51 51   51 51 51   51 51 51   51 51 51   12 14 19   12 14 19   99 117 158   141 167 225   175 208 255   227 255 255   221 255 255   51 51 51   51 51 51   51 51 51   51 51 51   51 51 51   51 51 51   51 51 51   51 51 51   51 51 51   
51 51 51   51 51 51   51 51 51   51 51 51   51 51 51   51 51 51   51 51 51   51 51 51   51 51 51   51 51 51   51 51 51   51 51 51   51 51 51   51 51 51   51 51 51   51 51 51   51 51 51   51 51 51   16 10 17   16 10 17   16 10 17   16 10 17   16 10 17   16 10 17   241 154 255   51 51 51   51 51 51   51 51 51   51 51 51   51 51 51   51 51 51   51 51 51   51 51 51   51 51 51   51 51 51   12 14 19   30 36 48   81 96 129   123 146 196   158 187 252   186 221 255   206 245 255   208 247 255   51 51 51   51 51 51   51 51 51   51 51 51   51 51 51   51 51 51   51 51 51   51 51 51   
51 51 51   51 51 51   51 51 51   51 51 51   51 51 51   51 51 51   51 51 51   51 51 51   51 51 51   51 51 51   51 51 51   51 51 51   51 51 51   51 51 51   51 51 51   51 51 51   51 51 51   51 51 51   16 10 17   16 10 17   16 10 17   16 10 17   16 10 17   16 10 17   187 119 198   51 51 51   51 51 51   51 51 51   51 51 51   51 51 51   51 51 51   51 51 51   51 51 51   51 51 51   51 51 51   12 14 19   12 14 19   56 66 89   98 117 157   134 159 214   163 193 255   183 217 255   186 220 255   51 51 51   51 51 51   51 51 51   51 51 51   51 51 51   51 51 51   51 51 51   51 51 51   
51 51 51   51 51 51   51 51 51   51 51 51   51 51 51   51 51 51   51 51 51   51 51 51   51 51 51   51 51 51   51 51 51   51 51 51   51 51 51   51 51 51   51 51 51   51 51 51   51 51 51   51 51 51   16 10 17   16 10 17   16 10 17   16 10 17   16 10 17   16 10 17   51 51 51   51 51 51   51 51 51   51 51 51   51 51 51   63 31 85   103 50 139   131 64 176   153 74 205   170 83 228   182 88 244   187 91 251   12 14 19   24 28 38   68 80 108   104 123 165   132 157 211   151 180 241   141 168 225   51 51 51   51 51 51   51 51 51   51 51 51   51 51 51   51 51 51   51 51 51   51 51 51   
51 51 51   207 150 141   236 171 160   248 180 168   243 176 165   200 145 135   51 51 51   51 51 51   51 51 51   51 51 51   51 51 51   51 51 51   51 51 51   51 51 51   51 51 51   51 51 51   51 51 51   51 51 51   51 51 51   16 10 17   16 10 17   16 10 17   16 10 17   51 51 51   51 51 51   51 51 51   51 51 51   51 51 51   55 26 74   94 45 126   123 60 165   147 71 197   167 81 224   184 89 247   198 96 255   208 101 255   213 104 255   206 100 255   27 32 44   64 76 103   92 109 146   104 124 167   51 51 51   51 51 51   51 51 51   51 51 51   51 51 51   51 51 51   51 51 51   51 51 51   51 51 51   
255 188 175   255 207 193   255 219 205   255 226 212   255 228 213   255 221 207   255 204 190   51 51 51   51 51 51   51 51 51   51 51 51   51 51 51   51 51 51   51 51 51   51 51 51   51 51 51   51 51 51   51 51 51   51 51 51   51 51 51   51 51 51   51 51 51   51 51 51   51 51 51   51 51 51   51 51 51   51 51 51   30 14 41   73 35 98   105 51 141   131 64 177   154 75 207   173 84 233   190 92 255   204 99 255   216 105 255   224 109 255   227 111 255   219 107 255   12 14 19   19 22 30   51 51 51   51 51 51   51 51 51   51 51 51   51 51 51   51 51 51   51 51 51   51 51 51   51 51 51   51 51 51   
255 217 203   255 232 217   255 243 227   255 249 233   255 251 234   255 248 231   255 237 222   255 215 201   51 51 51   51 51 51   51 51 51   51 51 51   51 51 51   51 51 51   51 51 51   51 51 51   51 51 51   51 51 51   51 51 51   51 51 51   51 51 51   51 51 51   51 51 51   51 51 51   51 51 51   51 51 51   13 6 17   45 22 60   81 39 109   110 53 148   135 66 181   156 76 210   175 85 236   192 93 255   206 100 255   219 106 255   228 111 255   234 114 255   235 114 255   217 106 255   51 51 51   51 51 51   51 51 51   51 51 51   51 51 51   51 51 51   51 51 51   51 51 51   51 51 51   51 51 51   51 51 51   
255 234 219   255 247 231   255 255 239   255 255 245   255 255 246   255 255 244   255 253 237   255 237 222   255 204 190   51 51 51   51 51 51   51 51 51   51 51 51   51 51 51   51 51 51   51 51 51   51 51 51   51 51 51   51 51 51   51 51 51   51 51 51   51 51 51   51 51 51   51 51 51   51 51 51   51 51 51   13 6 17   50 24 68   84 41 112   111 54 150   135 66 182   156 76 210   175 85 235   191 93 255   206 100 255   218 106 255   228 111 255   236 115 255   239 117 255   235 115 255   51 51 51   51 51 51   51 51 51   51 51 51   51 51 51   51 51 51   51 51 51   51 51 51   51 51 51   51 51 51   51 51 51   
255 244 228   255 255 239   255 255 247   255 255 252   255 255 253   255 255 251   255 255 244   255 248 231   255 221 207   200 145 135   51 51 51   51 51 51   51 51 51   51 51 51   51 51 51   51 51 51   51 51 51   51 51 51   51 51 51   51 51 51   51 51 51   51 51 51   51 51 51   51 51 51   51 51 51   13 6 17   13 6 17   51 25 69   83 40 112   110 53 148   133 65 179   154 75 207   172 84 231   189 92 253   203 99 255   232 117 255   234 116 255   234 114 255   239 117 255   239 116 255   222 108 255   51 51 51   51 51 51   51 51 51   51 51 51   51 51 51   51 51 51   51 51 51   51 51 51   51 51 51   51 51 51   
255 249 232   255 255 244   255 255 255   255 255 255   255 255 255   255 255 253   255 255 246   255 251 234   255 228 213   243 176 165   51 51 51   51 51 51   51 51 51   51 51 51   51 51 51   51 51 51   51 51 51   51 51 51   51 51 51   51 51 51   51 51 51   51 51 51   51 51 51   51 51 51   51 51 51   13 6 17   13 6 17   49 24 66   80 39 108   106 52 143   129 63 174   150 73 201   168 82 226   184 90 247   199 97 255   255 153 255   255 193 255   231 113 255   237 115 255   238 116 255   229 112 255   51 51 51   51 51 51   51 51 51   51 51 51   51 51 51   51 51 51   51 51 51   51 51 51   51 51 51   51 51 51   
255 250 234   255 255 252   255 255 255   255 255 255   255 255 255   255 255 252   255 255 245   255 249 233   255 226 212   248 180 168   51 51 51   51 51 51   51 51 51   51 51 51   51 51 51   51 51 51   51 51 51   51 51 51   51 51 51   51 51 51   51 51 51   51 51 51   51 51 51   51 51 51   51 51 51   13 6 17   13 6 17   45 21 60   75 36 101   101 49 136   124 60 166   144 70 194   162 79 218   179 87 240   193 94 255   211 104 255   241 123 255   226 110 255   232 113 255   234 114 255   228 111 255   51 51 51   51 51 51   51 51 51   51 51 51   51 51 51   51 51 51   51 51 51   51 51 51   51 51 51   51 51 51   
255 248 232   255 255 252   255 255 255   255 255 255   255 255 255   255 255 247   255 255 239   255 243 227   255 219 205   236 171 160   51 51 51   51 51 51   51 51 51   51 51 51   51 51 51   51 51 51   51 51 51   51 51 51   51 51 51   51 51 51   51 51 51   51 51 51   51 51 51   51 51 51   51 51 51   13 6 17   13 6 17   38 18 51   68 33 91   94 46 126   117 57 157   137 67 184   155 75 208   171 83 230   186 90 250   199 97 255   210 102 255   219 106 255   225 110 255   228 111 255   223 109 255   51 51 51   51 51 51   51 51 51   51 51 51   51 51 51   51 51 51   51 51 51   51 51 51   51 51 51   51 51 51   
255 243 227   255 254 237   255 255 252   255 255 252   255 255 244   255 255 239   255 247 231   255 232 217   255 207 193   207 150 141   51 51 51   51 51 51   51 51 51   51 51 51   51 51 51   51 51 51   51 51 51   51 51 51   51 51 51   51 51 51   51 51 51   51 51 51   51 51 51   51 51 51   51 51 51   13 6 17   13 6 17   28 14 38   59 29 79   85 41 115   108 53 145   129 62 173   147 71 197   163 79 219   178 86 238   190 93 255   201 98 255   210 102 255   217 105 255   219 107 255   215 105 255   51 51 51   51 51 51   51 51 51   51 51 51   51 51 51   51 51 51   51 51 51   51 51 51   51 51 51   51 51 51   
255 235 220   255 243 227   255 248 232   255 250 234   255 249 232   255 244 228   255 234 219   255 217 203   255 188 175   51 51 51   51 51 51   51 51 51   51 51 51   51 51 51   51 51 51   51 51 51   51 51 51   51 51 51   51 51 51   51 51 51   51 51 51   51 51 51   51 51 51   51 51 51   51 51 51   13 6 17   13 6 17   16 8 22   48 23 65   75 36 101   98 48 132   119 58 159   137 67 184   153 75 206   168 82 225   181 88 243   192 93 255   200 97 255   206 100 255   209 102 255   204 99 255   51 51 51   51 51 51   51 51 51   51 51 51   51 51 51   51 51 51   51 51 51   51 51 51   51 51 51   51 51 51   
