P3
51 51
255
51 51 51   51 51 51   51 51 51   51 51 51   51 51 51   51 51 51   51 51 51   51 51 51   51 51 51   51 51 51   51 51 51   51 51 51   51 51 51   51 51 51   51 51 51   146 120 109   196 162 146   236 195 176   255 223 202   255 246 223   255 255 239   51 51 51   51 51 51   51 51 51   51 51 51   51 51 51   51 51 51   51 51 51   51 51 51   51 51 51   51 51 51   51 51 51   51 51 51   51 51 51   51 51 51   51 51 51   51 51 51   51 51 51   51 51 51   51 51 51   51 51 51   51 51 51   51 51 51   51 51 51   51 51 51   51 51 51   51 51 51   51 51 51   51 51 51   51 51 51   51 51 51   
51 51 51   51 51 51   51 51 51   51 51 51   51 51 51   51 51 51   51 51 51   51 51 51   51 51 51   51 51 51   51 51 51   51 51 51   51 51 51   51 51 51   57 47 43   119 98 89   165 137 124   204 169 153   238 197 178   255 255 255   255 241 219   255 255 231   51 51 51   51 51 51   51 51 51   51 51 51   51 51 51   51 51 51   51 51 51   51 51 51   51 51 51   51 51 51   51 51 51   51 51 51   51 51 51   51 51 51   51 51 51   51 51 51   51 51 51   51 51 51   51 51 51   51 51 51   51 51 51   51 51 51   51 51 51   51 51 51   51 51 51   51 51 51   51 51 51   51 51 51   51 51 51   
51 51 51   51 51 51   51 51 51   51 51 51   51 51 51   51 51 51   51 51 51   51 51 51   51 51 51   51 51 51   51 51 51   51 51 51   51 51 51   51 51 51   26 22 20   84 69 63   129 107 97   168 139 126   202 167 151   232 191 173   255 213 193   255 228 207   255 228 207   51 51 51   51 51 51   51 51 51   51 51 51   51 51 51   51 51 51   51 51 51   51 51 51   51 51 51   51 51 51   51 51 51   51 51 51   51 51 51   51 51 51   51 51 51   51 51 51   51 51 51   51 51 51   51 51 51   51 51 51   51 51 51   51 51 51   51 51 51   51 51 51   51 51 51   51 51 51   51 51 51   51 51 51   
51 51 51   51 51 51   51 51 51   51 51 51   51 51 51   51 51 51   51 51 51   51 51 51   51 51 51   51 51 51   51 51 51   51 51 51   51 51 51   51 51 51   17 14 13   42 35 32   88 73 66   127 105 95   161 133 121   191 158 143   217 179 163   237 196 177   243 201 182   51 51 51   51 51 51   51 51 51   51 51 51   51 51 51   51 51 51   51 51 51   51 51 51   51 51 51   51 51 51   51 51 51   51 51 51   51 51 51   51 51 51   51 51 51   51 51 51   51 51 51   51 51 51   51 51 51   51 51 51   51 51 51   51 51 51   51 51 51   51 51 51   51 51 51   51 51 51   51 51 51   51 51 51   
51 51 51   51 51 51   51 51 51   51 51 51   51 51 51   51 51 51   51 51 51   51 51 51   51 51 51   51 51 51   51 51 51   51 51 51   51 51 51   51 51 51   17 14 13   17 14 13   42 35 31   82 67 61   117 96 87   147 121 110   173 143 129   192 159 144   199 164 149   51 51 51   51 51 51   51 51 51   51 51 51   51 51 51   51 51 51   51 51 51   51 51 51   51 51 51   51 51 51   51 51 51   51 51 51   51 51 51   51 51 51   51 51 51   51 51 51   51 51 51   51 51 51   51 51 51   51 51 51   51 51 51   51 51 51   51 51 51   51 51 51   51 51 51   51 51 51   51 51 51   51 51 51   
51 51 51   51 51 51   51 51 51   51 51 51   51 51 51   51 51 51   51 51 51   50 53 255   65 69 255   73 77 255   77 82 255   51 51 51   51 51 51   51 51 51   17 14 13   17 14 13   17 14 13   31 26 23   67 55 50   97 80 73   123 101 92   141 117 106   143 118 107   51 51 51   51 51 51   51 51 51   51 51 51   51 51 51   51 51 51   51 51 51   51 51 51   51 51 51   51 51 51   51 51 51   51 51 51   51 51 51   51 51 51   51 51 51   51 51 51   51 51 51   51 51 51   27 89 216   32 104 252   51 51 51   51 51 51   51 51 51   51 51 51   51 51 51   51 51 51   51 51 51   51 51 51   
51 51 51   51 51 51   51 51 51   51 51 51   51 51 51   51 51 51   38 40 210   53 56 255   63 67 255   71 76 255   77 82 255   81 85 255   78 83 255   51 51 51   51 51 51   17 14 13   17 14 13   17 14 13   17 14 13   42 34 31   66 55 50   82 67 61   51 51 51   51 51 51   51 51 51   51 51 51   51 51 51   51 51 51   51 51 51   51 51 51   51 51 51   51 51 51   51 51 51   51 51 51   51 51 51   51 51 51   51 51 51   51 51 51   51 51 51   13 43 105   19 62 150   24 78 191   29 94 228   33 108 255   37 119 255   51 51 51   51 51 51   51 51 51   51 51 51   51 51 51   51 51 51   
51 51 51   51 51 51   51 51 51   51 51 51   51 51 51   11 12 65   34 36 191   47 50 255   57 60 255   65 69 255   183 183 255   82 86 255   77 82 255   69 73 255   51 51 51   17 14 13   17 14 13   17 14 13   17 14 13   17 14 13   17 14 13   17 14 13   51 51 51   51 51 51   51 51 51   51 51 51   51 51 51   51 51 51   51 51 51   51 51 51   51 51 51   51 51 51   51 51 51   51 51 51   51 51 51   51 51 51   51 51 51   51 51 51   3 11 27   9 31 76   15 49 119   20 65 159   25 81 196   90 216 255   33 108 255   51 51 51   51 51 51   51 51 51   51 51 51   51 51 51   51 51 51   
51 51 51   51 51 51   51 51 51   51 51 51   51 51 51   8 8 45   26 28 146   39 41 213   48 51 255   56 60 255   69 73 255   80 84 255   70 74 255   68 72 255   51 51 51   51 51 51   51 51 51   17 14 13   17 14 13   17 14 13   51 51 51   51 51 51   51 51 51   51 51 51   51 51 51   51 51 51   51 51 51   51 51 51   51 51 51   51 51 51   51 51 51   51 51 51   51 51 51   51 51 51   51 51 51   51 51 51   51 51 51   2 6 15   2 6 15   5 17 42   10 35 85   16 51 124   20 66 161   25 81 196   29 94 228   32 104 252   51 51 51   51 51 51   51 51 51   51 51 51   51 51 51   
51 51 51   51 51 51   51 51 51   51 51 51   51 51 51   4 4 24   15 16 86   28 29 155   38 40 209   46 48 253   52 55 255   57 61 255   60 64 255   59 63 255   51 51 51   51 51 51   51 51 51   51 51 51   51 51 51   51 51 51   51 51 51   51 51 51   51 51 51   51 51 51   51 51 51   51 51 51   51 51 51   51 51 51   51 51 51   51 51 51   51 51 51   51 51 51   51 51 51   51 51 51   51 51 51   51 51 51   51 51 51   2 6 15   2 6 15   2 6 15   6 19 48   11 36 87   16 51 124   20 65 159   24 78 191   27 89 216   51 51 51   51 51 51   51 51 51   51 51 51   51 51 51   
51 51 51   51 51 51   51 51 51   51 51 51   51 51 51   4 4 24   4 4 24   15 16 85   25 27 141   34 36 186   40 43 222   45 48 250   48 51 255   47 50 255   51 51 51   51 51 51   51 51 51   51 51 51   51 51 51   51 51 51   51 51 51   51 51 51   51 51 51   51 51 51   51 51 51   51 51 51   51 51 51   51 51 51   51 51 51   89 117 213   114 149 255   51 51 51   51 51 51   51 51 51   51 51 51   51 51 51   51 51 51   2 6 15   2 6 15   2 6 15   2 6 15   6 19 48   10 35 85   15 49 119   19 62 150   51 51 51   51 51 51   51 51 51   51 51 51   51 51 51   51 51 51   
51 51 51   51 51 51   51 51 51   51 51 51   51 51 51   51 51 51   4 4 24   4 4 24   11 11 61   19 21 108   26 28 145   31 33 172   34 36 187   32 34 178   51 51 51   51 51 51   51 51 51   51 51 51   51 51 51   51 51 51   51 51 51   51 51 51   51 51 51   51 51 51   51 51 51   51 51 51   51 51 51   51 51 51   41 54 98   76 100 181   121 217 255   119 155 255   51 51 51   51 51 51   51 51 51   51 51 51   51 51 51   2 6 15   2 6 15   2 6 15   2 6 15   2 6 15   5 17 42   9 31 76   13 43 105   51 51 51   51 51 51   51 51 51   51 51 51   51 51 51   51 51 51   
51 51 51   51 51 51   51 51 51   51 51 51   51 51 51   51 51 51   4 4 24   4 4 24   4 4 24   4 4 24   9 10 54   14 15 80   16 17 89   9 10 53   51 51 51   51 51 51   51 51 51   51 51 51   51 51 51   51 51 51   51 51 51   51 51 51   51 51 51   51 51 51   51 51 51   51 51 51   51 51 51   6 8 15   17 22 41   50 66 120   77 101 183   95 125 227   51 51 51   51 51 51   51 51 51   51 51 51   51 51 51   51 51 51   2 6 15   2 6 15   2 6 15   2 6 15   2 6 15   3 11 27   51 51 51   51 51 51   51 51 51   51 51 51   51 51 51   51 51 51   51 51 51   
51 51 51   51 51 51   51 51 51   51 51 51   51 51 51   51 51 51   51 51 51   4 4 24   4 4 24   4 4 24   4 4 24   4 4 24   4 4 24   51 51 51   51 51 51   51 51 51   51 51 51   51 51 51   51 51 51   51 51 51   51 51 51   51 51 51   51 51 51   51 51 51   51 51 51   51 51 51   51 51 51   6 8 15   6 8 15   18 24 44   44 58 106   62 81 147   51 51 51   51 51 51   51 51 51   51 51 51   51 51 51   51 51 51   51 51 51   2 6 15   2 6 15   2 6 15   2 6 15   51 51 51   51 51 51   51 51 51   51 51 51   51 51 51   51 51 51   51 51 51   51 51 51   
51 51 51   51 51 51   51 51 51   51 51 51   51 51 51   51 51 51   51 51 51   51 51 51   51 51 51   51 51 51   51 51 51   51 51 51   51 51 51   51 51 51   51 51 51   51 51 51   51 51 51   51 51 51   51 51 51   51 51 51   51 51 51   51 51 51   51 51 51   51 51 51   51 51 51   51 51 51   51 51 51   51 51 51   6 8 15   6 8 15   6 8 15   51 51 51   51 51 51   51 51 51   51 51 51   51 51 51   51 51 51   51 51 51   51 51 51   51 51 51   51 51 51   51 51 51   51 51 51   51 51 51   51 51 51   51 51 51   51 51 51   51 51 51   51 51 51   51 51 51   51 51 51   
51 51 51   51 51 51   51 51 51   51 51 51   51 51 51   51 51 51   51 51 51   51 51 51   51 51 51   51 51 51   51 51 51   51 51 51   51 51 51   51 51 51   51 51 51   51 51 51   51 51 51   51 51 51   51 51 51   51 51 51   51 51 51   51 51 51   51 51 51   51 51 51   51 51 51   51 51 51   51 51 51   51 51 51   51 51 51   51 51 51   51 51 51   51 51 51   51 51 51   51 51 51   51 51 51   51 51 51   51 51 51   51 51 51   51 51 51   51 51 51   51 51 51   51 51 51   51 51 51   51 51 51   51 51 51   51 51 51   51 51 51   51 51 51   51 51 51   51 51 51   51 51 51   
51 51 51   51 51 51   51 51 51   51 51 51   51 51 51   51 51 51   51 51 51   51 51 51   51 51 51   55 255 255   62 255 255   51 51 51   51 51 51   51 51 51   51 51 51   51 51 51   51 51 51   54 164 24   84 254 38   102 255 46   113 255 52   114 255 52   51 51 51   51 51 51   51 51 51   51 51 51   51 51 51   51 51 51   51 51 51   51 51 51   51 51 51   51 51 51   51 51 51   51 51 51   51 51 51   51 51 51   51 51 51   51 51 51   51 51 51   51 51 51   51 51 51   51 51 51   51 51 51   51 51 51   51 51 51   51 51 51   51 51 51   51 51 51   51 51 51   51 51 51   51 51 51   
51 51 51   51 51 51   51 51 51   51 51 51   51 51 51   51 51 51   51 51 51   4 24 22   4 24 22   4 24 22   4 24 22   4 24 22   72 255 255   51 51 51   51 51 51   51 51 51   21 63 9   58 176 26   80 244 37   97 255 44   109 255 50   116 255 53   112 255 51   51 51 51   51 51 51   51 51 51   51 51 51   51 51 51   51 51 51   51 51 51   51 51 51   51 51 51   51 51 51   51 51 51   51 51 51   51 51 51   51 51 51   51 51 51   51 51 51   51 51 51   51 51 51   51 51 51   51 51 51   51 51 51   51 51 51   51 51 51   51 51 51   51 51 51   51 51 51   51 51 51   51 51 51   
51 51 51   51 51 51   51 51 51   51 51 51   51 51 51   51 51 51   4 24 22   4 24 22   4 24 22   4 24 22   4 24 22   4 24 22   4 24 22   65 255 255   51 51 51   51 51 51   18 56 8   48 147 22   69 211 32   86 255 39   110 255 52   106 255 49   108 255 49   51 51 51   51 51 51   51 51 51   51 51 51   51 51 51   51 51 51   51 51 51   51 51 51   51 51 51   51 51 51   51 51 51   51 51 51   51 51 51   51 51 51   38 36 45   68 65 80   88 84 103   51 51 51   51 51 51   51 51 51   51 51 51   51 51 51   51 51 51   51 51 51   51 51 51   51 51 51   51 51 51   51 51 51   
51 51 51   51 51 51   51 51 51   51 51 51   51 51 51   51 51 51   4 24 22   4 24 22   4 24 22   4 24 22   4 24 22   4 24 22   4 24 22   64 255 255   51 51 51   51 51 51   6 19 2   33 100 15   54 164 24   70 213 32   83 251 38   91 255 41   93 255 42   51 51 51   51 51 51   51 51 51   51 51 51   51 51 51   6 17 8   6 17 8   6 17 8   51 51 51   51 51 51   51 51 51   51 51 51   51 51 51   5 5 6   35 34 41   60 57 70   125 98 148   106 96 125   51 51 51   51 51 51   51 51 51   51 51 51   51 51 51   51 51 51   51 51 51   51 51 51   51 51 51   51 51 51   
51 51 51   51 51 51   51 51 51   51 51 51   51 51 51   51 51 51   4 24 22   4 24 22   4 24 22   4 24 22   4 24 22   4 24 22   4 24 22   55 255 255   51 51 51   51 51 51   6 19 2   12 38 5   34 104 15   51 154 23   63 191 29   71 216 32   72 219 33   51 51 51   51 51 51   51 51 51   51 51 51   51 51 51   6 17 8   6 17 8   6 17 8   6 17 8   51 51 51   51 51 51   51 51 51   51 51 51   5 5 6   21 20 25   45 43 52   72 65 84   127 100 151   91 86 106   51 51 51   51 51 51   51 51 51   51 51 51   51 51 51   51 51 51   51 51 51   51 51 51   51 51 51   
51 51 51   51 51 51   51 51 51   51 51 51   51 51 51   51 51 51   4 24 22   4 24 22   4 24 22   4 24 22   4 24 22   4 24 22   45 255 251   41 242 226   51 51 51   51 51 51   6 19 2   6 19 2   9 28 4   26 80 12   38 117 17   45 138 21   41 126 19   51 51 51   51 51 51   51 51 51   51 51 51   6 17 8   6 17 8   6 17 8   6 17 8   6 17 8   51 51 51   51 51 51   51 51 51   51 51 51   5 5 6   5 5 6   26 25 31   46 44 54   62 59 73   71 68 84   51 51 51   51 51 51   51 51 51   51 51 51   51 51 51   51 51 51   51 51 51   51 51 51   51 51 51   
51 51 51   51 51 51   51 51 51   51 51 51   51 51 51   51 51 51   51 51 51   4 24 22   4 24 22   4 24 22   4 24 22   4 24 22   28 165 155   17 105 98   51 51 51   51 51 51   51 51 51   6 19 2   6 19 2   6 19 2   6 19 2   7 23 3   51 51 51   51 51 51   51 51 51   51 51 51   51 51 51   51 51 51   6 17 8   6 17 8   6 17 8   6 17 8   51 51 51   51 51 51   51 51 51   51 51 51   5 5 6   5 5 6   5 5 6   23 22 27   39 37 45   51 51 51   51 51 51   51 51 51   51 51 51   51 51 51   51 51 51   51 51 51   51 51 51   51 51 51   51 51 51   
51 51 51   51 51 51   51 51 51   51 51 51   51 51 51   51 51 51   51 51 51   51 51 51   4 24 22   4 24 22   4 24 22   4 24 22   4 24 22   51 51 51   51 51 51   51 51 51   51 51 51   51 51 51   51 51 51   51 51 51   51 51 51   51 51 51   51 51 51   51 51 51   51 51 51   51 51 51   51 51 51   51 51 51   51 51 51   6 17 8   51 51 51   51 51 51   51 51 51   51 51 51   51 51 51   51 51 51   51 51 51   5 5 6   5 5 6   5 5 6   51 51 51   51 51 51   51 51 51   51 51 51   51 51 51   51 51 51   51 51 51   51 51 51   51 51 51   51 51 51   51 51 51   
51 51 51   51 51 51   51 51 51   51 51 51   51 51 51   51 51 51   51 51 51   51 51 51   51 51 51   51 51 51   51 51 51   51 51 51   51 51 51   51 51 51   51 51 51   51 51 51   51 51 51   51 51 51   51 51 51   51 51 51   51 51 51   51 51 51   51 51 51   51 51 51   51 51 51   51 51 51   51 51 51   51 51 51   51 51 51   51 51 51   51 51 51   51 51 51   51 51 51   51 51 51   51 51 51   51 51 51   51 51 51   51 51 51   51 51 51   51 51 51   51 51 51   51 51 51   51 51 51   51 51 51   51 51 51   51 51 51   51 51 51   51 51 51   51 51 51   51 51 51   51 51 51   
51 51 51   51 51 51   51 51 51   51 51 51   51 51 51   51 51 51   51 51 51   51 51 51   51 51 51   51 51 51   51 51 51   51 51 51   51 51 51   51 51 51   51 51 51   51 51 51   51 51 51   51 51 51   51 51 51   51 51 51   51 51 51   51 51 51   51 51 51   51 51 51   51 51 51   51 51 51   51 51 51   51 51 51   51 51 51   51 51 51   51 51 51   51 51 51   51 51 51   51 51 51   51 51 51   51 51 51   51 51 51   51 51 51   51 51 51   51 51 51   51 51 51   51 51 51   51 51 51   51 51 51   51 51 51   51 51 51   51 51 51   51 51 51   51 51 51   51 51 51   51 51 51   
51 51 51   51 51 51   51 51 51   51 51 51   51 51 51   51 51 51   51 51 51   51 51 51   51 51 51   51 51 51   51 51 51   51 51 51   51 51 51   51 51 51   51 51 51   51 51 51   51 51 51   51 51 51   25 91 255   31 111 255   34 123 255   36 128 255   51 51 51   51 51 51   51 51 51   51 51 51   51 51 51   51 51 51   51 51 51   51 51 51   51 51 51   51 51 51   51 51 51   51 51 51   51 51 51   51 51 51   51 51 51   51 51 51   51 51 51   51 51 51   51 51 51   51 51 51   51 51 51   51 51 51   51 51 51   51 51 51   51 51 51   51 51 51   51 51 51   51 51 51   51 51 51   
51 51 51   51 51 51   51 51 51   51 51 51   51 51 51   51 51 51   51 51 51   51 51 51   51 51 51   51 51 51   51 51 51   51 51 51   51 51 51   51 51 51   51 51 51   51 51 51   13 47 146   22 81 253   29 103 255   33 119 255   37 132 255   39 139 255   39 142 255   36 130 255   51 51 51   51 51 51   51 51 51   51 51 51   51 51 51   51 51 51   51 51 51   51 51 51   51 51 51   51 51 51   51 51 51   51 51 51   51 51 51   51 51 51   51 51 51   51 51 51   51 51 51   51 51 51   51 51 51   51 51 51   51 51 51   51 51 51   51 51 51   51 51 51   51 51 51   51 51 51   51 51 51   
51 51 51   51 51 51   51 51 51   51 51 51   51 51 51   51 51 51   255 157 120   255 186 144   255 192 148   255 159 122   51 51 51   51 51 51   51 51 51   51 51 51   51 51 51   3 12 37   16 58 181   23 84 255   29 103 255   33 119 255   36 131 255   40 140 255   40 144 255   39 142 255   51 51 51   51 51 51   51 51 51   51 51 51   51 51 51   51 51 51   186 228 113   51 51 51   51 51 51   51 51 51   51 51 51   51 51 51   51 51 51   51 51 51   2 13 46   9 58 196   12 77 255   51 51 51   51 51 51   51 51 51   51 51 51   51 51 51   51 51 51   51 51 51   51 51 51   51 51 51   51 51 51   
51 51 51   51 51 51   51 51 51   51 51 51   142 67 51   255 140 107   255 204 181   255 255 255   255 255 255   255 230 198   255 163 125   51 51 51   51 51 51   51 51 51   51 51 51   6 23 71   16 57 177   22 80 250   27 99 255   31 113 255   46 136 255   255 255 255   40 140 255   39 139 255   36 128 255   51 51 51   51 51 51   51 51 51   51 51 51   109 133 66   196 238 117   255 255 151   51 51 51   51 51 51   51 51 51   51 51 51   51 51 51   51 51 51   2 17 58   8 50 170   167 92 255   13 81 255   51 51 51   51 51 51   51 51 51   51 51 51   51 51 51   51 51 51   51 51 51   51 51 51   51 51 51   
51 51 51   51 51 51   51 51 51   51 51 51   187 88 68   255 144 114   255 224 221   255 255 255   255 255 255   255 255 255   255 181 139   51 51 51   51 51 51   51 51 51   51 51 51   5 18 58   14 50 155   20 72 225   25 90 255   29 105 255   32 116 255   46 136 255   36 131 255   37 132 255   34 123 255   51 51 51   51 51 51   51 51 51   13 16 8   66 81 40   147 179 89   201 245 121   177 217 108   51 51 51   51 51 51   51 51 51   51 51 51   51 51 51   0 4 15   5 31 104   9 55 187   10 67 225   51 51 51   51 51 51   51 51 51   51 51 51   51 51 51   51 51 51   51 51 51   51 51 51   51 51 51   
51 51 51   51 51 51   51 51 51   51 51 51   159 75 58   255 124 96   255 187 175   255 251 255   255 255 255   255 229 220   255 162 125   51 51 51   51 51 51   51 51 51   51 51 51   2 7 24   10 38 120   17 61 190   22 79 245   26 93 255   29 105 255   31 113 255   33 119 255   33 119 255   31 111 255   51 51 51   51 51 51   51 51 51   51 51 51   13 16 8   74 90 45   121 148 73   51 51 51   51 51 51   51 51 51   51 51 51   51 51 51   51 51 51   0 4 15   0 4 15   4 26 87   51 51 51   51 51 51   51 51 51   51 51 51   51 51 51   51 51 51   51 51 51   51 51 51   51 51 51   51 51 51   
51 51 51   51 51 51   51 51 51   51 51 51   93 44 33   195 92 70   255 127 101   255 162 143   255 175 157   255 155 125   255 122 93   51 51 51   51 51 51   51 51 51   51 51 51   2 7 24   6 23 72   13 46 144   18 64 200   22 79 245   25 90 255   27 99 255   29 103 255   29 103 255   25 91 255   51 51 51   51 51 51   51 51 51   51 51 51   51 51 51   13 16 8   51 51 51   51 51 51   51 51 51   51 51 51   51 51 51   51 51 51   51 51 51   51 51 51   51 51 51   51 51 51   51 51 51   51 51 51   51 51 51   51 51 51   51 51 51   51 51 51   51 51 51   51 51 51   51 51 51   51 51 51   
51 51 51   51 51 51   51 51 51   51 51 51   24 11 8   98 46 35   167 79 60   208 98 75   223 105 80   203 96 73   51 51 51   51 51 51   51 51 51   51 51 51   51 51 51   2 7 24   2 7 24   7 27 86   13 46 144   17 61 190   20 72 225   22 80 250   23 84 255   22 81 253   51 51 51   51 51 51   51 51 51   51 51 51   51 51 51   51 51 51   51 51 51   51 51 51   51 51 51   51 51 51   51 51 51   51 51 51   51 51 51   51 51 51   51 51 51   51 51 51   51 51 51   51 51 51   51 51 51   51 51 51   51 51 51   51 51 51   51 51 51   51 51 51   51 51 51   51 51 51   51 51 51   
51 51 51   51 51 51   51 51 51   51 51 51   51 51 51   24 11 8   24 11 8   67 32 24   67 31 24   51 51 51   51 51 51   51 51 51   51 51 51   51 51 51   51 51 51   51 51 51   2 7 24   2 7 24   6 23 72   10 38 120   14 50 155   16 57 177   16 58 181   13 47 146   51 51 51   51 51 51   51 51 51   51 51 51   51 51 51   51 51 51   51 51 51   51 51 51   51 51 51   51 51 51   51 51 51   51 51 51   51 51 51   51 51 51   51 51 51   51 51 51   51 51 51   51 51 51   51 51 51   51 51 51   51 51 51   51 51 51   51 51 51   51 51 51   51 51 51   51 51 51   51 51 51   
51 51 51   51 51 51   51 51 51   51 51 51   51 51 51   51 51 51   51 51 51   51 51 51   51 51 51   51 51 51   51 51 51   51 51 51   51 51 51   51 51 51   51 51 51   51 51 51   51 51 51   2 7 24   2 7 24   2 7 24   5 18 58   6 23 71   3 12 37   51 51 51   51 51 51   51 51 51   51 51 51   51 51 51   51 51 51   51 51 51   51 51 51   51 51 51   51 51 51   51 51 51   51 51 51   51 51 51   51 51 51   51 51 51   51 51 51   51 51 51   51 51 51   51 51 51   51 51 51   51 51 51   51 51 51   51 51 51   51 51 51   51 51 51   51 51 51   51 51 51   51 51 51   
51 51 51   51 51 51   51 51 51   51 51 51   51 51 51   51 51 51   51 51 51   51 51 51   51 51 51   51 51 51   51 51 51   51 51 51   51 51 51   51 51 51   51 51 51   51 51 51   51 51 51   51 51 51   51 51 51   51 51 51   51 51 51   51 51 51   51 51 51   51 51 51   51 51 51   51 51 51   51 51 51   51 51 51   51 51 51   51 51 51   130 100 85   155 119 102   158 122 104   51 51 51   51 51 51   51 51 51   51 51 51   51 51 51   51 51 51   51 51 51   51 51 51   51 51 51   51 51 51   51 51 51   51 51 51   51 51 51   51 51 51   51 51 51   51 51 51   51 51 51   51 51 51   
51 51 51   51 51 51   51 51 51   51 51 51   51 51 51   51 51 51   51 51 51   51 51 51   51 51 51   51 51 51   51 51 51   51 51 51   51 51 51   51 51 51   51 51 51   51 51 51   51 51 51   51 51 51   51 51 51   51 51 51   51 51 51   51 51 51   51 51 51   51 51 51   51 51 51   51 51 51   51 51 51   51 51 51   93 71 61   133 102 87   163 125 107   187 143 123   205 157 134   215 165 141   208 160 137   51 51 51   51 51 51   51 51 51   51 51 51   51 51 51   51 51 51   51 51 51   51 51 51   51 51 51   51 51 51   51 51 51   51 51 51   51 51 51   51 51 51   51 51 51   51 51 51   
51 51 51   51 51 51   51 51 51   51 51 51   51 51 51   51 51 51   51 51 51   51 51 51   51 51 51   51 51 51   51 51 51   51 51 51   51 51 51   51 51 51   51 51 51   51 51 51   51 51 51   51 51 51   51 51 51   51 51 51   51 51 51   51 51 51   51 51 51   51 51 51   51 51 51   51 51 51   13 10 8   67 51 44   111 85 73   145 111 95   173 132 113   196 150 128   214 164 141   228 175 150   235 181 154   228 175 150   51 51 51   51 51 51   51 51 51   51 51 51   51 51 51   51 51 51   51 51 51   51 51 51   51 51 51   51 51 51   51 51 51   51 51 51   51 51 51   51 51 51   51 51 51   
51 51 51   51 51 51   51 51 51   51 51 51   51 51 51   51 51 51   51 51 51   51 51 51   51 51 51   51 51 51   51 51 51   51 51 51   51 51 51   51 51 51   51 51 51   51 51 51   51 51 51   51 51 51   51 51 51   51 51 51   51 51 51   51 51 51   51 51 51   51 51 51   51 51 51   51 51 51   24 18 16   77 59 50   116 89 76   147 113 97   174 133 114   197 151 129   215 165 141   230 177 151   241 185 158   244 187 160   221 170 145   51 51 51   51 51 51   51 51 51   18 54 57   52 157 166   51 51 51   51 51 51   51 51 51   51 51 51   51 51 51   51 51 51   51 51 51   51 51 51   51 51 51   
51 51 51   51 51 51   51 51 51   51 51 51   51 51 51   51 51 51   51 51 51   51 51 51   51 51 51   51 51 51   51 51 51   51 51 51   51 51 51   51 51 51   51 51 51   51 51 51   51 51 51   42 4 16   80 7 31   100 9 39   110 10 42   101 9 39   51 51 51   51 51 51   51 51 51   13 10 8   31 24 20   78 59 51   114 88 75   145 111 95   171 131 112   193 148 127   212 167 143   231 199 171   239 184 158   245 188 161   240 184 157   51 51 51   51 51 51   4 13 14   25 76 80   55 164 174   78 247 241   51 51 51   51 51 51   51 51 51   51 51 51   51 51 51   51 51 51   51 51 51   51 51 51   
51 51 51   51 51 51   51 51 51   51 51 51   51 51 51   51 51 51   51 51 51   51 51 51   51 51 51   51 51 51   51 51 51   51 51 51   51 51 51   51 51 51   51 51 51   51 51 51   25 2 9   70 6 27   96 9 37   113 11 44   124 12 48   126 12 49   107 10 41   51 51 51   51 51 51   13 10 8   29 22 19   73 56 48   108 83 71   138 106 91   164 126 108   186 143 122   206 164 141   233 255 233   235 190 163   240 185 158   239 184 157   51 51 51   51 51 51   4 13 14   14 43 46   44 132 140   74 254 216   75 226 239   51 51 51   51 51 51   51 51 51   51 51 51   51 51 51   51 51 51   51 51 51   
51 51 51   51 51 51   51 51 51   51 51 51   51 51 51   51 51 51   51 51 51   51 51 51   51 51 51   51 51 51   51 51 51   51 51 51   51 51 51   51 51 51   51 51 51   51 51 51   41 4 16   75 7 29   99 9 38   115 11 44   128 13 49   130 12 50   122 12 47   51 51 51   51 51 51   13 10 8   21 16 13   64 49 42   99 76 65   129 99 84   154 118 101   177 136 116   196 150 129   213 173 148   224 174 149   232 178 152   232 178 152   208 160 137   51 51 51   51 51 51   4 13 14   25 77 82   48 143 152   55 166 175   51 51 51   51 51 51   51 51 51   51 51 51   51 51 51   51 51 51   51 51 51   
51 51 51   51 51 51   51 51 51   51 51 51   131 146 117   255 255 245   255 255 255   255 255 255   51 51 51   51 51 51   51 51 51   51 51 51   51 51 51   51 51 51   51 51 51   7 0 2   42 4 16   73 7 28   95 9 37   111 10 43   181 47 64   126 12 49   120 11 46   51 51 51   51 51 51   13 10 8   13 10 8   52 39 34   87 67 57   117 89 76   142 109 93   164 126 108   183 141 120   199 153 131   212 162 139   220 169 144   220 169 145   199 152 130   51 51 51   51 51 51   51 51 51   4 13 14   15 45 47   51 51 51   51 51 51   51 51 51   51 51 51   51 51 51   51 51 51   51 51 51   51 51 51   
51 51 51   51 51 51   51 51 51   51 51 51   207 230 185   255 255 255   255 255 255   255 255 255   51 51 51   51 51 51   51 51 51   51 51 51   51 51 51   51 51 51   51 51 51   7 0 2   35 3 13   65 6 25   87 8 33   103 10 40   113 11 43   117 11 45   110 10 42   51 51 51   51 51 51   13 10 8   13 10 8   35 27 23   71 55 47   101 78 66   127 98 83   149 115 98   169 129 111   184 141 121   197 151 129   204 157 134   204 156 134   173 133 114   51 51 51   51 51 51   51 51 51   51 51 51   51 51 51   51 51 51   51 51 51   51 51 51   51 51 51   51 51 51   51 51 51   51 51 51   51 51 51   
51 51 51   51 51 51   51 51 51   51 51 51   187 208 167   255 255 241   255 255 255   255 255 245   51 51 51   51 51 51   51 51 51   51 51 51   51 51 51   51 51 51   51 51 51   51 51 51   20 2 8   52 5 20   74 7 28   89 8 34   99 9 38   101 9 39   90 8 35   51 51 51   51 51 51   51 51 51   13 10 8   13 10 8   52 40 34   83 63 54   109 84 72   132 101 86   151 116 99   166 128 109   178 137 117   184 142 121   181 139 119   51 51 51   51 51 51   51 51 51   51 51 51   51 51 51   51 51 51   51 51 51   51 51 51   51 51 51   51 51 51   51 51 51   51 51 51   51 51 51   51 51 51   
51 51 51   51 51 51   51 51 51   51 51 51   103 114 92   187 208 167   207 230 185   131 146 117   51 51 51   51 51 51   51 51 51   51 51 51   51 51 51   51 51 51   51 51 51   51 51 51   7 0 2   31 3 12   54 5 21   70 6 27   78 7 30   77 7 30   51 51 51   51 51 51   51 51 51   51 51 51   13 10 8   13 10 8   27 21 18   60 46 39   87 67 57   110 85 72   129 99 85   145 111 95   155 119 102   159 122 105   148 114 97   51 51 51   51 51 51   51 51 51   51 51 51   51 51 51   51 51 51   51 51 51   51 51 51   51 51 51   51 51 51   51 51 51   51 51 51   51 51 51   51 51 51   
51 51 51   51 51 51   51 51 51   51 51 51   51 51 51   51 51 51   51 51 51   51 51 51   51 51 51   51 51 51   51 51 51   51 51 51   51 51 51   51 51 51   51 51 51   51 51 51   51 51 51   7 0 2   24 2 9   40 3 15   44 4 17   51 51 51   51 51 51   51 51 51   51 51 51   51 51 51   51 51 51   13 10 8   13 10 8   32 24 21   60 46 40   84 65 55   103 79 68   118 90 77   126 97 83   124 95 81   51 51 51   51 51 51   51 51 51   51 51 51   51 51 51   51 51 51   51 51 51   51 51 51   51 51 51   51 51 51   51 51 51   51 51 51   51 51 51   51 51 51   51 51 51   
51 51 51   51 51 51   51 51 51   51 51 51   51 51 51   51 51 51   51 51 51   51 51 51   51 51 51   51 51 51   51 51 51   51 51 51   51 51 51   51 51 51   51 51 51   51 51 51   51 51 51   51 51 51   51 51 51   51 51 51   51 51 51   51 51 51   51 51 51   51 51 51   51 51 51   51 51 51   51 51 51   51 51 51   13 10 8   13 10 8   25 19 16   50 38 32   69 53 45   81 62 53   82 63 54   51 51 51   51 51 51   51 51 51   51 51 51   51 51 51   51 51 51   51 51 51   51 51 51   51 51 51   51 51 51   51 51 51   51 51 51   51 51 51   51 51 51   51 51 51   51 51 51   
51 51 51   51 51 51   51 51 51   51 51 51   51 51 51   51 51 51   51 51 51   51 51 51   51 51 51   51 51 51   51 51 51   51 51 51   51 51 51   51 51 51   51 51 51   51 51 51   51 51 51   51 51 51   51 51 51   51 51 51   51 51 51   51 51 51   51 51 51   51 51 51   51 51 51   51 51 51   51 51 51   51 51 51   51 51 51   51 51 51   13 10 8   13 10 8   13 10 8   51 51 51   51 51 51   51 51 51   51 51 51   51 51 51   51 51 51   51 51 51   51 51 51   51 51 51   51 51 51   51 51 51   51 51 51   51 51 51   51 51 51   51 51 51   51 51 51   51 51 51   51 51 51   
51 51 51   51 51 51   51 51 51   51 51 51   51 51 51   51 51 51   51 51 51   51 51 51   51 51 51   51 51 51   51 51 51   51 51 51   51 51 51   51 51 51   51 51 51   51 51 51   51 51 51   51 51 51   51 51 51   51 51 51   51 51 51   51 51 51   51 51 51   51 51 51   51 51 51   51 51 51   51 51 51   51 51 51   51 51 51   51 51 51   51 51 51   51 51 51   51 51 51   51 51 51   51 51 51   51 51 51   51 51 51   51 51 51   51 51 51   51 51 51   51 51 51   51 51 51   51 51 51   51 51 51   51 51 51   51 51 51   51 51 51   51 51 51   51 51 51   51 51 51   51 51 51   
