P3
51 51
255
51 51 51   51 51 51   51 51 51   51 51 51   51 51 51   51 51 51   51 51 51   51 51 51   51 51 51   51 51 51   51 51 51   51 51 51   51 51 51   51 51 51   51 51 51   51 51 51   51 51 51   51 51 51   51 51 51   51 51 51   51 51 51   51 51 51   51 51 51   51 51 51   51 51 51   51 51 51   51 51 51   51 51 51   51 51 51   51 51 51   51 51 51   51 51 51   51 51 51   51 51 51   51 51 51   51 51 51   51 51 51   51 51 51   51 51 51   51 51 51   51 51 51   51 51 51   51 51 51   51 51 51   51 51 51   51 51 51   51 51 51   51 51 51   51 51 51   51 51 51   51 51 51   
51 51 51   51 51 51   51 51 51   51 51 51   51 51 51   51 51 51   51 51 51   51 51 51   51 51 51   51 51 51   51 51 51   51 51 51   51 51 51   51 51 51   51 51 51   51 51 51   51 51 51   51 51 51   51 51 51   51 51 51   51 51 51   51 51 51   51 51 51   51 51 51   51 51 51   51 51 51   51 51 51   51 51 51   51 51 51   51 51 51   51 51 51   51 51 51   51 51 51   51 51 51   51 51 51   51 51 51   51 51 51   51 51 51   51 51 51   51 51 51   51 51 51   51 51 51   51 51 51   51 51 51   51 51 51   51 51 51   51 51 51   51 51 51   51 51 51   51 51 51   51 51 51   
51 51 51   51 51 51   51 51 51   51 51 51   51 51 51   51 51 51   51 51 51   51 51 51   51 51 51   51 51 51   51 51 51   51 51 51   51 51 51   51 51 51   51 51 51   51 51 51   51 51 51   51 51 51   51 51 51   51 51 51   51 51 51   51 51 51   51 51 51   51 51 51   51 51 51   51 51 51   51 51 51   51 51 51   51 51 51   51 51 51   51 51 51   51 51 51   51 51 51   51 51 51   51 51 51   51 51 51   51 51 51   51 51 51   51 51 51   51 51 51   51 51 51   51 51 51   51 51 51   17 67 118   26 101 177   34 132 231   42 162 255   49 191 255   57 219 255   51 51 51   51 51 51   
51 51 51   51 51 51   51 51 51   51 51 51   51 51 51   51 51 51   51 51 51   51 51 51   51 51 51   51 51 51   51 51 51   51 51 51   51 51 51   51 51 51   51 51 51   51 51 51   51 51 51   51 51 51   51 51 51   51 51 51   51 51 51   51 51 51   51 51 51   51 51 51   51 51 51   51 51 51   51 51 51   51 51 51   51 51 51   51 51 51   51 51 51   51 51 51   51 51 51   51 51 51   51 51 51   51 51 51   51 51 51   51 51 51   51 51 51   51 51 51   51 51 51   51 51 51   3 12 21   10 40 71   19 73 128   27 103 182   35 133 234   93 255 255   49 191 255   51 51 51   51 51 51   
51 51 51   51 51 51   51 51 51   51 51 51   51 51 51   51 51 51   51 51 51   51 51 51   51 51 51   51 51 51   51 51 51   51 51 51   51 51 51   51 51 51   51 51 51   51 51 51   51 51 51   51 51 51   51 51 51   51 51 51   51 51 51   51 51 51   51 51 51   51 51 51   51 51 51   51 51 51   51 51 51   51 51 51   51 51 51   12 3 73   21 6 121   27 8 158   32 9 189   37 11 214   51 51 51   51 51 51   51 51 51   51 51 51   51 51 51   51 51 51   51 51 51   51 51 51   3 12 21   3 12 21   11 44 77   19 74 131   27 104 183   35 133 234   42 162 255   51 51 51   51 51 51   
51 51 51   51 51 51   51 51 51   51 51 51   51 51 51   51 51 51   51 51 51   51 51 51   51 51 51   51 51 51   51 51 51   51 51 51   51 51 51   51 51 51   51 51 51   51 51 51   51 51 51   51 51 51   51 51 51   51 51 51   51 51 51   51 51 51   51 51 51   51 51 51   51 51 51   51 51 51   51 51 51   51 51 51   2 0 11   9 2 55   16 5 96   22 6 131   38 34 203   37 21 207   36 10 208   51 51 51   51 51 51   51 51 51   51 51 51   51 51 51   51 51 51   3 12 21   3 12 21   3 12 21   3 12 21   11 45 79   19 74 131   27 103 182   34 132 231   51 51 51   51 51 51   
51 51 51   51 51 51   51 51 51   51 51 51   51 51 51   51 51 51   51 51 51   51 51 51   51 51 51   51 51 51   51 51 51   51 51 51   51 51 51   51 51 51   51 51 51   51 51 51   51 51 51   51 51 51   51 51 51   20 197 217   24 234 255   27 255 255   51 51 51   51 51 51   51 51 51   51 51 51   51 51 51   51 51 51   2 0 11   4 1 26   11 3 66   17 5 101   22 6 132   28 9 161   31 9 180   51 51 51   51 51 51   51 51 51   51 51 51   51 51 51   51 51 51   3 12 21   3 12 21   3 12 21   3 12 21   3 12 21   11 44 77   19 73 128   26 101 177   51 51 51   51 51 51   
51 51 51   51 51 51   51 51 51   51 51 51   51 51 51   51 51 51   51 51 51   51 51 51   51 51 51   51 51 51   51 51 51   51 51 51   51 51 51   51 51 51   51 51 51   51 51 51   51 51 51   10 102 113   17 163 179   21 201 221   26 235 255   34 255 255   33 255 255   30 255 255   51 51 51   51 51 51   51 51 51   51 51 51   2 0 11   2 0 11   5 1 31   11 3 66   16 5 97   21 6 124   25 7 146   51 51 51   51 51 51   51 51 51   51 51 51   51 51 51   51 51 51   3 12 21   3 12 21   3 12 21   3 12 21   3 12 21   3 12 21   10 40 71   17 67 118   51 51 51   51 51 51   
51 51 51   51 51 51   51 51 51   51 51 51   51 51 51   51 51 51   51 51 51   51 51 51   51 51 51   51 51 51   51 51 51   51 51 51   51 51 51   51 51 51   51 51 51   51 51 51   51 51 51   11 107 117   15 150 165   20 186 204   36 236 249   77 255 255   95 255 255   50 255 255   29 255 255   51 51 51   51 51 51   51 51 51   2 0 11   2 0 11   2 0 11   4 1 28   10 3 59   14 4 86   18 5 105   51 51 51   51 51 51   51 51 51   51 51 51   51 51 51   51 51 51   51 51 51   3 12 21   3 12 21   3 12 21   3 12 21   3 12 21   3 12 21   51 51 51   51 51 51   51 51 51   
51 51 51   51 51 51   51 51 51   51 51 51   51 51 51   51 51 51   51 51 51   51 51 51   51 51 51   51 51 51   51 51 51   51 51 51   51 51 51   51 51 51   51 51 51   51 51 51   3 33 36   9 88 97   13 129 142   17 163 179   32 211 222   82 255 255   134 255 255   96 255 255   33 255 255   26 254 255   51 51 51   51 51 51   2 0 11   2 0 11   2 0 11   2 0 11   2 0 11   7 2 40   51 51 51   51 51 51   51 51 51   51 51 51   51 51 51   51 51 51   51 51 51   51 51 51   51 51 51   3 12 21   3 12 21   3 12 21   51 51 51   51 51 51   51 51 51   51 51 51   51 51 51   
51 51 51   51 51 51   51 51 51   51 51 51   51 51 51   51 51 51   51 51 51   51 51 51   51 51 51   51 51 51   51 51 51   51 51 51   51 51 51   51 51 51   51 51 51   51 51 51   1 15 17   6 63 69   10 102 112   14 135 149   20 169 183   42 225 230   77 255 255   74 255 255   34 255 255   25 240 255   51 51 51   51 51 51   51 51 51   2 0 11   2 0 11   2 0 11   2 0 11   2 0 11   51 51 51   51 51 51   51 51 51   51 51 51   51 51 51   51 51 51   51 51 51   51 51 51   51 51 51   51 51 51   51 51 51   51 51 51   51 51 51   51 51 51   51 51 51   51 51 51   51 51 51   
51 51 51   51 51 51   51 51 51   51 51 51   51 51 51   51 51 51   51 51 51   51 51 51   51 51 51   51 51 51   51 51 51   51 51 51   51 51 51   255 255 248   51 51 51   51 51 51   1 15 17   3 32 35   7 71 78   11 105 115   14 134 147   19 162 177   28 195 208   32 216 229   24 215 234   22 212 233   51 51 51   51 51 51   51 51 51   51 51 51   51 51 51   51 51 51   51 51 51   51 51 51   51 51 51   51 51 51   51 51 51   51 51 51   51 51 51   51 51 51   51 51 51   51 51 51   51 51 51   51 51 51   51 51 51   51 51 51   51 51 51   51 51 51   51 51 51   51 51 51   51 51 51   
51 51 51   51 51 51   51 51 51   51 51 51   51 51 51   51 51 51   51 51 51   51 51 51   51 51 51   51 51 51   51 51 51   51 51 51   209 176 160   255 255 251   255 255 255   51 51 51   1 15 17   1 15 17   3 36 39   7 70 77   10 99 109   13 124 137   15 146 161   17 164 180   18 175 193   18 175 193   51 51 51   51 51 51   51 51 51   51 51 51   51 51 51   51 51 51   51 51 51   51 51 51   51 51 51   51 51 51   51 51 51   51 51 51   51 51 51   51 51 51   51 51 51   51 51 51   51 51 51   51 51 51   51 51 51   51 51 51   51 51 51   51 51 51   51 51 51   51 51 51   51 51 51   
51 51 51   51 51 51   51 51 51   51 51 51   51 51 51   51 51 51   51 51 51   51 51 51   51 51 51   51 51 51   51 51 51   19 16 15   100 84 77   197 165 151   19 16 15   51 51 51   1 15 17   1 15 17   1 15 17   3 30 33   6 60 66   9 86 95   11 107 118   13 124 137   14 134 148   13 127 140   51 51 51   51 51 51   51 51 51   51 51 51   51 51 51   51 51 51   51 51 51   51 51 51   51 51 51   51 51 51   51 51 51   51 51 51   51 51 51   51 51 51   51 51 51   51 51 51   51 51 51   51 51 51   51 51 51   51 51 51   51 51 51   51 51 51   51 51 51   51 51 51   51 51 51   
51 51 51   51 51 51   51 51 51   51 51 51   51 51 51   51 51 51   51 51 51   51 51 51   51 51 51   51 51 51   51 51 51   51 51 51   19 16 15   19 16 15   19 16 15   51 51 51   51 51 51   1 15 17   1 15 17   1 15 17   1 15 17   4 42 46   6 63 69   8 78 86   8 84 92   51 51 51   51 51 51   51 51 51   51 51 51   69 101 212   86 126 255   98 145 255   108 158 255   51 51 51   51 51 51   51 51 51   51 51 51   51 51 51   51 51 51   51 51 51   51 51 51   51 51 51   51 51 51   51 51 51   51 51 51   51 51 51   51 51 51   51 51 51   51 51 51   51 51 51   51 51 51   
51 51 51   51 51 51   51 51 51   51 51 51   51 51 51   51 51 51   51 51 51   51 51 51   48 155 210   57 184 250   63 203 255   67 215 255   68 219 255   51 51 51   51 51 51   51 51 51   51 51 51   1 15 17   1 15 17   1 15 17   1 15 17   1 15 17   1 15 17   2 20 23   1 15 17   51 51 51   51 51 51   27 40 84   55 80 169   72 105 221   85 126 255   97 143 255   107 158 255   115 170 255   120 177 255   51 51 51   51 51 51   51 51 51   51 51 51   51 51 51   51 51 51   51 51 51   51 51 51   51 51 51   51 51 51   51 51 51   51 51 51   51 51 51   51 51 51   51 51 51   51 51 51   
51 51 51   51 51 51   51 51 51   51 51 51   51 51 51   51 51 51   25 81 111   43 138 187   52 168 228   59 190 255   65 208 255   69 220 255   71 229 255   72 231 255   69 220 255   51 51 51   51 51 51   51 51 51   44 80 191   58 106 252   68 124 255   4 8 19   4 8 19   78 142 255   51 51 51   51 51 51   51 51 51   33 48 102   52 76 160   67 98 206   80 118 247   92 135 255   102 150 255   111 163 255   117 172 255   120 177 255   51 51 51   88 166 91   110 209 115   129 244 135   145 255 151   154 255 160   51 51 51   51 51 51   51 51 51   51 51 51   51 51 51   51 51 51   51 51 51   51 51 51   51 51 51   
51 51 51   51 51 51   51 51 51   51 51 51   51 51 51   51 51 51   32 102 139   43 138 187   51 164 222   57 185 250   63 201 255   67 214 255   70 224 255   71 229 255   71 227 255   65 209 255   51 51 51   31 58 137   47 86 203   58 106 252   4 8 19   4 8 19   4 8 19   4 8 19   81 147 255   51 51 51   6 9 20   28 41 86   45 66 140   60 88 184   73 107 224   84 124 255   99 150 255   179 255 255   111 163 255   115 170 255   59 112 61   83 157 87   104 196 108   122 231 127   138 255 144   152 255 159   162 255 169   51 51 51   51 51 51   51 51 51   51 51 51   51 51 51   51 51 51   51 51 51   51 51 51   
51 51 51   51 51 51   51 51 51   51 51 51   51 51 51   15 48 66   30 97 132   40 129 175   48 153 208   54 173 235   59 189 255   64 216 255   78 255 255   68 219 255   68 219 255   66 211 255   11 20 47   31 56 134   44 80 191   4 8 19   4 8 19   4 8 19   4 8 19   4 8 19   4 8 19   51 51 51   6 9 20   20 29 62   37 54 113   51 75 158   64 94 197   75 110 231   85 125 255   99 150 255   102 150 255   107 158 255   108 158 255   73 138 76   93 176 97   111 210 116   130 245 136   148 255 154   154 255 160   160 255 166   51 51 51   51 51 51   51 51 51   51 51 51   51 51 51   51 51 51   51 51 51   
51 51 51   51 51 51   51 51 51   51 51 51   51 51 51   12 40 55   26 83 113   35 114 154   43 138 187   49 157 213   54 173 235   58 187 253   61 199 255   63 203 255   64 205 255   62 199 255   9 17 40   26 48 113   38 70 167   4 8 19   4 8 19   4 8 19   4 8 19   4 8 19   4 8 19   6 9 20   6 9 20   10 15 31   26 39 82   41 60 126   54 79 165   65 96 200   75 110 231   84 124 255   92 135 255   97 143 255   98 145 255   60 114 62   80 151 83   98 185 102   114 216 119   155 255 162   142 255 147   151 255 157   51 51 51   51 51 51   51 51 51   51 51 51   51 51 51   51 51 51   51 51 51   
51 51 51   51 51 51   51 51 51   51 51 51   51 51 51   6 22 30   20 64 87   29 94 128   37 118 160   43 138 187   48 154 209   52 167 227   55 177 240   57 184 249   58 186 252   56 181 245   4 8 19   19 35 83   31 57 136   41 75 179   4 8 19   4 8 19   4 8 19   4 8 19   4 8 19   6 9 20   6 9 20   6 9 20   15 22 47   29 43 91   42 62 130   54 79 165   64 94 197   73 107 224   80 118 247   85 126 255   86 126 255   45 86 47   65 123 68   83 157 86   99 188 103   114 216 119   127 240 132   136 255 142   51 51 51   51 51 51   51 51 51   51 51 51   51 51 51   51 51 51   51 51 51   
51 51 51   51 51 51   51 51 51   51 51 51   51 51 51   3 12 17   12 39 53   22 70 96   29 95 129   36 115 156   41 131 178   45 144 195   48 154 209   50 160 217   50 162 220   49 156 212   4 8 19   10 18 44   22 41 98   32 59 141   41 75 178   4 8 19   4 8 19   4 8 19   4 8 19   4 8 19   6 9 20   6 9 20   6 9 20   16 24 51   29 43 91   41 60 126   51 75 158   60 88 184   67 98 206   72 105 221   69 101 212   28 54 30   48 92 50   66 126 69   83 157 86   98 184 102   110 208 115   119 225 124   51 51 51   51 51 51   51 51 51   51 51 51   51 51 51   51 51 51   51 51 51   
51 51 51   51 51 51   51 51 51   51 51 51   51 51 51   3 12 17   3 12 17   13 41 56   21 67 91   27 87 119   32 104 141   36 117 159   39 127 172   41 132 180   41 133 180   39 125 169   4 8 19   4 8 19   12 22 52   22 40 97   31 56 134   4 8 19   4 8 19   4 8 19   4 8 19   4 8 19   6 9 20   6 9 20   6 9 20   6 9 20   15 22 47   26 39 82   37 54 113   45 66 140   52 76 160   55 80 169   8 16 9   8 16 9   30 57 31   48 91 50   65 122 67   79 150 82   91 172 95   99 187 103   51 51 51   51 51 51   51 51 51   51 51 51   51 51 51   51 51 51   51 51 51   
51 51 51   51 51 51   51 51 51   51 51 51   51 51 51   51 51 51   3 12 17   3 12 17   10 33 45   17 55 75   22 72 98   26 85 116   29 94 128   31 99 134   30 97 132   25 82 112   4 8 19   4 8 19   4 8 19   10 18 43   19 34 82   4 8 19   4 8 19   4 8 19   4 8 19   51 51 51   51 51 51   6 9 20   6 9 20   6 9 20   6 9 20   10 15 31   20 29 62   28 41 86   33 48 102   27 40 84   8 16 9   8 16 9   8 16 9   28 52 29   44 83 46   58 110 60   69 130 72   68 129 71   51 51 51   51 51 51   51 51 51   51 51 51   51 51 51   51 51 51   51 51 51   
51 51 51   51 51 51   51 51 51   51 51 51   51 51 51   51 51 51   3 12 17   3 12 17   3 12 17   3 12 17   10 33 45   14 46 63   17 55 74   17 57 77   15 49 66   51 51 51   51 51 51   4 8 19   4 8 19   4 8 19   4 8 19   4 8 19   4 8 19   4 8 19   4 8 19   51 51 51   51 51 51   51 51 51   6 9 20   6 9 20   6 9 20   6 9 20   6 9 20   6 9 20   51 51 51   8 16 9   8 16 9   8 16 9   8 16 9   8 16 9   20 37 20   32 62 34   38 73 40   51 51 51   51 51 51   51 51 51   51 51 51   51 51 51   51 51 51   51 51 51   51 51 51   
51 51 51   51 51 51   51 51 51   51 51 51   51 51 51   51 51 51   51 51 51   51 51 51   3 12 17   3 12 17   3 12 17   3 12 17   3 12 17   3 12 17   51 51 51   51 51 51   51 51 51   51 51 51   51 51 51   4 8 19   4 8 19   4 8 19   4 8 19   51 51 51   51 51 51   51 51 51   51 51 51   51 51 51   51 51 51   51 51 51   6 9 20   6 9 20   51 51 51   51 51 51   51 51 51   51 51 51   8 16 9   8 16 9   8 16 9   8 16 9   8 16 9   51 51 51   51 51 51   51 51 51   51 51 51   51 51 51   51 51 51   51 51 51   51 51 51   51 51 51   51 51 51   
51 51 51   51 51 51   51 51 51   51 51 51   51 51 51   51 51 51   51 51 51   51 51 51   51 51 51   51 51 51   51 51 51   51 51 51   51 51 51   51 51 51   51 51 51   51 51 51   51 51 51   51 51 51   51 51 51   51 51 51   51 51 51   51 51 51   51 51 51   51 51 51   51 51 51   51 51 51   51 51 51   51 51 51   51 51 51   51 51 51   51 51 51   51 51 51   51 51 51   51 51 51   51 51 51   51 51 51   51 51 51   51 51 51   51 51 51   51 51 51   51 51 51   51 51 51   51 51 51   51 51 51   51 51 51   51 51 51   51 51 51   51 51 51   51 51 51   51 51 51   51 51 51   
51 51 51   51 51 51   51 51 51   51 51 51   51 51 51   51 51 51   51 51 51   51 51 51   51 51 51   51 51 51   51 51 51   51 51 51   51 51 51   51 51 51   48 129 139   87 235 253   106 255 255   119 255 255   128 255 255   134 255 255   134 255 255   51 51 51   51 51 51   51 51 51   51 51 51   51 51 51   51 51 51   51 51 51   51 51 51   51 51 51   51 51 51   51 51 51   51 51 51   51 51 51   51 51 51   51 51 51   51 51 51   92 36 46   217 85 108   255 121 154   255 150 190   255 172 218   51 51 51   51 51 51   51 51 51   51 51 51   51 51 51   51 51 51   51 51 51   51 51 51   51 51 51   
51 51 51   51 51 51   51 51 51   51 51 51   51 51 51   51 51 51   51 51 51   51 51 51   51 51 51   51 51 51   51 51 51   51 51 51   51 51 51   48 130 141   79 214 231   99 255 255   114 255 255   126 255 255   135 255 255   141 255 255   145 255 255   144 255 255   128 255 255   51 51 51   51 51 51   51 51 51   51 51 51   51 51 51   51 51 51   51 51 51   51 51 51   51 51 51   51 51 51   51 51 51   51 51 51   51 51 51   25 10 12   88 34 44   195 77 97   255 111 141   255 145 186   255 204 255   255 181 229   51 51 51   51 51 51   51 51 51   51 51 51   51 51 51   51 51 51   51 51 51   51 51 51   
51 51 51   51 51 51   51 51 51   51 51 51   51 51 51   51 51 51   51 51 51   51 51 51   51 51 51   51 51 51   51 51 51   51 51 51   24 65 70   63 169 182   85 229 247   102 255 255   115 255 255   127 255 255   135 255 255   142 255 255   147 255 255   148 255 255   144 255 255   51 51 51   51 51 51   51 51 51   51 51 51   51 51 51   51 51 51   26 29 8   222 245 69   255 255 101   255 255 117   51 51 51   51 51 51   51 51 51   25 10 12   50 19 25   153 60 76   239 94 119   255 124 158   255 221 255   255 168 214   255 170 216   51 51 51   51 51 51   51 51 51   51 51 51   51 51 51   51 51 51   51 51 51   
49 0 223   74 0 255   83 0 255   82 0 255   51 51 51   51 51 51   51 51 51   51 51 51   51 51 51   51 51 51   51 51 51   51 51 51   37 101 109   65 175 189   85 228 246   100 255 255   113 255 255   124 255 255   133 255 255   143 255 255   145 255 255   147 255 255   145 255 255   134 255 255   51 51 51   51 51 51   51 51 51   51 51 51   51 51 51   55 60 17   198 219 61   255 255 92   255 255 114   255 255 111   51 51 51   51 51 51   25 10 12   25 10 12   97 38 48   183 72 91   255 101 128   255 126 160   255 145 184   255 152 192   51 51 51   51 51 51   51 51 51   51 51 51   51 51 51   51 51 51   51 51 51   
71 0 255   85 0 255   92 0 255   93 0 255   85 0 255   51 51 51   51 51 51   51 51 51   51 51 51   51 51 51   51 51 51   8 21 23   38 104 112   63 170 183   81 219 237   96 255 255   109 255 255   119 255 255   129 255 255   142 255 255   143 255 255   142 255 255   141 255 255   134 255 255   51 51 51   51 51 51   51 51 51   51 51 51   51 51 51   21 23 6   133 147 41   233 255 72   255 255 93   255 255 95   51 51 51   51 51 51   25 10 12   25 10 12   25 10 12   116 45 57   190 75 95   253 99 126   255 118 149   255 118 149   51 51 51   51 51 51   51 51 51   51 51 51   51 51 51   51 51 51   51 51 51   
70 0 255   82 0 255   194 61 255   90 0 255   84 0 255   60 0 255   51 51 51   51 51 51   51 51 51   51 51 51   51 51 51   8 21 23   34 93 100   58 155 168   75 203 219   90 243 255   102 255 255   113 255 255   121 255 255   129 255 255   133 255 255   135 255 255   135 255 255   128 255 255   51 51 51   51 51 51   51 51 51   51 51 51   51 51 51   21 23 6   33 36 10   135 149 42   197 218 61   51 51 51   51 51 51   51 51 51   51 51 51   25 10 12   25 10 12   25 10 12   108 42 54   168 66 84   206 81 102   51 51 51   51 51 51   51 51 51   51 51 51   51 51 51   51 51 51   51 51 51   51 51 51   
61 0 255   73 0 255   79 0 255   79 0 255   73 0 255   50 0 227   51 51 51   51 51 51   51 51 51   51 51 51   51 51 51   8 21 23   27 72 78   50 134 144   67 182 196   82 221 238   94 253 255   104 255 255   113 255 255   119 255 255   124 255 255   127 255 255   126 255 255   119 255 255   51 51 51   51 51 51   51 51 51   51 51 51   51 51 51   51 51 51   21 23 6   21 23 6   51 51 51   51 51 51   51 51 51   51 51 51   51 51 51   51 51 51   25 10 12   25 10 12   25 10 12   44 17 22   51 51 51   51 51 51   51 51 51   51 51 51   51 51 51   51 51 51   51 51 51   51 51 51   51 51 51   
46 0 208   57 0 255   62 0 255   62 0 255   53 0 242   51 51 51   51 51 51   51 51 51   51 51 51   51 51 51   51 51 51   8 21 23   16 43 46   39 106 114   57 154 166   72 193 209   84 226 244   94 253 255   102 255 255   109 255 255   113 255 255   115 255 255   114 255 255   106 255 255   51 51 51   51 51 51   51 51 51   51 51 51   51 51 51   51 51 51   51 51 51   51 51 51   51 51 51   51 51 51   51 51 51   51 51 51   51 51 51   51 51 51   51 51 51   51 51 51   51 51 51   51 51 51   51 51 51   51 51 51   51 51 51   51 51 51   51 51 51   51 51 51   51 51 51   51 51 51   51 51 51   
21 0 95   33 0 150   38 0 171   34 0 157   13 0 60   51 51 51   51 51 51   51 51 51   51 51 51   51 51 51   51 51 51   8 21 23   8 21 23   26 69 75   44 120 129   59 160 173   72 193 209   82 221 238   90 243 255   96 255 255   100 255 255   102 255 255   99 255 255   87 235 253   51 51 51   51 51 51   51 51 51   51 51 51   51 51 51   51 51 51   51 51 51   51 51 51   51 51 51   51 51 51   51 51 51   51 51 51   51 51 51   51 51 51   51 51 51   51 51 51   51 51 51   51 51 51   51 51 51   51 51 51   51 51 51   51 51 51   51 51 51   51 51 51   51 51 51   51 51 51   51 51 51   
51 51 51   5 0 23   5 0 23   51 51 51   51 51 51   51 51 51   51 51 51   51 51 51   51 51 51   51 51 51   42 55 20   196 254 92   8 21 23   8 21 23   29 77 84   44 120 129   57 154 166   67 182 196   75 203 219   81 219 237   85 228 246   85 229 247   79 214 231   48 129 139   51 51 51   51 51 51   51 51 51   51 51 51   51 51 51   51 51 51   51 51 51   51 51 51   51 51 51   51 51 51   51 51 51   51 51 51   51 51 51   51 51 51   71 78 174   120 133 255   51 51 51   51 51 51   51 51 51   51 51 51   51 51 51   51 51 51   51 51 51   51 51 51   51 51 51   51 51 51   51 51 51   
51 51 51   51 51 51   51 51 51   51 51 51   51 51 51   51 51 51   51 51 51   51 51 51   51 51 51   51 51 51   96 125 45   198 255 93   255 255 122   8 21 23   8 21 23   26 69 75   39 106 114   50 134 144   58 155 168   63 170 183   65 175 189   63 169 182   48 130 141   1 13 17   51 51 51   51 51 51   51 51 51   51 51 51   51 51 51   51 51 51   51 51 51   51 51 51   51 51 51   51 51 51   51 51 51   51 51 51   51 51 51   31 34 76   98 106 224   192 200 255   243 252 255   186 203 255   51 51 51   51 51 51   51 51 51   51 51 51   51 51 51   51 51 51   51 51 51   51 51 51   51 51 51   
51 51 51   51 51 51   51 51 51   51 51 51   51 51 51   51 51 51   51 51 51   51 51 51   51 51 51   51 51 51   73 95 34   169 220 79   226 255 106   255 255 122   8 21 23   8 21 23   16 43 46   27 72 78   34 93 100   38 104 112   37 101 109   24 65 70   1 13 17   1 13 17   22 196 255   51 51 51   51 51 51   51 51 51   51 51 51   51 51 51   51 51 51   51 51 51   51 51 51   51 51 51   51 51 51   51 51 51   10 11 24   26 28 63   91 99 202   203 207 255   255 255 255   255 255 255   51 51 51   51 51 51   51 51 51   51 51 51   51 51 51   51 51 51   51 51 51   51 51 51   51 51 51   
51 51 51   51 51 51   51 51 51   51 51 51   51 51 51   51 51 51   51 51 51   51 51 51   51 51 51   51 51 51   16 21 7   111 145 52   169 220 79   198 255 93   196 254 92   8 21 23   8 21 23   8 21 23   8 21 23   8 21 23   19 177 236   23 205 255   1 13 17   1 13 17   21 187 249   51 51 51   51 51 51   51 51 51   51 51 51   51 51 51   51 51 51   51 51 51   51 51 51   51 51 51   51 51 51   51 51 51   10 11 24   10 11 24   61 67 149   153 159 255   242 246 255   255 255 255   161 177 255   51 51 51   51 51 51   51 51 51   51 51 51   51 51 51   51 51 51   51 51 51   51 51 51   
51 51 51   51 51 51   51 51 51   51 51 51   51 51 51   51 51 51   51 51 51   51 51 51   51 51 51   51 51 51   51 51 51   16 21 7   73 95 34   96 125 45   16 21 7   51 51 51   51 51 51   1 13 17   6 60 80   12 113 150   16 151 201   19 177 237   21 193 255   21 192 255   14 132 176   51 51 51   51 51 51   51 51 51   51 51 51   51 51 51   51 51 51   51 51 51   51 51 51   51 51 51   51 51 51   51 51 51   51 51 51   10 11 24   31 34 75   82 89 187   152 159 255   174 184 255   119 132 255   51 51 51   51 51 51   51 51 51   51 51 51   51 51 51   51 51 51   51 51 51   51 51 51   
51 51 51   51 51 51   51 51 51   51 51 51   51 51 51   51 51 51   51 51 51   51 51 51   51 51 51   51 51 51   51 51 51   51 51 51   51 51 51   51 51 51   51 51 51   51 51 51   51 51 51   51 51 51   1 13 17   8 74 98   12 113 151   15 139 186   17 151 202   15 142 189   51 51 51   51 51 51   51 51 51   51 51 51   51 51 51   51 51 51   51 51 51   51 51 51   51 51 51   51 51 51   51 51 51   51 51 51   51 51 51   10 11 24   10 11 24   36 40 88   71 78 174   90 100 222   51 51 51   51 51 51   51 51 51   51 51 51   51 51 51   51 51 51   51 51 51   51 51 51   51 51 51   
51 51 51   51 51 51   51 51 51   51 51 51   51 51 51   51 51 51   51 51 51   51 51 51   51 51 51   51 51 51   51 51 51   51 51 51   51 51 51   51 51 51   51 51 51   51 51 51   51 51 51   51 51 51   1 13 17   1 13 17   6 57 77   9 82 110   9 86 115   51 51 51   51 51 51   51 51 51   51 51 51   51 51 51   51 51 51   51 51 51   58 65 46   198 220 155   255 255 212   255 255 238   51 51 51   51 51 51   51 51 51   51 51 51   51 51 51   10 11 24   10 11 24   51 51 51   51 51 51   51 51 51   51 51 51   51 51 51   51 51 51   51 51 51   51 51 51   51 51 51   51 51 51   
51 51 51   51 51 51   51 51 51   51 51 51   51 51 51   51 51 51   51 51 51   51 51 51   51 51 51   51 51 51   51 51 51   51 51 51   51 51 51   51 51 51   51 51 51   51 51 51   51 51 51   51 51 51   51 51 51   51 51 51   51 51 51   51 51 51   51 51 51   51 51 51   51 51 51   51 51 51   51 51 51   51 51 51   51 51 51   21 24 17   149 166 117   241 255 189   255 255 242   255 255 255   255 255 255   51 51 51   51 51 51   51 51 51   51 51 51   51 51 51   51 51 51   51 51 51   51 51 51   51 51 51   51 51 51   51 51 51   51 51 51   51 51 51   51 51 51   51 51 51   51 51 51   
51 51 51   51 51 51   51 51 51   51 51 51   51 51 51   51 51 51   51 51 51   51 51 51   51 51 51   51 51 51   51 51 51   51 51 51   51 51 51   51 51 51   51 51 51   51 51 51   51 51 51   51 51 51   51 51 51   51 51 51   51 51 51   51 51 51   51 51 51   51 51 51   51 51 51   51 51 51   51 51 51   51 51 51   51 51 51   44 49 34   161 179 127   247 255 194   255 255 245   255 255 255   255 255 255   255 255 255   51 51 51   51 51 51   51 51 51   51 51 51   51 51 51   51 51 51   51 51 51   51 51 51   51 51 51   51 51 51   51 51 51   51 51 51   51 51 51   51 51 51   51 51 51   
51 51 51   51 51 51   51 51 51   51 51 51   51 51 51   51 51 51   51 51 51   51 51 51   51 51 51   51 51 51   51 51 51   51 51 51   51 51 51   51 51 51   51 51 51   51 51 51   51 51 51   51 51 51   51 51 51   51 51 51   51 51 51   51 51 51   51 51 51   51 51 51   51 51 51   51 51 51   51 51 51   51 51 51   51 51 51   40 45 32   151 168 118   234 255 184   255 255 235   255 255 255   255 255 255   255 255 255   51 51 51   51 51 51   51 51 51   51 51 51   51 51 51   51 51 51   51 51 51   51 51 51   51 51 51   51 51 51   51 51 51   51 51 51   51 51 51   51 51 51   51 51 51   
51 51 51   51 51 51   51 51 51   51 51 51   51 51 51   51 51 51   51 51 51   51 51 51   51 51 51   51 51 51   51 51 51   51 51 51   51 51 51   51 51 51   51 51 51   51 51 51   51 51 51   51 51 51   51 51 51   51 51 51   51 51 51   51 51 51   51 51 51   51 51 51   51 51 51   51 51 51   51 51 51   51 51 51   51 51 51   21 24 17   125 139 98   208 231 163   255 255 215   255 255 255   255 255 255   255 255 255   51 51 51   51 51 51   51 51 51   51 51 51   51 51 51   51 51 51   51 51 51   51 51 51   51 51 51   51 51 51   51 51 51   51 51 51   51 51 51   51 51 51   51 51 51   
51 51 51   51 51 51   51 51 51   51 51 51   51 51 51   51 51 51   51 51 51   51 51 51   51 51 51   51 51 51   51 51 51   51 51 51   51 51 51   51 51 51   51 51 51   51 51 51   51 51 51   51 51 51   51 51 51   51 51 51   51 51 51   51 51 51   51 51 51   51 51 51   51 51 51   51 51 51   51 51 51   51 51 51   51 51 51   21 24 17   84 93 66   169 188 133   236 255 185   255 255 226   255 255 253   255 255 255   51 51 51   51 51 51   51 51 51   51 51 51   51 51 51   51 51 51   51 51 51   51 51 51   51 51 51   51 51 51   51 51 51   51 51 51   51 51 51   51 51 51   51 51 51   
51 51 51   51 51 51   51 51 51   51 51 51   51 51 51   51 51 51   51 51 51   51 51 51   51 51 51   51 51 51   51 51 51   51 51 51   51 51 51   51 51 51   51 51 51   51 51 51   51 51 51   51 51 51   51 51 51   51 51 51   51 51 51   51 51 51   51 51 51   51 51 51   51 51 51   51 51 51   51 51 51   51 51 51   51 51 51   21 24 17   21 24 17   116 129 91   185 205 145   236 255 185   255 255 211   255 255 208   51 51 51   51 51 51   51 51 51   51 51 51   51 51 51   51 51 51   51 51 51   51 51 51   51 51 51   51 51 51   51 51 51   51 51 51   51 51 51   51 51 51   51 51 51   
51 51 51   51 51 51   51 51 51   51 51 51   51 51 51   51 51 51   51 51 51   51 51 51   51 51 51   51 51 51   51 51 51   51 51 51   51 51 51   51 51 51   51 51 51   51 51 51   51 51 51   51 51 51   51 51 51   51 51 51   51 51 51   51 51 51   51 51 51   51 51 51   51 51 51   51 51 51   51 51 51   51 51 51   51 51 51   51 51 51   21 24 17   37 41 29   112 124 88   162 181 127   184 205 145   51 51 51   51 51 51   51 51 51   51 51 51   51 51 51   51 51 51   51 51 51   51 51 51   51 51 51   51 51 51   51 51 51   51 51 51   51 51 51   51 51 51   51 51 51   51 51 51   
51 51 51   51 51 51   51 51 51   51 51 51   51 51 51   51 51 51   51 51 51   51 51 51   51 51 51   51 51 51   51 51 51   51 51 51   51 51 51   51 51 51   51 51 51   51 51 51   51 51 51   51 51 51   51 51 51   51 51 51   51 51 51   51 51 51   51 51 51   51 51 51   51 51 51   51 51 51   51 51 51   51 51 51   51 51 51   51 51 51   51 51 51   51 51 51   21 24 17   51 51 51   51 51 51   51 51 51   51 51 51   51 51 51   51 51 51   51 51 51   51 51 51   51 51 51   51 51 51   51 51 51   51 51 51   51 51 51   51 51 51   51 51 51   51 51 51   51 51 51   51 51 51   
