P3
51 51
255
168 5 112   219 7 147   254 8 170   255 9 189   255 10 205   255 10 218   255 11 228   255 11 236   255 11 237   51 51 51   51 51 51   51 51 51   51 51 51   51 51 51   51 51 51   51 51 51   51 51 51   51 51 51   51 51 51   51 51 51   51 51 51   51 51 51   51 51 51   51 51 51   51 51 51   51 51 51   51 51 51   51 51 51   51 51 51   51 51 51   51 51 51   51 51 51   247 133 255   255 143 255   51 51 51   51 51 51   51 51 51   51 51 51   51 51 51   51 51 51   51 51 51   51 51 51   51 51 51   51 51 51   51 51 51   51 51 51   51 51 51   51 51 51   51 51 51   51 51 51   51 51 51   
163 5 109   204 6 137   236 7 158   255 8 176   255 9 192   169 16 114   188 17 127   201 19 135   207 19 139   255 11 231   51 51 51   51 51 51   51 51 51   51 51 51   51 51 51   51 51 51   51 51 51   51 51 51   51 51 51   51 51 51   51 51 51   51 51 51   51 51 51   51 51 51   51 51 51   51 51 51   51 51 51   51 51 51   51 51 51   174 93 204   201 108 235   223 120 255   243 131 255   255 141 255   255 150 255   255 159 255   255 166 255   51 51 51   51 51 51   51 51 51   51 51 51   51 51 51   51 51 51   51 51 51   51 51 51   51 51 51   51 51 51   51 51 51   51 51 51   51 51 51   51 51 51   
143 4 96   181 5 121   212 7 142   122 11 82   151 14 101   171 16 115   188 17 126   201 19 135   212 20 142   218 20 147   217 20 146   51 51 51   51 51 51   51 51 51   51 51 51   51 51 51   51 51 51   51 51 51   51 51 51   51 51 51   51 51 51   51 51 51   47 107 255   57 129 255   64 144 255   51 51 51   51 51 51   101 54 119   140 75 164   167 90 196   190 102 223   211 113 247   231 124 255   249 134 255   255 144 255   255 153 255   255 161 255   255 168 255   51 51 51   51 51 51   51 51 51   51 51 51   51 51 51   66 70 58   87 92 76   106 112 93   124 131 109   142 150 125   51 51 51   51 51 51   51 51 51   
116 3 77   153 5 103   86 8 58   120 11 80   143 13 96   162 15 109   178 16 120   191 18 129   203 20 137   211 20 142   217 20 146   215 20 144   51 51 51   51 51 51   51 51 51   51 51 51   51 51 51   51 51 51   51 51 51   51 51 51   14 31 86   31 71 194   43 96 255   52 117 255   60 134 255   126 113 57   152 137 69   101 54 119   130 70 152   154 83 181   176 95 207   197 106 231   216 116 253   235 126 255   252 136 255   255 145 255   255 153 255   255 161 255   255 168 255   51 51 51   51 51 51   51 51 51   28 30 25   50 53 44   70 74 61   89 94 78   141 173 110   126 134 110   142 150 125   51 51 51   51 51 51   
83 2 56   121 4 81   80 7 53   108 10 73   130 12 87   148 14 100   164 15 110   179 18 120   224 75 138   234 76 144   206 20 139   208 19 140   201 19 136   51 51 51   51 51 51   51 51 51   51 51 51   51 51 51   51 51 51   51 51 51   10 24 67   24 55 150   35 79 215   44 99 255   98 88 44   124 111 56   145 131 65   89 48 105   116 62 136   139 75 163   161 87 189   181 97 213   201 108 235   219 118 255   237 128 255   255 172 255   255 150 255   255 153 255   255 160 255   255 166 255   51 51 51   7 8 6   11 12 10   32 34 28   52 55 46   71 75 62   99 111 83   141 173 110   124 131 109   51 51 51   51 51 51   
46 1 30   24 2 16   65 6 44   92 8 62   113 10 76   132 12 88   147 14 99   161 15 108   185 36 120   232 96 138   195 26 130   195 18 131   194 18 130   51 51 51   51 51 51   255 184 255   255 214 255   255 235 255   255 247 255   51 51 51   3 8 22   15 34 94   26 58 159   61 55 27   90 81 40   113 102 51   133 120 60   74 40 87   100 54 117   123 66 144   145 78 170   165 89 193   184 99 216   202 109 237   220 118 255   255 208 255   255 255 255   255 144 255   255 152 255   255 158 255   37 36 250   7 8 6   7 8 6   14 14 12   33 35 29   52 56 46   71 75 62   89 94 78   106 112 93   51 51 51   51 51 51   
19 0 13   12 1 8   46 4 31   72 6 49   94 8 63   112 10 76   128 12 86   142 13 96   154 14 104   165 17 111   173 16 116   178 16 120   178 17 120   167 15 112   222 146 205   255 179 252   106 213 202   153 255 255   181 255 255   202 255 255   3 8 22   3 8 22   15 14 7   51 46 23   77 69 34   99 89 44   119 107 53   58 31 68   83 44 97   106 57 124   127 68 149   148 79 173   167 89 195   185 99 217   202 109 237   220 119 255   240 135 255   250 135 255   255 142 255   255 149 255   255 152 255   37 36 249   7 8 6   7 8 6   14 15 13   33 35 29   52 55 46   70 74 61   87 92 76   51 51 51   51 51 51   
19 0 13   12 1 8   23 2 15   50 4 34   72 6 48   91 8 61   107 10 72   121 11 82   134 12 90   144 13 97   152 14 102   158 15 106   159 15 107   151 14 101   200 131 185   69 140 133   116 234 222   147 255 255   172 255 255   193 255 255   12 25 24   3 8 22   12 10 5   36 33 16   61 55 27   83 75 37   103 93 46   40 21 46   65 35 76   88 47 103   109 59 128   129 69 152   148 80 174   167 90 195   184 99 216   201 108 235   217 117 254   232 125 255   246 132 255   255 139 255   255 144 255   34 34 232   36 35 243   7 8 6   7 8 6   14 14 12   32 34 28   50 53 44   66 70 58   51 51 51   51 51 51   
19 0 13   12 1 8   12 1 8   24 2 16   48 4 32   67 6 45   84 7 56   98 9 66   110 10 74   121 11 81   129 12 87   135 12 90   136 12 91   128 12 86   167 110 154   67 135 128   104 208 198   132 255 252   156 255 255   177 255 255   208 255 255   12 25 24   12 10 5   19 17 8   44 40 20   66 59 30   86 77 38   17 9 20   45 24 53   68 37 80   90 48 105   110 59 129   129 69 152   148 79 173   165 89 194   182 98 213   198 106 232   213 115 250   227 122 255   240 129 255   248 133 255   32 31 214   33 33 226   7 8 6   7 8 6   7 8 6   11 12 10   28 30 25   51 51 51   51 51 51   51 51 51   
51 51 51   19 0 13   12 1 8   12 1 8   20 1 13   40 3 27   57 5 38   72 6 48   85 8 57   95 9 64   103 9 69   108 10 73   109 10 73   99 9 67   12 25 24   51 102 97   85 171 162   113 227 215   137 255 255   157 255 255   12 25 24   12 10 5   12 10 5   12 10 5   25 23 11   47 42 21   12 10 5   17 9 20   25 13 29   48 26 56   70 37 82   90 48 106   110 59 128   128 69 150   145 78 170   162 87 190   178 96 209   193 104 226   207 111 243   219 118 255   226 122 255   29 28 194   114 205 67   161 255 94   202 255 118   238 255 140   7 8 6   51 51 51   51 51 51   51 51 51   51 51 51   
51 51 51   0 15 21   12 1 8   12 1 8   12 1 8   12 1 8   28 2 19   43 4 29   56 5 38   66 6 45   74 7 50   79 7 53   77 7 52   60 5 40   12 25 24   29 58 55   62 125 119   90 181 172   114 229 217   135 255 255   12 25 24   12 10 5   12 10 5   12 10 5   12 10 5   27 24 12   12 10 5   17 9 20   17 9 20   26 14 31   48 26 57   69 37 81   89 47 104   107 57 125   125 67 146   141 76 166   157 84 184   172 92 202   186 100 217   48 225 178   57 255 208   35 63 20   85 154 50   129 233 76   170 255 100   226 255 126   241 255 141   97 255 255   51 51 51   51 51 51   51 51 51   
51 51 51   0 15 21   0 15 21   12 1 8   12 1 8   12 1 8   12 1 8   12 1 8   23 2 15   34 3 22   41 3 27   43 4 29   38 3 25   0 15 21   12 25 24   12 25 24   36 73 69   64 129 123   88 177 168   109 219 208   12 25 24   12 25 24   12 10 5   12 10 5   12 10 5   12 10 5   12 10 5   17 9 20   17 9 20   17 9 20   26 14 30   47 25 55   66 36 78   85 46 100   103 55 120   119 64 140   135 72 158   150 80 175   38 176 139   46 215 170   54 249 197   60 255 221   67 255 245   73 255 255   134 242 79   173 255 101   89 255 255   94 255 255   99 255 255   51 51 51   51 51 51   
51 51 51   17 0 13   17 0 13   17 0 13   12 1 8   12 1 8   12 1 8   12 1 8   12 1 8   12 1 8   12 1 8   12 1 8   0 189 255   0 15 21   12 25 24   12 25 24   12 25 24   35 70 67   59 119 114   12 25 24   23 1 23   23 1 23   12 10 5   12 10 5   12 10 5   12 10 5   12 10 5   17 9 20   17 9 20   17 9 20   17 9 20   23 12 27   43 23 50   62 33 72   79 42 93   96 51 112   111 60 130   26 122 96   35 162 128   43 198 156   50 231 182   56 255 207   63 255 229   68 255 251   74 255 255   80 255 255   85 255 255   90 255 255   95 255 255   99 255 255   51 51 51   
17 0 13   17 0 13   17 0 13   17 0 13   17 0 13   17 0 13   12 1 8   12 1 8   12 1 8   12 1 8   12 1 8   0 157 221   0 159 225   0 15 21   0 15 21   12 25 24   12 25 24   12 25 24   27 54 51   12 25 24   23 1 23   23 1 23   23 1 23   12 10 5   12 10 5   12 10 5   12 10 5   17 9 20   17 9 20   17 9 20   17 9 20   17 9 20   17 9 20   36 19 43   54 29 63   70 38 83   13 62 49   23 106 84   31 144 114   38 179 141   45 211 166   52 241 190   58 255 213   64 255 235   70 255 255   76 255 255   86 255 255   86 255 255   90 255 255   95 255 255   98 255 255   
17 0 13   17 0 13   17 0 13   17 0 13   17 0 13   17 0 13   17 0 13   17 0 13   17 0 13   17 0 13   17 0 13   255 3 227   0 15 21   0 15 21   0 15 21   12 25 24   12 25 24   12 25 24   12 25 24   23 1 23   23 1 23   23 1 23   23 1 23   23 1 23   12 10 5   12 10 5   12 10 5   17 9 20   17 9 20   17 9 20   17 9 20   17 9 20   17 9 20   17 9 20   26 14 31   5 25 20   9 45 35   18 86 68   26 123 97   34 157 124   41 189 149   47 219 173   53 248 196   59 255 217   65 255 238   71 255 255   100 255 255   92 255 255   86 255 255   90 255 255   94 255 255   
17 0 13   17 0 13   17 0 13   17 0 13   17 0 13   17 0 13   17 0 13   17 0 13   17 0 13   17 0 13   17 0 13   255 3 231   255 3 204   0 15 21   25 4 0   25 4 0   12 25 24   15 8 15   15 8 15   23 1 23   23 1 23   23 1 23   23 1 23   23 1 23   23 1 23   12 10 5   12 10 5   17 9 20   17 9 20   17 9 20   17 9 20   17 9 20   17 9 20   17 9 20   17 9 20   5 25 20   5 25 20   14 64 51   22 101 80   29 135 106   36 166 132   42 196 155   48 225 178   54 252 199   60 255 220   65 255 240   72 255 255   78 255 255   81 255 255   85 255 255   89 255 255   
168 2 127   195 2 148   219 2 165   238 2 180   255 3 193   255 3 204   255 9 215   255 127 255   255 34 236   255 3 229   255 3 229   255 3 225   255 3 210   25 4 0   25 4 0   25 4 0   25 4 0   25 4 0   15 8 15   15 8 15   23 1 23   23 1 23   23 1 23   23 1 23   23 1 23   23 1 23   23 1 23   16 22 22   17 9 20   17 9 20   17 9 20   17 9 20   17 9 20   17 9 20   5 25 20   5 25 20   5 25 20   8 41 32   16 77 61   24 111 88   31 143 113   37 172 136   43 201 159   49 228 180   55 254 201   60 255 221   65 255 240   71 255 255   75 255 255   80 255 255   84 255 255   
151 1 114   178 2 135   201 2 152   220 2 167   237 2 180   252 3 190   255 3 200   255 4 208   255 4 213   255 3 216   255 3 217   255 3 213   255 3 202   204 2 154   25 4 0   37 119 127   45 143 153   50 161 171   54 174 186   57 184 196   59 187 200   23 1 23   23 1 23   23 1 23   23 1 23   23 1 23   21 6 5   16 22 22   16 22 22   16 22 22   16 22 22   16 22 22   16 22 22   16 22 22   5 25 20   5 25 20   5 25 20   5 25 20   11 52 41   18 86 68   25 118 93   32 148 117   38 176 139   44 203 161   49 230 181   55 255 201   60 255 221   65 255 239   70 255 255   75 255 255   79 255 255   
130 1 98   157 1 119   180 2 136   199 2 151   216 2 164   231 2 175   243 3 184   253 3 191   255 3 197   255 3 200   255 3 201   255 3 198   249 3 188   18 58 61   32 101 108   40 127 135   46 147 156   51 162 173   55 176 187   58 186 198   60 193 205   61 195 208   58 186 198   23 1 23   23 1 23   23 1 23   21 6 5   21 6 5   16 22 22   16 22 22   16 22 22   16 22 22   16 22 22   5 25 20   5 25 20   5 25 20   5 25 20   5 25 20   5 25 20   12 59 47   19 91 72   26 121 96   32 150 119   38 178 140   44 204 161   49 229 181   55 253 200   60 255 219   64 255 236   69 255 253   73 255 255   
105 1 79   132 1 100   156 1 118   175 2 133   192 2 146   207 2 157   219 2 166   229 2 173   236 2 179   241 3 182   241 3 183   237 2 179   224 2 169   22 73 77   32 102 109   39 124 132   44 143 152   49 158 168   53 171 182   57 181 193   59 189 201   61 194 207   60 193 206   54 173 184   51 51 51   51 51 51   21 6 5   21 6 5   21 6 5   16 22 22   16 22 22   16 22 22   16 22 22   16 22 22   5 25 20   5 25 20   5 25 20   5 25 20   5 25 20   5 25 20   13 64 50   20 94 74   26 123 97   32 151 119   38 177 140   43 202 160   49 227 179   54 250 197   59 255 215   63 255 231   67 255 245   
75 0 57   104 1 79   128 1 97   148 1 112   165 2 125   180 2 136   192 2 145   202 2 153   209 2 158   213 2 161   213 2 161   208 2 157   10 32 34   22 70 75   30 96 103   37 117 125   42 135 144   47 150 159   51 162 173   91 178 255   91 186 255   58 187 199   59 189 201   255 10 255   255 10 255   19 13 5   0 23 20   0 23 20   0 23 20   14 0 3   14 0 3   14 0 3   14 0 3   14 0 3   5 25 20   5 25 20   5 25 20   5 25 20   5 25 20   5 25 20   7 34 27   14 65 51   20 95 75   26 122 97   32 149 118   37 174 138   43 198 157   48 221 175   52 243 192   57 255 208   60 255 221   
40 0 30   71 0 54   96 1 73   117 1 89   135 1 102   150 1 113   178 53 248   205 61 255   223 66 255   237 70 255   245 73 255   14 4 20   8 28 30   19 62 66   27 87 92   33 107 114   39 124 132   43 139 148   47 152 161   54 163 178   67 173 209   55 177 188   56 179 191   255 72 255   255 70 255   255 10 255   8 9 9   255 133 151   255 148 168   14 0 3   14 0 3   14 0 3   14 0 3   14 0 3   5 25 20   5 25 20   5 25 20   5 25 20   5 25 20   5 25 20   5 25 20   7 34 27   14 64 51   20 92 73   25 119 94   31 144 114   36 169 133   41 191 151   46 212 168   50 231 183   52 244 193   
17 0 13   116 253 255   136 255 255   148 255 255   154 255 255   170 50 236   196 58 255   217 65 255   233 69 255   246 73 255   255 76 255   14 4 20   5 17 18   15 50 53   23 74 79   29 94 100   35 111 119   39 126 134   43 139 148   47 149 159   49 158 168   51 164 174   52 166 177   255 23 243   255 66 255   255 9 255   255 134 152   255 154 175   255 170 193   255 182 207   255 190 215   14 0 3   14 0 3   14 0 3   5 25 20   5 25 20   5 25 20   5 25 20   5 25 20   5 25 20   5 25 20   5 25 20   5 25 20   13 60 47   18 87 69   24 112 89   29 136 108   34 159 125   38 178 141   42 194 154   51 51 51   
115 251 255   134 255 255   148 255 255   158 255 255   164 255 255   177 53 246   200 59 255   218 65 255   233 69 255   246 74 255   255 78 255   14 4 20   3 10 11   10 34 36   18 59 63   24 79 84   30 96 102   34 111 118   38 123 131   42 134 143   44 142 152   46 148 158   47 151 161   225 6 179   255 7 210   233 114 129   255 136 154   255 155 176   255 170 193   255 183 208   255 193 220   255 199 226   22 10 12   14 0 3   14 0 3   5 25 20   5 25 20   5 25 20   5 25 20   5 25 20   5 25 20   5 25 20   5 25 20   5 25 20   11 52 41   16 77 61   21 101 80   26 122 96   30 139 110   31 145 115   51 51 51   
122 255 255   137 255 255   149 255 255   159 255 255   165 255 255   176 52 245   197 59 255   214 64 255   229 68 255   250 81 255   255 122 255   14 4 20   3 10 11   4 15 16   12 40 43   19 61 65   24 79 84   29 93 100   33 106 113   36 116 124   39 125 133   41 130 139   41 132 141   146 4 116   176 86 98   226 111 126   255 132 150   255 150 170   255 165 188   255 178 203   255 189 215   255 197 224   255 200 227   4 17 24   14 0 3   14 0 3   5 25 20   5 25 20   5 25 20   5 25 20   5 25 20   5 25 20   5 25 20   5 25 20   5 25 20   8 38 30   13 60 47   17 78 62   18 84 66   51 51 51   51 51 51   
120 255 255   135 255 255   146 255 255   155 255 255   187 255 255   170 50 236   190 56 255   207 61 255   221 66 255   252 89 255   255 181 255   14 4 20   3 10 11   3 10 11   5 19 20   12 40 43   18 58 62   23 73 78   27 86 92   30 96 103   32 104 111   34 109 116   34 110 117   106 52 59   164 80 91   212 104 118   253 124 141   255 142 161   255 157 178   255 177 202   255 210 242   255 190 216   255 195 221   255 191 216   4 17 24   4 17 24   4 17 24   5 25 20   5 25 20   10 0 3   10 0 3   90 3 33   115 4 42   138 5 50   158 7 59   176 7 64   190 7 70   51 51 51   51 51 51   51 51 51   51 51 51   
114 248 255   128 255 255   139 255 255   147 255 255   179 255 255   160 47 222   179 53 249   196 58 255   210 62 255   227 72 255   255 110 255   255 135 255   14 4 20   3 10 11   3 10 11   5 15 16   10 34 37   15 50 53   19 63 67   23 73 78   25 80 85   26 84 89   25 81 87   89 44 49   145 71 81   192 94 107   233 114 129   255 131 149   255 147 167   255 160 182   255 177 202   255 180 205   255 186 211   255 185 210   4 17 24   4 17 24   4 17 24   4 17 24   10 0 3   16 0 6   48 1 17   76 3 28   101 4 37   123 5 45   144 6 53   181 61 108   177 7 65   186 7 68   51 51 51   51 51 51   51 51 51   
105 228 255   118 255 255   129 255 255   137 255 255   143 255 255   146 43 204   166 49 230   182 54 253   196 58 255   207 62 255   219 67 255   228 71 255   14 4 20   3 10 11   3 10 11   3 10 11   3 10 11   7 22 23   11 35 37   14 44 47   15 50 54   16 51 54   22 10 12   65 32 36   121 59 67   167 82 93   207 102 115   243 119 135   255 134 152   255 148 168   255 159 180   255 168 191   255 173 197   255 173 197   13 23 23   13 23 23   13 23 23   13 23 23   10 0 3   10 0 3   31 1 11   59 2 22   84 3 31   107 4 39   127 5 47   145 5 53   161 6 59   172 7 63   51 51 51   51 51 51   51 51 51   
92 200 240   105 229 255   116 252 255   124 255 255   130 255 255   130 39 181   149 44 208   165 49 230   179 53 249   190 57 255   199 59 255   206 61 255   210 62 255   14 4 20   14 4 20   3 10 11   3 10 11   3 10 11   3 10 11   3 10 11   3 10 11   3 10 11   22 10 12   35 17 19   91 44 50   138 67 77   178 87 99   214 105 119   245 120 136   255 133 151   255 144 164   255 153 174   255 159 180   255 158 180   92 170 166   125 231 226   153 255 255   177 255 255   198 255 255   10 0 3   10 0 3   40 1 15   65 2 24   88 3 32   109 4 40   127 5 47   142 5 52   153 6 56   51 51 51   51 51 51   51 51 51   
76 166 198   89 195 233   100 218 255   108 236 255   114 248 255   110 33 154   130 39 181   146 43 203   160 47 222   171 51 238   180 53 250   186 55 255   189 56 255   14 4 20   14 4 20   14 4 20   14 4 20   13 18 12   13 18 12   13 18 12   13 18 12   16 3 15   22 10 12   22 10 12   56 27 31   103 51 57   145 71 80   180 88 100   211 104 118   238 117 133   255 128 145   255 136 155   255 141 160   255 139 157   88 163 160   120 220 216   147 255 255   170 255 255   191 255 255   210 255 255   10 0 3   19 0 7   44 1 16   67 2 24   88 3 32   106 4 39   121 4 44   129 5 47   51 51 51   51 51 51   51 51 51   
56 122 146   70 153 183   81 177 211   89 194 233   95 207 247   87 26 121   107 32 149   124 37 172   137 41 191   148 44 206   157 47 218   163 48 226   165 49 230   164 49 228   14 4 20   14 4 20   13 18 12   13 18 12   13 18 12   13 18 12   13 18 12   13 18 12   22 10 12   22 10 12   22 10 12   63 31 35   106 52 59   142 69 79   173 85 96   200 98 111   222 109 123   237 116 132   244 119 136   186 227 255   80 147 144   110 202 198   136 251 246   160 255 255   181 255 255   255 255 255   239 255 255   10 0 3   20 0 7   43 1 16   64 2 23   81 3 30   95 3 35   198 117 166   192 114 162   51 51 51   51 51 51   
31 67 81   46 101 121   58 126 151   66 144 172   71 155 186   59 17 82   80 24 112   97 29 135   111 33 155   122 36 170   130 39 181   135 40 188   137 41 190   134 40 186   14 4 20   14 4 20   13 18 12   13 18 12   13 18 12   13 18 12   13 18 12   13 18 12   13 18 12   22 10 12   22 10 12   22 10 12   60 29 33   97 47 54   129 63 72   155 76 86   175 86 98   158 193 235   175 213 255   190 231 255   203 247 255   213 255 255   123 227 222   147 255 255   168 255 255   193 255 255   219 255 255   97 58 82   117 69 98   135 81 115   162 114 166   194 161 240   183 117 168   188 111 158   191 113 161   51 51 51   51 51 51   
174 202 255   189 219 255   198 230 255   203 236 255   203 236 255   196 228 255   47 14 66   66 19 91   80 24 111   91 27 127   98 29 137   102 30 142   102 30 142   95 28 132   14 4 20   5 10 13   5 10 13   13 18 12   13 18 12   13 18 12   13 18 12   13 18 12   25 3 15   22 10 12   22 10 12   22 10 12   22 10 12   43 21 24   75 37 42   119 145 176   140 170 207   158 193 234   175 213 255   189 230 255   202 246 255   213 255 255   222 255 255   131 242 237   152 255 255   171 255 255   188 255 255   84 50 71   104 61 87   122 72 102   138 83 117   155 95 136   166 100 142   175 104 147   180 107 151   51 51 51   51 51 51   
193 224 255   204 238 255   213 247 255   218 253 255   219 255 255   216 251 255   206 240 255   184 214 255   41 12 57   52 15 72   59 17 81   60 18 84   55 16 76   36 10 50   22 4 2   5 10 13   5 10 13   5 10 13   5 10 13   5 10 13   5 10 13   25 3 15   25 3 15   25 3 15   25 3 15   22 10 12   22 10 12   67 81 99   94 115 139   117 143 174   137 167 204   155 189 230   171 209 254   186 226 255   204 244 255   224 255 255   223 255 255   5 130 117   6 147 133   7 162 147   7 174 158   70 41 59   89 53 75   107 63 90   123 73 104   138 82 116   151 89 127   161 95 135   166 98 139   51 51 51   51 51 51   
201 233 255   211 245 255   219 254 255   223 255 255   225 255 255   223 255 255   217 252 255   203 236 255   170 197 255   14 4 20   14 4 20   14 4 20   22 4 2   17 16 19   17 16 19   215 209 242   5 10 13   5 10 13   5 10 13   5 10 13   5 10 13   25 3 15   25 3 15   25 3 15   18 7 6   12 15 18   33 41 50   65 79 96   91 111 135   113 138 168   133 162 197   150 183 223   166 203 246   181 220 255   224 249 255   255 255 255   255 255 255   5 127 115   6 144 130   7 159 144   7 172 156   8 183 165   8 190 172   91 54 77   108 64 90   122 72 103   135 80 113   144 85 121   147 87 123   51 51 51   51 51 51   
203 236 255   212 247 255   219 255 255   225 255 255   226 255 255   224 255 255   219 255 255   208 241 255   185 215 255   51 51 51   51 51 51   17 16 19   194 189 218   231 225 255   255 250 255   255 255 255   255 255 255   17 16 19   17 16 19   5 10 13   5 10 13   25 3 15   25 3 15   18 7 6   18 7 6   12 15 18   30 37 45   60 73 89   85 104 126   107 130 159   127 154 187   144 175 213   160 195 237   175 212 255   212 239 255   255 255 255   255 255 255   5 121 110   6 138 125   7 157 140   26 230 165   10 185 163   8 187 169   8 190 172   90 53 75   104 62 87   116 69 97   124 74 104   117 69 98   51 51 51   51 51 51   
201 234 255   210 244 255   232 255 255   255 255 255   230 255 255   221 255 255   216 251 255   206 239 255   186 217 255   136 159 255   123 120 138   183 178 206   223 217 251   254 247 255   255 255 255   255 255 255   255 255 255   255 255 255   17 16 19   17 16 19   10 2 23   25 3 15   18 7 6   18 7 6   18 7 6   12 15 18   24 29 35   53 65 79   78 95 116   100 121 148   119 145 176   136 166 202   152 185 225   166 202 246   183 220 255   232 251 255   255 255 255   5 114 103   5 131 118   7 148 133   47 255 174   32 255 174   8 181 163   8 186 168   69 41 58   83 49 70   94 56 79   98 58 83   51 51 51   51 51 51   51 51 51   
196 228 255   204 238 255   216 246 255   254 255 255   217 251 255   214 249 255   209 243 255   199 232 255   180 210 255   138 160 255   154 150 173   200 195 225   235 228 255   255 255 255   255 255 255   255 255 255   255 255 255   255 255 255   255 255 255   17 16 19   10 2 23   18 7 6   80 34 28   18 7 6   18 7 6   12 15 18   12 15 18   44 54 66   69 84 102   90 110 134   110 134 163   127 155 188   143 174 212   157 191 233   170 207 252   183 222 255   195 235 255   4 104 94   5 122 110   6 137 124   8 156 137   10 174 150   7 172 156   8 178 161   8 177 160   57 34 48   64 38 54   51 51 51   51 51 51   51 51 51   51 51 51   
188 218 255   196 228 255   202 235 255   205 239 255   206 240 255   205 238 255   199 231 255   188 219 255   169 196 255   123 144 241   164 160 185   205 200 231   237 231 255   255 255 255   255 255 255   255 255 255   255 255 255   255 255 255   255 255 255   255 255 255   17 16 19   18 7 6   85 36 30   18 7 6   18 7 6   12 15 18   12 15 18   33 40 49   58 71 86   80 97 119   99 121 147   117 142 173   133 161 196   147 179 218   160 194 237   171 208 254   181 221 255   4 94 85   5 111 100   5 126 114   6 140 127   6 152 137   7 162 146   7 168 152   7 168 152   11 6 9   51 51 51   51 51 51   51 51 51   51 51 51   51 51 51   
177 206 255   185 215 255   190 221 255   194 225 255   194 226 255   192 223 255   185 215 255   173 201 255   151 176 255   88 102 172   165 160 185   203 197 228   233 227 255   255 251 255   255 255 255   255 255 255   255 255 255   255 255 255   255 255 255   255 255 255   17 16 19   23 10 8   83 35 29   128 55 45   18 7 6   12 15 18   12 15 18   20 25 30   46 56 68   68 83 101   87 106 130   105 128 156   121 147 179   135 165 200   148 180 220   160 194 237   170 206 251   3 81 73   4 99 89   5 114 103   5 128 116   6 140 126   6 149 135   7 156 141   7 154 140   255 108 38   51 51 51   51 51 51   51 51 51   51 51 51   51 51 51   
164 191 255   171 199 255   176 205 255   179 208 255   179 208 255   175 204 255   167 195 255   153 178 255   125 146 245   255 32 97   159 154 178   195 190 219   224 218 252   248 242 255   255 255 255   255 255 255   255 255 255   255 255 255   255 255 255   255 255 255   18 7 6   18 7 6   75 32 26   119 51 42   18 7 6   18 7 6   12 15 18   12 15 18   31 38 46   54 66 80   74 90 110   92 112 136   108 131 160   122 149 181   135 165 200   147 179 217   157 191 232   3 67 61   3 85 76   4 100 91   5 114 103   5 126 114   6 135 122   6 140 127   6 136 123   255 103 37   51 51 51   51 51 51   51 51 51   51 51 51   51 51 51   
147 172 255   154 180 255   159 185 255   161 187 255   160 186 255   155 180 255   145 168 255   126 146 246   83 96 162   255 33 100   255 35 105   182 177 205   211 205 237   234 228 255   253 246 255   255 255 255   255 255 255   255 255 255   255 255 255   255 255 255   18 7 6   18 7 6   63 27 22   107 46 38   144 61 51   18 7 6   12 15 18   12 15 18   12 15 18   38 46 57   59 72 87   77 94 114   93 114 138   108 131 160   121 147 179   132 161 196   142 172 210   2 50 46   3 68 62   3 84 76   4 98 89   4 109 99   5 118 107   5 121 110   255 91 33   255 95 34   255 85 30   51 51 51   51 51 51   51 51 51   51 51 51   
127 148 249   134 156 255   138 160 255   139 161 255   136 158 255   129 150 252   114 133 224   85 99 167   255 32 96   255 34 103   255 42 121   164 160 185   193 188 217   216 210 243   235 228 255   248 241 255   255 250 255   255 253 255   255 249 255   240 233 255   18 7 6   18 7 6   47 20 16   91 39 32   128 55 45   18 7 6   18 7 6   12 15 18   12 15 18   19 24 29   41 50 61   60 73 89   77 93 114   91 111 135   104 127 155   115 140 171   124 152 184   1 31 28   2 50 45   2 65 59   3 79 71   4 90 81   4 96 87   4 93 84   255 82 29   255 86 31   51 51 51   51 51 51   51 51 51   51 51 51   51 51 51   
102 119 200   109 126 212   112 130 218   111 129 217   106 123 207   94 109 184   69 80 135   244 30 90   255 32 97   255 38 112   255 64 176   255 93 247   170 165 191   193 188 217   211 205 237   224 218 252   232 226 255   234 227 255   227 221 255   17 12 17   17 12 17   18 7 6   26 11 9   72 31 25   110 47 39   142 61 50   18 7 6   18 7 6   12 15 18   12 15 18   20 24 30   40 49 59   57 70 85   72 88 107   85 104 126   96 117 142   104 127 154   0 10 9   1 26 24   1 42 38   2 55 50   2 64 58   2 64 58   222 64 23   246 71 25   253 73 26   51 51 51   51 51 51   51 51 51   51 51 51   51 51 51   
70 81 137   76 88 148   77 90 151   73 85 143   62 72 122   35 41 69   224 27 83   242 30 90   255 32 96   255 40 115   255 72 194   255 103 255   255 73 199   164 160 185   182 177 205   194 189 219   201 195 226   200 194 224   187 182 210   255 194 255   17 12 17   18 7 6   18 7 6   48 20 17   87 37 31   120 51 42   149 63 52   18 7 6   18 7 6   12 15 18   12 15 18   15 18 23   33 41 50   49 59 72   62 75 91   72 87 106   78 95 116   0 10 9   0 10 9   0 10 9   0 19 17   109 31 11   147 42 15   176 51 18   195 56 20   51 51 51   51 51 51   51 51 51   51 51 51   51 51 51   51 51 51   
21 25 42   26 30 51   23 26 44   12 14 24   16 2 6   198 24 73   220 27 81   238 29 88   253 31 94   255 35 105   255 50 141   255 62 171   255 49 139   255 37 109   255 35 104   156 152 176   160 156 180   153 149 172   234 163 237   255 181 255   17 12 17   18 7 6   18 7 6   18 7 6   60 25 21   94 40 33   124 53 43   149 63 52   18 7 6   18 7 6   12 15 18   12 15 18   12 15 18   17 21 26   30 36 44   37 45 55   12 15 18   51 51 51   20 6 2   20 6 2   20 6 2   51 14 5   88 25 9   113 32 11   51 51 51   51 51 51   51 51 51   51 51 51   51 51 51   51 51 51   51 51 51   
51 51 51   16 2 6   16 2 6   134 16 49   166 20 61   192 23 71   213 26 78   230 28 85   245 30 90   255 32 96   255 35 104   255 37 109   255 35 105   255 34 102   255 33 100   255 32 96   101 98 114   178 124 180   211 147 213   236 164 239   17 12 17   17 12 17   18 7 6   18 7 6   26 11 9   63 27 22   94 40 33   119 51 42   141 60 49   158 67 56   18 7 6   18 7 6   18 7 6   18 7 6   51 51 51   51 51 51   51 51 51   51 51 51   51 51 51   51 51 51   51 51 51   20 6 2   51 51 51   51 51 51   51 51 51   51 51 51   51 51 51   51 51 51   51 51 51   51 51 51   51 51 51   
51 51 51   16 2 6   85 10 31   126 15 46   157 19 58   182 22 67   203 25 75   220 27 81   234 29 86   246 30 91   254 31 94   255 32 96   255 32 97   255 32 97   255 31 95   244 30 90   218 27 81   147 103 149   181 126 182   205 143 207   17 12 17   17 12 17   17 12 17   18 7 6   18 7 6   23 9 8   56 24 19   83 35 29   104 45 37   121 52 42   131 56 46   132 56 46   18 7 6   51 51 51   51 51 51   51 51 51   51 51 51   51 51 51   51 51 51   51 51 51   51 51 51   51 51 51   51 51 51   51 51 51   51 51 51   51 51 51   51 51 51   51 51 51   51 51 51   51 51 51   51 51 51   
51 51 51   16 2 6   72 9 26   114 14 42   145 18 53   170 21 63   190 23 70   207 25 76   221 27 82   232 28 86   240 29 89   245 30 91   247 30 91   245 30 91   238 29 88   222 27 82   190 23 70   106 74 107   140 98 142   164 114 166   178 124 180   17 12 17   17 12 17   51 51 51   51 51 51   18 7 6   18 7 6   33 14 11   54 23 19   68 29 24   69 29 24   51 51 51   51 51 51   51 51 51   51 51 51   51 51 51   51 51 51   51 51 51   51 51 51   51 51 51   51 51 51   51 51 51   51 51 51   51 51 51   51 51 51   51 51 51   51 51 51   51 51 51   51 51 51   51 51 51   51 51 51   
51 51 51   16 2 6   53 6 19   97 12 36   129 16 47   154 19 57   175 21 64   191 23 71   205 25 76   216 26 80   223 27 82   227 28 84   228 28 84   224 27 83   214 26 79   194 24 71   140 17 51   45 31 46   83 58 84   106 74 107   114 79 115   17 12 17   51 51 51   51 51 51   51 51 51   51 51 51   51 51 51   51 51 51   51 51 51   51 51 51   51 51 51   51 51 51   51 51 51   51 51 51   51 51 51   51 51 51   51 51 51   51 51 51   51 51 51   51 51 51   51 51 51   51 51 51   51 51 51   51 51 51   51 51 51   51 51 51   51 51 51   51 51 51   51 51 51   51 51 51   51 51 51   
51 51 51   51 51 51   24 3 9   74 9 27   108 13 40   135 16 50   155 19 57   172 21 64   186 23 68   196 24 72   202 25 75   206 25 76   205 25 76   199 24 73   184 22 68   151 18 56   51 51 51   51 51 51   51 51 51   51 51 51   51 51 51   51 51 51   51 51 51   51 51 51   51 51 51   51 51 51   51 51 51   51 51 51   51 51 51   51 51 51   51 51 51   51 51 51   51 51 51   51 51 51   51 51 51   51 51 51   51 51 51   51 51 51   51 51 51   51 51 51   51 51 51   51 51 51   51 51 51   51 51 51   51 51 51   51 51 51   51 51 51   51 51 51   51 51 51   51 51 51   51 51 51   
