P3
51 51
255
174 129 47   255 219 80   255 255 97   255 255 108   255 255 113   51 51 51   51 51 51   51 51 51   51 51 51   51 51 51   51 51 51   51 51 51   51 51 51   51 51 51   51 51 51   51 51 51   51 51 51   51 51 51   51 51 51   51 51 51   51 51 51   51 51 51   51 51 51   51 51 51   51 51 51   51 51 51   51 51 51   51 51 51   51 51 51   51 51 51   51 51 51   51 51 51   51 51 51   51 51 51   51 51 51   51 51 51   51 51 51   51 51 51   51 51 51   51 51 51   51 51 51   51 51 51   51 51 51   51 51 51   51 51 51   51 51 51   51 51 51   51 51 51   51 51 51   51 51 51   51 51 51   
165 122 44   250 185 67   255 230 84   255 255 116   255 255 106   255 255 106   51 51 51   51 51 51   51 51 51   51 51 51   51 51 51   51 51 51   51 51 51   51 51 51   51 51 51   51 51 51   51 51 51   51 51 51   51 51 51   51 51 51   82 135 81   105 173 104   51 51 51   51 51 51   51 51 51   51 51 51   51 51 51   51 51 51   51 51 51   51 51 51   51 51 51   51 51 51   51 51 51   51 51 51   51 51 51   51 51 51   51 51 51   51 51 51   51 51 51   51 51 51   51 51 51   51 51 51   51 51 51   51 51 51   51 51 51   51 51 51   51 51 51   51 51 51   51 51 51   51 51 51   51 51 51   
97 72 26   180 133 48   242 179 65   255 214 78   255 240 88   255 252 92   255 230 84   51 51 51   51 51 51   51 51 51   51 51 51   51 51 51   51 51 51   51 51 51   51 51 51   51 51 51   51 51 51   51 51 51   51 51 51   43 72 43   71 118 71   93 153 92   109 180 108   110 182 110   51 51 51   51 51 51   51 51 51   51 51 51   51 51 51   51 51 51   51 51 51   51 51 51   51 51 51   51 51 51   51 51 51   51 51 51   51 51 51   51 51 51   51 51 51   51 51 51   51 51 51   51 51 51   51 51 51   51 51 51   51 51 51   51 51 51   51 51 51   51 51 51   51 51 51   51 51 51   51 51 51   
22 16 6   94 69 25   158 117 43   208 154 56   244 181 66   255 196 71   254 188 68   51 51 51   51 51 51   51 51 51   51 51 51   51 51 51   51 51 51   51 51 51   51 51 51   51 51 51   51 51 51   51 51 51   6 10 6   25 41 25   51 85 51   72 120 72   90 148 90   101 166 100   51 51 51   51 51 51   51 51 51   51 51 51   51 51 51   51 51 51   51 51 51   51 51 51   51 51 51   129 36 45   159 44 55   183 51 64   205 58 71   225 63 78   51 51 51   51 51 51   51 51 51   51 51 51   51 51 51   51 51 51   51 51 51   51 51 51   51 51 51   51 51 51   51 51 51   51 51 51   51 51 51   
22 16 6   22 16 6   59 44 16   111 82 30   150 111 40   171 127 46   159 118 43   51 51 51   51 51 51   51 51 51   51 51 51   51 51 51   51 51 51   51 51 51   51 51 51   51 51 51   51 51 51   51 51 51   6 10 6   6 10 6   27 44 27   48 80 48   66 108 65   77 128 77   51 51 51   51 51 51   51 51 51   51 51 51   168 253 255   51 51 51   51 51 51   51 51 51   89 25 31   119 33 41   145 40 50   168 47 58   190 53 66   210 59 73   229 64 80   244 68 85   51 51 51   51 51 51   51 51 51   51 51 51   51 51 51   51 51 51   51 51 51   51 51 51   51 51 51   51 51 51   51 51 51   
51 51 51   22 16 6   22 16 6   22 16 6   35 26 9   53 39 14   22 16 6   51 51 51   51 51 51   51 51 51   51 51 51   51 51 51   51 51 51   51 51 51   87 255 146   102 255 172   114 255 191   122 255 204   120 255 202   6 10 6   6 10 6   20 34 20   37 62 37   48 80 48   51 51 51   92 139 155   123 186 208   147 221 247   166 251 255   184 255 255   199 255 255   41 11 14   74 21 26   102 28 35   127 36 44   150 42 52   172 49 60   237 103 67   218 67 73   229 64 79   51 51 51   51 51 51   51 51 51   51 51 51   51 51 51   51 51 51   51 51 51   51 51 51   51 51 51   51 51 51   51 51 51   
51 51 51   51 51 51   22 16 6   22 16 6   22 16 6   22 16 6   51 51 51   51 51 51   51 51 51   51 51 51   51 51 51   51 51 51   39 142 66   68 245 114   85 255 143   99 255 166   110 255 184   119 255 199   125 255 210   6 10 6   6 10 6   6 10 6   6 10 6   7 11 7   56 84 94   89 135 150   114 172 192   136 205 228   155 234 255   172 255 255   13 3 4   25 7 8   56 15 19   83 23 29   108 30 37   131 37 45   152 43 53   208 87 60   255 144 67   209 59 73   224 63 78   255 112 255   255 133 255   51 51 51   51 51 51   51 51 51   51 51 51   51 51 51   51 51 51   51 51 51   51 51 51   
51 51 51   51 51 51   51 51 51   51 51 51   51 51 51   51 51 51   51 51 51   51 51 51   51 51 51   51 51 51   51 51 51   51 51 51   41 148 69   61 221 103   77 255 130   90 255 152   101 255 170   113 255 203   118 255 198   122 255 206   120 255 201   6 10 6   51 51 51   11 17 19   49 74 82   77 116 130   101 152 170   122 183 205   141 212 236   162 239 255   13 3 4   13 3 4   35 10 12   62 17 21   87 24 30   110 31 38   131 37 46   152 43 53   173 50 59   189 53 65   204 57 71   255 96 255   255 117 255   255 135 255   51 51 51   51 51 51   51 51 51   51 51 51   51 51 51   51 51 51   51 51 51   
51 51 51   51 51 51   51 51 51   51 51 51   51 51 51   51 51 51   51 51 51   51 51 51   51 51 51   51 51 51   51 51 51   6 24 11   32 117 55   51 185 86   66 239 112   79 255 133   90 255 152   101 255 177   112 255 213   113 255 190   114 255 192   51 51 51   51 51 51   11 17 19   35 53 59   62 93 104   85 128 143   105 159 178   124 187 209   11 17 19   13 3 4   13 3 4   13 3 4   40 11 14   65 18 22   88 24 30   109 31 38   130 36 45   149 42 52   166 47 58   182 51 63   218 77 226   255 98 255   255 117 255   255 133 255   51 51 51   51 51 51   51 51 51   51 51 51   51 51 51   51 51 51   
51 51 51   51 51 51   51 51 51   51 51 51   51 51 51   51 51 51   51 51 51   51 51 51   51 51 51   51 51 51   51 51 51   6 24 11   20 73 34   39 139 65   54 194 90   67 240 112   78 255 131   87 255 147   95 255 160   101 255 170   103 255 174   92 255 155   51 51 51   11 17 19   18 27 30   44 67 74   67 101 113   88 132 148   106 161 179   11 17 19   13 3 4   13 3 4   13 3 4   13 3 4   41 11 14   64 18 22   86 24 30   106 30 37   125 35 43   143 40 49   157 44 54   160 56 166   218 77 226   255 96 255   255 112 255   51 51 51   51 51 51   51 51 51   51 51 51   51 51 51   51 51 51   
51 51 51   51 51 51   51 51 51   51 51 51   51 51 51   51 51 51   51 51 51   51 51 51   51 51 51   51 51 51   51 51 51   6 24 11   6 24 11   24 86 40   39 141 66   52 188 88   63 228 107   73 255 123   81 255 136   87 255 146   89 255 150   82 255 138   51 51 51   11 17 19   11 17 19   24 37 41   48 72 80   68 103 115   11 17 19   11 17 19   13 3 4   13 3 4   13 3 4   13 3 4   13 3 4   39 11 13   61 17 21   81 23 28   100 28 35   117 33 40   129 36 45   97 34 101   156 55 162   209 74 217   253 89 255   51 51 51   51 51 51   51 51 51   51 51 51   51 51 51   51 51 51   
51 51 51   51 51 51   51 51 51   51 51 51   51 51 51   51 51 51   27 255 54   33 255 67   37 255 75   40 255 80   41 255 81   6 24 11   6 24 11   6 24 11   22 82 38   36 130 60   47 170 80   57 205 96   65 233 109   70 254 118   73 255 122   62 225 105   51 51 51   11 17 19   11 17 19   11 17 19   26 40 44   47 71 79   11 17 19   11 17 19   13 3 4   13 3 4   13 3 4   13 3 4   13 3 4   13 3 4   34 9 12   54 15 19   73 20 25   88 25 30   93 26 32   22 8 23   87 31 91   139 49 144   51 51 51   51 51 51   51 51 51   51 51 51   51 51 51   51 51 51   51 51 51   
51 51 51   51 51 51   51 51 51   51 51 51   51 51 51   21 228 41   28 255 56   33 255 66   41 255 75   60 255 87   47 255 84   41 255 82   6 24 11   6 24 11   182 142 80   227 177 100   255 200 112   39 140 65   46 167 78   52 186 87   52 189 88   51 51 51   51 51 51   11 17 19   11 17 19   11 17 19   11 17 19   11 17 19   11 17 19   11 17 19   11 17 19   13 3 4   13 3 4   13 3 4   13 3 4   13 3 4   13 3 4   24 6 8   41 11 14   53 15 18   22 8 23   22 8 23   22 8 23   53 18 55   51 51 51   51 51 51   51 51 51   51 51 51   51 51 51   51 51 51   51 51 51   
51 51 51   51 51 51   51 51 51   51 51 51   9 105 19   19 212 38   25 255 51   30 255 60   55 255 76   200 255 136   186 255 134   47 255 82   38 255 77   130 101 57   182 142 80   220 172 96   249 194 109   255 210 118   255 216 121   29 105 49   25 91 42   51 51 51   51 51 51   11 17 19   11 17 19   11 17 19   11 17 19   11 17 19   11 17 19   11 17 19   11 17 19   13 3 4   13 3 4   13 3 4   13 3 4   13 3 4   13 3 4   13 3 4   13 3 4   22 8 23   22 8 23   22 8 23   228 167 184   255 255 255   51 51 51   51 51 51   51 51 51   51 51 51   51 51 51   51 51 51   51 51 51   
51 51 51   51 51 51   51 51 51   51 51 51   7 79 14   15 173 31   21 238 43   26 255 52   34 255 62   90 255 88   129 255 106   50 255 77   2 24 4   114 89 50   15 11 6   15 11 6   227 177 100   255 255 252   255 203 114   254 199 112   51 51 51   51 51 51   51 51 51   51 51 51   11 17 19   11 17 19   11 17 19   11 17 19   11 17 19   11 17 19   11 17 19   11 17 19   11 17 19   13 3 4   13 3 4   13 3 4   13 3 4   51 51 51   51 51 51   51 51 51   51 51 51   23 17 19   127 93 103   255 199 219   255 255 255   51 51 51   51 51 51   51 51 51   51 51 51   51 51 51   51 51 51   
51 51 51   51 51 51   51 51 51   51 51 51   2 24 4   10 119 21   17 184 33   21 235 43   25 255 50   198 199 118   229 230 137   247 248 148   255 255 152   15 11 6   15 11 6   15 11 6   195 152 85   217 169 95   231 180 101   231 180 101   51 51 51   51 51 51   51 51 51   51 51 51   51 51 51   11 17 19   11 17 19   11 17 19   11 17 19   11 17 19   11 17 19   11 17 19   51 51 51   51 51 51   51 51 51   51 51 51   51 51 51   51 51 51   51 51 51   51 51 51   51 51 51   23 17 19   23 17 19   132 97 107   241 177 195   51 51 51   51 51 51   51 51 51   51 51 51   51 51 51   51 51 51   
51 51 51   51 51 51   51 51 51   51 51 51   2 24 4   4 50 9   10 119 21   134 135 80   184 185 110   216 217 129   240 241 143   255 255 154   255 255 161   255 255 165   255 255 160   15 11 6   156 122 68   178 139 78   192 150 84   193 150 84   51 51 51   51 51 51   51 51 51   51 51 51   51 51 51   51 51 51   15 20 8   11 17 19   11 17 19   11 17 19   51 51 51   51 51 51   51 51 51   15 22 15   51 51 51   51 51 51   51 51 51   51 51 51   51 51 51   51 51 51   51 51 51   165 168 110   230 233 153   255 255 186   255 255 214   255 255 239   255 255 255   51 51 51   51 51 51   51 51 51   51 51 51   
51 51 51   51 51 51   51 51 51   51 51 51   2 24 4   2 24 4   86 87 51   146 147 87   183 184 109   212 213 126   234 235 140   252 253 151   255 255 159   255 255 163   255 255 164   255 255 156   110 86 48   132 103 58   144 113 63   141 110 62   51 51 51   51 51 51   22 15 8   22 15 8   51 51 51   51 51 51   15 20 8   15 20 8   15 20 8   15 20 8   51 51 51   51 51 51   15 22 15   15 22 15   15 22 15   51 51 51   51 51 51   51 51 51   51 51 51   51 51 51   107 108 71   167 169 111   217 219 145   255 255 175   255 255 202   255 255 227   255 255 250   255 255 255   51 51 51   51 51 51   51 51 51   
51 51 51   51 51 51   51 51 51   51 51 51   51 51 51   2 24 4   92 92 55   138 139 83   172 173 103   199 200 119   221 222 132   239 240 143   255 255 167   255 255 157   255 255 159   255 255 155   224 225 134   75 58 33   84 65 37   63 49 28   51 51 51   51 51 51   22 15 8   22 15 8   51 51 51   51 51 51   15 20 8   15 20 8   15 20 8   15 20 8   51 51 51   51 51 51   15 22 15   15 22 15   51 51 51   51 51 51   51 51 51   51 51 51   51 51 51   22 23 15   92 93 61   145 147 97   193 196 129   237 240 158   255 255 185   255 255 210   255 255 235   255 255 254   255 255 255   51 51 51   51 51 51   
51 51 51   51 51 51   51 51 51   51 51 51   51 51 51   15 15 9   79 80 47   122 123 73   155 155 92   181 182 108   202 204 121   220 221 131   235 239 141   244 247 146   248 250 148   246 247 147   226 227 135   15 11 6   15 11 6   51 51 51   51 51 51   6 23 25   6 23 25   6 23 25   51 51 51   51 51 51   51 51 51   51 51 51   51 51 51   51 51 51   51 51 51   51 51 51   51 51 51   51 51 51   51 51 51   51 51 51   31 49 52   106 165 175   158 247 255   196 255 255   66 67 44   118 120 79   165 167 110   208 211 139   248 251 166   255 255 191   255 255 255   255 255 246   255 255 255   255 255 255   51 51 51   
51 51 51   51 51 51   51 51 51   51 51 51   51 51 51   15 15 9   57 57 34   100 100 59   132 133 79   158 159 94   180 180 107   197 198 118   211 212 126   221 222 132   226 227 135   224 225 134   207 208 124   51 51 51   51 51 51   51 51 51   6 23 25   6 23 25   6 23 25   6 23 25   6 23 25   6 23 25   51 51 51   21 12 10   21 12 10   51 51 51   51 51 51   51 51 51   51 51 51   51 51 51   51 51 51   51 51 51   11 17 18   77 120 127   130 202 212   255 255 255   191 255 255   88 89 58   134 136 89   177 179 118   217 220 145   254 255 170   255 255 193   255 255 215   255 255 235   255 255 250   51 51 51   
51 51 51   51 51 51   51 51 51   51 51 51   51 51 51   15 15 9   27 27 16   71 71 42   104 105 62   130 131 78   152 153 91   170 171 101   184 185 110   193 194 115   198 199 118   195 196 117   177 178 106   51 51 51   51 51 51   6 23 25   42 146 153   69 241 255   6 23 25   6 23 25   6 23 25   6 23 25   21 12 10   21 12 10   21 12 10   21 12 10   51 51 51   51 51 51   51 51 51   51 51 51   51 51 51   51 51 51   11 17 18   35 55 59   86 134 142   126 197 209   151 236 250   54 54 36   100 101 67   143 145 96   183 186 122   221 223 147   255 255 171   255 255 192   255 255 212   255 255 228   51 51 51   
51 51 51   51 51 51   51 51 51   51 51 51   51 51 51   51 51 51   15 15 9   36 36 21   70 71 42   98 98 58   120 121 72   138 139 82   151 152 90   161 161 96   164 165 98   159 160 95   135 136 81   51 51 51   51 51 51   6 23 25   28 98 103   55 191 201   75 255 255   6 23 25   6 23 25   6 23 25   21 12 10   21 12 10   21 12 10   21 12 10   255 186 157   51 51 51   51 51 51   51 51 51   51 51 51   51 51 51   11 17 18   11 17 18   34 53 56   73 114 120   22 23 15   22 23 15   63 64 42   107 108 71   147 149 98   185 187 123   220 222 147   252 255 168   255 255 188   255 255 203   51 51 51   
51 51 51   51 51 51   51 51 51   51 51 51   51 51 51   51 51 51   15 15 9   15 15 9   30 30 18   59 59 35   82 83 49   100 101 60   113 114 68   122 122 73   123 124 73   113 114 68   51 51 51   51 51 51   51 51 51   6 23 25   6 23 25   35 122 129   56 194 205   71 249 255   6 23 25   6 23 25   21 12 10   21 12 10   163 96 81   224 132 111   192 113 95   51 51 51   51 51 51   16 14 4   231 199 61   51 51 51   51 51 51   11 17 18   11 17 18   22 23 15   22 23 15   22 23 15   22 23 15   67 68 45   108 109 72   145 147 97   180 183 120   212 215 142   240 243 160   255 255 173   51 51 51   
51 51 51   51 51 51   51 51 51   51 51 51   51 51 51   51 51 51   51 51 51   15 15 9   15 15 9   15 15 9   36 36 21   54 55 32   67 67 40   73 74 44   70 70 42   44 44 26   51 51 51   51 51 51   51 51 51   51 51 51   6 23 25   6 23 25   31 108 114   47 163 172   56 197 208   6 23 25   21 12 10   21 12 10   31 18 15   78 46 38   51 51 51   16 14 4   16 14 4   16 14 4   16 14 4   16 14 4   16 14 4   51 51 51   22 23 15   22 23 15   22 23 15   22 23 15   22 23 15   22 23 15   65 66 43   103 104 68   137 139 92   168 171 112   194 196 129   51 51 51   51 51 51   
51 51 51   51 51 51   51 51 51   11 17 5   11 17 5   11 17 5   11 17 5   11 17 5   15 15 9   15 15 9   15 15 9   15 15 9   15 15 9   15 15 9   15 15 9   201 128 116   51 51 51   51 51 51   51 51 51   51 51 51   6 23 25   6 23 25   6 23 25   13 48 50   20 70 74   51 51 51   51 51 51   51 51 51   51 51 51   51 51 51   49 43 13   16 14 4   16 14 4   16 14 4   16 14 4   16 14 4   16 14 4   16 14 4   51 51 51   22 23 15   22 23 15   22 23 15   22 23 15   22 23 15   22 23 15   55 55 36   89 90 59   117 119 78   133 134 89   51 51 51   51 51 51   
51 51 51   51 51 51   11 17 5   11 17 5   11 17 5   11 17 5   11 17 5   11 17 5   11 17 5   11 7 6   11 7 6   11 7 6   11 7 6   11 7 6   210 134 122   213 136 124   205 131 119   51 51 51   51 51 51   51 51 51   51 51 51   51 51 51   51 51 51   51 51 51   51 51 51   51 51 51   51 51 51   19 10 19   255 174 255   16 14 4   16 14 4   16 14 4   16 14 4   16 14 4   16 14 4   16 14 4   16 14 4   16 14 4   16 14 4   51 51 51   22 23 15   22 23 15   22 23 15   22 23 15   22 23 15   22 23 15   28 28 18   41 42 27   51 51 51   51 51 51   51 51 51   
51 51 51   11 17 5   11 17 5   11 17 5   11 17 5   11 17 5   11 17 5   11 17 5   11 7 6   11 7 6   11 7 6   11 7 6   11 7 6   207 133 124   240 159 155   211 134 122   207 132 120   187 119 109   51 51 51   56 126 70   97 216 119   119 255 147   128 255 157   51 51 51   51 51 51   51 51 51   28 14 28   205 104 202   255 187 255   16 14 4   16 14 4   16 14 4   16 14 4   16 14 4   16 14 4   16 14 4   16 14 4   16 14 4   16 14 4   51 51 51   51 51 51   51 51 51   22 23 15   22 23 15   22 23 15   51 51 51   51 51 51   51 51 51   51 51 51   51 51 51   51 51 51   
51 51 51   11 17 5   11 17 5   11 17 5   11 17 5   11 17 5   11 17 5   11 17 5   11 7 6   11 7 6   11 7 6   155 99 90   173 110 100   201 130 123   255 206 218   202 129 118   199 127 116   185 118 107   8 18 10   65 145 80   97 216 119   119 255 146   131 255 161   128 255 157   51 51 51   51 51 51   19 10 19   19 10 19   19 10 19   16 14 4   16 14 4   16 14 4   16 14 4   16 14 4   16 14 4   16 14 4   16 14 4   16 14 4   16 14 4   51 51 51   51 51 51   51 51 51   51 51 51   51 51 51   51 51 51   51 51 51   51 51 51   51 51 51   51 51 51   51 51 51   51 51 51   
51 51 51   11 17 5   11 17 5   11 17 5   11 17 5   11 17 5   11 17 5   11 7 6   11 7 6   89 57 52   118 75 68   140 89 81   158 101 92   172 109 100   181 116 105   186 118 108   184 117 107   171 109 99   7 16 8   54 121 67   84 188 104   105 235 130   119 255 146   119 255 147   51 51 51   51 51 51   51 51 51   19 10 19   19 10 19   16 14 4   16 14 4   16 14 4   16 14 4   16 14 4   16 14 4   16 14 4   16 14 4   16 14 4   16 14 4   51 51 51   51 51 51   51 51 51   51 51 51   51 51 51   51 51 51   51 51 51   51 51 51   51 51 51   51 51 51   51 51 51   51 51 51   
51 51 51   35 56 18   11 17 5   11 17 5   11 17 5   11 17 5   11 17 5   11 7 6   30 19 17   70 45 41   99 63 57   121 77 70   139 88 80   152 97 88   161 103 94   166 105 96   163 104 95   11 7 6   7 16 8   33 74 41   63 141 78   84 188 104   97 216 119   97 216 119   51 51 51   51 51 51   51 51 51   51 51 51   51 51 51   16 14 4   16 14 4   16 14 4   16 14 4   16 14 4   16 14 4   16 14 4   16 14 4   16 14 4   165 142 43   51 51 51   51 51 51   51 51 51   51 51 51   51 51 51   51 51 51   51 51 51   51 51 51   51 51 51   51 51 51   51 51 51   51 51 51   
51 51 51   11 17 5   44 69 23   11 17 5   11 17 5   11 17 5   11 17 5   11 17 5   11 7 6   44 28 26   74 47 43   97 62 56   115 73 67   128 82 74   137 87 79   140 89 81   135 86 78   11 7 6   7 16 8   7 16 8   33 74 41   54 121 67   65 145 80   56 126 70   51 51 51   51 51 51   51 51 51   10 10 8   10 10 8   153 151 127   163 161 135   16 14 4   16 14 4   16 14 4   16 14 4   16 14 4   16 14 4   16 14 4   51 51 51   51 51 51   51 51 51   51 51 51   51 51 51   51 51 51   51 51 51   51 51 51   51 51 51   51 51 51   51 51 51   51 51 51   51 51 51   
51 51 51   51 51 51   11 17 5   33 51 17   11 17 5   11 17 5   11 17 5   11 17 5   11 7 6   11 7 6   43 27 25   67 43 39   85 54 49   98 62 57   106 67 61   107 68 62   97 62 56   107 189 114   146 255 156   172 255 184   192 255 206   208 255 222   218 255 233   223 255 238   218 255 233   10 10 8   79 78 65   116 114 96   144 142 119   165 163 137   181 179 150   188 186 156   16 14 4   16 14 4   16 14 4   16 14 4   140 163 139   190 223 190   224 255 223   237 255 236   51 51 51   51 51 51   51 51 51   3 21 109   5 32 164   7 40 205   8 46 238   8 50 255   51 51 51   51 51 51   51 51 51   
51 51 51   51 51 51   51 51 51   11 17 5   11 17 5   16 25 8   11 17 5   11 17 5   51 51 51   11 7 6   11 7 6   27 17 16   47 30 27   59 37 34   64 41 37   60 38 35   98 173 104   136 241 146   164 255 176   187 255 199   205 255 219   219 255 234   231 255 246   238 255 255   241 255 255   236 255 252   83 82 69   116 115 97   143 141 118   164 162 136   181 179 150   192 190 159   193 191 160   51 51 51   48 56 47   120 141 120   171 200 170   211 247 211   245 255 244   255 255 255   255 255 255   255 255 255   2 13 68   4 24 124   5 33 169   8 43 209   14 56 244   15 62 255   11 59 255   51 51 51   51 51 51   
51 51 51   51 51 51   51 51 51   51 51 51   51 51 51   51 51 51   51 51 51   51 51 51   51 51 51   51 51 51   11 7 6   11 7 6   11 7 6   11 7 6   11 7 6   73 129 78   116 205 124   147 255 157   172 255 183   192 255 205   209 255 224   224 255 239   235 255 251   244 255 255   249 255 255   249 255 255   238 255 255   110 109 91   136 134 113   157 155 130   238 175 162   186 184 154   191 189 159   17 20 17   71 83 70   127 148 126   172 202 172   211 247 210   245 255 244   255 255 255   255 255 255   255 255 255   255 255 255   4 23 117   5 32 160   13 48 200   37 88 237   62 129 255   49 113 255   15 68 255   51 51 51   
51 51 51   51 51 51   51 51 51   51 51 51   51 51 51   51 51 51   51 51 51   51 51 51   51 51 51   51 51 51   51 51 51   51 51 51   51 51 51   51 51 51   33 58 35   87 154 93   123 217 131   151 255 161   174 255 185   193 255 206   209 255 224   223 255 239   235 255 251   244 255 255   250 255 255   252 255 255   247 255 255   226 255 242   124 123 103   146 144 121   163 161 135   10 10 8   10 10 8   17 20 17   69 81 69   121 142 121   165 193 164   203 238 202   236 255 236   255 255 255   255 255 255   255 255 255   255 255 255   3 20 103   5 29 146   13 46 185   48 102 223   104 187 255   119 213 255   58 128 255   12 64 255   
51 51 51   166 117 253   201 142 255   213 150 255   200 141 255   51 51 51   51 51 51   51 51 51   51 51 51   51 51 51   51 51 51   51 51 51   51 51 51   51 51 51   48 85 51   92 162 98   124 219 132   150 255 160   172 255 183   190 255 203   207 255 221   220 255 235   241 255 253   255 255 255   247 255 255   250 255 255   248 255 255   236 255 252   109 108 90   130 129 108   10 10 8   10 10 8   17 20 17   17 20 17   59 69 59   109 128 109   152 178 152   190 222 189   223 255 222   254 255 254   255 255 255   255 255 255   255 255 255   255 255 255   4 25 127   9 37 166   34 78 203   89 163 240   129 224 255   91 173 255   22 77 255   
153 107 232   197 139 255   223 157 255   234 165 255   227 160 255   194 136 255   51 51 51   51 51 51   51 51 51   51 51 51   51 51 51   51 51 51   51 51 51   13 24 14   51 90 54   91 160 97   121 214 129   146 255 156   167 255 179   185 255 198   201 255 215   215 255 229   246 255 255   255 255 255   243 255 255   245 255 255   244 255 255   235 255 251   185 255 198   10 10 8   10 10 8   10 10 8   17 20 17   17 20 17   43 50 43   93 108 92   135 158 135   173 202 172   206 241 205   236 255 235   255 255 255   255 255 255   255 255 255   255 255 255   3 20 105   5 29 144   15 48 180   45 96 215   79 149 247   70 140 255   24 77 255   
161 114 245   198 140 255   255 168 255   255 209 255   224 158 255   196 138 255   51 51 51   51 51 51   51 51 51   51 51 51   51 51 51   51 51 51   51 51 51   13 24 14   48 85 51   86 151 91   115 203 123   139 246 149   160 255 171   178 255 190   194 255 207   207 255 221   219 255 233   230 255 245   234 255 250   237 255 253   236 255 253   228 255 244   196 255 210   10 10 8   10 10 8   10 10 8   17 20 17   17 20 17   17 20 17   71 84 71   114 134 114   152 178 152   186 217 185   215 252 215   241 255 240   255 255 255   255 255 255   255 255 255   2 15 79   4 23 118   6 32 154   15 49 187   30 74 217   31 80 243   15 60 255   
148 104 226   182 128 255   202 142 255   210 148 255   202 142 255   172 121 255   255 211 97   255 214 98   255 207 95   255 175 80   51 51 51   51 51 51   51 51 51   13 24 14   40 72 43   77 137 83   106 188 114   130 231 139   151 255 161   169 255 180   184 255 197   197 255 211   208 255 223   217 255 232   224 255 239   227 255 243   226 255 242   218 255 233   187 255 199   10 10 8   10 10 8   10 10 8   17 20 17   17 20 17   17 20 17   46 54 46   90 105 89   128 150 128   162 189 161   192 224 191   217 254 217   239 255 238   254 255 253   255 255 255   1 9 50   3 17 90   4 24 126   6 32 159   9 41 188   10 46 213   8 46 231   
118 83 180   151 106 230   169 119 255   174 122 255   162 114 247   118 83 180   255 237 109   255 241 110   255 239 109   21 14 6   21 14 6   51 51 51   51 51 51   13 24 14   29 51 31   66 117 70   95 168 101   119 211 127   140 247 149   157 255 168   173 255 185   186 255 199   197 255 210   205 255 219   211 255 226   214 255 229   213 255 227   203 255 217   164 255 175   10 10 8   10 10 8   51 51 51   20 20 17   17 20 17   17 20 17   17 20 17   60 71 60   100 117 99   134 157 133   164 192 163   190 222 189   210 246 210   224 255 224   223 255 223   0 3 17   2 11 57   3 18 94   4 25 127   5 30 156   6 35 180   6 38 196   
66 47 101   102 72 155   119 83 181   118 83 180   94 66 143   255 241 111   255 250 115   255 254 116   255 253 116   21 14 6   21 14 6   21 14 6   51 51 51   13 24 14   13 24 14   51 90 55   81 143 86   105 186 113   126 223 135   144 255 154   159 255 170   172 255 184   183 255 195   191 255 204   197 255 210   199 255 213   196 255 210   184 255 197   190 84 227   20 9 24   20 9 24   51 51 51   51 51 51   17 20 17   17 20 17   17 20 17   25 29 25   66 77 66   101 118 101   131 154 131   157 183 156   176 206 176   187 218 186   0 3 17   0 3 17   0 3 17   1 11 56   3 17 89   4 23 118   4 27 139   5 28 144   
21 14 6   12 9 19   29 20 45   12 9 19   255 236 108   255 247 113   255 255 117   255 255 119   255 255 119   21 14 6   21 14 6   21 14 6   5 6 15   5 6 15   13 24 14   32 57 34   64 113 68   89 157 95   110 195 118   128 227 137   143 254 153   156 255 167   167 255 178   175 255 187   179 255 192   181 255 193   176 255 188   157 255 168   20 9 24   20 9 24   51 51 51   51 51 51   51 51 51   51 51 51   17 20 17   17 20 17   17 20 17   24 29 24   61 71 61   91 107 91   116 135 115   132 154 131   128 149 127   0 3 17   0 3 17   0 3 17   0 3 17   1 8 41   2 13 66   2 13 70   51 51 51   
21 14 6   21 14 6   21 14 6   255 223 102   255 238 109   255 249 114   255 255 126   255 255 121   255 255 119   21 14 6   21 14 6   21 14 6   5 6 15   5 6 15   13 24 14   13 24 14   42 75 45   69 122 74   91 161 97   109 193 117   125 221 133   138 243 147   148 255 158   155 255 165   159 255 169   158 255 168   148 255 158   94 166 100   51 51 51   51 51 51   51 51 51   51 51 51   51 51 51   51 51 51   51 51 51   51 51 51   17 20 17   17 20 17   17 20 17   37 43 37   57 66 56   21 1 1   115 8 8   191 13 14   51 51 51   51 51 51   51 51 51   51 51 51   51 51 51   51 51 51   51 51 51   
235 155 71   255 183 84   255 205 94   255 222 102   255 236 108   255 247 113   255 255 196   255 255 126   255 255 117   21 14 6   21 14 6   21 14 6   5 6 15   5 6 15   5 6 15   13 24 14   13 24 14   44 79 47   68 120 72   87 154 93   103 181 110   115 204 123   125 221 133   131 231 140   133 235 142   128 226 137   106 187 113   51 51 51   51 51 51   51 51 51   51 51 51   51 51 51   51 51 51   51 51 51   51 51 51   51 51 51   51 51 51   51 51 51   51 51 51   51 51 51   51 51 51   51 51 51   51 51 51   51 51 51   51 51 51   51 51 51   51 51 51   51 51 51   51 51 51   51 51 51   51 51 51   
234 154 70   255 180 82   255 201 92   255 217 100   255 230 105   255 240 110   255 247 113   255 249 114   255 247 113   21 14 6   21 14 6   21 14 6   5 6 15   5 6 15   5 6 15   5 6 15   13 24 14   13 24 14   38 68 41   59 104 63   75 133 80   87 155 93   96 170 103   100 177 107   98 173 104   80 141 85   51 51 51   51 51 51   51 51 51   51 51 51   51 51 51   51 51 51   51 51 51   51 51 51   51 51 51   51 51 51   51 51 51   51 51 51   51 51 51   51 51 51   51 51 51   51 51 51   51 51 51   51 51 51   51 51 51   51 51 51   51 51 51   51 51 51   51 51 51   51 51 51   51 51 51   
225 148 68   255 173 79   255 193 88   255 209 96   255 221 101   255 230 105   255 236 108   255 238 109   255 236 108   21 14 6   21 14 6   21 14 6   5 6 15   5 6 15   5 6 15   5 6 15   51 51 51   13 24 14   13 24 14   20 36 22   38 67 40   50 88 53   56 99 60   54 95 57   136 25 50   114 21 42   51 51 51   51 51 51   51 51 51   51 51 51   51 51 51   51 51 51   51 51 51   51 51 51   51 51 51   51 51 51   51 51 51   51 51 51   51 51 51   51 51 51   51 51 51   51 51 51   51 51 51   51 51 51   51 51 51   51 51 51   51 51 51   51 51 51   51 51 51   51 51 51   51 51 51   
210 138 63   247 163 75   255 182 83   255 197 90   255 209 96   255 217 100   255 222 102   255 223 102   255 220 101   255 211 97   21 14 6   21 14 6   51 51 51   51 51 51   51 51 51   51 51 51   51 51 51   51 51 51   10 1 3   10 1 3   13 24 14   10 1 3   98 18 36   106 20 39   99 18 36   51 51 51   51 51 51   51 51 51   51 51 51   51 51 51   51 51 51   51 51 51   51 51 51   51 51 51   51 51 51   51 51 51   51 51 51   51 51 51   51 51 51   51 51 51   51 51 51   51 51 51   51 51 51   51 51 51   51 51 51   51 51 51   51 51 51   51 51 51   51 51 51   51 51 51   51 51 51   
188 123 56   225 148 68   254 167 77   255 182 83   255 193 88   255 201 92   255 205 94   255 205 94   255 199 91   255 187 86   21 14 6   21 14 6   51 51 51   51 51 51   51 51 51   51 51 51   51 51 51   51 51 51   51 51 51   10 1 3   16 3 6   42 8 15   57 10 21   55 10 20   51 51 51   51 51 51   51 51 51   51 51 51   51 51 51   51 51 51   51 51 51   51 51 51   51 51 51   51 51 51   51 51 51   51 51 51   51 51 51   51 51 51   51 51 51   51 51 51   51 51 51   51 51 51   51 51 51   51 51 51   51 51 51   51 51 51   51 51 51   51 51 51   51 51 51   51 51 51   51 51 51   
157 103 47   196 129 59   225 148 68   247 163 75   255 173 79   255 180 82   255 183 84   255 181 83   255 173 79   237 156 71   21 14 6   51 51 51   51 51 51   51 51 51   51 51 51   51 51 51   51 51 51   51 51 51   51 51 51   51 51 51   51 51 51   51 51 51   51 51 51   51 51 51   51 51 51   51 51 51   51 51 51   51 51 51   51 51 51   51 51 51   51 51 51   51 51 51   51 51 51   51 51 51   51 51 51   51 51 51   51 51 51   51 51 51   51 51 51   51 51 51   51 51 51   51 51 51   51 51 51   51 51 51   51 51 51   51 51 51   51 51 51   51 51 51   51 51 51   51 51 51   51 51 51   
115 76 35   157 103 47   188 123 56   210 138 63   225 148 68   234 154 70   235 155 71   228 150 69   208 137 63   162 106 49   51 51 51   51 51 51   51 51 51   51 51 51   51 51 51   51 51 51   51 51 51   51 51 51   51 51 51   51 51 51   51 51 51   51 51 51   51 51 51   51 51 51   51 51 51   51 51 51   51 51 51   51 51 51   51 51 51   51 51 51   51 51 51   51 51 51   51 51 51   51 51 51   51 51 51   51 51 51   51 51 51   51 51 51   51 51 51   51 51 51   51 51 51   51 51 51   51 51 51   51 51 51   51 51 51   51 51 51   51 51 51   51 51 51   51 51 51   51 51 51   51 51 51   
