P3
51 51
255
51 51 51   51 51 51   51 51 51   51 51 51   51 51 51   51 51 51   51 51 51   51 51 51   51 51 51   51 51 51   51 51 51   51 51 51   51 51 51   51 51 51   51 51 51   51 51 51   51 51 51   51 51 51   51 51 51   51 51 51   51 51 51   51 51 51   51 51 51   51 51 51   51 51 51   51 51 51   51 51 51   51 51 51   51 51 51   51 51 51   51 51 51   51 51 51   51 51 51   51 51 51   51 51 51   51 51 51   51 51 51   51 51 51   51 51 51   51 51 51   51 51 51   51 51 51   51 51 51   51 51 51   51 51 51   51 51 51   51 51 51   51 51 51   51 51 51   51 51 51   51 51 51   
51 51 51   51 51 51   51 51 51   51 51 51   51 51 51   51 51 51   51 51 51   51 51 51   51 51 51   51 51 51   51 51 51   51 51 51   51 51 51   51 51 51   51 51 51   51 51 51   51 51 51   51 51 51   51 51 51   51 51 51   51 51 51   51 51 51   51 51 51   51 51 51   51 51 51   51 51 51   51 51 51   51 51 51   51 51 51   51 51 51   51 51 51   51 51 51   51 51 51   51 51 51   51 51 51   51 51 51   51 51 51   51 51 51   51 51 51   51 51 51   51 51 51   51 51 51   51 51 51   51 51 51   51 51 51   51 51 51   51 51 51   51 51 51   51 51 51   51 51 51   51 51 51   
51 51 51   51 51 51   51 51 51   51 51 51   51 51 51   51 51 51   51 51 51   51 51 51   51 51 51   51 51 51   51 51 51   51 51 51   51 51 51   51 51 51   51 51 51   51 51 51   51 51 51   51 51 51   51 51 51   51 51 51   51 51 51   51 51 51   51 51 51   51 51 51   51 51 51   51 51 51   51 51 51   51 51 51   96 19 137   121 24 172   139 28 198   155 31 220   169 34 240   181 36 255   51 51 51   51 51 51   51 51 51   51 51 51   51 51 51   51 51 51   51 51 51   51 51 51   51 51 51   51 51 51   51 51 51   51 51 51   51 51 51   51 51 51   51 51 51   51 51 51   51 51 51   
51 51 51   51 51 51   51 51 51   51 51 51   51 51 51   51 51 51   51 51 51   51 51 51   51 51 51   51 51 51   51 51 51   51 51 51   51 51 51   51 51 51   51 51 51   51 51 51   51 51 51   51 51 51   51 51 51   51 51 51   51 51 51   51 51 51   51 51 51   51 51 51   51 51 51   51 51 51   51 51 51   73 14 103   95 19 136   114 23 162   131 26 186   146 29 207   160 32 227   173 35 245   184 37 255   191 38 255   51 51 51   51 51 51   51 51 51   51 51 51   51 51 51   51 51 51   51 51 51   51 51 51   51 51 51   51 51 51   51 51 51   51 51 51   51 51 51   51 51 51   51 51 51   
51 51 51   51 51 51   51 51 51   51 51 51   51 51 51   51 51 51   51 51 51   51 51 51   51 51 51   51 51 51   51 51 51   51 51 51   51 51 51   51 51 51   51 51 51   51 51 51   51 51 51   51 51 51   51 51 51   255 255 255   51 51 51   51 51 51   51 51 51   51 51 51   51 51 51   51 51 51   40 8 57   65 13 93   86 17 122   103 20 147   119 24 170   135 27 191   165 43 222   199 61 255   178 38 249   183 37 255   51 51 51   51 51 51   51 51 51   51 51 51   51 51 51   51 51 51   51 51 51   51 51 51   51 51 51   51 51 51   51 51 51   51 51 51   51 51 51   51 51 51   51 51 51   
51 51 51   51 51 51   51 51 51   51 51 51   51 51 51   51 51 51   51 51 51   51 51 51   86 99 112   99 114 129   109 125 141   115 131 149   114 131 148   51 51 51   51 51 51   51 51 51   51 51 51   119 168 151   202 255 255   255 255 255   255 255 255   255 255 255   51 51 51   51 51 51   51 51 51   10 2 14   32 6 45   54 11 77   74 14 105   91 18 129   107 21 152   122 25 173   163 48 211   255 136 255   236 91 255   173 35 244   180 36 255   51 51 51   51 51 51   51 51 51   51 51 51   51 51 51   51 51 51   51 51 51   51 51 51   51 51 51   51 51 51   51 51 51   51 51 51   51 51 51   51 51 51   
51 51 51   51 51 51   51 51 51   51 51 51   51 51 51   51 51 51   48 56 63   72 83 93   87 99 112   98 112 127   107 122 138   114 131 148   119 136 154   120 137 155   51 51 51   51 51 51   51 51 51   87 123 111   159 225 202   215 255 255   255 255 255   255 255 255   51 51 51   51 51 51   51 51 51   10 2 14   20 4 28   41 8 59   60 12 86   77 15 110   93 18 132   108 21 153   126 28 176   182 64 224   207 76 250   162 35 228   167 33 238   51 51 51   51 51 51   51 51 51   51 51 51   51 51 51   51 51 51   51 51 51   51 51 51   51 51 51   51 51 51   51 51 51   51 51 51   51 51 51   51 51 51   
51 51 51   51 51 51   51 51 51   51 51 51   51 51 51   51 51 51   50 57 65   67 77 87   80 92 104   91 105 118   100 115 130   115 130 150   115 132 150   117 134 151   116 133 150   51 51 51   17 24 22   31 44 39   102 144 130   158 223 201   202 255 255   235 255 255   240 255 255   51 51 51   51 51 51   10 2 14   10 2 14   27 5 38   46 9 65   63 12 89   79 15 112   93 18 133   107 21 152   123 26 173   138 31 192   145 29 205   153 31 217   157 31 222   51 51 51   51 51 51   51 51 51   51 51 51   51 51 51   51 51 51   51 51 51   51 51 51   51 51 51   51 51 51   51 51 51   51 51 51   51 51 51   
51 51 51   51 51 51   51 51 51   51 51 51   51 51 51   19 22 25   43 49 56   59 68 76   72 82 93   82 94 107   91 105 118   136 148 181   225 233 255   110 126 142   111 127 143   105 120 136   51 51 51   17 24 22   33 46 42   90 127 114   135 191 172   167 236 212   169 240 216   51 51 51   51 51 51   10 2 14   10 2 14   10 2 14   30 6 43   47 9 67   63 12 90   78 15 111   92 18 131   105 21 149   117 23 166   128 25 182   137 27 195   141 28 201   203 252 255   255 255 255   255 255 255   255 255 255   51 51 51   51 51 51   51 51 51   51 51 51   51 51 51   51 51 51   51 51 51   51 51 51   51 51 51   
51 51 51   51 51 51   51 51 51   51 51 51   51 51 51   11 12 14   33 37 42   48 55 63   61 70 79   72 82 93   81 92 104   88 101 115   97 111 127   99 114 129   101 116 131   99 113 128   51 51 51   17 24 22   17 24 22   17 24 22   54 77 69   83 118 106   51 51 51   51 51 51   51 51 51   10 2 14   10 2 14   10 2 14   10 2 14   30 6 43   47 9 66   62 12 88   75 15 107   89 17 126   101 20 143   111 22 158   120 24 171   122 24 173   199 246 225   255 255 255   255 255 255   255 255 255   255 255 255   51 51 51   51 51 51   51 51 51   51 51 51   51 51 51   51 51 51   51 51 51   51 51 51   
51 51 51   51 51 51   51 51 51   51 51 51   51 51 51   6 7 8   20 23 26   35 41 46   48 55 63   59 68 77   68 78 89   76 87 99   82 94 107   87 100 113   90 103 116   88 101 114   51 51 51   51 51 51   17 24 22   17 24 22   17 24 22   17 24 22   51 51 51   51 51 51   51 51 51   10 2 14   10 2 14   10 2 14   10 2 14   10 2 14   29 5 41   44 8 63   58 11 83   71 14 101   83 16 118   93 18 133   101 20 144   88 109 116   162 200 181   229 255 240   255 255 255   255 255 255   255 255 255   51 51 51   51 51 51   51 51 51   205 129 110   230 145 123   252 159 135   255 171 145   51 51 51   
51 51 51   51 51 51   51 51 51   51 51 51   51 51 51   6 7 8   6 7 8   21 24 27   34 39 44   45 52 58   54 62 70   62 71 81   69 79 89   73 84 95   76 87 98   74 85 96   51 51 51   51 51 51   51 51 51   51 51 51   51 51 51   51 51 51   51 51 51   51 51 51   51 51 51   10 2 14   10 2 14   10 2 14   10 2 14   10 2 14   10 2 14   25 5 36   39 7 56   52 10 74   64 12 90   73 14 104   79 16 112   38 48 65   106 132 128   174 214 187   229 255 240   255 255 255   255 255 255   112 71 60   145 92 78   172 109 92   196 124 105   218 138 117   240 152 129   255 165 140   255 177 150   
51 51 51   51 51 51   51 51 51   51 51 51   51 51 51   6 7 8   6 7 8   6 7 8   17 20 23   29 33 38   39 44 50   47 53 60   53 61 69   57 66 74   59 68 77   57 65 73   51 51 51   51 51 51   51 51 51   51 51 51   51 51 51   51 51 51   51 51 51   51 51 51   51 51 51   10 2 14   10 2 14   10 2 14   10 2 14   10 2 14   10 2 14   10 2 14   18 3 26   31 6 44   42 8 60   50 10 71   12 15 20   12 15 20   44 55 71   106 132 128   162 200 181   199 246 225   74 47 39   106 67 57   133 84 71   158 100 85   181 115 97   203 129 109   224 142 120   244 155 131   255 167 142   
51 51 51   51 51 51   51 51 51   51 51 51   51 51 51   51 51 51   6 7 8   6 7 8   6 7 8   10 12 14   20 23 27   29 33 37   35 40 45   6 7 8   6 7 8   34 39 44   51 51 51   51 51 51   51 51 51   51 51 51   51 51 51   51 51 51   51 51 51   51 51 51   51 51 51   51 51 51   10 2 14   10 2 14   10 2 14   10 2 14   10 2 14   10 2 14   10 2 14   10 2 14   16 3 23   18 3 26   12 15 20   12 15 20   12 15 20   38 48 65   88 109 116   29 18 15   63 40 34   92 58 49   118 74 63   142 90 76   165 104 88   187 118 100   207 131 111   228 144 122   249 162 135   
51 51 51   51 51 51   51 51 51   51 51 51   51 51 51   51 51 51   51 51 51   6 7 8   6 7 8   6 7 8   6 7 8   6 7 8   6 7 8   6 7 8   6 7 8   51 51 51   51 51 51   51 51 51   51 51 51   51 51 51   51 51 51   51 51 51   51 51 51   51 51 51   51 51 51   51 51 51   51 51 51   10 2 14   10 2 14   10 2 14   10 2 14   10 2 14   10 2 14   10 2 14   51 51 51   12 15 20   12 15 20   12 15 20   12 15 20   12 15 20   17 11 9   17 11 9   48 30 25   75 48 40   101 64 54   125 79 67   148 93 79   169 107 91   190 120 102   210 134 113   246 198 149   
51 51 51   51 51 51   51 51 51   51 51 51   51 51 51   51 51 51   51 51 51   51 51 51   6 7 8   6 7 8   6 7 8   6 7 8   6 7 8   6 7 8   51 51 51   51 51 51   51 51 51   51 51 51   51 51 51   51 51 51   51 51 51   51 51 51   51 51 51   51 51 51   51 51 51   51 51 51   51 51 51   51 51 51   51 51 51   76 157 144   110 228 209   134 255 255   154 255 255   168 255 255   51 51 51   51 51 51   12 15 20   12 15 20   12 15 20   17 11 9   17 11 9   17 11 9   31 19 16   58 37 31   83 53 45   107 68 57   130 82 70   151 96 81   172 109 92   192 122 103   213 139 116   
51 51 51   51 51 51   51 51 51   51 51 51   51 51 51   51 51 51   51 51 51   51 51 51   51 51 51   51 51 51   51 51 51   51 51 51   51 51 51   51 51 51   51 51 51   51 51 51   51 51 51   51 51 51   51 51 51   51 51 51   51 51 51   51 51 51   51 51 51   51 51 51   51 51 51   51 51 51   51 51 51   51 51 51   39 81 74   76 157 144   103 215 197   129 255 245   160 255 255   176 255 255   174 255 255   51 51 51   51 51 51   51 51 51   12 15 20   17 11 9   17 11 9   17 11 9   17 11 9   40 25 21   65 41 35   89 56 47   111 70 60   133 84 71   154 97 82   174 110 93   193 122 104   
51 51 51   51 51 51   51 51 51   51 51 51   231 157 32   255 248 54   255 255 118   255 255 84   51 51 51   51 51 51   51 51 51   51 51 51   51 51 51   51 51 51   51 51 51   51 51 51   51 51 51   51 51 51   12 1 14   12 1 14   12 1 14   12 1 14   12 1 14   51 51 51   51 51 51   51 51 51   51 51 51   9 19 18   32 66 61   64 133 122   90 188 172   116 248 221   161 255 255   203 255 255   176 255 255   168 255 255   51 51 51   51 51 51   51 51 51   17 11 9   17 11 9   17 11 9   17 11 9   17 11 9   46 29 24   69 44 37   92 58 49   114 72 61   135 85 72   155 98 83   175 110 94   
51 51 51   51 51 51   51 51 51   51 51 51   200 135 28   255 214 50   255 255 167   255 255 174   255 255 56   51 51 51   51 51 51   51 51 51   51 51 51   51 51 51   51 51 51   51 51 51   51 51 51   38 6 46   106 16 126   148 22 175   12 1 14   12 1 14   12 1 14   12 1 14   51 51 51   51 51 51   51 51 51   9 19 18   17 36 33   48 100 92   74 154 141   97 202 184   125 255 239   161 255 255   160 255 255   154 255 255   51 51 51   51 51 51   51 51 51   17 11 9   17 11 9   17 11 9   17 11 9   17 11 9   25 16 13   49 31 26   72 46 39   94 60 50   115 73 62   135 86 73   155 98 83   
51 51 51   51 51 51   51 51 51   51 51 51   97 66 13   211 143 29   255 191 43   255 216 51   255 202 42   51 51 51   51 51 51   51 51 51   51 51 51   51 51 51   51 51 51   51 51 51   51 51 51   35 5 41   90 13 106   129 19 152   159 24 188   12 1 14   12 1 14   12 1 14   51 51 51   51 51 51   51 51 51   9 19 18   9 19 18   28 59 54   54 113 104   77 160 146   97 202 184   116 248 221   129 255 245   9 19 18   51 51 51   51 51 51   51 51 51   17 11 9   17 11 9   17 11 9   17 11 9   17 11 9   17 11 9   28 18 15   51 32 27   74 46 39   95 60 51   115 73 62   135 85 72   
51 51 51   51 51 51   51 51 51   51 51 51   24 16 3   63 43 8   137 93 19   167 114 23   132 89 18   51 51 51   51 51 51   51 51 51   51 51 51   51 51 51   51 51 51   51 51 51   51 51 51   12 1 14   63 9 74   101 15 120   132 20 156   155 24 184   12 1 14   12 1 14   51 51 51   51 51 51   51 51 51   9 19 18   9 19 18   9 19 18   32 66 61   54 113 104   74 154 141   90 188 172   9 19 18   9 19 18   51 51 51   51 51 51   51 51 51   17 11 9   17 11 9   17 11 9   17 11 9   17 11 9   17 11 9   17 11 9   30 19 16   52 33 28   73 46 39   94 59 50   113 72 61   
51 51 51   51 51 51   51 51 51   51 51 51   51 51 51   24 16 3   24 16 3   24 16 3   51 51 51   51 51 51   51 51 51   51 51 51   51 51 51   51 51 51   51 51 51   51 51 51   51 51 51   12 1 14   27 4 32   67 10 79   98 15 115   121 18 143   137 21 162   12 1 14   51 51 51   51 51 51   51 51 51   9 19 18   9 19 18   9 19 18   9 19 18   28 59 54   48 100 92   64 133 122   9 19 18   9 19 18   51 51 51   51 51 51   51 51 51   17 11 9   17 11 9   17 11 9   17 11 9   17 11 9   17 11 9   17 11 9   17 11 9   29 18 15   51 32 27   71 45 38   91 57 49   
51 51 51   51 51 51   51 51 51   51 51 51   51 51 51   51 51 51   51 51 51   51 51 51   51 51 51   51 51 51   51 51 51   51 51 51   51 51 51   51 51 51   51 51 51   51 51 51   51 51 51   12 1 14   12 1 14   23 3 28   55 8 65   78 12 93   93 14 110   12 1 14   51 51 51   51 51 51   51 51 51   51 51 51   9 19 18   9 19 18   9 19 18   9 19 18   17 36 33   9 19 18   9 19 18   51 51 51   51 51 51   51 51 51   51 51 51   51 51 51   17 11 9   17 11 9   17 11 9   17 11 9   17 11 9   17 11 9   17 11 9   17 11 9   26 16 14   47 30 25   67 42 36   
51 51 51   51 51 51   51 51 51   51 51 51   51 51 51   51 51 51   51 51 51   51 51 51   51 51 51   51 51 51   51 51 51   51 51 51   51 51 51   51 51 51   51 51 51   51 51 51   51 51 51   51 51 51   12 1 14   12 1 14   12 1 14   22 3 26   31 4 36   51 51 51   51 51 51   51 51 51   51 51 51   51 51 51   51 51 51   9 19 18   9 19 18   9 19 18   9 19 18   9 19 18   51 51 51   51 51 51   51 51 51   51 51 51   51 51 51   51 51 51   51 51 51   17 11 9   17 11 9   17 11 9   17 11 9   17 11 9   17 11 9   17 11 9   17 11 9   17 11 9   40 25 21   
51 51 51   51 51 51   51 51 51   51 51 51   51 51 51   51 51 51   51 51 51   51 51 51   51 51 51   51 51 51   51 51 51   51 51 51   51 51 51   51 51 51   51 51 51   51 51 51   51 51 51   51 51 51   51 51 51   51 51 51   51 51 51   51 51 51   51 51 51   51 51 51   51 51 51   51 51 51   51 51 51   51 51 51   51 51 51   51 51 51   51 51 51   51 51 51   51 51 51   51 51 51   51 51 51   51 51 51   51 51 51   51 51 51   51 51 51   51 51 51   51 51 51   51 51 51   17 11 9   17 11 9   17 11 9   17 11 9   17 11 9   17 11 9   17 11 9   17 11 9   17 11 9   
51 51 51   51 51 51   51 51 51   51 51 51   51 51 51   51 51 51   51 51 51   51 51 51   51 51 51   51 51 51   51 51 51   51 51 51   51 51 51   51 51 51   51 51 51   51 51 51   51 51 51   51 51 51   51 51 51   51 51 51   51 51 51   51 51 51   51 51 51   51 51 51   51 51 51   51 51 51   51 51 51   51 51 51   51 51 51   51 51 51   51 51 51   51 51 51   51 51 51   51 51 51   51 51 51   51 51 51   51 51 51   51 51 51   51 51 51   51 51 51   51 51 51   51 51 51   51 51 51   51 51 51   17 11 9   17 11 9   17 11 9   17 11 9   17 11 9   17 11 9   51 51 51   
51 51 51   51 51 51   255 67 255   255 77 255   255 82 255   255 82 255   255 71 255   51 51 51   51 51 51   51 51 51   51 51 51   51 51 51   51 51 51   51 51 51   51 51 51   51 51 51   51 51 51   51 51 51   51 51 51   51 51 51   51 51 51   51 51 51   51 51 51   51 51 51   51 51 51   51 51 51   51 51 51   51 51 51   51 51 51   51 51 51   51 51 51   51 51 51   51 51 51   51 51 51   51 51 51   51 51 51   96 20 145   151 31 227   190 40 255   208 43 255   51 51 51   51 51 51   51 51 51   51 51 51   51 51 51   51 51 51   51 51 51   51 51 51   51 51 51   51 51 51   51 51 51   
255 61 255   255 75 255   255 84 255   255 90 255   255 94 255   255 96 255   255 96 255   255 91 255   255 69 255   51 51 51   51 51 51   51 51 51   51 51 51   51 51 51   51 51 51   51 51 51   51 51 51   51 51 51   51 51 51   51 51 51   51 51 51   51 51 51   51 51 51   51 51 51   51 51 51   51 51 51   51 51 51   51 51 51   51 51 51   51 51 51   51 51 51   51 51 51   51 51 51   51 51 51   51 51 51   38 8 57   100 21 150   147 31 221   186 39 255   216 45 255   231 48 255   51 51 51   51 51 51   51 51 51   51 51 51   51 51 51   51 51 51   51 51 51   51 51 51   51 51 51   51 51 51   
255 71 255   255 81 255   255 88 255   255 94 255   255 98 255   255 100 255   255 100 255   255 99 255   255 93 255   255 73 255   51 51 51   51 51 51   51 51 51   51 51 51   51 51 51   51 51 51   51 51 51   51 51 51   51 51 51   51 51 51   51 51 51   51 51 51   51 51 51   51 51 51   51 51 51   51 51 51   51 51 51   51 51 51   51 51 51   51 51 51   51 51 51   97 125 0   124 160 1   133 172 1   12 2 18   26 5 39   83 17 124   129 27 193   167 35 251   255 63 255   220 46 255   51 51 51   51 51 51   51 51 51   51 51 51   51 51 51   51 51 51   51 51 51   51 51 51   51 51 51   51 51 51   
255 74 255   255 82 255   255 89 255   255 94 255   255 98 255   255 100 255   255 101 255   255 100 255   255 96 255   255 87 255   51 51 51   51 51 51   51 51 51   51 51 51   51 51 51   51 51 51   51 51 51   51 51 51   51 51 51   51 51 51   51 51 51   51 51 51   51 51 51   51 51 51   51 51 51   51 51 51   51 51 51   51 51 51   51 51 51   26 34 0   74 96 0   142 170 11   208 240 24   234 255 27   196 239 12   12 2 18   56 11 85   102 21 153   141 29 211   172 36 255   196 41 255   196 41 255   51 51 51   51 51 51   51 51 51   51 51 51   51 51 51   51 51 51   51 51 51   51 51 51   51 51 51   
255 73 255   255 81 255   255 87 255   255 92 255   255 102 255   255 152 255   255 99 255   255 98 255   255 95 255   255 88 255   255 70 255   51 51 51   51 51 51   51 51 51   51 51 51   51 51 51   79 73 196   108 99 255   121 111 255   113 103 255   51 51 51   51 51 51   51 51 51   51 51 51   51 51 51   51 51 51   51 51 51   51 51 51   51 51 51   32 41 0   75 96 1   157 182 18   235 255 35   255 255 43   255 255 35   176 221 6   22 4 34   69 14 103   107 22 161   139 29 209   162 34 243   154 32 231   51 51 51   51 51 51   51 51 51   51 51 51   51 51 51   51 51 51   51 51 51   51 51 51   51 51 51   
255 71 255   255 78 255   255 84 255   255 89 255   255 94 255   255 112 255   255 95 255   255 95 255   255 92 255   255 85 255   255 71 255   51 51 51   51 51 51   51 51 51   51 51 51   56 51 138   92 84 228   115 106 255   130 119 255   134 123 255   113 103 255   51 51 51   51 51 51   51 51 51   51 51 51   51 51 51   51 51 51   51 51 51   8 11 0   22 29 0   60 77 0   135 157 15   214 239 32   255 255 42   255 255 40   206 246 17   12 2 18   27 5 41   66 14 100   97 20 146   116 24 174   51 51 51   51 51 51   51 51 51   51 51 51   51 51 51   51 51 51   51 51 51   51 51 51   51 51 51   51 51 51   
255 66 255   255 73 255   255 79 255   255 84 255   255 87 255   255 89 255   255 90 255   255 89 255   255 86 255   255 80 255   255 66 255   51 51 51   51 51 51   51 51 51   7 6 18   56 51 139   88 80 217   109 100 255   215 255 255   130 119 255   121 111 255   51 51 51   51 51 51   51 51 51   51 51 51   51 51 51   51 51 51   51 51 51   8 11 0   8 11 0   43 55 0   91 110 6   161 184 20   214 239 31   226 255 30   179 215 14   12 2 18   12 2 18   12 2 18   38 8 58   51 51 51   51 51 51   51 51 51   51 51 51   51 51 51   51 51 51   51 51 51   51 51 51   51 51 51   51 51 51   51 51 51   
255 60 255   255 67 255   255 73 255   255 77 255   255 80 255   255 82 255   255 83 255   255 82 255   255 78 255   255 71 255   245 55 249   51 51 51   51 51 51   51 51 51   7 6 18   43 40 108   74 68 183   95 87 236   109 100 255   115 106 255   108 99 255   51 51 51   51 51 51   51 51 51   51 51 51   51 51 51   51 51 51   51 51 51   8 11 0   8 11 0   20 26 0   51 65 0   94 114 6   138 162 14   152 180 14   120 152 3   51 51 51   51 51 51   51 51 51   51 51 51   51 51 51   51 51 51   51 51 51   51 51 51   51 51 51   51 51 51   51 51 51   51 51 51   51 51 51   51 51 51   51 51 51   
230 52 234   255 59 255   255 65 255   255 69 255   255 72 255   255 74 255   255 74 255   255 72 255   255 68 255   255 60 255   156 35 159   51 51 51   51 51 51   51 51 51   7 6 18   21 19 52   53 48 131   74 68 183   88 80 217   92 84 228   79 73 196   255 201 179   51 51 51   51 51 51   51 51 51   51 51 51   51 51 51   51 51 51   51 51 51   8 11 0   8 11 0   23 30 0   48 62 0   67 86 0   78 101 0   71 91 0   51 51 51   51 51 51   51 51 51   51 51 51   51 51 51   51 51 51   51 51 51   51 51 51   51 51 51   51 51 51   51 51 51   51 51 51   51 51 51   51 51 51   51 51 51   
186 42 190   218 49 223   243 55 248   255 59 255   255 62 255   255 64 255   255 63 255   255 61 255   245 56 250   193 43 196   51 51 51   51 51 51   51 51 51   51 51 51   51 51 51   7 6 18   21 19 52   43 40 108   56 51 139   56 51 138   23 17 15   23 17 15   23 17 15   23 17 15   51 51 51   51 51 51   51 51 51   51 51 51   51 51 51   51 51 51   8 11 0   8 11 0   11 14 0   28 36 0   28 36 0   51 51 51   51 51 51   51 51 51   51 51 51   51 51 51   51 51 51   51 51 51   51 51 51   51 51 51   51 51 51   51 51 51   51 51 51   51 51 51   51 51 51   51 51 51   51 51 51   
132 30 134   166 37 169   191 43 195   210 47 214   221 50 225   225 51 229   221 50 225   204 46 208   166 38 170   51 51 51   51 51 51   51 51 51   4 8 4   4 8 4   4 8 4   51 51 51   7 6 18   7 6 18   7 6 18   23 17 15   23 17 15   23 17 15   23 17 15   23 17 15   51 51 51   51 51 51   51 51 51   51 51 51   51 51 51   51 51 51   51 51 51   51 51 51   51 51 51   51 51 51   51 51 51   51 51 51   51 51 51   51 51 51   51 51 51   51 51 51   51 51 51   51 51 51   51 51 51   51 51 51   51 51 51   51 51 51   51 51 51   51 51 51   51 51 51   51 51 51   51 51 51   
59 13 60   98 22 100   125 28 128   144 32 146   153 35 156   154 35 157   142 32 145   110 25 112   51 51 51   51 51 51   51 51 51   51 51 51   4 8 4   4 8 4   4 8 4   51 51 51   51 51 51   51 51 51   23 17 15   23 17 15   23 17 15   23 17 15   23 17 15   23 17 15   23 17 15   51 51 51   51 51 51   51 51 51   51 51 51   51 51 51   51 51 51   51 51 51   51 51 51   51 51 51   51 51 51   51 51 51   51 51 51   51 51 51   51 51 51   51 51 51   51 51 51   51 51 51   51 51 51   51 51 51   51 51 51   51 51 51   51 51 51   51 51 51   51 51 51   51 51 51   51 51 51   
24 5 24   24 5 24   32 7 33   51 11 52   57 13 59   47 10 48   24 5 24   51 51 51   51 51 51   51 51 51   51 51 51   51 51 51   4 8 4   4 8 4   4 8 4   51 51 51   51 51 51   51 51 51   23 17 15   23 17 15   23 17 15   23 17 15   23 17 15   23 17 15   23 17 15   51 51 51   51 51 51   51 51 51   51 51 51   51 51 51   51 51 51   51 51 51   51 51 51   51 51 51   51 51 51   51 51 51   51 51 51   51 51 51   51 51 51   51 51 51   51 51 51   51 51 51   74 161 115   98 213 153   112 243 175   51 51 51   51 51 51   51 51 51   51 51 51   51 51 51   51 51 51   
51 51 51   51 51 51   51 51 51   51 51 51   51 51 51   51 51 51   51 51 51   51 51 51   51 51 51   51 51 51   51 51 51   51 51 51   51 51 51   51 51 51   51 51 51   51 51 51   51 51 51   51 51 51   51 51 51   23 17 15   23 17 15   23 17 15   23 17 15   23 17 15   51 51 51   51 51 51   51 51 51   51 51 51   51 51 51   63 68 18   193 208 57   255 255 76   255 255 85   51 51 51   51 51 51   51 51 51   51 51 51   51 51 51   51 51 51   51 51 51   25 54 39   60 131 94   87 190 136   110 239 171   129 255 201   143 255 223   150 255 233   51 51 51   51 51 51   51 51 51   51 51 51   
51 51 51   51 51 51   51 51 51   51 51 51   51 51 51   51 51 51   51 51 51   51 51 51   51 51 51   51 51 51   51 51 51   51 51 51   51 51 51   51 51 51   51 51 51   51 51 51   51 51 51   51 51 51   51 51 51   51 51 51   23 17 15   23 17 15   23 17 15   51 51 51   51 51 51   51 51 51   51 51 51   51 51 51   19 21 5   144 156 42   229 247 68   255 255 88   255 255 103   255 255 103   51 51 51   51 51 51   51 51 51   51 51 51   51 51 51   9 19 14   31 67 48   61 134 96   87 189 136   110 238 171   129 255 201   145 255 226   158 255 246   163 255 254   51 51 51   51 51 51   51 51 51   
51 51 51   51 51 51   51 51 51   51 51 51   51 51 51   51 51 51   51 51 51   51 51 51   51 51 51   51 51 51   51 51 51   51 51 51   51 51 51   51 51 51   51 51 51   51 51 51   51 51 51   51 51 51   51 51 51   51 51 51   51 51 51   51 51 51   51 51 51   51 51 51   51 51 51   51 51 51   51 51 51   51 51 51   41 44 12   150 162 44   229 247 68   255 255 116   255 255 238   255 255 133   255 255 103   51 51 51   51 51 51   51 51 51   51 51 51   9 19 14   28 61 44   57 125 90   83 179 129   105 227 163   124 255 193   141 255 220   155 255 242   165 255 255   164 255 255   51 51 51   51 51 51   
51 51 51   51 51 51   51 51 51   51 51 51   51 51 51   51 51 51   51 51 51   51 51 51   51 51 51   51 51 51   51 51 51   51 51 51   51 51 51   51 51 51   51 51 51   51 51 51   51 51 51   51 51 51   51 51 51   51 51 51   51 51 51   51 51 51   51 51 51   51 51 51   51 51 51   51 51 51   51 51 51   51 51 51   32 34 9   135 145 40   212 228 63   255 255 108   255 255 255   255 255 186   255 255 103   51 51 51   51 51 51   51 51 51   9 19 14   9 19 14   21 46 33   50 109 78   75 163 117   97 211 151   117 253 182   137 255 213   216 255 255   160 255 250   166 255 255   51 51 51   51 51 51   
51 51 51   51 51 51   51 51 51   51 51 51   51 51 51   51 51 51   51 51 51   51 51 51   51 51 51   51 51 51   51 51 51   51 51 51   51 51 51   51 51 51   51 51 51   51 51 51   51 51 51   51 51 51   51 51 51   51 51 51   51 51 51   51 51 51   51 51 51   51 51 51   51 51 51   51 51 51   51 51 51   51 51 51   19 21 5   104 112 31   182 196 54   242 255 74   255 255 119   255 255 114   255 255 95   51 51 51   51 51 51   51 51 51   9 19 14   9 19 14   9 19 14   40 87 62   65 141 102   87 190 136   107 232 167   125 255 194   142 255 220   152 255 237   160 255 249   51 51 51   51 51 51   
51 51 51   51 51 51   51 51 51   51 51 51   51 51 51   51 51 51   51 51 51   51 51 51   51 51 51   51 51 51   51 51 51   51 51 51   51 51 51   51 51 51   51 51 51   51 51 51   51 51 51   51 51 51   51 51 51   51 51 51   51 51 51   51 51 51   51 51 51   51 51 51   51 51 51   51 51 51   51 51 51   51 51 51   19 21 5   58 62 17   138 149 41   199 215 59   245 255 73   255 255 81   255 255 80   51 51 51   51 51 51   51 51 51   9 19 14   9 19 14   9 19 14   27 60 43   53 115 83   76 164 118   96 207 149   113 246 177   129 255 200   141 255 220   150 255 233   143 255 222   51 51 51   
51 51 51   51 51 51   51 51 51   51 51 51   51 51 51   51 51 51   51 51 51   51 51 51   51 51 51   51 51 51   51 51 51   51 51 51   51 51 51   51 51 51   51 51 51   51 51 51   51 51 51   51 51 51   51 51 51   51 51 51   51 51 51   51 51 51   51 51 51   51 51 51   51 51 51   51 51 51   51 51 51   51 51 51   19 21 5   19 21 5   77 83 23   141 152 41   186 200 55   208 224 61   51 51 51   51 51 51   51 51 51   51 51 51   51 51 51   9 19 14   9 19 14   12 27 19   39 84 60   62 134 96   82 178 128   100 217 156   115 250 180   128 255 199   136 255 212   122 255 190   51 51 51   
51 51 51   51 51 51   51 51 51   51 51 51   51 51 51   51 51 51   51 51 51   51 51 51   51 51 51   51 51 51   51 51 51   51 51 51   51 51 51   51 51 51   51 51 51   51 51 51   51 51 51   51 51 51   51 51 51   51 51 51   51 51 51   51 51 51   51 51 51   51 51 51   51 51 51   51 51 51   51 51 51   51 51 51   51 51 51   51 51 51   19 21 5   52 56 15   92 100 27   51 51 51   51 51 51   51 51 51   51 51 51   51 51 51   51 51 51   9 19 14   9 19 14   9 19 14   21 47 34   45 98 71   66 143 103   84 183 131   100 216 155   112 243 174   118 255 184   51 51 51   51 51 51   
51 51 51   51 51 51   51 51 51   51 51 51   51 51 51   51 51 51   51 51 51   51 51 51   51 51 51   51 51 51   51 51 51   51 51 51   51 51 51   51 51 51   51 51 51   51 51 51   51 51 51   51 51 51   51 51 51   51 51 51   51 51 51   51 51 51   51 51 51   51 51 51   51 51 51   51 51 51   51 51 51   51 51 51   51 51 51   51 51 51   51 51 51   51 51 51   51 51 51   51 51 51   51 51 51   51 51 51   51 51 51   51 51 51   51 51 51   51 51 51   9 19 14   9 19 14   9 19 14   25 55 40   47 102 73   65 142 102   80 175 125   91 198 142   92 200 143   51 51 51   51 51 51   
51 51 51   51 51 51   51 51 51   51 51 51   51 51 51   51 51 51   51 51 51   51 51 51   51 51 51   51 51 51   51 51 51   51 51 51   51 51 51   51 51 51   51 51 51   51 51 51   51 51 51   51 51 51   51 51 51   51 51 51   51 51 51   51 51 51   51 51 51   51 51 51   51 51 51   51 51 51   51 51 51   51 51 51   51 51 51   51 51 51   51 51 51   51 51 51   51 51 51   51 51 51   51 51 51   51 51 51   51 51 51   51 51 51   51 51 51   51 51 51   51 51 51   9 19 14   9 19 14   9 19 14   22 49 35   41 89 64   55 119 86   60 130 93   51 51 51   51 51 51   51 51 51   
51 51 51   51 51 51   51 51 51   51 51 51   51 51 51   51 51 51   51 51 51   51 51 51   51 51 51   51 51 51   51 51 51   51 51 51   51 51 51   51 51 51   51 51 51   51 51 51   51 51 51   51 51 51   51 51 51   51 51 51   51 51 51   51 51 51   51 51 51   51 51 51   51 51 51   51 51 51   51 51 51   51 51 51   51 51 51   51 51 51   51 51 51   51 51 51   51 51 51   51 51 51   51 51 51   51 51 51   51 51 51   51 51 51   51 51 51   51 51 51   51 51 51   51 51 51   51 51 51   51 51 51   9 19 14   9 19 14   51 51 51   51 51 51   51 51 51   51 51 51   51 51 51   
51 51 51   51 51 51   51 51 51   51 51 51   51 51 51   51 51 51   51 51 51   51 51 51   51 51 51   51 51 51   51 51 51   51 51 51   51 51 51   51 51 51   51 51 51   51 51 51   51 51 51   51 51 51   51 51 51   51 51 51   51 51 51   51 51 51   51 51 51   51 51 51   51 51 51   51 51 51   51 51 51   51 51 51   51 51 51   51 51 51   51 51 51   51 51 51   51 51 51   51 51 51   51 51 51   51 51 51   51 51 51   51 51 51   51 51 51   51 51 51   51 51 51   51 51 51   51 51 51   51 51 51   51 51 51   51 51 51   51 51 51   51 51 51   51 51 51   51 51 51   51 51 51   
