P3
5 5
255
255 255 255   255 255 255   255 255 255   255 255 255   255 255 255
100 0 0   100 0 0   100 0 0   100 0 0   100 0 0
0 100 0   0 100 0   0 100 0   0 100 0   0 100 0
0 0 100   0 0 100   0 0 100   0 0 100   0 0 100
0 0 0   0 0 0   0 0 0   0 0 0   0 0 0
