P3
51 51
255
51 51 51   51 51 51   51 51 51   51 51 51   51 51 51   51 51 51   51 51 51   51 51 51   51 51 51   51 51 51   51 51 51   51 51 51   51 51 51   51 51 51   51 51 51   51 51 51   51 51 51   51 51 51   51 51 51   51 51 51   51 51 51   51 51 51   51 51 51   51 51 51   51 51 51   51 51 51   51 51 51   51 51 51   51 51 51   51 51 51   51 51 51   51 51 51   51 51 51   51 51 51   51 51 51   51 51 51   51 51 51   51 51 51   51 51 51   51 51 51   51 51 51   51 51 51   51 51 51   51 51 51   51 51 51   51 51 51   51 51 51   51 51 51   51 51 51   51 51 51   51 51 51   
51 51 51   51 51 51   51 51 51   51 51 51   51 51 51   51 51 51   51 51 51   51 51 51   51 51 51   51 51 51   51 51 51   51 51 51   51 51 51   51 51 51   51 51 51   51 51 51   51 51 51   51 51 51   51 51 51   51 51 51   51 51 51   51 51 51   51 51 51   51 51 51   51 51 51   51 51 51   51 51 51   51 51 51   51 51 51   51 51 51   51 51 51   51 51 51   51 51 51   51 51 51   51 51 51   51 51 51   51 51 51   51 51 51   51 51 51   51 51 51   51 51 51   51 51 51   51 51 51   51 51 51   51 51 51   51 51 51   51 51 51   51 51 51   51 51 51   51 51 51   51 51 51   
51 51 51   51 51 51   51 51 51   51 51 51   51 51 51   51 51 51   51 51 51   51 51 51   51 51 51   51 51 51   51 51 51   51 51 51   51 51 51   51 51 51   51 51 51   51 51 51   51 51 51   51 51 51   51 51 51   51 51 51   51 51 51   51 51 51   51 51 51   51 51 51   51 51 51   51 51 51   51 51 51   51 51 51   51 51 51   51 51 51   51 51 51   51 51 51   51 51 51   51 51 51   51 51 51   51 51 51   51 51 51   51 51 51   51 51 51   51 51 51   51 51 51   51 51 51   51 51 51   51 51 51   51 51 51   51 51 51   51 51 51   51 51 51   51 51 51   51 51 51   51 51 51   
51 51 51   51 51 51   51 51 51   51 51 51   51 51 51   51 51 51   51 51 51   51 51 51   51 51 51   51 51 51   51 51 51   51 51 51   51 51 51   51 51 51   51 51 51   51 51 51   51 51 51   51 51 51   51 51 51   51 51 51   51 51 51   51 51 51   51 51 51   51 51 51   51 51 51   51 51 51   51 51 51   51 51 51   51 51 51   51 51 51   51 51 51   51 51 51   51 51 51   25 25 38   25 25 38   25 25 38   25 25 38   27 27 41   38 38 58   50 50 75   51 51 51   51 51 51   51 51 51   51 51 51   51 51 51   51 51 51   51 51 51   51 51 51   51 51 51   51 51 51   51 51 51   
51 51 51   51 51 51   51 51 51   51 51 51   51 51 51   51 51 51   51 51 51   51 51 51   51 51 51   51 51 51   51 51 51   51 51 51   51 51 51   51 51 51   51 51 51   51 51 51   51 51 51   51 51 51   51 51 51   51 51 51   51 51 51   51 51 51   51 51 51   51 51 51   51 51 51   51 51 51   51 51 51   51 51 51   51 51 51   51 51 51   51 51 51   25 25 38   25 25 38   25 25 38   25 25 38   25 25 38   25 25 38   25 25 38   35 35 53   46 46 70   58 58 87   70 70 105   84 84 127   51 51 51   51 51 51   51 51 51   51 51 51   51 51 51   51 51 51   51 51 51   51 51 51   
51 51 51   51 51 51   51 51 51   51 51 51   51 51 51   51 51 51   51 51 51   51 51 51   51 51 51   51 51 51   51 51 51   51 51 51   51 51 51   51 51 51   51 51 51   51 51 51   51 51 51   51 51 51   51 51 51   51 51 51   51 51 51   51 0 0   51 0 0   51 0 0   51 0 0   51 0 0   62 0 0   74 0 0   86 0 0   99 0 0   25 25 38   25 25 38   25 25 38   25 25 38   25 25 38   25 25 38   25 25 38   25 25 38   34 34 51   44 44 67   55 55 83   67 67 101   79 79 119   93 93 139   51 51 51   51 51 51   51 51 51   51 51 51   51 51 51   51 51 51   51 51 51   
51 51 51   51 51 51   51 51 51   51 51 51   51 51 51   51 51 51   51 51 51   51 51 51   51 51 51   51 51 51   51 51 51   51 51 51   51 51 51   51 51 51   51 51 51   51 51 51   51 51 51   51 51 51   51 0 0   51 0 0   51 0 0   51 0 0   51 0 0   51 0 0   51 0 0   51 0 0   62 0 0   73 0 0   85 0 0   25 25 38   25 25 38   25 25 38   25 25 38   25 25 38   25 25 38   25 25 38   25 25 38   25 25 38   32 32 49   43 43 65   54 54 81   65 65 98   77 77 115   89 89 134   103 103 154   51 51 51   51 51 51   51 51 51   51 51 51   51 51 51   51 51 51   
51 51 51   51 51 51   51 51 51   51 51 51   51 51 51   51 51 51   51 51 51   51 51 51   51 51 51   51 51 51   51 51 51   51 51 51   51 51 51   51 51 51   51 51 51   51 51 51   51 0 0   51 0 0   51 0 0   51 0 0   51 0 0   51 0 0   51 0 0   51 0 0   51 0 0   51 0 0   62 0 0   73 0 0   25 25 38   25 25 38   25 25 38   25 25 38   25 25 38   25 25 38   25 25 38   25 25 38   25 25 38   25 25 38   32 32 48   42 42 63   53 53 79   64 64 96   75 75 113   87 87 131   100 100 150   114 114 172   51 51 51   51 51 51   51 51 51   51 51 51   51 51 51   
51 51 51   51 51 51   51 51 51   51 51 51   51 51 51   51 51 51   51 51 51   51 51 51   51 51 51   51 51 51   51 51 51   51 51 51   51 51 51   51 51 51   51 0 0   51 0 0   51 0 0   51 0 0   51 0 0   51 0 0   51 0 0   51 0 0   51 0 0   51 0 0   51 0 0   51 0 0   61 0 0   73 0 0   25 25 38   25 25 38   25 25 38   25 25 38   25 25 38   25 25 38   25 25 38   25 25 38   25 25 38   25 25 38   31 31 47   41 41 62   52 52 78   63 63 94   74 74 111   85 85 128   98 98 147   111 111 167   128 128 193   51 51 51   51 51 51   51 51 51   51 51 51   
51 51 51   51 51 51   51 51 51   51 51 51   51 51 51   51 51 51   51 51 51   51 51 51   51 51 51   51 51 51   51 51 51   51 51 51   51 51 51   51 0 0   51 0 0   51 0 0   51 0 0   51 0 0   51 0 0   51 0 0   51 0 0   51 0 0   51 0 0   51 0 0   51 0 0   51 0 0   61 0 0   72 0 0   25 25 38   25 25 38   25 25 38   25 25 38   25 25 38   25 25 38   25 25 38   25 25 38   25 25 38   25 25 38   30 30 46   41 41 61   51 51 77   62 62 93   73 73 110   84 84 127   96 96 145   109 109 164   124 124 186   51 51 51   51 51 51   51 51 51   51 51 51   
51 51 51   51 51 51   51 51 51   51 51 51   51 51 51   51 51 51   51 51 51   51 51 51   51 51 51   51 51 51   51 51 51   51 51 51   51 0 0   51 0 0   51 0 0   51 0 0   51 0 0   51 0 0   51 0 0   51 0 0   51 0 0   51 0 0   51 0 0   51 0 0   51 0 0   51 0 0   61 0 0   72 0 0   25 25 38   25 25 38   25 25 38   25 25 38   25 25 38   25 25 38   25 25 38   25 25 38   25 25 38   25 25 38   30 30 45   40 40 61   51 51 77   62 62 93   73 73 109   84 84 126   96 96 144   108 108 162   122 122 183   51 51 51   51 51 51   51 51 51   51 51 51   
51 51 51   51 51 51   51 51 51   51 51 51   51 51 51   51 51 51   51 51 51   51 51 51   51 51 51   51 51 51   51 51 51   51 0 0   51 0 0   51 0 0   51 0 0   51 0 0   51 0 0   51 0 0   51 0 0   51 0 0   51 0 0   51 0 0   51 0 0   51 0 0   51 0 0   51 0 0   61 0 0   72 0 0   25 25 38   25 25 38   25 25 38   25 25 38   25 25 38   25 25 38   25 25 38   25 25 38   25 25 38   25 25 38   30 30 45   40 40 61   51 51 76   61 61 92   72 72 108   83 83 125   95 95 143   107 107 161   121 121 181   137 137 206   51 51 51   51 51 51   51 51 51   
51 51 51   51 51 51   51 51 51   51 51 51   51 51 51   51 51 51   51 51 51   51 51 51   51 51 51   51 51 51   51 0 0   51 0 0   51 0 0   51 0 0   51 0 0   51 0 0   51 0 0   51 0 0   51 0 0   51 0 0   51 0 0   51 0 0   51 0 0   51 0 0   51 0 0   51 0 0   61 0 0   72 0 0   82 0 0   25 25 38   25 25 38   25 25 38   25 25 38   25 25 38   25 25 38   25 25 38   25 25 38   25 25 38   30 30 45   40 40 60   50 50 76   61 61 92   72 72 108   83 83 125   95 95 142   107 107 161   120 120 181   136 136 204   51 51 51   51 51 51   51 51 51   
51 51 51   51 51 51   51 51 51   51 51 51   51 51 51   51 51 51   51 51 51   51 51 51   51 51 51   51 0 0   51 0 0   51 0 0   51 0 0   51 0 0   51 0 0   51 0 0   51 0 0   51 0 0   51 0 0   51 0 0   51 0 0   51 0 0   51 0 0   51 0 0   51 0 0   51 0 0   61 0 0   72 0 0   82 0 0   25 25 38   25 25 38   25 25 38   25 25 38   25 25 38   25 25 38   25 25 38   25 25 38   25 25 38   30 30 45   40 40 60   50 50 76   61 61 92   72 72 108   83 83 125   95 95 142   107 107 161   120 120 180   135 135 203   51 51 51   51 51 51   51 51 51   
51 51 51   51 51 51   51 51 51   51 51 51   51 51 51   51 51 51   51 51 51   51 51 51   51 0 0   51 0 0   51 0 0   51 0 0   51 0 0   51 0 0   51 0 0   51 0 0   51 0 0   51 0 0   51 0 0   51 0 0   51 0 0   51 0 0   51 0 0   51 0 0   51 0 0   51 0 0   61 0 0   71 0 0   82 0 0   92 0 0   25 25 38   25 25 38   25 25 38   25 25 38   25 25 38   25 25 38   25 25 38   25 25 38   30 30 45   40 40 61   51 51 76   61 61 92   72 72 108   83 83 125   95 95 143   107 107 161   120 120 181   135 135 203   51 51 51   51 51 51   51 51 51   
51 51 51   51 51 51   51 51 51   51 51 51   51 51 51   51 51 51   51 51 51   51 51 51   51 0 0   51 0 0   51 0 0   51 0 0   51 0 0   51 0 0   51 0 0   51 0 0   51 0 0   51 0 0   51 0 0   51 0 0   51 0 0   51 0 0   51 0 0   51 0 0   51 0 0   51 0 0   61 0 0   71 0 0   82 0 0   92 0 0   25 25 38   25 25 38   25 25 38   25 25 38   25 25 38   25 25 38   25 25 38   25 25 38   30 30 45   40 40 61   51 51 77   62 62 93   72 72 109   84 84 126   95 95 143   108 108 162   121 121 181   136 136 205   51 51 51   51 51 51   51 51 51   
51 51 51   51 51 51   51 51 51   51 51 51   51 51 51   51 51 51   51 51 51   51 0 0   51 0 0   51 0 0   51 0 0   51 0 0   51 0 0   51 0 0   51 0 0   51 0 0   51 0 0   51 0 0   51 0 0   51 0 0   51 0 0   51 0 0   51 0 0   51 0 0   51 0 0   51 0 0   61 0 0   71 0 0   82 0 0   92 0 0   103 0 0   25 25 38   25 25 38   25 25 38   25 25 38   25 25 38   25 25 38   25 25 38   30 30 46   41 41 61   51 51 77   62 62 93   73 73 110   84 84 127   96 96 144   108 108 163   122 122 183   138 138 207   51 51 51   51 51 51   51 51 51   
51 51 51   51 51 51   51 51 51   51 51 51   51 51 51   51 51 51   51 51 51   51 0 0   51 0 0   51 0 0   51 0 0   51 0 0   51 0 0   51 0 0   51 0 0   51 0 0   51 0 0   51 0 0   51 0 0   51 0 0   51 0 0   51 0 0   51 0 0   51 0 0   51 0 0   51 0 0   61 0 0   71 0 0   81 0 0   92 0 0   102 0 0   113 0 0   25 25 38   25 25 38   25 25 38   25 25 38   25 25 38   25 25 38   31 31 47   41 41 62   52 52 78   63 63 94   74 74 111   85 85 128   97 97 145   109 109 164   123 123 185   142 142 214   51 51 51   51 51 51   51 51 51   
51 51 51   51 51 51   51 51 51   51 51 51   51 51 51   51 51 51   51 0 0   51 0 0   51 0 0   51 0 0   51 0 0   51 0 0   51 0 0   51 0 0   51 0 0   51 0 0   51 0 0   51 0 0   51 0 0   51 0 0   51 0 0   51 0 0   51 0 0   51 0 0   51 0 0   51 0 0   61 0 0   71 0 0   81 0 0   92 0 0   102 0 0   113 0 0   123 0 0   25 25 38   25 25 38   25 25 38   25 25 38   25 25 38   31 31 47   42 42 63   52 52 79   63 63 95   74 74 112   86 86 129   98 98 147   111 111 166   125 125 188   51 51 51   51 51 51   51 51 51   51 51 51   
51 51 51   51 51 51   51 51 51   51 51 51   51 51 51   51 51 51   51 0 0   51 0 0   51 0 0   51 0 0   51 0 0   51 0 0   51 0 0   51 0 0   51 0 0   51 0 0   51 0 0   51 0 0   51 0 0   51 0 0   51 0 0   51 0 0   51 0 0   51 0 0   51 0 0   51 0 0   61 0 0   71 0 0   81 0 0   92 0 0   102 0 0   112 0 0   123 0 0   134 0 0   25 25 38   25 25 38   25 25 38   25 25 38   32 32 48   43 43 64   51 0 0   51 0 0   51 0 0   51 0 0   53 0 0   91 0 0   132 0 0   51 51 51   51 51 51   51 51 51   51 51 51   
51 51 51   51 51 51   51 51 51   51 51 51   51 51 51   51 51 51   51 0 0   51 0 0   51 0 0   51 0 0   51 0 0   51 0 0   51 0 0   51 0 0   51 0 0   51 0 0   51 0 0   51 0 0   51 0 0   51 0 0   51 0 0   51 0 0   51 0 0   51 0 0   51 0 0   51 0 0   61 0 0   71 0 0   81 0 0   92 0 0   102 0 0   112 0 0   123 0 0   133 0 0   144 0 0   25 25 38   25 25 38   25 25 38   33 33 50   51 0 0   51 0 0   51 0 0   51 0 0   51 0 0   51 0 0   80 0 0   118 0 0   159 0 0   211 0 0   51 51 51   51 51 51   
51 51 51   51 51 51   51 51 51   51 51 51   51 51 51   51 0 0   51 0 0   51 0 0   51 0 0   51 0 0   51 0 0   51 0 0   51 0 0   51 0 0   51 0 0   51 0 0   51 0 0   51 0 0   51 0 0   51 0 0   51 0 0   51 0 0   51 0 0   51 0 0   51 0 0   51 0 0   61 0 0   71 0 0   81 0 0   91 0 0   102 0 0   112 0 0   123 0 0   133 0 0   144 0 0   155 0 0   166 0 0   25 25 38   51 0 0   51 0 0   51 0 0   51 0 0   51 0 0   51 0 0   51 0 0   74 0 0   111 0 0   150 0 0   193 0 0   51 51 51   51 51 51   
51 51 51   51 51 51   51 51 51   51 51 51   51 51 51   51 0 0   51 0 0   51 0 0   51 0 0   51 0 0   51 0 0   51 0 0   51 0 0   51 0 0   51 0 0   51 0 0   51 0 0   51 0 0   51 0 0   51 0 0   51 0 0   51 0 0   51 0 0   51 0 0   51 0 0   51 0 0   61 0 0   71 0 0   81 0 0   91 0 0   102 0 0   112 0 0   123 0 0   133 0 0   144 0 0   155 0 0   166 0 0   177 0 0   51 0 0   51 0 0   51 0 0   51 0 0   51 0 0   51 0 0   51 0 0   70 0 0   107 0 0   145 0 0   185 0 0   231 0 0   51 51 51   
51 51 51   51 51 51   51 51 51   51 51 51   51 51 51   51 0 0   51 0 0   51 0 0   51 0 0   51 0 0   51 0 0   51 0 0   51 0 0   51 0 0   51 0 0   51 0 0   51 0 0   51 0 0   51 0 0   51 0 0   51 0 0   51 0 0   51 0 0   51 0 0   51 0 0   51 0 0   61 0 0   71 0 0   81 0 0   91 0 0   102 0 0   112 0 0   122 0 0   133 0 0   144 0 0   155 0 0   166 0 0   51 0 0   51 0 0   51 0 0   51 0 0   51 0 0   51 0 0   51 0 0   51 0 0   68 0 0   104 0 0   141 0 0   181 0 0   224 0 0   51 51 51   
51 51 51   51 51 51   51 51 51   51 51 51   51 51 51   51 0 0   51 0 0   51 0 0   51 0 0   51 0 0   51 0 0   51 0 0   51 0 0   51 0 0   51 0 0   51 0 0   51 0 0   51 0 0   51 0 0   51 0 0   51 0 0   51 0 0   51 0 0   51 0 0   51 0 0   51 0 0   61 0 0   71 0 0   81 0 0   91 0 0   102 0 0   112 0 0   122 0 0   133 0 0   144 0 0   154 0 0   165 0 0   51 0 0   51 0 0   51 0 0   51 0 0   51 0 0   51 0 0   51 0 0   51 0 0   66 0 0   102 0 0   139 0 0   178 0 0   221 0 0   255 0 0   
51 51 51   51 51 51   51 51 51   51 51 51   51 51 51   51 0 0   51 0 0   51 0 0   51 0 0   51 0 0   51 0 0   51 0 0   51 0 0   51 0 0   51 0 0   51 0 0   51 0 0   51 0 0   51 0 0   51 0 0   51 0 0   51 0 0   51 0 0   51 0 0   51 0 0   51 0 0   61 0 0   71 0 0   81 0 0   91 0 0   102 0 0   112 0 0   122 0 0   133 0 0   144 0 0   154 0 0   165 0 0   51 0 0   51 0 0   51 0 0   51 0 0   51 0 0   51 0 0   51 0 0   51 0 0   66 0 0   101 0 0   139 0 0   178 0 0   220 0 0   255 0 0   
51 51 51   51 51 51   51 51 51   51 51 51   51 51 51   51 0 0   51 0 0   51 0 0   51 0 0   51 0 0   51 0 0   51 0 0   51 0 0   51 0 0   51 0 0   51 0 0   51 0 0   51 0 0   51 0 0   51 0 0   51 0 0   51 0 0   51 0 0   51 0 0   51 0 0   51 0 0   61 0 0   71 0 0   81 0 0   91 0 0   102 0 0   112 0 0   122 0 0   133 0 0   144 0 0   154 0 0   165 0 0   51 0 0   51 0 0   51 0 0   51 0 0   51 0 0   51 0 0   51 0 0   51 0 0   66 0 0   102 0 0   139 0 0   178 0 0   221 0 0   255 0 0   
51 51 51   51 51 51   51 51 51   51 51 51   51 51 51   51 0 0   51 0 0   51 0 0   51 0 0   51 0 0   51 0 0   51 0 0   51 0 0   51 0 0   51 0 0   51 0 0   51 0 0   51 0 0   51 0 0   51 0 0   51 0 0   51 0 0   51 0 0   51 0 0   51 0 0   51 0 0   61 0 0   71 0 0   81 0 0   91 0 0   102 0 0   112 0 0   122 0 0   133 0 0   144 0 0   155 0 0   166 0 0   51 0 0   51 0 0   51 0 0   51 0 0   51 0 0   51 0 0   51 0 0   51 0 0   68 0 0   104 0 0   141 0 0   181 0 0   224 0 0   51 51 51   
51 51 51   51 51 51   51 51 51   51 51 51   51 51 51   51 0 0   51 0 0   51 0 0   51 0 0   51 0 0   51 0 0   51 0 0   51 0 0   51 0 0   51 0 0   51 0 0   51 0 0   51 0 0   51 0 0   51 0 0   51 0 0   51 0 0   51 0 0   51 0 0   51 0 0   51 0 0   61 0 0   71 0 0   81 0 0   91 0 0   102 0 0   112 0 0   123 0 0   133 0 0   144 0 0   155 0 0   166 0 0   177 0 0   51 0 0   51 0 0   51 0 0   51 0 0   51 0 0   51 0 0   51 0 0   70 0 0   107 0 0   145 0 0   185 0 0   231 0 0   51 51 51   
51 51 51   51 51 51   51 51 51   51 51 51   51 51 51   51 0 0   51 0 0   51 0 0   51 0 0   51 0 0   51 0 0   51 0 0   51 0 0   51 0 0   51 0 0   51 0 0   51 0 0   51 0 0   51 0 0   51 0 0   51 0 0   51 0 0   51 0 0   51 0 0   51 0 0   51 0 0   61 0 0   71 0 0   81 0 0   91 0 0   102 0 0   112 0 0   123 0 0   133 0 0   144 0 0   155 0 0   166 0 0   177 0 0   51 0 0   51 0 0   51 0 0   51 0 0   51 0 0   51 0 0   51 0 0   74 0 0   111 0 0   150 0 0   193 0 0   51 51 51   51 51 51   
51 51 51   51 51 51   51 51 51   51 51 51   51 51 51   51 51 51   51 0 0   51 0 0   51 0 0   51 0 0   51 0 0   51 0 0   51 0 0   51 0 0   51 0 0   51 0 0   51 0 0   51 0 0   51 0 0   51 0 0   51 0 0   51 0 0   51 0 0   51 0 0   51 0 0   51 0 0   61 0 0   71 0 0   81 0 0   92 0 0   102 0 0   112 0 0   123 0 0   133 0 0   144 0 0   155 0 0   166 0 0   177 0 0   189 0 0   51 0 0   51 0 0   51 0 0   51 0 0   51 0 0   51 0 0   80 0 0   118 0 0   159 0 0   211 0 0   51 51 51   51 51 51   
51 51 51   51 51 51   51 51 51   51 51 51   51 51 51   51 51 51   51 0 0   51 0 0   51 0 0   51 0 0   51 0 0   51 0 0   51 0 0   51 0 0   51 0 0   51 0 0   51 0 0   51 0 0   51 0 0   51 0 0   51 0 0   51 0 0   51 0 0   51 0 0   51 0 0   51 0 0   61 0 0   71 0 0   81 0 0   92 0 0   102 0 0   112 0 0   123 0 0   134 0 0   144 0 0   155 0 0   166 0 0   178 0 0   189 0 0   201 0 0   51 0 0   51 0 0   51 0 0   51 0 0   53 0 0   91 0 0   132 0 0   51 51 51   51 51 51   51 51 51   51 51 51   
51 51 51   51 51 51   51 51 51   51 51 51   51 51 51   51 51 51   51 0 0   51 0 0   51 0 0   51 0 0   51 0 0   51 0 0   51 0 0   51 0 0   51 0 0   51 0 0   51 0 0   51 0 0   51 0 0   51 0 0   51 0 0   51 0 0   51 0 0   51 0 0   51 0 0   51 0 0   61 0 0   71 0 0   81 0 0   92 0 0   102 0 0   113 0 0   123 0 0   134 0 0   145 0 0   156 0 0   167 0 0   178 0 0   190 0 0   202 0 0   214 0 0   227 0 0   241 0 0   255 0 0   255 0 0   51 51 51   51 51 51   51 51 51   51 51 51   51 51 51   51 51 51   
51 51 51   51 51 51   51 51 51   51 51 51   51 51 51   51 51 51   51 51 51   51 0 0   51 0 0   51 0 0   51 0 0   51 0 0   51 0 0   51 0 0   51 0 0   51 0 0   51 0 0   51 0 0   51 0 0   51 0 0   51 0 0   51 0 0   51 0 0   51 0 0   51 0 0   51 0 0   61 0 0   71 0 0   81 0 0   92 0 0   102 0 0   113 0 0   123 0 0   134 0 0   145 0 0   156 0 0   167 0 0   179 0 0   191 0 0   203 0 0   215 0 0   229 0 0   243 0 0   255 0 0   51 51 51   51 51 51   51 51 51   51 51 51   51 51 51   51 51 51   51 51 51   
51 51 51   51 51 51   51 51 51   51 51 51   51 51 51   51 51 51   51 51 51   51 0 0   51 0 0   51 0 0   51 0 0   51 0 0   51 0 0   51 0 0   51 0 0   51 0 0   51 0 0   51 0 0   51 0 0   51 0 0   51 0 0   51 0 0   51 0 0   51 0 0   51 0 0   51 0 0   61 0 0   71 0 0   82 0 0   92 0 0   103 0 0   113 0 0   124 0 0   135 0 0   145 0 0   157 0 0   168 0 0   179 0 0   191 0 0   204 0 0   216 0 0   230 0 0   245 0 0   255 0 0   51 51 51   51 51 51   51 51 51   51 51 51   51 51 51   51 51 51   51 51 51   
51 51 51   51 51 51   51 51 51   51 51 51   51 51 51   51 51 51   51 51 51   51 51 51   51 0 0   51 0 0   51 0 0   51 0 0   51 0 0   51 0 0   51 0 0   51 0 0   51 0 0   51 0 0   51 0 0   51 0 0   51 0 0   51 0 0   51 0 0   51 0 0   51 0 0   51 0 0   61 0 0   71 0 0   82 0 0   92 0 0   103 0 0   113 0 0   124 0 0   135 0 0   146 0 0   157 0 0   169 0 0   180 0 0   192 0 0   205 0 0   218 0 0   232 0 0   247 0 0   51 51 51   51 51 51   51 51 51   51 51 51   51 51 51   51 51 51   51 51 51   51 51 51   
51 51 51   51 51 51   51 51 51   51 51 51   51 51 51   51 51 51   51 51 51   51 51 51   51 0 0   51 0 0   51 0 0   51 0 0   51 0 0   51 0 0   51 0 0   51 0 0   51 0 0   51 0 0   51 0 0   51 0 0   51 0 0   51 0 0   51 0 0   51 0 0   51 0 0   51 0 0   61 0 0   71 0 0   82 0 0   92 0 0   103 0 0   114 0 0   125 0 0   135 0 0   147 0 0   158 0 0   169 0 0   181 0 0   193 0 0   206 0 0   220 0 0   234 0 0   252 0 0   51 51 51   51 51 51   51 51 51   51 51 51   51 51 51   51 51 51   51 51 51   51 51 51   
51 51 51   51 51 51   51 51 51   51 51 51   51 51 51   51 51 51   51 51 51   51 51 51   51 51 51   51 0 0   51 0 0   51 0 0   51 0 0   51 0 0   51 0 0   51 0 0   51 0 0   51 0 0   51 0 0   51 0 0   51 0 0   51 0 0   51 0 0   51 0 0   51 0 0   51 0 0   61 0 0   72 0 0   82 0 0   93 0 0   103 0 0   114 0 0   125 0 0   136 0 0   147 0 0   159 0 0   170 0 0   182 0 0   195 0 0   208 0 0   222 0 0   238 0 0   51 51 51   51 51 51   51 51 51   51 51 51   51 51 51   51 51 51   51 51 51   51 51 51   51 51 51   
51 51 51   51 51 51   51 51 51   51 51 51   51 51 51   51 51 51   51 51 51   51 51 51   51 51 51   51 51 51   51 0 0   51 0 0   51 0 0   51 0 0   51 0 0   51 0 0   51 0 0   51 0 0   51 0 0   51 0 0   51 0 0   51 0 0   51 0 0   51 0 0   51 0 0   51 0 0   61 0 0   72 0 0   82 0 0   93 0 0   104 0 0   115 0 0   126 0 0   137 0 0   148 0 0   160 0 0   171 0 0   184 0 0   196 0 0   210 0 0   225 0 0   51 51 51   51 51 51   51 51 51   51 51 51   51 51 51   51 51 51   51 51 51   51 51 51   51 51 51   51 51 51   
51 51 51   51 51 51   51 51 51   51 51 51   51 51 51   51 51 51   51 51 51   51 51 51   51 51 51   51 51 51   51 51 51   51 0 0   51 0 0   51 0 0   51 0 0   51 0 0   51 0 0   51 0 0   51 0 0   51 0 0   51 0 0   51 0 0   51 0 0   51 0 0   51 0 0   51 0 0   61 0 0   72 0 0   83 0 0   93 0 0   104 0 0   115 0 0   126 0 0   137 0 0   149 0 0   161 0 0   173 0 0   185 0 0   199 0 0   213 0 0   51 51 51   51 51 51   51 51 51   51 51 51   51 51 51   51 51 51   51 51 51   51 51 51   51 51 51   51 51 51   51 51 51   
51 51 51   51 51 51   51 51 51   51 51 51   51 51 51   51 51 51   51 51 51   51 51 51   51 51 51   51 51 51   51 51 51   51 51 51   51 0 0   51 0 0   51 0 0   51 0 0   51 0 0   51 0 0   51 0 0   51 0 0   51 0 0   51 0 0   51 0 0   51 0 0   51 0 0   51 0 0   61 0 0   72 0 0   83 0 0   94 0 0   105 0 0   116 0 0   127 0 0   138 0 0   150 0 0   162 0 0   174 0 0   188 0 0   202 0 0   51 51 51   51 51 51   51 51 51   51 51 51   51 51 51   51 51 51   51 51 51   51 51 51   51 51 51   51 51 51   51 51 51   51 51 51   
51 51 51   51 51 51   51 51 51   51 51 51   51 51 51   51 51 51   51 51 51   51 51 51   51 51 51   51 51 51   51 51 51   51 51 51   51 51 51   51 0 0   51 0 0   51 0 0   51 0 0   51 0 0   51 0 0   51 0 0   51 0 0   51 0 0   51 0 0   51 0 0   51 0 0   51 0 0   61 0 0   72 0 0   83 0 0   94 0 0   105 0 0   116 0 0   128 0 0   140 0 0   151 0 0   164 0 0   177 0 0   191 0 0   51 51 51   51 51 51   51 51 51   51 51 51   51 51 51   51 51 51   51 51 51   51 51 51   51 51 51   51 51 51   51 51 51   51 51 51   51 51 51   
51 51 51   51 51 51   51 51 51   51 51 51   51 51 51   51 51 51   51 51 51   51 51 51   51 51 51   51 51 51   51 51 51   51 51 51   51 51 51   51 51 51   51 0 0   51 0 0   51 0 0   51 0 0   51 0 0   51 0 0   51 0 0   51 0 0   51 0 0   51 0 0   51 0 0   51 0 0   61 0 0   73 0 0   84 0 0   95 0 0   106 0 0   117 0 0   129 0 0   141 0 0   153 0 0   166 0 0   181 0 0   51 51 51   51 51 51   51 51 51   51 51 51   51 51 51   51 51 51   51 51 51   51 51 51   51 51 51   51 51 51   51 51 51   51 51 51   51 51 51   51 51 51   
51 51 51   51 51 51   51 51 51   51 51 51   51 51 51   51 51 51   51 51 51   51 51 51   51 51 51   51 51 51   51 51 51   51 51 51   51 51 51   51 51 51   51 51 51   51 51 51   51 0 0   51 0 0   51 0 0   51 0 0   51 0 0   51 0 0   51 0 0   51 0 0   51 0 0   51 0 0   62 0 0   73 0 0   84 0 0   95 0 0   107 0 0   119 0 0   131 0 0   143 0 0   156 0 0   51 51 51   51 51 51   51 51 51   51 51 51   51 51 51   51 51 51   51 51 51   51 51 51   51 51 51   51 51 51   51 51 51   51 51 51   51 51 51   51 51 51   51 51 51   51 51 51   
51 51 51   51 51 51   51 51 51   51 51 51   51 51 51   51 51 51   51 51 51   51 51 51   51 51 51   51 51 51   51 51 51   51 51 51   51 51 51   51 51 51   51 51 51   51 51 51   51 51 51   51 51 51   51 0 0   51 0 0   51 0 0   51 0 0   51 0 0   51 0 0   51 0 0   51 0 0   62 0 0   73 0 0   85 0 0   96 0 0   108 0 0   121 0 0   134 0 0   51 51 51   51 51 51   51 51 51   51 51 51   51 51 51   51 51 51   51 51 51   51 51 51   51 51 51   51 51 51   51 51 51   51 51 51   51 51 51   51 51 51   51 51 51   51 51 51   51 51 51   51 51 51   
51 51 51   51 51 51   51 51 51   51 51 51   51 51 51   51 51 51   51 51 51   51 51 51   51 51 51   51 51 51   51 51 51   51 51 51   51 51 51   51 51 51   51 51 51   51 51 51   51 51 51   51 51 51   51 51 51   51 51 51   51 51 51   51 0 0   51 0 0   51 0 0   51 0 0   51 0 0   62 0 0   74 0 0   86 0 0   99 0 0   51 51 51   51 51 51   51 51 51   51 51 51   51 51 51   51 51 51   51 51 51   51 51 51   51 51 51   51 51 51   51 51 51   51 51 51   51 51 51   51 51 51   51 51 51   51 51 51   51 51 51   51 51 51   51 51 51   51 51 51   51 51 51   
51 51 51   51 51 51   51 51 51   51 51 51   51 51 51   51 51 51   51 51 51   51 51 51   51 51 51   51 51 51   51 51 51   51 51 51   51 51 51   51 51 51   51 51 51   51 51 51   51 51 51   51 51 51   51 51 51   51 51 51   51 51 51   51 51 51   51 51 51   51 51 51   51 51 51   51 51 51   51 51 51   51 51 51   51 51 51   51 51 51   51 51 51   51 51 51   51 51 51   51 51 51   51 51 51   51 51 51   51 51 51   51 51 51   51 51 51   51 51 51   51 51 51   51 51 51   51 51 51   51 51 51   51 51 51   51 51 51   51 51 51   51 51 51   51 51 51   51 51 51   51 51 51   
51 51 51   51 51 51   51 51 51   51 51 51   51 51 51   51 51 51   51 51 51   51 51 51   51 51 51   51 51 51   51 51 51   51 51 51   51 51 51   51 51 51   51 51 51   51 51 51   51 51 51   51 51 51   51 51 51   51 51 51   51 51 51   51 51 51   51 51 51   51 51 51   51 51 51   51 51 51   51 51 51   51 51 51   51 51 51   51 51 51   51 51 51   51 51 51   51 51 51   51 51 51   51 51 51   51 51 51   51 51 51   51 51 51   51 51 51   51 51 51   51 51 51   51 51 51   51 51 51   51 51 51   51 51 51   51 51 51   51 51 51   51 51 51   51 51 51   51 51 51   51 51 51   
51 51 51   51 51 51   51 51 51   51 51 51   51 51 51   51 51 51   51 51 51   51 51 51   51 51 51   51 51 51   51 51 51   51 51 51   51 51 51   51 51 51   51 51 51   51 51 51   51 51 51   51 51 51   51 51 51   51 51 51   51 51 51   51 51 51   51 51 51   51 51 51   51 51 51   51 51 51   51 51 51   51 51 51   51 51 51   51 51 51   51 51 51   51 51 51   51 51 51   51 51 51   51 51 51   51 51 51   51 51 51   51 51 51   51 51 51   51 51 51   51 51 51   51 51 51   51 51 51   51 51 51   51 51 51   51 51 51   51 51 51   51 51 51   51 51 51   51 51 51   51 51 51   
51 51 51   51 51 51   51 51 51   51 51 51   51 51 51   51 51 51   51 51 51   51 51 51   51 51 51   51 51 51   51 51 51   51 51 51   51 51 51   51 51 51   51 51 51   51 51 51   51 51 51   51 51 51   51 51 51   51 51 51   51 51 51   51 51 51   51 51 51   51 51 51   51 51 51   51 51 51   51 51 51   51 51 51   51 51 51   51 51 51   51 51 51   51 51 51   51 51 51   51 51 51   51 51 51   51 51 51   51 51 51   51 51 51   51 51 51   51 51 51   51 51 51   51 51 51   51 51 51   51 51 51   51 51 51   51 51 51   51 51 51   51 51 51   51 51 51   51 51 51   51 51 51   
51 51 51   51 51 51   51 51 51   51 51 51   51 51 51   51 51 51   51 51 51   51 51 51   51 51 51   51 51 51   51 51 51   51 51 51   51 51 51   51 51 51   51 51 51   51 51 51   51 51 51   51 51 51   51 51 51   51 51 51   51 51 51   51 51 51   51 51 51   51 51 51   51 51 51   51 51 51   51 51 51   51 51 51   51 51 51   51 51 51   51 51 51   51 51 51   51 51 51   51 51 51   51 51 51   51 51 51   51 51 51   51 51 51   51 51 51   51 51 51   51 51 51   51 51 51   51 51 51   51 51 51   51 51 51   51 51 51   51 51 51   51 51 51   51 51 51   51 51 51   51 51 51   
