P3
51 51
255
51 51 51   51 51 51   51 51 51   51 51 51   51 51 51   51 51 51   51 51 51   51 51 51   51 51 51   51 51 51   51 51 51   51 51 51   51 51 51   51 51 51   51 51 51   51 51 51   51 51 51   51 51 51   51 51 51   51 51 51   51 51 51   51 51 51   51 51 51   51 51 51   51 51 51   51 51 51   51 51 51   51 51 51   51 51 51   51 51 51   51 51 51   51 51 51   51 51 51   51 51 51   51 51 51   51 51 51   51 51 51   51 51 51   51 51 51   51 51 51   51 51 51   51 51 51   51 51 51   51 51 51   51 51 51   51 51 51   51 51 51   51 51 51   51 51 51   51 51 51   51 51 51   
51 51 51   51 51 51   51 51 51   51 51 51   51 51 51   51 51 51   51 51 51   51 51 51   51 51 51   51 51 51   51 51 51   51 51 51   51 51 51   51 51 51   51 51 51   51 51 51   51 51 51   51 51 51   51 51 51   51 51 51   51 51 51   51 51 51   51 51 51   51 51 51   51 51 51   51 51 51   51 51 51   51 51 51   51 51 51   51 51 51   51 51 51   51 51 51   51 51 51   51 51 51   51 51 51   51 51 51   51 51 51   51 51 51   51 51 51   51 51 51   51 51 51   51 51 51   51 51 51   51 51 51   51 51 51   51 51 51   51 51 51   51 51 51   51 51 51   51 51 51   51 51 51   
51 51 51   51 51 51   51 51 51   51 51 51   51 51 51   89 255 25   103 255 37   113 255 48   119 255 45   118 255 34   51 51 51   51 51 51   51 51 51   51 51 51   51 51 51   51 51 51   51 51 51   51 51 51   51 51 51   51 51 51   51 51 51   51 51 51   51 51 51   51 51 51   51 51 51   51 51 51   51 51 51   51 51 51   51 51 51   51 51 51   51 51 51   51 51 51   51 51 51   51 51 51   51 51 51   51 51 51   51 51 51   51 51 51   51 51 51   51 51 51   51 51 51   61 255 255   71 255 255   79 255 255   88 255 255   51 51 51   51 51 51   51 51 51   51 51 51   51 51 51   51 51 51   
51 51 51   51 51 51   51 51 51   51 166 14   75 244 22   92 255 48   107 255 81   119 255 108   127 255 118   130 255 105   127 255 64   51 51 51   51 51 51   51 51 51   51 51 51   51 51 51   51 51 51   51 51 51   51 51 51   51 51 51   51 51 51   51 51 51   51 51 51   51 51 51   255 248 103   255 255 123   255 255 137   51 51 51   51 51 51   51 51 51   51 51 51   51 51 51   51 51 51   51 51 51   51 51 51   51 51 51   51 51 51   51 51 51   51 51 51   34 147 156   45 194 206   55 235 250   64 255 255   72 255 255   81 255 255   89 255 255   97 255 255   51 51 51   51 51 51   51 51 51   51 51 51   
51 51 51   51 51 51   51 51 51   53 173 15   71 229 28   87 255 62   102 255 102   115 255 137   125 255 159   131 255 159   131 255 131   125 255 73   51 51 51   51 51 51   51 51 51   51 51 51   51 51 51   51 51 51   51 51 51   51 51 51   51 51 51   51 51 51   140 109 45   237 185 77   255 236 98   255 255 116   255 255 133   255 255 143   255 255 148   51 51 51   51 51 51   51 51 51   51 51 51   51 51 51   51 51 51   51 51 51   51 51 51   51 51 51   16 71 75   28 121 129   38 165 175   48 204 217   56 242 255   65 255 255   81 255 255   95 255 255   89 255 255   97 255 255   51 51 51   51 51 51   51 51 51   
246 44 60   255 61 83   255 71 95   255 77 103   255 77 104   78 243 57   93 255 97   106 255 136   117 255 164   124 255 174   127 255 160   124 255 116   113 255 48   51 51 51   51 51 51   51 51 51   51 51 51   51 51 51   51 51 51   178 189 32   203 215 36   220 234 39   229 242 41   203 158 66   255 206 86   255 251 105   255 255 185   255 255 197   255 255 142   51 51 51   51 51 51   51 51 51   51 51 51   51 51 51   51 51 51   51 51 51   51 51 51   5 23 24   10 43 46   21 90 96   31 132 140   40 172 182   49 209 222   57 245 255   77 255 255   214 255 255   95 255 255   89 255 255   51 51 51   51 51 51   51 51 51   
245 44 60   255 57 76   255 66 89   255 83 109   255 76 103   255 75 102   80 243 75   93 255 112   104 255 142   112 255 158   117 255 154   116 255 125   109 255 70   51 51 51   51 51 51   51 51 51   51 51 51   125 133 22   158 168 28   183 194 32   204 216 36   221 234 39   236 250 42   246 255 44   217 170 70   255 211 88   255 255 128   255 255 205   255 255 132   255 255 132   51 51 51   51 51 51   51 51 51   51 51 51   51 51 51   51 51 51   51 51 51   5 23 24   5 23 24   13 57 60   23 98 104   32 138 146   41 175 186   49 211 224   58 247 255   77 255 255   81 255 255   81 255 255   88 255 255   51 51 51   51 51 51   
196 35 47   255 47 64   255 56 76   255 83 106   255 100 125   255 69 93   255 64 86   76 232 75   87 255 103   96 255 121   101 255 124   102 255 106   98 255 66   86 255 25   51 51 51   51 51 51   89 94 16   125 132 22   152 161 27   174 185 31   194 206 34   212 224 38   230 241 41   240 253 43   244 255 161   255 255 187   255 255 208   255 255 224   255 255 111   255 255 117   51 51 51   51 51 51   51 51 51   51 51 51   51 51 51   51 51 51   5 23 24   5 23 24   5 23 24   5 23 24   14 63 67   24 103 109   33 140 149   41 176 187   49 211 224   57 245 255   65 255 255   72 255 255   79 255 255   51 51 51   51 51 51   
126 22 30   193 35 47   245 44 59   255 51 69   255 56 76   255 58 79   255 56 75   58 184 37   69 212 58   77 235 74   83 252 80   85 255 71   83 255 46   73 239 21   51 51 51   37 39 6   84 89 15   114 121 20   139 148 25   161 171 29   181 191 32   209 212 38   255 246 60   255 255 59   224 250 148   255 255 173   255 255 195   255 255 213   255 255 225   255 234 97   51 51 51   51 51 51   51 51 51   51 51 51   51 51 51   51 51 51   5 23 24   5 23 24   5 23 24   5 23 24   5 23 24   15 66 70   24 104 110   33 140 149   41 175 186   49 209 222   56 242 255   64 255 255   71 255 255   51 51 51   51 51 51   
36 6 8   109 19 26   163 29 40   204 37 49   232 42 56   245 44 60   233 42 57   40 132 12   49 159 21   57 182 32   63 199 37   66 209 34   64 208 23   56 183 16   23 255 255   32 34 5   71 75 12   100 106 17   124 131 22   145 154 26   165 174 29   189 194 34   255 232 60   255 255 87   196 218 129   233 255 154   255 255 176   255 255 255   255 255 209   255 255 216   121 239 234   131 255 255   51 51 51   10 47 64   16 71 97   20 90 123   5 23 24   5 23 24   5 23 24   5 23 24   5 23 24   5 23 24   15 66 70   24 103 109   32 138 146   40 172 182   48 204 217   55 235 250   61 255 255   51 51 51   51 51 51   
23 4 5   23 4 5   65 11 15   108 19 26   136 24 33   148 27 36   128 23 31   23 74 6   31 102 9   77 255 255   88 255 255   64 82 101   103 131 162   123 157 194   138 177 217   149 190 234   154 197 243   82 87 14   106 112 19   127 135 22   147 155 26   164 174 29   191 192 34   120 133 79   162 180 107   199 222 131   232 255 153   66 131 129   90 178 174   107 212 208   122 242 237   135 255 255   146 255 255   153 255 255   194 185 136   217 206 152   234 223 164   5 23 24   5 23 24   5 23 24   5 23 24   5 23 24   5 23 24   14 63 67   23 98 104   31 132 140   38 165 175   45 194 206   51 51 51   51 51 51   51 51 51   
51 51 51   23 4 5   23 4 5   23 4 5   23 4 5   23 4 5   6 21 1   53 183 190   71 245 254   83 255 255   31 40 50   77 98 121   100 128 158   118 151 186   132 169 208   144 184 226   152 194 239   155 199 244   139 178 219   107 114 19   127 134 22   144 152 25   159 169 28   174 184 31   124 138 82   161 179 106   41 81 80   66 130 128   85 168 164   101 200 196   115 228 223   128 253 248   139 255 255   149 255 255   155 255 255   228 218 169   250 239 186   255 243 184   255 244 179   5 23 24   5 23 24   5 23 24   5 23 24   5 23 24   13 57 60   21 90 96   28 121 129   34 147 156   51 51 51   51 51 51   51 51 51   
51 51 51   51 51 51   51 51 51   23 4 5   23 4 5   6 21 1   35 120 124   56 193 200   70 240 249   80 255 255   39 50 62   69 88 108   90 116 142   108 138 169   122 156 191   149 186 217   167 206 235   147 189 232   146 187 230   85 91 15   105 111 18   122 129 22   138 146 24   151 160 27   57 229 3   93 255 6   104 255 6   58 116 113   76 151 148   92 182 178   106 210 205   119 235 230   157 255 255   140 255 255   148 255 255   151 255 255   255 255 233   255 255 234   255 255 200   255 244 179   5 23 24   5 23 24   5 23 24   5 23 24   5 23 24   10 43 46   16 71 75   51 51 51   51 51 51   51 51 51   51 51 51   
51 51 51   51 51 51   51 51 51   51 51 51   51 51 51   51 51 51   35 120 124   52 178 185   64 221 229   5 19 20   28 36 44   56 71 88   77 98 121   94 120 147   108 138 169   119 153 188   129 165 202   135 172 212   136 174 213   120 153 188   81 86 14   98 104 17   114 121 20   17 70 1   58 233 3   85 255 5   117 255 20   48 96 94   66 130 127   81 160 157   95 188 184   108 213 209   130 248 251   138 255 255   138 255 255   143 255 255   255 255 248   255 255 255   255 255 234   255 243 184   5 23 24   5 23 24   5 23 24   5 23 24   5 23 24   5 23 24   51 51 51   51 51 51   51 51 51   51 51 51   51 51 51   
51 51 51   51 51 51   51 51 51   51 51 51   51 51 51   5 19 20   28 99 102   44 153 158   56 195 202   5 19 20   11 15 18   39 50 61   60 76 94   77 98 121   91 117 143   103 132 162   112 143 176   118 151 186   120 154 189   110 141 173   54 58 9   72 76 13   88 93 15   6 24 0   39 156 2   65 255 4   86 255 6   36 72 70   53 106 104   69 136 133   83 164 160   95 189 185   107 212 207   117 232 227   126 249 244   132 255 255   253 244 215   255 255 248   255 255 233   250 239 186   234 223 164   115 255 186   136 255 219   155 255 255   172 255 255   187 255 255   51 51 51   51 51 51   51 51 51   51 51 51   51 51 51   
51 51 51   51 51 51   51 51 51   51 51 51   51 51 51   5 19 20   19 66 69   35 120 124   5 19 20   5 19 20   8 10 13   18 23 29   40 51 63   57 73 90   72 92 113   83 107 131   93 119 146   99 126 155   100 128 158   89 114 140   25 26 4   43 45 7   58 62 10   6 24 0   12 49 0   38 153 2   58 230 3   23 45 44   40 79 78   55 110 107   69 137 134   82 162 159   94 185 181   104 205 201   112 222 218   118 234 229   201 193 161   234 226 193   243 234 195   228 218 169   217 206 152   99 237 160   120 255 193   139 255 242   159 255 255   172 255 255   183 255 255   51 51 51   51 51 51   51 51 51   51 51 51   
51 51 51   51 51 51   51 51 51   51 51 51   51 51 51   5 19 20   5 19 20   23 80 83   5 19 20   5 19 20   8 10 13   8 10 13   16 21 26   34 44 54   49 63 77   61 78 96   70 90 110   76 97 119   75 97 119   50 64 79   13 14 2   13 14 2   13 14 2   6 24 0   6 24 0   6 24 0   23 93 1   8 16 16   25 50 49   41 80 79   55 108 106   67 133 131   79 156 153   89 176 172   97 192 188   103 203 199   154 147 115   180 173 138   195 187 148   196 187 142   194 185 136   82 195 132   102 244 164   121 255 195   138 255 223   154 255 249   167 255 255   51 51 51   51 51 51   51 51 51   51 51 51   
51 51 51   51 51 51   51 51 51   51 51 51   51 51 51   51 51 51   5 19 20   5 19 20   5 19 20   5 19 20   127 54 87   182 78 125   235 113 166   255 163 214   255 214 255   255 255 255   255 255 255   255 255 255   255 228 255   255 163 246   13 14 2   13 14 2   13 14 2   13 14 2   13 14 2   6 24 0   8 16 16   8 16 16   8 16 16   24 48 47   38 76 75   51 102 99   63 124 121   72 143 140   80 159 155   84 166 163   119 114 85   140 133 100   156 148 111   165 157 116   168 160 117   62 150 101   83 198 134   102 244 164   119 255 192   135 255 218   147 255 237   51 51 51   51 51 51   51 51 51   51 51 51   
51 51 51   51 51 51   51 51 51   51 51 51   51 51 51   51 51 51   5 19 20   5 19 20   5 19 20   36 15 25   113 48 78   164 70 113   213 102 151   255 150 197   255 201 244   255 245 255   255 255 255   255 255 255   255 240 255   255 181 254   255 127 204   13 14 2   13 14 2   255 124 255   51 51 51   8 16 16   8 16 16   8 16 16   8 16 16   8 16 16   20 41 40   33 66 65   44 88 86   54 106 104   60 119 117   59 117 115   92 87 64   110 104 77   125 119 87   208 112 255   255 150 255   255 177 255   62 149 100   81 194 131   99 236 159   114 255 183   125 255 201   51 51 51   51 51 51   51 51 51   51 51 51   
51 51 51   51 51 51   51 51 51   51 51 51   51 51 51   51 51 51   51 51 51   5 19 20   5 19 20   19 8 13   89 38 62   138 59 95   182 83 127   231 122 167   255 167 210   255 208 248   255 235 255   255 241 255   255 219 255   255 172 238   255 121 194   22 10 25   22 10 25   239 255 162   7 13 19   6 2 23   8 16 16   8 16 16   8 16 16   8 16 16   8 16 16   12 25 25   23 46 45   31 63 61   35 69 67   44 42 31   64 61 44   81 77 56   87 46 109   167 90 210   236 157 255   255 255 255   255 177 255   59 140 95   76 181 122   90 215 145   51 51 51   51 51 51   51 51 51   51 51 51   51 51 51   
51 51 51   51 51 51   51 51 51   51 51 51   51 51 51   51 51 51   51 51 51   51 51 51   5 19 20   19 8 13   58 24 40   107 46 74   146 63 101   187 89 132   230 123 167   255 157 200   255 182 225   255 190 236   255 177 230   255 143 206   251 107 173   172 244 116   202 255 137   7 13 19   7 13 19   6 2 23   6 2 23   8 16 16   8 16 16   8 16 16   8 16 16   8 16 16   8 16 16   8 16 16   193 245 255   214 255 255   232 255 255   18 10 23   33 17 41   112 60 141   180 97 226   238 140 255   255 150 255   33 80 54   49 118 80   60 144 97   51 51 51   51 51 51   51 51 51   51 51 51   51 51 51   
51 51 51   51 51 51   51 51 51   51 51 51   51 51 51   51 51 51   51 51 51   51 51 51   51 51 51   19 8 13   19 8 13   69 29 47   109 47 75   143 61 99   176 82 124   209 105 149   235 124 170   250 133 181   251 126 179   236 107 165   207 89 143   149 212 101   179 254 121   7 13 19   7 13 19   6 2 23   6 2 23   6 2 23   6 2 23   8 16 16   8 16 16   8 16 16   14 17 22   162 206 255   186 236 255   206 255 255   225 255 255   240 255 255   18 10 23   46 25 58   114 61 143   171 92 214   209 112 255   10 25 17   14 35 23   51 51 51   51 51 51   51 51 51   51 51 51   51 51 51   51 51 51   
51 51 51   51 51 51   51 51 51   51 51 51   51 51 51   51 51 51   51 51 51   51 51 51   51 51 51   19 8 13   19 8 13   19 8 13   66 28 45   101 43 69   129 55 89   153 66 106   174 78 121   187 84 130   190 83 132   183 78 126   140 60 97   10 15 15   10 15 15   7 13 19   7 13 19   6 2 23   6 2 23   6 2 23   6 2 23   6 2 23   14 17 22   97 123 157   126 160 204   151 192 245   174 221 255   195 248 255   221 255 255   238 255 255   243 255 255   18 10 23   34 18 43   87 47 110   10 25 17   140 92 255   51 51 51   51 51 51   51 51 51   51 51 51   51 51 51   51 51 51   51 51 51   
51 51 51   51 51 51   51 51 51   51 51 51   51 51 51   51 51 51   51 51 51   51 51 51   51 51 51   51 51 51   19 8 13   19 8 13   19 8 13   51 21 35   80 34 55   103 44 71   121 52 83   132 56 91   134 57 92   118 51 82   10 15 15   10 15 15   10 15 15   10 15 15   7 13 19   7 13 19   6 2 23   6 2 23   6 2 23   14 17 22   52 66 84   84 107 137   113 143 182   138 175 223   160 204 255   181 230 255   205 255 255   255 255 255   230 255 255   222 144 255   255 190 255   255 217 255   255 209 255   51 51 51   51 51 51   51 51 51   23 31 0   74 99 2   112 149 3   141 188 4   51 51 51   
51 51 51   51 51 51   51 51 51   51 51 51   51 51 51   51 51 51   51 51 51   51 51 51   51 51 51   3 17 24   3 17 24   19 8 13   19 8 13   19 8 13   19 8 13   44 19 30   60 26 42   68 29 47   60 26 41   61 95 108   75 117 134   81 126 144   10 15 15   10 15 15   21 19 6   21 19 6   6 2 23   6 2 23   179 147 3   241 198 4   255 230 5   255 251 5   97 123 157   122 155 197   144 184 234   165 210 255   184 233 255   200 254 255   214 255 255   188 121 233   255 170 255   255 204 255   255 211 255   51 51 51   51 51 51   51 51 51   8 10 0   54 72 1   91 121 2   255 255 78   146 195 4   
51 51 51   51 51 51   51 51 51   51 51 51   51 51 51   51 51 51   51 51 51   51 51 51   51 51 51   3 17 24   3 17 24   3 17 24   19 8 13   19 8 13   19 8 13   19 8 13   19 8 13   19 8 13   65 101 115   78 121 138   87 136 155   95 147 168   99 154 175   49 171 191   61 213 237   70 243 255   77 255 255   80 255 255   219 180 4   255 216 4   255 245 5   255 255 6   255 255 6   255 255 6   127 161 205   147 187 238   166 210 255   182 231 255   196 249 255   122 84 150   209 132 255   255 168 255   255 182 255   181 150 222   51 51 51   8 10 0   8 10 0   25 34 0   63 84 1   95 127 2   120 161 3   
51 51 51   51 51 51   51 51 51   51 51 51   51 51 51   51 51 51   51 51 51   51 51 51   51 51 51   3 17 24   3 17 24   3 17 24   3 17 24   3 17 24   11 8 20   11 8 20   5 8 10   54 85 96   69 107 122   80 125 142   89 139 158   96 150 171   40 140 156   53 186 207   64 221 246   72 250 255   79 255 255   84 255 255   221 182 4   255 214 4   255 243 5   255 255 9   255 255 10   255 255 7   255 255 6   127 162 206   146 185 236   162 206 255   176 224 255   51 43 62   120 84 148   177 119 220   191 135 236   51 51 51   51 51 51   51 51 51   8 10 0   8 10 0   29 39 0   61 82 1   83 111 2   
51 51 51   51 51 51   51 51 51   51 51 51   51 51 51   51 51 51   51 51 51   51 51 51   0 10 9   51 51 51   3 17 24   0 0 15   0 0 15   11 8 20   11 8 20   5 8 10   38 59 67   55 86 97   68 106 121   79 122 139   87 136 155   95 147 167   41 143 159   53 183 204   62 217 242   71 245 255   77 255 255   83 255 255   86 255 255   250 206 4   255 236 8   255 255 35   255 255 67   255 255 27   255 255 7   255 255 6   124 157 200   140 178 226   153 195 248   11 10 14   46 39 57   11 10 14   93 78 113   51 51 51   51 51 51   51 51 51   8 10 0   8 10 0   8 10 0   15 21 0   51 51 51   
51 51 51   51 51 51   51 51 51   51 51 51   51 51 51   51 51 51   0 10 9   0 10 9   0 10 9   0 10 9   0 0 15   0 0 15   0 0 15   11 8 20   11 8 20   15 23 26   37 57 65   52 81 93   65 101 115   75 117 133   83 130 148   99 146 164   39 135 151   50 173 193   59 206 229   67 233 255   83 255 255   255 255 255   85 255 255   234 193 4   255 222 7   255 255 42   255 255 114   255 255 74   255 255 10   255 255 6   99 126 160   115 146 185   127 161 206   11 10 14   11 10 14   11 10 14   51 51 51   51 51 51   51 51 51   51 51 51   51 51 51   51 51 51   51 51 51   51 51 51   51 51 51   
51 51 51   51 51 51   51 51 51   51 51 51   51 51 51   51 51 51   0 10 9   0 10 9   0 10 9   15 21 0   15 21 0   15 21 0   15 21 0   15 21 0   11 8 20   12 19 22   32 51 58   47 74 84   59 93 105   69 108 123   78 121 138   85 132 151   35 121 134   45 158 176   55 190 212   63 217 242   69 240 255   102 255 255   80 255 255   214 176 3   51 162 219   56 175 237   255 255 50   255 255 46   255 255 10   255 255 6   255 255 5   85 108 137   14 17 22   14 17 22   80 170 255   85 181 255   82 176 255   51 51 51   51 51 51   51 51 51   51 51 51   51 51 51   51 51 51   51 51 51   51 51 51   
51 51 51   51 51 51   51 51 51   51 51 51   51 51 51   8 1 2   0 10 9   0 10 9   15 21 0   15 21 0   15 21 0   15 21 0   255 255 13   15 21 0   15 21 0   5 8 10   26 40 46   41 63 72   53 82 93   63 98 111   71 111 126   16 55 62   29 101 112   40 138 154   49 170 189   57 197 219   63 220 245   69 238 255   41 130 176   47 148 200   52 163 221   56 176 238   60 188 254   63 197 255   65 204 255   65 206 255   61 191 255   135 208 74   14 17 22   62 133 255   70 149 255   74 159 255   68 145 255   51 51 51   51 51 51   51 51 51   51 51 51   51 51 51   51 51 51   51 51 51   51 51 51   
51 51 51   51 51 51   51 51 51   51 51 51   8 1 2   8 1 2   8 1 2   106 145 5   166 226 8   205 255 9   235 255 11   255 255 12   255 255 13   15 21 0   15 21 0   5 8 10   17 26 30   32 50 57   44 69 78   54 84 96   63 98 111   8 29 33   22 76 85   33 114 127   42 146 162   50 173 192   56 195 218   35 110 149   41 129 175   46 146 197   51 161 218   55 174 235   59 186 253   62 196 255   64 203 255   66 208 255   66 208 255   255 255 206   17 25 11   51 108 226   58 123 255   61 131 255   0 255 255   51 51 51   51 51 51   51 51 51   51 51 51   51 51 51   51 51 51   51 51 51   51 51 51   
51 51 51   51 51 51   51 51 51   51 51 51   8 1 2   8 1 2   34 47 1   122 166 5   170 231 8   205 255 9   232 255 11   253 255 12   255 255 16   15 21 0   15 21 0   5 8 10   5 8 10   21 33 38   34 53 60   44 69 78   53 82 93   59 93 105   13 45 51   24 84 94   33 117 130   41 144 161   27 85 116   34 107 144   40 125 169   45 142 192   50 156 212   54 170 231   66 198 255   78 225 255   66 204 255   65 205 255   66 208 255   64 201 255   255 255 214   17 25 11   255 255 183   41 88 185   0 229 255   51 51 51   51 51 51   51 51 51   51 51 51   51 51 51   51 51 51   51 51 51   51 51 51   
51 51 51   51 51 51   51 51 51   8 1 2   8 1 2   5 19 5   54 73 2   120 164 5   164 223 7   197 255 9   223 255 10   243 255 11   255 255 16   255 255 30   15 21 0   5 8 10   5 8 10   8 13 14   21 33 38   32 50 57   41 63 72   47 74 84   4 16 18   14 49 54   23 82 92   18 57 77   25 81 109   32 101 137   38 120 162   43 136 184   48 150 203   52 164 223   69 202 255   104 255 255   75 221 255   64 200 255   65 204 255   64 201 255   255 255 208   255 255 210   255 255 192   255 255 200   0 190 255   51 51 51   51 51 51   51 51 51   51 51 51   51 51 51   51 51 51   51 51 51   51 51 51   
51 51 51   51 51 51   51 51 51   23 87 25   52 199 57   5 19 5   48 65 2   109 148 5   150 205 7   182 248 8   208 255 10   228 255 11   243 255 11   253 255 12   15 21 0   15 21 0   5 8 10   5 8 10   5 8 10   17 26 30   26 40 46   5 8 10   4 16 18   136 39 142   7 22 29   16 50 68   23 74 100   30 94 128   35 112 152   41 128 174   45 143 193   49 156 211   56 173 241   71 208 255   67 202 255   61 193 255   62 197 255   62 196 255   55 172 233   255 255 201   255 255 190   255 255 201   255 255 207   51 51 51   51 51 51   51 51 51   51 51 51   51 51 51   51 51 51   51 51 51   51 51 51   
51 51 51   51 51 51   51 51 51   42 160 45   59 224 64   5 19 5   28 38 1   89 121 4   131 178 6   163 221 7   188 255 9   207 255 10   222 255 10   231 255 11   15 21 0   15 21 0   15 21 0   5 8 10   5 8 10   5 8 10   5 8 10   5 8 10   30 8 31   120 35 125   3 11 15   13 42 57   21 65 88   27 86 116   33 104 140   38 120 162   42 134 181   47 147 199   50 159 215   54 170 232   57 179 243   58 184 249   60 188 255   60 188 254   55 173 234   255 255 185   255 255 189   255 255 197   14 96 65   30 196 134   41 255 182   49 255 219   55 255 243   51 51 51   51 51 51   51 51 51   51 51 51   
51 51 51   51 51 51   24 92 26   47 177 50   61 230 65   71 255 77   15 21 0   61 83 2   104 142 5   137 186 6   162 220 7   181 246 8   195 255 9   204 255 9   206 255 10   15 21 0   15 21 0   148 2 19   220 4 29   255 4 34   255 5 38   255 5 40   255 5 39   88 25 92   152 44 159   10 31 42   17 55 75   24 76 102   29 94 127   35 110 148   39 124 168   43 137 185   47 149 201   50 159 215   53 167 226   55 174 235   56 178 241   56 178 240   52 163 220   247 255 163   255 255 187   5 32 22   20 131 90   32 208 143   42 255 187   51 255 226   58 255 255   63 255 255   51 51 51   51 51 51   51 51 51   
51 51 51   51 51 51   28 107 30   47 178 50   60 226 64   69 255 75   5 19 5   21 29 1   69 94 3   103 141 5   129 176 6   149 202 7   162 221 7   170 231 8   169 231 8   15 21 0   147 2 19   215 3 28   255 4 34   255 5 39   255 5 42   255 6 45   255 6 46   255 6 44   17 4 17   6 19 25   13 43 58   20 64 86   26 82 111   31 98 133   36 113 152   40 126 170   43 137 186   47 147 199   49 156 210   51 162 219   53 166 224   52 164 222   45 141 191   201 255 132   3 24 16   5 37 25   19 124 85   30 197 135   40 255 179   49 255 217   56 255 251   63 255 255   67 255 255   51 51 51   51 51 51   
51 51 51   51 51 51   27 103 29   44 168 48   56 213 61   66 249 71   73 255 79   15 21 0   21 29 1   60 82 2   88 119 4   107 146 5   120 163 5   125 170 6   120 163 5   106 1 14   183 3 24   237 4 31   255 5 36   255 5 41   255 6 44   255 6 47   255 6 48   255 6 48   255 6 45   3 11 15   9 29 39   16 50 68   22 69 93   27 85 115   32 100 135   36 113 153   39 124 168   42 134 182   45 142 193   47 148 201   48 151 204   47 148 200   149 212 98   22 21 11   3 24 16   3 24 16   16 104 71   27 176 121   37 239 164   45 255 202   53 255 236   88 255 255   65 255 255   68 255 255   51 51 51   
51 51 51   51 51 51   22 85 24   39 149 42   51 194 55   60 229 65   68 255 73   73 255 79   5 19 5   15 21 0   30 40 1   50 69 2   61 83 2   60 81 2   30 0 3   133 2 17   196 3 26   245 4 32   255 5 37   255 5 41   255 6 44   255 13 47   255 7 49   255 6 49   255 6 48   3 11 15   3 11 15   11 34 46   17 54 72   22 70 95   27 85 115   31 98 133   35 110 148   38 119 162   40 127 172   42 132 179   42 134 181   40 125 169   22 21 11   22 21 11   3 24 16   3 24 16   11 75 52   22 147 101   32 210 144   41 255 183   49 255 218   61 255 249   61 255 255   65 255 255   51 51 51   
51 51 51   51 51 51   14 55 15   32 121 34   44 167 48   53 202 58   61 229 65   66 250 71   70 255 76   72 255 78   5 19 5   5 19 5   5 19 5   5 17 19   59 1 7   141 2 18   198 3 26   243 4 32   255 5 37   255 5 41   255 18 44   255 138 50   255 43 49   255 6 49   255 6 48   255 6 44   3 11 15   5 15 21   11 36 48   17 53 72   21 68 93   26 82 110   29 93 126   32 102 138   35 109 148   36 113 153   35 111 150   40 255 255   22 21 11   22 21 11   3 24 16   3 24 16   6 40 27   17 112 77   27 176 121   36 233 160   44 255 195   51 255 225   57 255 251   61 255 255   59 255 255   
51 51 51   51 51 51   5 19 5   22 83 23   35 132 37   44 168 48   52 196 56   57 216 61   61 230 65   63 238 68   63 238 68   60 228 65   5 19 5   5 17 19   63 1 8   138 2 18   192 3 25   236 4 31   255 5 35   255 5 39   255 13 43   255 100 47   255 42 48   255 6 47   255 6 47   255 6 43   3 11 15   3 11 15   4 14 19   10 33 44   15 48 66   19 62 84   23 73 99   26 82 110   27 87 118   28 88 119   21 68 93   42 255 255   2 16 23   22 21 11   3 24 16   3 24 16   3 24 16   11 70 48   21 136 93   30 193 133   38 245 168   45 255 199   51 255 225   55 255 243   52 255 230   
51 51 51   51 51 51   51 51 51   7 27 7   22 84 24   33 124 35   40 152 43   46 173 49   49 186 53   50 191 54   5 19 5   5 19 5   5 19 5   20 0 2   55 1 7   126 2 16   180 3 23   222 4 29   255 4 34   255 5 37   255 5 41   255 9 43   255 7 45   255 6 45   255 6 45   255 5 41   3 11 15   3 11 15   3 11 15   3 11 15   7 23 32   11 37 50   15 48 65   17 55 74   18 56 76   34 238 255   72 255 255   41 255 255   43 255 255   2 16 23   1 10 7   3 24 16   3 24 16   3 24 16   58 44 37   132 101 86   189 145 123   236 181 153   255 209 177   255 227 192   51 51 51   
51 51 51   51 51 51   51 51 51   5 19 5   5 19 5   16 63 18   25 95 27   30 115 33   33 127 36   5 19 5   5 19 5   5 19 5   14 22 2   20 0 2   36 0 4   108 1 14   161 2 21   204 3 26   239 4 31   255 4 35   255 5 38   255 5 40   255 5 42   255 5 43   255 5 42   255 5 38   5 18 24   5 18 24   3 11 15   3 11 15   3 11 15   3 11 15   3 11 15   3 11 15   28 192 255   32 225 255   49 255 255   42 255 255   41 255 255   2 16 23   1 10 7   3 24 16   3 24 16   20 15 13   80 61 52   143 110 93   197 150 127   243 186 157   255 217 184   255 243 206   255 255 222   
51 51 51   51 51 51   51 51 51   51 51 51   51 51 51   5 19 5   5 19 5   7 26 7   5 19 5   5 19 5   14 22 2   14 22 2   14 22 2   14 22 2   20 0 2   82 1 10   136 2 18   180 3 23   215 3 28   244 4 32   255 4 35   255 5 37   255 5 38   255 5 39   255 5 38   247 4 32   5 18 24   5 18 24   7 18 24   7 18 24   2 16 23   2 16 23   13 91 132   19 136 199   25 175 255   30 208 255   34 236 255   37 255 255   39 255 255   39 255 255   1 10 7   1 10 7   20 15 13   20 15 13   79 61 51   139 106 90   191 146 124   238 182 154   255 213 181   255 241 204   255 255 224   
51 51 51   51 51 51   51 51 51   51 51 51   51 51 51   51 51 51   51 51 51   51 51 51   51 51 51   51 51 51   51 51 51   14 22 2   14 22 2   14 22 2   20 0 2   46 0 6   104 1 13   149 2 19   185 3 24   214 3 28   236 4 31   253 4 33   255 4 34   255 4 34   245 4 32   51 51 51   7 18 24   7 18 24   7 18 24   7 18 24   2 16 23   2 16 23   9 67 98   16 114 167   22 154 224   27 187 255   31 215 255   34 236 255   36 249 255   2 16 23   1 10 7   1 10 7   20 15 13   20 15 13   69 53 44   128 98 83   180 137 116   226 173 146   255 205 173   255 234 198   255 255 220   
51 51 51   51 51 51   51 51 51   51 51 51   51 51 51   51 51 51   51 51 51   51 51 51   51 51 51   51 51 51   51 51 51   51 51 51   51 51 51   51 51 51   51 51 51   20 0 2   62 1 8   110 2 14   147 2 19   177 3 23   199 3 26   214 3 28   220 4 29   213 3 28   175 3 23   51 51 51   51 51 51   7 18 24   7 18 24   7 18 24   2 16 23   2 16 23   5 37 55   12 86 126   18 126 185   23 160 234   27 188 255   30 209 255   2 16 23   2 16 23   1 10 7   51 51 51   20 15 13   20 15 13   52 40 34   111 85 72   163 125 105   210 160 136   252 192 163   255 223 188   255 255 255   
51 51 51   51 51 51   51 51 51   51 51 51   51 51 51   51 51 51   51 51 51   51 51 51   51 51 51   51 51 51   51 51 51   51 51 51   51 51 51   51 51 51   51 51 51   20 0 2   20 0 2   58 1 7   98 1 13   129 2 17   150 2 19   162 2 21   162 2 21   135 2 17   51 51 51   51 51 51   51 51 51   51 51 51   51 51 51   7 18 24   7 18 24   2 16 23   2 16 23   7 50 74   13 93 135   18 127 185   22 154 225   25 174 254   2 16 23   51 51 51   51 51 51   51 51 51   20 15 13   20 15 13   31 23 20   90 69 58   142 109 92   189 145 122   232 177 150   255 207 175   255 242 202   
51 51 51   51 51 51   51 51 51   51 51 51   51 51 51   51 51 51   51 51 51   51 51 51   51 51 51   51 51 51   51 51 51   51 51 51   51 51 51   51 51 51   51 51 51   51 51 51   51 51 51   20 0 2   26 0 3   59 1 7   79 1 10   81 1 10   51 51 51   51 51 51   51 51 51   51 51 51   51 51 51   51 51 51   51 51 51   51 51 51   51 51 51   51 51 51   2 16 23   2 16 23   7 48 70   12 84 122   16 110 161   2 16 23   2 16 23   51 51 51   51 51 51   51 51 51   20 15 13   20 15 13   20 15 13   65 49 42   118 90 76   166 127 107   209 160 135   248 190 160   255 216 183   
51 51 51   51 51 51   51 51 51   51 51 51   51 51 51   51 51 51   51 51 51   51 51 51   51 51 51   51 51 51   51 51 51   51 51 51   51 51 51   51 51 51   51 51 51   51 51 51   51 51 51   51 51 51   51 51 51   51 51 51   51 51 51   51 51 51   51 51 51   51 51 51   51 51 51   51 51 51   51 51 51   51 51 51   51 51 51   51 51 51   51 51 51   51 51 51   51 51 51   51 51 51   2 16 23   2 16 23   2 16 23   51 51 51   51 51 51   51 51 51   51 51 51   51 51 51   20 15 13   20 15 13   20 15 13   35 27 22   90 69 58   138 106 89   182 139 118   222 170 144   255 197 166   
51 51 51   51 51 51   51 51 51   51 51 51   51 51 51   51 51 51   51 51 51   51 51 51   51 51 51   51 51 51   51 51 51   51 51 51   51 51 51   51 51 51   51 51 51   51 51 51   51 51 51   51 51 51   51 51 51   51 51 51   51 51 51   51 51 51   51 51 51   51 51 51   51 51 51   51 51 51   51 51 51   51 51 51   51 51 51   51 51 51   51 51 51   51 51 51   51 51 51   51 51 51   51 51 51   51 51 51   51 51 51   51 51 51   51 51 51   51 51 51   51 51 51   51 51 51   51 51 51   20 15 13   20 15 13   20 15 13   57 43 37   107 82 69   152 116 98   192 147 124   228 174 147   
