P3
51 51
255
51 51 51   51 51 51   51 51 51   51 51 51   51 51 51   51 51 51   51 51 51   51 51 51   51 51 51   51 51 51   51 51 51   51 51 51   51 51 51   51 51 51   51 51 51   51 51 51   51 51 51   51 51 51   51 51 51   51 51 51   51 51 51   51 51 51   51 51 51   51 51 51   51 51 51   51 51 51   51 51 51   51 51 51   51 51 51   51 51 51   51 51 51   51 51 51   51 51 51   51 51 51   51 51 51   51 51 51   51 51 51   51 51 51   51 51 51   51 51 51   51 51 51   51 51 51   51 51 51   51 51 51   51 51 51   51 51 51   51 51 51   51 51 51   51 51 51   51 51 51   51 51 51   
51 51 51   51 51 51   51 51 51   51 51 51   51 51 51   51 51 51   51 51 51   51 51 51   51 51 51   51 51 51   51 51 51   51 51 51   51 51 51   51 51 51   51 51 51   51 51 51   51 51 51   51 51 51   51 51 51   51 51 51   51 51 51   51 51 51   51 51 51   51 51 51   51 51 51   51 51 51   51 51 51   51 51 51   51 51 51   51 51 51   51 51 51   51 51 51   51 51 51   51 51 51   51 51 51   51 51 51   51 51 51   51 51 51   51 51 51   51 51 51   51 51 51   51 51 51   51 51 51   51 51 51   51 51 51   51 51 51   51 51 51   51 51 51   51 51 51   51 51 51   51 51 51   
51 51 51   51 51 51   51 51 51   51 51 51   51 51 51   51 51 51   51 51 51   51 51 51   51 51 51   51 51 51   51 51 51   51 51 51   51 51 51   51 51 51   51 51 51   51 51 51   51 51 51   51 51 51   51 51 51   51 51 51   51 51 51   51 51 51   51 51 51   51 51 51   51 51 51   51 51 51   51 51 51   51 51 51   51 51 51   51 51 51   51 51 51   51 51 51   51 51 51   51 51 51   51 51 51   51 51 51   51 51 51   51 51 51   51 51 51   51 51 51   51 51 51   51 51 51   51 51 51   63 156 111   86 213 152   108 255 189   129 255 225   149 255 255   51 51 51   51 51 51   51 51 51   
51 51 51   51 51 51   51 51 51   51 51 51   51 51 51   51 51 51   51 51 51   51 51 51   51 51 51   51 51 51   51 51 51   51 51 51   51 51 51   51 51 51   51 51 51   51 51 51   51 51 51   51 51 51   51 51 51   51 51 51   51 51 51   51 51 51   51 51 51   51 51 51   51 51 51   51 51 51   51 51 51   51 51 51   51 51 51   51 51 51   51 51 51   51 51 51   51 51 51   51 51 51   51 51 51   51 51 51   51 51 51   51 51 51   51 51 51   51 51 51   51 51 51   51 51 51   20 50 36   45 111 79   67 166 118   88 218 155   111 255 191   132 255 226   149 255 255   51 51 51   51 51 51   
51 51 51   51 51 51   51 51 51   51 51 51   51 51 51   51 51 51   51 51 51   51 51 51   51 51 51   51 51 51   51 51 51   51 51 51   51 51 51   51 51 51   51 51 51   51 51 51   51 51 51   51 51 51   51 51 51   51 51 51   51 51 51   51 51 51   51 51 51   51 51 51   51 51 51   51 51 51   51 51 51   51 51 51   51 51 51   51 51 51   51 51 51   51 51 51   51 51 51   51 51 51   51 51 51   51 51 51   51 51 51   51 51 51   51 51 51   51 51 51   51 51 51   8 21 15   8 21 15   25 62 44   47 116 83   68 169 120   89 219 156   111 255 191   129 255 225   51 51 51   51 51 51   
51 51 51   51 51 51   51 51 51   51 51 51   51 51 51   51 51 51   51 51 51   51 51 51   51 51 51   51 51 51   51 51 51   51 51 51   51 51 51   51 51 51   51 51 51   51 51 51   51 51 51   51 51 51   51 51 51   51 51 51   51 51 51   51 51 51   51 51 51   51 51 51   51 51 51   51 51 51   51 51 51   51 51 51   51 51 51   159 73 73   219 101 101   255 123 123   255 141 141   51 51 51   51 51 51   51 51 51   51 51 51   51 51 51   51 51 51   51 51 51   51 51 51   8 21 15   8 21 15   8 21 15   26 66 47   48 118 84   68 169 120   88 218 155   108 255 189   51 51 51   51 51 51   
51 51 51   51 51 51   51 51 51   51 51 51   51 51 51   51 51 51   51 51 51   51 51 51   51 51 51   51 51 51   51 51 51   51 51 51   51 51 51   51 51 51   51 51 51   51 51 51   51 51 51   51 51 51   51 51 51   51 51 51   51 51 51   51 51 51   51 51 51   51 51 51   51 51 51   51 51 51   51 51 51   51 51 51   65 30 30   133 61 61   187 86 86   233 108 107   255 137 134   255 142 142   51 51 51   51 51 51   51 51 51   51 51 51   51 51 51   51 51 51   51 51 51   8 21 15   8 21 15   8 21 15   8 21 15   26 66 47   47 116 83   67 166 118   86 213 152   51 51 51   51 51 51   
51 51 51   51 51 51   51 51 51   51 51 51   51 51 51   51 51 51   51 51 51   51 51 51   51 51 51   51 51 51   51 51 51   51 51 51   51 51 51   51 51 51   51 51 51   51 51 51   51 51 51   51 51 51   51 51 51   51 51 51   51 51 51   51 51 51   51 51 51   51 51 51   51 51 51   51 51 51   51 51 51   51 51 51   31 14 14   93 43 43   146 67 67   192 89 88   233 109 109   255 124 124   255 134 134   51 51 51   51 51 51   51 51 51   51 51 51   51 51 51   51 51 51   8 21 15   8 21 15   8 21 15   8 21 15   8 21 15   25 62 44   45 111 79   63 156 111   51 51 51   51 51 51   
51 51 51   51 51 51   51 51 51   51 51 51   51 51 51   51 51 51   51 51 51   51 51 51   51 51 51   51 51 51   51 51 51   51 51 51   51 51 51   51 51 51   51 51 51   51 51 51   51 51 51   51 51 51   51 51 51   51 51 51   51 51 51   51 51 51   51 51 51   51 51 51   51 51 51   51 51 51   51 51 51   17 8 8   17 8 8   47 21 21   99 46 46   146 67 67   187 86 86   222 102 102   246 113 113   51 51 51   51 51 51   51 51 51   51 51 51   51 51 51   51 51 51   8 21 15   8 21 15   8 21 15   8 21 15   8 21 15   8 21 15   20 50 36   51 51 51   51 51 51   51 51 51   
51 51 51   51 51 51   51 51 51   51 51 51   51 51 51   51 51 51   51 51 51   51 51 51   51 51 51   51 51 51   51 51 51   51 51 51   51 51 51   51 51 51   51 51 51   51 51 51   51 51 51   51 51 51   51 51 51   51 51 51   51 51 51   51 51 51   51 51 51   51 51 51   51 51 51   51 51 51   51 51 51   17 8 8   17 8 8   17 8 8   48 22 22   94 43 43   135 62 62   170 78 78   190 88 88   51 51 51   51 51 51   51 51 51   51 51 51   51 51 51   51 51 51   51 51 51   8 21 15   8 21 15   8 21 15   8 21 15   8 21 15   51 51 51   51 51 51   51 51 51   51 51 51   
51 51 51   51 51 51   51 51 51   51 51 51   51 51 51   51 51 51   51 51 51   51 51 51   51 51 51   51 51 51   243 109 226   255 255 255   255 168 255   51 51 51   51 51 51   51 51 51   51 51 51   51 51 51   51 51 51   51 51 51   51 51 51   51 51 51   51 51 51   51 51 51   51 51 51   51 51 51   51 51 51   51 51 51   17 8 8   17 8 8   17 8 8   36 17 17   77 35 35   109 50 50   51 51 51   51 51 51   51 51 51   51 51 51   51 51 51   51 51 51   51 51 51   51 51 51   51 51 51   51 51 51   51 51 51   51 51 51   51 51 51   51 51 51   51 51 51   51 51 51   51 51 51   
51 51 51   51 51 51   51 51 51   51 51 51   51 51 51   51 51 51   51 51 51   51 51 51   51 51 51   51 51 51   82 37 76   210 94 195   248 111 230   51 51 51   51 51 51   51 51 51   51 51 51   51 51 51   51 51 51   51 51 51   244 178 130   255 255 227   51 51 51   51 51 51   51 51 51   51 51 51   51 51 51   51 51 51   17 8 8   17 8 8   17 8 8   17 8 8   17 8 8   30 14 14   51 51 51   51 51 51   51 51 51   51 51 51   51 51 51   51 51 51   51 51 51   51 51 51   51 51 51   51 51 51   51 51 51   51 51 51   51 51 51   51 51 51   51 51 51   51 51 51   51 51 51   
51 51 51   51 51 51   51 51 51   51 51 51   51 51 51   51 51 51   51 51 51   51 51 51   51 51 51   51 51 51   22 10 21   22 10 21   51 51 51   51 51 51   51 51 51   51 51 51   51 51 51   51 51 51   51 51 51   51 51 51   91 66 48   255 196 143   255 227 166   51 51 51   51 51 51   51 51 51   51 51 51   51 51 51   51 51 51   51 51 51   17 8 8   17 8 8   51 51 51   51 51 51   51 51 51   51 51 51   51 51 51   51 51 51   51 51 51   51 51 51   51 51 51   51 51 51   51 51 51   51 51 51   51 51 51   51 51 51   51 51 51   51 51 51   51 51 51   51 51 51   51 51 51   
51 51 51   51 51 51   51 51 51   51 51 51   51 51 51   51 51 51   51 51 51   51 51 51   51 51 51   51 51 51   51 51 51   51 51 51   51 51 51   51 51 51   51 51 51   51 51 51   51 51 51   51 51 51   51 51 51   51 51 51   25 18 13   25 18 13   51 51 51   51 51 51   51 51 51   51 51 51   51 51 51   51 51 51   51 51 51   51 51 51   51 51 51   51 51 51   51 51 51   51 51 51   51 51 51   51 51 51   51 51 51   51 51 51   51 51 51   51 51 51   51 51 51   51 51 51   51 51 51   51 51 51   51 51 51   51 51 51   51 51 51   51 51 51   51 51 51   51 51 51   51 51 51   
51 51 51   51 51 51   51 51 51   51 51 51   51 51 51   51 51 51   51 51 51   51 51 51   51 51 51   51 51 51   51 51 51   51 51 51   51 51 51   51 51 51   51 51 51   51 51 51   51 51 51   51 51 51   51 51 51   51 51 51   51 51 51   51 51 51   51 51 51   51 51 51   51 51 51   51 51 51   51 51 51   51 51 51   51 51 51   63 215 95   81 255 122   95 255 144   108 255 161   117 255 175   121 255 182   51 51 51   51 51 51   51 51 51   51 51 51   51 51 51   51 51 51   51 51 51   51 51 51   51 51 51   51 51 51   51 51 51   51 51 51   51 51 51   51 51 51   51 51 51   51 51 51   
51 51 51   51 51 51   51 51 51   51 51 51   51 51 51   51 51 51   51 51 51   51 51 51   51 51 51   51 51 51   51 51 51   51 51 51   51 51 51   51 51 51   51 51 51   51 51 51   51 51 51   51 51 51   51 51 51   51 51 51   51 51 51   51 51 51   51 51 51   51 51 51   51 51 51   51 51 51   51 51 51   51 51 51   43 148 65   62 212 94   78 255 117   95 255 138   114 255 158   127 255 173   126 255 183   125 255 188   51 51 51   51 51 51   51 51 51   51 51 51   51 51 51   51 51 51   51 51 51   51 51 51   82 90 103   108 118 136   130 142 164   51 51 51   51 51 51   51 51 51   51 51 51   
51 51 51   51 51 51   51 51 51   51 51 51   51 51 51   51 51 51   51 51 51   51 51 51   51 51 51   51 51 51   51 51 51   51 51 51   51 51 51   51 51 51   51 51 51   51 51 51   51 51 51   51 51 51   51 51 51   51 51 51   51 51 51   51 51 51   51 51 51   51 51 51   51 51 51   51 51 51   51 51 51   17 58 26   39 133 59   56 192 85   72 243 107   90 255 128   118 255 150   143 255 169   143 255 180   126 255 183   121 255 182   51 51 51   51 51 51   51 51 51   51 51 51   51 51 51   8 9 10   42 46 53   70 77 88   99 106 121   185 166 184   180 174 196   151 166 191   51 51 51   51 51 51   
51 51 51   51 51 51   51 51 51   51 51 51   51 51 51   51 51 51   51 51 51   51 51 51   51 51 51   51 51 51   51 51 51   51 51 51   51 51 51   51 51 51   51 51 51   51 51 51   51 51 51   51 51 51   130 181 7   211 255 11   255 255 14   255 255 16   16 23 0   51 51 51   51 51 51   51 51 51   6 23 10   11 39 17   31 107 47   48 163 72   63 213 94   79 255 114   105 255 135   133 255 156   143 255 169   127 255 173   117 255 175   51 51 51   51 51 51   51 51 51   51 51 51   51 51 51   8 9 10   26 28 33   53 58 66   78 85 98   174 151 166   255 246 255   147 156 178   51 51 51   51 51 51   
51 51 51   51 51 51   51 51 51   51 51 51   51 51 51   51 51 51   51 51 51   51 51 51   51 51 51   51 51 51   51 51 51   51 51 51   51 51 51   51 51 51   51 51 51   51 51 51   51 51 51   46 65 2   146 203 8   205 255 11   249 255 13   255 255 16   255 255 17   16 23 0   51 51 51   51 51 51   6 23 10   6 23 10   22 74 33   38 129 57   52 178 79   66 223 98   83 255 117   105 255 135   118 255 150   114 255 158   108 255 161   51 51 51   51 51 51   51 51 51   51 51 51   8 9 10   8 9 10   8 9 10   33 36 42   57 63 72   84 89 102   134 128 144   124 132 151   51 51 51   51 51 51   
51 51 51   51 51 51   51 51 51   51 51 51   51 51 51   51 51 51   51 51 51   51 51 51   51 51 51   51 51 51   24 127 63   43 220 110   52 255 135   56 255 144   51 51 51   51 51 51   51 51 51   48 66 2   125 174 7   180 250 10   223 255 12   255 255 19   255 255 18   255 255 16   51 51 51   51 51 51   6 23 10   6 23 10   10 35 15   26 90 40   41 139 61   54 182 81   66 223 98   79 255 114   90 255 128   95 255 138   95 255 144   51 51 51   51 51 51   51 51 51   51 51 51   8 9 10   8 9 10   8 9 10   8 9 10   35 39 45   57 63 73   78 85 98   95 104 120   51 51 51   51 51 51   
51 51 51   51 51 51   51 51 51   51 51 51   51 51 51   51 51 51   51 51 51   51 51 51   51 51 51   51 51 51   21 110 55   36 188 93   47 243 124   51 255 132   47 243 121   51 51 51   51 51 51   16 23 0   89 124 5   143 199 8   186 255 10   219 255 12   243 255 13   254 255 14   16 23 0   51 51 51   6 23 10   6 23 10   6 23 10   13 46 20   28 95 42   41 139 61   52 178 79   63 213 94   72 243 107   78 255 117   81 255 122   51 51 51   51 51 51   51 51 51   51 51 51   51 51 51   8 9 10   8 9 10   8 9 10   11 12 14   33 37 42   53 58 67   69 75 87   51 51 51   51 51 51   
51 51 51   51 51 51   51 51 51   51 51 51   51 51 51   51 51 51   51 51 51   51 51 51   51 51 51   51 51 51   9 47 23   24 125 62   34 174 87   38 198 99   36 184 92   51 51 51   51 51 51   16 23 0   41 57 2   96 134 5   139 194 7   173 240 9   196 255 11   205 255 11   169 235 9   51 51 51   6 23 10   6 23 10   6 23 10   6 23 10   13 46 20   26 90 40   38 129 57   48 163 72   56 192 85   62 212 94   63 215 95   51 51 51   51 51 51   51 51 51   51 51 51   51 51 51   8 9 10   8 9 10   8 9 10   8 9 10   8 9 10   24 26 30   51 51 51   51 51 51   51 51 51   
51 51 51   51 51 51   51 51 51   51 51 51   51 51 51   51 51 51   51 51 51   51 51 51   51 51 51   51 51 51   3 15 7   6 33 16   16 84 42   20 105 52   10 51 25   51 51 51   51 51 51   16 23 0   16 23 0   38 52 2   82 114 4   115 160 6   137 190 7   140 195 7   51 51 51   51 51 51   51 51 51   6 23 10   6 23 10   6 23 10   6 23 10   10 35 15   22 74 33   31 107 47   39 133 59   43 148 65   51 51 51   51 51 51   51 51 51   51 51 51   51 51 51   51 51 51   51 51 51   51 51 51   8 9 10   8 9 10   51 51 51   51 51 51   51 51 51   51 51 51   51 51 51   
51 51 51   51 51 51   51 51 51   51 51 51   51 51 51   51 51 51   51 51 51   51 51 51   51 51 51   51 51 51   51 51 51   3 15 7   3 15 7   51 51 51   51 51 51   51 51 51   51 51 51   51 51 51   16 23 0   16 23 0   16 23 0   41 57 2   16 23 0   51 51 51   51 51 51   51 51 51   51 51 51   51 51 51   6 23 10   6 23 10   6 23 10   6 23 10   6 23 10   11 39 17   17 58 26   51 51 51   51 51 51   51 51 51   51 51 51   51 51 51   51 51 51   51 51 51   51 51 51   51 51 51   51 51 51   51 51 51   51 51 51   51 51 51   51 51 51   51 51 51   51 51 51   
51 51 51   51 51 51   51 51 51   51 51 51   51 51 51   51 51 51   51 51 51   51 51 51   51 51 51   51 51 51   51 51 51   51 51 51   51 51 51   51 51 51   51 51 51   51 51 51   51 51 51   51 51 51   51 51 51   51 51 51   16 23 0   16 23 0   51 51 51   51 51 51   51 51 51   51 51 51   51 51 51   51 51 51   51 51 51   6 23 10   6 23 10   6 23 10   6 23 10   6 23 10   51 51 51   51 51 51   51 51 51   51 51 51   51 51 51   51 51 51   51 51 51   51 51 51   51 51 51   51 51 51   51 51 51   51 51 51   51 51 51   51 51 51   51 51 51   51 51 51   51 51 51   
51 51 51   51 51 51   51 51 51   51 51 51   51 51 51   51 51 51   51 51 51   51 51 51   51 51 51   51 51 51   51 51 51   51 51 51   51 51 51   51 51 51   51 51 51   51 51 51   51 51 51   51 51 51   51 51 51   51 51 51   51 51 51   51 51 51   51 51 51   51 51 51   51 51 51   51 51 51   51 51 51   51 51 51   51 51 51   51 51 51   51 51 51   51 51 51   51 51 51   51 51 51   51 51 51   51 51 51   51 51 51   51 51 51   51 51 51   51 51 51   51 51 51   51 51 51   51 51 51   51 51 51   51 51 51   51 51 51   51 51 51   51 51 51   51 51 51   51 51 51   51 51 51   
51 51 51   51 51 51   51 51 51   51 51 51   51 51 51   51 51 51   51 51 51   51 51 51   51 51 51   51 51 51   51 51 51   51 51 51   51 51 51   51 51 51   51 51 51   51 51 51   51 51 51   51 51 51   51 51 51   51 51 51   51 51 51   51 51 51   51 51 51   51 51 51   51 51 51   51 51 51   51 51 51   51 51 51   51 51 51   60 1 17   82 1 23   98 1 27   110 2 31   118 2 33   119 2 33   51 51 51   51 51 51   51 51 51   51 51 51   51 51 51   51 51 51   51 51 51   51 51 51   51 51 51   51 51 51   51 51 51   51 51 51   51 51 51   51 51 51   51 51 51   51 51 51   
51 51 51   51 51 51   51 51 51   51 51 51   51 51 51   51 51 51   51 51 51   51 51 51   51 51 51   51 51 51   51 51 51   51 51 51   51 51 51   51 51 51   51 51 51   51 51 51   51 51 51   51 51 51   51 51 51   51 51 51   51 51 51   51 51 51   51 51 51   51 51 51   51 51 51   51 51 51   51 51 51   51 51 51   46 0 13   69 1 19   86 1 24   100 2 28   112 2 31   122 2 34   129 2 36   131 2 37   51 51 51   51 51 51   51 51 51   51 51 51   51 51 51   113 185 244   148 243 255   167 255 255   51 51 51   51 51 51   51 51 51   51 51 51   51 51 51   51 51 51   51 51 51   
51 51 51   51 51 51   51 51 51   51 51 51   51 51 51   51 51 51   51 51 51   51 51 51   51 51 51   51 51 51   51 51 51   51 51 51   51 51 51   14 12 12   14 12 12   51 51 51   51 51 51   51 51 51   51 51 51   6 8 19   6 8 19   6 8 19   6 8 19   51 51 51   51 51 51   51 51 51   51 51 51   23 0 6   49 0 13   68 1 19   84 1 23   98 1 27   110 2 31   120 2 34   128 2 36   134 2 37   133 2 37   51 51 51   51 51 51   18 31 40   73 120 158   114 187 246   147 242 255   175 255 255   195 255 255   51 51 51   51 51 51   51 51 51   51 51 51   51 51 51   51 51 51   
51 51 51   51 51 51   51 51 51   51 51 51   51 51 51   51 51 51   51 51 51   51 51 51   51 51 51   51 51 51   51 51 51   51 51 51   14 12 12   14 12 12   14 12 12   51 51 51   51 51 51   51 51 51   51 51 51   6 8 19   6 8 19   6 8 19   6 8 19   51 51 51   51 51 51   51 51 51   7 0 2   23 0 6   46 0 13   64 1 18   80 1 22   93 1 26   105 2 29   120 11 33   128 10 35   130 2 36   133 2 37   51 51 51   10 18 23   10 18 23   61 100 132   100 164 216   133 219 255   163 255 255   185 255 255   199 255 255   51 51 51   51 51 51   51 51 51   51 51 51   51 51 51   
51 51 51   51 51 51   51 51 51   51 51 51   51 51 51   51 51 51   51 51 51   51 51 51   51 51 51   51 51 51   51 51 51   51 51 51   51 51 51   14 12 12   14 12 12   51 51 51   51 51 51   51 51 51   51 51 51   6 8 19   6 8 19   6 8 19   6 8 19   51 51 51   51 51 51   51 51 51   7 0 2   18 0 5   40 0 11   58 1 16   73 1 20   87 1 24   98 1 27   109 3 30   129 24 33   124 2 35   128 2 36   124 2 35   10 18 23   10 18 23   41 68 90   80 132 173   114 187 246   143 234 255   167 255 255   184 255 255   51 51 51   51 51 51   51 51 51   51 51 51   51 51 51   
51 51 51   51 51 51   51 51 51   51 51 51   51 51 51   51 51 51   51 51 51   51 51 51   51 51 51   51 51 51   51 51 51   51 51 51   51 51 51   51 51 51   51 51 51   51 51 51   51 51 51   51 51 51   51 51 51   6 8 19   6 8 19   6 8 19   6 8 19   51 51 51   51 51 51   51 51 51   7 0 2   10 0 3   32 0 9   50 1 14   65 1 18   78 1 22   90 1 25   100 2 28   109 2 30   116 2 32   120 2 34   118 2 33   10 18 23   10 18 23   17 28 36   56 92 121   89 147 193   119 195 255   143 235 255   160 255 255   51 51 51   51 51 51   51 51 51   51 51 51   51 51 51   
51 51 51   51 51 51   51 51 51   51 51 51   51 51 51   51 51 51   51 51 51   51 51 51   51 51 51   51 51 51   51 51 51   51 51 51   51 51 51   51 51 51   51 51 51   51 51 51   51 51 51   51 51 51   51 51 51   51 51 51   51 51 51   51 51 51   51 51 51   51 51 51   51 51 51   51 51 51   7 0 2   7 0 2   22 0 6   40 0 11   55 1 15   69 1 19   80 1 22   91 1 25   99 2 28   106 2 30   110 2 31   107 2 30   51 51 51   10 18 23   10 18 23   26 43 57   60 99 131   90 148 194   114 187 246   129 212 255   51 51 51   51 51 51   51 51 51   51 51 51   51 51 51   
51 51 51   51 51 51   51 51 51   51 51 51   51 51 51   51 51 51   51 51 51   51 51 51   51 51 51   51 51 51   51 51 51   51 51 51   51 51 51   51 51 51   51 51 51   51 51 51   51 51 51   51 51 51   51 51 51   51 51 51   51 51 51   51 51 51   51 51 51   51 51 51   51 51 51   51 51 51   7 0 2   7 0 2   10 0 2   28 0 8   44 0 12   57 1 16   69 1 19   79 1 22   88 1 25   94 1 26   98 1 27   93 1 26   51 51 51   10 18 23   10 18 23   10 18 23   25 41 55   54 89 118   76 126 165   73 121 159   51 51 51   51 51 51   51 51 51   51 51 51   51 51 51   
51 51 51   51 51 51   51 51 51   51 51 51   51 51 51   51 51 51   51 51 51   51 51 51   51 51 51   51 51 51   51 51 51   51 51 51   51 51 51   51 51 51   51 51 51   51 51 51   51 51 51   51 51 51   51 51 51   51 51 51   51 51 51   51 51 51   51 51 51   51 51 51   51 51 51   51 51 51   7 0 2   7 0 2   7 0 2   14 0 4   30 0 8   44 0 12   56 1 16   66 1 18   75 1 21   80 1 22   82 1 23   51 51 51   51 51 51   51 51 51   51 51 51   10 18 23   10 18 23   10 18 23   51 51 51   51 51 51   51 51 51   51 51 51   51 51 51   51 51 51   51 51 51   
51 51 51   51 51 51   51 51 51   51 51 51   51 51 51   51 51 51   51 51 51   51 51 51   51 51 51   51 51 51   51 51 51   51 51 51   51 51 51   51 51 51   51 51 51   51 51 51   51 51 51   51 51 51   51 51 51   2 5 5   2 5 5   2 5 5   2 5 5   51 51 51   51 51 51   51 51 51   51 51 51   7 0 2   7 0 2   7 0 2   14 0 4   29 0 8   41 0 11   51 1 14   58 1 16   63 1 17   60 1 17   51 51 51   51 51 51   51 51 51   51 51 51   51 51 51   51 51 51   51 51 51   51 51 51   51 51 51   51 51 51   51 51 51   51 51 51   51 51 51   51 51 51   
51 51 51   51 51 51   51 51 51   51 51 51   51 51 51   51 51 51   51 51 51   51 51 51   51 51 51   51 51 51   51 51 51   51 51 51   51 51 51   51 51 51   51 51 51   51 51 51   51 51 51   14 30 28   2 5 5   2 5 5   2 5 5   2 5 5   2 5 5   2 5 5   51 51 51   51 51 51   51 51 51   51 51 51   7 0 2   7 0 2   7 0 2   9 0 2   22 0 6   31 0 8   37 0 10   37 0 10   51 51 51   51 51 51   51 51 51   51 51 51   51 51 51   51 51 51   51 51 51   51 51 51   51 51 51   51 51 51   51 51 51   51 51 51   51 51 51   51 51 51   51 51 51   
51 51 51   51 51 51   51 51 51   51 51 51   51 51 51   51 51 51   51 51 51   51 51 51   51 51 51   51 51 51   51 51 51   168 152 158   163 147 154   51 51 51   51 51 51   51 51 51   5 10 9   2 5 5   2 5 5   2 5 5   2 5 5   2 5 5   2 5 5   2 5 5   2 5 5   51 51 51   51 51 51   51 51 51   51 51 51   51 51 51   7 0 2   7 0 2   7 0 2   7 0 2   51 51 51   51 51 51   51 51 51   51 51 51   51 51 51   51 51 51   51 51 51   51 51 51   51 51 51   51 51 51   51 51 51   51 51 51   51 51 51   51 51 51   51 51 51   51 51 51   51 51 51   
51 51 51   51 51 51   51 51 51   51 51 51   51 51 51   51 51 51   51 51 51   51 51 51   51 51 51   30 27 28   157 142 149   208 188 196   222 201 210   163 147 154   51 51 51   51 51 51   11 23 21   2 5 5   2 5 5   2 5 5   2 5 5   2 5 5   2 5 5   2 5 5   2 5 5   51 51 51   51 51 51   51 51 51   51 51 51   51 51 51   51 51 51   51 51 51   51 51 51   51 51 51   51 51 51   51 51 51   51 51 51   51 51 51   51 51 51   51 51 51   51 51 51   51 51 51   51 51 51   51 51 51   51 51 51   51 51 51   51 51 51   51 51 51   51 51 51   51 51 51   51 51 51   
51 51 51   51 51 51   51 51 51   51 51 51   51 51 51   51 51 51   51 51 51   51 51 51   51 51 51   58 53 55   149 135 141   194 176 184   208 188 196   168 152 158   51 51 51   2 5 5   11 24 22   2 5 5   2 5 5   2 5 5   2 5 5   2 5 5   2 5 5   2 5 5   2 5 5   2 5 5   51 51 51   51 51 51   51 51 51   73 31 116   183 77 255   227 96 255   51 51 51   51 51 51   51 51 51   51 51 51   51 51 51   51 51 51   51 51 51   51 51 51   51 51 51   51 51 51   51 51 51   51 51 51   51 51 51   51 51 51   51 51 51   51 51 51   51 51 51   51 51 51   51 51 51   
51 51 51   51 51 51   51 51 51   51 51 51   51 51 51   51 51 51   51 51 51   51 51 51   51 51 51   12 11 11   106 96 100   149 135 141   157 142 149   51 51 51   51 51 51   2 5 5   9 20 18   2 5 5   2 5 5   2 5 5   2 5 5   2 5 5   2 5 5   2 5 5   2 5 5   2 5 5   51 51 51   51 51 51   51 51 51   48 20 76   154 65 244   206 87 255   51 51 51   51 51 51   51 51 51   51 51 51   51 51 51   51 51 51   51 51 51   51 51 51   51 51 51   51 51 51   51 51 51   51 51 51   51 51 51   51 51 51   51 51 51   51 51 51   51 51 51   51 51 51   51 51 51   
51 51 51   51 51 51   51 51 51   51 51 51   51 51 51   51 51 51   51 51 51   51 51 51   51 51 51   51 51 51   12 11 11   58 53 55   30 27 28   51 51 51   51 51 51   2 5 5   5 12 11   2 5 5   2 5 5   2 5 5   2 5 5   2 5 5   2 5 5   2 5 5   2 5 5   2 5 5   51 51 51   51 51 51   51 51 51   12 5 19   76 32 121   120 50 191   51 51 51   51 51 51   51 51 51   51 51 51   51 51 51   51 51 51   51 51 51   51 51 51   51 51 51   51 51 51   51 51 51   51 51 51   51 51 51   51 51 51   51 51 51   51 51 51   51 51 51   51 51 51   51 51 51   
51 51 51   51 51 51   51 51 51   51 51 51   51 51 51   51 51 51   51 51 51   51 51 51   51 51 51   51 51 51   51 51 51   51 51 51   51 51 51   51 51 51   51 51 51   51 51 51   2 5 5   11 24 22   2 5 5   2 5 5   2 5 5   2 5 5   2 5 5   2 5 5   2 5 5   51 51 51   51 51 51   51 51 51   51 51 51   51 51 51   51 51 51   51 51 51   51 51 51   51 51 51   51 51 51   51 51 51   51 51 51   51 51 51   51 51 51   51 51 51   51 51 51   51 51 51   51 51 51   51 51 51   51 51 51   51 51 51   51 51 51   51 51 51   51 51 51   51 51 51   51 51 51   
51 51 51   51 51 51   51 51 51   51 51 51   51 51 51   51 51 51   51 51 51   51 51 51   51 51 51   51 51 51   51 51 51   51 51 51   51 51 51   51 51 51   51 51 51   51 51 51   2 5 5   4 8 7   13 27 25   2 5 5   2 5 5   2 5 5   2 5 5   2 5 5   2 5 5   51 51 51   51 51 51   51 51 51   51 51 51   51 51 51   51 51 51   51 51 51   51 51 51   51 51 51   51 51 51   51 51 51   51 51 51   51 51 51   51 51 51   51 51 51   51 51 51   51 51 51   51 51 51   51 51 51   51 51 51   51 51 51   51 51 51   51 51 51   51 51 51   51 51 51   51 51 51   
51 51 51   51 51 51   51 51 51   51 51 51   51 51 51   51 51 51   51 51 51   51 51 51   51 51 51   51 51 51   51 51 51   51 51 51   51 51 51   51 51 51   51 51 51   51 51 51   51 51 51   2 5 5   3 7 7   11 23 21   16 34 31   2 5 5   2 5 5   15 33 30   51 51 51   51 51 51   51 51 51   51 51 51   51 51 51   51 51 51   51 51 51   51 51 51   51 51 51   51 51 51   51 51 51   51 51 51   51 51 51   51 51 51   51 51 51   51 51 51   51 51 51   51 51 51   51 51 51   51 51 51   51 51 51   51 51 51   51 51 51   51 51 51   51 51 51   51 51 51   51 51 51   
51 51 51   51 51 51   51 51 51   51 51 51   51 51 51   51 51 51   51 51 51   51 51 51   51 51 51   51 51 51   51 51 51   51 51 51   51 51 51   51 51 51   51 51 51   51 51 51   51 51 51   51 51 51   51 51 51   2 5 5   2 5 5   3 8 7   51 51 51   51 51 51   51 51 51   51 51 51   51 51 51   51 51 51   51 51 51   51 51 51   51 51 51   51 51 51   51 51 51   51 51 51   51 51 51   51 51 51   51 51 51   51 51 51   51 51 51   51 51 51   51 51 51   51 51 51   51 51 51   51 51 51   51 51 51   51 51 51   51 51 51   51 51 51   51 51 51   51 51 51   51 51 51   
51 51 51   51 51 51   51 51 51   51 51 51   51 51 51   51 51 51   51 51 51   51 51 51   51 51 51   51 51 51   51 51 51   51 51 51   51 51 51   51 51 51   51 51 51   51 51 51   51 51 51   51 51 51   51 51 51   51 51 51   51 51 51   51 51 51   51 51 51   51 51 51   51 51 51   51 51 51   51 51 51   51 51 51   51 51 51   51 51 51   51 51 51   51 51 51   51 51 51   51 51 51   51 51 51   51 51 51   51 51 51   51 51 51   51 51 51   51 51 51   51 51 51   51 51 51   51 51 51   51 51 51   51 51 51   51 51 51   15 13 23   79 70 119   159 141 239   218 193 255   51 51 51   
51 51 51   51 51 51   51 51 51   51 51 51   51 51 51   51 51 51   51 51 51   51 51 51   51 51 51   51 51 51   51 51 51   51 51 51   51 51 51   51 51 51   51 51 51   51 51 51   51 51 51   51 51 51   51 51 51   51 51 51   51 51 51   51 51 51   51 51 51   51 51 51   51 51 51   51 51 51   51 51 51   51 51 51   51 51 51   51 51 51   51 51 51   51 51 51   51 51 51   51 51 51   51 51 51   51 51 51   51 51 51   51 51 51   51 51 51   51 51 51   51 51 51   51 51 51   51 51 51   51 51 51   51 51 51   51 51 51   15 13 23   73 65 110   152 134 228   216 191 255   255 233 255   
51 51 51   51 51 51   51 51 51   51 51 51   51 51 51   51 51 51   51 51 51   51 51 51   51 51 51   51 51 51   51 51 51   51 51 51   51 51 51   51 51 51   51 51 51   51 51 51   51 51 51   51 51 51   51 51 51   51 51 51   51 51 51   51 51 51   51 51 51   51 51 51   51 51 51   51 51 51   51 51 51   51 51 51   51 51 51   51 51 51   51 51 51   51 51 51   51 51 51   51 51 51   51 51 51   51 51 51   51 51 51   51 51 51   51 51 51   51 51 51   51 51 51   51 51 51   51 51 51   51 51 51   51 51 51   51 51 51   15 13 23   47 42 71   127 113 191   193 171 255   255 255 255   
51 51 51   51 51 51   51 51 51   51 51 51   51 51 51   51 51 51   51 51 51   51 51 51   51 51 51   51 51 51   51 51 51   51 51 51   51 51 51   51 51 51   51 51 51   51 51 51   51 51 51   51 51 51   51 51 51   51 51 51   51 51 51   51 51 51   51 51 51   51 51 51   51 51 51   51 51 51   51 51 51   51 51 51   51 51 51   51 51 51   51 51 51   51 51 51   51 51 51   51 51 51   51 51 51   51 51 51   51 51 51   51 51 51   51 51 51   51 51 51   51 51 51   51 51 51   51 51 51   51 51 51   51 51 51   51 51 51   15 13 23   15 13 23   90 80 136   159 140 238   214 189 255   
51 51 51   51 51 51   51 51 51   51 51 51   51 51 51   51 51 51   51 51 51   51 51 51   51 51 51   51 51 51   51 51 51   51 51 51   51 51 51   51 51 51   51 51 51   51 51 51   51 51 51   51 51 51   51 51 51   51 51 51   51 51 51   51 51 51   51 51 51   51 51 51   51 51 51   51 51 51   51 51 51   51 51 51   51 51 51   51 51 51   51 51 51   51 51 51   51 51 51   51 51 51   51 51 51   51 51 51   51 51 51   51 51 51   51 51 51   51 51 51   51 51 51   51 51 51   51 51 51   51 51 51   51 51 51   51 51 51   51 51 51   15 13 23   40 36 61   112 99 168   168 149 252   
