P3
51 51
255
215 194 28   234 212 30   251 227 32   255 242 34   255 255 41   255 255 138   255 255 215   255 255 55   255 255 42   255 255 42   255 255 42   51 51 51   51 51 51   51 51 51   51 51 51   51 51 51   51 51 51   51 51 51   51 51 51   51 51 51   51 51 51   51 51 51   51 51 51   51 51 51   51 51 51   51 51 51   51 51 51   51 51 51   51 51 51   51 51 51   51 51 51   51 51 51   51 51 51   51 51 51   51 51 51   51 51 51   51 51 51   51 51 51   51 51 51   51 51 51   51 51 51   51 51 51   51 51 51   51 51 51   51 51 51   51 51 51   51 51 51   51 51 51   51 51 51   51 51 51   51 51 51   
193 175 25   212 192 27   229 208 30   245 222 32   255 236 34   255 254 41   255 255 66   255 255 48   255 255 39   255 255 40   255 255 40   255 255 38   51 51 51   51 51 51   51 51 51   51 51 51   51 51 51   51 51 51   51 51 51   51 51 51   51 51 51   51 51 51   51 51 51   51 51 51   51 51 51   51 51 51   51 51 51   51 51 51   51 51 51   51 51 51   51 51 51   51 51 51   51 51 51   51 51 51   51 51 51   51 51 51   51 51 51   51 51 51   51 51 51   51 51 51   51 51 51   51 51 51   51 51 51   51 51 51   51 51 51   51 51 51   51 51 51   51 51 51   51 51 51   51 51 51   51 51 51   
169 153 22   188 170 24   206 186 26   222 201 29   237 215 31   250 227 32   255 238 34   255 247 35   255 255 36   255 255 37   255 255 37   255 255 37   51 51 51   51 51 51   51 51 51   51 51 51   51 51 51   51 51 51   51 51 51   51 51 51   51 51 51   51 51 51   51 51 51   51 51 51   51 51 51   51 51 51   51 51 51   51 51 51   51 51 51   51 51 51   51 51 51   51 51 51   51 51 51   51 51 51   51 51 51   51 51 51   51 51 51   51 51 51   51 51 51   51 51 51   51 51 51   51 51 51   51 51 51   51 51 51   51 51 51   51 51 51   51 51 51   51 51 51   51 51 51   51 51 51   51 51 51   
143 129 18   163 147 21   181 164 23   197 178 25   212 192 27   226 204 29   238 215 31   248 225 32   255 233 33   255 238 34   255 241 34   255 237 34   232 211 30   51 51 51   51 51 51   51 51 51   51 51 51   51 51 51   51 51 51   51 51 51   51 51 51   51 51 51   51 51 51   51 51 51   51 51 51   51 51 51   51 51 51   51 51 51   51 51 51   51 51 51   51 51 51   51 51 51   51 51 51   51 51 51   51 51 51   51 51 51   51 51 51   51 51 51   51 51 51   51 51 51   51 51 51   51 51 51   51 51 51   51 51 51   51 51 51   51 51 51   51 51 51   51 51 51   51 51 51   51 51 51   51 51 51   
115 104 15   135 122 17   153 139 20   170 154 22   185 168 24   199 180 26   211 191 27   222 201 29   230 209 30   237 214 30   240 217 31   237 214 30   216 195 28   51 51 51   51 51 51   51 51 51   51 51 51   51 51 51   51 51 51   255 190 86   255 213 96   51 51 51   51 51 51   51 51 51   51 51 51   51 51 51   51 51 51   51 51 51   51 51 51   51 51 51   51 51 51   51 51 51   51 51 51   51 51 51   51 51 51   51 51 51   51 51 51   51 51 51   51 51 51   51 51 51   51 51 51   51 51 51   51 51 51   51 51 51   51 51 51   51 51 51   51 51 51   51 51 51   51 51 51   51 51 51   51 51 51   
84 76 11   105 95 13   124 112 16   141 128 18   156 142 20   170 154 22   183 165 23   193 175 25   202 183 26   208 188 27   211 191 27   207 188 27   187 169 24   51 51 51   51 51 51   51 51 51   51 51 51   169 118 53   232 162 73   255 194 88   255 220 99   255 240 108   255 247 112   51 51 51   51 51 51   51 51 51   51 51 51   51 51 51   51 51 51   51 51 51   51 51 51   51 51 51   51 51 51   51 51 51   51 51 51   51 51 51   51 51 51   51 51 51   51 51 51   51 51 51   51 51 51   51 51 51   51 51 51   51 51 51   51 51 51   51 51 51   51 51 51   51 51 51   51 51 51   51 51 51   51 51 51   
51 46 6   73 66 9   92 83 12   110 99 14   125 113 16   139 126 18   152 137 19   162 147 21   171 155 22   177 160 23   179 162 23   174 158 22   150 136 19   51 51 51   51 51 51   51 51 51   77 54 24   154 108 49   208 145 66   252 176 79   255 202 91   255 225 102   255 238 108   255 239 108   51 51 51   51 51 51   51 51 51   51 51 51   51 51 51   51 51 51   51 51 51   51 51 51   51 51 51   51 51 51   51 51 51   51 51 51   51 51 51   51 51 51   51 51 51   51 51 51   51 51 51   51 51 51   51 51 51   51 51 51   51 51 51   51 51 51   51 51 51   51 51 51   51 51 51   51 51 51   51 51 51   
19 17 2   37 34 4   57 52 7   75 68 9   92 83 12   106 96 13   118 107 15   129 116 16   137 124 17   142 129 18   143 129 18   136 123 17   92 84 12   51 51 51   51 51 51   51 51 51   56 39 17   122 85 38   173 121 55   216 151 68   253 177 80   255 255 132   255 216 97   255 225 102   51 51 51   51 51 51   51 51 51   51 51 51   51 51 51   51 51 51   51 51 51   51 51 51   51 51 51   51 51 51   51 51 51   51 51 51   51 51 51   51 51 51   51 51 51   51 51 51   51 51 51   51 51 51   51 51 51   51 51 51   51 51 51   51 51 51   51 51 51   51 51 51   51 51 51   51 51 51   51 51 51   
19 17 2   19 17 2   19 17 2   38 34 5   54 49 7   69 62 9   81 74 10   92 83 12   99 90 13   103 93 13   102 92 13   90 82 11   51 51 51   51 51 51   51 51 51   51 51 51   19 13 6   81 57 25   132 92 41   175 122 55   212 148 67   243 170 77   255 188 85   255 199 90   51 51 51   51 51 51   51 51 51   51 51 51   51 51 51   51 51 51   51 51 51   51 51 51   51 51 51   51 51 51   51 51 51   51 51 51   51 51 51   51 51 51   91 108 103   157 187 178   210 249 237   254 255 255   51 51 51   51 51 51   51 51 51   51 51 51   51 51 51   51 51 51   51 51 51   51 51 51   51 51 51   
19 17 2   19 17 2   19 17 2   19 17 2   19 17 2   28 25 3   40 36 5   50 45 6   57 51 7   59 53 7   54 49 7   25 23 3   51 51 51   51 51 51   51 51 51   51 51 51   19 13 6   32 22 10   84 59 26   127 89 40   165 115 52   196 137 62   221 155 70   237 166 75   219 153 69   51 51 51   51 51 51   51 64 200   73 90 255   89 111 255   103 127 255   113 140 255   51 51 51   51 51 51   51 51 51   51 51 51   51 51 51   14 17 16   61 72 69   119 141 134   177 203 193   255 255 250   254 255 255   51 51 51   51 51 51   51 51 51   51 51 51   51 51 51   51 51 51   51 51 51   51 51 51   
19 17 2   19 17 2   19 17 2   19 17 2   19 17 2   19 17 2   19 17 2   19 17 2   19 17 2   19 17 2   19 17 2   51 51 51   51 51 51   51 51 51   51 51 51   51 51 51   19 13 6   19 13 6   29 20 9   74 52 23   112 78 35   143 100 45   168 117 53   181 127 57   51 51 51   51 51 51   22 27 85   46 57 181   65 80 252   80 100 255   95 118 255   108 133 255   114 141 255   51 51 51   51 51 51   51 51 51   51 51 51   14 17 16   14 17 16   73 87 83   124 148 140   177 203 193   210 249 237   51 51 51   51 51 51   51 51 51   51 51 51   51 51 51   51 51 51   51 51 51   51 51 51   
51 51 51   19 17 2   19 17 2   19 17 2   19 17 2   19 17 2   19 17 2   19 17 2   19 17 2   19 17 2   51 51 51   51 51 51   51 51 51   51 51 51   51 51 51   51 51 51   19 13 6   19 13 6   19 13 6   19 13 6   51 35 16   82 57 26   105 73 33   112 78 35   51 51 51   51 51 51   14 17 55   36 44 139   53 66 208   69 85 255   83 103 255   217 214 255   103 128 255   107 133 255   51 51 51   51 51 51   51 51 51   14 17 16   14 17 16   14 17 16   73 87 83   119 141 134   157 187 178   51 51 51   51 51 51   51 51 51   51 51 51   51 51 51   51 51 51   51 51 51   51 51 51   
51 51 51   51 51 51   51 51 51   19 17 2   19 17 2   19 17 2   19 17 2   19 17 2   51 51 51   51 51 51   51 51 51   51 51 51   51 51 51   51 51 51   51 51 51   51 51 51   51 51 51   19 13 6   19 13 6   19 13 6   19 13 6   19 13 6   26 18 8   51 51 51   51 51 51   6 7 24   6 7 24   22 28 88   40 50 156   55 69 216   69 85 255   80 100 255   90 112 255   95 119 255   51 51 51   51 51 51   51 51 51   14 17 16   14 17 16   14 17 16   14 17 16   61 72 69   91 108 103   51 51 51   51 51 51   51 51 51   51 51 51   51 51 51   51 51 51   51 51 51   51 51 51   
51 51 51   51 51 51   51 51 51   51 51 51   51 51 51   51 51 51   51 51 51   51 51 51   51 51 51   51 51 51   51 51 51   51 51 51   51 51 51   51 51 51   51 51 51   51 51 51   51 51 51   51 51 51   19 13 6   19 13 6   19 13 6   19 13 6   51 51 51   51 51 51   51 51 51   6 7 24   6 7 24   6 7 24   24 31 96   40 50 156   53 66 209   65 81 254   74 93 255   80 99 255   51 51 51   51 51 51   51 51 51   51 51 51   14 17 16   14 17 16   14 17 16   14 17 16   51 51 51   51 51 51   51 51 51   51 51 51   51 51 51   51 51 51   51 51 51   51 51 51   51 51 51   
51 51 51   51 51 51   51 51 51   51 51 51   51 51 51   51 51 51   51 51 51   51 51 51   51 51 51   51 51 51   51 51 51   51 51 51   51 51 51   51 51 51   51 51 51   51 51 51   51 51 51   51 51 51   51 51 51   51 51 51   51 51 51   51 51 51   51 51 51   51 51 51   51 51 51   6 7 24   6 7 24   6 7 24   6 7 24   23 28 89   36 45 142   48 59 187   57 70 221   59 74 231   51 51 51   51 51 51   51 51 51   51 51 51   51 51 51   51 51 51   51 51 51   51 51 51   51 51 51   51 51 51   51 51 51   51 51 51   51 51 51   51 51 51   51 51 51   51 51 51   51 51 51   
51 51 51   51 51 51   51 51 51   51 51 51   51 51 51   51 51 51   51 51 51   51 51 51   51 51 51   51 51 51   51 51 51   51 51 51   51 51 51   51 51 51   51 51 51   51 51 51   51 51 51   51 51 51   51 51 51   51 51 51   51 51 51   51 51 51   51 51 51   51 51 51   51 51 51   51 51 51   6 7 24   6 7 24   120 68 138   151 85 173   175 99 201   196 111 225   212 120 244   222 125 255   51 51 51   51 51 51   51 51 51   51 51 51   51 51 51   51 51 51   51 51 51   51 51 51   51 51 51   51 51 51   51 51 51   51 51 51   51 51 51   51 51 51   51 51 51   51 51 51   51 51 51   
51 51 51   51 51 51   51 51 51   51 51 51   51 51 51   51 51 51   51 51 51   51 51 51   51 51 51   51 51 51   51 51 51   51 51 51   51 51 51   51 51 51   51 51 51   51 51 51   51 51 51   51 51 51   51 51 51   51 51 51   126 255 255   51 51 51   51 51 51   51 51 51   51 51 51   51 51 51   32 18 36   84 48 97   118 66 135   145 82 166   168 95 193   188 107 216   206 116 236   220 124 253   228 129 255   51 51 51   51 51 51   51 51 51   51 240 107   61 255 127   51 51 51   51 51 51   51 51 51   51 51 51   51 51 51   51 51 51   51 51 51   51 51 51   51 51 51   51 51 51   51 51 51   
51 51 51   51 51 51   51 51 51   51 51 51   51 51 51   51 51 51   51 51 51   51 51 51   51 51 51   51 51 51   51 51 51   51 51 51   51 51 51   51 51 51   51 51 51   51 51 51   51 51 51   51 51 51   10 22 23   10 22 23   150 255 255   169 255 255   180 255 255   174 255 255   51 51 51   51 51 51   38 21 44   77 43 88   107 61 123   133 75 153   156 88 179   177 100 203   255 119 253   218 119 244   220 124 253   222 125 255   26 123 55   39 185 82   50 236 105   60 255 125   68 255 141   74 255 155   51 51 51   51 51 51   51 51 51   51 51 51   51 51 51   51 51 51   51 51 51   51 51 51   51 51 51   
51 51 51   51 51 51   51 51 51   51 51 51   51 51 51   51 51 51   51 51 51   51 51 51   51 51 51   51 51 51   51 51 51   51 51 51   51 51 51   51 51 51   51 51 51   51 51 51   51 51 51   10 22 23   89 199 210   119 255 255   143 255 255   162 255 255   176 255 255   182 255 255   158 255 255   12 7 14   28 15 32   63 36 73   93 52 106   118 67 136   140 79 161   161 91 185   237 109 231   255 119 253   206 116 236   212 120 244   23 107 48   35 163 73   45 212 94   54 255 114   65 255 133   70 255 146   75 255 157   51 51 51   51 51 51   51 51 51   51 51 51   51 51 51   51 51 51   51 51 51   51 51 51   
51 51 51   51 51 51   51 51 51   51 51 51   51 51 51   51 51 51   51 51 51   51 51 51   51 51 51   51 51 51   51 51 51   5 21 21   5 21 21   5 21 21   51 51 51   51 51 51   51 51 51   38 85 90   77 172 182   106 237 250   129 255 255   152 255 255   255 255 255   170 255 255   10 22 23   12 7 14   12 7 14   46 26 53   75 42 86   100 57 115   123 69 141   143 81 164   161 91 185   177 100 203   188 107 216   196 111 225   17 80 35   28 134 60   39 182 81   48 225 100   61 255 121   82 255 147   69 255 145   70 255 147   51 51 51   51 51 51   51 51 51   51 51 51   51 51 51   51 51 51   51 51 51   
51 51 51   51 51 51   51 51 51   51 51 51   51 51 51   51 51 51   51 51 51   51 51 51   51 51 51   51 51 51   5 21 21   5 21 21   5 21 21   5 21 21   5 21 21   51 51 51   10 22 23   21 47 50   58 131 138   87 194 205   110 246 255   128 255 255   143 255 255   10 22 23   10 22 23   12 7 14   12 7 14   26 14 30   55 31 63   80 45 92   103 58 118   123 69 141   140 79 161   156 88 179   168 95 193   175 99 201   9 45 20   21 99 44   31 146 65   40 189 84   49 228 102   56 255 117   62 255 130   65 255 136   51 51 51   51 51 51   51 51 51   51 51 51   51 51 51   51 51 51   51 51 51   
51 51 51   51 51 51   51 51 51   51 51 51   51 51 51   51 51 51   51 51 51   51 51 51   51 51 51   51 51 51   5 21 21   5 21 21   5 21 21   5 21 21   5 21 21   51 51 51   51 51 51   10 22 23   34 76 81   63 141 149   86 193 204   105 234 247   119 255 255   10 22 23   10 22 23   12 7 14   12 7 14   12 7 14   32 18 37   57 32 66   80 45 92   100 57 115   118 67 136   133 75 153   145 82 166   151 85 173   4 19 8   12 59 26   23 107 47   32 150 67   40 189 84   47 223 99   53 250 112   56 255 117   51 51 51   51 51 51   51 51 51   51 51 51   51 51 51   51 51 51   51 51 51   
51 51 51   51 51 51   51 51 51   51 51 51   51 51 51   51 51 51   51 51 51   51 51 51   51 51 51   51 51 51   51 51 51   5 21 21   5 21 21   5 21 21   51 51 51   51 51 51   51 51 51   10 22 23   10 22 23   34 76 80   58 129 136   76 170 180   10 22 23   10 22 23   10 22 23   12 7 14   12 7 14   12 7 14   12 7 14   32 18 37   55 31 63   75 42 86   93 52 106   107 61 123   118 66 135   120 68 138   4 19 8   4 19 8   13 62 28   22 106 47   31 144 64   38 177 79   43 203 90   51 51 51   51 51 51   51 51 51   51 51 51   51 51 51   51 51 51   51 51 51   51 51 51   
51 51 51   51 51 51   51 51 51   51 51 51   51 51 51   51 51 51   51 51 51   51 51 51   51 51 51   51 51 51   51 51 51   51 51 51   51 51 51   51 51 51   51 51 51   51 51 51   51 51 51   10 22 23   10 22 23   10 22 23   22 50 53   41 92 97   10 22 23   10 22 23   51 51 51   51 51 51   12 7 14   12 7 14   12 7 14   12 7 14   26 14 30   46 26 53   63 36 73   77 43 88   84 48 97   4 19 8   4 19 8   4 19 8   4 19 8   11 55 24   20 93 41   26 125 55   30 144 64   51 51 51   51 51 51   51 51 51   51 51 51   51 51 51   51 51 51   51 51 51   51 51 51   
51 51 51   51 51 51   51 51 51   51 51 51   51 51 51   51 51 51   51 51 51   51 51 51   51 51 51   51 51 51   51 51 51   51 51 51   51 51 51   51 51 51   51 51 51   51 51 51   51 51 51   51 51 51   10 22 23   10 22 23   10 22 23   10 22 23   10 22 23   51 51 51   51 51 51   51 51 51   51 51 51   12 7 14   12 7 14   12 7 14   12 7 14   12 7 14   28 15 32   38 21 44   32 18 36   51 51 51   4 19 8   4 19 8   4 19 8   4 19 8   6 31 14   12 56 25   51 51 51   51 51 51   51 51 51   51 51 51   51 51 51   51 51 51   51 51 51   51 51 51   51 51 51   
51 51 51   51 51 51   51 51 51   51 51 51   51 51 51   51 51 51   51 51 51   51 51 51   51 51 51   51 51 51   51 51 51   51 51 51   51 51 51   51 51 51   51 51 51   51 51 51   51 51 51   51 51 51   51 51 51   51 51 51   51 51 51   51 51 51   51 51 51   51 51 51   51 51 51   51 51 51   51 51 51   51 51 51   12 7 14   128 139 167   158 172 206   181 197 236   199 215 255   209 227 255   51 51 51   51 51 51   51 51 51   4 19 8   4 19 8   4 19 8   51 51 51   51 51 51   51 51 51   51 51 51   51 51 51   51 51 51   51 51 51   51 51 51   51 51 51   51 51 51   51 51 51   
51 51 51   51 51 51   51 51 51   51 51 51   51 51 51   51 51 51   51 51 51   51 51 51   51 51 51   51 51 51   9 13 16   121 173 213   145 207 255   9 13 16   9 13 16   9 13 16   51 51 51   51 51 51   51 51 51   51 51 51   51 51 51   51 51 51   51 51 51   51 51 51   51 51 51   51 51 51   51 51 51   66 71 85   109 118 142   140 152 182   166 180 215   187 203 244   205 223 255   220 238 255   229 249 255   229 248 255   51 51 51   51 51 51   51 51 51   51 51 51   51 51 51   51 51 51   51 51 51   51 51 51   51 51 51   51 51 51   51 51 51   51 51 51   51 51 51   51 51 51   51 51 51   
51 51 51   51 51 51   51 51 51   51 51 51   51 51 51   51 51 51   51 51 51   51 51 51   51 51 51   45 64 79   96 138 170   126 181 223   147 210 255   167 233 255   9 13 16   9 13 16   9 13 16   51 51 51   51 51 51   51 51 51   51 51 51   51 51 51   51 51 51   51 51 51   51 51 51   51 51 51   27 30 35   77 83 100   111 121 145   140 151 181   164 177 213   186 201 249   207 225 255   225 244 255   233 253 255   237 255 255   233 252 255   51 51 51   51 51 51   51 51 51   51 51 51   51 51 51   51 51 51   51 51 51   51 51 51   51 51 51   51 51 51   51 51 51   51 51 51   51 51 51   51 51 51   
51 51 51   51 51 51   51 51 51   51 51 51   51 51 51   51 51 51   51 51 51   51 51 51   51 51 51   53 75 93   93 133 164   120 171 211   140 200 246   224 248 255   231 255 255   9 13 16   9 13 16   157 133 207   238 201 255   255 236 255   255 248 255   51 51 51   51 51 51   51 51 51   51 51 51   51 51 51   34 37 45   75 81 98   107 116 139   134 145 174   157 170 206   181 196 253   209 227 255   235 255 255   242 255 255   237 255 255   237 255 255   51 51 51   113 15 79   169 23 119   51 51 51   51 51 51   51 51 51   51 51 51   51 51 51   51 51 51   51 51 51   51 51 51   51 51 51   51 51 51   51 51 51   
51 51 51   51 51 51   51 51 51   51 51 51   51 51 51   51 51 51   51 51 51   51 51 51   51 51 51   43 61 75   80 114 141   106 152 187   126 179 221   142 200 246   152 212 255   149 213 255   112 95 148   202 171 255   255 219 255   255 252 255   255 255 255   255 255 255   51 51 51   51 51 51   51 51 51   13 14 16   30 33 39   68 73 88   98 107 128   124 135 162   148 160 193   171 185 239   200 217 255   231 252 255   244 255 255   235 255 255   231 250 255   224 243 255   89 12 62   162 128 146   173 23 122   51 51 51   51 51 51   51 51 51   51 51 51   51 51 51   51 51 51   51 51 51   51 51 51   51 51 51   51 51 51   
51 51 51   51 51 51   51 51 51   51 51 51   51 51 51   51 51 51   51 51 51   51 51 51   51 51 51   22 31 39   60 86 106   86 123 152   106 151 186   119 170 210   127 181 223   17 15 23   124 105 163   198 167 255   251 212 255   255 244 255   255 255 255   255 255 255   255 248 255   51 51 51   51 51 51   13 14 16   20 22 26   57 61 74   87 94 113   113 122 146   135 147 176   157 170 211   181 196 255   207 225 255   224 243 255   223 242 255   220 239 255   217 235 255   36 5 25   97 13 68   120 16 84   51 51 51   51 51 51   51 51 51   51 51 51   51 51 51   51 51 51   51 51 51   51 51 51   51 51 51   51 51 51   
51 51 51   51 51 51   51 51 51   51 51 51   51 51 51   51 51 51   51 51 51   51 51 51   51 51 51   9 13 16   31 45 56   59 85 105   79 113 139   92 132 163   99 141 174   17 15 23   106 89 139   175 148 230   226 191 255   255 223 255   255 244 255   255 252 255   255 236 255   51 51 51   51 51 51   13 14 16   13 14 16   42 46 55   72 79 94   98 107 128   121 131 157   141 153 185   161 174 219   180 196 255   196 212 255   202 220 255   206 223 255   204 221 255   10 1 7   10 1 7   51 51 51   51 51 51   51 51 51   51 51 51   51 51 51   51 51 51   51 51 51   51 51 51   51 51 51   51 51 51   51 51 51   
51 51 51   51 51 51   51 51 51   51 51 51   51 51 51   51 51 51   51 51 51   51 51 51   51 51 51   51 51 51   9 13 16   22 32 40   43 62 77   56 80 99   61 87 107   17 15 23   68 57 90   138 117 181   189 159 248   226 191 255   251 212 255   255 219 255   238 201 255   51 51 51   51 51 51   13 14 16   13 14 16   25 27 33   55 60 72   82 89 106   105 113 136   125 135 162   143 155 187   159 172 211   173 187 231   182 198 240   188 204 245   185 201 241   51 51 51   51 51 51   51 51 51   51 51 51   51 51 51   51 51 51   51 51 51   51 51 51   51 51 51   51 51 51   51 51 51   51 51 51   51 51 51   
51 51 51   51 51 51   51 51 51   51 51 51   51 51 51   51 51 51   51 51 51   51 51 51   51 51 51   51 51 51   51 51 51   9 13 16   9 13 16   9 13 16   9 13 16   51 51 51   17 15 23   86 72 113   138 117 181   175 148 230   198 167 255   202 171 255   157 133 207   51 51 51   51 51 51   13 14 16   13 14 16   13 14 16   36 39 46   62 68 81   86 93 111   106 115 138   124 134 161   140 151 182   152 165 199   162 176 211   167 181 217   161 174 209   51 51 51   51 51 51   51 51 51   51 51 51   51 51 51   51 51 51   51 51 51   51 51 51   51 51 51   51 51 51   51 51 51   51 51 51   51 51 51   
51 51 51   51 51 51   51 51 51   51 51 51   51 51 51   51 51 51   51 51 51   51 51 51   51 51 51   51 51 51   51 51 51   51 51 51   51 51 51   51 51 51   51 51 51   51 51 51   17 15 23   17 15 23   68 57 90   106 89 139   124 105 163   112 95 148   51 51 51   51 51 51   51 51 51   51 51 51   13 14 16   13 14 16   13 14 16   40 43 52   64 69 83   85 92 110   103 111 133   118 128 153   130 141 169   139 151 181   141 153 184   114 124 149   51 51 51   51 51 51   51 51 51   51 51 51   51 51 51   51 51 51   51 51 51   51 51 51   51 51 51   51 51 51   51 51 51   51 51 51   51 51 51   
51 51 51   51 51 51   51 51 51   51 51 51   51 51 51   51 51 51   51 51 51   51 51 51   51 51 51   51 51 51   51 51 51   51 51 51   51 51 51   51 51 51   51 51 51   51 51 51   51 51 51   51 51 51   17 15 23   17 15 23   17 15 23   13 11 1   13 11 1   51 51 51   51 51 51   23 8 24   13 14 16   13 14 16   13 14 16   13 14 16   38 41 50   59 64 77   77 84 101   92 100 120   104 113 135   110 119 143   105 114 137   51 51 51   51 51 51   51 51 51   51 51 51   51 51 51   51 51 51   51 51 51   51 51 51   51 51 51   51 51 51   51 51 51   51 51 51   51 51 51   51 51 51   
51 51 51   51 51 51   51 51 51   51 51 51   51 51 51   51 51 51   51 51 51   51 51 51   51 51 51   51 51 51   51 51 51   51 51 51   51 51 51   51 51 51   51 51 51   51 51 51   51 51 51   51 51 51   13 11 1   13 11 1   13 11 1   13 11 1   13 11 1   13 11 1   51 51 51   23 8 24   112 42 118   13 14 16   13 14 16   13 14 16   13 14 16   28 31 37   47 51 61   61 66 79   70 76 91   69 74 89   51 51 51   51 51 51   51 51 51   51 51 51   51 51 51   51 51 51   51 51 51   51 51 51   51 51 51   51 51 51   51 51 51   51 51 51   51 51 51   51 51 51   51 51 51   
51 51 51   51 51 51   51 51 51   51 51 51   51 51 51   51 51 51   51 51 51   51 51 51   51 51 51   51 51 51   51 51 51   51 51 51   51 51 51   51 51 51   51 51 51   51 51 51   51 51 51   13 11 1   13 11 1   13 11 1   13 11 1   13 11 1   13 11 1   13 11 1   13 11 1   23 8 24   88 33 94   169 64 179   233 89 247   13 14 16   13 14 16   13 14 16   13 14 16   14 16 19   13 14 16   51 51 51   51 51 51   51 51 51   51 51 51   51 51 51   51 51 51   51 51 51   51 51 51   51 51 51   51 51 51   51 51 51   51 51 51   51 51 51   51 51 51   51 51 51   51 51 51   
51 51 51   51 51 51   51 51 51   5 169 204   5 199 241   6 213 255   6 215 255   5 198 239   51 51 51   51 51 51   51 51 51   51 51 51   51 51 51   51 51 51   51 51 51   51 51 51   51 51 51   13 11 1   13 11 1   13 11 1   13 11 1   13 11 1   13 11 1   13 11 1   13 11 1   23 8 24   52 20 55   133 51 142   199 75 211   252 96 255   255 113 255   255 125 255   255 134 255   255 135 255   51 51 51   51 51 51   51 51 51   51 51 51   17 46 18   81 211 84   115 255 121   51 51 51   51 51 51   51 51 51   51 51 51   51 51 51   51 51 51   51 51 51   51 51 51   51 51 51   51 51 51   
51 51 51   5 177 214   6 213 255   7 237 255   7 254 255   7 255 255   8 255 255   8 255 255   7 255 255   6 225 255   51 51 51   51 51 51   51 51 51   51 51 51   51 51 51   51 51 51   51 51 51   13 11 1   13 11 1   13 11 1   13 11 1   13 11 1   13 11 1   13 11 1   13 11 1   23 8 24   23 8 24   87 33 93   154 59 164   209 79 221   252 96 255   255 109 255   255 116 255   255 114 255   51 51 51   51 51 51   51 51 51   51 51 51   6 17 6   65 170 68   166 255 124   51 51 51   51 51 51   51 51 51   51 51 51   51 51 51   51 51 51   51 51 51   51 51 51   51 51 51   51 51 51   
5 187 227   6 222 255   7 247 255   7 255 255   8 255 255   8 255 255   8 255 255   8 255 255   8 255 255   8 255 255   7 241 255   51 51 51   51 51 51   51 51 51   51 51 51   51 51 51   51 51 51   13 11 1   13 11 1   13 11 1   13 11 1   13 11 1   13 11 1   13 11 1   13 11 1   51 51 51   23 8 24   23 8 24   98 37 103   154 58 163   197 75 209   228 87 242   243 92 255   212 80 224   51 51 51   51 51 51   51 51 51   51 51 51   6 17 6   29 76 30   69 181 72   51 51 51   51 51 51   51 51 51   51 51 51   51 51 51   51 51 51   51 51 51   51 51 51   51 51 51   51 51 51   
6 218 255   7 245 255   7 255 255   8 255 255   8 255 255   9 255 255   9 255 255   9 255 255   9 255 255   8 255 255   8 255 255   6 225 255   51 51 51   51 51 51   51 51 51   51 51 51   51 51 51   51 51 51   13 11 1   13 11 1   13 11 1   13 11 1   13 11 1   13 11 1   51 51 51   51 51 51   51 51 51   23 8 24   23 8 24   81 30 85   124 47 131   150 57 159   142 54 151   51 51 51   51 51 51   51 51 51   51 51 51   51 51 51   51 51 51   51 51 51   51 51 51   51 51 51   51 51 51   51 51 51   51 51 51   51 51 51   51 51 51   51 51 51   51 51 51   51 51 51   51 51 51   
7 234 255   7 255 255   8 255 255   8 255 255   9 255 255   9 255 255   9 255 255   9 255 255   9 255 255   9 255 255   8 255 255   7 255 255   51 51 51   51 51 51   51 51 51   51 51 51   51 51 51   51 51 51   51 51 51   13 11 1   13 11 1   13 11 1   13 11 1   51 51 51   51 51 51   51 51 51   51 51 51   51 51 51   23 8 24   23 8 24   23 8 24   51 51 51   51 51 51   51 51 51   51 51 51   51 51 51   51 51 51   51 51 51   51 51 51   51 51 51   51 51 51   51 51 51   51 51 51   51 51 51   51 51 51   51 51 51   51 51 51   51 51 51   51 51 51   51 51 51   51 51 51   
7 243 255   7 255 255   8 255 255   8 255 255   9 255 255   9 255 255   10 255 255   9 255 255   9 255 255   9 255 255   8 255 255   8 255 255   5 198 239   51 51 51   51 51 51   51 51 51   51 51 51   51 51 51   51 51 51   51 51 51   51 51 51   51 51 51   51 51 51   51 51 51   51 51 51   51 51 51   51 51 51   51 51 51   51 51 51   51 51 51   51 51 51   51 51 51   51 51 51   51 51 51   51 51 51   51 51 51   51 51 51   51 51 51   51 51 51   51 51 51   51 51 51   51 51 51   51 51 51   51 51 51   51 51 51   51 51 51   51 51 51   51 51 51   51 51 51   51 51 51   51 51 51   
7 247 255   7 255 255   8 255 255   8 255 255   10 255 255   81 255 255   79 255 255   10 255 255   9 255 255   9 255 255   8 255 255   8 255 255   6 215 255   51 51 51   51 51 51   51 51 51   51 51 51   51 51 51   51 51 51   51 51 51   51 51 51   51 51 51   51 51 51   51 51 51   51 51 51   51 51 51   51 51 51   51 51 51   51 51 51   51 51 51   51 51 51   51 51 51   51 51 51   51 51 51   51 51 51   51 51 51   51 51 51   51 51 51   51 51 51   51 51 51   51 51 51   51 51 51   51 51 51   51 51 51   51 51 51   51 51 51   51 51 51   51 51 51   51 51 51   51 51 51   51 51 51   
7 247 255   7 255 255   8 255 255   8 255 255   12 255 255   124 255 255   81 255 255   9 255 255   9 255 255   9 255 255   8 255 255   7 255 255   6 213 255   51 51 51   51 51 51   51 51 51   51 51 51   51 51 51   51 51 51   51 51 51   51 51 51   51 51 51   51 51 51   51 51 51   51 51 51   51 51 51   51 51 51   51 51 51   51 51 51   51 51 51   51 51 51   51 51 51   51 51 51   51 51 51   51 51 51   51 51 51   51 51 51   51 51 51   51 51 51   51 51 51   51 51 51   51 51 51   51 51 51   51 51 51   51 51 51   51 51 51   51 51 51   51 51 51   51 51 51   51 51 51   51 51 51   
7 244 255   7 255 255   8 255 255   8 255 255   9 255 255   12 255 255   10 255 255   9 255 255   9 255 255   8 255 255   8 255 255   7 254 255   5 199 241   51 51 51   51 51 51   51 51 51   51 51 51   51 51 51   51 51 51   51 51 51   51 51 51   51 51 51   51 51 51   51 51 51   51 51 51   51 51 51   51 51 51   51 51 51   51 51 51   51 51 51   51 51 51   51 51 51   51 51 51   51 51 51   51 51 51   51 51 51   51 51 51   51 51 51   51 51 51   51 51 51   51 51 51   51 51 51   51 51 51   51 51 51   51 51 51   51 51 51   51 51 51   51 51 51   51 51 51   51 51 51   51 51 51   
7 237 255   7 254 255   8 255 255   8 255 255   8 255 255   8 255 255   8 255 255   8 255 255   8 255 255   8 255 255   7 255 255   7 237 255   5 169 204   51 51 51   51 51 51   51 51 51   51 51 51   51 51 51   51 51 51   51 51 51   51 51 51   51 51 51   51 51 51   51 51 51   51 51 51   51 51 51   51 51 51   51 51 51   51 51 51   51 51 51   51 51 51   51 51 51   51 51 51   51 51 51   51 51 51   51 51 51   51 51 51   51 51 51   51 51 51   51 51 51   51 51 51   51 51 51   51 51 51   51 51 51   51 51 51   51 51 51   51 51 51   51 51 51   51 51 51   51 51 51   51 51 51   
6 228 255   7 244 255   7 255 255   8 255 255   8 255 255   8 255 255   8 255 255   8 255 255   8 255 255   7 255 255   7 247 255   6 213 255   51 51 51   51 51 51   51 51 51   51 51 51   51 51 51   51 51 51   51 51 51   51 51 51   51 51 51   51 51 51   51 51 51   51 51 51   51 51 51   51 51 51   51 51 51   51 51 51   51 51 51   51 51 51   51 51 51   51 51 51   51 51 51   51 51 51   51 51 51   51 51 51   51 51 51   51 51 51   51 51 51   51 51 51   51 51 51   51 51 51   51 51 51   51 51 51   51 51 51   51 51 51   51 51 51   51 51 51   51 51 51   51 51 51   51 51 51   
6 216 255   6 232 255   7 244 255   7 254 255   7 255 255   7 255 255   7 255 255   7 255 255   7 255 255   7 245 255   6 222 255   5 177 214   51 51 51   51 51 51   51 51 51   51 51 51   51 51 51   51 51 51   51 51 51   51 51 51   51 51 51   51 51 51   51 51 51   51 51 51   51 51 51   51 51 51   51 51 51   51 51 51   51 51 51   51 51 51   51 51 51   51 51 51   51 51 51   51 51 51   51 51 51   51 51 51   51 51 51   51 51 51   51 51 51   51 51 51   51 51 51   51 51 51   51 51 51   51 51 51   51 51 51   51 51 51   51 51 51   51 51 51   51 51 51   51 51 51   51 51 51   
6 201 243   6 216 255   6 228 255   7 237 255   7 244 255   7 247 255   7 247 255   7 243 255   7 234 255   6 218 255   5 187 227   51 51 51   51 51 51   51 51 51   51 51 51   51 51 51   51 51 51   51 51 51   51 51 51   51 51 51   51 51 51   51 51 51   51 51 51   51 51 51   51 51 51   51 51 51   51 51 51   51 51 51   51 51 51   51 51 51   51 51 51   51 51 51   51 51 51   51 51 51   51 51 51   51 51 51   51 51 51   51 51 51   51 51 51   51 51 51   51 51 51   51 51 51   51 51 51   51 51 51   51 51 51   51 51 51   51 51 51   51 51 51   51 51 51   51 51 51   51 51 51   
