P3
51 51
255
194 144 239   238 177 255   255 202 255   255 227 255   255 252 255   255 255 255   255 255 255   255 255 255   51 51 51   51 51 51   51 51 51   51 51 51   51 51 51   51 51 51   51 51 51   51 51 51   51 51 51   51 51 51   51 51 51   51 51 51   51 51 51   51 51 51   51 51 51   51 51 51   51 51 51   51 51 51   51 51 51   51 51 51   51 51 51   51 51 51   51 51 51   51 51 51   51 51 51   51 51 51   20 8 3   58 24 10   95 40 17   130 54 24   162 68 30   194 82 36   225 95 42   255 144 93   255 150 90   255 132 58   255 144 63   51 51 51   51 51 51   51 51 51   51 51 51   51 51 51   51 51 51   
173 129 213   213 158 255   249 183 255   255 212 255   255 250 255   255 255 255   255 255 255   255 255 255   255 250 255   51 51 51   51 51 51   218 229 65   255 255 81   255 255 92   255 255 100   51 51 51   51 51 51   51 51 51   51 51 51   51 51 51   51 51 51   51 51 51   51 51 51   51 51 51   51 51 51   51 51 51   51 51 51   51 51 51   51 51 51   51 51 51   51 51 51   51 51 51   51 51 51   20 8 3   20 8 3   27 11 5   64 27 12   99 41 18   131 55 24   163 69 30   194 82 36   225 95 42   255 108 48   255 119 52   255 131 58   51 51 51   51 51 51   51 51 51   51 51 51   51 51 51   51 51 51   
142 106 175   182 135 223   215 159 255   255 184 255   255 218 255   255 255 255   255 255 255   255 251 255   255 237 255   255 222 255   148 155 44   208 218 62   252 255 76   255 255 87   255 255 95   255 255 101   255 255 101   51 51 51   51 51 51   0 70 29   0 97 40   0 116 48   0 131 54   0 140 58   51 51 51   51 51 51   51 51 51   51 51 51   51 51 51   51 51 51   51 51 51   51 51 51   51 51 51   20 8 3   20 8 3   20 8 3   32 13 6   66 28 12   100 42 18   132 55 24   162 68 30   193 81 36   222 93 41   251 106 46   255 117 52   51 51 51   51 51 51   51 51 51   51 51 51   51 51 51   51 51 51   
105 78 129   145 107 178   178 132 219   208 154 255   249 176 255   255 202 255   255 221 255   255 222 255   255 215 255   255 208 255   123 129 37   177 186 53   220 231 66   255 255 77   255 255 125   255 255 95   255 255 97   51 51 51   0 31 13   0 63 26   0 86 35   0 104 43   1 120 50   0 132 55   0 139 57   51 51 51   51 51 51   51 51 51   51 51 51   51 51 51   51 51 51   51 51 51   51 51 51   20 8 3   20 8 3   20 8 3   20 8 3   33 14 6   67 28 12   99 41 18   130 55 24   160 67 29   189 80 35   218 92 40   245 103 45   51 51 51   51 51 51   51 51 51   51 51 51   51 51 51   51 51 51   
62 46 76   103 76 126   137 102 168   166 123 204   192 142 235   218 159 255   242 174 255   253 183 255   252 186 255   246 183 255   84 89 25   137 144 41   180 189 54   216 227 65   246 255 74   255 255 82   255 255 86   255 255 86   0 21 8   0 48 20   0 70 29   0 88 36   2 106 45   17 145 74   0 127 52   51 51 51   51 51 51   51 51 51   51 51 51   51 51 51   51 51 51   51 51 51   51 51 51   20 8 3   20 8 3   20 8 3   20 8 3   20 8 3   32 13 6   65 27 12   96 40 18   126 53 23   155 65 29   184 77 34   209 88 39   51 51 51   51 51 51   51 51 51   51 51 51   51 51 51   51 51 51   
19 14 24   55 41 68   91 67 112   121 90 149   147 109 180   168 125 207   187 138 229   200 148 246   207 154 255   203 151 250   37 39 11   90 95 27   133 140 40   170 179 51   201 212 60   227 238 68   244 255 73   248 255 75   0 7 3   0 30 12   0 51 21   0 69 29   0 85 35   0 99 41   0 109 45   0 110 45   51 51 51   51 51 51   51 51 51   51 51 51   51 51 51   51 51 51   51 51 51   20 8 3   20 8 3   20 8 3   20 8 3   20 8 3   20 8 3   29 12 5   60 25 11   91 38 17   120 50 22   147 62 27   51 51 51   110 102 32   126 118 37   141 131 41   155 145 45   169 157 49   182 169 53   
19 14 24   19 14 24   39 29 48   70 52 87   97 72 120   119 89 147   138 102 169   151 112 186   157 117 194   152 113 187   18 19 5   36 38 11   81 85 24   119 125 35   150 158 45   176 185 53   193 203 58   197 207 59   0 7 3   0 7 3   0 30 12   0 48 20   0 64 26   0 78 32   0 88 36   0 90 37   51 51 51   51 51 51   51 51 51   51 51 51   51 51 51   51 51 51   51 51 51   20 8 3   20 8 3   20 8 3   20 8 3   20 8 3   20 8 3   20 8 3   20 8 3   53 22 9   81 34 15   106 44 19   84 78 24   100 93 29   115 107 33   130 121 38   143 133 42   157 146 45   170 158 49   
19 14 24   19 14 24   19 14 24   19 14 24   41 30 51   64 48 79   82 61 101   95 70 117   100 74 123   88 65 109   18 19 5   18 19 5   18 19 5   60 63 18   92 97 27   117 124 35   134 141 40   18 19 5   0 7 3   0 7 3   0 7 3   0 25 10   0 41 17   0 54 22   0 64 26   0 60 25   51 51 51   14 32 4   86 196 24   131 255 38   51 51 51   51 51 51   51 51 51   51 51 51   20 8 3   20 8 3   20 8 3   20 8 3   20 8 3   20 8 3   20 8 3   20 8 3   37 15 7   57 53 16   73 68 21   89 83 26   104 96 30   118 109 34   132 123 38   152 141 45   171 160 52   
51 51 51   19 14 24   19 14 24   19 14 24   19 14 24   19 14 24   19 14 24   29 21 36   29 21 35   19 14 24   18 19 5   18 19 5   18 19 5   18 19 5   25 26 7   50 52 15   62 65 18   18 19 5   0 7 3   0 7 3   0 7 3   0 7 3   0 14 6   0 27 11   0 34 14   51 51 51   51 51 51   8 18 2   42 96 12   86 198 24   112 255 32   51 51 51   51 51 51   51 51 51   51 51 51   20 8 3   20 8 3   20 8 3   20 8 3   20 8 3   20 8 3   20 8 3   27 25 8   45 42 13   61 57 18   77 71 22   91 85 26   105 98 30   120 111 35   163 153 52   255 255 119   
51 51 51   51 51 51   19 14 24   19 14 24   19 14 24   19 14 24   19 14 24   19 14 24   19 14 24   51 51 51   51 51 51   18 19 5   18 19 5   18 19 5   18 19 5   18 19 5   18 19 5   51 51 51   51 51 51   0 7 3   0 7 3   0 7 3   0 7 3   0 7 3   51 51 51   51 51 51   51 51 51   8 18 2   8 18 2   29 66 8   51 51 51   51 51 51   51 51 51   51 51 51   51 51 51   51 51 51   20 8 3   20 8 3   20 8 3   20 8 3   10 10 3   10 10 3   15 14 4   33 31 9   49 46 14   64 60 18   79 73 23   93 86 27   106 99 31   128 120 38   242 230 87   
51 51 51   51 51 51   51 51 51   51 51 51   51 51 51   51 51 51   51 51 51   51 51 51   51 51 51   51 51 51   51 51 51   51 51 51   51 51 51   51 51 51   51 51 51   51 51 51   51 51 51   51 51 51   51 51 51   51 51 51   51 51 51   0 7 3   51 51 51   51 51 51   51 51 51   51 51 51   51 51 51   51 51 51   51 51 51   51 51 51   51 51 51   51 51 51   51 51 51   51 51 51   42 1 52   102 2 124   144 3 175   180 4 220   213 14 255   241 9 255   10 10 3   10 10 3   10 10 3   20 19 5   36 34 10   51 48 15   66 61 19   80 74 23   94 87 27   107 100 31   128 119 38   
51 51 51   51 51 51   51 51 51   51 51 51   51 51 51   51 51 51   51 51 51   51 51 51   51 51 51   51 51 51   51 51 51   51 51 51   51 51 51   51 51 51   51 51 51   51 51 51   51 51 51   51 51 51   51 51 51   51 51 51   51 51 51   51 51 51   51 51 51   51 51 51   51 51 51   51 51 51   51 51 51   51 51 51   51 51 51   51 51 51   51 51 51   51 51 51   51 51 51   51 51 51   10 255 31   12 255 37   13 255 42   155 4 189   190 48 252   10 10 3   10 10 3   10 10 3   10 10 3   10 10 3   23 21 6   38 35 11   53 49 15   67 62 19   81 75 23   94 87 27   107 99 31   
51 51 51   51 51 51   51 51 51   51 51 51   51 51 51   51 51 51   51 51 51   51 51 51   51 51 51   107 255 60   132 255 74   141 255 79   51 51 51   51 51 51   51 51 51   51 51 51   51 51 51   51 51 51   51 51 51   51 51 51   51 51 51   189 49 64   232 60 79   255 66 87   51 51 51   51 51 51   51 51 51   51 51 51   51 51 51   51 51 51   51 51 51   51 51 51   4 143 14   7 226 23   9 255 29   11 255 35   13 255 40   14 255 45   15 255 46   10 10 3   10 10 3   10 10 3   10 10 3   10 10 3   10 10 3   24 23 7   39 36 11   53 50 15   67 63 19   81 75 23   94 87 27   
51 51 51   51 51 51   51 51 51   51 51 51   51 51 51   51 51 51   51 51 51   51 51 51   98 235 55   123 255 69   140 255 79   152 255 86   158 255 89   152 255 85   51 51 51   185 100 155   234 126 195   255 143 222   255 152 236   84 21 28   161 41 54   204 52 69   238 61 80   255 68 90   255 73 96   255 75 99   51 51 51   51 51 51   51 51 51   51 51 51   51 51 51   0 25 2   3 119 12   6 193 19   8 255 26   10 255 31   37 255 40   30 255 43   14 255 45   10 10 3   10 10 3   10 10 3   10 10 3   10 10 3   10 10 3   10 10 3   25 23 7   40 37 11   53 50 15   67 62 19   80 74 23   
51 51 51   51 51 51   51 51 51   51 51 51   51 51 51   51 51 51   51 51 51   63 151 35   8 20 4   8 20 4   8 20 4   151 255 95   153 255 87   154 255 87   140 255 79   188 101 157   229 123 191   255 140 217   255 152 235   103 26 35   153 39 52   191 49 65   16 4 5   16 4 5   16 4 5   255 74 98   255 74 97   51 51 51   51 51 51   51 51 51   51 51 51   0 25 2   2 79 8   4 150 15   6 212 21   8 255 27   12 255 32   37 255 40   13 255 40   10 10 3   10 10 3   10 10 3   10 10 3   10 10 3   10 10 3   10 10 3   10 10 3   25 23 7   39 36 11   53 49 15   66 61 19   
51 51 51   51 51 51   51 51 51   51 51 51   51 51 51   51 51 51   8 20 4   8 20 4   8 20 4   8 20 4   8 20 4   8 20 4   8 20 4   8 20 4   138 255 77   168 90 140   207 111 172   248 137 205   255 255 255   87 22 29   133 34 45   170 44 58   16 4 5   16 4 5   16 4 5   255 78 132   255 71 93   196 99 66   255 169 113   23 11 7   0 25 2   0 25 2   0 25 2   3 100 10   5 162 16   0 25 2   0 25 2   0 25 2   0 25 2   12 255 37   10 10 3   10 10 3   10 10 3   10 10 3   10 10 3   10 10 3   10 10 3   10 10 3   24 22 7   38 35 11   51 47 14   
51 51 51   51 51 51   51 51 51   51 51 51   51 51 51   51 51 51   8 20 4   8 20 4   8 20 4   8 20 4   8 20 4   8 20 4   8 20 4   8 20 4   8 20 4   16 8 13   176 94 146   206 111 172   237 130 197   62 16 21   107 27 36   16 4 5   16 4 5   16 4 5   16 4 5   248 66 98   23 11 7   111 56 37   23 11 7   23 11 7   0 25 2   0 25 2   0 25 2   1 44 4   0 25 2   0 25 2   0 25 2   0 25 2   0 25 2   10 255 31   10 10 3   10 10 3   10 10 3   10 10 3   10 10 3   10 10 3   10 10 3   10 10 3   10 10 3   22 20 6   35 32 10   
51 51 51   51 51 51   51 51 51   51 51 51   51 51 51   51 51 51   8 20 4   8 20 4   8 20 4   8 20 4   8 20 4   8 20 4   8 20 4   6 1 8   6 1 8   6 1 8   6 1 8   6 1 8   108 33 140   59 85 60   79 112 79   92 131 92   102 145 102   108 154 108   6 8 6   210 54 71   23 11 7   23 11 7   155 118 6   239 182 10   255 216 12   0 25 2   0 25 2   0 25 2   0 25 2   0 25 2   0 25 2   0 25 2   0 25 2   51 51 51   51 51 51   10 10 3   10 10 3   10 10 3   10 10 3   10 10 3   10 10 3   10 10 3   10 10 3   10 10 3   17 16 5   
51 51 51   51 51 51   51 51 51   51 51 51   51 51 51   51 51 51   51 51 51   8 20 4   8 20 4   8 20 4   8 20 4   8 20 4   6 1 8   6 1 8   6 1 8   6 1 8   6 1 8   6 1 8   42 60 42   63 90 63   79 112 79   91 130 91   101 144 101   108 154 109   112 160 112   6 8 6   16 4 5   108 82 4   184 140 7   240 183 10   255 216 12   255 241 13   255 249 14   0 25 2   0 25 2   0 25 2   0 25 2   0 25 2   0 25 2   51 51 51   51 51 51   51 51 51   10 10 3   10 10 3   10 10 3   10 10 3   10 10 3   10 10 3   10 10 3   10 10 3   10 10 3   
51 51 51   51 51 51   51 51 51   51 51 51   51 51 51   51 51 51   51 51 51   51 51 51   8 20 4   8 20 4   8 20 4   6 1 8   6 1 8   6 1 8   6 1 8   88 27 114   97 30 125   14 20 14   41 59 41   59 84 59   74 105 74   86 122 86   125 142 127   198 166 204   112 155 112   109 156 109   17 13 0   95 73 4   162 123 6   215 164 9   255 208 15   255 255 54   255 241 13   0 25 2   0 25 2   0 25 2   3 13 0   3 13 0   3 13 0   12 208 255   13 223 255   51 51 51   51 51 51   51 51 51   10 10 3   10 10 3   10 10 3   10 10 3   10 10 3   51 51 51   51 51 51   
51 51 51   51 51 51   51 51 51   51 51 51   51 51 51   51 51 51   51 51 51   51 51 51   51 51 51   8 20 4   0 22 14   6 1 8   45 14 58   60 18 78   72 22 94   82 25 107   91 28 118   11 16 11   34 49 35   52 74 52   66 94 66   77 110 77   99 127 100   187 154 193   115 146 116   103 147 103   17 13 0   63 48 2   127 97 5   180 137 7   224 170 9   255 208 15   255 216 12   255 216 12   0 25 2   3 13 0   3 13 0   3 13 0   3 13 0   3 13 0   13 216 255   13 226 255   51 51 51   51 51 51   51 51 51   51 51 51   51 51 51   51 51 51   51 51 51   51 51 51   51 51 51   
51 51 51   51 51 51   51 51 51   51 51 51   51 51 51   51 51 51   51 51 51   51 51 51   51 51 51   0 22 14   0 22 14   18 5 24   38 11 49   53 16 69   65 20 84   75 23 97   6 1 8   6 8 6   25 35 25   42 60 42   56 79 56   67 96 67   77 110 77   87 121 87   6 8 6   6 8 6   17 13 0   17 13 0   83 63 3   136 103 5   180 137 7   215 164 9   240 183 10   239 182 10   0 12 21   3 13 0   9 36 2   25 99 5   3 13 0   3 13 0   12 203 255   12 214 255   51 51 51   51 51 51   51 51 51   51 51 51   51 51 51   51 51 51   51 51 51   51 51 51   51 51 51   
51 51 51   51 51 51   51 51 51   51 51 51   51 51 51   51 51 51   51 51 51   51 51 51   0 22 14   0 22 14   0 22 14   9 3 12   29 9 38   44 13 57   56 17 72   6 1 8   6 1 8   6 8 6   12 18 12   30 42 30   44 62 44   55 79 55   65 93 65   6 8 6   6 8 6   6 8 6   17 13 0   17 13 0   29 22 1   83 63 3   127 97 5   162 123 6   184 140 7   155 118 6   0 12 21   3 13 0   3 13 0   10 41 2   24 92 5   3 13 0   10 176 255   11 193 255   51 51 51   51 51 51   51 51 51   51 51 51   51 51 51   51 51 51   51 51 51   51 51 51   51 51 51   
51 51 51   51 51 51   51 51 51   51 51 51   51 51 51   51 51 51   51 51 51   51 51 51   51 51 51   0 22 14   0 22 14   6 1 8   17 5 23   32 10 42   6 1 8   6 1 8   6 1 8   6 8 6   6 8 6   15 21 15   29 42 29   41 59 41   51 73 51   6 8 6   6 8 6   6 8 6   6 8 6   17 13 0   17 13 0   17 13 0   63 48 2   95 73 4   108 82 4   22 17 0   22 17 0   22 17 0   3 13 0   3 13 0   3 13 0   7 129 224   9 150 255   10 166 255   51 51 51   51 51 51   51 51 51   51 51 51   51 51 51   51 51 51   51 51 51   51 51 51   51 51 51   
51 51 51   51 51 51   51 51 51   51 51 51   51 51 51   51 51 51   51 51 51   51 51 51   51 51 51   0 22 14   0 22 14   6 1 8   6 1 8   6 1 8   6 1 8   6 1 8   6 1 8   6 8 6   6 8 6   6 8 6   12 17 12   24 35 24   6 8 6   6 8 6   6 8 6   6 8 6   51 51 51   51 51 51   17 13 0   17 13 0   17 13 0   17 13 0   22 17 0   22 17 0   22 17 0   22 17 0   22 17 0   22 17 0   22 17 0   22 17 0   7 120 209   8 134 234   51 51 51   51 51 51   51 51 51   51 51 51   51 51 51   51 51 51   51 51 51   51 51 51   51 51 51   
51 51 51   51 51 51   51 51 51   51 51 51   51 51 51   51 51 51   51 51 51   51 51 51   51 51 51   51 51 51   51 51 51   6 1 8   6 1 8   6 1 8   6 1 8   6 1 8   6 1 8   6 1 8   6 8 6   6 8 6   6 8 6   6 8 6   6 8 6   6 8 6   6 8 6   51 51 51   0 4 21   0 4 21   0 4 21   0 4 21   6 73 255   6 76 255   22 17 0   22 17 0   22 17 0   22 17 0   22 17 0   22 17 0   22 17 0   22 17 0   22 17 0   5 89 155   51 51 51   51 51 51   51 51 51   51 51 51   51 51 51   51 51 51   51 51 51   51 51 51   51 51 51   
51 51 51   51 51 51   51 51 51   51 51 51   51 51 51   51 51 51   51 51 51   51 51 51   51 51 51   51 51 51   51 51 51   1 0 5   6 1 8   6 1 8   6 1 8   6 1 8   6 1 8   6 1 8   6 1 8   6 1 8   6 8 6   6 8 6   6 8 6   6 8 6   10 0 8   0 4 21   0 4 21   0 4 21   0 4 21   0 4 21   6 76 255   6 78 255   6 79 255   22 17 0   22 17 0   22 17 0   22 17 0   22 17 0   22 17 0   22 17 0   255 255 5   255 255 5   51 51 51   51 51 51   51 51 51   51 51 51   51 51 51   51 51 51   51 51 51   51 51 51   51 51 51   
51 51 51   51 51 51   51 51 51   51 51 51   51 51 51   51 51 51   51 51 51   51 51 51   51 51 51   51 51 51   1 0 5   1 0 5   1 0 5   6 1 8   6 1 8   6 1 8   6 1 8   6 1 8   6 1 8   51 51 51   10 0 8   10 0 8   136 8 112   10 0 8   10 0 8   0 4 21   0 4 21   0 4 21   0 4 21   5 63 255   40 217 255   21 140 255   6 78 255   6 72 255   22 17 0   22 17 0   22 17 0   255 248 5   255 255 41   255 255 5   255 255 5   255 255 5   51 51 51   51 51 51   51 51 51   51 51 51   51 51 51   51 51 51   51 51 51   51 51 51   51 51 51   
51 51 51   51 51 51   51 51 51   51 51 51   51 51 51   51 51 51   51 51 51   51 51 51   51 51 51   51 51 51   1 0 5   1 0 5   1 0 5   1 0 5   1 0 5   1 0 5   5 13 14   5 13 14   5 13 14   51 51 51   10 0 8   10 0 8   10 0 8   10 0 8   10 0 8   0 4 21   0 4 21   2 34 172   3 45 228   4 55 255   13 97 255   17 117 255   6 73 255   5 71 255   184 144 2   223 174 3   255 202 3   255 227 4   255 249 4   255 255 4   255 255 5   255 255 5   51 51 51   51 51 51   51 51 51   51 51 51   14 16 27   66 79 129   107 127 209   139 165 255   51 51 51   
51 51 51   51 51 51   51 51 51   51 51 51   51 51 51   51 51 51   51 51 51   51 51 51   51 51 51   51 51 51   51 51 51   1 0 5   1 0 5   1 0 5   1 0 5   51 51 51   51 51 51   5 13 14   5 13 14   51 51 51   10 0 8   10 0 8   10 0 8   10 0 8   10 0 8   0 4 21   1 13 65   2 27 134   3 38 191   3 48 239   4 55 255   5 62 255   5 65 255   5 64 255   153 120 2   192 151 2   228 178 3   255 203 3   255 225 4   255 243 4   255 255 4   255 255 4   51 51 51   51 51 51   51 51 51   51 51 51   8 9 15   43 51 85   84 100 164   120 162 240   139 165 255   
51 51 51   51 51 51   51 51 51   51 51 51   51 51 51   51 51 51   51 51 51   51 51 51   51 51 51   51 51 51   51 51 51   51 51 51   1 0 5   1 0 5   51 51 51   51 51 51   51 51 51   51 51 51   51 51 51   4 14 4   4 14 4   4 14 4   4 14 4   4 14 4   18 5 0   0 4 21   0 4 21   1 17 88   2 29 145   3 38 193   3 46 232   4 52 255   4 55 255   4 53 255   118 93 1   158 124 2   194 152 2   225 176 3   253 198 3   255 216 3   255 228 4   255 229 4   51 51 51   51 51 51   51 51 51   51 51 51   8 9 15   12 14 23   53 63 104   88 104 171   110 130 214   
51 51 51   51 51 51   51 51 51   51 51 51   51 51 51   51 51 51   51 51 51   51 51 51   51 51 51   51 51 51   51 51 51   0 15 13   0 15 13   0 15 13   51 51 51   51 51 51   51 51 51   51 51 51   4 14 4   4 14 4   4 14 4   4 14 4   4 14 4   4 14 4   18 5 0   0 4 21   0 4 21   0 6 30   1 18 89   2 27 138   2 35 177   3 41 204   3 43 215   33 26 0   79 62 1   119 93 1   155 121 2   187 146 2   214 167 3   235 184 3   248 194 3   233 182 3   51 51 51   51 51 51   51 51 51   51 51 51   8 9 15   8 9 15   14 16 27   47 56 92   51 51 51   
51 51 51   51 51 51   51 51 51   51 51 51   51 51 51   51 51 51   51 51 51   51 51 51   51 51 51   51 51 51   0 15 13   0 15 13   0 15 13   0 15 13   101 51 0   51 51 51   51 51 51   51 51 51   4 14 4   4 14 4   4 14 4   4 14 4   4 14 4   18 5 0   18 5 0   18 5 0   0 4 21   0 4 21   0 4 21   1 13 68   1 21 106   2 25 127   1 22 111   22 17 0   33 26 0   75 58 1   111 87 1   142 111 2   168 132 2   187 146 2   191 150 2   51 51 51   51 51 51   51 51 51   51 51 51   51 51 51   51 51 51   51 51 51   51 51 51   51 51 51   51 51 51   
51 51 51   51 51 51   51 51 51   51 51 51   51 51 51   51 51 51   51 51 51   51 51 51   51 51 51   51 51 51   0 15 13   0 15 13   85 43 0   125 63 0   149 75 0   162 82 0   161 81 0   51 51 51   4 14 4   4 14 4   4 14 4   4 14 4   4 14 4   18 5 0   18 5 0   18 5 0   18 5 0   0 4 21   0 4 21   0 4 21   0 4 21   22 17 0   22 17 0   22 17 0   22 17 0   22 17 0   58 45 0   88 69 1   111 87 1   122 95 1   51 51 51   51 51 51   51 51 51   51 51 51   51 51 51   51 51 51   51 51 51   51 51 51   51 51 51   51 51 51   51 51 51   
51 51 51   51 51 51   51 51 51   51 51 51   51 51 51   51 51 51   51 51 51   51 51 51   51 51 51   51 51 51   51 51 51   53 27 0   104 52 0   135 68 0   156 79 0   169 85 0   173 87 0   161 81 0   4 14 4   4 14 4   4 14 4   4 14 4   4 14 4   18 5 0   18 5 0   18 5 0   18 5 0   18 5 0   18 5 0   18 5 0   18 5 0   18 5 0   18 5 0   22 17 0   22 17 0   22 17 0   22 17 0   22 17 0   22 17 0   51 51 51   51 51 51   51 51 51   51 51 51   51 51 51   51 51 51   101 104 8   160 166 13   206 214 17   243 251 20   51 51 51   51 51 51   
51 51 51   51 51 51   51 51 51   51 51 51   51 51 51   51 51 51   51 51 51   51 51 51   51 51 51   51 51 51   51 51 51   61 31 0   103 52 0   131 66 0   151 76 0   179 165 216   169 85 0   162 82 0   51 51 51   4 14 4   4 14 4   4 14 4   4 14 4   18 5 0   18 5 0   18 5 0   18 5 0   18 5 0   203 56 6   18 5 0   18 5 0   18 5 0   18 5 0   18 5 0   51 51 51   51 51 51   51 51 51   51 51 51   51 51 51   51 51 51   51 51 51   51 51 51   51 51 51   51 51 51   43 45 3   107 111 9   159 165 13   205 212 17   244 253 20   255 255 23   255 255 25   
51 51 51   51 51 51   51 51 51   51 51 51   51 51 51   51 51 51   51 51 51   51 51 51   51 51 51   51 51 51   9 4 0   53 27 0   92 46 0   119 60 0   139 70 0   151 76 0   156 79 0   149 75 0   101 51 0   4 14 4   4 14 4   4 14 4   4 14 4   18 5 0   18 5 0   18 5 0   18 5 0   140 38 4   173 48 5   202 55 6   18 5 0   18 5 0   18 5 0   18 5 0   51 51 51   51 51 51   51 51 51   51 51 51   114 231 60   51 51 51   51 51 51   51 51 51   51 51 51   16 17 1   35 36 3   94 98 8   146 151 12   191 198 16   232 240 19   255 255 23   255 255 25   
51 51 51   51 51 51   51 51 51   51 51 51   51 51 51   51 51 51   51 51 51   51 51 51   51 51 51   51 51 51   51 51 51   34 17 0   73 37 0   100 51 0   119 60 0   131 66 0   135 68 0   125 63 0   51 51 51   51 51 51   4 14 4   4 14 4   4 14 4   18 5 0   18 5 0   18 5 0   62 17 2   103 28 3   138 38 4   166 46 5   188 52 6   204 56 7   18 5 0   18 5 0   51 51 51   51 51 51   51 51 51   57 115 30   124 252 65   171 255 90   186 255 98   51 51 51   51 51 51   16 17 1   16 17 1   74 77 6   125 130 10   170 177 14   211 219 18   255 255 27   255 255 26   
51 51 51   51 51 51   51 51 51   51 51 51   51 51 51   51 51 51   51 51 51   51 51 51   51 51 51   51 51 51   51 51 51   9 4 0   45 23 0   73 37 0   92 46 0   103 52 0   104 52 0   85 43 0   16 19 6   51 51 51   51 51 51   51 51 51   51 51 51   51 51 51   18 5 0   18 5 0   96 35 33   191 70 66   248 91 85   255 106 99   255 115 107   255 114 106   149 41 5   51 51 51   51 51 51   51 51 51   10 21 5   36 73 19   102 208 54   152 255 81   178 255 94   51 51 51   51 51 51   16 17 1   16 17 1   49 50 4   100 103 8   145 151 12   186 193 15   226 232 19   255 255 22   
51 51 51   51 51 51   51 51 51   51 51 51   51 51 51   51 51 51   51 51 51   51 51 51   51 51 51   51 51 51   51 51 51   51 51 51   9 4 0   34 17 0   53 27 0   61 31 0   53 27 0   16 19 6   16 19 6   51 51 51   51 51 51   51 51 51   51 51 51   51 51 51   51 51 51   73 27 25   166 61 57   229 84 78   255 102 95   255 117 109   255 127 119   255 134 125   255 133 124   51 51 51   51 51 51   51 51 51   51 51 51   10 21 5   64 130 33   113 230 60   140 255 74   51 51 51   51 51 51   16 17 1   16 17 1   16 17 1   70 72 6   116 120 9   158 163 13   195 202 16   227 235 19   
51 51 51   51 51 51   51 51 51   51 51 51   51 51 51   34 61 15   51 92 23   58 105 26   58 104 26   51 51 51   51 51 51   51 51 51   51 51 51   51 51 51   9 4 0   16 19 6   16 19 6   16 19 6   16 19 6   51 51 51   51 51 51   2 113 105   3 171 158   51 51 51   21 7 7   111 41 38   184 68 63   240 89 83   255 106 98   255 120 111   255 131 122   255 139 129   255 143 133   255 137 128   51 51 51   51 51 51   51 51 51   10 21 5   10 21 5   53 108 28   51 51 51   51 51 51   51 51 51   16 17 1   16 17 1   16 17 1   35 36 3   82 85 7   124 129 10   162 168 13   194 201 16   
51 51 51   51 51 51   51 51 51   51 51 51   37 66 16   54 97 24   64 115 28   70 125 31   71 127 31   66 119 29   51 51 51   51 51 51   51 51 51   51 51 51   51 51 51   16 19 6   16 19 6   16 19 6   16 19 6   51 51 51   1 86 79   3 180 166   4 230 213   0 13 12   29 11 10   120 44 41   187 69 64   240 89 83   255 105 98   255 119 111   255 131 121   255 139 129   255 144 134   255 144 134   51 51 51   51 51 51   51 51 51   51 51 51   51 51 51   51 51 51   51 51 51   51 51 51   51 51 51   51 51 51   16 17 1   16 17 1   16 17 1   42 44 3   85 88 7   123 127 10   154 160 13   
51 51 51   51 51 51   51 51 51   23 42 10   47 83 20   60 107 26   68 122 30   74 132 34   74 133 33   71 127 31   58 104 26   51 51 51   51 51 51   51 51 51   51 51 51   51 51 51   51 51 51   51 51 51   51 51 51   51 51 51   2 96 89   3 178 165   69 237 255   0 13 12   34 12 11   117 43 40   180 67 62   233 86 80   255 102 95   255 116 108   255 147 132   255 255 214   255 142 132   255 143 133   21 7 7   51 51 51   51 51 51   51 51 51   51 51 51   51 51 51   51 51 51   51 51 51   51 51 51   51 51 51   51 51 51   16 17 1   16 17 1   16 17 1   37 38 3   74 77 6   101 105 8   
51 51 51   51 51 51   51 51 51   30 54 13   48 87 21   60 107 26   68 121 30   135 255 238   74 132 34   70 125 31   58 105 26   51 51 51   51 51 51   51 51 51   51 51 51   51 51 51   51 51 51   51 51 51   51 51 51   51 51 51   1 67 62   3 148 137   0 13 12   21 7 7   21 7 7   105 39 36   167 62 57   219 81 75   255 97 90   255 110 103   255 122 113   255 138 127   255 137 127   255 139 129   21 7 7   51 51 51   51 51 51   51 51 51   51 51 51   51 51 51   51 51 51   51 51 51   51 51 51   51 51 51   51 51 51   51 51 51   51 51 51   16 17 1   16 17 1   51 51 51   51 51 51   
51 51 51   51 51 51   51 51 51   29 53 13   46 82 20   56 101 25   64 114 28   68 121 30   68 122 30   64 115 28   51 92 23   51 51 51   51 51 51   51 51 51   51 51 51   51 51 51   51 51 51   51 51 51   51 51 51   51 51 51   0 13 12   1 90 83   0 13 12   21 7 7   21 7 7   85 31 29   147 54 50   199 73 68   242 89 83   255 103 96   255 114 106   255 123 115   255 129 120   255 131 122   21 7 7   51 51 51   2 26 14   11 114 62   16 172 94   21 216 118   24 247 135   24 253 138   51 51 51   51 51 51   51 51 51   51 51 51   51 51 51   51 51 51   51 51 51   51 51 51   51 51 51   
51 51 51   51 51 51   51 51 51   23 41 10   39 71 17   50 89 22   56 101 25   60 107 26   60 107 26   54 97 24   34 61 15   51 51 51   51 51 51   51 51 51   51 51 51   51 51 51   51 51 51   51 51 51   51 51 51   51 51 51   51 51 51   0 13 12   0 13 12   51 51 51   21 7 7   57 21 19   121 45 41   173 64 59   217 80 75   254 94 87   255 105 98   255 114 106   255 120 111   255 121 113   21 7 7   1 17 9   6 61 33   12 130 71   18 184 100   22 228 124   25 255 144   28 255 157   28 255 159   51 51 51   51 51 51   51 51 51   51 51 51   51 51 51   51 51 51   51 51 51   51 51 51   
51 51 51   51 51 51   51 51 51   10 19 4   29 51 12   39 71 17   46 82 20   48 87 21   47 83 20   37 66 16   51 51 51   51 51 51   51 51 51   51 51 51   51 51 51   51 51 51   51 51 51   51 51 51   51 51 51   51 51 51   51 51 51   51 51 51   51 51 51   51 51 51   21 7 7   21 7 7   88 32 30   142 52 49   186 69 64   223 82 77   254 94 87   255 102 95   21 7 7   21 7 7   21 7 7   1 17 9   6 65 36   12 130 71   17 182 99   22 227 124   25 255 144   28 255 159   30 255 168   28 255 156   51 51 51   51 51 51   51 51 51   51 51 51   51 51 51   51 51 51   51 51 51   
51 51 51   51 51 51   51 51 51   51 51 51   10 19 4   23 41 10   29 53 13   30 54 13   23 42 10   51 51 51   51 51 51   51 51 51   51 51 51   51 51 51   51 51 51   51 51 51   51 51 51   51 51 51   51 51 51   51 51 51   51 51 51   51 51 51   51 51 51   51 51 51   21 7 7   21 7 7   44 16 15   102 37 35   148 54 51   186 68 64   216 80 74   21 7 7   21 7 7   21 7 7   51 51 51   1 17 9   5 58 31   11 120 66   16 173 94   21 217 118   25 255 139   122 255 190   29 255 167   30 255 169   51 51 51   51 51 51   51 51 51   51 51 51   51 51 51   51 51 51   51 51 51   
51 51 51   51 51 51   51 51 51   51 51 51   51 51 51   51 51 51   51 51 51   51 51 51   51 51 51   51 51 51   51 51 51   51 51 51   51 51 51   51 51 51   51 51 51   51 51 51   51 51 51   51 51 51   51 51 51   51 51 51   51 51 51   51 51 51   51 51 51   51 51 51   51 51 51   21 7 7   21 7 7   49 18 17   99 36 34   137 51 47   21 7 7   21 7 7   21 7 7   51 51 51   51 51 51   1 17 9   4 41 22   10 104 57   15 157 85   19 202 110   23 240 131   35 255 151   28 255 160   29 255 165   51 51 51   51 51 51   51 51 51   51 51 51   51 51 51   51 51 51   51 51 51   
51 51 51   51 51 51   51 51 51   51 51 51   51 51 51   51 51 51   51 51 51   51 51 51   51 51 51   51 51 51   51 51 51   51 51 51   51 51 51   51 51 51   51 51 51   51 51 51   51 51 51   51 51 51   51 51 51   51 51 51   51 51 51   51 51 51   51 51 51   51 51 51   51 51 51   51 51 51   51 51 51   21 7 7   21 7 7   21 7 7   21 7 7   21 7 7   51 51 51   51 51 51   51 51 51   1 17 9   1 17 9   8 82 45   13 135 74   17 181 98   21 219 119   24 251 137   26 255 150   27 255 155   51 51 51   51 51 51   51 51 51   51 51 51   51 51 51   51 51 51   51 51 51   
51 51 51   51 51 51   51 51 51   51 51 51   51 51 51   51 51 51   51 51 51   51 51 51   51 51 51   51 51 51   51 51 51   51 51 51   51 51 51   51 51 51   51 51 51   51 51 51   51 51 51   51 51 51   51 51 51   51 51 51   51 51 51   51 51 51   51 51 51   51 51 51   51 51 51   51 51 51   51 51 51   51 51 51   51 51 51   51 51 51   51 51 51   51 51 51   51 51 51   51 51 51   51 51 51   1 17 9   1 17 9   5 53 29   10 108 59   15 154 84   18 193 105   22 225 123   24 249 136   25 255 141   51 51 51   51 51 51   51 51 51   51 51 51   51 51 51   51 51 51   51 51 51   
