P3
51 51
255
51 51 51   51 51 51   51 51 51   51 51 51   51 51 51   51 51 51   51 51 51   51 51 51   51 51 51   51 51 51   51 51 51   51 51 51   51 51 51   51 51 51   51 51 51   205 74 155   255 96 199   255 112 233   255 126 255   255 138 255   255 148 255   255 154 255   51 51 51   51 51 51   51 51 51   51 51 51   51 51 51   51 51 51   51 51 51   51 51 51   51 51 51   51 51 51   51 51 51   51 51 51   51 51 51   51 51 51   51 51 51   51 51 51   51 51 51   51 51 51   51 51 51   51 51 51   51 51 51   51 51 51   51 51 51   51 51 51   51 51 51   51 51 51   51 51 51   51 51 51   51 51 51   
51 51 51   51 51 51   51 51 51   51 51 51   51 51 51   51 51 51   51 51 51   51 51 51   51 51 51   51 51 51   51 51 51   51 51 51   51 51 51   51 51 51   118 43 89   188 68 141   239 86 180   255 102 212   255 116 241   255 128 255   255 139 255   255 147 255   255 151 255   51 51 51   51 51 51   51 51 51   51 51 51   51 51 51   51 51 51   51 51 51   51 51 51   51 51 51   51 51 51   51 51 51   51 51 51   51 51 51   51 51 51   51 51 51   51 51 51   51 51 51   51 51 51   51 51 51   51 51 51   51 51 51   51 51 51   51 51 51   51 51 51   51 51 51   51 51 51   51 51 51   51 51 51   
51 51 51   51 51 51   51 51 51   245 161 173   255 200 214   255 224 240   255 221 237   51 51 51   51 51 51   51 51 51   51 51 51   51 51 51   51 51 51   51 51 51   95 34 72   156 56 117   205 74 154   247 90 186   255 103 215   255 116 240   255 255 255   255 136 255   255 142 255   51 51 51   51 51 51   51 51 51   51 51 51   51 51 51   51 51 51   51 51 51   51 51 51   51 51 51   51 51 51   51 51 51   51 51 51   51 51 51   51 51 51   51 51 51   51 51 51   51 51 51   51 51 51   51 51 51   51 51 51   51 51 51   51 51 51   51 51 51   51 51 51   51 51 51   51 51 51   51 51 51   51 51 51   
51 51 51   51 51 51   126 82 88   207 135 145   255 189 195   255 255 255   255 243 247   255 201 216   51 51 51   51 51 51   51 51 51   51 51 51   51 51 51   23 8 17   59 21 44   118 42 88   166 60 125   208 75 157   246 89 185   255 101 211   255 113 234   255 122 253   255 129 255   255 131 255   51 51 51   51 51 51   51 51 51   51 51 51   51 51 51   51 51 51   51 51 51   51 51 51   51 51 51   51 51 51   51 51 51   51 51 51   51 51 51   51 51 51   51 51 51   51 51 51   51 51 51   51 51 51   51 51 51   51 51 51   51 51 51   51 51 51   51 51 51   51 51 51   51 51 51   51 51 51   51 51 51   
51 51 51   51 51 51   64 42 45   143 94 100   201 131 141   255 183 185   255 205 207   255 179 192   51 51 51   51 51 51   51 51 51   51 51 51   51 51 51   23 8 17   23 8 17   74 27 56   123 44 92   165 60 124   203 74 153   237 86 179   255 97 202   255 106 221   255 114 237   255 117 244   51 51 51   51 51 51   51 51 51   51 51 51   20 96 129   25 120 161   29 139 187   32 155 209   35 170 228   37 180 242   51 51 51   51 51 51   51 51 51   51 51 51   51 51 51   51 51 51   51 51 51   51 51 51   51 51 51   51 51 51   51 51 51   51 51 51   51 51 51   51 51 51   51 51 51   51 51 51   51 51 51   
51 51 51   51 51 51   18 12 13   62 40 43   121 79 85   165 108 116   195 127 137   203 133 143   51 51 51   51 51 51   51 51 51   51 51 51   51 51 51   23 8 17   23 8 17   23 8 17   74 27 56   118 43 89   156 56 118   191 69 144   221 80 167   247 90 186   255 97 202   255 100 209   51 51 51   51 51 51   51 51 51   13 66 89   19 90 122   23 111 149   27 129 173   30 145 195   33 160 215   36 173 233   38 183 246   51 51 51   51 51 51   51 51 51   51 51 51   51 51 51   51 51 51   51 51 51   51 51 51   51 51 51   51 51 51   51 51 51   51 51 51   51 51 51   51 51 51   51 51 51   51 51 51   
51 51 51   51 51 51   18 12 13   18 12 13   26 17 18   72 47 51   102 67 72   109 71 76   51 51 51   51 51 51   51 51 51   51 51 51   170 133 65   23 8 17   23 8 17   23 8 17   23 8 17   66 24 49   105 38 79   140 50 105   170 62 128   196 71 148   216 78 162   222 81 167   51 51 51   51 51 51   5 28 38   11 56 76   16 79 106   20 98 132   24 116 156   27 132 178   45 152 214   35 161 218   36 172 232   37 179 241   51 51 51   51 51 51   51 51 51   51 51 51   51 51 51   51 51 51   51 51 51   51 51 51   51 51 51   51 51 51   51 51 51   51 51 51   51 51 51   51 51 51   51 51 51   
51 51 51   51 51 51   51 51 51   18 12 13   18 12 13   18 12 13   18 12 13   18 12 13   51 51 51   51 51 51   51 51 51   50 39 19   172 135 66   234 183 89   23 8 17   23 8 17   23 8 17   23 8 17   48 17 36   84 30 63   114 41 86   139 50 105   156 57 118   155 56 117   51 51 51   196 21 185   3 17 24   9 43 58   13 65 87   17 84 113   21 101 137   24 117 158   31 134 182   85 164 255   33 158 213   35 167 225   51 51 51   51 51 51   51 51 51   12 112 194   15 135 233   51 51 51   51 51 51   51 51 51   51 51 51   51 51 51   51 51 51   51 51 51   51 51 51   51 51 51   51 51 51   
51 51 51   51 51 51   51 51 51   51 51 51   51 51 51   51 51 51   51 51 51   12 255 28   14 255 32   14 255 34   51 51 51   58 45 22   139 109 53   197 154 75   23 8 17   23 8 17   23 8 17   23 8 17   23 8 17   23 8 17   51 18 38   74 27 56   86 31 65   51 5 48   125 13 118   176 19 166   214 23 203   234 25 221   10 49 66   14 68 92   18 86 115   21 102 137   24 117 157   27 130 175   29 142 192   32 152 205   255 255 255   255 255 255   8 75 129   11 99 172   14 121 210   16 141 244   18 158 255   51 51 51   51 51 51   51 51 51   51 51 51   51 51 51   51 51 51   51 51 51   51 51 51   
51 51 51   51 51 51   51 51 51   51 51 51   51 51 51   9 254 22   12 255 28   13 255 32   15 255 34   16 255 37   16 255 38   16 255 39   94 73 36   151 118 58   198 155 76   23 8 17   23 8 17   23 8 17   23 8 17   23 8 17   23 8 17   23 8 17   23 8 17   20 2 19   85 9 80   135 14 127   174 19 165   201 22 190   6 32 43   10 51 69   14 68 92   17 85 114   20 100 134   23 113 152   26 125 169   28 135 182   28 133 179   255 255 255   6 57 99   9 81 141   14 104 179   213 174 255   16 141 244   51 51 51   51 51 51   51 51 51   51 51 51   51 51 51   51 51 51   51 51 51   51 51 51   
51 51 51   51 51 51   51 51 51   51 51 51   0 24 2   0 24 2   12 255 27   13 255 31   14 255 34   15 255 36   0 24 2   0 24 2   0 24 2   97 76 37   144 113 55   183 143 70   215 168 82   23 8 17   23 8 17   23 8 17   23 8 17   51 51 51   19 22 28   13 1 12   34 3 32   84 9 79   123 13 117   150 16 142   2 10 13   6 32 44   10 50 68   14 66 89   17 81 109   19 95 128   22 107 144   24 116 156   255 222 255   255 255 255   4 37 65   7 61 106   9 83 144   14 104 179   14 121 210   15 135 233   51 51 51   51 51 51   51 51 51   51 51 51   51 51 51   51 51 51   51 51 51   
51 51 51   51 51 51   51 51 51   0 24 2   0 24 2   0 24 2   11 255 26   12 255 29   13 255 32   0 24 2   0 24 2   0 24 2   0 24 2   0 24 2   20 16 7   20 16 7   154 121 59   177 139 68   187 146 71   143 112 54   51 51 51   51 51 51   14 17 22   13 1 12   13 1 12   22 2 21   62 6 58   85 9 80   2 10 13   2 10 13   6 30 41   9 46 63   12 61 83   15 75 101   18 86 116   19 94 127   204 166 191   255 208 240   1 15 27   4 39 68   7 61 106   9 81 141   11 99 172   12 112 194   51 51 51   51 51 51   51 51 51   51 51 51   51 51 51   51 51 51   51 51 51   
51 51 51   51 51 51   51 51 51   0 24 2   0 24 2   8 228 20   10 255 23   11 255 27   12 255 29   0 24 2   0 24 2   0 24 2   0 24 2   0 24 2   0 24 2   20 16 7   82 64 31   103 81 39   106 83 40   51 51 51   51 51 51   51 51 51   14 17 22   14 17 22   13 1 12   13 1 12   13 1 12   2 10 13   2 10 13   2 10 13   2 10 13   5 25 33   8 40 53   11 53 71   13 63 85   14 67 90   125 102 118   174 142 164   1 8 15   1 15 27   4 37 65   6 57 99   8 75 129   51 51 51   51 51 51   51 51 51   51 51 51   51 51 51   51 51 51   51 51 51   51 51 51   
51 51 51   51 51 51   51 51 51   0 24 2   0 24 2   7 194 17   9 237 20   10 255 24   0 24 2   0 24 2   0 24 2   0 24 2   0 24 2   0 24 2   0 24 2   20 16 7   20 16 7   20 16 7   105 71 202   37 170 204   48 223 255   59 255 255   3 15 18   14 17 22   14 17 22   14 17 22   2 10 13   2 10 13   2 10 13   2 10 13   2 10 13   2 10 13   3 15 20   5 27 36   7 35 47   70 255 138   86 255 168   23 19 22   1 8 15   1 8 15   1 8 15   3 30 53   5 46 79   51 51 51   51 51 51   51 51 51   51 51 51   51 51 51   51 51 51   51 51 51   51 51 51   
51 51 51   51 51 51   51 51 51   0 24 2   3 101 8   5 154 13   7 197 17   8 233 20   0 24 2   0 24 2   0 24 2   0 24 2   0 24 2   0 24 2   0 24 2   0 24 2   20 16 7   128 80 186   184 110 210   36 167 199   3 15 18   3 15 18   3 15 18   3 15 18   14 17 22   14 17 22   14 17 22   2 10 13   2 10 13   2 10 13   2 10 13   2 10 13   2 10 13   2 10 13   36 175 71   58 255 114   109 255 213   86 255 168   2 147 167   3 207 233   17 255 255   4 255 255   4 255 255   37 27 69   55 40 102   70 51 130   84 61 155   96 70 178   107 78 198   51 51 51   51 51 51   
51 51 51   51 51 51   51 51 51   0 24 2   2 52 4   4 107 9   5 151 13   7 188 16   0 24 2   0 24 2   0 24 2   0 24 2   0 24 2   0 24 2   0 24 2   0 24 2   5 4 11   124 77 171   255 167 218   31 144 172   3 15 18   3 15 18   3 15 18   3 15 18   3 15 18   14 17 22   19 15 13   19 15 13   19 15 13   2 10 13   2 10 13   2 10 13   19 15 13   4 23 9   19 91 37   40 195 79   58 255 114   70 255 138   1 102 116   2 161 182   3 213 240   3 255 255   13 9 24   32 23 59   47 35 88   62 45 114   75 55 138   87 64 161   99 72 183   110 80 202   117 85 216   
51 51 51   51 51 51   51 51 51   0 24 2   0 24 2   1 51 4   3 98 8   5 136 12   0 24 2   0 24 2   0 24 2   0 24 2   0 24 2   0 24 2   0 24 2   5 4 11   64 44 124   75 51 143   98 64 160   3 15 18   3 15 18   3 15 18   3 15 18   3 15 18   3 15 18   14 17 22   19 15 13   19 15 13   19 15 13   19 15 13   231 148 232   255 195 255   255 229 255   4 23 9   4 23 9   19 91 37   36 175 71   46 222 90   0 50 57   1 109 123   2 160 181   6 4 11   6 4 11   22 16 42   38 27 70   52 38 96   65 47 120   77 56 143   124 142 255   100 73 185   109 80 202   
51 51 51   51 51 51   51 51 51   51 51 51   0 24 2   0 24 2   1 36 3   2 77 6   0 24 2   0 24 2   0 24 2   0 24 2   0 24 2   0 24 2   0 24 2   5 4 11   52 35 100   61 41 118   126 13 100   196 21 155   238 26 188   255 28 206   3 15 18   3 15 18   3 15 18   3 15 18   19 15 13   19 15 13   19 15 13   37 87 207   47 110 255   54 127 255   60 141 255   65 153 255   70 164 255   73 173 255   76 179 255   255 185 96   0 18 20   0 49 56   1 101 114   6 4 11   6 4 11   12 8 22   27 20 50   41 30 76   54 39 100   67 48 123   78 57 144   89 65 164   99 72 182   
51 51 51   51 51 51   51 51 51   51 51 51   0 24 2   0 24 2   0 24 2   0 24 2   0 24 2   0 24 2   0 24 2   0 24 2   0 24 2   0 24 2   0 24 2   25 17 48   37 25 71   44 4 34   133 14 105   187 20 148   227 25 180   254 28 201   255 29 210   3 15 18   3 15 18   18 12 6   19 15 13   19 15 13   32 75 179   41 96 228   48 113 255   54 128 255   60 141 255   65 153 255   69 163 255   73 172 255   77 181 255   80 187 255   80 189 255   0 18 20   0 31 35   6 4 11   6 4 11   6 4 11   15 11 29   30 21 55   43 31 79   55 40 102   67 48 123   77 56 143   87 64 161   
51 51 51   51 51 51   51 51 51   51 51 51   51 51 51   14 25 17   0 24 2   0 24 2   0 24 2   0 24 2   0 24 2   0 24 2   14 25 17   14 25 17   28 131 72   56 255 142   67 255 170   34 3 27   107 11 85   159 17 126   198 21 157   233 25 182   241 26 191   224 24 177   3 15 18   107 149 226   18 12 6   23 56 132   33 78 184   41 96 227   47 111 255   53 125 255   58 137 255   63 149 255   68 159 255   72 169 255   75 177 255   79 185 255   81 191 255   82 193 255   0 18 20   6 4 11   6 4 11   6 4 11   6 4 11   17 12 32   30 22 56   43 31 79   54 39 100   65 47 120   75 54 138   
51 51 51   51 51 51   51 51 51   51 51 51   51 51 51   14 25 17   14 25 17   14 25 17   14 25 17   14 25 17   14 25 17   14 25 17   14 25 17   14 25 17   25 19 11   255 255 181   68 56 192   84 69 235   93 77 255   98 80 255   157 17 125   186 20 147   65 90 136   91 126 191   109 151 229   123 170 255   13 31 73   23 56 132   32 75 178   39 92 218   45 107 253   51 120 255   56 132 255   61 143 255   65 154 255   69 163 255   73 172 255   77 180 255   79 187 255   81 191 255   81 190 255   6 4 11   6 4 11   6 4 11   6 4 11   6 4 11   17 12 32   29 21 55   41 30 76   51 37 95   60 44 111   
51 51 51   51 51 51   51 51 51   51 51 51   51 51 51   51 51 51   14 25 17   14 25 17   14 25 17   14 25 17   14 25 17   14 25 17   14 25 17   25 19 11   35 28 98   62 51 174   78 64 218   90 74 251   98 81 255   105 86 255   108 89 255   104 86 255   73 101 153   92 128 195   108 151 228   4 10 24   12 30 71   22 52 124   30 70 167   37 86 205   43 101 239   48 114 255   53 126 255   58 137 255   63 147 255   67 165 255   71 240 255   74 179 255   77 181 255   79 186 255   80 189 255   6 4 11   6 4 11   6 4 11   6 4 11   6 4 11   6 4 11   15 11 28   26 19 48   36 26 66   51 51 51   
51 51 51   51 51 51   51 51 51   51 51 51   51 51 51   51 51 51   14 25 17   14 25 17   14 25 17   14 25 17   14 25 17   14 25 17   255 212 125   255 255 153   45 37 127   63 52 178   77 63 216   88 72 247   97 80 255   108 90 255   108 89 255   109 89 255   101 83 255   89 123 187   104 144 219   4 10 24   11 26 61   20 46 110   27 64 152   34 80 189   40 94 222   45 107 253   50 119 255   55 130 255   59 140 255   64 155 255   68 255 255   71 233 255   74 174 255   76 180 255   78 184 255   77 182 255   6 4 11   6 4 11   6 4 11   6 4 11   6 4 11   6 4 11   8 6 16   51 51 51   51 51 51   
51 51 51   51 51 51   51 51 51   51 51 51   51 51 51   51 51 51   45 37 19   118 99 51   152 127 66   171 143 74   178 149 77   182 144 85   255 202 119   19 16 55   43 36 122   60 49 168   73 60 204   83 69 234   100 84 255   199 182 255   133 115 255   105 87 255   103 85 255   82 114 172   4 10 24   4 10 24   8 19 45   16 39 93   24 57 134   30 72 171   36 86 204   42 99 234   47 111 255   52 122 255   56 132 255   60 142 255   64 156 255   67 165 255   70 166 255   73 172 255   75 176 255   75 177 255   63 230 121   51 51 51   6 4 11   6 4 11   6 4 11   51 51 51   51 51 51   51 51 51   51 51 51   
51 51 51   51 51 51   51 51 51   51 51 51   51 51 51   51 51 51   65 54 28   112 94 49   142 118 61   161 155 77   170 142 74   165 138 71   229 182 107   16 13 46   38 31 106   53 44 150   66 54 185   76 63 214   86 71 239   118 102 255   113 96 255   99 82 255   97 80 255   5 4 16   4 10 24   4 10 24   4 10 24   13 31 73   20 48 114   27 63 150   33 77 183   38 90 214   43 102 242   48 113 255   52 123 255   56 133 255   60 142 255   64 150 255   67 157 255   69 163 255   71 168 255   72 169 255   127 255 167   64 233 122   51 51 51   51 51 51   51 51 51   51 51 51   51 51 51   51 51 51   51 51 51   
51 51 51   51 51 51   51 51 51   51 51 51   51 51 51   51 51 51   46 38 20   90 75 39   119 99 51   137 115 60   147 123 64   9 8 4   25 19 11   8 7 23   29 24 82   45 37 126   57 47 161   67 56 189   76 63 213   83 68 232   88 72 246   90 74 252   89 73 249   5 4 16   4 10 24   4 10 24   4 10 24   9 21 50   16 38 91   23 54 128   29 68 161   34 81 191   39 93 219   44 104 245   48 114 255   52 123 255   56 132 255   60 140 255   63 147 255   65 154 255   67 158 255   68 159 255   46 167 88   54 197 103   51 51 51   51 51 51   51 51 51   51 51 51   51 51 51   51 51 51   51 51 51   
51 51 51   51 51 51   51 51 51   51 51 51   51 51 51   51 51 51   9 8 4   56 46 24   85 71 37   104 87 45   112 94 48   9 8 4   25 19 11   5 4 16   18 15 51   34 28 95   46 38 131   57 47 160   65 54 183   72 59 202   76 63 215   79 65 221   77 63 215   5 4 16   4 10 24   4 10 24   4 10 24   4 10 24   12 28 66   18 43 103   24 57 136   30 70 167   35 82 195   40 93 221   44 104 246   48 113 255   52 122 255   55 130 255   58 137 255   61 143 255   62 147 255   63 148 255   31 115 60   38 139 73   51 51 51   51 51 51   51 51 51   51 51 51   51 51 51   51 51 51   51 51 51   
51 51 51   51 51 51   51 51 51   2 151 232   51 51 51   51 51 51   9 8 4   9 8 4   37 31 16   56 47 24   9 8 4   25 19 11   25 19 11   5 4 16   5 4 16   20 17 57   33 27 94   44 36 124   52 43 147   59 48 166   63 52 178   65 53 182   5 4 16   8 11 17   4 10 24   4 10 24   4 10 24   4 10 24   6 16 38   13 32 76   19 46 110   25 59 141   30 71 169   35 82 195   39 93 220   43 102 242   47 111 255   50 119 255   53 126 255   56 131 255   57 135 255   57 134 255   12 43 23   51 51 51   51 51 51   51 51 51   51 51 51   51 51 51   51 51 51   51 51 51   51 51 51   
2 152 233   3 181 255   3 200 255   3 210 255   3 213 255   3 207 255   3 177 255   51 51 51   9 8 4   9 8 4   51 51 51   25 19 11   25 19 11   25 19 11   5 4 16   5 4 16   17 14 49   28 23 80   37 30 104   43 36 122   47 38 132   47 38 131   5 4 16   8 11 17   8 11 17   4 10 24   4 10 24   4 10 24   4 10 24   8 19 45   14 34 80   20 47 112   25 59 141   30 71 167   34 81 192   38 90 214   42 99 235   45 107 253   48 113 255   50 119 255   51 121 255   50 117 255   51 51 51   51 51 51   51 51 51   51 51 51   51 51 51   51 51 51   51 51 51   51 51 51   51 51 51   
3 176 255   3 197 255   3 212 255   4 222 255   4 227 255   4 225 255   3 214 255   3 181 255   51 51 51   51 51 51   51 51 51   51 51 51   25 19 11   25 19 11   5 4 16   5 4 16   5 4 16   9 7 25   17 14 50   23 19 66   25 21 71   5 4 16   8 11 17   8 11 17   8 11 17   4 10 24   4 10 24   4 10 24   4 10 24   4 10 24   8 20 48   14 34 80   19 46 110   24 57 136   29 68 161   33 77 183   36 86 204   40 93 221   42 100 236   44 104 246   44 105 248   51 51 51   51 51 51   51 51 51   51 51 51   51 51 51   51 51 51   51 51 51   51 51 51   51 51 51   51 51 51   
3 181 255   3 200 255   3 213 255   4 223 255   4 227 255   4 227 255   4 220 255   3 201 255   51 51 51   51 51 51   51 51 51   51 51 51   51 51 51   25 19 11   1 20 3   1 20 3   1 20 3   1 20 3   1 20 3   51 255 110   38 255 75   1 20 3   1 20 3   8 11 17   8 11 17   8 11 17   4 10 24   4 10 24   4 10 24   4 10 24   4 10 24   8 19 45   13 31 75   18 43 102   23 53 127   27 63 149   30 71 169   33 78 186   35 84 198   37 86 205   34 81 193   51 51 51   51 51 51   51 51 51   34 69 95   89 178 245   123 246 255   51 51 51   51 51 51   51 51 51   51 51 51   
3 177 255   3 194 255   3 207 255   49 252 255   60 255 255   4 221 255   3 215 255   3 200 255   2 160 245   51 51 51   51 51 51   51 51 51   51 51 51   51 51 51   7 78 14   15 163 30   21 223 42   26 255 50   33 255 67   78 255 183   51 255 110   1 20 3   1 20 3   17 0 10   17 0 10   17 17 0   17 17 0   4 10 24   4 10 24   4 10 24   4 10 24   4 10 24   6 15 35   11 27 63   16 37 88   19 46 110   23 54 129   26 61 144   27 64 153   26 62 148   52 10 136   64 12 167   73 14 190   7 14 20   23 47 64   73 146 200   193 255 255   133 255 255   51 51 51   51 51 51   51 51 51   
3 167 255   3 184 255   3 196 255   3 204 255   3 209 255   3 209 255   3 203 255   3 188 255   2 153 234   51 51 51   51 51 51   51 51 51   51 51 51   51 51 51   5 59 11   13 140 26   19 198 37   23 244 46   27 255 53   33 255 67   33 255 65   1 20 3   1 20 3   5 13 16   17 0 10   17 17 0   17 17 0   17 17 0   4 10 24   4 10 24   4 10 24   4 10 24   4 10 24   4 10 24   7 18 42   11 27 64   14 34 80   16 38 90   15 36 86   40 7 104   53 10 139   65 12 169   74 14 195   7 14 20   7 14 20   43 86 118   82 165 226   108 216 255   51 51 51   51 51 51   51 51 51   
2 152 233   3 168 255   3 180 255   3 188 255   3 192 255   3 191 255   3 184 255   3 169 255   2 130 200   51 51 51   51 51 51   2 3 4   2 3 4   2 3 4   1 20 3   10 104 19   15 163 30   20 208 39   23 244 46   26 255 50   27 255 53   27 255 54   1 20 3   5 13 16   5 13 16   17 17 0   17 17 0   17 17 0   17 17 0   4 10 24   4 10 24   4 10 24   4 10 24   4 10 24   4 10 24   4 10 24   4 10 24   4 0 12   22 4 58   37 7 98   50 10 132   62 12 162   72 14 188   80 16 210   7 14 20   7 14 20   40 81 111   51 51 51   51 51 51   51 51 51   51 51 51   
2 131 201   2 147 226   2 159 243   3 166 255   3 170 255   3 168 255   2 159 244   2 140 215   1 85 130   51 51 51   2 3 4   2 3 4   2 3 4   5 13 16   1 20 3   5 55 10   11 117 22   15 163 30   19 198 37   21 223 42   23 236 44   22 233 44   1 20 3   5 13 16   5 13 16   5 13 16   17 17 0   17 17 0   17 17 0   17 17 0   17 17 0   17 17 0   17 17 0   150 157 6   165 172 6   171 177 6   158 163 5   4 0 12   18 3 48   33 6 86   46 9 120   57 11 149   67 13 176   123 193 255   83 18 218   88 17 230   51 51 51   51 51 51   51 51 51   51 51 51   51 51 51   
1 105 161   2 121 186   2 132 203   2 139 213   2 141 216   2 138 211   2 126 193   1 98 150   51 51 51   51 51 51   51 51 51   2 3 4   2 3 4   5 13 16   1 20 3   1 20 3   5 55 10   10 104 19   13 140 26   15 163 30   16 172 32   1 20 3   5 13 16   5 13 16   5 13 16   5 13 16   18 3 15   17 17 0   17 17 0   17 17 0   17 17 0   17 17 0   90 93 3   109 113 3   121 125 4   119 123 4   4 0 12   4 0 12   12 2 32   27 5 71   40 7 104   51 10 134   61 12 160   71 18 187   78 16 203   83 16 216   83 16 217   51 51 51   51 51 51   51 51 51   51 51 51   
1 70 108   1 88 134   1 99 151   1 105 160   1 105 161   1 98 149   1 78 119   51 51 51   51 51 51   51 51 51   51 51 51   51 51 51   5 13 16   5 13 16   5 13 16   1 20 3   1 20 3   1 20 3   5 59 11   7 78 14   6 70 13   5 13 16   5 13 16   5 13 16   5 13 16   5 13 16   18 3 15   18 3 15   17 17 0   17 17 0   17 17 0   17 17 0   39 41 1   55 56 1   54 55 1   19 47 22   4 0 12   4 0 12   4 0 12   19 3 51   32 6 85   44 8 115   54 10 141   63 12 164   70 14 184   76 15 199   77 15 201   51 51 51   51 51 51   51 51 51   51 51 51   
0 22 34   0 42 64   0 53 82   1 57 88   0 53 82   0 35 54   51 51 51   51 51 51   51 51 51   51 51 51   51 51 51   51 51 51   5 13 16   5 13 16   5 13 16   5 13 16   5 13 16   5 13 16   5 13 16   5 13 16   5 13 16   5 13 16   5 13 16   5 13 16   5 13 16   5 13 16   18 3 15   18 3 15   2 22 7   2 22 7   17 17 0   93 76 19   152 125 32   174 143 37   5 24 1   3 8 3   4 0 12   4 0 12   4 0 12   10 2 28   24 4 63   35 7 93   46 9 119   54 10 143   62 12 162   67 13 176   67 13 176   51 51 51   51 51 51   51 51 51   51 51 51   
51 51 51   0 12 19   0 12 19   0 12 19   51 51 51   51 51 51   51 51 51   51 51 51   51 51 51   51 51 51   51 51 51   51 51 51   5 13 16   5 13 16   5 13 16   5 13 16   5 13 16   5 13 16   65 163 211   71 178 229   5 13 16   5 13 16   5 13 16   5 13 16   5 13 16   5 13 16   2 22 7   2 22 7   2 22 7   2 22 7   10 8 2   87 71 18   145 119 31   178 147 39   5 24 1   5 24 1   3 8 3   4 0 12   4 0 12   4 0 12   13 2 36   25 5 67   36 7 94   45 8 117   52 10 136   56 11 148   51 51 51   51 51 51   51 51 51   51 51 51   51 51 51   
51 51 51   51 51 51   51 51 51   51 51 51   51 51 51   51 51 51   51 51 51   51 51 51   51 51 51   51 51 51   51 51 51   51 51 51   5 13 16   5 13 16   5 13 16   34 86 112   44 111 143   53 132 170   60 149 192   65 163 211   70 175 226   5 13 16   5 13 16   5 13 16   5 13 16   5 13 16   2 22 7   2 22 7   2 22 7   24 239 73   10 8 2   55 45 11   113 93 24   147 120 31   5 24 1   5 24 1   3 8 3   3 8 3   4 0 12   4 0 12   4 0 12   13 2 36   24 4 63   33 6 86   39 7 103   41 8 107   51 51 51   51 51 51   51 51 51   51 51 51   51 51 51   
51 51 51   51 51 51   51 51 51   51 51 51   51 51 51   51 51 51   51 51 51   51 51 51   51 51 51   51 51 51   51 51 51   51 51 51   3 5 14   5 13 16   14 36 47   27 68 88   37 93 121   46 114 148   53 132 170   59 146 189   63 158 204   67 166 215   69 171 221   5 13 16   5 13 16   5 13 16   2 22 7   2 22 7   12 120 37   2 22 7   2 22 7   10 8 2   58 47 12   86 70 18   5 24 1   3 8 3   3 8 3   14 33 15   22 52 25   4 0 12   4 0 12   4 0 12   9 1 23   17 3 44   19 3 50   51 51 51   51 51 51   51 51 51   51 51 51   51 51 51   51 51 51   
51 51 51   51 51 51   51 51 51   51 51 51   51 51 51   51 51 51   51 51 51   51 51 51   51 51 51   51 51 51   51 51 51   51 51 51   3 5 14   5 13 16   5 13 16   18 45 59   29 72 93   37 94 121   45 111 144   50 126 162   55 137 177   58 145 187   59 149 192   59 147 190   193 92 241   244 116 255   255 131 255   255 129 255   2 22 7   2 22 7   2 22 7   2 22 7   2 22 7   2 22 7   51 51 51   3 8 3   3 8 3   3 8 3   11 26 12   17 41 19   19 47 22   51 51 51   51 51 51   51 51 51   51 51 51   51 51 51   51 51 51   51 51 51   51 51 51   51 51 51   51 51 51   
51 51 51   51 51 51   51 51 51   51 51 51   51 51 51   51 51 51   184 255 255   255 255 255   14 23 23   51 51 51   51 51 51   51 51 51   3 5 14   3 5 14   5 13 16   6 16 20   18 45 59   27 68 88   35 87 112   40 101 130   45 112 144   47 118 153   48 120 155   166 79 207   230 124 255   255 190 255   255 229 255   255 212 255   255 148 255   2 22 7   11 116 35   2 22 7   2 22 7   51 51 51   51 51 51   51 51 51   51 51 51   3 8 3   3 8 3   51 51 51   51 51 51   51 51 51   51 51 51   51 51 51   51 51 51   51 51 51   51 51 51   51 51 51   51 51 51   51 51 51   51 51 51   
51 51 51   51 51 51   51 51 51   51 51 51   51 51 51   54 86 86   200 255 255   255 255 255   255 255 255   51 51 51   51 51 51   51 51 51   51 51 51   3 5 14   3 5 14   5 13 16   5 13 16   14 35 45   22 55 71   28 69 89   31 79 102   33 83 107   104 49 130   181 86 226   243 163 255   255 251 255   255 255 255   255 255 255   255 225 255   255 137 255   2 22 7   51 51 51   51 51 51   51 51 51   51 51 51   51 51 51   51 51 51   51 51 51   51 51 51   51 51 51   51 51 51   51 51 51   51 51 51   51 51 51   51 51 51   51 51 51   51 51 51   51 51 51   51 51 51   51 51 51   51 51 51   
51 51 51   51 51 51   51 51 51   51 51 51   51 51 51   14 23 23   151 237 237   200 255 255   184 255 255   51 51 51   51 51 51   51 51 51   51 51 51   51 51 51   51 51 51   51 51 51   5 13 16   5 13 16   5 13 16   9 23 30   12 29 38   18 8 23   109 51 135   180 89 228   241 175 255   255 255 255   255 255 255   255 255 255   255 255 255   255 153 255   51 51 51   51 51 51   51 51 51   51 51 51   51 51 51   51 51 51   51 51 51   51 51 51   51 51 51   51 51 51   51 51 51   51 51 51   51 51 51   51 51 51   51 51 51   51 51 51   51 51 51   51 51 51   51 51 51   51 51 51   51 51 51   
51 51 51   51 51 51   51 51 51   51 51 51   51 51 51   51 51 51   14 23 23   54 86 86   51 51 51   51 51 51   51 51 51   51 51 51   51 51 51   51 51 51   51 51 51   51 51 51   51 51 51   51 51 51   51 51 51   51 51 51   51 51 51   18 8 23   99 47 123   168 81 211   227 159 255   255 250 255   255 255 255   255 255 255   255 255 255   255 157 255   51 51 51   51 51 51   51 51 51   51 51 51   51 51 51   51 51 51   51 51 51   51 51 51   51 51 51   51 51 51   51 51 51   51 51 51   51 51 51   51 51 51   51 51 51   51 51 51   51 51 51   51 51 51   51 51 51   51 51 51   51 51 51   
51 51 51   51 51 51   51 51 51   51 51 51   51 51 51   51 51 51   51 51 51   51 51 51   51 51 51   51 51 51   51 51 51   51 51 51   51 51 51   51 51 51   51 51 51   51 51 51   51 51 51   51 51 51   51 51 51   51 51 51   51 51 51   18 8 23   77 36 96   146 69 182   203 122 255   251 198 255   255 255 255   255 255 255   255 221 255   255 136 255   51 51 51   51 51 51   51 51 51   51 51 51   51 51 51   51 51 51   51 51 51   51 51 51   51 51 51   51 51 51   51 51 51   51 51 51   51 51 51   51 51 51   51 51 51   51 51 51   51 51 51   51 51 51   51 51 51   51 51 51   51 51 51   
51 51 51   51 51 51   51 51 51   51 51 51   51 51 51   51 51 51   51 51 51   51 51 51   51 51 51   51 51 51   51 51 51   51 51 51   51 51 51   51 51 51   51 51 51   51 51 51   51 51 51   51 51 51   51 51 51   51 51 51   51 51 51   18 8 23   42 20 53   115 54 143   170 82 213   215 133 255   250 176 255   255 186 255   255 152 255   237 112 255   51 51 51   51 51 51   51 51 51   51 51 51   51 51 51   51 51 51   51 51 51   51 51 51   51 51 51   51 51 51   51 51 51   51 51 51   51 51 51   51 51 51   51 51 51   51 51 51   51 51 51   51 51 51   51 51 51   51 51 51   51 51 51   
51 51 51   51 51 51   51 51 51   51 51 51   51 51 51   51 51 51   51 51 51   51 51 51   51 51 51   51 51 51   51 51 51   51 51 51   51 51 51   51 51 51   51 51 51   51 51 51   51 51 51   51 51 51   51 51 51   51 51 51   51 51 51   51 51 51   18 8 23   71 33 88   128 61 160   171 81 214   203 103 255   220 110 255   217 103 255   51 51 51   51 51 51   51 51 51   51 51 51   51 51 51   51 51 51   51 51 51   51 51 51   51 51 51   51 51 51   51 51 51   51 51 51   51 51 51   51 51 51   51 51 51   51 51 51   51 51 51   51 51 51   51 51 51   51 51 51   51 51 51   51 51 51   
51 51 51   51 51 51   51 51 51   51 51 51   51 51 51   51 51 51   51 51 51   51 51 51   51 51 51   51 51 51   51 51 51   51 51 51   51 51 51   51 51 51   51 51 51   51 51 51   51 51 51   51 51 51   51 51 51   51 51 51   51 51 51   51 51 51   18 8 23   18 8 23   70 33 87   115 55 144   144 68 180   154 73 193   100 47 124   51 51 51   51 51 51   51 51 51   51 51 51   51 51 51   51 51 51   51 51 51   51 51 51   51 51 51   51 51 51   51 51 51   51 51 51   51 51 51   51 51 51   51 51 51   51 51 51   51 51 51   51 51 51   51 51 51   51 51 51   51 51 51   51 51 51   
51 51 51   51 51 51   51 51 51   51 51 51   51 51 51   51 51 51   51 51 51   51 51 51   51 51 51   51 51 51   51 51 51   51 51 51   51 51 51   51 51 51   51 51 51   51 51 51   51 51 51   51 51 51   51 51 51   51 51 51   51 51 51   51 51 51   51 51 51   51 51 51   18 8 23   18 8 23   34 16 43   51 51 51   51 51 51   51 51 51   51 51 51   51 51 51   51 51 51   51 51 51   51 51 51   51 51 51   51 51 51   51 51 51   51 51 51   51 51 51   51 51 51   51 51 51   51 51 51   51 51 51   51 51 51   51 51 51   51 51 51   51 51 51   51 51 51   51 51 51   51 51 51   
