P3
51 51
255
51 51 51   51 51 51   51 51 51   51 51 51   51 51 51   51 51 51   51 51 51   51 51 51   51 51 51   51 51 51   51 51 51   51 51 51   51 51 51   51 51 51   51 51 51   51 51 51   51 51 51   51 51 51   51 51 51   51 51 51   51 51 51   51 51 51   51 51 51   51 51 51   51 51 51   51 51 51   51 51 51   51 51 51   51 51 51   51 51 51   51 51 51   51 51 51   51 51 51   51 51 51   51 51 51   51 51 51   51 51 51   51 51 51   51 51 51   51 51 51   51 51 51   51 51 51   51 51 51   51 51 51   51 51 51   51 51 51   51 51 51   51 51 51   51 51 51   51 51 51   51 51 51   
51 51 51   51 51 51   51 51 51   51 51 51   51 51 51   51 51 51   51 51 51   51 51 51   51 51 51   51 51 51   51 51 51   51 51 51   51 51 51   51 51 51   51 51 51   51 51 51   51 51 51   51 51 51   51 51 51   51 51 51   51 51 51   51 51 51   51 51 51   51 51 51   51 51 51   51 51 51   51 51 51   51 51 51   51 51 51   51 51 51   51 51 51   51 51 51   51 51 51   51 51 51   51 51 51   51 51 51   51 51 51   51 51 51   51 51 51   51 51 51   51 51 51   51 51 51   51 51 51   51 51 51   51 51 51   51 51 51   51 51 51   51 51 51   51 51 51   51 51 51   51 51 51   
51 51 51   51 51 51   51 51 51   51 51 51   51 51 51   51 51 51   51 51 51   51 51 51   51 51 51   51 51 51   51 51 51   51 51 51   51 51 51   51 51 51   51 51 51   51 51 51   51 51 51   51 51 51   51 51 51   51 51 51   51 51 51   51 51 51   51 51 51   51 51 51   51 51 51   51 51 51   51 51 51   51 51 51   51 51 51   51 51 51   51 51 51   51 51 51   51 51 51   51 51 51   51 51 51   51 51 51   51 51 51   51 51 51   51 51 51   51 51 51   51 51 51   51 51 51   51 51 51   51 51 51   51 51 51   51 51 51   51 51 51   51 51 51   51 51 51   51 51 51   51 51 51   
51 51 51   51 51 51   51 51 51   51 51 51   51 51 51   51 51 51   51 51 51   51 51 51   51 51 51   51 51 51   51 51 51   51 51 51   51 51 51   51 51 51   51 51 51   51 51 51   51 51 51   51 51 51   51 51 51   51 51 51   51 51 51   51 51 51   51 51 51   51 51 51   51 51 51   51 51 51   51 51 51   51 51 51   202 32 182   253 40 228   255 46 255   255 52 255   255 57 255   255 61 255   51 51 51   51 51 51   51 51 51   51 51 51   51 51 51   100 8 6   123 10 8   143 12 9   162 13 11   180 15 12   197 16 13   213 17 14   51 51 51   51 51 51   51 51 51   51 51 51   51 51 51   
51 51 51   51 51 51   51 51 51   51 51 51   51 51 51   51 51 51   51 51 51   51 51 51   51 51 51   51 51 51   51 51 51   51 51 51   51 51 51   51 51 51   51 51 51   51 51 51   51 51 51   51 51 51   51 51 51   51 51 51   51 51 51   51 51 51   51 51 51   51 51 51   51 51 51   51 51 51   51 51 51   138 22 124   190 30 171   233 37 210   255 43 245   255 50 255   255 64 255   255 63 255   255 62 255   51 51 51   51 51 51   51 51 51   65 5 4   89 7 6   109 9 7   129 10 8   147 12 10   165 13 11   182 15 12   198 16 13   214 17 14   51 51 51   51 51 51   51 51 51   51 51 51   
51 51 51   51 51 51   51 51 51   51 51 51   51 51 51   51 51 51   51 51 51   51 51 51   51 51 51   51 51 51   51 51 51   51 51 51   51 51 51   51 51 51   51 51 51   51 51 51   51 51 51   51 51 51   51 51 51   51 51 51   51 51 51   51 51 51   51 51 51   51 51 51   51 51 51   51 51 51   58 9 52   118 18 107   166 26 149   207 33 186   244 39 220   255 52 253   255 127 255   255 179 255   255 75 255   255 62 255   51 51 51   26 2 1   52 4 3   74 6 5   94 7 6   113 9 7   131 11 8   151 14 11   221 64 49   193 24 19   198 16 13   213 17 14   51 51 51   51 51 51   51 51 51   
51 51 51   51 51 51   51 51 51   51 51 51   51 51 51   51 51 51   51 51 51   51 51 51   51 51 51   51 51 51   51 51 51   51 51 51   51 51 51   51 51 51   51 51 51   51 51 51   51 51 51   51 51 51   51 51 51   97 84 255   121 106 255   51 51 51   51 51 51   51 51 51   51 51 51   51 51 51   36 5 33   91 14 82   136 21 123   177 28 159   214 34 193   250 42 224   255 96 255   255 213 255   255 124 255   255 58 255   255 59 255   11 1 0   36 3 2   58 4 3   78 6 5   97 8 6   115 9 7   133 11 9   179 39 31   221 64 49   182 15 12   197 16 13   51 51 51   51 51 51   51 51 51   
51 51 51   51 51 51   51 51 51   51 51 51   51 51 51   51 51 51   51 51 51   51 51 51   51 51 51   51 51 51   51 51 51   51 51 51   51 51 51   51 51 51   51 51 51   51 51 51   51 51 51   51 51 51   57 50 180   93 81 255   118 103 255   133 116 255   51 51 51   51 51 51   51 51 51   22 3 19   22 3 19   59 9 53   104 16 93   144 23 130   181 28 163   215 34 194   252 45 224   255 78 255   255 77 255   255 53 255   255 55 255   11 1 0   19 1 1   41 3 2   61 5 4   80 6 5   98 8 6   115 9 7   133 11 9   151 14 11   165 13 11   180 15 12   51 51 51   51 51 51   51 51 51   
51 51 51   51 51 51   51 51 51   51 51 51   51 51 51   51 51 51   51 51 51   51 51 51   51 51 51   51 51 51   51 51 51   51 51 51   51 51 51   51 51 51   51 51 51   51 51 51   51 51 51   7 6 23   35 31 111   69 60 215   94 82 255   111 97 255   113 98 255   51 51 51   51 51 51   22 3 19   22 3 19   22 3 19   68 10 61   108 17 98   145 23 131   180 28 162   212 33 191   243 39 218   255 44 243   255 46 255   255 49 255   11 1 0   11 1 0   23 1 1   43 3 2   62 5 4   80 6 5   98 8 6   115 9 7   131 11 8   147 12 10   162 13 11   51 51 51   51 51 51   51 51 51   
51 51 51   51 51 51   51 51 51   51 51 51   51 51 51   51 51 51   51 51 51   51 51 51   51 51 51   51 51 51   51 51 51   51 51 51   51 51 51   51 51 51   51 51 51   51 51 51   51 51 51   7 6 23   7 6 23   37 32 117   62 54 196   81 70 252   85 74 255   51 51 51   51 51 51   22 3 19   22 3 19   22 3 19   22 3 19   70 11 63   108 17 97   142 22 128   174 27 157   204 32 184   231 36 208   254 40 229   255 43 243   11 1 0   11 1 0   11 1 0   24 2 1   44 3 3   62 5 4   80 6 5   97 8 6   113 9 7   129 10 8   143 12 9   51 51 51   51 51 51   51 51 51   
51 51 51   51 51 51   51 51 51   51 51 51   51 51 51   51 51 51   51 51 51   51 51 51   51 51 51   51 51 51   51 51 51   51 51 51   51 51 51   51 51 51   51 51 51   51 51 51   51 51 51   51 51 51   7 6 23   7 6 23   24 21 76   41 36 130   51 51 51   51 51 51   51 51 51   22 3 19   22 3 19   22 3 19   22 3 19   22 3 19   67 10 60   102 16 92   134 21 121   163 26 147   190 30 171   212 33 191   223 35 201   11 1 0   11 1 0   11 1 0   11 1 0   24 2 1   43 3 2   61 5 4   78 6 5   94 7 6   109 9 7   123 10 8   51 51 51   51 51 51   51 51 51   
51 51 51   51 51 51   51 51 51   51 51 51   51 51 51   51 51 51   51 51 51   51 51 51   51 51 51   51 51 51   51 51 51   51 51 51   51 51 51   51 51 51   51 51 51   51 51 51   51 51 51   51 51 51   51 51 51   7 6 23   7 6 23   7 6 23   51 51 51   51 51 51   51 51 51   22 3 19   22 3 19   22 3 19   22 3 19   22 3 19   22 3 19   58 9 52   90 14 81   119 19 107   145 23 130   164 26 148   11 1 0   11 1 0   11 1 0   11 1 0   11 1 0   11 1 0   23 1 1   41 3 2   58 4 3   74 6 5   89 7 6   100 8 6   51 51 51   51 51 51   51 51 51   
51 51 51   51 51 51   51 51 51   51 51 51   51 51 51   51 51 51   51 51 51   51 51 51   51 51 51   51 51 51   51 51 51   51 51 51   204 162 74   255 255 242   255 255 121   51 51 51   51 51 51   51 51 51   51 51 51   51 51 51   51 51 51   51 51 51   51 51 51   51 51 51   51 51 51   51 51 51   22 3 19   22 3 19   22 3 19   22 3 19   22 3 19   22 3 19   41 6 37   70 11 63   93 14 84   105 16 94   11 1 0   11 1 0   11 1 0   11 1 0   11 1 0   11 1 0   11 1 0   19 1 1   36 3 2   52 4 3   65 5 4   51 51 51   51 51 51   51 51 51   51 51 51   
51 51 51   51 51 51   51 51 51   51 51 51   51 51 51   51 51 51   51 51 51   51 51 51   51 51 51   51 51 51   51 51 51   51 51 51   81 64 29   189 149 68   228 180 82   51 51 51   51 51 51   51 51 51   51 51 51   51 51 51   51 51 51   51 51 51   51 51 51   51 51 51   51 51 51   51 51 51   51 51 51   22 3 19   22 3 19   22 3 19   22 3 19   22 3 19   22 3 19   22 3 19   28 4 25   51 51 51   11 1 0   11 1 0   11 1 0   11 1 0   11 1 0   11 1 0   11 1 0   11 1 0   11 1 0   26 2 1   51 51 51   51 51 51   51 51 51   51 51 51   51 51 51   
51 51 51   51 51 51   51 51 51   51 51 51   51 51 51   51 51 51   51 51 51   51 51 51   51 51 51   51 51 51   51 51 51   51 51 51   19 15 7   19 15 7   19 15 7   51 51 51   51 51 51   51 51 51   51 51 51   51 51 51   51 51 51   51 51 51   51 51 51   51 51 51   51 51 51   51 51 51   51 51 51   51 51 51   22 3 19   22 3 19   22 3 19   22 3 19   22 3 19   22 3 19   51 51 51   51 51 51   51 51 51   11 1 0   11 1 0   11 1 0   11 1 0   11 1 0   11 1 0   11 1 0   11 1 0   51 51 51   51 51 51   51 51 51   51 51 51   51 51 51   51 51 51   
51 51 51   51 51 51   51 51 51   51 51 51   51 51 51   51 51 51   51 51 51   51 51 51   51 51 51   51 51 51   51 51 51   51 51 51   51 51 51   51 51 51   51 51 51   51 51 51   51 51 51   51 51 51   51 51 51   51 51 51   51 51 51   51 51 51   51 51 51   51 51 51   51 51 51   51 51 51   51 51 51   51 51 51   51 51 51   51 51 51   51 51 51   51 51 51   51 51 51   51 51 51   51 51 51   51 51 51   51 51 51   51 51 51   51 51 51   11 1 0   11 1 0   11 1 0   11 1 0   51 51 51   51 51 51   51 51 51   51 51 51   51 51 51   51 51 51   51 51 51   51 51 51   
51 51 51   51 51 51   51 51 51   51 51 51   51 51 51   51 51 51   51 51 51   51 51 51   51 51 51   51 51 51   51 51 51   51 51 51   51 51 51   51 51 51   51 51 51   51 51 51   51 51 51   51 51 51   51 51 51   241 255 111   255 255 127   51 51 51   51 51 51   51 51 51   51 51 51   51 51 51   51 51 51   51 51 51   51 51 51   51 51 51   51 51 51   51 51 51   51 51 51   51 51 51   51 51 51   51 51 51   51 51 51   51 51 51   51 51 51   51 51 51   51 51 51   51 51 51   51 51 51   51 51 51   51 51 51   51 51 51   51 51 51   51 51 51   51 51 51   51 51 51   51 51 51   
51 51 51   51 51 51   51 51 51   51 51 51   51 51 51   51 51 51   51 51 51   51 51 51   51 51 51   51 51 51   51 51 51   21 158 79   26 193 97   27 205 103   51 51 51   51 51 51   51 51 51   109 135 50   200 249 92   255 255 119   255 255 137   255 255 147   51 51 51   51 51 51   51 51 51   51 51 51   51 51 51   51 51 51   51 51 51   24 23 8   24 23 8   51 51 51   51 51 51   51 51 51   51 51 51   51 51 51   51 51 51   51 51 51   51 51 51   51 51 51   51 51 51   51 51 51   224 222 255   255 255 255   51 51 51   51 51 51   51 51 51   51 51 51   51 51 51   51 51 51   51 51 51   
51 51 51   51 51 51   51 51 51   51 51 51   51 51 51   51 51 51   51 51 51   51 51 51   51 51 51   51 51 51   18 137 69   1 12 6   1 12 6   1 12 6   1 12 6   27 203 102   51 51 51   106 131 49   179 222 83   233 255 107   255 255 128   255 255 138   255 255 141   51 51 51   51 51 51   51 51 51   51 51 51   51 51 51   24 23 8   24 23 8   255 255 124   24 23 8   24 23 8   51 51 51   51 51 51   51 51 51   51 51 51   51 51 51   51 51 51   51 51 51   17 17 24   97 96 134   186 184 255   255 255 255   255 255 255   51 51 51   51 51 51   51 51 51   51 51 51   51 51 51   51 51 51   
51 51 51   51 51 51   51 51 51   51 51 51   51 51 51   51 51 51   51 51 51   51 51 51   51 51 51   10 79 40   17 131 66   1 12 6   1 12 6   1 12 6   1 12 6   1 12 6   17 21 8   69 86 32   140 173 64   192 239 89   232 255 107   255 255 120   255 255 125   51 51 51   51 51 51   51 51 51   51 51 51   24 23 8   24 23 8   229 220 79   255 255 107   255 255 203   24 23 8   51 51 51   51 51 51   51 51 51   51 51 51   51 51 51   51 51 51   51 51 51   17 17 24   37 36 51   124 123 172   199 197 255   255 255 255   51 51 51   51 51 51   51 51 51   51 51 51   51 51 51   51 51 51   
51 51 51   51 51 51   51 51 51   51 51 51   51 51 51   51 51 51   51 51 51   51 51 51   51 51 51   8 63 32   15 111 56   1 12 6   1 12 6   1 12 6   1 12 6   27 200 101   17 21 8   17 21 8   86 107 39   139 173 64   180 223 83   207 255 95   216 255 99   51 51 51   51 51 51   51 51 51   51 51 51   24 23 8   63 61 22   164 158 57   245 236 85   255 255 107   255 255 124   24 23 8   51 51 51   51 51 51   51 51 51   51 51 51   51 51 51   51 51 51   17 17 24   17 17 24   49 49 68   124 122 171   182 180 252   51 51 51   51 51 51   51 51 51   51 51 51   51 51 51   51 51 51   
51 51 51   51 51 51   51 51 51   51 51 51   51 51 51   51 51 51   51 51 51   51 51 51   51 51 51   4 33 16   10 81 40   15 115 58   1 12 6   1 12 6   23 170 86   1 12 6   1 12 6   17 21 8   17 21 8   72 90 33   113 140 52   138 171 64   139 172 64   51 51 51   51 51 51   51 51 51   51 51 51   24 23 8   24 23 8   82 79 28   164 158 57   229 220 79   255 255 94   24 23 8   51 51 51   51 51 51   51 51 51   51 51 51   51 51 51   51 51 51   51 51 51   17 17 24   17 17 24   29 29 41   51 51 51   51 51 51   51 51 51   51 51 51   51 51 51   51 51 51   51 51 51   
51 51 51   51 51 51   51 51 51   51 51 51   51 51 51   51 51 51   51 51 51   51 51 51   51 51 51   1 12 6   5 41 20   10 76 38   13 102 51   16 121 61   17 131 66   1 12 6   1 12 6   51 51 51   17 21 8   17 21 8   24 30 11   42 52 19   51 51 51   51 51 51   51 51 51   51 51 51   51 51 51   51 51 51   24 23 8   24 23 8   63 61 22   126 121 43   160 154 55   51 51 51   51 51 51   51 51 51   51 51 51   51 51 51   51 51 51   51 51 51   51 51 51   51 51 51   51 51 51   51 51 51   51 51 51   51 51 51   51 51 51   51 51 51   51 51 51   51 51 51   51 51 51   
51 51 51   51 51 51   51 51 51   51 51 51   51 51 51   51 51 51   51 51 51   51 51 51   51 51 51   1 12 6   1 12 6   3 26 13   7 54 27   9 72 36   10 80 40   1 12 6   51 51 51   51 51 51   51 51 51   51 51 51   51 51 51   51 51 51   51 51 51   51 51 51   51 51 51   51 51 51   51 51 51   51 51 51   51 51 51   24 23 8   24 23 8   24 23 8   51 51 51   51 51 51   51 51 51   51 51 51   51 51 51   51 51 51   51 51 51   51 51 51   51 51 51   51 51 51   51 51 51   51 51 51   51 51 51   51 51 51   51 51 51   51 51 51   51 51 51   51 51 51   51 51 51   
51 51 51   51 51 51   51 51 51   51 51 51   51 51 51   51 51 51   51 51 51   51 51 51   51 51 51   51 51 51   1 12 6   1 12 6   1 12 6   1 12 6   1 12 6   51 51 51   51 51 51   51 51 51   51 51 51   51 51 51   51 51 51   51 51 51   51 51 51   51 51 51   51 51 51   51 51 51   51 51 51   51 51 51   51 51 51   51 51 51   51 51 51   51 51 51   51 51 51   51 51 51   51 51 51   51 51 51   51 51 51   51 51 51   51 51 51   51 51 51   51 51 51   51 51 51   51 51 51   51 51 51   51 51 51   51 51 51   51 51 51   51 51 51   51 51 51   51 51 51   51 51 51   
51 51 51   51 51 51   51 51 51   51 51 51   51 51 51   51 51 51   51 51 51   51 51 51   51 51 51   51 51 51   51 51 51   51 51 51   51 51 51   51 51 51   51 51 51   51 51 51   51 51 51   51 51 51   51 51 51   51 51 51   51 51 51   51 51 51   51 51 51   51 51 51   51 51 51   51 51 51   51 51 51   51 51 51   51 51 51   51 51 51   51 51 51   51 51 51   51 51 51   51 51 51   51 51 51   51 51 51   51 51 51   51 51 51   51 51 51   51 51 51   51 51 51   51 51 51   51 51 51   51 51 51   51 51 51   51 51 51   51 51 51   51 51 51   51 51 51   51 51 51   51 51 51   
51 51 51   51 51 51   51 51 51   51 51 51   51 51 51   51 51 51   51 51 51   51 51 51   51 51 51   51 51 51   51 51 51   51 51 51   51 51 51   51 51 51   51 51 51   51 51 51   51 51 51   51 51 51   51 51 51   51 51 51   51 51 51   51 51 51   51 51 51   51 51 51   51 51 51   51 51 51   51 51 51   51 51 51   51 51 51   51 51 51   51 51 51   51 51 51   51 51 51   51 51 51   51 51 51   51 51 51   51 51 51   51 51 51   51 51 51   51 51 51   51 51 51   51 51 51   51 51 51   51 51 51   51 51 51   51 51 51   51 51 51   51 51 51   51 51 51   51 51 51   51 51 51   
51 51 51   51 51 51   51 51 51   51 51 51   51 51 51   51 51 51   51 51 51   51 51 51   51 51 51   51 51 51   51 51 51   51 51 51   51 51 51   51 51 51   51 51 51   51 51 51   51 51 51   51 51 51   51 51 51   51 51 51   51 51 51   51 51 51   51 51 51   51 51 51   51 51 51   51 51 51   51 51 51   51 51 51   51 51 51   51 51 51   51 51 51   51 51 51   51 51 51   51 51 51   51 51 51   51 51 51   51 51 51   51 51 51   51 51 51   51 51 51   51 52 27   96 98 50   129 132 67   156 159 81   178 182 93   186 190 97   51 51 51   51 51 51   51 51 51   51 51 51   51 51 51   
51 51 51   51 51 51   51 51 51   51 51 51   51 51 51   51 51 51   51 51 51   51 51 51   51 51 51   51 51 51   130 11 173   51 51 51   51 51 51   51 51 51   51 51 51   51 51 51   51 51 51   51 51 51   51 51 51   51 51 51   51 51 51   51 51 51   51 51 51   51 51 51   51 51 51   51 51 51   51 51 51   51 51 51   51 51 51   164 109 136   255 197 245   255 254 255   255 255 255   51 51 51   51 51 51   51 51 51   51 51 51   51 51 51   51 51 51   11 11 5   55 56 28   91 93 48   123 125 64   150 153 78   173 177 90   192 196 100   202 206 105   51 51 51   51 51 51   51 51 51   51 51 51   
51 51 51   51 51 51   51 51 51   51 51 51   51 51 51   51 51 51   51 51 51   51 51 51   51 51 51   116 10 155   208 76 225   188 39 231   51 51 51   51 51 51   51 51 51   51 51 51   51 51 51   51 51 51   51 51 51   230 125 160   51 51 51   51 51 51   51 51 51   51 51 51   51 51 51   51 51 51   51 51 51   51 51 51   25 16 20   183 121 151   255 194 241   255 249 255   255 255 255   255 255 255   51 51 51   51 51 51   51 51 51   51 51 51   11 11 5   11 11 5   44 45 23   79 81 41   110 112 57   137 140 71   169 165 90   188 185 100   197 201 103   51 51 51   51 51 51   51 51 51   51 51 51   
51 51 51   51 51 51   51 51 51   51 51 51   51 51 51   51 51 51   51 51 51   51 51 51   19 1 26   96 8 128   156 39 185   165 36 201   116 10 155   51 51 51   51 51 51   51 51 51   51 51 51   139 76 97   255 141 180   255 180 226   255 185 236   51 51 51   51 51 51   51 51 51   51 51 51   51 51 51   51 51 51   51 51 51   25 16 20   149 99 123   254 169 210   255 223 255   255 255 255   255 255 255   51 51 51   51 51 51   51 51 51   51 51 51   11 11 5   11 11 5   28 29 15   63 64 33   93 95 49   120 123 63   144 147 75   172 169 92   182 186 95   190 194 99   51 51 51   51 51 51   51 51 51   
51 51 51   51 51 51   51 51 51   51 51 51   51 51 51   51 51 51   51 51 51   51 51 51   9 0 12   46 4 61   84 7 112   93 8 124   51 51 51   51 51 51   51 51 51   51 51 51   51 51 51   133 72 92   236 129 164   255 255 239   255 180 226   230 125 160   51 51 51   51 51 51   51 51 51   51 51 51   51 51 51   51 51 51   25 16 20   90 60 75   195 129 161   255 184 229   255 225 255   255 250 255   255 226 255   51 51 51   51 51 51   51 51 51   11 11 5   11 11 5   11 11 5   43 44 22   74 75 38   101 103 53   125 128 65   146 149 76   163 167 85   172 176 90   51 51 51   51 51 51   51 51 51   
51 51 51   51 51 51   51 51 51   51 51 51   51 51 51   51 51 51   51 51 51   51 51 51   51 51 51   51 51 51   9 0 12   51 51 51   51 51 51   51 51 51   51 51 51   51 51 51   51 51 51   71 39 49   174 95 121   236 129 164   255 141 180   51 51 51   51 51 51   51 51 51   51 51 51   51 51 51   51 51 51   51 51 51   25 16 20   25 16 20   116 77 95   199 132 164   255 172 215   255 194 241   51 51 51   51 51 51   51 51 51   51 51 51   11 11 5   11 11 5   11 11 5   20 20 10   51 52 26   79 80 41   103 105 53   124 126 64   141 144 73   148 151 77   51 51 51   51 51 51   51 51 51   
51 51 51   51 51 51   51 51 51   51 51 51   51 51 51   51 51 51   51 51 51   51 51 51   51 51 51   51 51 51   51 51 51   51 51 51   51 51 51   51 51 51   51 51 51   51 51 51   51 51 51   18 10 13   71 39 49   133 72 92   139 76 97   51 51 51   51 51 51   51 51 51   51 51 51   51 51 51   51 51 51   51 51 51   51 51 51   25 16 20   25 16 20   93 61 76   149 99 123   151 100 125   51 51 51   51 51 51   51 51 51   51 51 51   51 51 51   11 11 5   11 11 5   11 11 5   25 25 13   52 54 27   77 78 40   97 99 51   113 115 59   51 51 51   51 51 51   51 51 51   51 51 51   
51 51 51   51 51 51   51 51 51   51 51 51   51 51 51   51 51 51   51 51 51   51 51 51   51 51 51   51 51 51   51 51 51   51 51 51   51 51 51   51 51 51   51 51 51   51 51 51   51 51 51   51 51 51   51 51 51   51 51 51   51 51 51   51 51 51   51 51 51   51 51 51   51 51 51   51 51 51   51 51 51   16 1 16   175 20 175   222 26 221   255 30 254   25 16 20   51 51 51   51 51 51   51 51 51   51 51 51   51 51 51   51 51 51   51 51 51   51 51 51   11 11 5   11 11 5   11 11 5   21 22 11   45 46 23   64 66 33   72 74 38   51 51 51   51 51 51   51 51 51   51 51 51   
51 51 51   51 51 51   51 51 51   51 51 51   51 51 51   51 51 51   51 51 51   51 51 51   51 51 51   51 51 51   51 51 51   51 51 51   51 51 51   51 51 51   51 51 51   51 51 51   51 51 51   51 51 51   51 51 51   51 51 51   51 51 51   51 51 51   51 51 51   51 51 51   51 51 51   51 51 51   49 5 49   128 15 128   184 21 183   227 26 227   255 32 255   255 34 255   255 34 255   51 51 51   51 51 51   51 51 51   51 51 51   51 51 51   51 51 51   51 51 51   13 0 8   11 11 5   11 11 5   11 11 5   11 11 5   51 51 51   51 51 51   51 51 51   51 51 51   51 51 51   51 51 51   
51 51 51   51 51 51   51 51 51   51 51 51   51 51 51   51 51 51   51 51 51   51 51 51   51 51 51   103 144 193   154 215 255   182 254 255   195 255 255   189 255 255   51 51 51   51 51 51   51 51 51   51 51 51   51 51 51   51 51 51   51 51 51   51 51 51   51 51 51   51 51 51   51 51 51   16 1 16   55 6 55   124 14 124   16 1 16   16 1 16   16 1 16   16 1 16   255 34 255   255 33 255   51 51 51   51 51 51   51 51 51   51 51 51   13 0 8   13 0 8   13 0 8   13 0 8   13 0 8   205 1 132   217 1 139   51 51 51   51 51 51   51 51 51   51 51 51   51 51 51   51 51 51   
51 51 51   51 51 51   51 51 51   51 51 51   51 51 51   51 51 51   51 51 51   51 51 51   73 102 137   136 189 255   173 241 255   204 255 255   225 255 255   212 255 255   189 255 255   51 51 51   51 51 51   51 51 51   51 51 51   51 51 51   51 51 51   51 51 51   51 51 51   51 51 51   51 51 51   16 1 16   16 1 16   16 1 16   16 1 16   16 1 16   16 1 16   16 1 16   16 1 16   255 32 255   51 51 51   51 51 51   51 51 51   13 0 8   13 0 8   13 0 8   13 0 8   165 1 106   188 1 121   208 1 134   225 1 144   236 1 151   51 51 51   51 51 51   51 51 51   51 51 51   51 51 51   
51 51 51   51 51 51   51 51 51   51 51 51   51 51 51   51 51 51   51 51 51   51 51 51   91 127 170   140 196 255   11 16 21   11 16 21   255 255 255   225 255 255   195 255 255   51 51 51   51 51 51   51 51 51   51 51 51   51 51 51   51 51 51   51 51 51   51 51 51   51 51 51   51 51 51   16 1 16   16 1 16   16 1 16   16 1 16   16 1 16   16 1 16   16 1 16   16 1 16   250 29 249   51 51 51   51 51 51   13 0 8   13 0 8   72 0 46   106 0 68   135 0 87   161 0 103   184 1 118   205 1 131   222 1 143   237 1 152   245 1 157   51 51 51   51 51 51   51 51 51   51 51 51   
51 51 51   51 51 51   51 51 51   51 51 51   51 51 51   51 51 51   51 51 51   11 16 21   86 120 161   11 16 21   11 16 21   11 16 21   11 16 21   204 255 255   182 254 255   51 51 51   51 51 51   51 51 51   51 51 51   51 51 51   51 51 51   51 51 51   51 51 51   51 51 51   51 51 51   51 51 51   16 1 16   16 1 16   16 1 16   16 1 16   16 1 16   16 1 16   16 1 16   211 24 210   51 51 51   51 51 51   13 0 8   28 0 18   66 0 42   99 0 63   128 0 82   154 0 99   177 1 113   198 1 127   225 19 145   231 1 148   242 1 156   245 1 157   51 51 51   51 51 51   51 51 51   
51 51 51   51 51 51   51 51 51   51 51 51   51 51 51   51 51 51   51 51 51   11 16 21   11 16 21   11 16 21   11 16 21   11 16 21   11 16 21   173 241 255   154 215 255   102 7 122   142 10 169   166 12 197   181 13 215   188 14 223   184 14 218   51 51 51   51 51 51   51 51 51   51 51 51   51 51 51   16 1 16   16 1 16   16 1 16   16 1 16   16 1 16   16 1 16   16 1 16   51 51 51   51 51 51   13 0 8   13 0 8   19 0 12   57 0 36   89 0 57   118 0 76   144 0 92   167 1 107   188 1 121   255 124 172   226 9 145   235 1 151   242 1 155   51 51 51   51 51 51   51 51 51   
51 51 51   51 51 51   51 51 51   51 51 51   51 51 51   51 51 51   51 51 51   51 51 51   11 16 21   11 16 21   11 16 21   11 16 21   140 196 255   65 4 77   123 9 145   156 11 184   180 13 213   198 15 235   212 16 251   221 16 255   226 17 255   223 16 255   203 15 240   51 51 51   51 51 51   51 51 51   51 51 51   16 1 16   16 1 16   16 1 16   16 1 16   16 1 16   16 1 16   51 51 51   51 51 51   13 0 8   13 0 8   13 0 8   44 0 28   77 0 49   106 0 68   131 0 84   155 0 99   176 1 113   195 1 125   211 1 136   224 1 144   232 1 149   225 1 145   51 51 51   51 51 51   
51 51 51   51 51 51   51 51 51   51 51 51   51 51 51   51 51 51   51 51 51   51 51 51   11 16 21   11 16 21   11 16 21   86 120 161   64 4 76   117 8 139   151 11 179   177 13 210   198 15 234   214 16 254   228 17 255   237 18 255   244 18 255   245 18 255   240 18 255   218 16 255   51 51 51   51 51 51   51 51 51   51 51 51   51 51 51   16 1 16   16 1 16   51 51 51   51 51 51   51 51 51   51 51 51   13 0 8   13 0 8   13 0 8   29 0 19   62 0 40   91 0 58   117 0 75   141 0 90   162 0 104   181 1 116   197 1 127   211 1 136   220 1 141   216 1 139   51 51 51   51 51 51   
51 51 51   51 51 51   51 51 51   51 51 51   51 51 51   51 51 51   51 51 51   51 51 51   51 51 51   51 51 51   11 16 21   39 3 47   101 7 120   138 10 164   166 12 197   189 14 225   208 15 247   224 17 255   237 18 255   246 18 255   253 19 255   255 19 255   255 19 255   245 18 255   209 15 247   51 51 51   51 51 51   51 51 51   51 51 51   51 51 51   51 51 51   51 51 51   51 51 51   51 51 51   51 51 51   51 51 51   13 0 8   13 0 8   13 0 8   45 0 29   75 0 48   101 0 65   125 0 80   146 0 94   165 1 106   182 1 117   195 1 125   204 1 131   199 1 128   51 51 51   51 51 51   
51 51 51   51 51 51   51 51 51   51 51 51   51 51 51   51 51 51   51 51 51   51 51 51   51 51 51   51 51 51   51 51 51   75 5 89   118 9 140   150 11 178   175 13 208   196 14 233   214 16 254   229 17 255   241 18 255   251 19 255   255 19 255   255 19 255   255 19 255   255 19 255   238 18 255   51 51 51   51 51 51   51 51 51   51 51 51   51 51 51   51 51 51   51 51 51   51 51 51   51 51 51   51 51 51   51 51 51   13 0 8   13 0 8   13 0 8   25 0 16   55 0 35   82 0 53   107 0 68   128 0 82   147 0 95   164 1 105   177 1 114   184 1 118   168 1 108   51 51 51   51 51 51   
51 51 51   51 51 51   51 51 51   51 51 51   51 51 51   51 51 51   51 51 51   51 51 51   51 51 51   51 51 51   35 2 42   90 6 107   127 9 151   156 11 185   180 13 213   200 15 237   217 16 255   231 17 255   243 18 255   254 21 255   255 21 255   255 20 255   255 20 255   255 19 255   248 18 255   205 15 243   51 51 51   51 51 51   51 51 51   51 51 51   51 51 51   51 51 51   51 51 51   51 51 51   51 51 51   51 51 51   51 51 51   13 0 8   13 0 8   13 0 8   33 0 21   61 0 39   86 0 55   108 0 69   127 0 81   143 0 92   155 0 99   159 0 102   51 51 51   51 51 51   51 51 51   
51 51 51   51 51 51   51 51 51   51 51 51   51 51 51   51 51 51   51 51 51   51 51 51   51 51 51   51 51 51   52 4 62   98 7 117   132 10 156   159 12 188   181 13 215   200 15 238   217 16 255   231 17 255   243 21 255   255 82 255   255 82 255   255 21 255   255 20 255   255 19 255   251 19 255   223 16 255   51 51 51   51 51 51   51 51 51   51 51 51   51 51 51   51 51 51   51 51 51   51 51 51   51 51 51   51 51 51   51 51 51   51 51 51   13 0 8   13 0 8   13 0 8   35 0 23   61 0 39   83 0 53   102 0 65   117 0 75   126 0 81   111 0 71   51 51 51   51 51 51   51 51 51   
51 51 51   51 51 51   51 51 51   51 51 51   51 51 51   51 51 51   51 51 51   51 51 51   51 51 51   14 1 17   60 4 71   102 7 120   133 10 158   159 12 188   180 13 214   199 15 236   215 16 255   228 17 255   241 22 255   255 129 255   255 138 255   255 23 255   255 19 255   255 19 255   250 19 255   226 17 255   51 51 51   51 51 51   51 51 51   51 51 51   51 51 51   51 51 51   51 51 51   51 51 51   51 51 51   51 51 51   51 51 51   51 51 51   51 51 51   13 0 8   13 0 8   13 0 8   30 0 19   52 0 34   71 0 45   83 0 53   72 0 46   51 51 51   51 51 51   51 51 51   51 51 51   
51 51 51   51 51 51   51 51 51   51 51 51   51 51 51   51 51 51   51 51 51   51 51 51   51 51 51   14 1 17   62 4 74   101 7 120   131 10 156   156 11 185   177 13 210   195 14 232   211 16 250   224 17 255   236 18 255   250 36 255   255 38 255   255 20 255   255 19 255   254 19 255   245 18 255   222 16 255   51 51 51   51 51 51   51 51 51   51 51 51   51 51 51   51 51 51   51 51 51   51 51 51   51 51 51   51 51 51   51 51 51   51 51 51   51 51 51   51 51 51   51 51 51   13 0 8   13 0 8   13 0 8   13 0 8   51 51 51   51 51 51   51 51 51   51 51 51   51 51 51   51 51 51   
51 51 51   51 51 51   51 51 51   51 51 51   51 51 51   51 51 51   51 51 51   51 51 51   51 51 51   14 1 17   60 4 71   98 7 116   127 9 151   152 11 180   172 13 204   190 14 225   205 15 243   218 16 255   229 17 255   238 18 255   245 18 255   249 18 255   250 19 255   247 18 255   237 18 255   213 16 253   51 51 51   51 51 51   51 51 51   51 51 51   51 51 51   51 51 51   51 51 51   51 51 51   51 51 51   51 51 51   51 51 51   51 51 51   51 51 51   51 51 51   51 51 51   51 51 51   51 51 51   51 51 51   51 51 51   51 51 51   51 51 51   51 51 51   51 51 51   51 51 51   51 51 51   
51 51 51   51 51 51   51 51 51   51 51 51   51 51 51   51 51 51   51 51 51   51 51 51   51 51 51   14 1 17   54 4 64   91 6 108   121 9 143   145 11 172   165 12 196   183 13 217   198 15 235   211 16 250   221 16 255   230 17 255   236 17 255   240 18 255   241 18 255   237 18 255   226 17 255   198 15 235   51 51 51   51 51 51   51 51 51   51 51 51   51 51 51   51 51 51   51 51 51   51 51 51   51 51 51   51 51 51   51 51 51   51 51 51   51 51 51   51 51 51   51 51 51   51 51 51   51 51 51   51 51 51   51 51 51   51 51 51   51 51 51   51 51 51   51 51 51   51 51 51   51 51 51   
