P3
51 51
255
177 120 139   227 154 178   255 179 207   255 199 230   255 212 245   255 217 250   51 51 51   51 51 51   51 51 51   51 51 51   51 51 51   51 51 51   51 51 51   51 51 51   51 51 51   51 51 51   51 51 51   51 51 51   51 51 51   51 51 51   51 51 51   51 51 51   51 51 51   51 51 51   51 51 51   51 51 51   51 51 51   51 51 51   51 51 51   51 51 51   51 51 51   51 51 51   51 51 51   51 51 51   51 51 51   51 51 51   51 51 51   51 51 51   51 51 51   51 51 51   51 51 51   94 17 109   129 23 149   159 29 183   187 34 216   214 39 248   241 44 255   255 49 255   255 54 255   255 59 255   255 64 255   
147 99 115   193 131 152   230 156 181   255 177 209   255 214 255   255 201 233   255 200 231   51 51 51   51 51 51   51 51 51   51 51 51   51 51 51   51 51 51   51 51 51   51 51 51   51 51 51   51 51 51   51 51 51   51 51 51   51 51 51   51 51 51   51 51 51   51 51 51   51 51 51   51 51 51   51 51 51   51 51 51   51 51 51   51 51 51   51 51 51   51 51 51   51 51 51   51 51 51   51 51 51   51 51 51   51 51 51   51 51 51   51 51 51   51 51 51   51 51 51   35 6 40   72 13 83   103 19 120   133 24 154   161 29 186   188 34 218   215 39 249   242 45 255   255 58 255   255 54 255   255 59 255   
103 70 80   150 101 117   187 127 147   217 148 171   242 164 190   255 175 203   255 179 207   233 158 183   51 51 51   51 51 51   51 51 51   51 51 51   51 51 51   51 51 51   51 51 51   51 51 51   51 51 51   51 51 51   51 51 51   51 51 51   51 51 51   51 51 51   51 51 51   51 51 51   51 51 51   51 51 51   51 51 51   51 51 51   51 51 51   51 51 51   51 51 51   51 51 51   51 51 51   51 51 51   51 51 51   51 51 51   51 51 51   51 51 51   51 51 51   51 51 51   19 3 22   46 8 54   78 14 90   107 19 124   135 25 156   162 30 188   189 34 219   215 39 249   255 63 255   255 58 255   255 54 255   
49 33 38   98 66 76   136 92 107   168 114 132   193 131 151   211 143 165   220 149 172   206 140 162   51 51 51   51 51 51   51 51 51   51 51 51   51 51 51   51 51 51   51 51 51   51 51 51   51 51 51   51 51 51   51 51 51   51 51 51   174 178 57   226 232 75   255 255 90   255 255 92   51 51 51   51 51 51   51 51 51   51 51 51   51 51 51   51 51 51   51 51 51   51 51 51   51 51 51   51 51 51   51 51 51   51 51 51   51 51 51   51 51 51   51 51 51   19 3 22   19 3 22   19 3 22   51 9 59   80 14 93   109 20 126   136 25 157   163 30 188   189 35 219   215 39 249   242 45 255   255 49 255   
17 11 13   37 25 29   78 53 61   111 75 87   137 93 107   155 105 122   164 111 129   153 103 120   51 51 51   51 51 51   51 51 51   51 51 51   51 51 51   51 51 51   51 51 51   51 51 51   51 51 51   51 51 51   51 51 51   78 79 25   140 144 46   196 206 74   255 255 255   255 255 107   51 51 51   51 51 51   51 51 51   51 51 51   51 51 51   51 51 51   51 51 51   51 51 51   51 51 51   51 51 51   51 51 51   51 51 51   51 51 51   51 51 51   51 51 51   19 3 22   19 3 22   19 3 22   19 3 22   54 9 62   82 15 95   110 20 127   136 25 158   163 30 188   189 34 219   215 39 249   241 44 255   
17 11 13   17 11 13   17 11 13   44 30 35   72 48 56   90 61 71   98 66 77   77 52 61   51 51 51   51 51 51   51 51 51   51 51 51   51 51 51   51 51 51   51 51 51   51 51 51   51 51 51   51 51 51   15 15 5   33 34 11   94 96 31   143 146 47   197 212 83   227 242 92   226 232 75   51 51 51   51 51 51   51 51 51   51 51 51   51 51 51   51 51 51   51 51 51   51 51 51   51 51 51   51 51 51   51 51 51   51 51 51   51 51 51   19 3 22   19 3 22   19 3 22   19 3 22   19 3 22   19 3 22   55 10 63   82 15 95   110 20 127   136 25 157   162 30 188   188 34 218   214 39 248   
51 51 51   17 11 13   17 11 13   17 11 13   17 11 13   17 11 13   17 11 13   51 51 51   51 51 51   51 51 51   51 51 51   51 51 51   51 51 51   51 51 51   51 51 51   51 51 51   51 51 51   51 51 51   15 15 5   15 15 5   38 39 12   88 90 29   129 132 42   160 164 53   173 177 57   51 51 51   51 51 51   51 51 51   51 51 51   51 51 51   51 51 51   51 51 51   51 51 51   51 51 51   51 51 51   51 51 51   51 51 51   51 51 51   19 3 22   19 3 22   19 3 22   19 3 22   19 3 22   19 3 22   19 3 22   55 10 63   82 15 95   109 20 126   135 25 156   161 29 186   187 34 216   
51 51 51   51 51 51   17 11 13   17 11 13   17 11 13   17 11 13   51 51 51   51 51 51   51 51 51   51 51 51   51 51 51   51 51 51   51 51 51   51 51 51   51 51 51   201 45 61   246 55 75   255 60 81   51 51 51   15 15 5   183 255 216   207 255 245   217 255 255   95 98 31   97 99 32   51 51 51   51 51 51   51 51 51   51 51 51   51 51 51   51 51 51   51 51 51   51 51 51   51 51 51   51 51 51   51 51 51   51 51 51   51 51 51   9 246 68   10 255 79   19 3 22   19 3 22   19 3 22   19 3 22   19 3 22   19 3 22   54 9 62   80 14 93   107 19 124   133 24 154   159 29 183   
51 51 51   51 51 51   2 19 7   2 19 7   2 19 7   43 255 135   44 255 141   45 255 142   51 51 51   51 51 51   51 51 51   51 51 51   51 51 51   51 51 51   125 28 38   183 41 56   225 50 69   255 57 78   127 211 149   162 255 191   189 255 223   210 255 248   228 255 255   241 255 255   241 255 255   51 51 51   51 51 51   51 51 51   51 51 51   51 51 51   51 51 51   51 51 51   51 51 51   51 51 51   51 51 51   51 51 51   5 141 39   7 188 52   8 229 63   10 255 74   11 255 83   12 255 91   19 3 22   19 3 22   19 3 22   19 3 22   19 3 22   51 9 59   78 14 90   103 19 120   129 23 149   
51 51 51   2 19 7   31 241 99   36 255 113   39 255 125   42 255 134   44 255 140   46 255 144   46 255 145   43 255 136   51 51 51   51 51 51   51 51 51   14 3 4   89 20 27   144 32 44   186 42 57   83 138 98   123 204 145   153 254 180   178 255 210   199 255 235   217 255 255   232 255 255   242 255 255   239 255 255   51 51 51   51 51 51   51 51 51   51 51 51   51 51 51   27 105 214   34 131 255   40 152 255   43 164 255   2 66 18   4 118 32   6 162 45   7 202 56   9 238 66   19 255 82   11 255 84   12 255 91   19 3 22   19 3 22   19 3 22   19 3 22   19 3 22   46 8 54   72 13 83   94 17 109   
16 128 52   24 188 77   30 228 94   34 255 107   37 255 118   40 255 127   49 255 139   45 255 139   45 255 141   44 255 140   40 255 126   51 51 51   51 51 51   14 3 4   37 8 11   93 21 28   21 35 24   74 123 87   109 181 129   137 228 162   161 255 191   183 255 216   208 255 246   255 255 255   229 255 255   234 255 255   130 138 215   179 190 255   217 231 255   246 255 255   18 70 143   27 99 200   53 138 251   101 191 255   0 18 5   1 39 10   3 88 24   5 131 36   6 170 47   8 207 57   22 245 77   19 255 82   11 255 83   19 3 22   19 3 22   19 3 22   19 3 22   19 3 22   19 3 22   35 6 40   51 51 51   
15 116 47   22 168 69   27 206 85   31 237 98   34 255 108   37 255 117   95 255 166   154 255 215   42 255 133   42 255 133   40 255 128   51 51 51   51 51 51   14 3 4   14 3 4   31 7 9   13 22 15   57 95 67   90 150 106   118 196 139   142 236 168   163 255 192   182 255 214   203 255 240   210 255 248   218 255 255   212 255 250   152 161 252   190 202 255   255 255 255   242 255 255   23 85 171   57 129 221   144 212 255   0 18 5   0 18 5   2 54 15   3 97 27   5 136 38   6 173 48   8 207 57   9 238 66   10 255 74   10 255 79   19 3 22   19 3 22   19 3 22   19 3 22   51 51 51   51 51 51   51 51 51   
11 89 36   18 139 57   23 177 73   27 208 86   30 234 96   33 255 105   36 255 113   38 255 119   38 255 122   39 255 123   38 255 120   32 248 102   51 51 51   51 51 51   14 3 4   14 3 4   13 22 15   35 58 41   68 113 80   96 159 113   120 199 141   141 234 166   159 255 188   175 255 207   188 255 222   196 255 232   194 255 229   117 124 194   155 164 255   186 198 255   209 222 255   17 66 134   34 97 181   90 156 230   0 18 5   0 18 5   0 18 5   2 60 16   3 100 27   5 136 38   6 170 47   7 202 56   8 229 63   9 246 68   19 3 22   19 3 22   51 51 51   51 51 51   51 51 51   51 51 51   51 51 51   
7 53 22   13 104 43   18 143 59   22 174 72   26 200 82   29 222 91   31 240 99   33 254 105   34 255 108   35 255 110   34 255 107   30 230 94   51 51 51   51 51 51   51 51 51   14 3 4   13 22 15   13 22 15   42 70 50   70 117 83   94 157 111   116 193 137   134 223 158   150 250 177   163 255 192   171 255 202   169 255 199   75 80 124   113 120 187   144 153 239   166 177 255   11 45 92   18 68 138   35 97 181   0 18 5   0 18 5   0 18 5   0 18 5   2 60 16   3 97 27   5 131 36   6 162 45   7 188 52   24 18 17   24 18 17   51 51 51   51 51 51   32 224 9   37 255 11   41 255 12   45 255 14   
2 19 7   8 61 25   13 102 42   17 135 55   21 161 66   24 184 76   26 202 83   28 216 89   29 225 93   30 228 94   29 221 91   25 191 78   51 51 51   51 51 51   51 51 51   51 51 51   13 22 15   13 22 15   13 22 15   41 69 49   66 110 78   88 146 104   106 177 125   122 203 144   134 223 158   141 235 167   136 226 160   26 27 43   64 68 106   95 101 157   114 121 190   5 22 44   11 44 91   17 65 132   0 18 5   0 18 5   0 18 5   0 18 5   0 18 5   2 54 15   3 88 24   4 118 32   5 141 39   24 18 17   24 18 17   19 140 6   25 180 7   30 214 9   35 246 10   39 255 12   44 255 14   
2 19 7   2 19 7   7 54 22   11 89 36   15 117 48   18 140 57   20 158 65   22 172 71   23 181 74   24 182 75   22 173 71   17 132 54   51 51 51   51 51 51   51 51 51   51 51 51   13 22 15   13 22 15   13 22 15   13 22 15   34 57 40   56 94 66   75 125 88   90 150 106   101 169 120   106 177 125   81 135 96   228 87 10   255 121 13   34 36 56   2 9 19   2 9 19   4 19 38   10 39 80   0 18 5   0 18 5   0 18 5   0 18 5   0 18 5   0 18 5   1 39 10   2 66 18   24 18 17   4 29 1   12 85 3   18 126 5   23 162 7   27 195 8   32 227 10   39 255 13   54 255 22   
51 51 51   2 19 7   2 19 7   4 35 14   8 65 26   11 89 36   14 107 44   15 121 50   16 128 53   16 128 52   14 112 46   51 51 51   51 51 51   51 51 51   51 51 51   51 51 51   51 51 51   13 22 15   13 22 15   13 22 15   13 22 15   20 33 24   39 64 46   53 89 63   62 104 74   61 101 71   106 40 4   221 85 9   255 128 64   255 136 16   2 9 19   2 9 19   2 9 19   2 9 19   6 25 52   0 18 5   0 18 5   0 18 5   0 18 5   0 18 5   0 18 5   24 18 17   3 22 0   3 22 0   9 69 3   15 107 4   20 142 6   24 174 7   29 205 9   37 235 13   65 255 32   
51 51 51   2 19 7   2 19 7   2 19 7   2 19 7   3 28 11   6 47 19   7 60 24   8 65 26   7 58 24   2 19 7   51 51 51   51 51 51   51 51 51   51 51 51   51 51 51   255 255 47   255 255 52   13 22 15   13 22 15   13 22 15   13 22 15   13 22 15   13 22 15   13 22 15   51 51 51   50 19 2   158 60 6   239 92 14   255 115 23   2 9 19   2 9 19   2 9 19   2 9 19   2 9 19   51 51 51   51 51 51   51 51 51   51 51 51   51 51 51   51 51 51   24 18 17   3 22 0   3 22 0   6 48 2   12 85 3   17 120 5   21 152 6   26 182 8   32 212 11   54 244 25   
51 51 51   51 51 51   51 51 51   2 19 7   2 19 7   2 19 7   2 19 7   2 19 7   2 19 7   2 19 7   51 51 51   51 51 51   51 51 51   51 51 51   19 22 3   255 255 46   255 255 53   255 255 58   255 255 61   255 255 62   13 22 15   13 22 15   13 22 15   51 51 51   51 51 51   51 51 51   19 7 0   69 26 3   150 57 6   204 78 8   51 51 51   51 51 51   51 51 51   51 51 51   51 51 51   51 51 51   51 51 51   51 51 51   51 51 51   51 51 51   51 51 51   3 22 0   3 22 0   3 22 0   3 22 0   8 62 2   13 96 4   18 128 5   22 159 7   27 188 8   37 217 14   
51 51 51   255 255 23   255 255 31   255 255 35   255 255 32   51 51 51   2 19 7   51 51 51   51 51 51   51 51 51   51 51 51   51 51 51   51 51 51   19 22 3   19 22 3   19 22 3   255 255 52   255 255 57   255 255 61   255 255 63   255 255 63   51 51 51   51 51 51   51 51 51   51 51 51   51 51 51   19 7 0   19 7 0   6 1 11   75 28 3   51 51 51   51 51 51   51 51 51   51 51 51   51 51 51   51 51 51   51 51 51   51 51 51   51 51 51   51 51 51   51 51 51   3 22 0   3 22 0   3 22 0   3 22 0   5 37 1   10 71 3   14 104 4   19 134 5   23 163 7   28 191 9   
48 50 3   253 255 20   255 255 27   255 255 41   255 255 31   51 51 51   51 51 51   51 51 51   51 51 51   51 51 51   51 51 51   51 51 51   19 22 3   19 22 3   19 22 3   243 255 43   255 255 49   255 255 54   255 255 150   255 255 61   255 255 61   255 255 59   51 51 51   51 51 51   51 51 51   51 51 51   6 1 11   6 1 11   6 1 11   6 1 11   6 1 11   51 51 51   51 51 51   51 51 51   51 51 51   51 51 51   51 51 51   51 51 51   51 51 51   51 51 51   51 51 51   3 22 0   3 22 0   3 22 0   3 22 0   3 22 0   6 45 2   11 78 3   15 108 4   19 138 6   23 166 7   
24 25 1   139 145 11   234 245 18   255 255 22   255 255 22   51 51 51   51 51 51   51 51 51   51 51 51   51 51 51   51 51 51   51 51 51   19 22 3   19 22 3   19 22 3   220 246 39   254 255 45   255 255 50   255 255 66   255 255 58   255 255 58   255 255 57   255 255 255   255 255 255   51 51 51   6 1 11   6 1 11   6 1 11   6 1 11   6 1 11   6 1 11   51 51 51   51 51 51   51 51 51   51 51 51   51 51 51   51 51 51   51 51 51   51 51 51   51 51 51   51 51 51   3 22 0   3 22 0   3 22 0   3 22 0   3 22 0   3 22 0   7 51 2   11 82 3   15 111 4   19 139 6   
51 51 51   24 25 1   59 62 4   108 113 8   86 90 6   51 51 51   51 51 51   51 51 51   51 51 51   51 51 51   51 51 51   51 51 51   19 22 3   19 22 3   19 22 3   19 22 3   19 22 3   251 255 44   255 255 48   255 255 51   255 255 52   255 255 51   19 22 3   19 23 25   19 23 25   6 1 11   6 1 11   6 1 11   6 1 11   6 1 11   6 1 11   6 1 11   94 20 185   152 36 255   51 51 51   51 51 51   51 51 51   51 51 51   51 51 51   51 51 51   51 51 51   3 22 0   3 22 0   3 22 0   3 22 0   3 22 0   3 22 0   3 22 0   7 54 2   11 83 3   16 112 4   
51 51 51   51 51 51   51 51 51   51 51 51   51 51 51   51 51 51   164 128 206   197 155 249   202 158 254   51 51 51   51 51 51   51 51 51   19 22 3   19 22 3   19 22 3   19 22 3   19 22 3   215 240 38   237 255 42   252 255 44   255 255 46   253 255 44   19 23 25   19 23 25   19 23 25   6 1 11   6 1 11   6 1 11   6 1 11   6 1 11   6 1 11   8 1 17   3 3 22   3 3 22   53 61 255   68 76 255   65 74 255   51 62 255   51 51 51   51 51 51   51 51 51   3 22 0   3 22 0   3 22 0   3 22 0   3 22 0   3 22 0   3 22 0   3 22 0   7 54 2   11 83 3   
51 51 51   51 51 51   51 51 51   51 51 51   153 120 192   196 153 247   222 175 255   241 189 255   251 197 255   254 199 255   14 11 18   51 51 51   19 22 3   19 22 3   19 22 3   19 22 3   19 22 3   171 192 30   193 216 34   207 232 36   93 74 47   8 7 4   8 7 4   8 7 4   8 7 4   51 51 51   6 1 11   6 1 11   6 1 11   6 1 11   6 1 11   3 3 22   28 34 195   58 64 255   97 102 255   129 133 255   141 146 255   122 129 255   70 80 255   51 51 51   18 19 11   18 19 11   3 22 0   3 22 0   3 22 0   3 22 0   3 22 0   3 22 0   3 22 0   3 22 0   7 52 2   
51 51 51   51 51 51   51 51 51   133 105 168   179 140 225   209 164 255   232 182 255   248 195 255   255 204 255   255 208 255   255 206 255   14 11 18   19 22 3   19 22 3   19 22 3   19 22 3   19 22 3   119 134 21   13 10 6   70 56 36   100 79 50   8 7 4   8 7 4   8 7 4   8 7 4   8 7 4   51 51 51   6 1 11   6 1 11   6 1 11   6 8 47   17 21 125   32 37 192   71 75 255   119 122 255   162 164 255   187 189 255   183 186 255   140 147 255   18 19 11   18 19 11   18 19 11   3 22 0   3 22 0   3 22 0   3 22 0   3 22 0   3 22 0   3 22 0   3 22 0   3 22 0   
51 51 51   51 51 51   88 69 111   145 114 183   181 142 229   208 163 255   229 180 255   245 192 255   255 208 255   255 207 255   255 206 255   255 200 255   14 11 18   19 22 3   19 22 3   19 22 3   19 22 3   55 62 9   33 26 17   70 55 35   8 7 4   8 7 4   8 7 4   8 7 4   8 7 4   8 7 4   8 7 4   51 51 51   55 23 46   77 32 64   92 38 76   103 42 85   104 43 86   67 71 255   3 3 22   3 3 22   3 3 22   206 207 255   3 3 22   18 19 11   18 19 11   18 19 11   18 19 11   3 22 0   3 22 0   3 22 0   3 22 0   3 22 0   3 22 0   3 22 0   3 22 0   
51 51 51   51 51 51   95 74 120   141 111 178   174 137 220   199 156 251   219 172 255   235 185 255   255 255 255   255 244 255   254 199 255   248 195 255   229 180 255   51 51 51   4 19 21   19 22 3   19 22 3   19 22 3   29 23 14   62 49 31   8 7 4   8 7 4   8 7 4   8 7 4   8 7 4   8 7 4   8 7 4   35 14 29   59 24 49   77 32 64   92 38 76   104 43 86   111 46 92   111 46 92   3 3 22   3 3 22   3 3 22   3 3 22   18 19 11   18 19 11   18 19 11   18 19 11   18 19 11   18 19 11   18 19 11   3 22 0   3 22 0   3 22 0   3 22 0   3 22 0   3 22 0   
51 51 51   14 11 18   86 67 109   129 101 163   160 126 202   185 145 233   204 160 255   219 172 255   231 182 255   237 186 255   238 187 255   233 183 255   216 169 255   154 121 194   4 19 21   4 19 21   4 19 21   8 7 4   17 14 9   50 39 25   8 7 4   8 7 4   8 7 4   8 7 4   8 7 4   8 7 4   6 2 5   33 13 27   55 23 45   72 30 60   87 36 72   132 103 136   109 47 91   111 46 92   3 3 22   3 3 22   3 3 22   3 3 22   18 19 11   18 19 11   18 19 11   18 19 11   18 19 11   18 19 11   18 19 11   18 19 11   18 19 11   18 19 11   18 19 11   255 255 179   255 255 182   
51 51 51   14 11 18   67 53 85   110 86 139   141 111 178   165 129 208   184 144 232   199 156 251   209 164 255   216 169 255   217 170 255   211 166 255   193 152 244   129 101 162   4 19 21   4 19 21   4 19 21   8 7 4   8 7 4   33 26 16   58 46 29   8 7 4   8 7 4   8 7 4   8 7 4   8 7 4   6 2 5   26 10 21   47 19 39   64 26 53   79 32 65   92 41 78   101 45 86   105 43 87   99 41 82   3 3 22   3 3 22   3 3 22   18 19 11   18 19 11   18 19 11   18 19 11   18 19 11   18 19 11   18 19 11   18 19 11   18 19 11   18 19 11   250 255 153   255 255 164   255 255 168   
51 51 51   14 11 18   39 31 50   84 66 106   116 91 146   140 110 177   159 125 201   174 136 219   184 144 232   190 149 239   190 149 239   182 143 230   161 126 202   51 51 51   51 51 51   4 19 21   4 19 21   4 19 21   8 7 4   8 7 4   37 29 19   58 46 29   8 7 4   8 7 4   8 7 4   100 79 50   6 2 5   15 6 12   36 15 30   53 22 44   68 28 56   79 33 66   88 37 73   94 39 78   89 37 74   3 3 22   3 3 22   3 3 22   18 19 11   18 19 11   18 19 11   18 19 11   18 19 11   18 19 11   18 19 11   18 19 11   18 19 11   199 213 122   222 237 135   239 255 146   241 255 147   
51 51 51   51 51 51   14 11 18   49 39 62   84 65 105   109 85 137   128 101 162   143 112 180   153 120 192   157 123 198   155 122 196   144 113 182   112 88 141   51 51 51   51 51 51   51 51 51   4 19 21   4 19 21   8 7 4   8 7 4   8 7 4   33 26 16   50 39 25   62 49 31   70 55 35   8 7 4   6 2 5   6 2 5   22 9 18   40 16 33   54 22 45   66 27 55   75 31 62   79 33 66   70 29 58   3 3 22   3 3 22   3 3 22   18 19 11   18 19 11   18 19 11   18 19 11   18 19 11   18 19 11   18 19 11   18 19 11   142 152 87   168 180 103   190 203 116   206 220 126   51 51 51   
51 51 51   51 51 51   14 11 18   14 11 18   42 33 53   70 55 88   90 71 114   105 82 132   114 89 143   116 91 147   111 87 140   91 71 115   51 51 51   51 51 51   51 51 51   51 51 51   24 15 6   24 15 6   24 15 6   8 7 4   8 7 4   8 7 4   17 14 9   29 23 14   8 7 4   8 7 4   6 2 5   6 2 5   6 2 5   23 9 19   38 15 31   49 20 41   57 24 48   60 24 49   3 3 22   3 3 22   3 3 22   3 3 22   3 3 22   18 19 11   18 19 11   18 19 11   18 19 11   18 19 11   48 51 29   79 85 48   108 116 66   133 142 81   153 164 93   161 172 98   51 51 51   
51 51 51   51 51 51   51 51 51   14 11 18   14 11 18   14 11 18   40 32 51   55 43 70   62 49 79   61 48 77   45 35 57   51 51 51   51 51 51   51 51 51   51 51 51   24 15 6   24 15 6   24 15 6   24 15 6   51 51 51   19 0 8   8 7 4   8 7 4   19 0 8   19 0 8   19 0 8   9 23 0   6 2 5   6 2 5   6 2 5   17 7 14   28 11 23   33 14 28   3 3 22   3 3 22   3 3 22   3 3 22   3 3 22   206 12 166   255 15 207   18 19 11   18 19 11   18 19 11   18 19 11   18 19 11   39 42 24   67 72 41   90 97 55   103 111 63   51 51 51   51 51 51   
51 51 51   51 51 51   51 51 51   51 51 51   51 51 51   14 11 18   14 11 18   14 11 18   14 11 18   7 14 5   7 14 5   51 51 51   51 51 51   51 51 51   51 51 51   51 51 51   24 15 6   24 15 6   24 15 6   51 51 51   19 0 8   19 0 8   19 0 8   19 0 8   19 0 8   9 23 0   9 23 0   9 23 0   9 23 0   6 2 5   6 2 5   6 2 5   22 4 2   22 4 2   22 4 2   22 4 2   41 2 33   108 6 87   165 9 134   216 12 175   255 15 210   18 19 11   18 19 11   18 19 11   18 19 11   18 19 11   18 19 11   18 19 11   51 51 51   51 51 51   51 51 51   
51 51 51   51 51 51   51 51 51   51 51 51   51 51 51   51 51 51   51 51 51   7 14 5   7 14 5   7 14 5   115 215 93   51 51 51   51 51 51   51 51 51   51 51 51   51 51 51   51 51 51   24 15 6   51 51 51   51 51 51   22 17 11   19 0 8   19 0 8   19 0 8   5 18 13   9 23 0   9 23 0   9 23 0   9 23 0   9 23 0   9 23 0   9 23 0   22 4 2   22 4 2   22 4 2   22 4 2   23 1 18   59 3 47   118 7 95   169 10 137   213 12 172   249 14 201   255 16 221   255 15 218   51 51 51   51 51 51   51 51 51   51 51 51   51 51 51   51 51 51   51 51 51   
51 51 51   51 51 51   51 51 51   51 51 51   51 51 51   51 51 51   51 51 51   7 14 5   51 99 40   71 137 56   61 119 48   51 51 51   51 51 51   51 51 51   51 51 51   51 51 51   51 51 51   51 51 51   51 51 51   51 51 51   22 17 11   22 17 11   22 17 11   22 17 11   5 18 13   5 18 13   9 23 0   9 23 0   9 23 0   9 23 0   9 23 0   22 4 2   22 4 2   22 4 2   22 4 2   176 36 23   23 1 18   23 1 18   60 3 49   113 6 91   156 9 126   190 11 154   207 12 168   51 51 51   51 51 51   51 51 51   51 51 51   51 51 51   51 51 51   51 51 51   51 51 51   
51 51 51   51 51 51   51 51 51   51 51 51   51 51 51   51 51 51   51 51 51   51 51 51   51 51 51   51 51 51   51 51 51   51 51 51   51 51 51   51 51 51   51 51 51   51 51 51   51 51 51   51 51 51   51 51 51   51 51 51   22 17 11   22 17 11   22 17 11   22 17 11   5 18 13   5 18 13   5 18 13   9 23 0   9 23 0   9 23 0   5 18 13   22 4 2   22 4 2   22 4 2   22 4 2   97 20 12   23 1 18   23 1 18   23 1 18   41 2 33   83 4 67   108 6 87   51 51 51   51 51 51   51 51 51   51 51 51   51 51 51   51 51 51   51 51 51   51 51 51   51 51 51   
51 51 51   51 51 51   51 51 51   51 51 51   51 51 51   51 51 51   51 51 51   114 12 11   168 18 16   187 20 18   176 19 17   51 51 51   51 51 51   51 51 51   51 51 51   51 51 51   51 51 51   51 51 51   51 51 51   51 51 51   22 17 11   22 17 11   22 17 11   5 18 13   5 18 13   5 18 13   5 18 13   5 18 13   5 18 13   5 18 13   5 18 13   5 18 13   5 18 13   22 4 2   51 51 51   3 9 2   3 9 2   3 9 2   23 1 18   23 1 18   50 148 34   49 144 33   51 51 51   51 51 51   51 51 51   51 51 51   51 51 51   51 51 51   51 51 51   51 51 51   51 51 51   
51 51 51   51 51 51   51 51 51   51 51 51   51 51 51   51 51 51   127 14 12   180 20 17   211 23 20   228 25 22   230 25 22   210 23 20   51 51 51   51 51 51   51 51 51   51 51 51   51 51 51   51 51 51   51 51 51   51 51 51   22 17 11   22 17 11   22 17 11   22 17 11   5 18 13   5 18 13   5 18 13   5 18 13   5 18 13   5 18 13   5 18 13   5 18 13   70 249 180   51 51 51   51 51 51   3 9 2   3 9 2   3 9 2   26 78 18   35 104 24   41 121 27   51 51 51   51 51 51   51 51 51   51 51 51   51 51 51   51 51 51   51 51 51   51 51 51   51 51 51   51 51 51   
51 51 51   51 51 51   51 51 51   51 51 51   51 51 51   88 9 8   156 17 15   196 21 19   223 24 21   238 26 23   242 26 23   230 25 22   176 19 17   51 51 51   51 51 51   51 51 51   51 51 51   51 51 51   51 51 51   51 51 51   51 51 51   22 17 11   22 17 11   22 17 11   5 18 13   5 18 13   5 18 13   5 18 13   5 18 13   5 18 13   5 18 13   5 18 13   51 51 51   51 51 51   51 51 51   51 51 51   3 9 2   3 9 2   14 43 9   23 68 15   26 77 17   51 51 51   51 51 51   51 51 51   51 51 51   51 51 51   51 51 51   51 51 51   51 51 51   51 51 51   51 51 51   
51 51 51   51 51 51   51 51 51   51 51 51   51 51 51   106 11 10   160 17 15   196 21 19   220 24 21   255 241 168   238 26 23   228 25 22   24 187 155   28 216 179   25 199 165   51 51 51   51 51 51   51 51 51   51 51 51   51 51 51   51 51 51   51 51 51   51 51 51   51 51 51   5 18 13   5 18 13   5 18 13   5 18 13   5 18 13   5 18 13   5 18 13   5 18 13   51 51 51   51 51 51   51 51 51   51 51 51   51 51 51   3 9 2   3 9 2   51 51 51   51 51 51   51 51 51   51 51 51   51 51 51   51 51 51   51 51 51   51 51 51   51 51 51   51 51 51   51 51 51   51 51 51   
51 51 51   51 51 51   51 51 51   51 51 51   13 1 1   101 11 9   151 16 14   185 20 18   207 23 20   220 24 21   21 166 138   29 227 188   34 255 220   37 255 240   38 255 247   37 255 237   51 51 51   51 51 51   51 51 51   51 51 51   51 51 51   51 51 51   51 51 51   51 51 51   51 51 51   51 51 51   5 18 13   5 18 13   5 18 13   5 18 13   5 18 13   51 51 51   51 51 51   51 51 51   51 51 51   51 51 51   51 51 51   51 51 51   51 51 51   51 51 51   51 51 51   51 51 51   51 51 51   51 51 51   51 51 51   51 51 51   51 51 51   51 51 51   51 51 51   51 51 51   51 51 51   
51 51 51   51 51 51   51 51 51   51 51 51   13 1 1   81 8 7   130 14 12   163 18 15   185 20 18   19 148 123   28 216 179   34 255 217   38 255 244   41 255 255   42 255 255   42 255 255   38 255 248   51 51 51   51 51 51   51 51 51   51 51 51   51 51 51   51 51 51   51 51 51   51 51 51   51 51 51   51 51 51   51 51 51   51 51 51   51 51 51   51 51 51   51 51 51   51 51 51   51 51 51   51 51 51   51 51 51   51 51 51   51 51 51   51 51 51   51 51 51   51 51 51   51 51 51   51 51 51   51 51 51   51 51 51   51 51 51   51 51 51   51 51 51   51 51 51   51 51 51   51 51 51   
51 51 51   51 51 51   51 51 51   51 51 51   51 51 51   43 4 4   97 10 9   130 14 12   12 96 79   23 182 150   30 237 196   36 255 229   39 255 254   42 255 255   44 255 255   44 255 255   41 255 255   33 255 214   51 51 51   51 51 51   51 51 51   51 51 51   51 51 51   51 51 51   51 51 51   51 51 51   51 51 51   51 51 51   51 51 51   51 51 51   51 51 51   51 51 51   51 51 51   51 51 51   51 51 51   51 51 51   51 51 51   51 51 51   51 51 51   51 51 51   51 51 51   51 51 51   51 51 51   51 51 51   51 51 51   51 51 51   51 51 51   51 51 51   51 51 51   51 51 51   51 51 51   
51 51 51   51 51 51   51 51 51   51 51 51   51 51 51   13 1 1   43 4 4   13 1 1   16 124 102   25 194 160   31 243 201   36 255 232   40 255 255   61 255 255   53 255 255   44 255 255   42 255 255   36 255 232   51 51 51   51 51 51   51 51 51   51 51 51   51 51 51   51 51 51   51 51 51   51 51 51   51 51 51   51 51 51   51 51 51   51 51 51   51 51 51   51 51 51   51 51 51   51 51 51   51 51 51   51 51 51   51 51 51   51 51 51   51 51 51   51 51 51   51 51 51   51 51 51   51 51 51   51 51 51   51 51 51   51 51 51   51 51 51   51 51 51   51 51 51   51 51 51   51 51 51   
51 51 51   51 51 51   51 51 51   51 51 51   51 51 51   51 51 51   51 51 51   2 21 18   16 130 107   25 193 160   31 240 198   35 255 228   39 255 250   53 255 255   47 255 255   43 255 255   41 255 255   35 255 227   51 51 51   51 51 51   51 51 51   51 51 51   51 51 51   51 51 51   51 51 51   51 51 51   51 51 51   51 51 51   51 51 51   51 51 51   51 51 51   51 51 51   51 51 51   51 51 51   51 51 51   51 51 51   51 51 51   51 51 51   51 51 51   51 51 51   51 51 51   51 51 51   51 51 51   51 51 51   51 51 51   51 51 51   51 51 51   51 51 51   51 51 51   51 51 51   51 51 51   
51 51 51   51 51 51   51 51 51   51 51 51   51 51 51   51 51 51   51 51 51   3 24 20   15 123 101   23 183 152   29 228 189   34 255 217   37 255 238   39 255 253   40 255 255   40 255 255   38 255 247   32 249 206   51 51 51   51 51 51   51 51 51   51 51 51   51 51 51   51 51 51   51 51 51   51 51 51   51 51 51   51 51 51   51 51 51   51 51 51   51 51 51   51 51 51   51 51 51   51 51 51   51 51 51   51 51 51   51 51 51   51 51 51   51 51 51   51 51 51   51 51 51   51 51 51   51 51 51   51 51 51   51 51 51   51 51 51   51 51 51   51 51 51   51 51 51   51 51 51   51 51 51   
51 51 51   51 51 51   51 51 51   51 51 51   51 51 51   51 51 51   51 51 51   2 18 15   13 104 86   21 165 136   27 209 173   31 242 201   34 255 221   36 255 235   37 255 241   37 255 238   34 255 221   25 196 162   51 51 51   51 51 51   51 51 51   51 51 51   51 51 51   51 51 51   51 51 51   51 51 51   51 51 51   51 51 51   51 51 51   51 51 51   51 51 51   51 51 51   51 51 51   51 51 51   51 51 51   51 51 51   51 51 51   51 51 51   51 51 51   51 51 51   51 51 51   51 51 51   51 51 51   51 51 51   51 51 51   51 51 51   51 51 51   51 51 51   51 51 51   51 51 51   51 51 51   
51 51 51   51 51 51   51 51 51   51 51 51   51 51 51   51 51 51   51 51 51   2 18 15   9 72 60   17 136 113   23 181 150   27 214 177   30 238 197   32 253 210   33 255 214   32 250 207   28 219 181   51 51 51   51 51 51   51 51 51   51 51 51   51 51 51   51 51 51   51 51 51   51 51 51   51 51 51   51 51 51   51 51 51   51 51 51   51 51 51   51 51 51   51 51 51   51 51 51   51 51 51   51 51 51   51 51 51   51 51 51   51 51 51   51 51 51   51 51 51   51 51 51   51 51 51   51 51 51   51 51 51   51 51 51   51 51 51   51 51 51   51 51 51   51 51 51   51 51 51   51 51 51   
51 51 51   51 51 51   51 51 51   51 51 51   51 51 51   51 51 51   51 51 51   51 51 51   2 18 15   12 94 78   18 143 118   22 176 146   25 199 165   27 212 176   27 213 176   25 196 162   15 116 96   51 51 51   51 51 51   51 51 51   51 51 51   51 51 51   51 51 51   51 51 51   51 51 51   51 51 51   51 51 51   51 51 51   51 51 51   51 51 51   51 51 51   51 51 51   51 51 51   51 51 51   51 51 51   51 51 51   51 51 51   51 51 51   51 51 51   51 51 51   51 51 51   51 51 51   51 51 51   51 51 51   51 51 51   51 51 51   51 51 51   51 51 51   51 51 51   51 51 51   51 51 51   
