P3
51 51
255
51 51 51   51 51 51   51 51 51   51 51 51   51 51 51   51 51 51   51 51 51   51 51 51   51 51 51   51 51 51   51 51 51   51 51 51   51 51 51   51 51 51   51 51 51   51 51 51   51 51 51   51 51 51   51 51 51   51 51 51   51 51 51   51 51 51   51 51 51   51 51 51   51 51 51   51 51 51   51 51 51   51 51 51   51 51 51   51 51 51   51 51 51   51 51 51   51 51 51   51 51 51   51 51 51   51 51 51   51 51 51   51 51 51   51 51 51   51 51 51   51 51 51   51 51 51   51 51 51   51 51 51   51 51 51   51 51 51   51 51 51   51 51 51   51 51 51   51 51 51   51 51 51   
51 51 51   51 51 51   51 51 51   51 51 51   147 255 187   170 255 216   183 255 233   51 51 51   51 51 51   51 51 51   51 51 51   51 51 51   51 51 51   51 51 51   51 51 51   51 51 51   51 51 51   51 51 51   51 51 51   51 51 51   51 51 51   51 51 51   51 51 51   51 51 51   51 51 51   51 51 51   51 51 51   51 51 51   51 51 51   51 51 51   51 51 51   51 51 51   51 51 51   51 51 51   51 51 51   51 51 51   51 51 51   51 51 51   51 51 51   51 51 51   51 51 51   51 51 51   51 51 51   51 51 51   51 51 51   51 51 51   51 51 51   51 51 51   51 51 51   51 51 51   51 51 51   
51 51 51   51 51 51   76 133 96   125 219 158   150 255 190   169 255 214   184 255 233   194 255 246   198 255 251   51 51 51   51 51 51   51 51 51   51 51 51   51 51 51   51 51 51   51 51 51   51 51 51   51 51 51   51 51 51   51 51 51   51 51 51   51 51 51   51 51 51   51 51 51   51 51 51   51 51 51   51 51 51   51 51 51   51 51 51   51 51 51   51 51 51   51 51 51   51 51 51   51 51 51   51 51 51   51 51 51   51 51 51   51 51 51   51 51 51   51 51 51   51 51 51   51 51 51   51 51 51   51 51 51   51 51 51   51 51 51   51 51 51   51 51 51   51 51 51   51 51 51   51 51 51   
51 51 51   51 51 51   84 147 106   114 201 145   137 241 174   156 255 198   197 255 231   240 255 255   194 255 244   192 255 244   51 51 51   51 51 51   51 51 51   51 51 51   51 51 51   51 51 51   51 51 51   51 51 51   51 51 51   152 180 241   51 51 51   51 51 51   51 51 51   51 51 51   51 51 51   51 51 51   51 51 51   51 51 51   51 51 51   51 51 51   51 51 51   51 51 51   51 51 51   51 51 51   51 51 51   51 51 51   51 51 51   51 51 51   51 51 51   51 51 51   51 51 51   51 51 51   51 51 51   51 51 51   51 51 51   51 51 51   51 51 51   51 51 51   51 51 51   51 51 51   51 51 51   
51 51 51   21 37 27   68 120 86   96 169 122   119 209 151   137 241 174   178 255 207   255 255 255   241 255 255   180 255 228   174 255 221   254 158 42   255 176 47   255 190 50   255 199 53   255 201 53   51 51 51   85 58 165   142 167 224   163 192 255   180 213 255   194 229 255   201 238 255   51 51 51   51 51 51   51 51 51   51 51 51   51 51 51   51 51 51   51 51 51   51 51 51   51 51 51   51 51 51   51 51 51   51 51 51   51 51 51   51 51 51   51 51 51   51 51 51   51 51 51   51 51 51   51 51 51   51 51 51   51 51 51   51 51 51   51 51 51   51 51 51   51 51 51   51 51 51   51 51 51   51 51 51   
51 51 51   10 19 13   46 81 58   74 130 94   97 170 123   115 203 146   132 230 167   156 255 189   169 255 203   160 255 203   159 255 202   243 151 40   255 168 45   255 182 49   255 194 52   21 14 42   60 41 117   82 56 158   103 73 191   105 71 203   169 200 255   184 217 255   195 231 255   201 238 255   51 51 51   51 51 51   51 51 51   51 51 51   51 51 51   51 51 51   51 51 51   51 51 51   51 51 51   51 51 51   51 51 51   51 51 51   51 51 51   51 51 51   51 51 51   51 51 51   51 51 51   51 51 51   51 51 51   51 51 51   51 51 51   51 51 51   51 51 51   51 51 51   51 51 51   51 51 51   51 51 51   
51 51 51   10 19 13   18 33 24   48 84 61   71 125 90   90 158 114   106 186 135   119 210 152   130 228 165   136 239 173   137 240 174   117 206 149   249 155 41   240 142 215   255 180 255   16 10 31   44 30 86   65 44 126   149 131 183   94 65 178   154 182 244   210 255 255   183 217 255   190 225 255   190 225 255   250 47 82   255 54 93   255 59 102   255 64 111   255 68 117   255 71 123   51 51 51   51 51 51   51 51 51   51 51 51   51 51 51   51 51 51   238 36 59   255 50 82   255 62 101   51 51 51   51 51 51   51 51 51   51 51 51   51 51 51   51 51 51   51 51 51   51 51 51   51 51 51   51 51 51   51 51 51   
51 51 51   51 51 51   10 19 13   17 31 22   42 73 53   61 108 78   78 137 99   91 161 116   102 179 129   108 191 138   109 192 139   90 159 115   202 120 181   255 154 234   255 180 255   5 3 11   22 15 44   43 29 84   59 40 115   71 48 137   72 49 139   152 181 240   166 199 255   168 32 55   213 40 70   248 47 81   255 52 91   255 57 100   255 62 108   255 66 115   255 70 121   255 73 126   255 75 129   51 51 51   51 51 51   51 51 51   73 11 18   173 26 43   255 40 65   255 159 143   255 63 102   51 51 51   51 51 51   51 51 51   51 51 51   51 51 51   51 51 51   51 51 51   51 51 51   51 51 51   51 51 51   
51 51 51   159 146 11   188 173 14   208 192 15   223 206 16   233 215 17   238 220 17   235 216 17   70 123 89   76 134 97   75 132 96   119 70 106   190 112 170   241 142 216   255 167 253   5 3 11   5 3 11   17 12 34   34 23 66   45 30 87   42 29 82   132 156 209   118 22 38   166 31 54   204 38 66   236 44 77   255 50 86   255 55 95   255 59 103   255 63 110   255 67 117   255 71 122   255 73 127   255 75 129   255 27 204   255 32 242   255 37 255   97 14 24   183 28 46   255 40 65   255 51 83   255 255 85   51 51 51   51 51 51   51 51 51   51 51 51   51 51 51   51 51 51   51 51 51   51 51 51   51 51 51   
137 127 10   167 154 12   190 175 14   209 196 17   228 219 21   243 236 25   249 241 24   248 233 21   242 223 18   38 66 48   32 56 41   98 58 87   161 95 144   209 124 188   250 148 224   255 168 255   5 3 11   5 3 11   5 3 11   11 7 21   94 112 150   53 10 17   197 255 255   211 255 255   188 35 61   219 41 71   247 46 81   255 51 89   255 56 97   255 60 104   255 71 117   255 68 117   255 70 122   255 73 126   255 72 124   255 29 220   255 34 252   255 38 255   98 15 24   176 27 44   244 37 61   255 255 76   255 255 85   51 51 51   51 51 51   51 51 51   51 51 51   51 51 51   51 51 51   51 51 51   51 51 51   
136 125 10   161 149 12   183 170 14   205 198 20   230 234 29   253 255 38   255 255 41   255 255 34   247 237 23   235 217 17   20 12 18   61 36 55   122 72 110   171 101 153   211 125 189   245 145 220   255 162 246   5 3 11   5 3 11   148 248 255   174 255 255   194 255 255   210 255 255   225 255 255   237 255 255   246 255 255   227 43 74   253 48 83   255 52 90   255 57 98   255 194 219   255 110 150   255 67 116   255 69 120   255 71 123   255 25 190   255 118 227   255 35 252   255 37 255   80 12 20   143 22 36   255 247 65   255 255 75   51 51 51   51 51 51   51 51 51   51 51 51   51 51 51   51 51 51   51 51 51   51 51 51   
125 115 9   149 137 11   170 159 14   193 189 20   221 230 31   248 255 43   255 255 50   255 255 45   250 255 32   232 219 20   217 200 16   20 12 18   76 45 68   125 74 112   166 98 149   201 119 180   230 136 206   85 143 151   128 214 226   153 255 255   174 255 255   192 255 255   208 255 255   222 255 255   234 255 255   245 255 255   253 255 255   255 255 255   255 48 83   255 52 90   255 60 100   255 69 111   255 63 109   255 65 113   255 67 116   249 21 157   255 25 190   255 29 219   255 32 242   25 3 6   164 154 41   210 198 52   249 235 62   51 51 51   51 51 51   51 51 51   51 51 51   51 51 51   51 51 51   51 51 51   51 51 51   
110 101 8   133 122 9   153 142 12   174 167 16   198 201 25   223 240 36   242 255 43   248 255 43   238 248 33   222 214 21   208 192 15   176 163 13   20 12 18   73 43 66   115 68 103   150 89 135   49 83 88   99 167 176   127 214 226   150 251 255   169 255 255   186 255 255   201 255 255   215 255 255   227 255 255   238 255 255   248 255 255   255 255 255   255 255 255   253 48 83   255 52 89   255 55 96   255 58 101   255 61 106   255 63 109   255 62 108   2 255 255   255 24 182   255 27 205   58 54 14   108 102 27   154 145 38   191 179 47   51 51 51   51 51 51   51 51 51   51 51 51   51 51 51   51 51 51   51 51 51   51 51 51   
90 83 6   113 104 8   133 123 10   151 141 12   169 164 17   189 191 23   205 214 29   214 223 30   211 213 26   203 194 19   192 178 14   13 12 0   20 12 18   20 12 18   56 33 50   92 55 83   63 106 112   96 161 170   121 203 215   142 239 252   161 255 255   177 255 255   192 255 255   206 255 255   219 255 255   234 255 255   239 255 255   247 255 255   253 255 255   228 43 75   249 47 81   255 50 87   255 54 93   255 56 98   255 58 101   255 58 100   25 255 255   5 255 255   3 255 255   76 147 197   90 173 232   101 195 255   113 106 28   51 51 51   51 51 51   51 51 51   51 51 51   51 51 51   51 51 51   51 51 51   51 51 51   
66 61 5   90 83 6   110 102 8   127 117 9   142 133 11   156 149 14   169 163 16   177 172 18   180 172 17   177 166 14   171 157 12   13 12 0   20 12 18   20 12 18   20 12 18   14 23 25   59 99 105   88 148 157   112 188 199   132 222 235   150 253 255   167 255 255   181 255 255   195 255 255   210 255 255   255 255 255   255 255 255   237 255 255   243 255 255   246 255 255   222 42 72   241 45 79   255 48 84   255 51 88   255 53 91   255 52 90   22 255 255   25 255 255   2 255 255   69 134 179   83 160 214   95 183 245   105 203 255   51 51 51   51 51 51   51 51 51   51 51 51   51 51 51   51 51 51   51 51 51   51 51 51   
39 36 2   64 59 4   84 78 6   102 94 7   116 107 8   128 119 9   139 129 10   146 136 11   150 139 11   150 139 11   144 133 10   13 12 0   7 21 3   20 12 18   20 12 18   14 23 25   50 84 89   78 131 138   101 169 179   121 203 214   138 233 246   155 255 255   169 255 255   183 255 255   195 255 255   221 255 255   241 255 255   225 255 255   232 255 255   236 255 255   233 255 255   212 40 69   228 43 74   241 45 79   248 47 81   234 44 76   2 229 252   3 255 255   2 255 255   60 116 155   73 141 189   185 190 255   98 186 249   104 202 255   51 51 51   51 51 51   51 51 51   51 51 51   51 51 51   51 51 51   51 51 51   
13 12 0   33 31 2   55 51 4   73 67 5   88 81 6   100 92 7   110 101 8   117 108 8   121 111 9   120 111 9   13 12 0   13 12 0   7 21 3   7 21 3   7 21 3   14 23 25   38 64 68   65 109 115   88 147 156   107 181 191   125 211 222   141 238 251   156 255 255   170 255 255   182 255 255   193 255 255   203 255 255   212 255 255   219 255 255   223 255 255   222 255 255   180 34 59   196 37 64   207 39 68   212 40 69   72 163 212   89 200 255   102 230 255   2 245 255   232 112 255   62 120 161   74 143 192   86 165 221   94 182 244   51 51 51   51 51 51   51 51 51   51 51 51   51 51 51   51 51 51   51 51 51   
13 12 0   13 12 0   20 19 1   40 37 3   55 51 4   68 63 5   78 72 5   84 78 6   87 80 6   85 78 6   13 12 0   7 21 3   7 21 3   7 21 3   7 21 3   14 23 25   23 39 42   50 85 89   73 123 129   93 156 165   111 186 196   127 213 225   142 238 251   155 255 255   167 255 255   179 255 255   189 255 255   197 255 255   204 255 255   208 255 255   208 255 255   146 27 47   160 30 52   169 32 55   166 31 54   63 142 185   79 178 233   105 255 255   103 233 255   220 108 255   166 171 113   201 207 137   230 236 157   82 158 212   51 51 51   51 51 51   51 51 51   51 51 51   51 51 51   51 51 51   51 51 51   
13 12 0   13 12 0   13 12 0   13 12 0   17 16 1   30 28 2   40 37 3   45 42 3   46 43 3   40 37 3   13 12 0   7 21 3   7 21 3   7 21 3   7 21 3   14 23 25   14 23 25   33 56 60   56 95 100   77 129 136   95 159 168   111 186 197   126 211 223   139 234 247   152 255 255   163 255 255   173 255 255   181 255 255   188 255 255   192 255 255   190 255 255   107 20 35   119 22 39   123 23 40   31 70 92   50 113 147   66 149 195   80 182 236   91 206 255   95 214 255   145 149 99   180 185 123   235 219 153   234 241 160   51 51 51   51 51 51   51 51 51   51 51 51   51 51 51   51 51 51   51 51 51   
51 51 51   51 51 51   61 200 11   81 255 14   87 255 16   13 12 0   13 12 0   13 12 0   13 12 0   13 12 0   7 21 3   7 21 3   7 21 3   7 21 3   7 21 3   14 23 25   14 23 25   14 23 25   38 64 68   59 99 104   77 130 137   94 157 166   108 182 193   122 205 217   134 226 239   146 245 255   155 255 255   164 255 255   170 255 255   173 255 255   170 255 255   61 11 20   68 13 22   5 13 17   16 36 47   35 78 102   51 115 150   65 147 191   76 172 224   80 180 235   118 121 80   153 157 104   192 189 128   209 215 142   221 227 151   51 51 51   51 51 51   51 51 51   51 51 51   51 51 51   51 51 51   
51 51 51   61 199 11   79 255 14   90 255 16   97 255 17   99 255 18   93 255 17   4 10 19   4 10 19   4 10 19   4 10 19   5 21 21   7 21 3   40 106 194   5 13 24   14 23 25   14 23 25   14 23 25   18 30 32   39 66 70   58 97 103   75 126 132   90 151 159   103 174 184   116 195 205   127 213 225   136 229 242   144 242 255   150 252 255   152 255 255   146 245 255   21 4 7   5 13 17   5 13 17   5 13 17   17 38 50   33 75 98   47 106 139   57 130 169   162 78 255   87 89 59   122 125 83   152 156 104   178 183 121   192 197 131   51 51 51   51 51 51   51 51 51   51 51 51   51 51 51   51 51 51   
36 119 6   61 201 11   76 251 14   87 255 15   121 255 17   99 255 17   95 255 17   82 255 15   4 10 19   4 10 19   4 10 19   255 250 126   255 255 159   5 13 24   5 13 24   14 23 25   14 23 25   14 23 25   14 23 25   14 23 25   36 61 65   54 90 95   69 116 123   83 139 147   95 160 169   106 178 188   115 194 205   123 206 217   127 214 226   127 214 225   112 189 199   87 119 98   170 232 190   255 255 255   255 255 255   5 13 17   12 28 37   25 58 75   33 74 97   138 66 231   52 53 35   86 89 59   117 120 79   141 145 96   147 151 100   51 51 51   51 51 51   51 51 51   51 51 51   51 51 51   51 51 51   
32 104 5   53 175 9   68 222 12   78 255 14   87 255 15   89 255 16   87 255 15   78 255 14   51 51 51   51 51 51   19 18 9   19 18 9   19 18 9   5 13 24   5 13 24   5 13 24   14 23 25   14 23 25   14 23 25   14 23 25   14 23 25   30 51 54   46 78 82   60 101 107   72 122 129   83 140 147   92 154 163   98 165 174   101 169 179   96 161 170   14 19 15   56 77 63   133 181 149   255 255 249   252 255 255   5 13 17   5 13 17   5 13 17   91 44 153   111 53 186   13 13 9   46 47 31   75 77 51   96 99 66   51 51 51   51 51 51   51 51 51   51 51 51   51 51 51   51 51 51   51 51 51   
18 60 3   40 132 7   54 178 10   64 211 11   71 233 13   74 244 13   73 241 13   65 213 11   23 20 23   23 20 23   19 18 9   19 18 9   19 18 9   5 13 24   5 13 24   5 13 24   5 13 24   14 23 25   14 23 25   14 23 25   14 23 25   14 23 25   20 34 35   34 58 61   46 78 82   56 95 100   64 108 114   69 116 122   67 113 119   7 15 7   14 19 15   14 19 15   77 106 87   136 185 151   174 237 194   6 22 12   108 255 211   114 255 223   61 29 102   80 38 134   13 13 9   13 13 9   22 22 15   51 51 51   51 51 51   51 51 51   51 51 51   51 51 51   51 51 51   51 51 51   51 51 51   
5 17 0   21 69 3   36 120 6   47 154 8   53 175 9   56 185 10   54 179 10   43 142 7   23 20 23   23 20 23   19 18 9   19 18 9   19 18 9   5 13 24   5 13 24   5 13 24   5 13 24   6 3 9   14 23 25   14 23 25   14 23 25   14 23 25   14 23 25   14 23 25   14 23 25   25 42 44   30 51 54   30 51 53   113 59 171   108 56 163   7 15 7   14 19 15   14 19 15   60 82 67   89 121 99   94 255 183   105 255 205   114 255 222   118 255 229   106 71 239   196 255 129   245 255 184   249 255 166   255 255 170   51 51 51   51 51 51   51 51 51   51 51 51   51 51 51   51 51 51   51 51 51   
51 51 51   5 17 0   12 40 2   23 77 4   30 99 5   32 106 5   27 90 5   23 20 23   23 20 23   23 14 7   23 14 7   23 14 7   23 14 7   5 13 24   5 13 24   5 13 24   5 13 24   6 3 9   6 3 9   14 23 25   14 23 25   14 23 25   14 23 25   14 23 25   14 23 25   14 23 25   14 23 25   6 3 9   6 3 9   107 55 162   6 22 12   6 22 12   6 22 12   59 205 115   74 255 144   87 255 170   202 255 255   114 255 216   114 255 222   109 255 213   177 255 116   252 255 217   255 255 255   247 255 161   254 255 165   51 51 51   51 51 51   51 51 51   51 51 51   51 51 51   51 51 51   
51 51 51   51 51 51   5 17 0   5 17 0   5 17 0   5 17 0   23 20 23   23 20 23   23 20 23   23 14 7   23 14 7   23 14 7   23 14 7   23 14 7   5 13 24   5 13 24   5 13 24   6 3 9   6 3 9   6 3 9   6 3 9   6 3 9   6 3 9   6 3 9   6 3 9   6 3 9   6 3 9   6 3 9   6 3 9   102 53 155   6 22 12   12 42 23   32 114 64   50 174 97   65 226 126   78 255 152   91 255 175   101 255 195   106 255 206   107 255 208   155 246 101   183 255 121   213 255 147   225 255 147   236 255 154   51 51 51   51 51 51   51 51 51   51 51 51   51 51 51   51 51 51   
51 51 51   51 51 51   51 51 51   51 51 51   51 51 51   51 51 51   23 20 23   23 20 23   23 14 7   23 14 7   23 14 7   23 14 7   23 14 7   23 14 7   5 13 24   8 24 21   6 3 9   6 3 9   6 3 9   6 3 9   6 3 9   6 3 9   6 3 9   6 3 9   6 3 9   87 45 131   6 3 9   6 3 9   6 3 9   6 3 9   6 22 12   6 22 12   22 77 43   39 137 76   54 189 106   67 235 131   79 255 153   88 255 172   95 255 185   97 255 188   130 206 84   157 249 102   181 255 118   200 255 130   211 255 137   51 51 51   51 51 51   51 51 51   51 51 51   51 51 51   51 51 51   
51 51 51   51 51 51   51 51 51   51 51 51   51 51 51   51 51 51   23 20 23   23 20 23   23 20 23   23 14 7   23 14 7   23 14 7   23 14 7   23 14 7   8 24 21   8 24 21   8 24 21   6 3 9   6 3 9   6 3 9   6 3 9   6 3 9   6 3 9   6 3 9   73 38 110   79 41 119   6 3 9   6 3 9   6 3 9   86 45 130   6 22 12   49 132 173   64 174 227   76 205 255   84 226 255   85 229 255   66 231 129   75 255 147   82 255 160   82 255 160   101 160 66   128 203 83   152 241 99   170 255 111   177 255 115   51 51 51   51 51 51   51 51 51   51 51 51   51 51 51   51 51 51   
51 51 51   51 51 51   51 51 51   51 51 51   51 51 51   51 51 51   51 51 51   23 20 23   23 20 23   23 14 7   23 14 7   23 14 7   23 14 7   19 7 9   6 13 9   8 24 21   8 24 21   6 3 9   6 3 9   6 3 9   6 3 9   6 3 9   6 3 9   57 29 86   63 33 96   69 36 105   6 3 9   6 3 9   6 3 9   11 31 40   37 100 130   54 145 190   67 181 237   78 211 255   87 235 255   94 253 255   96 255 255   46 134 255   48 139 255   209 255 255   202 255 255   95 151 62   118 187 76   134 212 87   51 51 51   51 51 51   51 51 51   51 51 51   51 51 51   51 51 51   51 51 51   
51 51 51   51 51 51   51 51 51   51 51 51   51 51 51   51 51 51   51 51 51   7 25 8   7 25 8   7 25 8   19 7 9   19 7 9   19 7 9   19 7 9   19 7 9   8 24 21   8 24 21   6 3 9   6 3 9   6 3 9   6 3 9   6 3 9   38 19 57   46 24 70   53 27 80   59 30 89   63 32 95   65 34 99   65 34 99   17 48 62   37 101 131   52 142 185   65 176 230   76 205 255   85 230 255   92 249 255   97 255 255   96 255 255   54 156 255   57 165 255   57 167 255   255 255 255   76 120 49   81 128 52   51 51 51   51 51 51   51 51 51   51 51 51   51 51 51   51 51 51   51 51 51   
51 51 51   51 51 51   51 51 51   51 51 51   51 51 51   51 51 51   7 25 8   7 25 8   7 25 8   19 7 9   19 7 9   19 7 9   19 7 9   19 7 9   19 7 9   19 7 9   8 24 21   8 24 21   3 5 18   3 5 18   6 3 9   16 8 24   26 13 39   34 17 51   41 21 62   46 24 70   50 26 76   51 27 78   5 14 18   16 43 56   34 91 119   48 131 171   61 164 214   72 193 252   83 219 255   175 255 255   94 253 255   96 255 255   54 158 255   58 168 255   60 175 255   61 178 255   255 255 255   5 59 63   5 57 60   51 51 51   51 51 51   51 51 51   51 51 51   51 51 51   51 51 51   
51 51 51   51 51 51   51 51 51   51 51 51   51 51 51   7 25 8   7 25 8   7 25 8   7 25 8   19 7 9   19 7 9   19 7 9   19 7 9   13 14 4   13 14 4   13 14 4   3 5 18   44 68 229   52 80 255   58 89 255   61 93 255   61 93 255   11 5 16   19 10 29   26 13 39   31 16 47   34 17 51   33 17 49   5 14 18   10 29 37   28 76 99   42 115 150   55 148 193   66 177 231   75 202 255   83 223 255   88 238 255   91 246 255   83 224 255   59 168 255   60 175 255   62 181 255   62 182 255   231 255 255   5 57 60   51 51 51   51 51 51   51 51 51   51 51 51   51 51 51   51 51 51   
51 51 51   51 51 51   51 51 51   51 51 51   51 51 51   7 25 8   7 25 8   7 25 8   7 25 8   15 21 6   15 21 6   15 21 6   13 14 4   13 14 4   13 14 4   24 37 125   38 58 195   47 72 245   55 83 255   60 92 255   64 97 255   65 99 255   62 96 255   6 3 9   6 3 9   10 5 16   9 4 14   132 77 43   5 14 18   5 14 18   20 56 73   35 95 124   47 128 167   58 157 205   67 182 237   75 202 255   81 218 255   84 226 255   78 210 255   92 221 255   71 190 255   62 179 255   63 182 255   61 176 255   4 53 56   51 51 51   51 51 51   51 51 51   51 51 51   51 51 51   51 51 51   
51 51 51   51 51 51   51 51 51   51 51 51   51 51 51   7 25 8   7 25 8   7 25 8   15 21 6   15 21 6   15 21 6   13 14 4   13 14 4   13 14 4   8 13 44   27 41 138   38 59 199   47 72 244   54 83 255   59 91 255   64 98 255   65 99 255   64 98 255   3 5 18   18 12 23   22 13 7   47 28 15   22 13 7   5 14 18   5 14 18   11 30 39   26 70 91   38 104 136   49 133 173   58 158 206   66 178 232   72 194 252   74 200 255   62 168 219   144 255 255   120 255 255   63 179 255   61 179 255   62 179 255   4 47 49   51 51 51   51 51 51   51 51 51   51 51 51   51 51 51   51 51 51   
51 51 51   51 51 51   51 51 51   51 51 51   51 51 51   7 25 8   7 25 8   15 21 6   15 21 6   15 21 6   13 14 4   126 140 40   157 174 50   13 14 4   10 15 53   26 39 133   37 56 189   45 69 233   52 79 255   57 87 255   86 125 255   63 96 255   62 95 255   3 5 18   18 12 23   22 13 7   22 13 7   22 13 7   5 14 18   5 14 18   5 14 18   15 40 53   28 75 98   39 105 136   48 129 169   55 149 195   60 163 213   61 166 217   53 147 255   93 216 255   102 236 255   63 176 255   59 172 255   60 174 255   3 38 40   51 51 51   51 51 51   51 51 51   51 51 51   51 51 51   51 51 51   
51 51 51   51 51 51   51 51 51   51 51 51   51 51 51   51 51 51   15 21 6   15 21 6   155 211 65   36 40 11   95 105 30   132 146 41   160 177 50   13 14 4   7 12 40   22 34 117   33 51 171   41 63 214   48 73 247   53 81 255   57 87 255   59 90 255   58 89 255   3 5 18   18 12 23   22 13 7   22 13 7   22 13 7   22 13 7   5 14 18   5 14 18   5 14 18   15 40 52   26 70 92   35 95 124   42 114 148   46 124 162   41 110 143   45 130 250   52 147 255   59 162 255   56 161 255   57 165 255   57 167 255   54 157 255   51 51 51   51 51 51   51 51 51   51 51 51   51 51 51   51 51 51   
51 51 51   51 51 51   51 51 51   51 51 51   51 51 51   51 51 51   41 56 17   107 146 45   151 205 63   50 55 15   97 108 31   131 145 41   157 174 49   13 14 4   3 5 18   17 26 90   28 43 145   36 55 187   43 65 221   48 73 246   51 78 255   53 81 255   3 5 18   3 5 18   18 12 23   22 13 7   22 13 7   22 13 7   22 13 7   3 10 19   5 14 18   5 14 18   5 14 18   9 26 34   18 50 65   24 65 85   21 58 76   37 108 207   41 120 231   45 131 252   49 141 255   51 149 255   53 155 255   32 45 142   35 49 154   51 51 51   51 51 51   51 51 51   51 51 51   51 51 51   51 51 51   
51 51 51   51 51 51   51 51 51   51 51 51   51 51 51   51 51 51   37 50 15   99 134 41   140 191 59   51 56 16   94 104 29   126 139 40   151 167 48   13 14 4   3 5 18   10 15 52   21 32 109   29 45 153   36 55 186   41 63 212   44 68 229   46 70 236   3 5 18   3 5 18   18 12 23   6 14 12   22 13 7   22 13 7   22 13 7   3 10 19   3 10 19   3 10 19   5 14 18   5 14 18   5 14 18   23 69 132   29 84 161   33 97 187   38 110 211   41 121 232   45 130 250   47 138 255   30 41 130   35 48 152   39 54 171   42 59 185   42 59 185   51 51 51   51 51 51   51 51 51   51 51 51   
51 51 51   51 51 51   51 51 51   51 51 51   51 51 51   51 51 51   21 29 9   83 113 35   15 21 6   44 49 14   86 95 27   117 130 37   142 157 45   13 14 4   3 5 18   3 5 18   12 18 62   21 32 108   27 42 142   32 49 167   35 54 182   36 55 185   3 5 18   21 3 20   21 3 20   22 7 6   22 7 6   22 7 6   22 7 6   22 13 7   3 10 19   3 10 19   3 10 19   7 21 40   13 40 76   19 57 109   24 72 138   29 85 164   34 98 188   37 109 209   17 23 74   23 33 104   29 41 129   35 48 152   39 54 171   43 60 187   45 63 199   45 63 199   51 51 51   51 51 51   51 51 51   
51 51 51   51 51 51   51 51 51   51 51 51   51 51 51   51 51 51   15 21 6   60 82 25   15 21 6   32 35 10   74 82 23   105 116 33   130 144 41   13 14 4   13 14 4   3 5 18   3 5 18   9 14 47   16 24 83   21 32 107   23 35 118   21 32 108   13 14 4   21 3 20   22 7 6   22 7 6   22 7 6   22 7 6   22 7 6   22 7 6   3 10 19   3 10 19   3 10 19   3 10 19   8 25 49   14 43 82   20 58 112   25 72 139   29 85 163   8 11 37   16 22 70   22 31 99   28 39 124   33 47 146   38 53 166   43 60 186   45 63 197   47 66 206   51 51 51   51 51 51   51 51 51   
51 51 51   51 51 51   51 51 51   51 51 51   51 51 51   51 51 51   15 21 6   28 38 12   15 21 6   13 14 4   57 63 18   89 99 28   114 127 36   135 149 42   13 14 4   13 14 4   13 14 4   3 5 18   3 5 18   3 5 18   13 14 4   13 14 4   21 3 20   22 7 6   22 7 6   22 7 6   22 7 6   22 7 6   22 7 6   22 7 6   22 7 6   3 10 19   3 10 19   3 10 19   3 10 19   9 27 51   14 43 82   19 57 109   24 69 133   6 9 30   14 20 62   20 29 91   26 37 116   31 44 138   37 51 159   160 206 255   53 73 206   46 64 202   47 65 205   51 51 51   51 51 51   
51 51 51   51 51 51   51 51 51   51 51 51   89 199 51   128 255 73   131 255 75   15 21 6   15 21 6   13 14 4   35 39 11   69 76 22   95 105 30   116 129 36   133 148 42   147 163 46   13 14 4   13 14 4   13 14 4   13 14 4   13 14 4   13 14 4   51 51 51   22 7 6   22 7 6   22 7 6   22 7 6   22 7 6   22 7 6   22 7 6   22 7 6   22 7 6   3 10 19   3 10 19   3 10 19   3 10 19   8 24 47   13 39 74   2 3 11   4 6 19   12 16 52   18 25 80   24 33 105   29 41 128   34 47 148   51 70 187   55 75 203   44 62 194   46 64 200   51 51 51   51 51 51   
51 51 51   51 51 51   51 51 51   108 242 62   150 255 85   171 255 98   177 255 101   163 255 93   15 21 6   13 14 4   13 14 4   43 48 13   71 79 22   93 103 29   111 123 35   125 138 39   135 149 42   141 156 44   143 158 45   13 14 4   13 14 4   51 51 51   51 51 51   22 7 6   22 7 6   22 7 6   22 7 6   22 7 6   22 7 6   22 7 6   22 7 6   22 7 6   51 51 51   3 10 19   3 10 19   3 10 19   3 10 19   2 3 11   2 3 11   2 3 11   9 12 39   15 21 67   21 29 93   26 37 116   31 43 136   35 49 154   39 54 170   42 58 183   43 60 190   51 51 51   51 51 51   
51 51 51   51 51 51   77 172 44   133 255 76   164 255 94   182 255 104   187 255 107   177 255 101   131 255 75   15 21 6   13 14 4   13 14 4   40 44 12   64 71 20   82 91 26   96 107 30   106 117 33   111 122 35   109 121 34   13 14 4   51 51 51   51 51 51   51 51 51   22 7 6   22 7 6   157 50 48   222 70 68   22 7 6   22 7 6   22 7 6   22 7 6   22 7 6   51 51 51   51 51 51   51 51 51   51 51 51   3 10 19   2 3 11   2 3 11   2 3 11   5 7 23   12 16 52   18 25 78   23 32 101   28 39 122   32 45 140   36 50 156   38 54 169   40 56 176   51 51 51   51 51 51   
51 51 51   51 51 51   90 201 51   135 255 77   163 255 93   207 255 131   182 255 104   171 255 98   128 255 73   51 51 51   51 51 51   13 14 4   13 14 4   24 26 7   44 49 14   58 65 18   66 73 21   67 74 21   13 14 4   51 51 51   51 51 51   51 51 51   51 51 51   22 7 6   31 10 9   118 37 36   185 58 57   237 75 73   22 7 6   22 7 6   22 7 6   22 7 6   51 51 51   51 51 51   51 51 51   51 51 51   51 51 51   51 51 51   2 3 11   2 3 11   2 3 11   8 11 35   14 19 61   19 27 85   24 34 106   28 39 124   32 44 140   35 48 152   36 50 159   51 51 51   51 51 51   
51 51 51   10 22 5   82 184 47   124 255 71   149 255 85   163 255 93   164 255 94   150 255 85   89 199 51   51 51 51   51 51 51   51 51 51   51 51 51   51 51 51   13 14 4   13 14 4   13 14 4   51 51 51   51 51 51   51 51 51   51 51 51   51 51 51   51 51 51   51 51 51   22 7 6   65 20 20   135 42 41   189 60 58   229 72 70   22 7 6   22 7 6   51 51 51   51 51 51   51 51 51   51 51 51   51 51 51   51 51 51   51 51 51   2 3 11   2 3 11   2 3 11   2 3 11   9 13 41   15 21 66   20 27 87   24 33 105   27 38 121   30 42 132   31 43 135   51 51 51   51 51 51   
51 51 51   51 51 51   57 127 32   100 223 57   124 255 71   135 255 77   133 255 76   108 242 62   51 51 51   51 51 51   51 51 51   51 51 51   51 51 51   51 51 51   51 51 51   51 51 51   51 51 51   51 51 51   51 51 51   51 51 51   51 51 51   51 51 51   51 51 51   51 51 51   51 51 51   22 7 6   65 20 20   122 38 37   161 51 49   22 7 6   22 7 6   51 51 51   51 51 51   51 51 51   51 51 51   51 51 51   51 51 51   51 51 51   51 51 51   2 3 11   2 3 11   2 3 11   4 5 17   9 13 42   14 20 64   19 26 83   22 31 97   24 33 106   51 51 51   51 51 51   51 51 51   
51 51 51   51 51 51   10 22 5   57 127 32   82 184 47   90 201 51   77 172 44   51 51 51   51 51 51   51 51 51   51 51 51   51 51 51   51 51 51   51 51 51   51 51 51   51 51 51   51 51 51   51 51 51   51 51 51   51 51 51   51 51 51   51 51 51   51 51 51   51 51 51   51 51 51   51 51 51   22 7 6   22 7 6   22 7 6   51 51 51   51 51 51   51 51 51   51 51 51   51 51 51   51 51 51   51 51 51   51 51 51   51 51 51   51 51 51   51 51 51   51 51 51   2 3 11   2 3 11   2 3 11   8 11 35   12 16 53   14 20 64   51 51 51   51 51 51   51 51 51   51 51 51   
51 51 51   51 51 51   51 51 51   51 51 51   10 22 5   51 51 51   51 51 51   51 51 51   51 51 51   51 51 51   51 51 51   51 51 51   51 51 51   51 51 51   51 51 51   51 51 51   51 51 51   51 51 51   51 51 51   51 51 51   51 51 51   51 51 51   51 51 51   51 51 51   51 51 51   51 51 51   51 51 51   51 51 51   51 51 51   51 51 51   51 51 51   51 51 51   51 51 51   51 51 51   51 51 51   51 51 51   51 51 51   51 51 51   51 51 51   51 51 51   51 51 51   51 51 51   51 51 51   51 51 51   51 51 51   51 51 51   51 51 51   51 51 51   51 51 51   51 51 51   51 51 51   
51 51 51   51 51 51   51 51 51   51 51 51   51 51 51   51 51 51   51 51 51   51 51 51   51 51 51   51 51 51   51 51 51   51 51 51   51 51 51   51 51 51   51 51 51   51 51 51   51 51 51   51 51 51   51 51 51   51 51 51   51 51 51   51 51 51   51 51 51   51 51 51   51 51 51   51 51 51   51 51 51   51 51 51   51 51 51   51 51 51   51 51 51   51 51 51   51 51 51   51 51 51   51 51 51   51 51 51   51 51 51   51 51 51   51 51 51   51 51 51   51 51 51   51 51 51   51 51 51   51 51 51   51 51 51   51 51 51   51 51 51   51 51 51   51 51 51   51 51 51   51 51 51   
