P3
51 51
255
51 51 51   51 51 51   51 51 51   51 51 51   51 51 51   51 51 51   51 51 51   51 51 51   51 51 51   51 51 51   51 51 51   51 51 51   51 51 51   51 51 51   51 51 51   51 51 51   51 51 51   51 51 51   51 51 51   51 51 51   51 51 51   51 51 51   51 51 51   51 51 51   51 51 51   51 51 51   51 51 51   51 51 51   51 51 51   51 51 51   51 51 51   51 51 51   51 51 51   51 51 51   51 51 51   51 51 51   51 51 51   51 51 51   51 51 51   51 51 51   51 51 51   51 51 51   51 51 51   51 51 51   51 51 51   51 51 51   51 51 51   51 51 51   51 51 51   51 51 51   51 51 51   
51 51 51   51 51 51   51 51 51   51 51 51   51 51 51   51 51 51   51 51 51   51 51 51   51 51 51   51 51 51   51 51 51   51 51 51   51 51 51   51 51 51   51 51 51   51 51 51   51 51 51   51 51 51   51 51 51   51 51 51   51 51 51   51 51 51   51 51 51   51 51 51   51 51 51   51 51 51   51 51 51   51 51 51   51 51 51   201 182 197   255 242 255   255 255 255   255 255 255   255 255 255   255 255 255   51 51 51   51 51 51   51 51 51   51 51 51   51 51 51   51 51 51   51 51 51   51 51 51   51 51 51   142 196 70   184 253 90   223 255 109   255 255 128   51 51 51   51 51 51   51 51 51   
51 51 51   51 51 51   51 51 51   51 51 51   51 51 51   51 51 51   51 51 51   51 51 51   51 51 51   51 51 51   51 51 51   51 51 51   51 51 51   51 51 51   51 51 51   51 51 51   51 51 51   51 51 51   51 51 51   51 51 51   51 51 51   51 51 51   51 51 51   51 51 51   51 51 51   51 51 51   51 51 51   51 51 51   116 105 113   183 166 179   237 215 232   255 255 255   255 255 255   255 255 255   255 255 255   255 255 255   51 51 51   51 51 51   51 51 51   51 51 51   51 51 51   51 51 51   51 51 51   64 89 31   107 148 52   148 203 72   186 255 91   228 255 114   255 255 128   51 51 51   51 51 51   
51 51 51   51 51 51   51 51 51   51 51 51   51 51 51   51 51 51   51 51 51   51 51 51   51 51 51   51 51 51   51 51 51   51 51 51   51 51 51   51 51 51   51 51 51   51 51 51   51 51 51   51 51 51   51 51 51   51 51 51   51 51 51   51 51 51   51 51 51   51 51 51   51 51 51   51 51 51   51 51 51   24 22 23   89 81 87   149 135 146   200 182 196   247 224 242   255 255 255   255 255 255   255 255 255   255 255 255   255 255 255   51 51 51   51 51 51   51 51 51   51 51 51   51 51 51   16 22 8   28 39 13   70 97 34   110 152 54   149 206 73   188 255 92   228 255 114   255 255 128   51 51 51   
51 51 51   51 51 51   51 51 51   51 51 51   51 51 51   51 51 51   51 51 51   51 51 51   51 51 51   51 51 51   51 51 51   51 51 51   51 51 51   51 51 51   51 51 51   51 51 51   51 51 51   51 51 51   51 51 51   51 51 51   51 51 51   51 51 51   51 51 51   51 51 51   51 51 51   51 51 51   51 51 51   24 22 23   52 47 50   109 99 107   160 145 157   206 187 202   249 227 244   255 255 255   255 255 255   255 255 255   255 255 255   51 51 51   51 51 51   51 51 51   51 51 51   51 51 51   16 22 8   16 22 8   32 44 15   72 100 35   111 153 54   149 206 73   186 255 91   223 255 109   51 51 51   
51 51 51   51 51 51   51 51 51   51 51 51   51 51 51   51 51 51   51 51 51   51 51 51   51 51 51   51 51 51   51 51 51   51 51 51   51 51 51   51 51 51   51 51 51   51 51 51   51 51 51   51 51 51   51 51 51   51 51 51   51 51 51   51 51 51   51 51 51   51 51 51   51 51 51   51 51 51   51 51 51   24 22 23   24 22 23   65 59 64   116 105 114   163 148 159   206 187 202   246 224 241   255 255 255   255 255 255   255 255 255   51 51 51   51 51 51   51 51 51   51 51 51   16 22 8   16 22 8   16 22 8   16 22 8   33 46 16   72 100 35   110 152 54   148 203 72   184 253 90   51 51 51   
51 51 51   51 51 51   51 51 51   51 51 51   51 51 51   51 51 51   51 51 51   51 51 51   51 51 51   51 51 51   51 51 51   51 51 51   51 51 51   51 51 51   51 51 51   51 51 51   51 51 51   51 51 51   51 51 51   51 51 51   51 51 51   51 51 51   51 51 51   51 51 51   51 51 51   51 51 51   51 51 51   24 22 23   24 22 23   24 22 23   69 63 68   116 105 113   159 145 156   200 181 196   237 215 232   255 246 255   255 255 255   51 51 51   51 51 51   51 51 51   51 51 51   16 22 8   16 22 8   16 22 8   16 22 8   16 22 8   32 44 15   70 97 34   107 148 52   142 196 70   51 51 51   
51 51 51   51 51 51   51 51 51   51 51 51   51 51 51   51 51 51   51 51 51   51 51 51   51 51 51   51 51 51   51 51 51   51 51 51   51 51 51   51 51 51   51 51 51   51 51 51   51 51 51   51 51 51   51 51 51   51 51 51   51 51 51   51 51 51   51 51 51   51 51 51   51 51 51   51 51 51   51 51 51   24 22 23   24 22 23   24 22 23   24 22 23   66 60 64   109 99 107   150 136 147   187 170 183   220 200 215   244 222 239   51 51 51   51 51 51   51 51 51   51 51 51   51 51 51   16 22 8   16 22 8   16 22 8   16 22 8   16 22 8   28 39 13   64 89 31   51 51 51   51 51 51   
51 51 51   51 51 51   51 51 51   51 51 51   51 51 51   51 51 51   51 51 51   51 51 51   51 51 51   51 51 51   51 51 51   51 51 51   51 51 51   51 51 51   51 51 51   51 51 51   51 51 51   51 51 51   51 51 51   51 51 51   51 51 51   51 51 51   51 51 51   51 51 51   51 51 51   51 51 51   51 51 51   24 22 23   24 22 23   24 22 23   24 22 23   24 22 23   56 50 54   96 87 94   132 120 130   163 148 160   179 163 175   51 51 51   51 51 51   51 51 51   51 51 51   51 51 51   16 22 8   16 22 8   16 22 8   16 22 8   16 22 8   16 22 8   51 51 51   51 51 51   51 51 51   
51 51 51   51 51 51   51 51 51   51 51 51   51 51 51   51 51 51   51 51 51   51 51 51   51 51 51   51 51 51   51 51 51   51 51 51   51 51 51   51 51 51   51 51 51   51 51 51   51 51 51   51 51 51   51 51 51   51 51 51   51 51 51   51 51 51   51 51 51   51 51 51   51 51 51   51 51 51   51 51 51   24 22 23   24 22 23   24 22 23   24 22 23   24 22 23   24 22 23   36 33 36   71 65 70   97 88 95   51 51 51   51 51 51   51 51 51   51 51 51   51 51 51   51 51 51   51 51 51   51 51 51   16 22 8   16 22 8   51 51 51   51 51 51   51 51 51   51 51 51   51 51 51   
51 51 51   51 51 51   51 51 51   51 51 51   51 51 51   51 51 51   51 51 51   51 51 51   51 51 51   51 51 51   51 51 51   51 51 51   51 51 51   51 51 51   51 51 51   51 51 51   51 51 51   51 51 51   51 51 51   51 51 51   51 51 51   51 51 51   51 51 51   51 51 51   51 51 51   51 51 51   51 51 51   51 51 51   24 22 23   24 22 23   24 22 23   24 22 23   24 22 23   24 22 23   24 22 23   51 51 51   51 51 51   51 51 51   51 51 51   51 51 51   51 51 51   51 51 51   51 51 51   51 51 51   51 51 51   51 51 51   51 51 51   51 51 51   51 51 51   51 51 51   51 51 51   
51 51 51   51 51 51   51 51 51   51 51 51   51 51 51   51 51 51   51 51 51   51 51 51   51 51 51   51 51 51   51 51 51   85 103 63   173 159 132   135 163 100   51 51 51   51 51 51   51 51 51   51 51 51   51 51 51   51 51 51   114 87 91   166 127 133   192 147 154   51 51 51   51 51 51   51 51 51   51 51 51   51 51 51   51 51 51   51 51 51   24 22 23   24 22 23   24 22 23   24 22 23   51 51 51   51 51 51   51 51 51   51 51 51   51 51 51   51 51 51   51 51 51   51 51 51   51 51 51   51 51 51   51 51 51   51 51 51   51 51 51   51 51 51   51 51 51   51 51 51   51 51 51   
51 51 51   51 51 51   51 51 51   51 51 51   51 51 51   184 255 255   197 255 255   51 51 51   51 51 51   51 51 51   51 51 51   34 42 25   75 91 56   91 110 67   51 51 51   51 51 51   51 51 51   51 51 51   51 51 51   10 8 8   66 51 53   118 90 95   150 114 120   51 51 51   51 51 51   51 51 51   51 51 51   51 51 51   51 51 51   51 51 51   51 51 51   51 51 51   51 51 51   51 51 51   51 51 51   51 51 51   51 51 51   51 51 51   51 51 51   51 51 51   51 51 51   51 51 51   51 51 51   51 51 51   51 51 51   51 51 51   51 51 51   51 51 51   51 51 51   51 51 51   51 51 51   
51 51 51   51 51 51   136 252 225   172 255 255   194 255 255   210 255 255   222 255 255   230 255 255   233 255 255   227 255 255   51 51 51   7 9 5   7 9 5   7 9 5   51 51 51   51 51 51   51 51 51   51 51 51   51 51 51   10 8 8   10 8 8   51 39 41   81 62 65   51 51 51   51 51 51   51 51 51   51 51 51   51 51 51   51 51 51   51 51 51   51 51 51   51 51 51   51 51 51   51 51 51   51 51 51   51 51 51   51 51 51   51 51 51   51 51 51   51 51 51   51 51 51   51 51 51   51 51 51   51 51 51   51 51 51   51 51 51   51 51 51   51 51 51   51 51 51   51 51 51   51 51 51   
51 51 51   119 220 196   154 255 254   178 255 255   196 255 255   211 255 255   223 255 255   233 255 255   238 255 255   239 255 255   233 255 255   51 51 51   51 51 51   51 51 51   51 51 51   51 51 51   51 51 51   51 51 51   51 51 51   51 51 51   10 8 8   10 8 8   51 51 51   51 51 51   51 51 51   51 51 51   51 51 51   51 51 51   51 51 51   51 51 51   177 87 222   242 119 255   255 142 255   255 159 255   51 51 51   51 51 51   51 51 51   51 51 51   51 51 51   51 51 51   51 51 51   51 51 51   51 51 51   51 51 51   51 51 51   51 51 51   51 51 51   51 51 51   51 51 51   51 51 51   51 51 51   
81 151 134   125 231 206   152 255 251   173 255 255   191 255 255   207 255 255   233 255 255   255 255 255   255 255 255   241 255 255   235 255 255   225 255 255   51 51 51   51 51 51   51 51 51   51 51 51   51 51 51   51 51 51   51 51 51   51 51 51   51 51 51   51 51 51   51 51 51   51 51 51   51 51 51   51 51 51   51 51 51   51 51 51   51 51 51   115 57 144   181 89 226   232 115 255   255 136 255   255 154 255   255 169 255   255 175 255   51 51 51   51 51 51   51 51 51   51 51 51   51 51 51   51 51 51   51 51 51   51 51 51   51 51 51   51 51 51   51 51 51   51 51 51   51 51 51   51 51 51   51 51 51   
84 157 140   119 220 196   144 255 237   164 255 255   181 255 255   199 255 255   245 255 255   255 255 255   255 255 255   255 255 255   230 255 255   222 255 255   204 255 255   51 51 51   51 51 51   51 51 51   51 51 51   51 51 51   51 51 51   24 7 1   24 7 1   24 7 1   24 7 1   51 51 51   51 51 51   51 51 51   51 51 51   51 51 51   22 11 27   101 50 126   159 78 199   208 103 255   251 124 255   255 147 255   255 160 255   255 169 255   51 51 51   51 51 51   51 51 51   51 51 51   51 51 51   51 51 51   51 51 51   51 51 51   51 51 51   51 51 51   51 51 51   51 51 51   51 51 51   51 51 51   51 51 51   
76 140 125   107 199 177   131 243 217   151 255 249   167 255 255   183 255 255   212 255 255   255 255 255   255 255 255   255 255 255   220 255 255   212 255 255   200 255 255   51 51 51   51 51 51   51 51 51   51 51 51   148 46 9   24 7 1   24 7 1   24 7 1   24 7 1   24 7 1   24 7 1   51 51 51   51 51 51   51 51 51   51 51 51   19 9 24   72 36 91   129 63 161   177 87 221   219 108 255   255 126 255   255 147 255   255 154 255   255 159 255   51 51 51   51 51 51   51 51 51   51 51 51   51 51 51   51 51 51   51 51 51   51 51 51   51 51 51   51 51 51   51 51 51   51 51 51   51 51 51   51 51 51   
60 112 100   91 170 151   115 214 190   134 250 222   151 255 249   165 255 255   179 255 255   198 255 255   214 255 255   209 255 255   201 255 255   197 255 255   187 255 255   149 255 246   51 51 51   51 51 51   51 51 51   24 7 1   24 7 1   24 7 1   24 7 1   24 7 1   24 7 1   24 7 1   24 7 1   51 51 51   51 51 51   51 51 51   19 9 24   36 18 45   92 45 115   140 69 175   182 90 227   219 108 255   251 124 255   255 136 255   255 142 255   51 51 51   51 51 51   51 51 51   51 51 51   51 51 51   51 51 51   51 51 51   51 51 51   51 51 51   51 51 51   51 51 51   51 51 51   51 51 51   51 51 51   
40 75 66   72 133 118   96 178 158   115 214 191   132 245 218   146 255 241   157 255 255   167 255 255   175 255 255   179 255 255   180 255 255   178 255 255   168 255 255   135 250 222   51 51 51   51 51 51   24 7 1   24 7 1   24 7 1   24 7 1   24 7 1   24 7 1   24 7 1   24 7 1   24 7 1   51 51 51   51 51 51   51 51 51   19 9 24   19 9 24   49 24 61   97 48 122   140 69 175   177 87 221   208 103 255   232 115 255   242 119 255   51 51 51   51 51 51   51 51 51   51 51 51   51 51 51   51 51 51   51 51 51   51 51 51   51 51 51   51 51 51   51 51 51   51 51 51   51 51 51   51 51 51   
13 24 21   48 89 79   73 135 120   93 173 154   110 204 181   124 230 205   136 252 224   145 255 240   152 255 251   157 255 255   158 255 255   155 255 255   143 255 237   102 190 169   51 51 51   51 51 51   24 7 1   24 7 1   24 7 1   24 7 1   24 7 1   24 7 1   24 7 1   24 7 1   24 7 1   255 107 20   51 51 51   51 51 51   19 9 24   19 9 24   19 9 24   49 24 61   92 45 115   129 63 161   159 78 199   181 89 226   177 87 222   68 156 37   116 255 67   51 51 51   51 51 51   51 51 51   51 51 51   51 51 51   51 51 51   51 51 51   51 51 51   51 51 51   51 51 51   51 51 51   51 51 51   
13 24 21   18 35 31   46 85 76   67 125 111   85 157 140   99 184 164   111 206 183   120 223 199   127 236 210   131 243 217   132 244 217   127 235 210   112 208 185   51 51 51   51 51 51   51 51 51   24 7 1   24 7 1   24 7 1   24 7 1   24 7 1   24 7 1   24 7 1   24 7 1   24 7 1   255 88 17   51 51 51   51 51 51   19 9 24   19 9 24   19 9 24   19 9 24   36 18 45   72 36 91   101 50 126   115 57 144   7 17 4   29 67 15   77 176 41   102 233 55   51 51 51   51 51 51   51 51 51   51 51 51   51 51 51   51 51 51   51 51 51   51 51 51   51 51 51   51 51 51   51 51 51   
13 24 21   13 24 21   13 24 21   36 68 60   55 102 91   70 130 116   82 153 136   92 170 151   98 182 162   101 188 167   100 186 166   92 172 153   68 127 113   51 51 51   51 51 51   51 51 51   24 7 1   24 7 1   24 7 1   24 7 1   24 7 1   24 7 1   24 7 1   24 7 1   253 79 15   51 51 51   51 51 51   51 51 51   51 51 51   19 9 24   19 9 24   19 9 24   19 9 24   19 9 24   22 11 27   51 51 51   51 51 51   7 17 4   18 43 10   51 51 51   51 51 51   51 51 51   51 51 51   51 51 51   51 51 51   51 51 51   51 51 51   51 51 51   51 51 51   51 51 51   51 51 51   
51 51 51   13 24 21   13 24 21   13 24 21   20 37 33   36 67 59   48 90 80   58 107 95   63 118 105   65 121 108   61 114 101   46 85 76   51 51 51   51 51 51   51 51 51   51 51 51   51 51 51   24 7 1   24 7 1   24 7 1   24 7 1   24 7 1   24 7 1   171 53 10   24 7 1   51 51 51   51 51 51   51 51 51   51 51 51   51 51 51   51 51 51   51 51 51   51 51 51   51 51 51   51 51 51   51 51 51   51 51 51   51 51 51   51 51 51   51 51 51   51 51 51   51 51 51   51 51 51   51 51 51   51 51 51   51 51 51   51 51 51   51 51 51   51 51 51   51 51 51   51 51 51   
51 51 51   51 51 51   13 24 21   13 24 21   13 24 21   13 24 21   13 24 21   13 24 21   19 36 32   18 33 29   13 24 21   51 51 51   51 51 51   51 51 51   51 51 51   51 51 51   51 51 51   51 51 51   24 7 1   24 7 1   24 7 1   24 7 1   57 18 3   24 7 1   51 51 51   51 51 51   51 51 51   51 51 51   51 51 51   51 51 51   51 51 51   51 51 51   51 51 51   51 51 51   51 51 51   51 51 51   51 51 51   51 51 51   51 51 51   51 51 51   51 51 51   51 51 51   51 51 51   51 51 51   51 51 51   51 51 51   51 51 51   51 51 51   51 51 51   51 51 51   51 51 51   
51 51 51   51 51 51   51 51 51   51 51 51   13 24 21   13 24 21   13 24 21   13 24 21   13 24 21   51 51 51   51 51 51   51 51 51   51 51 51   51 51 51   51 51 51   51 51 51   51 51 51   51 51 51   51 51 51   51 51 51   24 7 1   24 7 1   51 51 51   51 51 51   51 51 51   51 51 51   51 51 51   51 51 51   51 51 51   51 51 51   51 51 51   51 51 51   51 51 51   51 51 51   51 51 51   51 51 51   51 51 51   51 51 51   51 51 51   51 51 51   51 51 51   51 51 51   51 51 51   51 51 51   51 51 51   51 51 51   51 51 51   51 51 51   51 51 51   51 51 51   51 51 51   
51 51 51   51 51 51   51 51 51   51 51 51   51 51 51   51 51 51   51 51 51   51 51 51   51 51 51   51 51 51   51 51 51   51 51 51   51 51 51   51 51 51   51 51 51   51 51 51   36 128 172   51 180 243   60 211 255   66 232 255   69 245 255   69 244 255   51 51 51   51 51 51   51 51 51   51 51 51   51 51 51   51 51 51   14 7 9   180 96 117   218 116 141   243 129 157   236 126 153   51 51 51   51 51 51   51 51 51   51 51 51   51 51 51   51 51 51   51 51 51   51 51 51   51 51 51   51 51 51   51 51 51   51 51 51   51 51 51   51 51 51   51 51 51   51 51 51   51 51 51   51 51 51   
51 51 51   51 51 51   51 51 51   51 51 51   51 51 51   51 51 51   51 51 51   51 51 51   51 51 51   51 51 51   51 51 51   51 51 51   51 51 51   51 51 51   51 51 51   33 117 158   47 166 224   56 200 255   64 226 255   70 246 255   74 255 255   76 255 255   75 255 255   51 51 51   51 51 51   51 51 51   51 51 51   77 41 50   138 74 90   184 98 119   220 117 143   248 132 161   255 142 172   255 139 169   51 51 51   51 51 51   51 51 51   51 51 51   51 51 51   51 51 51   51 51 51   51 51 51   51 51 51   51 51 51   51 51 51   51 51 51   51 51 51   51 51 51   51 51 51   51 51 51   51 51 51   
51 51 51   51 51 51   51 51 51   51 51 51   51 51 51   51 51 51   51 51 51   51 51 51   51 51 51   51 51 51   178 135 134   51 51 51   51 51 51   51 51 51   21 77 103   38 134 180   49 172 233   57 203 255   64 227 255   70 247 255   74 255 255   77 255 255   78 255 255   75 255 255   51 51 51   51 51 51   14 7 9   75 40 48   129 69 84   172 92 112   208 111 135   255 130 162   255 137 167   255 142 173   51 51 51   51 51 51   51 51 51   51 51 51   51 51 51   51 51 51   51 51 51   51 51 51   51 51 51   51 51 51   51 51 51   52 22 18   84 35 30   109 46 39   131 55 46   148 63 53   51 51 51   
51 51 51   51 51 51   51 51 51   51 51 51   51 51 51   51 51 51   51 51 51   51 51 51   122 92 92   204 154 154   240 182 181   234 177 176   51 51 51   4 15 20   24 87 118   38 134 181   48 169 228   56 198 255   63 221 255   69 241 255   116 255 255   89 255 255   77 255 255   76 255 255   69 244 255   51 51 51   14 7 9   58 31 38   110 59 71   153 81 99   188 100 122   217 115 140   238 127 154   250 133 162   231 123 150   51 51 51   51 51 51   51 51 51   51 51 51   51 51 51   51 51 51   51 51 51   51 51 51   51 51 51   20 8 7   53 22 19   80 34 28   104 44 37   126 53 45   145 61 51   161 68 57   
51 51 51   51 51 51   51 51 51   51 51 51   51 51 51   51 51 51   51 51 51   51 51 51   110 83 83   179 136 135   214 162 162   214 162 161   51 51 51   5 18 25   23 83 112   36 126 170   45 160 216   53 187 253   59 210 255   66 230 255   131 255 255   116 255 255   74 255 255   74 255 255   69 245 255   51 51 51   14 7 9   32 17 20   84 45 54   126 67 82   161 86 105   190 101 123   212 113 137   224 119 145   210 112 136   51 51 51   51 51 51   51 51 51   51 51 51   51 51 51   51 51 51   51 51 51   51 51 51   9 4 3   14 6 5   45 19 16   71 30 25   94 40 33   116 49 41   135 57 48   155 65 55   
51 51 51   51 51 51   51 51 51   51 51 51   51 51 51   51 51 51   51 51 51   51 51 51   47 35 35   118 90 89   151 115 114   145 110 109   51 51 51   4 15 20   20 71 96   32 113 153   41 146 197   49 173 233   55 196 255   61 214 255   66 230 255   69 241 255   70 247 255   70 246 255   66 232 255   51 51 51   14 7 9   14 7 9   50 27 32   93 50 60   129 69 83   157 84 102   179 95 116   189 101 122   151 80 98   51 51 51   51 51 51   51 51 51   51 51 51   51 51 51   51 51 51   51 51 51   51 51 51   9 4 3   9 4 3   33 14 11   59 25 21   82 35 29   103 44 37   123 52 44   255 107 105   
51 51 51   51 51 51   51 51 51   51 51 51   51 51 51   51 51 51   51 51 51   51 51 51   51 51 51   13 10 10   35 27 27   51 51 51   51 51 51   4 15 20   15 53 72   27 95 128   36 127 172   44 155 209   50 177 239   55 196 255   59 210 255   63 221 255   64 227 255   64 226 255   60 211 255   51 51 51   14 7 9   14 7 9   14 7 9   53 28 34   89 47 57   117 62 76   136 72 88   140 74 90   51 51 51   51 51 51   51 51 51   51 51 51   51 51 51   51 51 51   51 51 51   51 51 51   9 4 3   9 4 3   9 4 3   18 8 6   44 19 16   68 29 24   89 38 32   109 46 39   127 54 45   
51 51 51   51 51 51   51 51 51   51 51 51   51 51 51   51 51 51   51 51 51   51 51 51   51 51 51   51 51 51   51 51 51   51 51 51   51 51 51   4 15 20   8 28 38   20 71 96   29 105 141   37 132 178   44 155 209   49 173 233   53 187 253   56 198 255   57 203 255   56 200 255   51 180 243   51 51 51   51 51 51   14 7 9   14 7 9   14 7 9   36 19 23   63 34 41   76 40 49   51 51 51   51 51 51   51 51 51   51 51 51   51 51 51   51 51 51   51 51 51   51 51 51   51 51 51   51 51 51   9 4 3   9 4 3   9 4 3   28 12 10   52 22 18   74 31 26   93 39 33   111 47 40   
51 51 51   51 51 51   51 51 51   51 51 51   51 51 51   51 51 51   51 51 51   51 51 51   51 51 51   51 51 51   51 51 51   51 51 51   51 51 51   4 15 20   4 15 20   11 41 56   21 76 103   29 105 141   36 127 172   41 146 197   45 160 216   48 169 228   49 172 233   47 166 224   36 128 172   51 51 51   51 51 51   51 51 51   51 51 51   14 7 9   14 7 9   14 7 9   51 51 51   51 51 51   51 51 51   51 51 51   51 51 51   51 51 51   51 51 51   51 51 51   51 51 51   51 51 51   51 51 51   9 4 3   9 4 3   9 4 3   9 4 3   34 14 12   56 23 20   76 32 27   94 40 33   
51 51 51   51 51 51   51 51 51   51 51 51   51 51 51   51 51 51   51 51 51   51 51 51   51 51 51   18 10 12   18 10 12   18 10 12   51 51 51   51 51 51   4 15 20   4 15 20   11 41 56   20 71 96   27 95 128   32 113 153   36 126 170   38 134 181   38 134 180   33 117 158   51 51 51   51 51 51   51 51 51   51 51 51   51 51 51   51 51 51   51 51 51   51 51 51   51 51 51   51 51 51   51 51 51   51 51 51   51 51 51   51 51 51   51 51 51   51 51 51   51 51 51   51 51 51   51 51 51   9 4 3   9 4 3   9 4 3   9 4 3   14 6 5   36 15 13   56 24 20   74 31 26   
51 51 51   51 51 51   51 51 51   51 51 51   51 51 51   51 51 51   51 51 51   194 115 135   18 10 12   18 10 12   18 10 12   18 10 12   18 10 12   18 10 12   51 51 51   4 15 20   4 15 20   8 28 38   15 53 72   20 71 96   23 83 112   24 87 118   21 77 103   51 51 51   51 51 51   51 51 51   51 51 51   51 51 51   51 51 51   51 51 51   51 51 51   51 51 51   51 51 51   51 51 51   51 51 51   51 51 51   51 51 51   51 51 51   51 51 51   51 51 51   51 51 51   51 51 51   51 51 51   51 51 51   9 4 3   9 4 3   9 4 3   9 4 3   13 5 4   33 14 12   51 21 18   
51 51 51   51 51 51   51 51 51   51 51 51   51 51 51   71 42 50   179 107 125   18 10 12   18 10 12   18 10 12   18 10 12   18 10 12   18 10 12   18 10 12   18 10 12   51 51 51   4 15 20   4 15 20   4 15 20   4 15 20   5 18 25   4 15 20   51 51 51   51 51 51   51 51 51   51 51 51   51 51 51   51 51 51   51 51 51   51 51 51   51 51 51   51 51 51   51 51 51   51 51 51   51 51 51   51 51 51   51 51 51   51 51 51   51 51 51   51 51 51   51 51 51   51 51 51   51 51 51   51 51 51   51 51 51   51 51 51   9 4 3   9 4 3   9 4 3   9 4 3   20 8 7   
51 51 51   51 51 51   51 51 51   51 51 51   51 51 51   139 83 97   203 121 141   18 10 12   18 10 12   18 10 12   18 10 12   18 10 12   18 10 12   18 10 12   18 10 12   51 51 51   51 51 51   51 51 51   51 51 51   51 51 51   51 51 51   51 51 51   51 51 51   51 51 51   51 51 51   51 51 51   51 51 51   51 51 51   51 51 51   51 51 51   51 51 51   51 51 51   51 51 51   51 51 51   51 51 51   51 51 51   51 51 51   51 51 51   51 51 51   51 51 51   51 51 51   51 51 51   51 51 51   51 51 51   51 51 51   51 51 51   51 51 51   51 51 51   51 51 51   51 51 51   51 51 51   
51 51 51   51 51 51   51 51 51   51 51 51   67 40 46   156 93 108   210 125 146   255 154 205   18 10 12   18 10 12   18 10 12   18 10 12   18 10 12   18 10 12   18 10 12   18 10 12   51 51 51   51 51 51   51 51 51   51 51 51   51 51 51   51 51 51   51 51 51   51 51 51   51 51 51   51 51 51   51 51 51   51 51 51   51 51 51   51 51 51   51 51 51   51 51 51   51 51 51   51 51 51   51 51 51   51 51 51   51 51 51   51 51 51   51 51 51   51 51 51   51 51 51   72 1 6   153 3 13   212 5 19   255 6 23   255 7 26   255 7 27   51 51 51   51 51 51   51 51 51   51 51 51   
51 51 51   51 51 51   51 51 51   51 51 51   83 49 57   157 93 109   207 123 145   252 150 203   18 10 12   18 10 12   18 10 12   18 10 12   18 10 12   18 10 12   18 10 12   18 10 12   51 51 51   51 51 51   51 51 51   51 51 51   51 51 51   51 51 51   51 51 51   51 51 51   51 51 51   51 51 51   51 51 51   51 51 51   51 51 51   51 51 51   135 51 145   208 80 224   19 7 20   51 51 51   51 51 51   51 51 51   51 51 51   51 51 51   51 51 51   51 51 51   21 0 1   21 0 1   21 0 1   221 5 19   255 6 24   255 7 27   255 8 30   255 9 32   51 51 51   51 51 51   51 51 51   
51 51 51   51 51 51   51 51 51   51 51 51   78 46 54   147 87 102   194 116 135   236 141 184   255 164 247   18 10 12   18 10 12   18 10 12   18 10 12   18 10 12   18 10 12   18 10 12   51 51 51   51 51 51   51 51 51   51 51 51   51 51 51   51 51 51   51 51 51   51 51 51   51 51 51   51 51 51   51 51 51   51 51 51   51 51 51   102 39 110   185 71 200   246 94 255   255 111 255   255 123 255   19 7 20   51 51 51   51 51 51   51 51 51   51 51 51   21 0 1   21 0 1   21 0 1   161 4 14   215 5 19   255 6 24   255 16 37   255 27 50   255 10 34   255 9 34   51 51 51   51 51 51   
51 51 51   51 51 51   51 51 51   51 51 51   59 35 41   128 76 89   175 104 121   212 127 154   246 147 202   255 164 247   18 10 12   18 10 12   18 10 12   18 10 12   18 10 12   104 8 96   192 14 178   237 18 219   255 20 245   255 21 255   255 20 239   51 51 51   51 51 51   51 51 51   51 51 51   51 51 51   51 51 51   51 51 51   19 7 20   121 46 130   195 75 210   252 97 255   255 114 255   255 127 255   255 133 255   19 7 20   51 51 51   51 51 51   51 51 51   21 0 1   21 0 1   87 2 7   148 3 13   201 5 18   249 7 23   255 38 60   255 149 182   255 80 110   255 10 35   255 9 34   51 51 51   
51 51 51   51 51 51   51 51 51   51 51 51   24 14 16   98 59 68   147 88 102   183 109 127   212 127 154   236 141 184   252 150 203   255 154 205   18 10 12   18 10 12   126 9 117   199 15 184   248 19 229   255 22 255   255 23 255   255 25 255   255 25 255   255 24 255   51 51 51   51 51 51   51 51 51   51 51 51   51 51 51   51 51 51   24 9 26   118 45 127   188 72 203   244 94 255   255 111 255   255 204 255   255 133 255   255 132 255   51 51 51   51 51 51   51 51 51   21 0 1   21 0 1   68 1 6   129 3 11   182 4 16   230 6 21   255 24 44   255 155 187   255 175 211   255 21 46   255 9 34   51 51 51   
51 51 51   51 51 51   51 51 51   51 51 51   18 10 12   56 33 39   109 65 76   147 88 102   175 104 121   194 116 135   207 123 145   210 125 146   203 121 141   95 7 88   177 13 164   232 18 215   255 21 253   255 23 255   255 25 255   255 26 255   255 27 255   255 27 255   255 24 255   51 51 51   51 51 51   51 51 51   51 51 51   51 51 51   19 7 20   102 39 110   171 66 184   227 87 244   255 104 255   255 124 255   255 127 255   255 128 255   51 51 51   51 51 51   51 51 51   21 0 1   21 0 1   43 1 3   105 2 9   159 4 14   207 5 18   250 8 24   255 42 64   255 77 104   255 20 43   255 9 32   51 51 51   
51 51 51   51 51 51   51 51 51   51 51 51   51 51 51   18 10 12   56 33 39   98 59 68   128 76 89   147 87 102   157 93 109   156 93 108   25 1 23   136 10 125   200 15 185   248 19 230   255 22 255   255 24 255   255 26 255   255 27 255   255 28 255   255 28 255   255 27 255   255 20 250   51 51 51   51 51 51   51 51 51   51 51 51   19 7 20   74 28 80   145 55 156   201 77 217   246 95 255   255 108 255   255 117 255   255 118 255   51 51 51   51 51 51   51 51 51   21 0 1   21 0 1   21 0 1   76 1 6   131 3 11   179 4 16   223 5 20   255 8 25   255 13 33   255 9 30   255 8 30   51 51 51   
51 51 51   51 51 51   51 51 51   51 51 51   51 51 51   51 51 51   18 10 12   24 14 16   59 35 41   78 46 54   83 49 57   67 40 46   70 5 65   153 11 141   210 16 194   255 19 235   255 22 255   255 24 255   255 27 255   255 44 255   255 28 255   255 28 255   255 27 255   255 24 255   51 51 51   51 51 51   51 51 51   51 51 51   19 7 20   35 13 38   108 41 117   166 64 179   212 81 228   247 95 255   255 103 255   255 102 255   51 51 51   51 51 51   51 51 51   21 0 1   21 0 1   21 0 1   41 1 3   98 2 8   147 3 13   191 4 17   230 5 20   255 6 23   255 7 26   255 7 27   51 51 51   
51 51 51   51 51 51   51 51 51   51 51 51   51 51 51   51 51 51   51 51 51   51 51 51   51 51 51   51 51 51   51 51 51   51 51 51   86 6 79   159 12 147   212 16 196   254 19 235   255 22 255   255 24 255   255 34 255   255 212 255   255 33 255   255 28 255   255 27 255   255 24 255   51 51 51   51 51 51   51 51 51   51 51 51   19 7 20   19 7 20   59 23 64   120 46 129   167 64 180   200 77 216   218 84 235   193 74 208   51 51 51   51 51 51   51 51 51   51 51 51   21 0 1   21 0 1   21 0 1   58 1 5   110 2 9   155 3 14   194 4 17   227 5 20   252 6 22   255 6 23   51 51 51   
51 51 51   51 51 51   51 51 51   51 51 51   51 51 51   51 51 51   51 51 51   51 51 51   51 51 51   51 51 51   51 51 51   20 1 18   88 6 81   156 12 144   207 16 192   248 19 229   255 21 255   255 23 255   255 26 255   255 41 255   255 27 255   255 27 255   255 26 255   255 24 255   51 51 51   51 51 51   51 51 51   51 51 51   51 51 51   19 7 20   19 7 20   55 21 59   103 39 111   134 51 144   132 50 142   51 51 51   51 51 51   51 51 51   51 51 51   51 51 51   51 51 51   21 0 1   21 0 1   21 0 1   64 1 5   111 2 10   150 3 13   182 4 16   203 5 18   51 51 51   51 51 51   
51 51 51   51 51 51   51 51 51   51 51 51   51 51 51   51 51 51   51 51 51   51 51 51   51 51 51   51 51 51   51 51 51   20 1 18   80 6 74   146 11 135   197 15 182   237 18 219   255 20 249   255 22 255   255 24 255   255 25 255   255 26 255   255 26 255   255 25 255   255 22 255   51 51 51   51 51 51   51 51 51   51 51 51   51 51 51   51 51 51   51 51 51   51 51 51   51 51 51   51 51 51   51 51 51   51 51 51   51 51 51   51 51 51   51 51 51   51 51 51   51 51 51   51 51 51   21 0 1   21 0 1   21 0 1   53 1 4   92 2 8   119 3 10   51 51 51   51 51 51   51 51 51   
51 51 51   51 51 51   51 51 51   51 51 51   51 51 51   51 51 51   51 51 51   51 51 51   51 51 51   51 51 51   51 51 51   20 1 18   63 4 58   130 10 120   180 14 167   220 17 204   253 19 234   255 21 255   255 23 255   255 24 255   255 24 255   255 24 255   255 23 255   255 20 239   51 51 51   51 51 51   51 51 51   51 51 51   51 51 51   51 51 51   51 51 51   51 51 51   51 51 51   51 51 51   51 51 51   51 51 51   51 51 51   51 51 51   51 51 51   51 51 51   51 51 51   51 51 51   51 51 51   51 51 51   51 51 51   51 51 51   51 51 51   51 51 51   51 51 51   51 51 51   51 51 51   
