P3
51 51
255
51 51 51   51 51 51   51 51 51   51 51 51   51 51 51   51 51 51   51 51 51   51 51 51   51 51 51   51 51 51   51 51 51   51 51 51   10 255 129   51 51 51   51 51 51   51 51 51   51 51 51   51 51 51   51 51 51   51 51 51   51 51 51   51 51 51   51 51 51   51 51 51   51 51 51   51 51 51   8 21 0   22 56 1   45 112 2   66 162 4   85 208 5   102 252 7   120 255 22   133 255 8   7 15 4   13 29 9   23 51 15   33 72 22   42 92 28   51 112 34   59 131 40   68 149 46   77 168 52   87 187 60   93 205 63   102 223 69   110 242 75   51 51 51   51 51 51   51 51 51   51 51 51   
51 51 51   51 51 51   51 51 51   51 51 51   51 51 51   51 51 51   51 51 51   51 51 51   51 51 51   51 51 51   6 218 83   9 255 114   10 255 135   12 255 152   13 255 164   13 255 169   51 51 51   51 51 51   51 51 51   106 97 114   224 205 242   255 255 255   255 255 255   51 51 51   51 51 51   51 51 51   8 21 0   8 21 0   26 64 1   46 114 3   65 161 4   83 204 5   99 244 6   114 255 7   7 15 4   7 15 4   14 31 9   24 52 16   33 73 22   42 92 28   51 111 34   59 130 40   68 149 46   76 167 52   84 185 57   93 203 63   101 222 69   51 51 51   51 51 51   51 51 51   51 51 51   
51 51 51   51 51 51   51 51 51   51 51 51   51 51 51   51 51 51   51 51 51   51 51 51   51 51 51   2 96 37   6 201 77   8 255 102   9 255 122   11 255 139   17 255 153   13 255 162   13 255 164   51 51 51   51 51 51   59 54 64   156 143 168   229 210 247   255 255 255   51 51 51   51 51 51   51 51 51   8 21 0   8 21 0   8 21 0   26 64 1   45 110 2   62 153 4   79 193 5   93 228 5   7 15 4   7 15 4   7 15 4   14 32 10   24 53 16   33 72 22   42 92 28   50 111 34   59 129 40   67 147 45   75 166 51   84 184 57   92 201 62   51 51 51   51 51 51   51 51 51   51 51 51   
51 51 51   51 51 51   51 51 51   51 51 51   51 51 51   51 51 51   51 51 51   51 51 51   51 51 51   2 74 28   4 159 61   6 221 85   8 255 105   9 255 121   99 255 143   16 255 147   12 255 153   51 51 51   51 51 51   18 16 19   67 62 73   142 130 153   197 180 213   51 51 51   51 51 51   51 51 51   8 21 0   8 21 0   8 21 0   8 21 0   23 56 1   40 99 2   56 139 3   8 21 0   7 15 4   7 15 4   7 15 4   7 15 4   14 32 10   23 52 16   32 71 22   41 90 28   50 109 34   58 127 39   66 145 45   74 163 50   82 179 55   51 51 51   51 51 51   51 51 51   51 51 51   
51 51 51   51 51 51   51 51 51   51 51 51   51 51 51   51 51 51   152 60 255   191 75 255   216 85 255   0 24 9   3 105 40   5 167 64   6 219 84   8 255 101   9 255 115   10 255 127   10 255 134   10 255 133   51 51 51   18 16 19   18 16 19   37 34 40   90 82 97   51 51 51   51 51 51   51 51 51   8 21 0   8 21 0   8 21 0   8 21 0   8 21 0   16 41 1   32 79 2   8 21 0   7 15 4   7 15 4   7 15 4   7 15 4   7 15 4   14 31 9   23 50 15   31 69 21   40 88 27   48 106 33   57 124 38   64 141 44   51 51 51   51 51 51   51 51 51   51 51 51   51 51 51   
85 255 115   92 255 124   96 255 131   100 255 135   100 255 136   120 47 209   160 63 255   188 74 255   210 83 255   0 24 9   1 41 15   3 105 40   4 158 60   6 203 78   7 240 92   8 255 104   9 255 112   9 255 112   51 51 51   51 51 51   18 16 19   18 16 19   51 51 51   51 51 51   51 51 51   51 51 51   51 51 51   8 21 0   8 21 0   8 21 0   8 21 0   8 21 0   8 21 0   7 15 4   7 15 4   7 15 4   7 15 4   7 15 4   7 15 4   7 15 4   13 28 8   21 48 14   30 66 20   38 84 26   46 102 31   54 118 36   51 51 51   51 51 51   51 51 51   51 51 51   51 51 51   
86 255 116   92 255 124   97 255 131   100 255 136   103 255 140   104 255 141   101 255 137   175 69 255   197 78 255   0 24 9   0 24 9   1 33 13   2 88 34   4 134 51   5 173 66   6 203 78   6 223 86   0 24 9   51 51 51   51 51 51   51 51 51   51 51 51   51 51 51   51 51 51   51 51 51   51 51 51   51 51 51   51 51 51   8 21 0   8 21 0   8 21 0   8 21 0   7 15 4   7 15 4   7 15 4   7 15 4   7 15 4   7 15 4   7 15 4   7 15 4   7 15 4   11 24 7   19 43 13   28 61 19   35 78 24   51 51 51   51 51 51   51 51 51   51 51 51   51 51 51   51 51 51   
83 255 112   88 255 120   93 255 127   98 255 132   101 255 136   102 255 139   103 255 139   100 255 135   179 71 255   197 78 255   0 24 9   0 24 9   0 24 9   1 57 22   2 96 37   3 126 48   0 24 9   0 24 9   51 51 51   51 51 51   51 51 51   51 51 51   51 51 51   51 51 51   51 51 51   51 51 51   51 51 51   51 51 51   51 51 51   51 51 51   51 51 51   51 51 51   51 51 51   7 15 4   7 15 4   7 15 4   7 15 4   7 15 4   7 15 4   7 15 4   7 15 4   7 15 4   7 15 4   16 35 11   22 48 15   51 51 51   51 51 51   51 51 51   51 51 51   51 51 51   51 51 51   
78 255 105   84 255 113   89 255 120   109 255 132   135 255 146   100 255 134   100 255 135   99 255 134   94 255 127   176 70 255   0 24 9   0 24 9   0 24 9   0 24 9   0 24 9   0 24 9   0 24 9   51 51 51   51 51 51   51 51 51   51 51 51   51 51 51   51 51 51   51 51 51   51 51 51   51 51 51   51 51 51   51 51 51   51 51 51   51 51 51   51 51 51   51 51 51   51 51 51   51 51 51   7 15 4   7 15 4   7 15 4   7 15 4   7 15 4   7 15 4   7 15 4   7 15 4   7 15 4   7 15 4   35 194 148   40 217 166   44 238 182   47 255 197   51 51 51   51 51 51   51 51 51   
72 255 97   77 255 105   82 255 112   99 255 123   185 255 161   119 255 137   94 255 128   94 255 128   92 255 125   81 255 110   14 5 25   0 24 9   0 24 9   0 24 9   0 24 9   0 24 9   51 51 51   51 51 51   51 51 51   51 51 51   51 51 51   51 51 51   51 51 51   51 51 51   51 51 51   51 51 51   51 51 51   51 51 51   51 51 51   51 51 51   51 51 51   51 51 51   51 51 51   51 51 51   51 51 51   7 15 4   7 15 4   7 15 4   7 15 4   7 15 4   7 15 4   7 15 4   23 128 98   28 153 117   32 177 136   37 200 153   41 222 169   44 242 185   48 255 200   51 51 51   51 51 51   
64 244 87   70 255 95   75 255 102   80 255 108   85 255 113   88 255 117   88 255 119   88 255 119   87 255 117   81 255 109   14 5 25   14 5 25   167 66 255   175 69 255   255 82 255   255 95 255   255 103 255   255 104 255   51 51 51   51 51 51   51 51 51   51 51 51   51 51 51   51 51 51   51 51 51   51 51 51   51 51 51   51 51 51   51 51 51   51 51 51   51 51 51   51 51 51   51 51 51   51 51 51   51 51 51   51 51 51   51 51 51   7 15 4   7 15 4   7 15 4   9 53 41   15 83 64   20 110 84   25 135 104   29 159 122   33 182 139   39 205 156   43 227 171   45 244 186   48 255 200   51 51 51   
56 213 76   62 235 84   67 255 91   71 255 97   75 255 102   78 255 106   80 255 108   80 255 109   79 255 107   75 255 101   14 5 25   14 5 25   137 54 238   19 6 22   255 87 255   255 97 255   255 106 255   255 112 255   255 115 255   255 107 255   51 51 51   51 51 51   51 51 51   51 51 51   51 51 51   51 51 51   51 51 51   51 51 51   51 51 51   51 51 51   51 51 51   51 51 51   51 51 51   51 51 51   51 51 51   51 51 51   51 51 51   51 51 51   2 14 11   2 14 11   6 36 27   12 65 50   17 91 70   21 116 89   25 140 107   30 162 124   35 186 141   110 255 168   42 225 171   45 243 186   47 255 197   
47 178 64   53 201 72   58 220 79   62 237 85   66 251 90   69 255 93   71 255 96   71 255 97   70 255 95   66 250 89   14 5 25   14 5 25   19 6 22   19 6 22   255 84 255   255 94 255   255 102 255   255 108 255   255 113 255   255 115 255   255 105 255   51 51 51   51 51 51   51 51 51   51 51 51   51 51 51   51 51 51   51 51 51   51 51 51   51 51 51   51 51 51   51 51 51   51 51 51   51 51 51   51 51 51   247 160 187   255 212 247   21 13 15   2 14 11   2 14 11   2 14 11   8 45 34   13 71 54   17 96 73   22 119 91   26 142 108   30 163 125   34 185 141   37 204 156   41 223 170   44 239 183   
36 139 49   43 162 58   48 182 65   52 199 71   56 213 76   59 223 80   61 230 82   61 232 83   60 227 81   55 209 75   14 5 25   19 6 22   19 6 22   19 6 22   242 77 255   255 87 255   255 95 255   255 199 255   255 108 255   255 110 255   255 109 255   51 51 51   51 51 51   51 51 51   51 51 51   51 51 51   51 51 51   51 51 51   51 51 51   51 51 51   51 51 51   51 51 51   51 51 51   51 51 51   21 13 15   21 13 15   255 184 213   21 13 15   2 14 11   2 14 11   2 14 11   4 23 18   9 50 38   13 75 57   18 98 75   22 121 92   26 142 109   30 163 125   33 183 140   37 201 154   40 218 167   
25 94 33   31 119 42   36 139 50   41 156 56   45 170 61   47 181 64   49 187 67   49 188 67   48 181 65   41 158 56   19 6 22   19 6 22   19 6 22   19 6 22   216 69 242   246 79 255   255 87 255   255 98 255   255 101 255   255 102 255   255 103 255   255 93 255   51 51 51   51 51 51   51 51 51   51 51 51   51 51 51   0 170 175   1 255 255   1 255 255   51 51 51   51 51 51   51 51 51   21 13 15   21 13 15   21 13 15   21 13 15   21 13 15   2 14 11   2 14 11   2 14 11   2 14 11   5 27 21   9 52 40   14 76 58   18 99 75   22 120 92   26 141 108   29 161 123   33 179 137   36 195 149   
11 43 15   18 69 24   24 90 32   28 108 38   32 122 43   35 132 47   36 137 49   36 136 48   33 125 44   23 87 31   19 6 22   19 6 22   19 6 22   19 6 22   19 6 22   215 69 241   241 77 255   19 6 22   19 6 22   255 93 255   15 18 6   15 18 6   15 18 6   15 18 6   51 51 51   51 51 51   51 51 51   0 151 156   0 255 255   52 255 255   1 255 255   51 51 51   51 51 51   21 13 15   21 13 15   65 42 49   21 13 15   21 13 15   2 14 11   2 14 11   2 14 11   2 14 11   2 14 11   5 29 22   9 53 40   14 76 58   18 97 74   21 118 90   25 137 105   28 155 119   31 169 129   
5 21 7   5 21 7   9 34 12   13 52 18   17 66 23   20 75 27   20 78 28   19 73 26   13 52 18   51 51 51   19 6 22   19 6 22   19 6 22   19 6 22   19 6 22   180 57 201   19 6 22   19 6 22   15 18 6   15 18 6   15 18 6   15 18 6   15 18 6   15 18 6   15 18 6   15 18 6   0 21 22   0 62 64   0 175 180   0 255 255   1 255 255   51 51 51   51 51 51   21 13 15   21 13 15   21 13 15   21 13 15   21 13 15   2 14 11   2 14 11   2 14 11   2 14 11   2 14 11   2 14 11   5 28 21   9 51 39   13 73 55   17 93 71   20 112 86   23 129 99   51 51 51   
5 21 7   5 21 7   5 21 7   5 21 7   5 21 7   5 21 7   5 21 7   5 21 7   51 51 51   51 51 51   19 6 22   19 6 22   19 6 22   19 6 22   19 6 22   19 6 22   19 6 22   15 18 6   15 18 6   15 18 6   15 18 6   234 255 95   254 255 102   15 18 6   15 18 6   15 18 6   15 18 6   0 21 22   0 53 55   0 133 137   51 51 51   51 51 51   51 51 51   51 51 51   21 13 15   21 13 15   21 13 15   51 51 51   2 14 11   2 14 11   2 14 11   2 14 11   2 14 11   87 106 14   131 146 44   181 188 84   217 220 108   215 231 87   174 219 22   18 98 75   51 51 51   
51 51 51   5 21 7   5 21 7   5 21 7   5 21 7   5 21 7   24 8 16   24 8 16   51 51 51   51 51 51   51 51 51   19 6 22   19 6 22   19 6 22   19 6 22   19 6 22   15 18 6   111 127 45   147 169 59   177 203 71   202 232 82   224 255 90   249 255 99   255 255 114   15 18 6   15 18 6   15 18 6   15 18 6   9 3 21   9 3 21   9 3 21   9 3 21   51 51 51   51 51 51   51 51 51   51 51 51   51 51 51   51 51 51   51 51 51   2 14 11   2 14 11   19 24 2   48 60 5   82 96 20   137 141 64   206 192 128   255 238 186   255 255 200   255 255 143   181 224 28   51 51 51   
51 51 51   24 8 16   24 8 16   24 8 16   255 171 255   255 242 255   255 154 255   255 141 255   51 51 51   51 51 51   51 51 51   19 6 22   19 6 22   19 6 22   19 6 22   19 6 22   57 66 23   101 116 41   136 155 55   164 188 66   189 216 76   211 241 85   238 255 94   255 255 119   255 255 132   15 18 6   15 18 6   15 18 6   9 3 21   9 3 21   9 3 21   9 3 21   163 59 255   51 51 51   51 51 51   51 51 51   51 51 51   51 51 51   51 51 51   51 51 51   9 12 1   9 12 1   35 44 4   65 77 14   116 120 54   186 171 120   255 223 191   255 255 232   255 255 209   233 243 105   51 51 51   
24 8 16   24 8 16   255 93 183   255 111 219   255 142 255   255 219 255   255 153 255   255 132 255   255 111 219   51 51 51   51 51 51   51 51 51   19 6 22   19 6 22   19 6 22   15 18 6   45 52 18   87 99 35   120 137 48   148 170 60   172 197 70   194 222 78   214 245 86   250 255 97   255 255 109   255 255 105   15 18 6   15 18 6   9 3 21   9 3 21   9 3 21   152 61 255   158 57 255   7 22 9   7 22 9   7 22 9   7 22 9   51 51 51   51 51 51   51 51 51   9 12 1   9 12 1   20 25 2   44 55 6   82 91 29   141 136 80   209 185 145   255 227 196   255 247 198   238 235 128   158 199 19   
24 8 16   140 48 95   215 73 145   255 92 181   255 105 207   255 114 224   255 117 230   255 113 223   255 95 188   51 51 51   51 51 51   51 51 51   51 51 51   51 51 51   19 6 22   15 18 6   27 31 11   68 78 27   101 116 41   129 148 52   153 176 62   175 200 70   193 222 78   210 241 85   226 255 91   235 255 95   242 255 97   242 255 98   86 31 204   106 38 251   123 45 255   136 49 255   143 51 255   7 22 9   7 22 9   7 22 9   7 22 9   51 51 51   51 51 51   51 51 51   9 12 1   9 12 1   9 12 1   26 34 3   51 62 9   91 98 37   145 139 83   195 178 127   220 203 140   199 203 99   144 180 19   
24 8 16   58 20 39   139 47 94   194 66 131   232 79 157   255 88 173   255 91 179   252 86 170   185 63 125   51 51 51   51 51 51   51 51 51   51 51 51   51 51 51   51 51 51   15 18 6   15 18 6   45 52 18   79 90 32   107 122 43   131 150 53   153 175 62   172 197 69   188 215 76   202 231 81   212 243 86   219 251 88   219 251 88   66 24 156   86 31 204   103 37 243   115 41 255   122 44 255   7 22 9   7 22 9   7 22 9   7 22 9   7 22 9   51 51 51   51 51 51   9 12 1   9 12 1   9 12 1   9 12 1   30 38 3   53 65 10   88 96 32   125 129 60   149 153 72   145 160 51   120 152 13   
51 51 51   24 8 16   36 12 24   98 33 66   138 47 94   162 55 109   166 57 112   141 48 95   51 51 51   51 51 51   51 51 51   51 51 51   51 51 51   51 51 51   51 51 51   15 18 6   15 18 6   15 18 6   53 61 21   82 94 33   107 122 43   128 147 52   147 168 59   163 187 66   177 202 71   187 214 75   193 221 78   191 219 77   42 15 100   62 22 148   79 28 187   91 33 215   95 34 226   7 22 9   7 22 9   7 22 9   7 22 9   51 51 51   51 51 51   51 51 51   9 12 1   9 12 1   9 12 1   9 12 1   9 12 1   30 38 3   50 62 7   74 87 17   93 108 24   97 120 16   51 51 51   
51 51 51   51 51 51   24 8 16   24 8 16   24 8 16   31 10 21   24 8 16   51 51 51   51 51 51   51 51 51   51 51 51   51 51 51   51 51 51   51 51 51   51 51 51   51 51 51   15 18 6   15 18 6   23 26 9   53 60 21   78 90 31   100 115 40   119 137 48   135 155 54   148 170 60   158 180 64   162 185 65   156 179 63   14 5 33   34 12 81   50 18 119   60 21 143   55 20 131   7 22 9   7 22 9   7 22 9   7 22 9   51 51 51   51 51 51   2 18 14   2 18 14   2 18 14   2 18 14   28 185 145   33 214 167   37 241 189   40 255 208   44 255 226   47 255 241   49 255 254   51 51 51   
51 51 51   51 51 51   51 51 51   51 51 51   51 51 51   19 14 21   19 14 21   255 226 255   51 51 51   51 51 51   51 51 51   51 51 51   51 51 51   51 51 51   51 51 51   51 51 51   15 18 6   15 18 6   15 18 6   15 18 6   46 52 18   68 78 27   87 100 35   103 118 41   115 132 46   123 141 50   124 142 50   9 3 21   9 3 21   9 3 21   12 4 28   12 4 28   3 2 11   1 12 2   1 12 2   1 12 2   1 12 2   51 51 51   2 18 14   2 18 14   10 68 53   16 106 83   21 141 110   26 172 135   30 201 157   35 227 178   38 252 197   42 255 215   45 255 232   48 255 246   50 255 255   
51 51 51   51 51 51   51 51 51   19 14 21   19 14 21   255 237 255   255 255 255   255 255 255   255 255 255   255 208 255   51 51 51   51 51 51   51 51 51   51 51 51   51 51 51   51 51 51   51 51 51   15 18 6   15 18 6   15 18 6   15 18 6   31 35 12   50 57 20   65 75 26   76 87 30   80 92 32   72 82 29   3 2 11   51 37 147   58 42 166   78 50 190   68 49 194   70 51 200   3 2 11   1 12 2   1 12 2   1 12 2   1 12 2   2 18 14   2 18 14   8 55 43   14 92 72   19 126 98   24 156 122   28 185 145   32 211 165   36 236 185   61 255 237   72 255 255   46 255 235   48 255 248   
51 51 51   51 51 51   19 14 21   212 160 229   255 206 255   255 237 255   255 255 255   255 255 255   255 255 255   255 248 255   51 51 51   51 51 51   51 51 51   51 51 51   51 51 51   51 51 51   4 10 17   4 10 17   15 18 6   15 18 6   15 18 6   15 18 6   15 18 6   15 18 6   23 27 9   15 18 6   30 21 86   39 28 113   47 34 135   54 39 155   94 53 188   65 46 184   67 48 191   3 2 11   1 12 2   1 12 2   1 12 2   1 12 2   2 18 14   2 18 14   5 38 30   11 75 59   16 108 85   21 139 109   25 167 131   29 194 152   33 219 171   38 242 191   68 255 251   43 255 222   46 255 235   
51 51 51   51 51 51   115 87 125   201 151 217   255 193 255   255 222 255   255 244 255   255 255 255   255 254 255   255 239 255   237 179 255   51 51 51   51 51 51   51 51 51   51 51 51   51 51 51   4 10 17   4 10 17   4 10 17   51 51 51   15 18 6   15 18 6   15 18 6   15 18 6   3 2 11   13 10 39   25 18 71   34 24 98   42 30 120   49 35 139   54 39 156   59 42 168   62 45 176   3 2 11   1 12 2   1 12 2   1 12 2   2 18 14   2 18 14   2 18 14   2 18 14   8 56 43   13 89 70   18 120 94   22 148 116   26 175 137   30 199 156   34 223 174   37 244 191   40 255 207   43 255 221   
51 51 51   51 51 51   88 66 95   169 127 183   222 168 240   255 196 255   255 215 255   255 226 255   255 226 255   255 212 255   207 156 224   51 51 51   51 51 51   51 51 51   51 51 51   51 51 51   16 6 1   4 10 17   255 106 27   16 6 1   255 108 27   21 3 7   21 3 7   21 3 7   3 2 11   7 5 20   18 13 52   28 20 79   36 26 102   42 31 121   48 35 137   52 38 150   55 40 157   3 2 11   1 12 2   1 12 2   1 12 2   2 18 14   2 18 14   2 18 14   2 18 14   5 34 27   10 68 53   15 99 77   19 127 99   23 154 120   27 179 140   31 202 158   34 224 175   37 244 191   40 255 205   
51 51 51   51 51 51   33 25 36   119 90 129   173 131 188   211 159 228   236 178 255   249 188 255   247 186 255   222 168 240   51 51 51   51 51 51   51 51 51   51 51 51   51 51 51   16 6 1   16 6 1   16 6 1   16 6 1   16 6 1   16 6 1   16 6 1   11 12 12   11 12 12   3 2 11   3 2 11   10 7 30   20 14 57   28 20 80   35 25 100   40 29 116   45 32 127   47 34 134   3 2 11   1 12 2   1 12 2   1 12 2   2 18 14   2 18 14   2 18 14   2 18 14   2 18 14   6 45 35   11 76 59   16 105 82   20 131 103   24 157 122   27 180 141   31 202 158   34 221 173   36 239 187   
51 51 51   51 51 51   19 14 21   46 35 50   107 81 116   146 110 158   171 129 185   181 137 196   173 131 188   130 98 141   51 51 51   51 51 51   51 51 51   51 51 51   16 6 1   16 6 1   16 6 1   16 6 1   16 6 1   16 6 1   16 6 1   11 12 12   11 12 12   11 12 12   3 2 11   3 2 11   3 2 11   11 7 31   19 14 54   26 18 74   31 22 89   35 25 100   3 2 11   1 12 2   1 12 2   1 12 2   1 12 2   18 13 7   2 18 14   2 18 14   2 18 14   2 18 14   2 18 14   7 51 40   12 80 63   16 107 84   20 133 104   24 156 122   27 178 139   30 197 154   32 214 167   
51 51 51   51 51 51   51 51 51   19 14 21   19 14 21   55 42 60   80 60 86   84 63 91   55 42 60   51 51 51   51 51 51   51 51 51   51 51 51   51 51 51   16 6 1   16 6 1   16 6 1   16 6 1   16 6 1   16 6 1   16 6 1   11 12 12   11 12 12   11 12 12   11 12 12   3 2 11   3 2 11   3 2 11   8 5 22   15 10 42   20 14 57   22 16 64   3 2 11   51 51 51   1 12 2   18 13 7   18 13 7   18 13 7   2 18 14   2 18 14   2 18 14   2 18 14   2 18 14   2 18 14   8 53 42   12 81 63   16 106 83   20 130 101   23 151 118   26 170 133   28 185 145   
51 51 51   51 51 51   51 51 51   51 51 51   51 51 51   51 51 51   51 51 51   51 51 51   51 51 51   212 3 135   14 0 9   51 51 51   51 51 51   51 51 51   16 6 1   16 6 1   16 6 1   16 6 1   16 6 1   16 6 1   16 6 1   11 12 12   11 12 12   11 12 12   11 12 12   11 12 12   3 2 11   3 2 11   3 2 11   3 2 11   3 2 11   51 51 51   51 51 51   51 51 51   51 51 51   18 13 7   18 13 7   18 13 7   18 13 7   2 18 14   2 18 14   2 18 14   2 18 14   2 18 14   2 18 14   7 51 40   11 77 60   15 100 78   18 121 95   21 139 108   23 150 118   
51 51 51   51 51 51   51 51 51   51 51 51   51 51 51   51 51 51   51 51 51   51 51 51   119 2 76   214 3 136   255 15 161   14 0 9   51 51 51   51 51 51   51 51 51   16 6 1   16 6 1   16 6 1   16 6 1   16 6 1   16 6 1   11 12 12   11 12 12   11 12 12   11 12 12   51 51 51   51 51 51   21 2 1   21 2 1   21 2 1   21 2 1   51 51 51   51 51 51   51 51 51   51 51 51   18 13 7   18 13 7   18 13 7   18 13 7   18 13 7   2 18 14   2 18 14   2 18 14   2 18 14   2 18 14   2 18 14   6 43 34   10 66 52   13 85 67   15 99 78   51 51 51   
51 51 51   51 51 51   51 51 51   51 51 51   51 51 51   51 51 51   51 51 51   51 51 51   62 1 39   154 2 98   187 3 119   146 2 93   51 51 51   51 51 51   51 51 51   16 6 1   16 6 1   16 6 1   16 6 1   16 6 1   6 22 25   6 22 25   6 22 25   6 22 25   6 22 25   51 51 51   51 51 51   21 2 1   21 2 1   21 2 1   21 2 1   51 51 51   51 51 51   51 51 51   51 51 51   18 13 7   18 13 7   18 13 7   18 13 7   18 13 7   18 13 7   2 18 14   2 18 14   2 18 14   2 18 14   2 18 14   2 18 14   3 22 17   5 34 26   51 51 51   51 51 51   
51 51 51   51 51 51   51 51 51   51 51 51   51 51 51   51 51 51   51 51 51   51 51 51   51 51 51   21 0 13   38 0 24   51 51 51   51 51 51   51 51 51   51 51 51   51 51 51   51 51 51   16 6 1   16 6 1   48 181 200   68 252 255   95 255 255   132 255 255   150 255 255   137 255 255   6 22 25   51 51 51   21 2 1   21 2 1   21 2 1   51 51 51   51 51 51   51 51 51   51 51 51   51 51 51   51 51 51   65 86 88   188 247 253   255 255 255   255 255 255   18 13 7   150 110 60   180 133 73   202 149 81   200 147 80   51 51 51   51 51 51   51 51 51   51 51 51   51 51 51   51 51 51   
51 51 51   51 51 51   51 51 51   51 51 51   51 51 51   51 51 51   51 51 51   51 51 51   51 51 51   51 51 51   51 51 51   51 51 51   51 51 51   51 51 51   51 51 51   51 51 51   54 101 76   51 51 51   37 138 153   58 217 241   92 255 255   154 255 255   209 255 255   240 255 255   235 255 255   188 255 255   109 255 255   51 51 51   51 51 51   51 51 51   51 51 51   51 51 51   51 51 51   3 14 14   3 14 14   51 51 51   49 64 66   163 215 220   249 255 255   255 255 255   255 255 255   102 75 41   130 96 52   144 106 58   51 51 51   51 51 51   51 51 51   51 51 51   51 51 51   51 51 51   51 51 51   
51 51 51   51 51 51   51 51 51   51 51 51   51 51 51   51 51 51   51 51 51   51 51 51   51 51 51   51 51 51   51 51 51   51 51 51   51 51 51   51 51 51   36 68 51   60 113 85   74 138 104   16 61 67   43 161 179   62 229 254   122 255 255   196 255 255   255 255 255   255 255 255   255 255 255   255 255 255   178 255 255   6 22 25   51 51 51   51 51 51   51 51 51   51 51 51   3 14 14   3 14 14   3 14 14   3 14 14   18 24 24   113 148 152   200 255 255   255 255 255   255 255 255   36 26 14   7 23 18   87 255 204   96 255 225   51 51 51   51 51 51   51 51 51   51 51 51   51 51 51   51 51 51   
51 51 51   51 51 51   51 51 51   51 51 51   51 51 51   51 51 51   51 51 51   51 51 51   51 51 51   51 51 51   51 51 51   51 51 51   51 51 51   9 18 13   45 84 63   64 120 90   4 8 6   21 80 89   44 165 183   67 228 254   134 255 255   212 255 255   255 255 255   255 255 255   255 255 255   255 255 255   222 255 255   6 22 25   51 51 51   51 51 51   51 51 51   51 51 51   3 14 14   3 14 14   3 14 14   3 14 14   18 24 24   37 49 50   127 168 172   189 249 255   184 242 248   54 165 127   77 236 182   98 255 229   116 255 255   126 255 255   126 255 255   51 51 51   51 51 51   51 51 51   51 51 51   
51 51 51   51 51 51   51 51 51   51 51 51   51 51 51   51 51 51   51 51 51   51 51 51   51 51 51   51 51 51   51 51 51   51 51 51   51 51 51   14 26 20   43 80 61   61 113 86   6 22 25   21 79 88   42 158 175   63 218 243   128 255 255   204 255 255   255 255 255   255 255 255   255 255 255   255 255 255   231 255 255   125 255 255   51 51 51   51 51 51   51 51 51   51 51 51   3 14 14   3 14 14   3 14 14   3 14 14   51 51 51   18 24 24   18 24 24   45 59 61   28 87 67   55 168 129   78 236 182   106 255 239   144 255 255   163 255 255   147 255 255   137 255 255   51 51 51   51 51 51   51 51 51   
51 51 51   51 51 51   51 51 51   51 51 51   51 51 51   51 51 51   51 51 51   51 51 51   51 51 51   51 51 51   51 51 51   51 51 51   51 51 51   6 12 9   35 65 49   52 98 74   6 22 25   17 65 72   38 142 158   54 201 223   106 251 255   175 255 255   237 255 255   255 255 255   255 255 255   255 255 255   208 255 255   115 255 255   51 51 51   51 51 51   51 51 51   51 51 51   51 51 51   3 14 14   3 14 14   23 91 91   51 51 51   51 51 51   51 51 51   7 23 18   25 78 60   51 155 120   74 224 172   108 255 237   169 255 255   221 255 255   205 255 255   151 255 255   51 51 51   51 51 51   51 51 51   
51 51 51   51 51 51   51 51 51   51 51 51   51 51 51   51 51 51   51 51 51   51 51 51   51 51 51   51 51 51   51 51 51   51 51 51   51 51 51   4 8 6   20 37 28   38 71 54   6 22 25   10 40 44   31 118 131   48 177 197   76 226 253   132 255 255   186 255 255   224 255 255   237 255 255   217 255 255   6 22 25   6 22 25   133 151 73   243 255 134   255 255 149   51 51 51   51 51 51   51 51 51   51 51 51   51 51 51   51 51 51   51 51 51   7 23 18   7 23 18   19 58 45   44 134 103   66 201 155   97 255 215   159 255 255   231 255 255   241 255 255   176 255 255   140 255 255   51 51 51   51 51 51   
51 51 51   51 51 51   51 51 51   51 51 51   51 51 51   255 255 22   255 255 29   255 255 29   51 51 51   51 51 51   51 51 51   51 51 51   51 51 51   51 51 51   4 8 6   4 8 6   4 8 6   6 22 25   23 85 94   39 146 162   52 195 216   85 236 255   126 255 255   157 255 255   167 255 255   150 255 255   6 22 25   87 100 48   220 250 121   255 255 168   255 255 198   255 255 205   51 51 51   51 51 51   51 51 51   51 51 51   51 51 51   51 51 51   7 23 18   7 23 18   7 23 18   35 107 82   57 173 133   80 239 184   124 255 255   185 255 255   213 255 255   175 255 255   136 255 255   51 51 51   51 51 51   
51 51 51   51 51 51   51 51 51   51 51 51   134 165 12   255 255 24   255 255 77   255 255 29   51 51 51   51 51 51   51 51 51   51 51 51   51 51 51   51 51 51   51 51 51   51 51 51   51 51 51   6 22 25   11 41 45   28 106 118   42 157 174   53 198 219   72 231 255   91 255 255   98 255 255   6 22 25   21 24 12   115 131 63   229 255 126   255 255 171   255 255 203   255 255 219   255 255 192   51 51 51   51 51 51   51 51 51   51 51 51   51 51 51   7 23 18   7 23 18   7 23 18   23 72 55   46 140 107   66 200 154   91 255 205   127 255 255   153 255 255   144 255 255   127 255 255   51 51 51   51 51 51   
51 51 51   51 51 51   51 51 51   51 51 51   95 116 8   225 255 20   255 255 24   255 255 22   51 51 51   51 51 51   51 51 51   51 51 51   51 51 51   51 51 51   51 51 51   51 51 51   51 51 51   51 51 51   6 22 25   14 53 59   29 108 120   40 151 167   49 184 204   6 22 25   6 22 25   6 22 25   21 24 12   101 116 56   212 241 117   255 255 161   255 255 199   255 255 212   255 255 202   51 51 51   51 51 51   51 51 51   51 51 51   51 51 51   51 51 51   7 23 18   7 23 18   7 23 18   32 100 77   52 160 123   71 215 166   90 255 207   108 255 243   113 255 255   113 255 255   51 51 51   51 51 51   
51 51 51   51 51 51   51 51 51   51 51 51   51 51 51   95 116 8   134 165 12   51 51 51   51 51 51   51 51 51   51 51 51   51 51 51   51 51 51   51 51 51   51 51 51   51 51 51   51 51 51   51 51 51   51 51 51   6 22 25   11 41 46   23 88 98   6 22 25   6 22 25   6 22 25   6 22 25   21 24 12   62 71 34   174 198 96   255 255 141   255 255 173   255 255 191   255 255 181   51 51 51   51 51 51   51 51 51   51 51 51   51 51 51   51 51 51   7 23 18   7 23 18   7 23 18   17 51 39   37 114 88   55 169 130   71 216 167   84 255 197   93 255 218   93 255 219   51 51 51   51 51 51   
51 51 51   51 51 51   51 51 51   51 51 51   51 51 51   51 51 51   51 51 51   51 51 51   51 51 51   51 51 51   51 51 51   51 51 51   51 51 51   51 51 51   51 51 51   51 51 51   51 51 51   51 51 51   51 51 51   51 51 51   6 22 25   6 22 25   6 22 25   6 22 25   51 51 51   51 51 51   51 51 51   21 24 12   114 130 63   198 226 109   255 255 141   255 255 157   216 246 119   51 51 51   51 51 51   51 51 51   51 51 51   51 51 51   51 51 51   51 51 51   7 23 18   7 23 18   7 23 18   19 58 44   37 114 88   53 162 124   65 199 153   72 219 168   51 51 51   51 51 51   51 51 51   
51 51 51   51 51 51   51 51 51   51 51 51   51 51 51   51 51 51   51 51 51   51 51 51   51 51 51   51 51 51   51 51 51   51 51 51   51 51 51   51 51 51   51 51 51   51 51 51   51 51 51   51 51 51   51 51 51   51 51 51   51 51 51   51 51 51   51 51 51   51 51 51   51 51 51   51 51 51   51 51 51   21 24 12   21 24 12   112 127 61   167 191 92   172 196 95   51 51 51   51 51 51   51 51 51   51 51 51   51 51 51   51 51 51   51 51 51   51 51 51   51 51 51   51 51 51   7 23 18   7 23 18   13 40 31   28 86 66   37 112 86   51 51 51   51 51 51   51 51 51   51 51 51   
51 51 51   51 51 51   51 51 51   51 51 51   51 51 51   51 51 51   51 51 51   51 51 51   51 51 51   51 51 51   51 51 51   51 51 51   51 51 51   51 51 51   51 51 51   51 51 51   51 51 51   51 51 51   51 51 51   51 51 51   51 51 51   51 51 51   51 51 51   51 51 51   51 51 51   51 51 51   51 51 51   51 51 51   51 51 51   51 51 51   51 51 51   51 51 51   51 51 51   51 51 51   51 51 51   51 51 51   51 51 51   51 51 51   51 51 51   51 51 51   51 51 51   51 51 51   51 51 51   51 51 51   51 51 51   51 51 51   51 51 51   51 51 51   51 51 51   51 51 51   51 51 51   
51 51 51   51 51 51   51 51 51   51 51 51   51 51 51   51 51 51   51 51 51   51 51 51   51 51 51   51 51 51   51 51 51   51 51 51   51 51 51   51 51 51   51 51 51   51 51 51   51 51 51   51 51 51   51 51 51   51 51 51   51 51 51   51 51 51   51 51 51   51 51 51   51 51 51   51 51 51   51 51 51   51 51 51   51 51 51   51 51 51   51 51 51   51 51 51   51 51 51   51 51 51   51 51 51   51 51 51   51 51 51   51 51 51   51 51 51   51 51 51   51 51 51   51 51 51   51 51 51   51 51 51   51 51 51   51 51 51   51 51 51   51 51 51   51 51 51   51 51 51   51 51 51   
