P3
51 51
255
51 51 51   51 51 51   51 51 51   51 51 51   51 51 51   51 51 51   51 51 51   51 51 51   51 51 51   51 51 51   51 51 51   51 51 51   51 51 51   51 51 51   51 51 51   51 51 51   51 51 51   51 51 51   51 51 51   129 114 188   51 51 51   51 51 51   51 51 51   51 51 51   51 51 51   51 51 51   51 51 51   51 51 51   51 51 51   51 51 51   51 51 51   51 51 51   51 51 51   51 51 51   51 51 51   51 51 51   51 51 51   51 51 51   51 51 51   51 51 51   51 51 51   51 51 51   51 51 51   51 51 51   51 51 51   51 51 51   51 51 51   51 51 51   51 51 51   51 51 51   51 51 51   
51 51 51   51 51 51   51 51 51   51 51 51   51 51 51   51 51 51   51 51 51   51 51 51   51 51 51   51 51 51   51 51 51   51 51 51   51 51 51   51 51 51   51 51 51   51 51 51   92 81 134   108 96 158   121 107 177   132 117 193   142 125 207   149 132 218   153 135 223   51 51 51   51 51 51   51 51 51   51 51 51   51 51 51   51 51 51   51 51 51   51 51 51   51 51 51   51 51 51   51 51 51   51 51 51   51 51 51   51 51 51   51 51 51   51 51 51   51 51 51   51 51 51   51 51 51   51 51 51   51 51 51   51 51 51   51 51 51   51 51 51   51 51 51   51 51 51   51 51 51   51 51 51   
51 51 51   51 51 51   51 51 51   51 51 51   51 51 51   51 51 51   51 51 51   51 51 51   51 51 51   51 51 51   51 51 51   51 51 51   51 51 51   51 51 51   51 51 51   72 63 105   89 79 130   103 91 150   115 102 168   126 111 184   136 120 198   144 127 210   151 134 220   155 137 226   51 51 51   51 51 51   51 51 51   51 51 51   51 51 51   51 51 51   51 51 51   51 51 51   51 51 51   51 51 51   51 51 51   51 51 51   51 51 51   51 51 51   51 51 51   51 51 51   51 51 51   51 51 51   51 51 51   51 51 51   51 51 51   51 51 51   51 51 51   51 51 51   51 51 51   51 51 51   51 51 51   
51 51 51   51 51 51   51 51 51   51 51 51   51 51 51   51 51 51   51 51 51   51 51 51   51 51 51   51 51 51   51 51 51   51 51 51   51 51 51   51 51 51   46 41 68   66 59 97   82 72 119   95 84 139   107 95 156   118 104 172   127 113 186   137 123 200   144 127 209   149 132 218   152 134 221   51 51 51   51 51 51   51 51 51   51 51 51   51 51 51   51 51 51   51 51 51   51 51 51   51 51 51   51 51 51   51 51 51   51 51 51   51 51 51   51 51 51   51 51 51   51 51 51   51 51 51   51 51 51   51 51 51   51 51 51   51 51 51   51 51 51   51 51 51   51 51 51   51 51 51   51 51 51   
51 51 51   51 51 51   51 51 51   51 51 51   51 51 51   51 51 51   51 51 51   51 51 51   51 51 51   51 51 51   51 51 51   51 51 51   51 51 51   12 11 18   39 35 58   58 51 84   72 64 106   86 76 125   97 86 142   108 95 158   118 105 172   162 251 255   142 149 219   141 124 205   145 128 212   139 123 203   51 51 51   51 51 51   51 51 51   51 51 51   51 51 51   51 51 51   51 51 51   51 51 51   51 51 51   51 51 51   51 51 51   51 51 51   51 51 51   51 51 51   51 51 51   51 51 51   51 51 51   51 51 51   51 51 51   51 51 51   51 51 51   51 51 51   51 51 51   51 51 51   51 51 51   
51 51 51   51 51 51   51 51 51   51 51 51   51 51 51   51 51 51   51 51 51   51 51 51   51 51 51   51 51 51   51 51 51   51 51 51   51 51 51   8 7 12   30 26 44   47 42 69   62 55 90   75 66 109   86 76 126   97 86 142   107 94 156   117 107 172   127 121 189   130 115 190   135 120 197   136 120 199   51 51 51   51 51 51   51 51 51   51 51 51   51 51 51   51 51 51   51 51 51   51 51 51   51 51 51   51 51 51   51 51 51   51 51 51   51 51 51   51 51 51   51 51 51   246 54 14   255 68 18   255 81 21   51 51 51   51 51 51   51 51 51   51 51 51   51 51 51   51 51 51   51 51 51   
51 51 51   51 51 51   51 51 51   51 51 51   51 51 51   51 51 51   51 51 51   51 51 51   51 51 51   51 51 51   51 51 51   51 51 51   51 51 51   8 7 12   18 16 26   35 31 52   50 44 73   63 56 92   75 66 109   85 75 125   95 84 139   104 92 152   112 99 163   119 105 173   124 110 181   126 111 184   51 51 51   51 51 51   51 51 51   51 51 51   51 51 51   51 51 51   51 51 51   51 51 51   51 51 51   51 51 51   51 51 51   51 51 51   51 51 51   53 12 3   133 29 7   200 44 11   255 58 15   255 71 23   255 82 22   51 51 51   51 51 51   51 51 51   51 51 51   51 51 51   51 51 51   
51 51 51   51 51 51   51 51 51   51 51 51   51 51 51   51 51 51   51 51 51   51 51 51   51 51 51   51 51 51   51 51 51   51 51 51   51 51 51   8 7 12   8 7 12   22 19 32   37 33 54   50 44 73   62 55 90   73 64 106   82 73 120   91 81 133   99 88 145   106 94 155   111 99 163   114 100 166   51 51 51   51 51 51   51 51 51   51 51 51   51 51 51   51 51 51   51 51 51   51 51 51   51 51 51   51 51 51   51 51 51   51 51 51   51 51 51   22 4 1   82 18 4   147 32 8   208 46 12   255 59 17   255 71 23   255 81 21   51 51 51   51 51 51   51 51 51   51 51 51   51 51 51   
51 51 51   51 51 51   51 51 51   51 51 51   51 51 51   51 51 51   51 51 51   51 51 51   51 51 51   51 51 51   51 51 51   51 51 51   51 51 51   8 7 12   8 7 12   8 7 12   23 20 33   36 32 53   48 42 70   59 52 86   69 61 100   78 69 113   86 76 125   92 82 135   97 86 142   99 88 145   51 51 51   51 51 51   51 51 51   51 51 51   51 51 51   51 51 51   51 51 51   51 51 51   51 51 51   51 51 51   51 51 51   51 51 51   22 4 1   22 4 1   22 4 1   90 20 5   151 33 9   208 46 12   255 58 15   255 68 18   51 51 51   51 51 51   51 51 51   51 51 51   51 51 51   
51 51 51   51 51 51   51 51 51   51 51 51   51 51 51   51 51 51   51 51 51   51 51 51   51 51 51   51 51 51   51 51 51   51 51 51   51 51 51   8 7 12   8 7 12   8 7 12   8 7 12   21 18 30   33 29 48   44 39 64   54 48 79   63 56 92   71 62 103   77 68 113   82 72 120   83 73 121   51 51 51   51 51 51   51 51 51   51 51 51   51 51 51   51 51 51   51 51 51   51 51 51   51 51 51   51 51 51   51 51 51   51 51 51   22 4 1   22 4 1   22 4 1   22 4 1   90 20 5   147 32 8   200 44 11   246 54 14   51 51 51   51 51 51   51 51 51   51 51 51   51 51 51   
51 51 51   51 51 51   51 51 51   51 51 51   51 51 51   51 51 51   51 51 51   51 51 51   51 51 51   51 51 51   51 51 51   255 154 255   255 196 255   8 7 12   8 7 12   8 7 12   8 7 12   8 7 12   16 14 24   28 24 41   38 33 55   47 41 68   54 48 79   60 53 88   64 57 94   62 55 91   51 51 51   51 51 51   29 109 154   43 157 221   53 193 255   59 217 255   51 51 51   51 51 51   51 51 51   51 51 51   51 51 51   51 51 51   22 4 1   22 4 1   22 4 1   22 4 1   22 4 1   82 18 4   133 29 7   51 51 51   51 51 51   51 51 51   51 51 51   51 51 51   51 51 51   
51 51 51   51 51 51   51 51 51   51 51 51   51 51 51   51 51 51   51 51 51   51 51 51   51 51 51   51 51 51   146 82 150   243 137 249   255 176 255   255 209 255   8 7 12   8 7 12   8 7 12   8 7 12   8 7 12   8 7 12   20 17 29   29 25 42   36 32 53   41 37 61   44 38 64   51 51 51   51 51 51   7 26 37   23 84 119   35 129 181   60 204 249   54 198 255   55 201 255   51 51 51   51 51 51   51 51 51   51 51 51   51 51 51   51 51 51   22 4 1   22 4 1   22 4 1   22 4 1   22 4 1   53 12 3   51 51 51   51 51 51   51 51 51   51 51 51   51 51 51   51 51 51   
51 51 51   51 51 51   51 51 51   51 51 51   51 51 51   51 51 51   51 51 51   51 51 51   51 51 51   51 51 51   96 54 98   187 106 192   254 143 255   255 172 255   255 193 255   8 7 12   8 7 12   8 7 12   8 7 12   8 7 12   8 7 12   8 7 12   15 13 22   19 16 27   15 13 23   51 51 51   51 51 51   3 11 16   13 48 68   25 92 130   35 129 182   43 158 223   47 173 244   51 51 51   51 51 51   51 51 51   51 51 51   51 51 51   51 51 51   51 51 51   22 4 1   22 4 1   22 4 1   51 51 51   51 51 51   51 51 51   51 51 51   51 51 51   51 51 51   51 51 51   51 51 51   
51 51 51   51 51 51   51 51 51   51 51 51   51 51 51   51 51 51   51 51 51   51 51 51   51 51 51   51 51 51   23 13 23   112 63 115   180 102 185   232 131 238   255 152 255   255 162 255   8 7 12   8 7 12   8 7 12   8 7 12   8 7 12   8 7 12   8 7 12   8 7 12   51 51 51   51 51 51   51 51 51   3 11 16   3 11 16   13 49 69   23 85 120   31 114 160   34 126 177   51 51 51   51 51 51   51 51 51   51 51 51   51 51 51   51 51 51   51 51 51   51 51 51   51 51 51   51 51 51   51 51 51   51 51 51   51 51 51   51 51 51   51 51 51   51 51 51   51 51 51   51 51 51   
51 51 51   51 51 51   51 51 51   51 51 51   51 51 51   51 51 51   51 51 51   51 51 51   51 51 51   51 51 51   23 13 23   23 13 23   90 50 92   143 81 146   180 101 184   195 110 200   149 84 153   51 51 51   8 7 12   8 7 12   8 7 12   8 7 12   51 51 51   51 51 51   51 51 51   51 51 51   51 51 51   3 11 16   3 11 16   3 11 16   9 33 47   16 59 83   51 51 51   51 51 51   51 51 51   51 51 51   51 51 51   51 51 51   51 51 51   51 51 51   51 51 51   51 51 51   51 51 51   51 51 51   51 51 51   51 51 51   51 51 51   51 51 51   51 51 51   51 51 51   51 51 51   
51 51 51   51 51 51   51 51 51   51 51 51   51 51 51   51 51 51   51 51 51   51 51 51   51 51 51   51 51 51   51 51 51   23 13 23   23 13 23   23 13 23   65 37 67   68 38 70   51 51 51   51 51 51   51 51 51   51 51 51   51 51 51   51 51 51   51 51 51   51 51 51   51 51 51   51 51 51   51 51 51   51 51 51   3 11 16   3 11 16   3 11 16   51 51 51   51 51 51   51 51 51   51 51 51   51 51 51   51 51 51   51 51 51   51 51 51   51 51 51   51 51 51   51 51 51   51 51 51   51 51 51   51 51 51   51 51 51   51 51 51   51 51 51   51 51 51   51 51 51   51 51 51   
51 51 51   51 51 51   51 51 51   51 51 51   51 51 51   51 51 51   51 51 51   51 51 51   51 51 51   51 51 51   51 51 51   51 51 51   23 13 23   23 13 23   23 13 23   51 51 51   51 51 51   51 51 51   51 51 51   51 51 51   51 51 51   51 51 51   51 51 51   51 51 51   51 51 51   51 51 51   51 51 51   51 51 51   51 51 51   51 51 51   51 51 51   51 51 51   51 51 51   51 51 51   51 51 51   51 51 51   51 51 51   51 51 51   51 51 51   51 51 51   51 51 51   51 51 51   51 51 51   51 51 51   51 51 51   51 51 51   51 51 51   51 51 51   51 51 51   51 51 51   51 51 51   
51 51 51   51 51 51   51 51 51   51 51 51   51 51 51   51 51 51   51 51 51   51 51 51   51 51 51   51 51 51   51 51 51   51 51 51   51 51 51   51 51 51   51 51 51   51 51 51   51 51 51   51 51 51   51 51 51   51 51 51   16 10 24   51 51 51   51 51 51   51 51 51   51 51 51   51 51 51   51 51 51   51 51 51   65 226 68   6 22 6   6 22 6   6 22 6   51 51 51   51 51 51   51 51 51   51 51 51   51 51 51   51 51 51   51 51 51   73 53 4   184 133 10   255 189 14   255 237 18   255 255 21   51 51 51   51 51 51   51 51 51   51 51 51   51 51 51   51 51 51   51 51 51   
51 51 51   51 51 51   51 51 51   51 51 51   51 51 51   51 51 51   51 51 51   51 51 51   51 51 51   51 51 51   51 51 51   0 4 1   0 4 1   51 51 51   51 51 51   51 51 51   51 51 51   51 51 51   16 10 24   16 10 24   255 160 255   255 181 255   255 172 255   51 51 51   51 51 51   51 51 51   51 51 51   39 136 41   65 225 68   6 22 6   6 22 6   6 22 6   6 22 6   51 51 51   51 51 51   51 51 51   51 51 51   51 51 51   51 51 51   59 42 3   147 106 8   221 160 12   255 208 17   255 255 32   255 255 21   51 51 51   51 51 51   51 51 51   51 51 51   51 51 51   51 51 51   
51 51 51   51 51 51   51 51 51   51 51 51   51 51 51   51 51 51   51 51 51   51 51 51   51 51 51   51 51 51   0 4 1   0 4 1   0 4 1   0 4 1   0 4 1   51 51 51   51 51 51   51 51 51   97 59 146   176 107 255   232 140 255   255 199 255   255 171 255   51 51 51   51 51 51   51 51 51   6 22 6   32 113 34   56 194 58   75 255 78   6 22 6   6 22 6   6 22 6   6 22 6   51 51 51   51 51 51   51 51 51   51 51 51   21 15 1   21 15 1   95 69 5   169 122 9   234 169 13   255 211 17   255 243 18   51 51 51   51 51 51   51 51 51   51 51 51   51 51 51   51 51 51   
51 51 51   51 51 51   51 51 51   51 51 51   51 51 51   51 51 51   51 51 51   51 51 51   51 51 51   0 4 1   0 4 1   0 4 1   0 4 1   0 4 1   0 4 1   51 51 51   51 51 51   16 10 24   46 28 69   123 75 185   179 108 255   217 131 255   232 140 255   51 51 51   51 51 51   51 51 51   6 22 6   20 71 21   43 149 45   62 214 64   6 22 6   6 22 6   6 22 6   6 22 6   51 51 51   51 51 51   51 51 51   51 51 51   21 15 1   21 15 1   34 24 1   108 78 6   173 125 9   229 166 12   255 198 15   51 51 51   51 51 51   51 51 51   51 51 51   51 51 51   51 51 51   
51 51 51   51 51 51   51 51 51   51 51 51   51 51 51   51 51 51   51 51 51   51 51 51   51 51 51   0 4 1   0 4 1   0 4 1   0 4 1   0 4 1   0 4 1   51 51 51   51 51 51   51 51 51   16 10 24   51 31 77   108 65 162   145 88 217   154 93 231   51 51 51   51 51 51   51 51 51   6 22 6   6 22 6   27 94 28   46 159 48   62 214 64   75 255 78   6 22 6   6 22 6   51 51 51   51 51 51   51 51 51   51 51 51   21 15 1   21 15 1   21 15 1   37 27 2   102 74 5   157 114 8   195 141 10   51 51 51   51 51 51   51 51 51   51 51 51   51 51 51   51 51 51   
51 51 51   51 51 51   51 51 51   51 51 51   51 51 51   51 51 51   51 51 51   51 51 51   51 51 51   51 51 51   0 4 1   0 4 1   0 4 1   0 4 1   0 4 1   51 51 51   51 51 51   51 51 51   16 10 24   16 10 24   16 10 24   43 26 64   51 51 51   51 51 51   51 51 51   51 51 51   6 22 6   6 22 6   6 22 6   27 94 28   43 149 45   56 194 58   65 225 68   65 226 68   51 51 51   51 51 51   51 51 51   51 51 51   51 51 51   21 15 1   21 15 1   21 15 1   21 15 1   67 48 3   51 51 51   51 51 51   51 51 51   51 51 51   51 51 51   51 51 51   51 51 51   
51 51 51   51 51 51   51 51 51   51 51 51   51 51 51   51 51 51   51 51 51   51 51 51   51 51 51   51 51 51   51 51 51   0 4 1   0 4 1   0 4 1   51 51 51   51 51 51   51 51 51   51 51 51   51 51 51   51 51 51   51 51 51   51 51 51   51 51 51   51 51 51   51 51 51   51 51 51   51 51 51   6 22 6   6 22 6   6 22 6   20 71 21   32 113 34   39 136 41   51 51 51   51 51 51   51 51 51   51 51 51   51 51 51   51 51 51   51 51 51   51 51 51   21 15 1   51 51 51   51 51 51   51 51 51   51 51 51   51 51 51   51 51 51   51 51 51   51 51 51   51 51 51   
51 51 51   51 51 51   51 51 51   51 51 51   51 51 51   51 51 51   51 51 51   51 51 51   51 51 51   51 51 51   51 51 51   51 51 51   51 51 51   51 51 51   51 51 51   51 51 51   51 51 51   51 51 51   51 51 51   51 51 51   51 51 51   51 51 51   51 51 51   51 51 51   51 51 51   51 51 51   51 51 51   51 51 51   6 22 6   6 22 6   6 22 6   6 22 6   51 51 51   51 51 51   51 51 51   51 51 51   51 51 51   51 51 51   51 51 51   51 51 51   51 51 51   51 51 51   51 51 51   51 51 51   51 51 51   51 51 51   51 51 51   51 51 51   51 51 51   51 51 51   51 51 51   
51 51 51   51 51 51   51 51 51   51 51 51   51 51 51   51 51 51   51 51 51   51 51 51   51 51 51   51 51 51   51 51 51   51 51 51   51 51 51   51 51 51   51 51 51   51 51 51   51 51 51   51 51 51   51 51 51   51 51 51   51 51 51   51 51 51   51 51 51   51 51 51   51 51 51   51 51 51   51 51 51   51 51 51   51 51 51   51 51 51   51 51 51   51 51 51   51 51 51   51 51 51   51 51 51   51 51 51   51 51 51   51 51 51   51 51 51   51 51 51   51 51 51   51 51 51   51 51 51   51 51 51   51 51 51   51 51 51   51 51 51   51 51 51   51 51 51   51 51 51   51 51 51   
51 51 51   51 51 51   51 51 51   51 51 51   51 51 51   51 51 51   51 51 51   51 51 51   51 51 51   51 51 51   51 51 51   51 51 51   51 51 51   51 51 51   51 51 51   51 51 51   51 51 51   51 51 51   51 51 51   136 126 79   189 176 110   207 193 121   51 51 51   51 51 51   51 51 51   51 51 51   51 51 51   51 51 51   51 51 51   51 51 51   51 51 51   51 51 51   51 51 51   51 51 51   51 51 51   51 51 51   51 51 51   51 51 51   51 51 51   51 51 51   255 124 4   255 157 6   51 51 51   51 51 51   51 51 51   51 51 51   51 51 51   51 51 51   51 51 51   51 51 51   51 51 51   
51 51 51   51 51 51   51 51 51   51 51 51   51 51 51   51 51 51   51 51 51   51 51 51   51 51 51   51 51 51   51 51 51   51 51 51   51 51 51   51 51 51   51 51 51   51 51 51   51 51 51   51 51 51   126 117 74   179 167 105   216 201 126   240 224 141   251 233 147   222 207 130   51 51 51   51 51 51   51 51 51   51 51 51   51 51 51   51 51 51   51 51 51   51 51 51   51 51 51   51 51 51   51 51 51   51 51 51   51 51 51   51 51 51   97 47 1   197 95 3   255 132 5   255 163 6   255 189 7   255 207 8   51 51 51   51 51 51   51 51 51   51 51 51   51 51 51   51 51 51   51 51 51   
51 51 51   51 51 51   51 51 51   51 51 51   51 51 51   51 51 51   51 51 51   51 51 51   51 51 51   51 51 51   51 51 51   51 51 51   51 51 51   51 51 51   51 51 51   51 51 51   51 51 51   65 60 38   133 123 77   178 166 104   213 203 137   247 255 253   255 251 184   251 233 147   51 51 51   51 51 51   51 51 51   51 51 51   51 51 51   214 22 164   255 37 255   255 46 255   51 51 51   51 51 51   51 51 51   51 51 51   51 51 51   24 11 0   92 44 1   179 87 3   253 122 4   255 153 5   255 179 7   255 201 7   255 214 8   51 51 51   51 51 51   51 51 51   51 51 51   51 51 51   51 51 51   
51 51 51   51 51 51   51 51 51   51 51 51   51 51 51   51 51 51   209 196 114   255 248 144   51 51 51   51 51 51   51 51 51   51 51 51   51 51 51   51 51 51   51 51 51   51 51 51   51 51 51   61 56 35   120 112 70   164 152 96   198 189 129   236 255 255   247 255 253   240 224 141   207 193 121   51 51 51   51 51 51   51 51 51   34 3 26   211 22 162   255 45 255   255 146 255   255 56 255   51 51 51   51 51 51   51 51 51   51 51 51   24 11 0   63 30 1   147 71 2   219 106 4   255 136 5   255 163 7   255 186 30   255 203 7   51 51 51   51 51 51   51 51 51   51 51 51   51 51 51   51 51 51   
51 51 51   51 51 51   51 51 51   51 51 51   51 51 51   199 187 108   255 255 163   255 255 186   255 255 178   51 51 51   51 51 51   51 51 51   51 51 51   51 51 51   51 51 51   51 51 51   13 12 8   39 36 22   97 90 57   140 130 82   172 161 101   198 189 129   213 203 137   216 201 126   189 176 110   51 51 51   51 51 51   51 51 51   25 2 19   155 16 119   255 30 209   255 87 255   255 58 255   51 51 51   51 51 51   51 51 51   51 51 51   24 11 0   24 11 0   105 50 1   177 85 3   240 116 4   255 143 5   255 166 6   255 183 7   255 188 7   51 51 51   51 51 51   51 51 51   51 51 51   51 51 51   
51 51 51   51 51 51   51 51 51   51 51 51   51 51 51   183 172 100   255 252 146   255 255 168   255 255 163   51 51 51   51 51 51   51 51 51   51 51 51   51 51 51   51 51 51   51 51 51   51 51 51   13 12 8   63 59 37   107 99 62   140 130 82   164 152 96   178 166 104   179 167 105   136 126 79   51 51 51   51 51 51   51 51 51   25 2 19   64 6 49   183 19 140   255 29 205   255 33 241   51 51 51   51 51 51   51 51 51   51 51 51   24 11 0   24 11 0   53 26 1   126 61 2   190 92 3   246 119 4   255 142 5   255 159 6   255 162 6   51 51 51   51 51 51   51 51 51   51 51 51   51 51 51   
51 51 51   51 51 51   51 51 51   51 51 51   51 51 51   102 96 55   187 176 102   224 210 122   207 194 113   51 51 51   51 51 51   51 51 51   51 51 51   51 51 51   51 51 51   51 51 51   51 51 51   13 12 8   13 12 8   63 59 37   97 90 57   120 112 70   133 123 77   126 117 74   51 51 51   51 51 51   51 51 51   51 51 51   51 51 51   25 2 19   56 6 43   139 14 106   158 16 120   51 51 51   51 51 51   51 51 51   51 51 51   24 11 0   24 11 0   24 11 0   67 32 1   132 64 2   188 91 3   234 113 4   255 129 5   51 51 51   51 51 51   51 51 51   51 51 51   51 51 51   51 51 51   
51 51 51   51 51 51   51 51 51   51 51 51   51 51 51   18 17 10   39 37 21   68 64 37   51 51 51   51 51 51   51 51 51   51 51 51   51 51 51   51 51 51   51 51 51   51 51 51   51 51 51   51 51 51   13 12 8   13 12 8   39 36 22   61 56 35   65 60 38   51 51 51   51 51 51   51 51 51   51 51 51   51 51 51   51 51 51   51 51 51   51 51 51   51 51 51   51 51 51   51 51 51   51 51 51   51 51 51   51 51 51   51 51 51   24 11 0   24 11 0   24 11 0   61 29 1   117 56 2   160 77 3   177 86 3   51 51 51   51 51 51   51 51 51   51 51 51   51 51 51   51 51 51   
51 51 51   51 51 51   51 51 51   51 51 51   51 51 51   51 51 51   51 51 51   51 51 51   51 51 51   51 51 51   51 51 51   51 51 51   51 51 51   51 51 51   51 51 51   51 51 51   51 51 51   51 51 51   12 0 17   12 0 17   13 12 8   12 0 17   12 0 17   12 0 17   51 51 51   51 51 51   51 51 51   51 51 51   51 51 51   51 51 51   51 51 51   51 51 51   51 51 51   51 51 51   51 51 51   51 51 51   51 51 51   51 51 51   51 51 51   24 11 0   24 11 0   24 11 0   24 11 0   33 16 0   51 51 51   51 51 51   51 51 51   51 51 51   51 51 51   51 51 51   51 51 51   
51 51 51   51 51 51   51 51 51   51 51 51   51 51 51   51 51 51   51 51 51   51 51 51   51 51 51   51 51 51   51 51 51   51 51 51   51 51 51   51 51 51   51 51 51   51 51 51   51 51 51   12 0 17   12 0 17   12 0 17   12 0 17   211 7 255   226 8 255   12 0 17   12 0 17   51 51 51   51 51 51   51 51 51   51 51 51   51 51 51   51 51 51   51 51 51   51 51 51   51 51 51   51 51 51   51 51 51   51 51 51   51 51 51   51 51 51   51 51 51   51 51 51   51 51 51   51 51 51   51 51 51   51 51 51   51 51 51   51 51 51   51 51 51   51 51 51   51 51 51   51 51 51   
51 51 51   51 51 51   51 51 51   51 51 51   51 51 51   51 51 51   51 51 51   51 51 51   51 51 51   51 51 51   51 51 51   51 51 51   51 51 51   51 51 51   51 51 51   51 51 51   12 0 17   12 0 17   12 0 17   162 5 223   189 6 255   211 7 255   227 8 255   12 0 17   12 0 17   12 0 17   51 51 51   51 51 51   51 51 51   51 51 51   51 51 51   51 51 51   51 51 51   51 51 51   51 51 51   51 51 51   51 51 51   51 51 51   51 51 51   51 51 51   51 51 51   51 51 51   51 51 51   51 51 51   51 51 51   51 51 51   51 51 51   51 51 51   51 51 51   51 51 51   51 51 51   
51 51 51   51 51 51   51 51 51   51 51 51   51 51 51   51 51 51   51 51 51   51 51 51   51 51 51   51 51 51   51 51 51   51 51 51   51 51 51   51 51 51   51 51 51   51 51 51   12 0 17   79 2 109   123 4 170   156 5 216   183 6 253   205 7 255   255 51 255   231 8 255   12 0 17   12 0 17   51 51 51   51 51 51   51 51 51   51 51 51   51 51 51   51 51 51   51 51 51   51 51 51   51 51 51   51 51 51   51 51 51   51 51 51   51 51 51   51 51 51   51 51 51   51 51 51   51 51 51   51 51 51   51 51 51   51 51 51   51 51 51   51 51 51   51 51 51   51 51 51   51 51 51   
51 51 51   51 51 51   51 51 51   51 51 51   51 51 51   51 51 51   51 51 51   30 109 20   40 148 28   45 166 31   45 164 31   51 51 51   51 51 51   51 51 51   51 51 51   51 51 51   12 0 17   70 2 97   113 4 156   145 5 201   172 6 237   193 6 255   209 7 255   218 7 255   220 7 255   208 7 255   51 51 51   51 51 51   51 51 51   140 103 165   219 162 255   255 199 255   255 219 255   51 51 51   51 51 51   51 51 51   51 51 51   51 51 51   51 51 51   51 51 51   51 51 51   51 51 51   51 51 51   42 170 68   55 222 90   65 255 106   73 255 118   51 51 51   51 51 51   51 51 51   51 51 51   
51 51 51   51 51 51   51 51 51   51 51 51   51 51 51   51 51 51   30 110 20   41 152 28   49 178 33   53 193 36   54 197 37   50 185 34   51 51 51   51 51 51   51 51 51   51 51 51   12 0 17   54 1 75   97 3 133   129 4 179   155 5 215   176 6 243   191 6 255   201 7 255   202 7 255   188 6 255   51 51 51   51 51 51   95 70 113   184 136 218   249 183 255   255 220 255   255 246 255   255 255 255   51 51 51   51 51 51   51 51 51   51 51 51   51 51 51   51 51 51   51 51 51   19 78 31   36 145 58   49 199 80   61 245 99   71 255 115   80 255 129   87 255 141   92 255 149   51 51 51   51 51 51   
51 51 51   51 51 51   51 51 51   51 51 51   51 51 51   20 75 14   35 130 24   45 164 31   51 186 35   55 201 38   56 204 38   54 197 37   45 164 31   51 51 51   51 51 51   51 51 51   12 0 17   30 1 42   74 2 103   108 3 149   134 4 185   154 5 213   169 6 234   177 6 245   177 6 244   156 5 215   51 51 51   20 14 23   113 83 134   191 141 226   252 186 255   255 221 255   255 249 255   255 255 255   255 255 255   51 51 51   51 51 51   51 51 51   51 51 51   51 51 51   5 23 9   23 95 38   38 153 62   50 203 82   61 247 100   71 255 117   81 255 133   89 255 148   95 255 157   100 255 162   101 255 164   
51 51 51   51 51 51   51 51 51   51 51 51   51 51 51   24 87 16   36 132 25   44 162 30   50 183 34   161 255 62   55 201 38   53 193 36   45 166 31   51 51 51   51 51 51   51 51 51   51 51 51   12 0 17   44 1 61   80 2 110   106 3 147   127 4 175   141 5 194   147 5 203   141 5 195   51 51 51   51 51 51   20 14 23   108 80 128   182 134 216   241 178 255   255 214 255   255 255 255   255 255 255   255 255 255   255 243 255   51 51 51   51 51 51   51 51 51   5 23 9   7 31 12   24 96 38   37 150 61   49 199 80   60 242 98   71 255 117   81 255 143   92 255 175   100 255 191   103 255 181   105 255 172   
51 51 51   51 51 51   51 51 51   51 51 51   3 11 2   22 82 15   34 124 23   41 152 28   47 171 32   50 183 34   51 186 35   49 178 33   40 148 28   51 51 51   51 51 51   51 51 51   51 51 51   12 0 17   12 0 17   42 1 58   70 2 97   90 3 125   102 3 142   104 3 143   78 2 107   51 51 51   51 51 51   20 14 23   90 66 107   163 120 193   222 164 255   255 199 255   255 229 255   255 249 255   255 255 255   20 14 23   51 51 51   51 51 51   51 51 51   5 23 9   5 23 9   22 89 36   35 142 57   47 189 76   58 232 94   68 255 115   81 255 152   96 255 210   109 255 255   112 255 246   108 255 197   
51 51 51   51 51 51   51 51 51   51 51 51   3 11 2   17 64 12   29 106 20   36 134 25   41 152 28   44 162 30   45 164 31   41 152 28   30 109 20   51 51 51   51 51 51   51 51 51   51 51 51   51 51 51   51 51 51   12 0 17   16 0 22   36 1 50   12 0 17   51 51 51   51 51 51   51 51 51   51 51 51   20 14 23   60 44 71   134 99 159   194 143 229   242 178 255   255 207 255   255 228 255   255 238 255   20 14 23   51 51 51   51 51 51   5 23 9   5 23 9   5 23 9   19 77 31   32 129 52   44 176 71   54 219 89   65 255 109   78 255 147   95 255 219   113 255 255   121 255 255   115 255 251   
51 51 51   51 51 51   51 51 51   51 51 51   51 51 51   8 31 5   21 77 14   29 106 20   34 124 23   36 132 25   35 130 24   30 110 20   51 51 51   51 51 51   51 51 51   51 51 51   51 51 51   51 51 51   51 51 51   51 51 51   51 51 51   51 51 51   51 51 51   51 51 51   51 51 51   51 51 51   51 51 51   20 14 23   20 14 23   96 70 113   156 115 185   205 151 243   244 180 255   255 200 255   20 14 23   20 14 23   51 51 51   51 51 51   5 23 9   5 23 9   5 23 9   15 61 24   28 114 46   40 160 65   50 203 82   61 243 100   72 255 131   88 255 194   108 255 255   120 255 255   118 255 255   
51 51 51   51 51 51   51 51 51   51 51 51   51 51 51   3 11 2   8 31 5   17 64 12   22 82 15   24 87 16   20 75 14   51 51 51   51 51 51   51 51 51   51 51 51   51 51 51   51 51 51   51 51 51   51 51 51   51 51 51   51 51 51   51 51 51   51 51 51   51 51 51   51 51 51   51 51 51   51 51 51   51 51 51   20 14 23   43 32 51   108 79 128   158 116 187   196 145 232   220 162 255   20 14 23   51 51 51   51 51 51   51 51 51   5 23 9   5 23 9   5 23 9   10 42 17   23 95 38   35 142 57   46 185 74   56 224 91   66 255 113   79 255 155   95 255 220   108 255 255   111 255 255   
51 51 51   51 51 51   51 51 51   51 51 51   51 51 51   51 51 51   51 51 51   3 11 2   3 11 2   51 51 51   51 51 51   51 51 51   51 51 51   51 51 51   51 51 51   51 51 51   51 51 51   51 51 51   51 51 51   51 51 51   51 51 51   51 51 51   51 51 51   51 51 51   51 51 51   51 51 51   51 51 51   51 51 51   51 51 51   20 14 23   40 30 48   93 69 110   130 96 153   20 14 23   51 51 51   51 51 51   51 51 51   51 51 51   5 23 9   5 23 9   5 23 9   5 23 9   18 73 29   30 120 48   41 164 66   51 204 82   60 241 99   70 255 123   82 255 161   93 255 200   99 255 208   
51 51 51   51 51 51   51 51 51   51 51 51   51 51 51   51 51 51   51 51 51   51 51 51   51 51 51   51 51 51   51 51 51   51 51 51   51 51 51   51 51 51   51 51 51   51 51 51   51 51 51   51 51 51   51 51 51   51 51 51   51 51 51   51 51 51   51 51 51   51 51 51   51 51 51   51 51 51   51 51 51   51 51 51   51 51 51   51 51 51   51 51 51   20 14 23   51 51 51   51 51 51   51 51 51   51 51 51   51 51 51   51 51 51   51 51 51   5 23 9   5 23 9   5 23 9   11 47 19   24 96 39   35 140 57   45 181 73   54 218 88   63 253 104   72 255 125   81 255 147   88 255 159   
51 51 51   51 51 51   51 51 51   51 51 51   51 51 51   51 51 51   51 51 51   51 51 51   51 51 51   51 51 51   51 51 51   51 51 51   51 51 51   51 51 51   51 51 51   51 51 51   51 51 51   51 51 51   51 51 51   51 51 51   51 51 51   51 51 51   51 51 51   51 51 51   51 51 51   51 51 51   51 51 51   51 51 51   51 51 51   51 51 51   51 51 51   51 51 51   51 51 51   51 51 51   51 51 51   51 51 51   51 51 51   51 51 51   51 51 51   5 23 9   5 23 9   5 23 9   5 23 9   17 69 28   28 114 46   38 155 62   48 193 78   56 227 92   65 255 106   72 255 120   79 255 131   
51 51 51   51 51 51   51 51 51   51 51 51   51 51 51   51 51 51   51 51 51   51 51 51   51 51 51   51 51 51   51 51 51   51 51 51   51 51 51   51 51 51   51 51 51   51 51 51   51 51 51   51 51 51   51 51 51   51 51 51   51 51 51   51 51 51   51 51 51   51 51 51   51 51 51   51 51 51   51 51 51   51 51 51   51 51 51   51 51 51   51 51 51   51 51 51   51 51 51   51 51 51   51 51 51   51 51 51   51 51 51   51 51 51   51 51 51   51 51 51   5 23 9   5 23 9   5 23 9   9 38 15   21 84 34   31 126 51   41 165 66   50 200 81   58 231 93   65 255 105   71 255 116   
51 51 51   51 51 51   51 51 51   51 51 51   51 51 51   51 51 51   51 51 51   51 51 51   51 51 51   51 51 51   51 51 51   51 51 51   51 51 51   51 51 51   51 51 51   51 51 51   51 51 51   51 51 51   51 51 51   51 51 51   51 51 51   51 51 51   51 51 51   51 51 51   51 51 51   51 51 51   51 51 51   51 51 51   51 51 51   51 51 51   51 51 51   51 51 51   51 51 51   51 51 51   51 51 51   51 51 51   51 51 51   51 51 51   51 51 51   51 51 51   5 23 9   5 23 9   5 23 9   5 23 9   12 50 20   23 94 38   33 133 54   42 169 68   50 201 81   57 229 93   63 254 103   
